<svg width="1167" height="1158" viewBox="0 0 1167 1158" fill="none" xmlns="http://www.w3.org/2000/svg">
<path d="M1131.23 578.973C1131.23 278.787 885.991 35.4384 583.473 35.4384C280.954 35.4384 35.7139 278.787 35.7139 578.973C35.7139 879.158 280.954 1122.51 583.473 1122.51C885.991 1122.51 1131.23 879.158 1131.23 578.973Z" fill="white"/>
<path d="M583.473 1122.51C885.991 1122.51 1131.23 879.158 1131.23 578.973C1131.23 278.787 885.991 35.4384 583.473 35.4384C280.954 35.4384 35.7139 278.787 35.7139 578.973C35.7139 879.158 280.954 1122.51 583.473 1122.51Z" fill="url(#paint0_linear_1_2)"/>
<path d="M1076.46 578.973C1076.46 849.14 855.74 1068.15 583.473 1068.15C311.206 1068.15 90.4897 849.14 90.4897 578.973C90.4897 308.806 311.206 89.7919 583.473 89.7919C855.74 89.7919 1076.46 308.806 1076.46 578.973Z" fill="url(#paint1_linear_1_2)"/>
<path d="M583.473 1025.76C826.698 1025.76 1023.87 825.725 1023.87 578.973C1023.87 332.22 826.698 132.188 583.473 132.188C340.248 132.188 143.075 332.22 143.075 578.973C143.075 825.725 340.248 1025.76 583.473 1025.76Z" fill="url(#paint2_linear_1_2)"/>
<path d="M390.949 683.198C381.676 683.198 372.492 682.136 363.4 680.013C354.485 677.891 345.926 674.792 337.724 670.724C329.521 666.476 322.301 660.905 316.06 654.005C309.818 647.105 306.43 638.876 305.896 629.323V618.175V533.514C305.896 528.56 307.679 524.489 311.245 521.304C314.989 517.942 319.357 516.263 324.35 516.263C335.05 517.148 340.843 522.896 341.736 533.514V621.094C342.092 626.578 344.143 631.179 347.887 634.894C351.809 638.433 356.09 641.265 360.727 643.387C365.539 645.512 370.444 647.105 375.437 648.165C380.608 649.227 385.778 649.757 390.949 649.757C396.12 649.757 401.201 649.227 406.193 648.165C411.364 647.105 416.267 645.512 420.903 643.387C425.718 641.265 429.996 638.433 433.743 634.894C437.665 631.179 439.804 626.578 440.16 621.094V533.514C440.16 528.56 441.943 524.489 445.511 521.304C449.255 517.942 453.624 516.263 458.617 516.263C469.314 517.148 475.197 522.896 476.268 533.514V618.175V629.323C475.734 638.876 472.256 647.105 465.836 654.005C459.597 660.905 452.375 666.476 444.172 670.724C435.97 674.792 427.323 677.891 418.23 680.013C409.313 682.136 400.22 683.198 390.949 683.198ZM529.76 516.263C534.752 516.263 539.033 517.942 542.599 521.304C546.165 524.489 548.035 528.56 548.216 533.514V597.475C548.035 604.728 548.482 611.452 549.553 617.645C550.802 623.659 553.653 629.057 558.112 633.834C562.568 638.612 568.185 641.178 574.961 641.531H660.548C665.541 641.708 669.641 643.564 672.851 647.105C676.238 650.643 677.934 654.888 677.934 659.843C677.756 664.62 675.973 668.689 672.585 672.05C669.375 675.235 665.363 676.918 660.548 677.094H565.868C553.387 676.385 543.045 672.227 534.843 664.62C526.818 656.834 521.023 647.368 517.457 636.223C514.069 625.075 512.286 613.221 512.108 600.66V533.514C512.286 528.737 514.069 524.755 517.457 521.57C520.845 518.208 524.945 516.439 529.76 516.263ZM764.324 556.071C757.548 556.427 751.843 558.992 747.206 563.767C742.747 568.545 739.537 574.032 737.576 580.223C735.615 586.24 734.635 592.431 734.635 598.801C734.635 605.171 735.525 611.452 737.311 617.645C739.272 623.836 742.569 629.323 747.206 634.098C751.843 638.699 757.548 641.178 764.324 641.531H852.584C863.818 642.591 869.97 648.695 871.041 659.843C870.863 664.797 868.989 668.955 865.423 672.317C861.857 675.502 857.577 677.094 852.584 677.094H767.265H754.962C742.482 676.385 732.228 671.697 724.203 663.028C716.181 654.182 710.386 644.183 706.82 633.038C703.432 621.89 701.737 610.479 701.737 598.801C701.737 590.132 702.717 581.549 704.678 573.056C706.642 564.564 709.671 556.514 713.774 548.907C718.052 541.121 723.669 534.487 730.623 529.003C737.754 523.516 745.87 520.687 754.962 520.51H760.043H852.584C863.818 521.57 869.97 527.674 871.041 538.822C871.041 543.776 869.167 547.934 865.423 551.296C861.857 554.481 857.577 556.071 852.584 556.071H764.324Z" fill="url(#paint3_linear_1_2)"/>
<path d="M389.854 685.372C380.58 685.372 371.397 684.31 362.304 682.187C353.389 680.065 344.83 676.967 336.628 672.898C328.425 668.651 321.206 663.079 314.964 656.179C308.722 649.279 305.334 641.05 304.8 631.497V620.349V535.688C304.8 530.734 306.583 526.663 310.149 523.478C313.893 520.116 318.261 518.437 323.254 518.437C333.955 519.323 339.747 525.071 340.64 535.688V623.268C340.996 628.752 343.048 633.353 346.791 637.068C350.713 640.607 354.994 643.439 359.631 645.561C364.443 647.686 369.348 649.279 374.341 650.339C379.512 651.402 384.683 651.931 389.854 651.931C395.024 651.931 400.105 651.402 405.098 650.339C410.268 649.279 415.171 647.686 419.808 645.561C424.622 643.439 428.9 640.607 432.647 637.068C436.569 633.353 438.708 628.752 439.064 623.268V535.688C439.064 530.734 440.847 526.663 444.416 523.478C448.16 520.116 452.528 518.437 457.521 518.437C468.219 519.323 474.102 525.071 475.172 535.688V620.349V631.497C474.638 641.05 471.16 649.279 464.74 656.179C458.501 663.079 451.279 668.651 443.077 672.898C434.874 676.967 426.227 680.065 417.135 682.187C408.217 684.31 399.124 685.372 389.854 685.372ZM528.664 518.437C533.657 518.437 537.937 520.116 541.503 523.478C545.069 526.663 546.94 530.734 547.121 535.688V599.649C546.94 606.902 547.386 613.626 548.457 619.819C549.706 625.834 552.557 631.231 557.016 636.009C561.472 640.786 567.089 643.352 573.865 643.705H659.452C664.445 643.882 668.545 645.738 671.755 649.279C675.143 652.817 676.838 657.062 676.838 662.017C676.66 666.794 674.877 670.863 671.489 674.224C668.279 677.41 664.267 679.092 659.452 679.269H564.772C552.291 678.559 541.95 674.401 533.747 666.794C525.722 659.008 519.927 649.543 516.361 638.397C512.973 627.25 511.19 615.395 511.012 602.834V535.688C511.19 530.911 512.973 526.929 516.361 523.744C519.749 520.383 523.849 518.613 528.664 518.437ZM763.228 558.245C756.452 558.601 750.747 561.167 746.11 565.942C741.652 570.719 738.442 576.206 736.481 582.397C734.52 588.414 733.539 594.605 733.539 600.975C733.539 607.345 734.429 613.626 736.215 619.819C738.176 626.01 741.474 631.497 746.11 636.272C750.747 640.873 756.452 643.352 763.228 643.705H851.488C862.723 644.765 868.874 650.869 869.945 662.017C869.767 666.971 867.894 671.129 864.328 674.491C860.762 677.676 856.481 679.269 851.488 679.269H766.169H753.867C741.386 678.559 731.132 673.871 723.107 665.202C715.085 656.356 709.29 646.358 705.724 635.212C702.336 624.064 700.641 612.653 700.641 600.975C700.641 592.306 701.621 583.723 703.582 575.231C705.546 566.738 708.575 558.688 712.678 551.081C716.956 543.295 722.573 536.661 729.527 531.177C736.659 525.69 744.774 522.861 753.867 522.684H758.947H851.488C862.723 523.744 868.874 529.848 869.945 540.996C869.945 545.95 868.072 550.108 864.328 553.47C860.762 556.655 856.481 558.245 851.488 558.245H763.228Z" fill="url(#paint4_linear_1_2)"/>
<path d="M389.854 685.372C380.58 685.372 371.397 684.31 362.304 682.187C353.389 680.065 344.83 676.967 336.628 672.898C328.425 668.651 321.206 663.079 314.964 656.179C308.722 649.279 305.334 641.05 304.8 631.497V620.349V535.688C304.8 530.734 306.583 526.663 310.149 523.478C313.893 520.116 318.261 518.437 323.254 518.437C333.955 519.323 339.747 525.071 340.64 535.688V623.268C340.996 628.752 343.048 633.353 346.791 637.068C350.713 640.607 354.994 643.439 359.631 645.561C364.443 647.686 369.348 649.279 374.341 650.339C379.512 651.402 384.683 651.931 389.854 651.931C395.024 651.931 400.105 651.402 405.098 650.339C410.268 649.279 415.171 647.686 419.808 645.561C424.622 643.439 428.9 640.607 432.647 637.068C436.569 633.353 438.708 628.752 439.064 623.268V535.688C439.064 530.734 440.847 526.663 444.416 523.478C448.16 520.116 452.528 518.437 457.521 518.437C468.219 519.323 474.102 525.071 475.172 535.688V620.349V631.497C474.638 641.05 471.16 649.279 464.74 656.179C458.501 663.079 451.279 668.651 443.077 672.898C434.874 676.967 426.227 680.065 417.135 682.187C408.217 684.31 399.124 685.372 389.854 685.372ZM528.664 518.437C533.657 518.437 537.937 520.116 541.503 523.478C545.069 526.663 546.94 530.734 547.121 535.688V599.649C546.94 606.902 547.386 613.626 548.457 619.819C549.706 625.834 552.557 631.231 557.016 636.009C561.472 640.786 567.089 643.352 573.865 643.705H659.452C664.445 643.882 668.545 645.738 671.755 649.279C675.143 652.817 676.838 657.062 676.838 662.017C676.66 666.794 674.877 670.863 671.489 674.224C668.279 677.41 664.267 679.092 659.452 679.269H564.772C552.291 678.559 541.95 674.401 533.747 666.794C525.722 659.008 519.927 649.543 516.361 638.397C512.973 627.25 511.19 615.395 511.012 602.834V535.688C511.19 530.911 512.973 526.929 516.361 523.744C519.749 520.383 523.849 518.613 528.664 518.437ZM763.228 558.245C756.452 558.601 750.747 561.167 746.11 565.942C741.652 570.719 738.442 576.206 736.481 582.397C734.52 588.414 733.539 594.605 733.539 600.975C733.539 607.345 734.429 613.626 736.215 619.819C738.176 626.01 741.474 631.497 746.11 636.272C750.747 640.873 756.452 643.352 763.228 643.705H851.488C862.723 644.765 868.874 650.869 869.945 662.017C869.767 666.971 867.894 671.129 864.328 674.491C860.762 677.676 856.481 679.269 851.488 679.269H766.169H753.867C741.386 678.559 731.132 673.871 723.107 665.202C715.085 656.356 709.29 646.358 705.724 635.212C702.336 624.064 700.641 612.653 700.641 600.975C700.641 592.306 701.621 583.723 703.582 575.231C705.546 566.738 708.575 558.688 712.678 551.081C716.956 543.295 722.573 536.661 729.527 531.177C736.659 525.69 744.774 522.861 753.867 522.684H758.947H851.488C862.723 523.744 868.874 529.848 869.945 540.996C869.945 545.95 868.072 550.108 864.328 553.47C860.762 556.655 856.481 558.245 851.488 558.245H763.228Z" fill="url(#paint5_linear_1_2)"/>
<path d="M389.854 686.459C380.58 686.459 371.397 685.397 362.304 683.274C353.389 681.152 344.83 678.054 336.628 673.985C328.425 669.738 321.206 664.166 314.964 657.266C308.722 650.366 305.334 642.137 304.8 632.584V621.436V536.776C304.8 531.821 306.583 527.75 310.149 524.565C313.893 521.203 318.261 519.524 323.254 519.524C333.955 520.41 339.747 526.158 340.64 536.776V624.355C340.996 629.839 343.048 634.44 346.791 638.156C350.713 641.694 354.994 644.526 359.631 646.648C364.443 648.773 369.348 650.366 374.341 651.426C379.512 652.489 384.683 653.019 389.854 653.019C395.024 653.019 400.105 652.489 405.098 651.426C410.268 650.366 415.171 648.773 419.808 646.648C424.622 644.526 428.9 641.694 432.647 638.156C436.569 634.44 438.708 629.839 439.064 624.355V536.776C439.064 531.821 440.847 527.75 444.416 524.565C448.16 521.203 452.528 519.524 457.521 519.524C468.219 520.41 474.102 526.158 475.172 536.776V621.436V632.584C474.638 642.137 471.16 650.366 464.74 657.266C458.501 664.166 451.279 669.738 443.077 673.985C434.874 678.054 426.227 681.152 417.135 683.274C408.217 685.397 399.124 686.459 389.854 686.459ZM528.664 519.524C533.657 519.524 537.937 521.203 541.503 524.565C545.069 527.75 546.94 531.821 547.121 536.776V600.736C546.94 607.989 547.386 614.713 548.457 620.906C549.706 626.921 552.557 632.318 557.016 637.096C561.472 641.873 567.089 644.439 573.865 644.792H659.452C664.445 644.969 668.545 646.825 671.755 650.366C675.143 653.904 676.838 658.149 676.838 663.104C676.66 667.881 674.877 671.95 671.489 675.312C668.279 678.497 664.267 680.179 659.452 680.356H564.772C552.291 679.646 541.95 675.488 533.747 667.881C525.722 660.095 519.927 650.63 516.361 639.485C512.973 628.337 511.19 616.482 511.012 603.921V536.776C511.19 531.998 512.973 528.016 516.361 524.831C519.749 521.47 523.849 519.7 528.664 519.524ZM763.228 559.332C756.452 559.688 750.747 562.254 746.11 567.029C741.652 571.806 738.442 577.293 736.481 583.484C734.52 589.501 733.539 595.692 733.539 602.062C733.539 608.432 734.429 614.713 736.215 620.906C738.176 627.097 741.474 632.584 746.11 637.359C750.747 641.96 756.452 644.439 763.228 644.792H851.488C862.723 645.852 868.874 651.956 869.945 663.104C869.767 668.058 867.894 672.216 864.328 675.578C860.762 678.763 856.481 680.356 851.488 680.356H766.169H753.867C741.386 679.646 731.132 674.958 723.107 666.289C715.085 657.443 709.29 647.445 705.724 636.299C702.336 625.152 700.641 613.74 700.641 602.062C700.641 593.393 701.621 584.81 703.582 576.318C705.546 567.825 708.575 559.775 712.678 552.168C716.956 544.382 722.573 537.748 729.527 532.264C736.659 526.777 744.774 523.948 753.867 523.771H758.947H851.488C862.723 524.831 868.874 530.935 869.945 542.083C869.945 547.037 868.072 551.196 864.328 554.557C860.762 557.742 856.481 559.332 851.488 559.332H763.228Z" fill="url(#paint6_linear_1_2)"/>
<path d="M390.949 690.808C381.676 690.808 372.492 689.745 363.4 687.623C354.485 685.5 345.926 682.402 337.724 678.334C329.521 674.086 322.301 668.515 316.06 661.615C309.818 654.714 306.43 646.485 305.896 636.933V625.785V541.124C305.896 536.17 307.679 532.098 311.245 528.913C314.989 525.552 319.357 523.872 324.35 523.872C335.05 524.758 340.843 530.506 341.736 541.124V628.704C342.092 634.188 344.143 638.789 347.887 642.504C351.809 646.042 356.09 648.874 360.727 650.997C365.539 653.122 370.444 654.714 375.437 655.774C380.608 656.837 385.778 657.367 390.949 657.367C396.12 657.367 401.201 656.837 406.193 655.774C411.364 654.714 416.267 653.122 420.903 650.997C425.718 648.874 429.996 646.042 433.743 642.504C437.665 638.789 439.804 634.188 440.16 628.704V541.124C440.16 536.17 441.943 532.098 445.511 528.913C449.255 525.552 453.624 523.872 458.617 523.872C469.314 524.758 475.197 530.506 476.268 541.124V625.785V636.933C475.734 646.485 472.256 654.714 465.836 661.615C459.597 668.515 452.375 674.086 444.172 678.334C435.97 682.402 427.323 685.5 418.23 687.623C409.313 689.745 400.22 690.808 390.949 690.808ZM529.76 523.872C534.752 523.872 539.033 525.552 542.599 528.913C546.165 532.098 548.035 536.17 548.216 541.124V605.084C548.035 612.338 548.482 619.061 549.553 625.255C550.802 631.269 553.653 636.666 558.112 641.444C562.568 646.222 568.185 648.787 574.961 649.14H660.548C665.541 649.317 669.641 651.173 672.851 654.714C676.238 658.253 677.934 662.498 677.934 667.452C677.756 672.23 675.973 676.298 672.585 679.66C669.375 682.845 665.363 684.527 660.548 684.704H565.868C553.387 683.995 543.045 679.837 534.843 672.23C526.818 664.444 521.023 654.978 517.457 643.833C514.069 632.685 512.286 620.83 512.108 608.269V541.124C512.286 536.346 514.069 532.365 517.457 529.18C520.845 525.818 524.945 524.049 529.76 523.872ZM764.324 563.68C757.548 564.037 751.843 566.602 747.206 571.377C742.747 576.155 739.537 581.642 737.576 587.832C735.615 593.849 734.635 600.04 734.635 606.411C734.635 612.781 735.525 619.061 737.311 625.255C739.272 631.446 742.569 636.933 747.206 641.708C751.843 646.309 757.548 648.787 764.324 649.14H852.584C863.818 650.2 869.97 656.304 871.041 667.452C870.863 672.406 868.989 676.564 865.423 679.926C861.857 683.111 857.577 684.704 852.584 684.704H767.265H754.962C742.482 683.995 732.228 679.307 724.203 670.637C716.181 661.791 710.386 651.793 706.82 640.648C703.432 629.5 701.737 618.088 701.737 606.411C701.737 597.741 702.717 589.159 704.678 580.666C706.642 572.173 709.671 564.124 713.774 556.517C718.052 548.731 723.669 542.097 730.623 536.613C737.754 531.126 745.87 528.296 754.962 528.12H760.043H852.584C863.818 529.18 869.97 535.284 871.041 546.431C871.041 551.386 869.167 555.544 865.423 558.906C861.857 562.091 857.577 563.68 852.584 563.68H764.324Z" fill="url(#paint7_linear_1_2)"/>
<path d="M389.854 691.895C380.58 691.895 371.397 690.832 362.304 688.71C353.389 686.587 344.83 683.489 336.628 679.421C328.425 675.173 321.206 669.602 314.964 662.702C308.722 655.801 305.334 647.572 304.8 638.02V626.872V542.211C304.8 537.257 306.583 533.185 310.149 530C313.893 526.639 318.261 524.959 323.254 524.959C333.955 525.845 339.747 531.593 340.64 542.211V629.791C340.996 635.275 343.048 639.876 346.791 643.591C350.713 647.129 354.994 649.961 359.631 652.084C364.443 654.209 369.348 655.801 374.341 656.861C379.512 657.924 384.683 658.454 389.854 658.454C395.024 658.454 400.105 657.924 405.098 656.861C410.268 655.801 415.171 654.209 419.808 652.084C424.622 649.961 428.9 647.129 432.647 643.591C436.569 639.876 438.708 635.275 439.064 629.791V542.211C439.064 537.257 440.847 533.185 444.416 530C448.16 526.639 452.528 524.959 457.521 524.959C468.219 525.845 474.102 531.593 475.172 542.211V626.872V638.02C474.638 647.572 471.16 655.801 464.74 662.702C458.501 669.602 451.279 675.173 443.077 679.421C434.874 683.489 426.227 686.587 417.135 688.71C408.217 690.832 399.124 691.895 389.854 691.895ZM528.664 524.959C533.657 524.959 537.937 526.639 541.503 530C545.069 533.185 546.94 537.257 547.121 542.211V606.171C546.94 613.425 547.386 620.148 548.457 626.342C549.706 632.356 552.557 637.753 557.016 642.531C561.472 647.309 567.089 649.874 573.865 650.227H659.452C664.445 650.404 668.545 652.26 671.755 655.801C675.143 659.34 676.838 663.585 676.838 668.539C676.66 673.317 674.877 677.385 671.489 680.747C668.279 683.932 664.267 685.614 659.452 685.791H564.772C552.291 685.082 541.95 680.924 533.747 673.317C525.722 665.531 519.927 656.065 516.361 644.92C512.973 633.772 511.19 621.917 511.012 609.356V542.211C511.19 537.433 512.973 533.452 516.361 530.267C519.749 526.905 523.849 525.136 528.664 524.959ZM763.228 564.768C756.452 565.124 750.747 567.689 746.11 572.464C741.652 577.242 738.442 582.729 736.481 588.92C734.52 594.936 733.539 601.127 733.539 607.498C733.539 613.868 734.429 620.148 736.215 626.342C738.176 632.533 741.474 638.02 746.11 642.795C750.747 647.396 756.452 649.874 763.228 650.227H851.488C862.723 651.287 868.874 657.391 869.945 668.539C869.767 673.493 867.894 677.652 864.328 681.013C860.762 684.198 856.481 685.791 851.488 685.791H766.169H753.867C741.386 685.082 731.132 680.394 723.107 671.724C715.085 662.878 709.29 652.88 705.724 641.735C702.336 630.587 700.641 619.175 700.641 607.498C700.641 598.828 701.621 590.246 703.582 581.753C705.546 573.26 708.575 565.211 712.678 557.604C716.956 549.818 722.573 543.184 729.527 537.7C736.659 532.213 744.774 529.383 753.867 529.207H758.947H851.488C862.723 530.267 868.874 536.371 869.945 547.519C869.945 552.473 868.072 556.631 864.328 559.993C860.762 563.178 856.481 564.768 851.488 564.768H763.228Z" fill="url(#paint8_linear_1_2)"/>
<path d="M389.854 691.895C380.58 691.895 371.397 690.832 362.304 688.71C353.389 686.587 344.83 683.489 336.628 679.421C328.425 675.173 321.206 669.602 314.964 662.702C308.722 655.801 305.334 647.572 304.8 638.02V626.872V542.211C304.8 537.257 306.583 533.185 310.149 530C313.893 526.639 318.261 524.959 323.254 524.959C333.955 525.845 339.747 531.593 340.64 542.211V629.791C340.996 635.275 343.048 639.876 346.791 643.591C350.713 647.129 354.994 649.961 359.631 652.084C364.443 654.209 369.348 655.801 374.341 656.861C379.512 657.924 384.683 658.454 389.854 658.454C395.024 658.454 400.105 657.924 405.098 656.861C410.268 655.801 415.171 654.209 419.808 652.084C424.622 649.961 428.9 647.129 432.647 643.591C436.569 639.876 438.708 635.275 439.064 629.791V542.211C439.064 537.257 440.847 533.185 444.416 530C448.16 526.639 452.528 524.959 457.521 524.959C468.219 525.845 474.102 531.593 475.172 542.211V626.872V638.02C474.638 647.572 471.16 655.801 464.74 662.702C458.501 669.602 451.279 675.173 443.077 679.421C434.874 683.489 426.227 686.587 417.135 688.71C408.217 690.832 399.124 691.895 389.854 691.895ZM528.664 524.959C533.657 524.959 537.937 526.639 541.503 530C545.069 533.185 546.94 537.257 547.121 542.211V606.171C546.94 613.425 547.386 620.148 548.457 626.342C549.706 632.356 552.557 637.753 557.016 642.531C561.472 647.309 567.089 649.874 573.865 650.227H659.452C664.445 650.404 668.545 652.26 671.755 655.801C675.143 659.34 676.838 663.585 676.838 668.539C676.66 673.317 674.877 677.385 671.489 680.747C668.279 683.932 664.267 685.614 659.452 685.791H564.772C552.291 685.082 541.95 680.924 533.747 673.317C525.722 665.531 519.927 656.065 516.361 644.92C512.973 633.772 511.19 621.917 511.012 609.356V542.211C511.19 537.433 512.973 533.452 516.361 530.267C519.749 526.905 523.849 525.136 528.664 524.959ZM763.228 564.768C756.452 565.124 750.747 567.689 746.11 572.464C741.652 577.242 738.442 582.729 736.481 588.92C734.52 594.936 733.539 601.127 733.539 607.498C733.539 613.868 734.429 620.148 736.215 626.342C738.176 632.533 741.474 638.02 746.11 642.795C750.747 647.396 756.452 649.874 763.228 650.227H851.488C862.723 651.287 868.874 657.391 869.945 668.539C869.767 673.493 867.894 677.652 864.328 681.013C860.762 684.198 856.481 685.791 851.488 685.791H766.169H753.867C741.386 685.082 731.132 680.394 723.107 671.724C715.085 662.878 709.29 652.88 705.724 641.735C702.336 630.587 700.641 619.175 700.641 607.498C700.641 598.828 701.621 590.246 703.582 581.753C705.546 573.26 708.575 565.211 712.678 557.604C716.956 549.818 722.573 543.184 729.527 537.7C736.659 532.213 744.774 529.383 753.867 529.207H758.947H851.488C862.723 530.267 868.874 536.371 869.945 547.519C869.945 552.473 868.072 556.631 864.328 559.993C860.762 563.178 856.481 564.768 851.488 564.768H763.228Z" fill="url(#paint9_linear_1_2)"/>
<path d="M389.854 692.982C380.58 692.982 371.397 691.919 362.304 689.797C353.389 687.674 344.83 684.576 336.628 680.508C328.425 676.26 321.206 670.689 314.964 663.789C308.722 656.888 305.334 648.659 304.8 639.107V627.959V543.298C304.8 538.344 306.583 534.273 310.149 531.087C313.893 527.726 318.261 526.046 323.254 526.046C333.955 526.932 339.747 532.68 340.64 543.298V630.878C340.996 636.362 343.048 640.963 346.791 644.678C350.713 648.216 354.994 651.048 359.631 653.171C364.443 655.296 369.348 656.888 374.341 657.948C379.512 659.011 384.683 659.541 389.854 659.541C395.024 659.541 400.105 659.011 405.098 657.948C410.268 656.888 415.171 655.296 419.808 653.171C424.622 651.048 428.9 648.216 432.647 644.678C436.569 640.963 438.708 636.362 439.064 630.878V543.298C439.064 538.344 440.847 534.273 444.416 531.087C448.16 527.726 452.528 526.046 457.521 526.046C468.219 526.932 474.102 532.68 475.172 543.298V627.959V639.107C474.638 648.659 471.16 656.888 464.74 663.789C458.501 670.689 451.279 676.26 443.077 680.508C434.874 684.576 426.227 687.674 417.135 689.797C408.217 691.919 399.124 692.982 389.854 692.982ZM528.664 526.046C533.657 526.046 537.937 527.726 541.503 531.087C545.069 534.273 546.94 538.344 547.121 543.298V607.258C546.94 614.512 547.386 621.235 548.457 627.429C549.706 633.443 552.557 638.84 557.016 643.618C561.472 648.396 567.089 650.961 573.865 651.315H659.452C664.445 651.491 668.545 653.347 671.755 656.888C675.143 660.427 676.838 664.672 676.838 669.626C676.66 674.404 674.877 678.472 671.489 681.834C668.279 685.019 664.267 686.701 659.452 686.878H564.772C552.291 686.169 541.95 682.011 533.747 674.404C525.722 666.618 519.927 657.152 516.361 646.007C512.973 634.859 511.19 623.005 511.012 610.443V543.298C511.19 538.52 512.973 534.539 516.361 531.354C519.749 527.992 523.849 526.223 528.664 526.046ZM763.228 565.855C756.452 566.211 750.747 568.776 746.11 573.551C741.652 578.329 738.442 583.816 736.481 590.007C734.52 596.023 733.539 602.214 733.539 608.585C733.539 614.955 734.429 621.235 736.215 627.429C738.176 633.62 741.474 639.107 746.11 643.882C750.747 648.483 756.452 650.961 763.228 651.315H851.488C862.723 652.374 868.874 658.478 869.945 669.626C869.767 674.58 867.894 678.739 864.328 682.1C860.762 685.285 856.481 686.878 851.488 686.878H766.169H753.867C741.386 686.169 731.132 681.481 723.107 672.811C715.085 663.965 709.29 653.967 705.724 642.822C702.336 631.674 700.641 620.262 700.641 608.585C700.641 599.915 701.621 591.333 703.582 582.84C705.546 574.347 708.575 566.298 712.678 558.691C716.956 550.905 722.573 544.271 729.527 538.787C736.659 533.3 744.774 530.471 753.867 530.294H758.947H851.488C862.723 531.354 868.874 537.458 869.945 548.606C869.945 553.56 868.072 557.718 864.328 561.08C860.762 564.265 856.481 565.855 851.488 565.855H763.228Z" fill="url(#paint10_linear_1_2)"/>
<path d="M390.949 689.721C381.676 689.721 372.492 688.658 363.4 686.536C354.485 684.413 345.926 681.315 337.724 677.247C329.521 672.999 322.301 667.428 316.06 660.527C309.818 653.627 306.43 645.398 305.896 635.846V624.698V540.037C305.896 535.082 307.679 531.011 311.245 527.826C314.989 524.464 319.357 522.785 324.35 522.785C335.05 523.671 340.843 529.419 341.736 540.037V627.616C342.092 633.101 344.143 637.702 347.887 641.417C351.809 644.955 356.09 647.787 360.727 649.909C365.539 652.035 370.444 653.627 375.437 654.687C380.608 655.75 385.778 656.28 390.949 656.28C396.12 656.28 401.201 655.75 406.193 654.687C411.364 653.627 416.267 652.035 420.903 649.909C425.718 647.787 429.996 644.955 433.743 641.417C437.665 637.702 439.804 633.101 440.16 627.616V540.037C440.16 535.082 441.943 531.011 445.511 527.826C449.255 524.464 453.624 522.785 458.617 522.785C469.314 523.671 475.197 529.419 476.268 540.037V624.698V635.846C475.734 645.398 472.256 653.627 465.836 660.527C459.597 667.428 452.375 672.999 444.172 677.247C435.97 681.315 427.323 684.413 418.23 686.536C409.313 688.658 400.22 689.721 390.949 689.721ZM529.76 522.785C534.752 522.785 539.033 524.464 542.599 527.826C546.165 531.011 548.035 535.082 548.216 540.037V603.997C548.035 611.251 548.482 617.974 549.553 624.168C550.802 630.182 553.653 635.579 558.112 640.357C562.568 645.135 568.185 647.7 574.961 648.053H660.548C665.541 648.23 669.641 650.086 672.851 653.627C676.238 657.166 677.934 661.411 677.934 666.365C677.756 671.143 675.973 675.211 672.585 678.573C669.375 681.758 665.363 683.44 660.548 683.617H565.868C553.387 682.907 543.045 678.749 534.843 671.143C526.818 663.357 521.023 653.891 517.457 642.746C514.069 631.598 512.286 619.743 512.108 607.182V540.037C512.286 535.259 514.069 531.278 517.457 528.093C520.845 524.731 524.945 522.962 529.76 522.785ZM764.324 562.593C757.548 562.949 751.843 565.515 747.206 570.29C742.747 575.068 739.537 580.555 737.576 586.745C735.615 592.762 734.635 598.953 734.635 605.323C734.635 611.694 735.525 617.974 737.311 624.168C739.272 630.359 742.569 635.846 747.206 640.621C751.843 645.222 757.548 647.7 764.324 648.053H852.584C863.818 649.113 869.97 655.217 871.041 666.365C870.863 671.319 868.989 675.477 865.423 678.839C861.857 682.024 857.577 683.617 852.584 683.617H767.265H754.962C742.482 682.907 732.228 678.219 724.203 669.55C716.181 660.704 710.386 650.706 706.82 639.561C703.432 628.413 701.737 617.001 701.737 605.323C701.737 596.654 702.717 588.072 704.678 579.579C706.642 571.086 709.671 563.036 713.774 555.43C718.052 547.644 723.669 541.01 730.623 535.525C737.754 530.038 745.87 527.209 754.962 527.033H760.043H852.584C863.818 528.093 869.97 534.196 871.041 545.344C871.041 550.299 869.167 554.457 865.423 557.818C861.857 561.004 857.577 562.593 852.584 562.593H764.324Z" fill="url(#paint11_linear_1_2)"/>
<path d="M389.854 690.808C380.58 690.808 371.397 689.745 362.304 687.623C353.389 685.5 344.83 682.402 336.628 678.334C328.425 674.086 321.206 668.515 314.964 661.615C308.722 654.714 305.334 646.485 304.8 636.933V625.785V541.124C304.8 536.17 306.583 532.098 310.149 528.913C313.893 525.552 318.261 523.872 323.254 523.872C333.955 524.758 339.747 530.506 340.64 541.124V628.704C340.996 634.188 343.048 638.789 346.791 642.504C350.713 646.042 354.994 648.874 359.631 650.997C364.443 653.122 369.348 654.714 374.341 655.774C379.512 656.837 384.683 657.367 389.854 657.367C395.024 657.367 400.105 656.837 405.098 655.774C410.268 654.714 415.171 653.122 419.808 650.997C424.622 648.874 428.9 646.042 432.647 642.504C436.569 638.789 438.708 634.188 439.064 628.704V541.124C439.064 536.17 440.847 532.098 444.416 528.913C448.16 525.552 452.528 523.872 457.521 523.872C468.219 524.758 474.102 530.506 475.172 541.124V625.785V636.933C474.638 646.485 471.16 654.714 464.74 661.615C458.501 668.515 451.279 674.086 443.077 678.334C434.874 682.402 426.227 685.5 417.135 687.623C408.217 689.745 399.124 690.808 389.854 690.808ZM528.664 523.872C533.657 523.872 537.937 525.552 541.503 528.913C545.069 532.098 546.94 536.17 547.121 541.124V605.084C546.94 612.338 547.386 619.061 548.457 625.255C549.706 631.269 552.557 636.666 557.016 641.444C561.472 646.222 567.089 648.787 573.865 649.14H659.452C664.445 649.317 668.545 651.173 671.755 654.714C675.143 658.253 676.838 662.498 676.838 667.452C676.66 672.23 674.877 676.298 671.489 679.66C668.279 682.845 664.267 684.527 659.452 684.704H564.772C552.291 683.995 541.95 679.837 533.747 672.23C525.722 664.444 519.927 654.978 516.361 643.833C512.973 632.685 511.19 620.83 511.012 608.269V541.124C511.19 536.346 512.973 532.365 516.361 529.18C519.749 525.818 523.849 524.049 528.664 523.872ZM763.228 563.68C756.452 564.037 750.747 566.602 746.11 571.377C741.652 576.155 738.442 581.642 736.481 587.832C734.52 593.849 733.539 600.04 733.539 606.411C733.539 612.781 734.429 619.061 736.215 625.255C738.176 631.446 741.474 636.933 746.11 641.708C750.747 646.309 756.452 648.787 763.228 649.14H851.488C862.723 650.2 868.874 656.304 869.945 667.452C869.767 672.406 867.894 676.564 864.328 679.926C860.762 683.111 856.481 684.704 851.488 684.704H766.169H753.867C741.386 683.995 731.132 679.307 723.107 670.637C715.085 661.791 709.29 651.793 705.724 640.648C702.336 629.5 700.641 618.088 700.641 606.411C700.641 597.741 701.621 589.159 703.582 580.666C705.546 572.173 708.575 564.124 712.678 556.517C716.956 548.731 722.573 542.097 729.527 536.613C736.659 531.126 744.774 528.296 753.867 528.12H758.947H851.488C862.723 529.18 868.874 535.284 869.945 546.431C869.945 551.386 868.072 555.544 864.328 558.906C860.762 562.091 856.481 563.68 851.488 563.68H763.228Z" fill="url(#paint12_linear_1_2)"/>
<path d="M389.854 690.808C380.58 690.808 371.397 689.745 362.304 687.623C353.389 685.5 344.83 682.402 336.628 678.334C328.425 674.086 321.206 668.515 314.964 661.615C308.722 654.714 305.334 646.485 304.8 636.933V625.785V541.124C304.8 536.17 306.583 532.098 310.149 528.913C313.893 525.552 318.261 523.872 323.254 523.872C333.955 524.758 339.747 530.506 340.64 541.124V628.704C340.996 634.188 343.048 638.789 346.791 642.504C350.713 646.042 354.994 648.874 359.631 650.997C364.443 653.122 369.348 654.714 374.341 655.774C379.512 656.837 384.683 657.367 389.854 657.367C395.024 657.367 400.105 656.837 405.098 655.774C410.268 654.714 415.171 653.122 419.808 650.997C424.622 648.874 428.9 646.042 432.647 642.504C436.569 638.789 438.708 634.188 439.064 628.704V541.124C439.064 536.17 440.847 532.098 444.416 528.913C448.16 525.552 452.528 523.872 457.521 523.872C468.219 524.758 474.102 530.506 475.172 541.124V625.785V636.933C474.638 646.485 471.16 654.714 464.74 661.615C458.501 668.515 451.279 674.086 443.077 678.334C434.874 682.402 426.227 685.5 417.135 687.623C408.217 689.745 399.124 690.808 389.854 690.808ZM528.664 523.872C533.657 523.872 537.937 525.552 541.503 528.913C545.069 532.098 546.94 536.17 547.121 541.124V605.084C546.94 612.338 547.386 619.061 548.457 625.255C549.706 631.269 552.557 636.666 557.016 641.444C561.472 646.222 567.089 648.787 573.865 649.14H659.452C664.445 649.317 668.545 651.173 671.755 654.714C675.143 658.253 676.838 662.498 676.838 667.452C676.66 672.23 674.877 676.298 671.489 679.66C668.279 682.845 664.267 684.527 659.452 684.704H564.772C552.291 683.995 541.95 679.837 533.747 672.23C525.722 664.444 519.927 654.978 516.361 643.833C512.973 632.685 511.19 620.83 511.012 608.269V541.124C511.19 536.346 512.973 532.365 516.361 529.18C519.749 525.818 523.849 524.049 528.664 523.872ZM763.228 563.68C756.452 564.037 750.747 566.602 746.11 571.377C741.652 576.155 738.442 581.642 736.481 587.832C734.52 593.849 733.539 600.04 733.539 606.411C733.539 612.781 734.429 619.061 736.215 625.255C738.176 631.446 741.474 636.933 746.11 641.708C750.747 646.309 756.452 648.787 763.228 649.14H851.488C862.723 650.2 868.874 656.304 869.945 667.452C869.767 672.406 867.894 676.564 864.328 679.926C860.762 683.111 856.481 684.704 851.488 684.704H766.169H753.867C741.386 683.995 731.132 679.307 723.107 670.637C715.085 661.791 709.29 651.793 705.724 640.648C702.336 629.5 700.641 618.088 700.641 606.411C700.641 597.741 701.621 589.159 703.582 580.666C705.546 572.173 708.575 564.124 712.678 556.517C716.956 548.731 722.573 542.097 729.527 536.613C736.659 531.126 744.774 528.296 753.867 528.12H758.947H851.488C862.723 529.18 868.874 535.284 869.945 546.431C869.945 551.386 868.072 555.544 864.328 558.906C860.762 562.091 856.481 563.68 851.488 563.68H763.228Z" fill="url(#paint13_linear_1_2)"/>
<path d="M389.854 691.895C380.58 691.895 371.397 690.832 362.304 688.71C353.389 686.587 344.83 683.489 336.628 679.421C328.425 675.173 321.206 669.602 314.964 662.702C308.722 655.801 305.334 647.572 304.8 638.02V626.872V542.211C304.8 537.257 306.583 533.185 310.149 530C313.893 526.639 318.261 524.959 323.254 524.959C333.955 525.845 339.747 531.593 340.64 542.211V629.791C340.996 635.275 343.048 639.876 346.791 643.591C350.713 647.129 354.994 649.961 359.631 652.084C364.443 654.209 369.348 655.801 374.341 656.861C379.512 657.924 384.683 658.454 389.854 658.454C395.024 658.454 400.105 657.924 405.098 656.861C410.268 655.801 415.171 654.209 419.808 652.084C424.622 649.961 428.9 647.129 432.647 643.591C436.569 639.876 438.708 635.275 439.064 629.791V542.211C439.064 537.257 440.847 533.185 444.416 530C448.16 526.639 452.528 524.959 457.521 524.959C468.219 525.845 474.102 531.593 475.172 542.211V626.872V638.02C474.638 647.572 471.16 655.801 464.74 662.702C458.501 669.602 451.279 675.173 443.077 679.421C434.874 683.489 426.227 686.587 417.135 688.71C408.217 690.832 399.124 691.895 389.854 691.895ZM528.664 524.959C533.657 524.959 537.937 526.639 541.503 530C545.069 533.185 546.94 537.257 547.121 542.211V606.171C546.94 613.425 547.386 620.148 548.457 626.342C549.706 632.356 552.557 637.753 557.016 642.531C561.472 647.309 567.089 649.874 573.865 650.227H659.452C664.445 650.404 668.545 652.26 671.755 655.801C675.143 659.34 676.838 663.585 676.838 668.539C676.66 673.317 674.877 677.385 671.489 680.747C668.279 683.932 664.267 685.614 659.452 685.791H564.772C552.291 685.082 541.95 680.924 533.747 673.317C525.722 665.531 519.927 656.065 516.361 644.92C512.973 633.772 511.19 621.917 511.012 609.356V542.211C511.19 537.433 512.973 533.452 516.361 530.267C519.749 526.905 523.849 525.136 528.664 524.959ZM763.228 564.768C756.452 565.124 750.747 567.689 746.11 572.464C741.652 577.242 738.442 582.729 736.481 588.92C734.52 594.936 733.539 601.127 733.539 607.498C733.539 613.868 734.429 620.148 736.215 626.342C738.176 632.533 741.474 638.02 746.11 642.795C750.747 647.396 756.452 649.874 763.228 650.227H851.488C862.723 651.287 868.874 657.391 869.945 668.539C869.767 673.493 867.894 677.652 864.328 681.013C860.762 684.198 856.481 685.791 851.488 685.791H766.169H753.867C741.386 685.082 731.132 680.394 723.107 671.724C715.085 662.878 709.29 652.88 705.724 641.735C702.336 630.587 700.641 619.175 700.641 607.498C700.641 598.828 701.621 590.246 703.582 581.753C705.546 573.26 708.575 565.211 712.678 557.604C716.956 549.818 722.573 543.184 729.527 537.7C736.659 532.213 744.774 529.383 753.867 529.207H758.947H851.488C862.723 530.267 868.874 536.371 869.945 547.519C869.945 552.473 868.072 556.631 864.328 559.993C860.762 563.178 856.481 564.768 851.488 564.768H763.228Z" fill="url(#paint14_linear_1_2)"/>
<path d="M390.949 688.634C381.676 688.634 372.492 687.571 363.4 685.449C354.485 683.326 345.926 680.228 337.724 676.16C329.521 671.912 322.301 666.341 316.06 659.44C309.818 652.54 306.43 644.311 305.896 634.758V623.611V538.95C305.896 533.995 307.679 529.924 311.245 526.739C314.989 523.377 319.357 521.698 324.35 521.698C335.05 522.584 340.843 528.332 341.736 538.95V626.529C342.092 632.014 344.143 636.615 347.887 640.33C351.809 643.868 356.09 646.7 360.727 648.822C365.539 650.948 370.444 652.54 375.437 653.6C380.608 654.663 385.778 655.193 390.949 655.193C396.12 655.193 401.201 654.663 406.193 653.6C411.364 652.54 416.267 650.948 420.903 648.822C425.718 646.7 429.996 643.868 433.743 640.33C437.665 636.615 439.804 632.014 440.16 626.529V538.95C440.16 533.995 441.943 529.924 445.511 526.739C449.255 523.377 453.624 521.698 458.617 521.698C469.314 522.584 475.197 528.332 476.268 538.95V623.611V634.758C475.734 644.311 472.256 652.54 465.836 659.44C459.597 666.341 452.375 671.912 444.172 676.16C435.97 680.228 427.323 683.326 418.23 685.449C409.313 687.571 400.22 688.634 390.949 688.634ZM529.76 521.698C534.752 521.698 539.033 523.377 542.599 526.739C546.165 529.924 548.035 533.995 548.216 538.95V602.91C548.035 610.164 548.482 616.887 549.553 623.081C550.802 629.095 553.653 634.492 558.112 639.27C562.568 644.048 568.185 646.613 574.961 646.966H660.548C665.541 647.143 669.641 648.999 672.851 652.54C676.238 656.079 677.934 660.324 677.934 665.278C677.756 670.056 675.973 674.124 672.585 677.486C669.375 680.671 665.363 682.353 660.548 682.53H565.868C553.387 681.82 543.045 677.662 534.843 670.056C526.818 662.27 521.023 652.804 517.457 641.659C514.069 630.511 512.286 618.656 512.108 606.095V538.95C512.286 534.172 514.069 530.191 517.457 527.006C520.845 523.644 524.945 521.875 529.76 521.698ZM764.324 561.506C757.548 561.862 751.843 564.428 747.206 569.203C742.747 573.98 739.537 579.467 737.576 585.658C735.615 591.675 734.635 597.866 734.635 604.236C734.635 610.607 735.525 616.887 737.311 623.081C739.272 629.272 742.569 634.759 747.206 639.533C751.843 644.134 757.548 646.613 764.324 646.966H852.584C863.818 648.026 869.97 654.13 871.041 665.278C870.863 670.232 868.989 674.39 865.423 677.752C861.857 680.937 857.577 682.53 852.584 682.53H767.265H754.962C742.482 681.82 732.228 677.132 724.203 668.463C716.181 659.617 710.386 649.619 706.82 638.474C703.432 627.326 701.737 615.914 701.737 604.236C701.737 595.567 702.717 586.985 704.678 578.492C706.642 569.999 709.671 561.949 713.774 554.343C718.052 546.556 723.669 539.923 730.623 534.438C737.754 528.951 745.87 526.122 754.962 525.946H760.043H852.584C863.818 527.006 869.97 533.109 871.041 544.257C871.041 549.212 869.167 553.37 865.423 556.731C861.857 559.917 857.577 561.506 852.584 561.506H764.324Z" fill="url(#paint15_linear_1_2)"/>
<path d="M389.854 689.721C380.58 689.721 371.397 688.658 362.304 686.536C353.389 684.413 344.83 681.315 336.628 677.247C328.425 672.999 321.206 667.428 314.964 660.527C308.722 653.627 305.334 645.398 304.8 635.846V624.698V540.037C304.8 535.082 306.583 531.011 310.149 527.826C313.893 524.464 318.261 522.785 323.254 522.785C333.955 523.671 339.747 529.419 340.64 540.037V627.616C340.996 633.101 343.048 637.702 346.791 641.417C350.713 644.955 354.994 647.787 359.631 649.909C364.443 652.035 369.348 653.627 374.341 654.687C379.512 655.75 384.683 656.28 389.854 656.28C395.024 656.28 400.105 655.75 405.098 654.687C410.268 653.627 415.171 652.035 419.808 649.909C424.622 647.787 428.9 644.955 432.647 641.417C436.569 637.702 438.708 633.101 439.064 627.616V540.037C439.064 535.082 440.847 531.011 444.416 527.826C448.16 524.464 452.528 522.785 457.521 522.785C468.219 523.671 474.102 529.419 475.172 540.037V624.698V635.846C474.638 645.398 471.16 653.627 464.74 660.527C458.501 667.428 451.279 672.999 443.077 677.247C434.874 681.315 426.227 684.413 417.135 686.536C408.217 688.658 399.124 689.721 389.854 689.721ZM528.664 522.785C533.657 522.785 537.937 524.464 541.503 527.826C545.069 531.011 546.94 535.082 547.121 540.037V603.997C546.94 611.251 547.386 617.974 548.457 624.168C549.706 630.182 552.557 635.579 557.016 640.357C561.472 645.135 567.089 647.7 573.865 648.053H659.452C664.445 648.23 668.545 650.086 671.755 653.627C675.143 657.166 676.838 661.411 676.838 666.365C676.66 671.143 674.877 675.211 671.489 678.573C668.279 681.758 664.267 683.44 659.452 683.617H564.772C552.291 682.907 541.95 678.749 533.747 671.143C525.722 663.357 519.927 653.891 516.361 642.746C512.973 631.598 511.19 619.743 511.012 607.182V540.037C511.19 535.259 512.973 531.278 516.361 528.093C519.749 524.731 523.849 522.962 528.664 522.785ZM763.228 562.593C756.452 562.949 750.747 565.515 746.11 570.29C741.652 575.068 738.442 580.555 736.481 586.745C734.52 592.762 733.539 598.953 733.539 605.323C733.539 611.694 734.429 617.974 736.215 624.168C738.176 630.359 741.474 635.846 746.11 640.621C750.747 645.222 756.452 647.7 763.228 648.053H851.488C862.723 649.113 868.874 655.217 869.945 666.365C869.767 671.319 867.894 675.477 864.328 678.839C860.762 682.024 856.481 683.617 851.488 683.617H766.169H753.867C741.386 682.907 731.132 678.219 723.107 669.55C715.085 660.704 709.29 650.706 705.724 639.561C702.336 628.413 700.641 617.001 700.641 605.323C700.641 596.654 701.621 588.072 703.582 579.579C705.546 571.086 708.575 563.036 712.678 555.43C716.956 547.644 722.573 541.01 729.527 535.525C736.659 530.038 744.774 527.209 753.867 527.033H758.947H851.488C862.723 528.093 868.874 534.196 869.945 545.344C869.945 550.299 868.072 554.457 864.328 557.818C860.762 561.004 856.481 562.593 851.488 562.593H763.228Z" fill="url(#paint16_linear_1_2)"/>
<path d="M389.854 689.721C380.58 689.721 371.397 688.658 362.304 686.536C353.389 684.413 344.83 681.315 336.628 677.247C328.425 672.999 321.206 667.428 314.964 660.527C308.722 653.627 305.334 645.398 304.8 635.846V624.698V540.037C304.8 535.082 306.583 531.011 310.149 527.826C313.893 524.464 318.261 522.785 323.254 522.785C333.955 523.671 339.747 529.419 340.64 540.037V627.616C340.996 633.101 343.048 637.702 346.791 641.417C350.713 644.955 354.994 647.787 359.631 649.909C364.443 652.035 369.348 653.627 374.341 654.687C379.512 655.75 384.683 656.28 389.854 656.28C395.024 656.28 400.105 655.75 405.098 654.687C410.268 653.627 415.171 652.035 419.808 649.909C424.622 647.787 428.9 644.955 432.647 641.417C436.569 637.702 438.708 633.101 439.064 627.616V540.037C439.064 535.082 440.847 531.011 444.416 527.826C448.16 524.464 452.528 522.785 457.521 522.785C468.219 523.671 474.102 529.419 475.172 540.037V624.698V635.846C474.638 645.398 471.16 653.627 464.74 660.527C458.501 667.428 451.279 672.999 443.077 677.247C434.874 681.315 426.227 684.413 417.135 686.536C408.217 688.658 399.124 689.721 389.854 689.721ZM528.664 522.785C533.657 522.785 537.937 524.464 541.503 527.826C545.069 531.011 546.94 535.082 547.121 540.037V603.997C546.94 611.251 547.386 617.974 548.457 624.168C549.706 630.182 552.557 635.579 557.016 640.357C561.472 645.135 567.089 647.7 573.865 648.053H659.452C664.445 648.23 668.545 650.086 671.755 653.627C675.143 657.166 676.838 661.411 676.838 666.365C676.66 671.143 674.877 675.211 671.489 678.573C668.279 681.758 664.267 683.44 659.452 683.617H564.772C552.291 682.907 541.95 678.749 533.747 671.143C525.722 663.357 519.927 653.891 516.361 642.746C512.973 631.598 511.19 619.743 511.012 607.182V540.037C511.19 535.259 512.973 531.278 516.361 528.093C519.749 524.731 523.849 522.962 528.664 522.785ZM763.228 562.593C756.452 562.949 750.747 565.515 746.11 570.29C741.652 575.068 738.442 580.555 736.481 586.745C734.52 592.762 733.539 598.953 733.539 605.323C733.539 611.694 734.429 617.974 736.215 624.168C738.176 630.359 741.474 635.846 746.11 640.621C750.747 645.222 756.452 647.7 763.228 648.053H851.488C862.723 649.113 868.874 655.217 869.945 666.365C869.767 671.319 867.894 675.477 864.328 678.839C860.762 682.024 856.481 683.617 851.488 683.617H766.169H753.867C741.386 682.907 731.132 678.219 723.107 669.55C715.085 660.704 709.29 650.706 705.724 639.561C702.336 628.413 700.641 617.001 700.641 605.323C700.641 596.654 701.621 588.072 703.582 579.579C705.546 571.086 708.575 563.036 712.678 555.43C716.956 547.644 722.573 541.01 729.527 535.525C736.659 530.038 744.774 527.209 753.867 527.033H758.947H851.488C862.723 528.093 868.874 534.196 869.945 545.344C869.945 550.299 868.072 554.457 864.328 557.818C860.762 561.004 856.481 562.593 851.488 562.593H763.228Z" fill="url(#paint17_linear_1_2)"/>
<path d="M389.854 690.808C380.58 690.808 371.397 689.745 362.304 687.623C353.389 685.5 344.83 682.402 336.628 678.334C328.425 674.086 321.206 668.515 314.964 661.615C308.722 654.714 305.334 646.485 304.8 636.933V625.785V541.124C304.8 536.17 306.583 532.098 310.149 528.913C313.893 525.552 318.261 523.872 323.254 523.872C333.955 524.758 339.747 530.506 340.64 541.124V628.704C340.996 634.188 343.048 638.789 346.791 642.504C350.713 646.042 354.994 648.874 359.631 650.997C364.443 653.122 369.348 654.714 374.341 655.774C379.512 656.837 384.683 657.367 389.854 657.367C395.024 657.367 400.105 656.837 405.098 655.774C410.268 654.714 415.171 653.122 419.808 650.997C424.622 648.874 428.9 646.042 432.647 642.504C436.569 638.789 438.708 634.188 439.064 628.704V541.124C439.064 536.17 440.847 532.098 444.416 528.913C448.16 525.552 452.528 523.872 457.521 523.872C468.219 524.758 474.102 530.506 475.172 541.124V625.785V636.933C474.638 646.485 471.16 654.714 464.74 661.615C458.501 668.515 451.279 674.086 443.077 678.334C434.874 682.402 426.227 685.5 417.135 687.623C408.217 689.745 399.124 690.808 389.854 690.808ZM528.664 523.872C533.657 523.872 537.937 525.552 541.503 528.913C545.069 532.098 546.94 536.17 547.121 541.124V605.084C546.94 612.338 547.386 619.061 548.457 625.255C549.706 631.269 552.557 636.666 557.016 641.444C561.472 646.222 567.089 648.787 573.865 649.14H659.452C664.445 649.317 668.545 651.173 671.755 654.714C675.143 658.253 676.838 662.498 676.838 667.452C676.66 672.23 674.877 676.298 671.489 679.66C668.279 682.845 664.267 684.527 659.452 684.704H564.772C552.291 683.995 541.95 679.837 533.747 672.23C525.722 664.444 519.927 654.978 516.361 643.833C512.973 632.685 511.19 620.83 511.012 608.269V541.124C511.19 536.346 512.973 532.365 516.361 529.18C519.749 525.818 523.849 524.049 528.664 523.872ZM763.228 563.68C756.452 564.037 750.747 566.602 746.11 571.377C741.652 576.155 738.442 581.642 736.481 587.832C734.52 593.849 733.539 600.04 733.539 606.411C733.539 612.781 734.429 619.061 736.215 625.255C738.176 631.446 741.474 636.933 746.11 641.708C750.747 646.309 756.452 648.787 763.228 649.14H851.488C862.723 650.2 868.874 656.304 869.945 667.452C869.767 672.406 867.894 676.564 864.328 679.926C860.762 683.111 856.481 684.704 851.488 684.704H766.169H753.867C741.386 683.995 731.132 679.307 723.107 670.637C715.085 661.791 709.29 651.793 705.724 640.648C702.336 629.5 700.641 618.088 700.641 606.411C700.641 597.741 701.621 589.159 703.582 580.666C705.546 572.173 708.575 564.124 712.678 556.517C716.956 548.731 722.573 542.097 729.527 536.613C736.659 531.126 744.774 528.296 753.867 528.12H758.947H851.488C862.723 529.18 868.874 535.284 869.945 546.431C869.945 551.386 868.072 555.544 864.328 558.906C860.762 562.091 856.481 563.68 851.488 563.68H763.228Z" fill="url(#paint18_linear_1_2)"/>
<path d="M390.949 687.546C381.676 687.546 372.492 686.484 363.4 684.361C354.485 682.239 345.926 679.141 337.724 675.072C329.521 670.825 322.301 665.253 316.06 658.353C309.818 651.453 306.43 643.224 305.896 633.671V622.523V537.863C305.896 532.908 307.679 528.837 311.245 525.652C314.989 522.29 319.357 520.611 324.35 520.611C335.05 521.497 340.843 527.245 341.736 537.863V625.442C342.092 630.926 344.143 635.528 347.887 639.243C351.809 642.781 356.09 645.613 360.727 647.735C365.539 649.861 370.444 651.453 375.437 652.513C380.608 653.576 385.778 654.106 390.949 654.106C396.12 654.106 401.201 653.576 406.193 652.513C411.364 651.453 416.267 649.861 420.903 647.735C425.718 645.613 429.996 642.781 433.743 639.243C437.665 635.528 439.804 630.926 440.16 625.442V537.863C440.16 532.908 441.943 528.837 445.511 525.652C449.255 522.29 453.624 520.611 458.617 520.611C469.314 521.497 475.197 527.245 476.268 537.863V622.523V633.671C475.734 643.224 472.256 651.453 465.836 658.353C459.597 665.253 452.375 670.825 444.172 675.072C435.97 679.141 427.323 682.239 418.23 684.361C409.313 686.484 400.22 687.546 390.949 687.546ZM529.76 520.611C534.752 520.611 539.033 522.29 542.599 525.652C546.165 528.837 548.035 532.908 548.216 537.863V601.823C548.035 609.076 548.482 615.8 549.553 621.994C550.802 628.008 553.653 633.405 558.112 638.183C562.568 642.96 568.185 645.526 574.961 645.879H660.548C665.541 646.056 669.641 647.912 672.851 651.453C676.238 654.992 677.934 659.236 677.934 664.191C677.756 668.968 675.973 673.037 672.585 676.399C669.375 679.584 665.363 681.266 660.548 681.443H565.868C553.387 680.733 543.045 676.575 534.843 668.968C526.818 661.182 521.023 651.717 517.457 640.572C514.069 629.424 512.286 617.569 512.108 605.008V537.863C512.286 533.085 514.069 529.104 517.457 525.918C520.845 522.557 524.945 520.787 529.76 520.611ZM764.324 560.419C757.548 560.775 751.843 563.341 747.206 568.116C742.747 572.893 739.537 578.38 737.576 584.571C735.615 590.588 734.635 596.779 734.635 603.149C734.635 609.519 735.525 615.8 737.311 621.994C739.272 628.184 742.569 633.671 747.206 638.446C751.843 643.047 757.548 645.526 764.324 645.879H852.584C863.818 646.939 869.97 653.043 871.041 664.191C870.863 669.145 868.989 673.303 865.423 676.665C861.857 679.85 857.577 681.443 852.584 681.443H767.265H754.962C742.482 680.733 732.228 676.045 724.203 667.376C716.181 658.53 710.386 648.532 706.82 637.386C703.432 626.239 701.737 614.827 701.737 603.149C701.737 594.48 702.717 585.897 704.678 577.405C706.642 568.912 709.671 560.862 713.774 553.255C718.052 545.469 723.669 538.835 730.623 533.351C737.754 527.864 745.87 525.035 754.962 524.859H760.043H852.584C863.818 525.918 869.97 532.022 871.041 543.17C871.041 548.124 869.167 552.283 865.423 555.644C861.857 558.829 857.577 560.419 852.584 560.419H764.324Z" fill="url(#paint19_linear_1_2)"/>
<path d="M389.854 688.634C380.58 688.634 371.397 687.571 362.304 685.449C353.389 683.326 344.83 680.228 336.628 676.16C328.425 671.912 321.206 666.341 314.964 659.44C308.722 652.54 305.334 644.311 304.8 634.758V623.611V538.95C304.8 533.995 306.583 529.924 310.149 526.739C313.893 523.377 318.261 521.698 323.254 521.698C333.955 522.584 339.747 528.332 340.64 538.95V626.529C340.996 632.014 343.048 636.615 346.791 640.33C350.713 643.868 354.994 646.7 359.631 648.822C364.443 650.948 369.348 652.54 374.341 653.6C379.512 654.663 384.683 655.193 389.854 655.193C395.024 655.193 400.105 654.663 405.098 653.6C410.268 652.54 415.171 650.948 419.808 648.822C424.622 646.7 428.9 643.868 432.647 640.33C436.569 636.615 438.708 632.014 439.064 626.529V538.95C439.064 533.995 440.847 529.924 444.416 526.739C448.16 523.377 452.528 521.698 457.521 521.698C468.219 522.584 474.102 528.332 475.172 538.95V623.611V634.758C474.638 644.311 471.16 652.54 464.74 659.44C458.501 666.341 451.279 671.912 443.077 676.16C434.874 680.228 426.227 683.326 417.135 685.449C408.217 687.571 399.124 688.634 389.854 688.634ZM528.664 521.698C533.657 521.698 537.937 523.377 541.503 526.739C545.069 529.924 546.94 533.995 547.121 538.95V602.91C546.94 610.164 547.386 616.887 548.457 623.081C549.706 629.095 552.557 634.492 557.016 639.27C561.472 644.048 567.089 646.613 573.865 646.966H659.452C664.445 647.143 668.545 648.999 671.755 652.54C675.143 656.079 676.838 660.324 676.838 665.278C676.66 670.056 674.877 674.124 671.489 677.486C668.279 680.671 664.267 682.353 659.452 682.53H564.772C552.291 681.82 541.95 677.662 533.747 670.056C525.722 662.27 519.927 652.804 516.361 641.659C512.973 630.511 511.19 618.656 511.012 606.095V538.95C511.19 534.172 512.973 530.191 516.361 527.006C519.749 523.644 523.849 521.875 528.664 521.698ZM763.228 561.506C756.452 561.862 750.747 564.428 746.11 569.203C741.652 573.98 738.442 579.467 736.481 585.658C734.52 591.675 733.539 597.866 733.539 604.236C733.539 610.607 734.429 616.887 736.215 623.081C738.176 629.272 741.474 634.759 746.11 639.533C750.747 644.134 756.452 646.613 763.228 646.966H851.488C862.723 648.026 868.874 654.13 869.945 665.278C869.767 670.232 867.894 674.39 864.328 677.752C860.762 680.937 856.481 682.53 851.488 682.53H766.169H753.867C741.386 681.82 731.132 677.132 723.107 668.463C715.085 659.617 709.29 649.619 705.724 638.474C702.336 627.326 700.641 615.914 700.641 604.236C700.641 595.567 701.621 586.985 703.582 578.492C705.546 569.999 708.575 561.949 712.678 554.343C716.956 546.556 722.573 539.923 729.527 534.438C736.659 528.951 744.774 526.122 753.867 525.946H758.947H851.488C862.723 527.006 868.874 533.109 869.945 544.257C869.945 549.212 868.072 553.37 864.328 556.731C860.762 559.917 856.481 561.506 851.488 561.506H763.228Z" fill="url(#paint20_linear_1_2)"/>
<path d="M389.854 688.634C380.58 688.634 371.397 687.571 362.304 685.449C353.389 683.326 344.83 680.228 336.628 676.16C328.425 671.912 321.206 666.341 314.964 659.44C308.722 652.54 305.334 644.311 304.8 634.758V623.611V538.95C304.8 533.995 306.583 529.924 310.149 526.739C313.893 523.377 318.261 521.698 323.254 521.698C333.955 522.584 339.747 528.332 340.64 538.95V626.529C340.996 632.014 343.048 636.615 346.791 640.33C350.713 643.868 354.994 646.7 359.631 648.822C364.443 650.948 369.348 652.54 374.341 653.6C379.512 654.663 384.683 655.193 389.854 655.193C395.024 655.193 400.105 654.663 405.098 653.6C410.268 652.54 415.171 650.948 419.808 648.822C424.622 646.7 428.9 643.868 432.647 640.33C436.569 636.615 438.708 632.014 439.064 626.529V538.95C439.064 533.995 440.847 529.924 444.416 526.739C448.16 523.377 452.528 521.698 457.521 521.698C468.219 522.584 474.102 528.332 475.172 538.95V623.611V634.758C474.638 644.311 471.16 652.54 464.74 659.44C458.501 666.341 451.279 671.912 443.077 676.16C434.874 680.228 426.227 683.326 417.135 685.449C408.217 687.571 399.124 688.634 389.854 688.634ZM528.664 521.698C533.657 521.698 537.937 523.377 541.503 526.739C545.069 529.924 546.94 533.995 547.121 538.95V602.91C546.94 610.164 547.386 616.887 548.457 623.081C549.706 629.095 552.557 634.492 557.016 639.27C561.472 644.048 567.089 646.613 573.865 646.966H659.452C664.445 647.143 668.545 648.999 671.755 652.54C675.143 656.079 676.838 660.324 676.838 665.278C676.66 670.056 674.877 674.124 671.489 677.486C668.279 680.671 664.267 682.353 659.452 682.53H564.772C552.291 681.82 541.95 677.662 533.747 670.056C525.722 662.27 519.927 652.804 516.361 641.659C512.973 630.511 511.19 618.656 511.012 606.095V538.95C511.19 534.172 512.973 530.191 516.361 527.006C519.749 523.644 523.849 521.875 528.664 521.698ZM763.228 561.506C756.452 561.862 750.747 564.428 746.11 569.203C741.652 573.98 738.442 579.467 736.481 585.658C734.52 591.675 733.539 597.866 733.539 604.236C733.539 610.607 734.429 616.887 736.215 623.081C738.176 629.272 741.474 634.759 746.11 639.533C750.747 644.134 756.452 646.613 763.228 646.966H851.488C862.723 648.026 868.874 654.13 869.945 665.278C869.767 670.232 867.894 674.39 864.328 677.752C860.762 680.937 856.481 682.53 851.488 682.53H766.169H753.867C741.386 681.82 731.132 677.132 723.107 668.463C715.085 659.617 709.29 649.619 705.724 638.474C702.336 627.326 700.641 615.914 700.641 604.236C700.641 595.567 701.621 586.985 703.582 578.492C705.546 569.999 708.575 561.949 712.678 554.343C716.956 546.556 722.573 539.923 729.527 534.438C736.659 528.951 744.774 526.122 753.867 525.946H758.947H851.488C862.723 527.006 868.874 533.109 869.945 544.257C869.945 549.212 868.072 553.37 864.328 556.731C860.762 559.917 856.481 561.506 851.488 561.506H763.228Z" fill="url(#paint21_linear_1_2)"/>
<path d="M389.854 689.721C380.58 689.721 371.397 688.658 362.304 686.536C353.389 684.413 344.83 681.315 336.628 677.247C328.425 672.999 321.206 667.428 314.964 660.527C308.722 653.627 305.334 645.398 304.8 635.846V624.698V540.037C304.8 535.082 306.583 531.011 310.149 527.826C313.893 524.464 318.261 522.785 323.254 522.785C333.955 523.671 339.747 529.419 340.64 540.037V627.616C340.996 633.101 343.048 637.702 346.791 641.417C350.713 644.955 354.994 647.787 359.631 649.909C364.443 652.035 369.348 653.627 374.341 654.687C379.512 655.75 384.683 656.28 389.854 656.28C395.024 656.28 400.105 655.75 405.098 654.687C410.268 653.627 415.171 652.035 419.808 649.909C424.622 647.787 428.9 644.955 432.647 641.417C436.569 637.702 438.708 633.101 439.064 627.616V540.037C439.064 535.082 440.847 531.011 444.416 527.826C448.16 524.464 452.528 522.785 457.521 522.785C468.219 523.671 474.102 529.419 475.172 540.037V624.698V635.846C474.638 645.398 471.16 653.627 464.74 660.527C458.501 667.428 451.279 672.999 443.077 677.247C434.874 681.315 426.227 684.413 417.135 686.536C408.217 688.658 399.124 689.721 389.854 689.721ZM528.664 522.785C533.657 522.785 537.937 524.464 541.503 527.826C545.069 531.011 546.94 535.082 547.121 540.037V603.997C546.94 611.251 547.386 617.974 548.457 624.168C549.706 630.182 552.557 635.579 557.016 640.357C561.472 645.135 567.089 647.7 573.865 648.053H659.452C664.445 648.23 668.545 650.086 671.755 653.627C675.143 657.166 676.838 661.411 676.838 666.365C676.66 671.143 674.877 675.211 671.489 678.573C668.279 681.758 664.267 683.44 659.452 683.617H564.772C552.291 682.907 541.95 678.749 533.747 671.143C525.722 663.357 519.927 653.891 516.361 642.746C512.973 631.598 511.19 619.743 511.012 607.182V540.037C511.19 535.259 512.973 531.278 516.361 528.093C519.749 524.731 523.849 522.962 528.664 522.785ZM763.228 562.593C756.452 562.949 750.747 565.515 746.11 570.29C741.652 575.068 738.442 580.555 736.481 586.745C734.52 592.762 733.539 598.953 733.539 605.323C733.539 611.694 734.429 617.974 736.215 624.168C738.176 630.359 741.474 635.846 746.11 640.621C750.747 645.222 756.452 647.7 763.228 648.053H851.488C862.723 649.113 868.874 655.217 869.945 666.365C869.767 671.319 867.894 675.477 864.328 678.839C860.762 682.024 856.481 683.617 851.488 683.617H766.169H753.867C741.386 682.907 731.132 678.219 723.107 669.55C715.085 660.704 709.29 650.706 705.724 639.561C702.336 628.413 700.641 617.001 700.641 605.323C700.641 596.654 701.621 588.072 703.582 579.579C705.546 571.086 708.575 563.036 712.678 555.43C716.956 547.644 722.573 541.01 729.527 535.525C736.659 530.038 744.774 527.209 753.867 527.033H758.947H851.488C862.723 528.093 868.874 534.196 869.945 545.344C869.945 550.299 868.072 554.457 864.328 557.818C860.762 561.004 856.481 562.593 851.488 562.593H763.228Z" fill="url(#paint22_linear_1_2)"/>
<path d="M390.949 686.459C381.676 686.459 372.492 685.397 363.4 683.274C354.485 681.152 345.926 678.054 337.724 673.985C329.521 669.738 322.301 664.166 316.06 657.266C309.818 650.366 306.43 642.137 305.896 632.584V621.436V536.776C305.896 531.821 307.679 527.75 311.245 524.565C314.989 521.203 319.357 519.524 324.35 519.524C335.05 520.41 340.843 526.158 341.736 536.776V624.355C342.092 629.839 344.143 634.44 347.887 638.156C351.809 641.694 356.09 644.526 360.727 646.648C365.539 648.773 370.444 650.366 375.437 651.426C380.608 652.489 385.778 653.019 390.949 653.019C396.12 653.019 401.201 652.489 406.193 651.426C411.364 650.366 416.267 648.773 420.903 646.648C425.718 644.526 429.996 641.694 433.743 638.156C437.665 634.44 439.804 629.839 440.16 624.355V536.776C440.16 531.821 441.943 527.75 445.511 524.565C449.255 521.203 453.624 519.524 458.617 519.524C469.314 520.41 475.197 526.158 476.268 536.776V621.436V632.584C475.734 642.137 472.256 650.366 465.836 657.266C459.597 664.166 452.375 669.738 444.172 673.985C435.97 678.054 427.323 681.152 418.23 683.274C409.313 685.397 400.22 686.459 390.949 686.459ZM529.76 519.524C534.752 519.524 539.033 521.203 542.599 524.565C546.165 527.75 548.035 531.821 548.216 536.776V600.736C548.035 607.989 548.482 614.713 549.553 620.906C550.802 626.921 553.653 632.318 558.112 637.096C562.568 641.873 568.185 644.439 574.961 644.792H660.548C665.541 644.969 669.641 646.825 672.851 650.366C676.238 653.904 677.934 658.149 677.934 663.104C677.756 667.881 675.973 671.95 672.585 675.312C669.375 678.497 665.363 680.179 660.548 680.356H565.868C553.387 679.646 543.045 675.488 534.843 667.881C526.818 660.095 521.023 650.63 517.457 639.485C514.069 628.337 512.286 616.482 512.108 603.921V536.776C512.286 531.998 514.069 528.016 517.457 524.831C520.845 521.47 524.945 519.7 529.76 519.524ZM764.324 559.332C757.548 559.688 751.843 562.254 747.206 567.029C742.747 571.806 739.537 577.293 737.576 583.484C735.615 589.501 734.635 595.692 734.635 602.062C734.635 608.432 735.525 614.713 737.311 620.906C739.272 627.097 742.569 632.584 747.206 637.359C751.843 641.96 757.548 644.439 764.324 644.792H852.584C863.818 645.852 869.97 651.956 871.041 663.104C870.863 668.058 868.989 672.216 865.423 675.578C861.857 678.763 857.577 680.356 852.584 680.356H767.265H754.962C742.482 679.646 732.228 674.958 724.203 666.289C716.181 657.443 710.386 647.445 706.82 636.299C703.432 625.152 701.737 613.74 701.737 602.062C701.737 593.393 702.717 584.81 704.678 576.318C706.642 567.825 709.671 559.775 713.774 552.168C718.052 544.382 723.669 537.748 730.623 532.264C737.754 526.777 745.87 523.948 754.962 523.771H760.043H852.584C863.818 524.831 869.97 530.935 871.041 542.083C871.041 547.037 869.167 551.196 865.423 554.557C861.857 557.742 857.577 559.332 852.584 559.332H764.324Z" fill="url(#paint23_linear_1_2)"/>
<path d="M389.854 687.546C380.58 687.546 371.397 686.484 362.304 684.361C353.389 682.239 344.83 679.141 336.628 675.072C328.425 670.825 321.206 665.253 314.964 658.353C308.722 651.453 305.334 643.224 304.8 633.671V622.523V537.863C304.8 532.908 306.583 528.837 310.149 525.652C313.893 522.29 318.261 520.611 323.254 520.611C333.955 521.497 339.747 527.245 340.64 537.863V625.442C340.996 630.926 343.048 635.528 346.791 639.243C350.713 642.781 354.994 645.613 359.631 647.735C364.443 649.861 369.348 651.453 374.341 652.513C379.512 653.576 384.683 654.106 389.854 654.106C395.024 654.106 400.105 653.576 405.098 652.513C410.268 651.453 415.171 649.861 419.808 647.735C424.622 645.613 428.9 642.781 432.647 639.243C436.569 635.528 438.708 630.926 439.064 625.442V537.863C439.064 532.908 440.847 528.837 444.416 525.652C448.16 522.29 452.528 520.611 457.521 520.611C468.219 521.497 474.102 527.245 475.172 537.863V622.523V633.671C474.638 643.224 471.16 651.453 464.74 658.353C458.501 665.253 451.279 670.825 443.077 675.072C434.874 679.141 426.227 682.239 417.135 684.361C408.217 686.484 399.124 687.546 389.854 687.546ZM528.664 520.611C533.657 520.611 537.937 522.29 541.503 525.652C545.069 528.837 546.94 532.908 547.121 537.863V601.823C546.94 609.076 547.386 615.8 548.457 621.994C549.706 628.008 552.557 633.405 557.016 638.183C561.472 642.96 567.089 645.526 573.865 645.879H659.452C664.445 646.056 668.545 647.912 671.755 651.453C675.143 654.992 676.838 659.236 676.838 664.191C676.66 668.968 674.877 673.037 671.489 676.399C668.279 679.584 664.267 681.266 659.452 681.443H564.772C552.291 680.733 541.95 676.575 533.747 668.968C525.722 661.182 519.927 651.717 516.361 640.572C512.973 629.424 511.19 617.569 511.012 605.008V537.863C511.19 533.085 512.973 529.104 516.361 525.918C519.749 522.557 523.849 520.787 528.664 520.611ZM763.228 560.419C756.452 560.775 750.747 563.341 746.11 568.116C741.652 572.893 738.442 578.38 736.481 584.571C734.52 590.588 733.539 596.779 733.539 603.149C733.539 609.519 734.429 615.8 736.215 621.994C738.176 628.184 741.474 633.671 746.11 638.446C750.747 643.047 756.452 645.526 763.228 645.879H851.488C862.723 646.939 868.874 653.043 869.945 664.191C869.767 669.145 867.894 673.303 864.328 676.665C860.762 679.85 856.481 681.443 851.488 681.443H766.169H753.867C741.386 680.733 731.132 676.045 723.107 667.376C715.085 658.53 709.29 648.532 705.724 637.386C702.336 626.239 700.641 614.827 700.641 603.149C700.641 594.48 701.621 585.897 703.582 577.405C705.546 568.912 708.575 560.862 712.678 553.255C716.956 545.469 722.573 538.835 729.527 533.351C736.659 527.864 744.774 525.035 753.867 524.859H758.947H851.488C862.723 525.918 868.874 532.022 869.945 543.17C869.945 548.124 868.072 552.283 864.328 555.644C860.762 558.829 856.481 560.419 851.488 560.419H763.228Z" fill="url(#paint24_linear_1_2)"/>
<path d="M389.854 687.546C380.58 687.546 371.397 686.484 362.304 684.361C353.389 682.239 344.83 679.141 336.628 675.072C328.425 670.825 321.206 665.253 314.964 658.353C308.722 651.453 305.334 643.224 304.8 633.671V622.523V537.863C304.8 532.908 306.583 528.837 310.149 525.652C313.893 522.29 318.261 520.611 323.254 520.611C333.955 521.497 339.747 527.245 340.64 537.863V625.442C340.996 630.926 343.048 635.528 346.791 639.243C350.713 642.781 354.994 645.613 359.631 647.735C364.443 649.861 369.348 651.453 374.341 652.513C379.512 653.576 384.683 654.106 389.854 654.106C395.024 654.106 400.105 653.576 405.098 652.513C410.268 651.453 415.171 649.861 419.808 647.735C424.622 645.613 428.9 642.781 432.647 639.243C436.569 635.528 438.708 630.926 439.064 625.442V537.863C439.064 532.908 440.847 528.837 444.416 525.652C448.16 522.29 452.528 520.611 457.521 520.611C468.219 521.497 474.102 527.245 475.172 537.863V622.523V633.671C474.638 643.224 471.16 651.453 464.74 658.353C458.501 665.253 451.279 670.825 443.077 675.072C434.874 679.141 426.227 682.239 417.135 684.361C408.217 686.484 399.124 687.546 389.854 687.546ZM528.664 520.611C533.657 520.611 537.937 522.29 541.503 525.652C545.069 528.837 546.94 532.908 547.121 537.863V601.823C546.94 609.076 547.386 615.8 548.457 621.994C549.706 628.008 552.557 633.405 557.016 638.183C561.472 642.96 567.089 645.526 573.865 645.879H659.452C664.445 646.056 668.545 647.912 671.755 651.453C675.143 654.992 676.838 659.236 676.838 664.191C676.66 668.968 674.877 673.037 671.489 676.399C668.279 679.584 664.267 681.266 659.452 681.443H564.772C552.291 680.733 541.95 676.575 533.747 668.968C525.722 661.182 519.927 651.717 516.361 640.572C512.973 629.424 511.19 617.569 511.012 605.008V537.863C511.19 533.085 512.973 529.104 516.361 525.918C519.749 522.557 523.849 520.787 528.664 520.611ZM763.228 560.419C756.452 560.775 750.747 563.341 746.11 568.116C741.652 572.893 738.442 578.38 736.481 584.571C734.52 590.588 733.539 596.779 733.539 603.149C733.539 609.519 734.429 615.8 736.215 621.994C738.176 628.184 741.474 633.671 746.11 638.446C750.747 643.047 756.452 645.526 763.228 645.879H851.488C862.723 646.939 868.874 653.043 869.945 664.191C869.767 669.145 867.894 673.303 864.328 676.665C860.762 679.85 856.481 681.443 851.488 681.443H766.169H753.867C741.386 680.733 731.132 676.045 723.107 667.376C715.085 658.53 709.29 648.532 705.724 637.386C702.336 626.239 700.641 614.827 700.641 603.149C700.641 594.48 701.621 585.897 703.582 577.405C705.546 568.912 708.575 560.862 712.678 553.255C716.956 545.469 722.573 538.835 729.527 533.351C736.659 527.864 744.774 525.035 753.867 524.859H758.947H851.488C862.723 525.918 868.874 532.022 869.945 543.17C869.945 548.124 868.072 552.283 864.328 555.644C860.762 558.829 856.481 560.419 851.488 560.419H763.228Z" fill="url(#paint25_linear_1_2)"/>
<path d="M389.854 688.634C380.58 688.634 371.397 687.571 362.304 685.449C353.389 683.326 344.83 680.228 336.628 676.16C328.425 671.912 321.206 666.341 314.964 659.44C308.722 652.54 305.334 644.311 304.8 634.758V623.611V538.95C304.8 533.995 306.583 529.924 310.149 526.739C313.893 523.377 318.261 521.698 323.254 521.698C333.955 522.584 339.747 528.332 340.64 538.95V626.529C340.996 632.014 343.048 636.615 346.791 640.33C350.713 643.868 354.994 646.7 359.631 648.822C364.443 650.948 369.348 652.54 374.341 653.6C379.512 654.663 384.683 655.193 389.854 655.193C395.024 655.193 400.105 654.663 405.098 653.6C410.268 652.54 415.171 650.948 419.808 648.822C424.622 646.7 428.9 643.868 432.647 640.33C436.569 636.615 438.708 632.014 439.064 626.529V538.95C439.064 533.995 440.847 529.924 444.416 526.739C448.16 523.377 452.528 521.698 457.521 521.698C468.219 522.584 474.102 528.332 475.172 538.95V623.611V634.758C474.638 644.311 471.16 652.54 464.74 659.44C458.501 666.341 451.279 671.912 443.077 676.16C434.874 680.228 426.227 683.326 417.135 685.449C408.217 687.571 399.124 688.634 389.854 688.634ZM528.664 521.698C533.657 521.698 537.937 523.377 541.503 526.739C545.069 529.924 546.94 533.995 547.121 538.95V602.91C546.94 610.164 547.386 616.887 548.457 623.081C549.706 629.095 552.557 634.492 557.016 639.27C561.472 644.048 567.089 646.613 573.865 646.966H659.452C664.445 647.143 668.545 648.999 671.755 652.54C675.143 656.079 676.838 660.324 676.838 665.278C676.66 670.056 674.877 674.124 671.489 677.486C668.279 680.671 664.267 682.353 659.452 682.53H564.772C552.291 681.82 541.95 677.662 533.747 670.056C525.722 662.27 519.927 652.804 516.361 641.659C512.973 630.511 511.19 618.656 511.012 606.095V538.95C511.19 534.172 512.973 530.191 516.361 527.006C519.749 523.644 523.849 521.875 528.664 521.698ZM763.228 561.506C756.452 561.862 750.747 564.428 746.11 569.203C741.652 573.98 738.442 579.467 736.481 585.658C734.52 591.675 733.539 597.866 733.539 604.236C733.539 610.607 734.429 616.887 736.215 623.081C738.176 629.272 741.474 634.759 746.11 639.533C750.747 644.134 756.452 646.613 763.228 646.966H851.488C862.723 648.026 868.874 654.13 869.945 665.278C869.767 670.232 867.894 674.39 864.328 677.752C860.762 680.937 856.481 682.53 851.488 682.53H766.169H753.867C741.386 681.82 731.132 677.132 723.107 668.463C715.085 659.617 709.29 649.619 705.724 638.474C702.336 627.326 700.641 615.914 700.641 604.236C700.641 595.567 701.621 586.985 703.582 578.492C705.546 569.999 708.575 561.949 712.678 554.343C716.956 546.556 722.573 539.923 729.527 534.438C736.659 528.951 744.774 526.122 753.867 525.946H758.947H851.488C862.723 527.006 868.874 533.109 869.945 544.257C869.945 549.212 868.072 553.37 864.328 556.731C860.762 559.917 856.481 561.506 851.488 561.506H763.228Z" fill="url(#paint26_linear_1_2)"/>
<path d="M390.949 685.372C381.676 685.372 372.492 684.31 363.4 682.187C354.485 680.065 345.926 676.967 337.724 672.898C329.521 668.651 322.301 663.079 316.06 656.179C309.818 649.279 306.43 641.05 305.896 631.497V620.349V535.688C305.896 530.734 307.679 526.663 311.245 523.478C314.989 520.116 319.357 518.437 324.35 518.437C335.05 519.323 340.843 525.071 341.736 535.688V623.268C342.092 628.752 344.143 633.353 347.887 637.068C351.809 640.607 356.09 643.439 360.727 645.561C365.539 647.686 370.444 649.279 375.437 650.339C380.608 651.402 385.778 651.931 390.949 651.931C396.12 651.931 401.201 651.402 406.193 650.339C411.364 649.279 416.267 647.686 420.903 645.561C425.718 643.439 429.996 640.607 433.743 637.068C437.665 633.353 439.804 628.752 440.16 623.268V535.688C440.16 530.734 441.943 526.663 445.511 523.478C449.255 520.116 453.624 518.437 458.617 518.437C469.314 519.323 475.197 525.071 476.268 535.688V620.349V631.497C475.734 641.05 472.256 649.279 465.836 656.179C459.597 663.079 452.375 668.651 444.172 672.898C435.97 676.967 427.323 680.065 418.23 682.187C409.313 684.31 400.22 685.372 390.949 685.372ZM529.76 518.437C534.752 518.437 539.033 520.116 542.599 523.478C546.165 526.663 548.035 530.734 548.216 535.688V599.649C548.035 606.902 548.482 613.626 549.553 619.819C550.802 625.834 553.653 631.231 558.112 636.009C562.568 640.786 568.185 643.352 574.961 643.705H660.548C665.541 643.882 669.641 645.738 672.851 649.279C676.238 652.817 677.934 657.062 677.934 662.017C677.756 666.794 675.973 670.863 672.585 674.224C669.375 677.41 665.363 679.092 660.548 679.269H565.868C553.387 678.559 543.045 674.401 534.843 666.794C526.818 659.008 521.023 649.543 517.457 638.397C514.069 627.25 512.286 615.395 512.108 602.834V535.688C512.286 530.911 514.069 526.929 517.457 523.744C520.845 520.383 524.945 518.613 529.76 518.437ZM764.324 558.245C757.548 558.601 751.843 561.167 747.206 565.942C742.747 570.719 739.537 576.206 737.576 582.397C735.615 588.414 734.635 594.605 734.635 600.975C734.635 607.345 735.525 613.626 737.311 619.819C739.272 626.01 742.569 631.497 747.206 636.272C751.843 640.873 757.548 643.352 764.324 643.705H852.584C863.818 644.765 869.97 650.869 871.041 662.017C870.863 666.971 868.989 671.129 865.423 674.491C861.857 677.676 857.577 679.269 852.584 679.269H767.265H754.962C742.482 678.559 732.228 673.871 724.203 665.202C716.181 656.356 710.386 646.358 706.82 635.212C703.432 624.064 701.737 612.653 701.737 600.975C701.737 592.306 702.717 583.723 704.678 575.231C706.642 566.738 709.671 558.688 713.774 551.081C718.052 543.295 723.669 536.661 730.623 531.177C737.754 525.69 745.87 522.861 754.962 522.684H760.043H852.584C863.818 523.744 869.97 529.848 871.041 540.996C871.041 545.95 869.167 550.108 865.423 553.47C861.857 556.655 857.577 558.245 852.584 558.245H764.324Z" fill="url(#paint27_linear_1_2)"/>
<path d="M389.854 686.459C380.58 686.459 371.397 685.397 362.304 683.274C353.389 681.152 344.83 678.054 336.628 673.985C328.425 669.738 321.206 664.166 314.964 657.266C308.722 650.366 305.334 642.137 304.8 632.584V621.436V536.776C304.8 531.821 306.583 527.75 310.149 524.565C313.893 521.203 318.261 519.524 323.254 519.524C333.955 520.41 339.747 526.158 340.64 536.776V624.355C340.996 629.839 343.048 634.44 346.791 638.156C350.713 641.694 354.994 644.526 359.631 646.648C364.443 648.773 369.348 650.366 374.341 651.426C379.512 652.489 384.683 653.019 389.854 653.019C395.024 653.019 400.105 652.489 405.098 651.426C410.268 650.366 415.171 648.773 419.808 646.648C424.622 644.526 428.9 641.694 432.647 638.156C436.569 634.44 438.708 629.839 439.064 624.355V536.776C439.064 531.821 440.847 527.75 444.416 524.565C448.16 521.203 452.528 519.524 457.521 519.524C468.219 520.41 474.102 526.158 475.172 536.776V621.436V632.584C474.638 642.137 471.16 650.366 464.74 657.266C458.501 664.166 451.279 669.738 443.077 673.985C434.874 678.054 426.227 681.152 417.135 683.274C408.217 685.397 399.124 686.459 389.854 686.459ZM528.664 519.524C533.657 519.524 537.937 521.203 541.503 524.565C545.069 527.75 546.94 531.821 547.121 536.776V600.736C546.94 607.989 547.386 614.713 548.457 620.906C549.706 626.921 552.557 632.318 557.016 637.096C561.472 641.873 567.089 644.439 573.865 644.792H659.452C664.445 644.969 668.545 646.825 671.755 650.366C675.143 653.904 676.838 658.149 676.838 663.104C676.66 667.881 674.877 671.95 671.489 675.312C668.279 678.497 664.267 680.179 659.452 680.356H564.772C552.291 679.646 541.95 675.488 533.747 667.881C525.722 660.095 519.927 650.63 516.361 639.485C512.973 628.337 511.19 616.482 511.012 603.921V536.776C511.19 531.998 512.973 528.016 516.361 524.831C519.749 521.47 523.849 519.7 528.664 519.524ZM763.228 559.332C756.452 559.688 750.747 562.254 746.11 567.029C741.652 571.806 738.442 577.293 736.481 583.484C734.52 589.501 733.539 595.692 733.539 602.062C733.539 608.432 734.429 614.713 736.215 620.906C738.176 627.097 741.474 632.584 746.11 637.359C750.747 641.96 756.452 644.439 763.228 644.792H851.488C862.723 645.852 868.874 651.956 869.945 663.104C869.767 668.058 867.894 672.216 864.328 675.578C860.762 678.763 856.481 680.356 851.488 680.356H766.169H753.867C741.386 679.646 731.132 674.958 723.107 666.289C715.085 657.443 709.29 647.445 705.724 636.299C702.336 625.152 700.641 613.74 700.641 602.062C700.641 593.393 701.621 584.81 703.582 576.318C705.546 567.825 708.575 559.775 712.678 552.168C716.956 544.382 722.573 537.748 729.527 532.264C736.659 526.777 744.774 523.948 753.867 523.771H758.947H851.488C862.723 524.831 868.874 530.935 869.945 542.083C869.945 547.037 868.072 551.196 864.328 554.557C860.762 557.742 856.481 559.332 851.488 559.332H763.228Z" fill="url(#paint28_linear_1_2)"/>
<path d="M389.854 686.459C380.58 686.459 371.397 685.397 362.304 683.274C353.389 681.152 344.83 678.054 336.628 673.985C328.425 669.738 321.206 664.166 314.964 657.266C308.722 650.366 305.334 642.137 304.8 632.584V621.436V536.776C304.8 531.821 306.583 527.75 310.149 524.565C313.893 521.203 318.261 519.524 323.254 519.524C333.955 520.41 339.747 526.158 340.64 536.776V624.355C340.996 629.839 343.048 634.44 346.791 638.156C350.713 641.694 354.994 644.526 359.631 646.648C364.443 648.773 369.348 650.366 374.341 651.426C379.512 652.489 384.683 653.019 389.854 653.019C395.024 653.019 400.105 652.489 405.098 651.426C410.268 650.366 415.171 648.773 419.808 646.648C424.622 644.526 428.9 641.694 432.647 638.156C436.569 634.44 438.708 629.839 439.064 624.355V536.776C439.064 531.821 440.847 527.75 444.416 524.565C448.16 521.203 452.528 519.524 457.521 519.524C468.219 520.41 474.102 526.158 475.172 536.776V621.436V632.584C474.638 642.137 471.16 650.366 464.74 657.266C458.501 664.166 451.279 669.738 443.077 673.985C434.874 678.054 426.227 681.152 417.135 683.274C408.217 685.397 399.124 686.459 389.854 686.459ZM528.664 519.524C533.657 519.524 537.937 521.203 541.503 524.565C545.069 527.75 546.94 531.821 547.121 536.776V600.736C546.94 607.989 547.386 614.713 548.457 620.906C549.706 626.921 552.557 632.318 557.016 637.096C561.472 641.873 567.089 644.439 573.865 644.792H659.452C664.445 644.969 668.545 646.825 671.755 650.366C675.143 653.904 676.838 658.149 676.838 663.104C676.66 667.881 674.877 671.95 671.489 675.312C668.279 678.497 664.267 680.179 659.452 680.356H564.772C552.291 679.646 541.95 675.488 533.747 667.881C525.722 660.095 519.927 650.63 516.361 639.485C512.973 628.337 511.19 616.482 511.012 603.921V536.776C511.19 531.998 512.973 528.016 516.361 524.831C519.749 521.47 523.849 519.7 528.664 519.524ZM763.228 559.332C756.452 559.688 750.747 562.254 746.11 567.029C741.652 571.806 738.442 577.293 736.481 583.484C734.52 589.501 733.539 595.692 733.539 602.062C733.539 608.432 734.429 614.713 736.215 620.906C738.176 627.097 741.474 632.584 746.11 637.359C750.747 641.96 756.452 644.439 763.228 644.792H851.488C862.723 645.852 868.874 651.956 869.945 663.104C869.767 668.058 867.894 672.216 864.328 675.578C860.762 678.763 856.481 680.356 851.488 680.356H766.169H753.867C741.386 679.646 731.132 674.958 723.107 666.289C715.085 657.443 709.29 647.445 705.724 636.299C702.336 625.152 700.641 613.74 700.641 602.062C700.641 593.393 701.621 584.81 703.582 576.318C705.546 567.825 708.575 559.775 712.678 552.168C716.956 544.382 722.573 537.748 729.527 532.264C736.659 526.777 744.774 523.948 753.867 523.771H758.947H851.488C862.723 524.831 868.874 530.935 869.945 542.083C869.945 547.037 868.072 551.196 864.328 554.557C860.762 557.742 856.481 559.332 851.488 559.332H763.228Z" fill="url(#paint29_linear_1_2)"/>
<path d="M389.854 687.546C380.58 687.546 371.397 686.484 362.304 684.361C353.389 682.239 344.83 679.141 336.628 675.072C328.425 670.825 321.206 665.253 314.964 658.353C308.722 651.453 305.334 643.224 304.8 633.671V622.523V537.863C304.8 532.908 306.583 528.837 310.149 525.652C313.893 522.29 318.261 520.611 323.254 520.611C333.955 521.497 339.747 527.245 340.64 537.863V625.442C340.996 630.926 343.048 635.528 346.791 639.243C350.713 642.781 354.994 645.613 359.631 647.735C364.443 649.861 369.348 651.453 374.341 652.513C379.512 653.576 384.683 654.106 389.854 654.106C395.024 654.106 400.105 653.576 405.098 652.513C410.268 651.453 415.171 649.861 419.808 647.735C424.622 645.613 428.9 642.781 432.647 639.243C436.569 635.528 438.708 630.926 439.064 625.442V537.863C439.064 532.908 440.847 528.837 444.416 525.652C448.16 522.29 452.528 520.611 457.521 520.611C468.219 521.497 474.102 527.245 475.172 537.863V622.523V633.671C474.638 643.224 471.16 651.453 464.74 658.353C458.501 665.253 451.279 670.825 443.077 675.072C434.874 679.141 426.227 682.239 417.135 684.361C408.217 686.484 399.124 687.546 389.854 687.546ZM528.664 520.611C533.657 520.611 537.937 522.29 541.503 525.652C545.069 528.837 546.94 532.908 547.121 537.863V601.823C546.94 609.076 547.386 615.8 548.457 621.994C549.706 628.008 552.557 633.405 557.016 638.183C561.472 642.96 567.089 645.526 573.865 645.879H659.452C664.445 646.056 668.545 647.912 671.755 651.453C675.143 654.992 676.838 659.236 676.838 664.191C676.66 668.968 674.877 673.037 671.489 676.399C668.279 679.584 664.267 681.266 659.452 681.443H564.772C552.291 680.733 541.95 676.575 533.747 668.968C525.722 661.182 519.927 651.717 516.361 640.572C512.973 629.424 511.19 617.569 511.012 605.008V537.863C511.19 533.085 512.973 529.104 516.361 525.918C519.749 522.557 523.849 520.787 528.664 520.611ZM763.228 560.419C756.452 560.775 750.747 563.341 746.11 568.116C741.652 572.893 738.442 578.38 736.481 584.571C734.52 590.588 733.539 596.779 733.539 603.149C733.539 609.519 734.429 615.8 736.215 621.994C738.176 628.184 741.474 633.671 746.11 638.446C750.747 643.047 756.452 645.526 763.228 645.879H851.488C862.723 646.939 868.874 653.043 869.945 664.191C869.767 669.145 867.894 673.303 864.328 676.665C860.762 679.85 856.481 681.443 851.488 681.443H766.169H753.867C741.386 680.733 731.132 676.045 723.107 667.376C715.085 658.53 709.29 648.532 705.724 637.386C702.336 626.239 700.641 614.827 700.641 603.149C700.641 594.48 701.621 585.897 703.582 577.405C705.546 568.912 708.575 560.862 712.678 553.255C716.956 545.469 722.573 538.835 729.527 533.351C736.659 527.864 744.774 525.035 753.867 524.859H758.947H851.488C862.723 525.918 868.874 532.022 869.945 543.17C869.945 548.124 868.072 552.283 864.328 555.644C860.762 558.829 856.481 560.419 851.488 560.419H763.228Z" fill="url(#paint30_linear_1_2)"/>
<path d="M389.854 681.024C380.58 681.024 371.397 679.962 362.304 677.839C353.389 675.717 344.83 672.618 336.628 668.55C328.425 664.302 321.206 658.731 314.964 651.831C308.722 644.931 305.334 636.702 304.8 627.149V616.001V531.34C304.8 526.386 306.583 522.315 310.149 519.13C313.893 515.768 318.261 514.088 323.254 514.088C333.955 514.974 339.747 520.722 340.64 531.34V618.92C340.996 624.404 343.048 629.005 346.791 632.72C350.713 636.259 354.994 639.09 359.631 641.213C364.443 643.338 369.348 644.931 374.341 645.991C379.512 647.053 384.683 647.583 389.854 647.583C395.024 647.583 400.105 647.053 405.098 645.991C410.268 644.931 415.171 643.338 419.808 641.213C424.622 639.09 428.9 636.259 432.647 632.72C436.569 629.005 438.708 624.404 439.064 618.92V531.34C439.064 526.386 440.847 522.315 444.416 519.13C448.16 515.768 452.528 514.088 457.521 514.088C468.219 514.974 474.102 520.722 475.172 531.34V616.001V627.149C474.638 636.702 471.16 644.931 464.74 651.831C458.501 658.731 451.279 664.302 443.077 668.55C434.874 672.618 426.227 675.717 417.135 677.839C408.217 679.962 399.124 681.024 389.854 681.024ZM528.664 514.088C533.657 514.088 537.937 515.768 541.503 519.13C545.069 522.315 546.94 526.386 547.121 531.34V595.301C546.94 602.554 547.386 609.278 548.457 615.471C549.706 621.485 552.557 626.883 557.016 631.66C561.472 636.438 567.089 639.004 573.865 639.357H659.452C664.445 639.533 668.545 641.39 671.755 644.931C675.143 648.469 676.838 652.714 676.838 657.668C676.66 662.446 674.877 666.514 671.489 669.876C668.279 673.061 664.267 674.744 659.452 674.92H564.772C552.291 674.211 541.95 670.053 533.747 662.446C525.722 654.66 519.927 645.194 516.361 634.049C512.973 622.901 511.19 611.047 511.012 598.486V531.34C511.19 526.563 512.973 522.581 516.361 519.396C519.749 516.034 523.849 514.265 528.664 514.088ZM763.228 553.897C756.452 554.253 750.747 556.818 746.11 561.593C741.652 566.371 738.442 571.858 736.481 578.049C734.52 584.066 733.539 590.257 733.539 596.627C733.539 602.997 734.429 609.278 736.215 615.471C738.176 621.662 741.474 627.149 746.11 631.924C750.747 636.525 756.452 639.004 763.228 639.357H851.488C862.723 640.417 868.874 646.521 869.945 657.668C869.767 662.623 867.894 666.781 864.328 670.143C860.762 673.328 856.481 674.92 851.488 674.92H766.169H753.867C741.386 674.211 731.132 669.523 723.107 660.854C715.085 652.008 709.29 642.009 705.724 630.864C702.336 619.716 700.641 608.305 700.641 596.627C700.641 587.958 701.621 579.375 703.582 570.882C705.546 562.39 708.575 554.34 712.678 546.733C716.956 538.947 722.573 532.313 729.527 526.829C736.659 521.342 744.774 518.513 753.867 518.336H758.947H851.488C862.723 519.396 868.874 525.5 869.945 536.648C869.945 541.602 868.072 545.76 864.328 549.122C860.762 552.307 856.481 553.897 851.488 553.897H763.228Z" fill="#C8D9D9"/>
<defs>
<linearGradient id="paint0_linear_1_2" x1="1027.7" y1="257.744" x2="164.41" y2="915.873" gradientUnits="userSpaceOnUse">
<stop stop-color="#5EE1F5"/>
<stop offset="0.341346" stop-color="#43D7CA"/>
<stop offset="0.668269" stop-color="#1AB087"/>
<stop offset="1" stop-color="#126E55"/>
</linearGradient>
<linearGradient id="paint1_linear_1_2" x1="292.12" y1="975.699" x2="877.397" y2="195.986" gradientUnits="userSpaceOnUse">
<stop stop-color="#5EE1F5"/>
<stop offset="0.341346" stop-color="#43D7CA"/>
<stop offset="0.668269" stop-color="#1AB087"/>
<stop offset="1" stop-color="#126E55"/>
</linearGradient>
<linearGradient id="paint2_linear_1_2" x1="290.97" y1="909.985" x2="864.828" y2="241.39" gradientUnits="userSpaceOnUse">
<stop stop-color="#504F4F"/>
<stop offset="1" stop-color="#818181"/>
</linearGradient>
<linearGradient id="paint3_linear_1_2" x1="583.884" y1="444.176" x2="583.884" y2="715.943" gradientUnits="userSpaceOnUse">
<stop stop-color="#58DFEB"/>
<stop offset="1" stop-color="#158A6B"/>
</linearGradient>
<linearGradient id="paint4_linear_1_2" x1="582.788" y1="446.35" x2="582.788" y2="718.118" gradientUnits="userSpaceOnUse">
<stop stop-color="#58DFEB"/>
<stop offset="1" stop-color="#158A6B"/>
</linearGradient>
<linearGradient id="paint5_linear_1_2" x1="582.788" y1="446.35" x2="582.788" y2="718.118" gradientUnits="userSpaceOnUse">
<stop stop-color="#58DFEB"/>
<stop offset="1" stop-color="#158A6B"/>
</linearGradient>
<linearGradient id="paint6_linear_1_2" x1="582.788" y1="447.438" x2="582.788" y2="719.205" gradientUnits="userSpaceOnUse">
<stop stop-color="#58DFEB"/>
<stop offset="1" stop-color="#158A6B"/>
</linearGradient>
<linearGradient id="paint7_linear_1_2" x1="583.884" y1="451.786" x2="583.884" y2="723.553" gradientUnits="userSpaceOnUse">
<stop stop-color="#58DFEB"/>
<stop offset="1" stop-color="#158A6B"/>
</linearGradient>
<linearGradient id="paint8_linear_1_2" x1="582.788" y1="452.873" x2="582.788" y2="724.64" gradientUnits="userSpaceOnUse">
<stop stop-color="#58DFEB"/>
<stop offset="1" stop-color="#158A6B"/>
</linearGradient>
<linearGradient id="paint9_linear_1_2" x1="582.788" y1="452.873" x2="582.788" y2="724.64" gradientUnits="userSpaceOnUse">
<stop stop-color="#58DFEB"/>
<stop offset="1" stop-color="#158A6B"/>
</linearGradient>
<linearGradient id="paint10_linear_1_2" x1="582.788" y1="453.96" x2="582.788" y2="725.727" gradientUnits="userSpaceOnUse">
<stop stop-color="#58DFEB"/>
<stop offset="1" stop-color="#158A6B"/>
</linearGradient>
<linearGradient id="paint11_linear_1_2" x1="583.884" y1="450.699" x2="583.884" y2="722.466" gradientUnits="userSpaceOnUse">
<stop stop-color="#58DFEB"/>
<stop offset="1" stop-color="#158A6B"/>
</linearGradient>
<linearGradient id="paint12_linear_1_2" x1="582.788" y1="451.786" x2="582.788" y2="723.553" gradientUnits="userSpaceOnUse">
<stop stop-color="#58DFEB"/>
<stop offset="1" stop-color="#158A6B"/>
</linearGradient>
<linearGradient id="paint13_linear_1_2" x1="582.788" y1="451.786" x2="582.788" y2="723.553" gradientUnits="userSpaceOnUse">
<stop stop-color="#58DFEB"/>
<stop offset="1" stop-color="#158A6B"/>
</linearGradient>
<linearGradient id="paint14_linear_1_2" x1="582.788" y1="452.873" x2="582.788" y2="724.64" gradientUnits="userSpaceOnUse">
<stop stop-color="#58DFEB"/>
<stop offset="1" stop-color="#158A6B"/>
</linearGradient>
<linearGradient id="paint15_linear_1_2" x1="583.884" y1="449.612" x2="583.884" y2="721.379" gradientUnits="userSpaceOnUse">
<stop stop-color="#58DFEB"/>
<stop offset="1" stop-color="#158A6B"/>
</linearGradient>
<linearGradient id="paint16_linear_1_2" x1="582.788" y1="450.699" x2="582.788" y2="722.466" gradientUnits="userSpaceOnUse">
<stop stop-color="#58DFEB"/>
<stop offset="1" stop-color="#158A6B"/>
</linearGradient>
<linearGradient id="paint17_linear_1_2" x1="582.788" y1="450.699" x2="582.788" y2="722.466" gradientUnits="userSpaceOnUse">
<stop stop-color="#58DFEB"/>
<stop offset="1" stop-color="#158A6B"/>
</linearGradient>
<linearGradient id="paint18_linear_1_2" x1="582.788" y1="451.786" x2="582.788" y2="723.553" gradientUnits="userSpaceOnUse">
<stop stop-color="#58DFEB"/>
<stop offset="1" stop-color="#158A6B"/>
</linearGradient>
<linearGradient id="paint19_linear_1_2" x1="583.884" y1="448.525" x2="583.884" y2="720.292" gradientUnits="userSpaceOnUse">
<stop stop-color="#58DFEB"/>
<stop offset="1" stop-color="#158A6B"/>
</linearGradient>
<linearGradient id="paint20_linear_1_2" x1="582.788" y1="449.612" x2="582.788" y2="721.379" gradientUnits="userSpaceOnUse">
<stop stop-color="#58DFEB"/>
<stop offset="1" stop-color="#158A6B"/>
</linearGradient>
<linearGradient id="paint21_linear_1_2" x1="582.788" y1="449.612" x2="582.788" y2="721.379" gradientUnits="userSpaceOnUse">
<stop stop-color="#58DFEB"/>
<stop offset="1" stop-color="#158A6B"/>
</linearGradient>
<linearGradient id="paint22_linear_1_2" x1="582.788" y1="450.699" x2="582.788" y2="722.466" gradientUnits="userSpaceOnUse">
<stop stop-color="#58DFEB"/>
<stop offset="1" stop-color="#158A6B"/>
</linearGradient>
<linearGradient id="paint23_linear_1_2" x1="583.884" y1="447.438" x2="583.884" y2="719.205" gradientUnits="userSpaceOnUse">
<stop stop-color="#58DFEB"/>
<stop offset="1" stop-color="#158A6B"/>
</linearGradient>
<linearGradient id="paint24_linear_1_2" x1="582.788" y1="448.525" x2="582.788" y2="720.292" gradientUnits="userSpaceOnUse">
<stop stop-color="#58DFEB"/>
<stop offset="1" stop-color="#158A6B"/>
</linearGradient>
<linearGradient id="paint25_linear_1_2" x1="582.788" y1="448.525" x2="582.788" y2="720.292" gradientUnits="userSpaceOnUse">
<stop stop-color="#58DFEB"/>
<stop offset="1" stop-color="#158A6B"/>
</linearGradient>
<linearGradient id="paint26_linear_1_2" x1="582.788" y1="449.612" x2="582.788" y2="721.379" gradientUnits="userSpaceOnUse">
<stop stop-color="#58DFEB"/>
<stop offset="1" stop-color="#158A6B"/>
</linearGradient>
<linearGradient id="paint27_linear_1_2" x1="583.884" y1="446.35" x2="583.884" y2="718.118" gradientUnits="userSpaceOnUse">
<stop stop-color="#58DFEB"/>
<stop offset="1" stop-color="#158A6B"/>
</linearGradient>
<linearGradient id="paint28_linear_1_2" x1="582.788" y1="447.438" x2="582.788" y2="719.205" gradientUnits="userSpaceOnUse">
<stop stop-color="#58DFEB"/>
<stop offset="1" stop-color="#158A6B"/>
</linearGradient>
<linearGradient id="paint29_linear_1_2" x1="582.788" y1="447.438" x2="582.788" y2="719.205" gradientUnits="userSpaceOnUse">
<stop stop-color="#58DFEB"/>
<stop offset="1" stop-color="#158A6B"/>
</linearGradient>
<linearGradient id="paint30_linear_1_2" x1="582.788" y1="448.525" x2="582.788" y2="720.292" gradientUnits="userSpaceOnUse">
<stop stop-color="#58DFEB"/>
<stop offset="1" stop-color="#158A6B"/>
</linearGradient>
</defs>
</svg>
