<svg width="4261" height="4261" viewBox="0 0 4261 4261" fill="none" xmlns="http://www.w3.org/2000/svg">
<rect x="130.4" y="130.4" width="4000" height="4000" rx="2000" fill="white"/>
<circle cx="2130.4" cy="2130.4" r="2000" fill="url(#paint0_linear_2_158)"/>
<g filter="url(#filter0_d_2_158)">
<circle cx="1800" cy="1800" r="1800" transform="matrix(0 1 1 0 330.4 330.4)" fill="url(#paint1_linear_2_158)"/>
</g>
<g filter="url(#filter1_i_2_158)">
<ellipse cx="2130.4" cy="2130.4" rx="1608" ry="1644" fill="url(#paint2_linear_2_158)"/>
</g>
<g filter="url(#filter2_d_2_158)">
<path d="M1427.45 2513.91C1393.59 2513.91 1360.06 2510 1326.86 2502.19C1294.31 2494.38 1263.06 2482.98 1233.11 2468.01C1203.16 2452.38 1176.8 2431.88 1154.01 2406.49C1131.22 2381.1 1118.85 2350.82 1116.9 2315.67V2274.65V1963.13C1116.9 1944.9 1123.41 1929.92 1136.43 1918.2C1150.1 1905.83 1166.05 1899.65 1184.28 1899.65C1223.35 1902.91 1244.5 1924.06 1247.76 1963.13V2285.39C1249.06 2305.57 1256.55 2322.5 1270.22 2336.17C1284.54 2349.19 1300.17 2359.61 1317.1 2367.42C1334.67 2375.24 1352.58 2381.1 1370.81 2385C1389.69 2388.91 1408.57 2390.86 1427.45 2390.86C1446.33 2390.86 1464.88 2388.91 1483.11 2385C1501.99 2381.1 1519.89 2375.24 1536.82 2367.42C1554.4 2359.61 1570.02 2349.19 1583.7 2336.17C1598.02 2322.5 1605.83 2305.57 1607.13 2285.39V1963.13C1607.13 1944.9 1613.64 1929.92 1626.67 1918.2C1640.34 1905.83 1656.29 1899.65 1674.52 1899.65C1713.58 1902.91 1735.06 1924.06 1738.97 1963.13V2274.65V2315.67C1737.02 2350.82 1724.32 2381.1 1700.88 2406.49C1678.1 2431.88 1651.73 2452.38 1621.78 2468.01C1591.83 2482.98 1560.26 2494.38 1527.06 2502.19C1494.5 2510 1461.3 2513.91 1427.45 2513.91ZM1934.28 1899.65C1952.51 1899.65 1968.14 1905.83 1981.16 1918.2C1994.18 1929.92 2001.01 1944.9 2001.67 1963.13V2198.48C2001.01 2225.17 2002.64 2249.91 2006.55 2272.7C2011.11 2294.83 2021.52 2314.69 2037.8 2332.27C2054.07 2349.85 2074.58 2359.29 2099.32 2360.59H2411.82C2430.05 2361.24 2445.02 2368.07 2456.74 2381.1C2469.11 2394.12 2475.3 2409.74 2475.3 2427.97C2474.65 2445.55 2468.14 2460.52 2455.77 2472.89C2444.05 2484.61 2429.4 2490.8 2411.82 2491.45H2066.12C2020.55 2488.84 1982.79 2473.54 1952.84 2445.55C1923.54 2416.9 1902.38 2382.07 1889.36 2341.06C1876.99 2300.04 1870.48 2256.42 1869.83 2210.2V1963.13C1870.48 1945.55 1876.99 1930.9 1889.36 1919.18C1901.73 1906.81 1916.7 1900.3 1934.28 1899.65ZM2790.73 2046.13C2765.99 2047.44 2745.16 2056.88 2728.23 2074.45C2711.95 2092.03 2700.23 2112.22 2693.07 2135C2685.91 2157.14 2682.33 2179.92 2682.33 2203.36C2682.33 2226.8 2685.58 2249.91 2692.1 2272.7C2699.26 2295.48 2711.3 2315.67 2728.23 2333.24C2745.16 2350.17 2765.99 2359.29 2790.73 2360.59H3112.99C3154.01 2364.49 3176.47 2386.95 3180.38 2427.97C3179.73 2446.2 3172.89 2461.5 3159.87 2473.87C3146.85 2485.59 3131.22 2491.45 3112.99 2491.45H2801.47H2756.55C2710.98 2488.84 2673.54 2471.59 2644.24 2439.69C2614.95 2407.14 2593.79 2370.35 2580.77 2329.34C2568.4 2288.32 2562.21 2246.33 2562.21 2203.36C2562.21 2171.46 2565.79 2139.88 2572.95 2108.63C2580.12 2077.38 2591.18 2047.76 2606.16 2019.77C2621.78 1991.12 2642.29 1966.71 2667.68 1946.53C2693.72 1926.34 2723.35 1915.93 2756.55 1915.28H2775.1H3112.99C3154.01 1919.18 3176.47 1941.64 3180.38 1982.66C3180.38 2000.89 3173.54 2016.19 3159.87 2028.56C3146.85 2040.28 3131.22 2046.13 3112.99 2046.13H2790.73Z" fill="url(#paint3_linear_2_158)"/>
</g>
<path d="M1423.45 2521.91C1389.59 2521.91 1356.06 2518 1322.86 2510.19C1290.31 2502.38 1259.06 2490.98 1229.11 2476.01C1199.16 2460.38 1172.8 2439.88 1150.01 2414.49C1127.22 2389.1 1114.85 2358.82 1112.9 2323.67V2282.65V1971.13C1112.9 1952.9 1119.41 1937.92 1132.43 1926.2C1146.1 1913.83 1162.05 1907.65 1180.28 1907.65C1219.35 1910.91 1240.5 1932.06 1243.76 1971.13V2293.39C1245.06 2313.57 1252.55 2330.5 1266.22 2344.17C1280.54 2357.19 1296.17 2367.61 1313.1 2375.42C1330.67 2383.24 1348.58 2389.1 1366.81 2393C1385.69 2396.91 1404.57 2398.86 1423.45 2398.86C1442.33 2398.86 1460.88 2396.91 1479.11 2393C1497.99 2389.1 1515.89 2383.24 1532.82 2375.42C1550.4 2367.61 1566.02 2357.19 1579.7 2344.17C1594.02 2330.5 1601.83 2313.57 1603.13 2293.39V1971.13C1603.13 1952.9 1609.64 1937.92 1622.67 1926.2C1636.34 1913.83 1652.29 1907.65 1670.52 1907.65C1709.58 1910.91 1731.06 1932.06 1734.97 1971.13V2282.65V2323.67C1733.02 2358.82 1720.32 2389.1 1696.88 2414.49C1674.1 2439.88 1647.73 2460.38 1617.78 2476.01C1587.83 2490.98 1556.26 2502.38 1523.06 2510.19C1490.5 2518 1457.3 2521.91 1423.45 2521.91ZM1930.28 1907.65C1948.51 1907.65 1964.14 1913.83 1977.16 1926.2C1990.18 1937.92 1997.01 1952.9 1997.67 1971.13V2206.48C1997.01 2233.17 1998.64 2257.91 2002.55 2280.7C2007.11 2302.83 2017.52 2322.69 2033.8 2340.27C2050.07 2357.85 2070.58 2367.29 2095.32 2368.59H2407.82C2426.05 2369.24 2441.02 2376.07 2452.74 2389.1C2465.11 2402.12 2471.3 2417.74 2471.3 2435.97C2470.65 2453.55 2464.14 2468.52 2451.77 2480.89C2440.05 2492.61 2425.4 2498.8 2407.82 2499.45H2062.12C2016.55 2496.84 1978.79 2481.54 1948.84 2453.55C1919.54 2424.9 1898.38 2390.07 1885.36 2349.06C1872.99 2308.04 1866.48 2264.42 1865.83 2218.2V1971.13C1866.48 1953.55 1872.99 1938.9 1885.36 1927.18C1897.73 1914.81 1912.7 1908.3 1930.28 1907.65ZM2786.73 2054.13C2761.99 2055.44 2741.16 2064.88 2724.23 2082.45C2707.95 2100.03 2696.23 2120.22 2689.07 2143C2681.91 2165.14 2678.33 2187.92 2678.33 2211.36C2678.33 2234.8 2681.58 2257.91 2688.1 2280.7C2695.26 2303.48 2707.3 2323.67 2724.23 2341.24C2741.16 2358.17 2761.99 2367.29 2786.73 2368.59H3108.99C3150.01 2372.49 3172.47 2394.95 3176.38 2435.97C3175.73 2454.2 3168.89 2469.5 3155.87 2481.87C3142.85 2493.59 3127.22 2499.45 3108.99 2499.45H2797.47H2752.55C2706.98 2496.84 2669.54 2479.59 2640.24 2447.69C2610.95 2415.14 2589.79 2378.35 2576.77 2337.34C2564.4 2296.32 2558.21 2254.33 2558.21 2211.36C2558.21 2179.46 2561.79 2147.88 2568.95 2116.63C2576.12 2085.38 2587.18 2055.76 2602.16 2027.77C2617.78 1999.12 2638.29 1974.71 2663.68 1954.53C2689.72 1934.34 2719.35 1923.93 2752.55 1923.28H2771.1H3108.99C3150.01 1927.18 3172.47 1949.64 3176.38 1990.66C3176.38 2008.89 3169.54 2024.19 3155.87 2036.56C3142.85 2048.28 3127.22 2054.13 3108.99 2054.13H2786.73Z" fill="url(#paint4_linear_2_158)"/>
<path d="M1423.45 2521.91C1389.59 2521.91 1356.06 2518 1322.86 2510.19C1290.31 2502.38 1259.06 2490.98 1229.11 2476.01C1199.16 2460.38 1172.8 2439.88 1150.01 2414.49C1127.22 2389.1 1114.85 2358.82 1112.9 2323.67V2282.65V1971.13C1112.9 1952.9 1119.41 1937.92 1132.43 1926.2C1146.1 1913.83 1162.05 1907.65 1180.28 1907.65C1219.35 1910.91 1240.5 1932.06 1243.76 1971.13V2293.39C1245.06 2313.57 1252.55 2330.5 1266.22 2344.17C1280.54 2357.19 1296.17 2367.61 1313.1 2375.42C1330.67 2383.24 1348.58 2389.1 1366.81 2393C1385.69 2396.91 1404.57 2398.86 1423.45 2398.86C1442.33 2398.86 1460.88 2396.91 1479.11 2393C1497.99 2389.1 1515.89 2383.24 1532.82 2375.42C1550.4 2367.61 1566.02 2357.19 1579.7 2344.17C1594.02 2330.5 1601.83 2313.57 1603.13 2293.39V1971.13C1603.13 1952.9 1609.64 1937.92 1622.67 1926.2C1636.34 1913.83 1652.29 1907.65 1670.52 1907.65C1709.58 1910.91 1731.06 1932.06 1734.97 1971.13V2282.65V2323.67C1733.02 2358.82 1720.32 2389.1 1696.88 2414.49C1674.1 2439.88 1647.73 2460.38 1617.78 2476.01C1587.83 2490.98 1556.26 2502.38 1523.06 2510.19C1490.5 2518 1457.3 2521.91 1423.45 2521.91ZM1930.28 1907.65C1948.51 1907.65 1964.14 1913.83 1977.16 1926.2C1990.18 1937.92 1997.01 1952.9 1997.67 1971.13V2206.48C1997.01 2233.17 1998.64 2257.91 2002.55 2280.7C2007.11 2302.83 2017.52 2322.69 2033.8 2340.27C2050.07 2357.85 2070.58 2367.29 2095.32 2368.59H2407.82C2426.05 2369.24 2441.02 2376.07 2452.74 2389.1C2465.11 2402.12 2471.3 2417.74 2471.3 2435.97C2470.65 2453.55 2464.14 2468.52 2451.77 2480.89C2440.05 2492.61 2425.4 2498.8 2407.82 2499.45H2062.12C2016.55 2496.84 1978.79 2481.54 1948.84 2453.55C1919.54 2424.9 1898.38 2390.07 1885.36 2349.06C1872.99 2308.04 1866.48 2264.42 1865.83 2218.2V1971.13C1866.48 1953.55 1872.99 1938.9 1885.36 1927.18C1897.73 1914.81 1912.7 1908.3 1930.28 1907.65ZM2786.73 2054.13C2761.99 2055.44 2741.16 2064.88 2724.23 2082.45C2707.95 2100.03 2696.23 2120.22 2689.07 2143C2681.91 2165.14 2678.33 2187.92 2678.33 2211.36C2678.33 2234.8 2681.58 2257.91 2688.1 2280.7C2695.26 2303.48 2707.3 2323.67 2724.23 2341.24C2741.16 2358.17 2761.99 2367.29 2786.73 2368.59H3108.99C3150.01 2372.49 3172.47 2394.95 3176.38 2435.97C3175.73 2454.2 3168.89 2469.5 3155.87 2481.87C3142.85 2493.59 3127.22 2499.45 3108.99 2499.45H2797.47H2752.55C2706.98 2496.84 2669.54 2479.59 2640.24 2447.69C2610.95 2415.14 2589.79 2378.35 2576.77 2337.34C2564.4 2296.32 2558.21 2254.33 2558.21 2211.36C2558.21 2179.46 2561.79 2147.88 2568.95 2116.63C2576.12 2085.38 2587.18 2055.76 2602.16 2027.77C2617.78 1999.12 2638.29 1974.71 2663.68 1954.53C2689.72 1934.34 2719.35 1923.93 2752.55 1923.28H2771.1H3108.99C3150.01 1927.18 3172.47 1949.64 3176.38 1990.66C3176.38 2008.89 3169.54 2024.19 3155.87 2036.56C3142.85 2048.28 3127.22 2054.13 3108.99 2054.13H2786.73Z" fill="url(#paint5_linear_2_158)"/>
<path d="M1423.45 2525.91C1389.59 2525.91 1356.06 2522 1322.86 2514.19C1290.31 2506.38 1259.06 2494.98 1229.11 2480.01C1199.16 2464.38 1172.8 2443.88 1150.01 2418.49C1127.22 2393.1 1114.85 2362.82 1112.9 2327.67V2286.65V1975.13C1112.9 1956.9 1119.41 1941.92 1132.43 1930.2C1146.1 1917.83 1162.05 1911.65 1180.28 1911.65C1219.35 1914.91 1240.5 1936.06 1243.76 1975.13V2297.39C1245.06 2317.57 1252.55 2334.5 1266.22 2348.17C1280.54 2361.19 1296.17 2371.61 1313.1 2379.42C1330.67 2387.24 1348.58 2393.1 1366.81 2397C1385.69 2400.91 1404.57 2402.86 1423.45 2402.86C1442.33 2402.86 1460.88 2400.91 1479.11 2397C1497.99 2393.1 1515.89 2387.24 1532.82 2379.42C1550.4 2371.61 1566.02 2361.19 1579.7 2348.17C1594.02 2334.5 1601.83 2317.57 1603.13 2297.39V1975.13C1603.13 1956.9 1609.64 1941.92 1622.67 1930.2C1636.34 1917.83 1652.29 1911.65 1670.52 1911.65C1709.58 1914.91 1731.06 1936.06 1734.97 1975.13V2286.65V2327.67C1733.02 2362.82 1720.32 2393.1 1696.88 2418.49C1674.1 2443.88 1647.73 2464.38 1617.78 2480.01C1587.83 2494.98 1556.26 2506.38 1523.06 2514.19C1490.5 2522 1457.3 2525.91 1423.45 2525.91ZM1930.28 1911.65C1948.51 1911.65 1964.14 1917.83 1977.16 1930.2C1990.18 1941.92 1997.01 1956.9 1997.67 1975.13V2210.48C1997.01 2237.17 1998.64 2261.91 2002.55 2284.7C2007.11 2306.83 2017.52 2326.69 2033.8 2344.27C2050.07 2361.85 2070.58 2371.29 2095.32 2372.59H2407.82C2426.05 2373.24 2441.02 2380.07 2452.74 2393.1C2465.11 2406.12 2471.3 2421.74 2471.3 2439.97C2470.65 2457.55 2464.14 2472.52 2451.77 2484.89C2440.05 2496.61 2425.4 2502.8 2407.82 2503.45H2062.12C2016.55 2500.84 1978.79 2485.54 1948.84 2457.55C1919.54 2428.9 1898.38 2394.07 1885.36 2353.06C1872.99 2312.04 1866.48 2268.42 1865.83 2222.2V1975.13C1866.48 1957.55 1872.99 1942.9 1885.36 1931.18C1897.73 1918.81 1912.7 1912.3 1930.28 1911.65ZM2786.73 2058.13C2761.99 2059.44 2741.16 2068.88 2724.23 2086.45C2707.95 2104.03 2696.23 2124.22 2689.07 2147C2681.91 2169.14 2678.33 2191.92 2678.33 2215.36C2678.33 2238.8 2681.58 2261.91 2688.1 2284.7C2695.26 2307.48 2707.3 2327.67 2724.23 2345.24C2741.16 2362.17 2761.99 2371.29 2786.73 2372.59H3108.99C3150.01 2376.49 3172.47 2398.95 3176.38 2439.97C3175.73 2458.2 3168.89 2473.5 3155.87 2485.87C3142.85 2497.59 3127.22 2503.45 3108.99 2503.45H2797.47H2752.55C2706.98 2500.84 2669.54 2483.59 2640.24 2451.69C2610.95 2419.14 2589.79 2382.35 2576.77 2341.34C2564.4 2300.32 2558.21 2258.33 2558.21 2215.36C2558.21 2183.46 2561.79 2151.88 2568.95 2120.63C2576.12 2089.38 2587.18 2059.76 2602.16 2031.77C2617.78 2003.12 2638.29 1978.71 2663.68 1958.53C2689.72 1938.34 2719.35 1927.93 2752.55 1927.28H2771.1H3108.99C3150.01 1931.18 3172.47 1953.64 3176.38 1994.66C3176.38 2012.89 3169.54 2028.19 3155.87 2040.56C3142.85 2052.28 3127.22 2058.13 3108.99 2058.13H2786.73Z" fill="url(#paint6_linear_2_158)"/>
<path d="M1427.45 2541.91C1393.59 2541.91 1360.06 2538 1326.86 2530.19C1294.31 2522.38 1263.06 2510.98 1233.11 2496.01C1203.16 2480.38 1176.8 2459.88 1154.01 2434.49C1131.22 2409.1 1118.85 2378.82 1116.9 2343.67V2302.65V1991.13C1116.9 1972.9 1123.41 1957.92 1136.43 1946.2C1150.1 1933.83 1166.05 1927.65 1184.28 1927.65C1223.35 1930.91 1244.5 1952.06 1247.76 1991.13V2313.39C1249.06 2333.57 1256.55 2350.5 1270.22 2364.17C1284.54 2377.19 1300.17 2387.61 1317.1 2395.42C1334.67 2403.24 1352.58 2409.1 1370.81 2413C1389.69 2416.91 1408.57 2418.86 1427.45 2418.86C1446.33 2418.86 1464.88 2416.91 1483.11 2413C1501.99 2409.1 1519.89 2403.24 1536.82 2395.42C1554.4 2387.61 1570.02 2377.19 1583.7 2364.17C1598.02 2350.5 1605.83 2333.57 1607.13 2313.39V1991.13C1607.13 1972.9 1613.64 1957.92 1626.67 1946.2C1640.34 1933.83 1656.29 1927.65 1674.52 1927.65C1713.58 1930.91 1735.06 1952.06 1738.97 1991.13V2302.65V2343.67C1737.02 2378.82 1724.32 2409.1 1700.88 2434.49C1678.1 2459.88 1651.73 2480.38 1621.78 2496.01C1591.83 2510.98 1560.26 2522.38 1527.06 2530.19C1494.5 2538 1461.3 2541.91 1427.45 2541.91ZM1934.28 1927.65C1952.51 1927.65 1968.14 1933.83 1981.16 1946.2C1994.18 1957.92 2001.01 1972.9 2001.67 1991.13V2226.48C2001.01 2253.17 2002.64 2277.91 2006.55 2300.7C2011.11 2322.83 2021.52 2342.69 2037.8 2360.27C2054.07 2377.85 2074.58 2387.29 2099.32 2388.59H2411.82C2430.05 2389.24 2445.02 2396.07 2456.74 2409.1C2469.11 2422.12 2475.3 2437.74 2475.3 2455.97C2474.65 2473.55 2468.14 2488.52 2455.77 2500.89C2444.05 2512.61 2429.4 2518.8 2411.82 2519.45H2066.12C2020.55 2516.84 1982.79 2501.54 1952.84 2473.55C1923.54 2444.9 1902.38 2410.07 1889.36 2369.06C1876.99 2328.04 1870.48 2284.42 1869.83 2238.2V1991.13C1870.48 1973.55 1876.99 1958.9 1889.36 1947.18C1901.73 1934.81 1916.7 1928.3 1934.28 1927.65ZM2790.73 2074.13C2765.99 2075.44 2745.16 2084.88 2728.23 2102.45C2711.95 2120.03 2700.23 2140.22 2693.07 2163C2685.91 2185.14 2682.33 2207.92 2682.33 2231.36C2682.33 2254.8 2685.58 2277.91 2692.1 2300.7C2699.26 2323.48 2711.3 2343.67 2728.23 2361.24C2745.16 2378.17 2765.99 2387.29 2790.73 2388.59H3112.99C3154.01 2392.49 3176.47 2414.95 3180.38 2455.97C3179.73 2474.2 3172.89 2489.5 3159.87 2501.87C3146.85 2513.59 3131.22 2519.45 3112.99 2519.45H2801.47H2756.55C2710.98 2516.84 2673.54 2499.59 2644.24 2467.69C2614.95 2435.14 2593.79 2398.35 2580.77 2357.34C2568.4 2316.32 2562.21 2274.33 2562.21 2231.36C2562.21 2199.46 2565.79 2167.88 2572.95 2136.63C2580.12 2105.38 2591.18 2075.76 2606.16 2047.77C2621.78 2019.12 2642.29 1994.71 2667.68 1974.53C2693.72 1954.34 2723.35 1943.93 2756.55 1943.28H2775.1H3112.99C3154.01 1947.18 3176.47 1969.64 3180.38 2010.66C3180.38 2028.89 3173.54 2044.19 3159.87 2056.56C3146.85 2068.28 3131.22 2074.13 3112.99 2074.13H2790.73Z" fill="url(#paint7_linear_2_158)"/>
<path d="M1423.45 2545.91C1389.59 2545.91 1356.06 2542 1322.86 2534.19C1290.31 2526.38 1259.06 2514.98 1229.11 2500.01C1199.16 2484.38 1172.8 2463.88 1150.01 2438.49C1127.22 2413.1 1114.85 2382.82 1112.9 2347.67V2306.65V1995.13C1112.9 1976.9 1119.41 1961.92 1132.43 1950.2C1146.1 1937.83 1162.05 1931.65 1180.28 1931.65C1219.35 1934.91 1240.5 1956.06 1243.76 1995.13V2317.39C1245.06 2337.57 1252.55 2354.5 1266.22 2368.17C1280.54 2381.19 1296.17 2391.61 1313.1 2399.42C1330.67 2407.24 1348.58 2413.1 1366.81 2417C1385.69 2420.91 1404.57 2422.86 1423.45 2422.86C1442.33 2422.86 1460.88 2420.91 1479.11 2417C1497.99 2413.1 1515.89 2407.24 1532.82 2399.42C1550.4 2391.61 1566.02 2381.19 1579.7 2368.17C1594.02 2354.5 1601.83 2337.57 1603.13 2317.39V1995.13C1603.13 1976.9 1609.64 1961.92 1622.67 1950.2C1636.34 1937.83 1652.29 1931.65 1670.52 1931.65C1709.58 1934.91 1731.06 1956.06 1734.97 1995.13V2306.65V2347.67C1733.02 2382.82 1720.32 2413.1 1696.88 2438.49C1674.1 2463.88 1647.73 2484.38 1617.78 2500.01C1587.83 2514.98 1556.26 2526.38 1523.06 2534.19C1490.5 2542 1457.3 2545.91 1423.45 2545.91ZM1930.28 1931.65C1948.51 1931.65 1964.14 1937.83 1977.16 1950.2C1990.18 1961.92 1997.01 1976.9 1997.67 1995.13V2230.48C1997.01 2257.17 1998.64 2281.91 2002.55 2304.7C2007.11 2326.83 2017.52 2346.69 2033.8 2364.27C2050.07 2381.85 2070.58 2391.29 2095.32 2392.59H2407.82C2426.05 2393.24 2441.02 2400.07 2452.74 2413.1C2465.11 2426.12 2471.3 2441.74 2471.3 2459.97C2470.65 2477.55 2464.14 2492.52 2451.77 2504.89C2440.05 2516.61 2425.4 2522.8 2407.82 2523.45H2062.12C2016.55 2520.84 1978.79 2505.54 1948.84 2477.55C1919.54 2448.9 1898.38 2414.07 1885.36 2373.06C1872.99 2332.04 1866.48 2288.42 1865.83 2242.2V1995.13C1866.48 1977.55 1872.99 1962.9 1885.36 1951.18C1897.73 1938.81 1912.7 1932.3 1930.28 1931.65ZM2786.73 2078.13C2761.99 2079.44 2741.16 2088.88 2724.23 2106.45C2707.95 2124.03 2696.23 2144.22 2689.07 2167C2681.91 2189.14 2678.33 2211.92 2678.33 2235.36C2678.33 2258.8 2681.58 2281.91 2688.1 2304.7C2695.26 2327.48 2707.3 2347.67 2724.23 2365.24C2741.16 2382.17 2761.99 2391.29 2786.73 2392.59H3108.99C3150.01 2396.49 3172.47 2418.95 3176.38 2459.97C3175.73 2478.2 3168.89 2493.5 3155.87 2505.87C3142.85 2517.59 3127.22 2523.45 3108.99 2523.45H2797.47H2752.55C2706.98 2520.84 2669.54 2503.59 2640.24 2471.69C2610.95 2439.14 2589.79 2402.35 2576.77 2361.34C2564.4 2320.32 2558.21 2278.33 2558.21 2235.36C2558.21 2203.46 2561.79 2171.88 2568.95 2140.63C2576.12 2109.38 2587.18 2079.76 2602.16 2051.77C2617.78 2023.12 2638.29 1998.71 2663.68 1978.53C2689.72 1958.34 2719.35 1947.93 2752.55 1947.28H2771.1H3108.99C3150.01 1951.18 3172.47 1973.64 3176.38 2014.66C3176.38 2032.89 3169.54 2048.19 3155.87 2060.56C3142.85 2072.28 3127.22 2078.13 3108.99 2078.13H2786.73Z" fill="url(#paint8_linear_2_158)"/>
<path d="M1423.45 2545.91C1389.59 2545.91 1356.06 2542 1322.86 2534.19C1290.31 2526.38 1259.06 2514.98 1229.11 2500.01C1199.16 2484.38 1172.8 2463.88 1150.01 2438.49C1127.22 2413.1 1114.85 2382.82 1112.9 2347.67V2306.65V1995.13C1112.9 1976.9 1119.41 1961.92 1132.43 1950.2C1146.1 1937.83 1162.05 1931.65 1180.28 1931.65C1219.35 1934.91 1240.5 1956.06 1243.76 1995.13V2317.39C1245.06 2337.57 1252.55 2354.5 1266.22 2368.17C1280.54 2381.19 1296.17 2391.61 1313.1 2399.42C1330.67 2407.24 1348.58 2413.1 1366.81 2417C1385.69 2420.91 1404.57 2422.86 1423.45 2422.86C1442.33 2422.86 1460.88 2420.91 1479.11 2417C1497.99 2413.1 1515.89 2407.24 1532.82 2399.42C1550.4 2391.61 1566.02 2381.19 1579.7 2368.17C1594.02 2354.5 1601.83 2337.57 1603.13 2317.39V1995.13C1603.13 1976.9 1609.64 1961.92 1622.67 1950.2C1636.34 1937.83 1652.29 1931.65 1670.52 1931.65C1709.58 1934.91 1731.06 1956.06 1734.97 1995.13V2306.65V2347.67C1733.02 2382.82 1720.32 2413.1 1696.88 2438.49C1674.1 2463.88 1647.73 2484.38 1617.78 2500.01C1587.83 2514.98 1556.26 2526.38 1523.06 2534.19C1490.5 2542 1457.3 2545.91 1423.45 2545.91ZM1930.28 1931.65C1948.51 1931.65 1964.14 1937.83 1977.16 1950.2C1990.18 1961.92 1997.01 1976.9 1997.67 1995.13V2230.48C1997.01 2257.17 1998.64 2281.91 2002.55 2304.7C2007.11 2326.83 2017.52 2346.69 2033.8 2364.27C2050.07 2381.85 2070.58 2391.29 2095.32 2392.59H2407.82C2426.05 2393.24 2441.02 2400.07 2452.74 2413.1C2465.11 2426.12 2471.3 2441.74 2471.3 2459.97C2470.65 2477.55 2464.14 2492.52 2451.77 2504.89C2440.05 2516.61 2425.4 2522.8 2407.82 2523.45H2062.12C2016.55 2520.84 1978.79 2505.54 1948.84 2477.55C1919.54 2448.9 1898.38 2414.07 1885.36 2373.06C1872.99 2332.04 1866.48 2288.42 1865.83 2242.2V1995.13C1866.48 1977.55 1872.99 1962.9 1885.36 1951.18C1897.73 1938.81 1912.7 1932.3 1930.28 1931.65ZM2786.73 2078.13C2761.99 2079.44 2741.16 2088.88 2724.23 2106.45C2707.95 2124.03 2696.23 2144.22 2689.07 2167C2681.91 2189.14 2678.33 2211.92 2678.33 2235.36C2678.33 2258.8 2681.58 2281.91 2688.1 2304.7C2695.26 2327.48 2707.3 2347.67 2724.23 2365.24C2741.16 2382.17 2761.99 2391.29 2786.73 2392.59H3108.99C3150.01 2396.49 3172.47 2418.95 3176.38 2459.97C3175.73 2478.2 3168.89 2493.5 3155.87 2505.87C3142.85 2517.59 3127.22 2523.45 3108.99 2523.45H2797.47H2752.55C2706.98 2520.84 2669.54 2503.59 2640.24 2471.69C2610.95 2439.14 2589.79 2402.35 2576.77 2361.34C2564.4 2320.32 2558.21 2278.33 2558.21 2235.36C2558.21 2203.46 2561.79 2171.88 2568.95 2140.63C2576.12 2109.38 2587.18 2079.76 2602.16 2051.77C2617.78 2023.12 2638.29 1998.71 2663.68 1978.53C2689.72 1958.34 2719.35 1947.93 2752.55 1947.28H2771.1H3108.99C3150.01 1951.18 3172.47 1973.64 3176.38 2014.66C3176.38 2032.89 3169.54 2048.19 3155.87 2060.56C3142.85 2072.28 3127.22 2078.13 3108.99 2078.13H2786.73Z" fill="url(#paint9_linear_2_158)"/>
<path d="M1423.45 2549.91C1389.59 2549.91 1356.06 2546 1322.86 2538.19C1290.31 2530.38 1259.06 2518.98 1229.11 2504.01C1199.16 2488.38 1172.8 2467.88 1150.01 2442.49C1127.22 2417.1 1114.85 2386.82 1112.9 2351.67V2310.65V1999.13C1112.9 1980.9 1119.41 1965.92 1132.43 1954.2C1146.1 1941.83 1162.05 1935.65 1180.28 1935.65C1219.35 1938.91 1240.5 1960.06 1243.76 1999.13V2321.39C1245.06 2341.57 1252.55 2358.5 1266.22 2372.17C1280.54 2385.19 1296.17 2395.61 1313.1 2403.42C1330.67 2411.24 1348.58 2417.1 1366.81 2421C1385.69 2424.91 1404.57 2426.86 1423.45 2426.86C1442.33 2426.86 1460.88 2424.91 1479.11 2421C1497.99 2417.1 1515.89 2411.24 1532.82 2403.42C1550.4 2395.61 1566.02 2385.19 1579.7 2372.17C1594.02 2358.5 1601.83 2341.57 1603.13 2321.39V1999.13C1603.13 1980.9 1609.64 1965.92 1622.67 1954.2C1636.34 1941.83 1652.29 1935.65 1670.52 1935.65C1709.58 1938.91 1731.06 1960.06 1734.97 1999.13V2310.65V2351.67C1733.02 2386.82 1720.32 2417.1 1696.88 2442.49C1674.1 2467.88 1647.73 2488.38 1617.78 2504.01C1587.83 2518.98 1556.26 2530.38 1523.06 2538.19C1490.5 2546 1457.3 2549.91 1423.45 2549.91ZM1930.28 1935.65C1948.51 1935.65 1964.14 1941.83 1977.16 1954.2C1990.18 1965.92 1997.01 1980.9 1997.67 1999.13V2234.48C1997.01 2261.17 1998.64 2285.91 2002.55 2308.7C2007.11 2330.83 2017.52 2350.69 2033.8 2368.27C2050.07 2385.85 2070.58 2395.29 2095.32 2396.59H2407.82C2426.05 2397.24 2441.02 2404.07 2452.74 2417.1C2465.11 2430.12 2471.3 2445.74 2471.3 2463.97C2470.65 2481.55 2464.14 2496.52 2451.77 2508.89C2440.05 2520.61 2425.4 2526.8 2407.82 2527.45H2062.12C2016.55 2524.84 1978.79 2509.54 1948.84 2481.55C1919.54 2452.9 1898.38 2418.07 1885.36 2377.06C1872.99 2336.04 1866.48 2292.42 1865.83 2246.2V1999.13C1866.48 1981.55 1872.99 1966.9 1885.36 1955.18C1897.73 1942.81 1912.7 1936.3 1930.28 1935.65ZM2786.73 2082.13C2761.99 2083.44 2741.16 2092.88 2724.23 2110.45C2707.95 2128.03 2696.23 2148.22 2689.07 2171C2681.91 2193.14 2678.33 2215.92 2678.33 2239.36C2678.33 2262.8 2681.58 2285.91 2688.1 2308.7C2695.26 2331.48 2707.3 2351.67 2724.23 2369.24C2741.16 2386.17 2761.99 2395.29 2786.73 2396.59H3108.99C3150.01 2400.49 3172.47 2422.95 3176.38 2463.97C3175.73 2482.2 3168.89 2497.5 3155.87 2509.87C3142.85 2521.59 3127.22 2527.45 3108.99 2527.45H2797.47H2752.55C2706.98 2524.84 2669.54 2507.59 2640.24 2475.69C2610.95 2443.14 2589.79 2406.35 2576.77 2365.34C2564.4 2324.32 2558.21 2282.33 2558.21 2239.36C2558.21 2207.46 2561.79 2175.88 2568.95 2144.63C2576.12 2113.38 2587.18 2083.76 2602.16 2055.77C2617.78 2027.12 2638.29 2002.71 2663.68 1982.53C2689.72 1962.34 2719.35 1951.93 2752.55 1951.28H2771.1H3108.99C3150.01 1955.18 3172.47 1977.64 3176.38 2018.66C3176.38 2036.89 3169.54 2052.19 3155.87 2064.56C3142.85 2076.28 3127.22 2082.13 3108.99 2082.13H2786.73Z" fill="url(#paint10_linear_2_158)"/>
<path d="M1427.45 2537.91C1393.59 2537.91 1360.06 2534 1326.86 2526.19C1294.31 2518.38 1263.06 2506.98 1233.11 2492.01C1203.16 2476.38 1176.8 2455.88 1154.01 2430.49C1131.22 2405.1 1118.85 2374.82 1116.9 2339.67V2298.65V1987.13C1116.9 1968.9 1123.41 1953.92 1136.43 1942.2C1150.1 1929.83 1166.05 1923.65 1184.28 1923.65C1223.35 1926.91 1244.5 1948.06 1247.76 1987.13V2309.39C1249.06 2329.57 1256.55 2346.5 1270.22 2360.17C1284.54 2373.19 1300.17 2383.61 1317.1 2391.42C1334.67 2399.24 1352.58 2405.1 1370.81 2409C1389.69 2412.91 1408.57 2414.86 1427.45 2414.86C1446.33 2414.86 1464.88 2412.91 1483.11 2409C1501.99 2405.1 1519.89 2399.24 1536.82 2391.42C1554.4 2383.61 1570.02 2373.19 1583.7 2360.17C1598.02 2346.5 1605.83 2329.57 1607.13 2309.39V1987.13C1607.13 1968.9 1613.64 1953.92 1626.67 1942.2C1640.34 1929.83 1656.29 1923.65 1674.52 1923.65C1713.58 1926.91 1735.06 1948.06 1738.97 1987.13V2298.65V2339.67C1737.02 2374.82 1724.32 2405.1 1700.88 2430.49C1678.1 2455.88 1651.73 2476.38 1621.78 2492.01C1591.83 2506.98 1560.26 2518.38 1527.06 2526.19C1494.5 2534 1461.3 2537.91 1427.45 2537.91ZM1934.28 1923.65C1952.51 1923.65 1968.14 1929.83 1981.16 1942.2C1994.18 1953.92 2001.01 1968.9 2001.67 1987.13V2222.48C2001.01 2249.17 2002.64 2273.91 2006.55 2296.7C2011.11 2318.83 2021.52 2338.69 2037.8 2356.27C2054.07 2373.85 2074.58 2383.29 2099.32 2384.59H2411.82C2430.05 2385.24 2445.02 2392.07 2456.74 2405.1C2469.11 2418.12 2475.3 2433.74 2475.3 2451.97C2474.65 2469.55 2468.14 2484.52 2455.77 2496.89C2444.05 2508.61 2429.4 2514.8 2411.82 2515.45H2066.12C2020.55 2512.84 1982.79 2497.54 1952.84 2469.55C1923.54 2440.9 1902.38 2406.07 1889.36 2365.06C1876.99 2324.04 1870.48 2280.42 1869.83 2234.2V1987.13C1870.48 1969.55 1876.99 1954.9 1889.36 1943.18C1901.73 1930.81 1916.7 1924.3 1934.28 1923.65ZM2790.73 2070.13C2765.99 2071.44 2745.16 2080.88 2728.23 2098.45C2711.95 2116.03 2700.23 2136.22 2693.07 2159C2685.91 2181.14 2682.33 2203.92 2682.33 2227.36C2682.33 2250.8 2685.58 2273.91 2692.1 2296.7C2699.26 2319.48 2711.3 2339.67 2728.23 2357.24C2745.16 2374.17 2765.99 2383.29 2790.73 2384.59H3112.99C3154.01 2388.49 3176.47 2410.95 3180.38 2451.97C3179.73 2470.2 3172.89 2485.5 3159.87 2497.87C3146.85 2509.59 3131.22 2515.45 3112.99 2515.45H2801.47H2756.55C2710.98 2512.84 2673.54 2495.59 2644.24 2463.69C2614.95 2431.14 2593.79 2394.35 2580.77 2353.34C2568.4 2312.32 2562.21 2270.33 2562.21 2227.36C2562.21 2195.46 2565.79 2163.88 2572.95 2132.63C2580.12 2101.38 2591.18 2071.76 2606.16 2043.77C2621.78 2015.12 2642.29 1990.71 2667.68 1970.53C2693.72 1950.34 2723.35 1939.93 2756.55 1939.28H2775.1H3112.99C3154.01 1943.18 3176.47 1965.64 3180.38 2006.66C3180.38 2024.89 3173.54 2040.19 3159.87 2052.56C3146.85 2064.28 3131.22 2070.13 3112.99 2070.13H2790.73Z" fill="url(#paint11_linear_2_158)"/>
<path d="M1423.45 2541.91C1389.59 2541.91 1356.06 2538 1322.86 2530.19C1290.31 2522.38 1259.06 2510.98 1229.11 2496.01C1199.16 2480.38 1172.8 2459.88 1150.01 2434.49C1127.22 2409.1 1114.85 2378.82 1112.9 2343.67V2302.65V1991.13C1112.9 1972.9 1119.41 1957.92 1132.43 1946.2C1146.1 1933.83 1162.05 1927.65 1180.28 1927.65C1219.35 1930.91 1240.5 1952.06 1243.76 1991.13V2313.39C1245.06 2333.57 1252.55 2350.5 1266.22 2364.17C1280.54 2377.19 1296.17 2387.61 1313.1 2395.42C1330.67 2403.24 1348.58 2409.1 1366.81 2413C1385.69 2416.91 1404.57 2418.86 1423.45 2418.86C1442.33 2418.86 1460.88 2416.91 1479.11 2413C1497.99 2409.1 1515.89 2403.24 1532.82 2395.42C1550.4 2387.61 1566.02 2377.19 1579.7 2364.17C1594.02 2350.5 1601.83 2333.57 1603.13 2313.39V1991.13C1603.13 1972.9 1609.64 1957.92 1622.67 1946.2C1636.34 1933.83 1652.29 1927.65 1670.52 1927.65C1709.58 1930.91 1731.06 1952.06 1734.97 1991.13V2302.65V2343.67C1733.02 2378.82 1720.32 2409.1 1696.88 2434.49C1674.1 2459.88 1647.73 2480.38 1617.78 2496.01C1587.83 2510.98 1556.26 2522.38 1523.06 2530.19C1490.5 2538 1457.3 2541.91 1423.45 2541.91ZM1930.28 1927.65C1948.51 1927.65 1964.14 1933.83 1977.16 1946.2C1990.18 1957.92 1997.01 1972.9 1997.67 1991.13V2226.48C1997.01 2253.17 1998.64 2277.91 2002.55 2300.7C2007.11 2322.83 2017.52 2342.69 2033.8 2360.27C2050.07 2377.85 2070.58 2387.29 2095.32 2388.59H2407.82C2426.05 2389.24 2441.02 2396.07 2452.74 2409.1C2465.11 2422.12 2471.3 2437.74 2471.3 2455.97C2470.65 2473.55 2464.14 2488.52 2451.77 2500.89C2440.05 2512.61 2425.4 2518.8 2407.82 2519.45H2062.12C2016.55 2516.84 1978.79 2501.54 1948.84 2473.55C1919.54 2444.9 1898.38 2410.07 1885.36 2369.06C1872.99 2328.04 1866.48 2284.42 1865.83 2238.2V1991.13C1866.48 1973.55 1872.99 1958.9 1885.36 1947.18C1897.73 1934.81 1912.7 1928.3 1930.28 1927.65ZM2786.73 2074.13C2761.99 2075.44 2741.16 2084.88 2724.23 2102.45C2707.95 2120.03 2696.23 2140.22 2689.07 2163C2681.91 2185.14 2678.33 2207.92 2678.33 2231.36C2678.33 2254.8 2681.58 2277.91 2688.1 2300.7C2695.26 2323.48 2707.3 2343.67 2724.23 2361.24C2741.16 2378.17 2761.99 2387.29 2786.73 2388.59H3108.99C3150.01 2392.49 3172.47 2414.95 3176.38 2455.97C3175.73 2474.2 3168.89 2489.5 3155.87 2501.87C3142.85 2513.59 3127.22 2519.45 3108.99 2519.45H2797.47H2752.55C2706.98 2516.84 2669.54 2499.59 2640.24 2467.69C2610.95 2435.14 2589.79 2398.35 2576.77 2357.34C2564.4 2316.32 2558.21 2274.33 2558.21 2231.36C2558.21 2199.46 2561.79 2167.88 2568.95 2136.63C2576.12 2105.38 2587.18 2075.76 2602.16 2047.77C2617.78 2019.12 2638.29 1994.71 2663.68 1974.53C2689.72 1954.34 2719.35 1943.93 2752.55 1943.28H2771.1H3108.99C3150.01 1947.18 3172.47 1969.64 3176.38 2010.66C3176.38 2028.89 3169.54 2044.19 3155.87 2056.56C3142.85 2068.28 3127.22 2074.13 3108.99 2074.13H2786.73Z" fill="url(#paint12_linear_2_158)"/>
<path d="M1423.45 2541.91C1389.59 2541.91 1356.06 2538 1322.86 2530.19C1290.31 2522.38 1259.06 2510.98 1229.11 2496.01C1199.16 2480.38 1172.8 2459.88 1150.01 2434.49C1127.22 2409.1 1114.85 2378.82 1112.9 2343.67V2302.65V1991.13C1112.9 1972.9 1119.41 1957.92 1132.43 1946.2C1146.1 1933.83 1162.05 1927.65 1180.28 1927.65C1219.35 1930.91 1240.5 1952.06 1243.76 1991.13V2313.39C1245.06 2333.57 1252.55 2350.5 1266.22 2364.17C1280.54 2377.19 1296.17 2387.61 1313.1 2395.42C1330.67 2403.24 1348.58 2409.1 1366.81 2413C1385.69 2416.91 1404.57 2418.86 1423.45 2418.86C1442.33 2418.86 1460.88 2416.91 1479.11 2413C1497.99 2409.1 1515.89 2403.24 1532.82 2395.42C1550.4 2387.61 1566.02 2377.19 1579.7 2364.17C1594.02 2350.5 1601.83 2333.57 1603.13 2313.39V1991.13C1603.13 1972.9 1609.64 1957.92 1622.67 1946.2C1636.34 1933.83 1652.29 1927.65 1670.52 1927.65C1709.58 1930.91 1731.06 1952.06 1734.97 1991.13V2302.65V2343.67C1733.02 2378.82 1720.32 2409.1 1696.88 2434.49C1674.1 2459.88 1647.73 2480.38 1617.78 2496.01C1587.83 2510.98 1556.26 2522.38 1523.06 2530.19C1490.5 2538 1457.3 2541.91 1423.45 2541.91ZM1930.28 1927.65C1948.51 1927.65 1964.14 1933.83 1977.16 1946.2C1990.18 1957.92 1997.01 1972.9 1997.67 1991.13V2226.48C1997.01 2253.17 1998.64 2277.91 2002.55 2300.7C2007.11 2322.83 2017.52 2342.69 2033.8 2360.27C2050.07 2377.85 2070.58 2387.29 2095.32 2388.59H2407.82C2426.05 2389.24 2441.02 2396.07 2452.74 2409.1C2465.11 2422.12 2471.3 2437.74 2471.3 2455.97C2470.65 2473.55 2464.14 2488.52 2451.77 2500.89C2440.05 2512.61 2425.4 2518.8 2407.82 2519.45H2062.12C2016.55 2516.84 1978.79 2501.54 1948.84 2473.55C1919.54 2444.9 1898.38 2410.07 1885.36 2369.06C1872.99 2328.04 1866.48 2284.42 1865.83 2238.2V1991.13C1866.48 1973.55 1872.99 1958.9 1885.36 1947.18C1897.73 1934.81 1912.7 1928.3 1930.28 1927.65ZM2786.73 2074.13C2761.99 2075.44 2741.16 2084.88 2724.23 2102.45C2707.95 2120.03 2696.23 2140.22 2689.07 2163C2681.91 2185.14 2678.33 2207.92 2678.33 2231.36C2678.33 2254.8 2681.58 2277.91 2688.1 2300.7C2695.26 2323.48 2707.3 2343.67 2724.23 2361.24C2741.16 2378.17 2761.99 2387.29 2786.73 2388.59H3108.99C3150.01 2392.49 3172.47 2414.95 3176.38 2455.97C3175.73 2474.2 3168.89 2489.5 3155.87 2501.87C3142.85 2513.59 3127.22 2519.45 3108.99 2519.45H2797.47H2752.55C2706.98 2516.84 2669.54 2499.59 2640.24 2467.69C2610.95 2435.14 2589.79 2398.35 2576.77 2357.34C2564.4 2316.32 2558.21 2274.33 2558.21 2231.36C2558.21 2199.46 2561.79 2167.88 2568.95 2136.63C2576.12 2105.38 2587.18 2075.76 2602.16 2047.77C2617.78 2019.12 2638.29 1994.71 2663.68 1974.53C2689.72 1954.34 2719.35 1943.93 2752.55 1943.28H2771.1H3108.99C3150.01 1947.18 3172.47 1969.64 3176.38 2010.66C3176.38 2028.89 3169.54 2044.19 3155.87 2056.56C3142.85 2068.28 3127.22 2074.13 3108.99 2074.13H2786.73Z" fill="url(#paint13_linear_2_158)"/>
<path d="M1423.45 2545.91C1389.59 2545.91 1356.06 2542 1322.86 2534.19C1290.31 2526.38 1259.06 2514.98 1229.11 2500.01C1199.16 2484.38 1172.8 2463.88 1150.01 2438.49C1127.22 2413.1 1114.85 2382.82 1112.9 2347.67V2306.65V1995.13C1112.9 1976.9 1119.41 1961.92 1132.43 1950.2C1146.1 1937.83 1162.05 1931.65 1180.28 1931.65C1219.35 1934.91 1240.5 1956.06 1243.76 1995.13V2317.39C1245.06 2337.57 1252.55 2354.5 1266.22 2368.17C1280.54 2381.19 1296.17 2391.61 1313.1 2399.42C1330.67 2407.24 1348.58 2413.1 1366.81 2417C1385.69 2420.91 1404.57 2422.86 1423.45 2422.86C1442.33 2422.86 1460.88 2420.91 1479.11 2417C1497.99 2413.1 1515.89 2407.24 1532.82 2399.42C1550.4 2391.61 1566.02 2381.19 1579.7 2368.17C1594.02 2354.5 1601.83 2337.57 1603.13 2317.39V1995.13C1603.13 1976.9 1609.64 1961.92 1622.67 1950.2C1636.34 1937.83 1652.29 1931.65 1670.52 1931.65C1709.58 1934.91 1731.06 1956.06 1734.97 1995.13V2306.65V2347.67C1733.02 2382.82 1720.32 2413.1 1696.88 2438.49C1674.1 2463.88 1647.73 2484.38 1617.78 2500.01C1587.83 2514.98 1556.26 2526.38 1523.06 2534.19C1490.5 2542 1457.3 2545.91 1423.45 2545.91ZM1930.28 1931.65C1948.51 1931.65 1964.14 1937.83 1977.16 1950.2C1990.18 1961.92 1997.01 1976.9 1997.67 1995.13V2230.48C1997.01 2257.17 1998.64 2281.91 2002.55 2304.7C2007.11 2326.83 2017.52 2346.69 2033.8 2364.27C2050.07 2381.85 2070.58 2391.29 2095.32 2392.59H2407.82C2426.05 2393.24 2441.02 2400.07 2452.74 2413.1C2465.11 2426.12 2471.3 2441.74 2471.3 2459.97C2470.65 2477.55 2464.14 2492.52 2451.77 2504.89C2440.05 2516.61 2425.4 2522.8 2407.82 2523.45H2062.12C2016.55 2520.84 1978.79 2505.54 1948.84 2477.55C1919.54 2448.9 1898.38 2414.07 1885.36 2373.06C1872.99 2332.04 1866.48 2288.42 1865.83 2242.2V1995.13C1866.48 1977.55 1872.99 1962.9 1885.36 1951.18C1897.73 1938.81 1912.7 1932.3 1930.28 1931.65ZM2786.73 2078.13C2761.99 2079.44 2741.16 2088.88 2724.23 2106.45C2707.95 2124.03 2696.23 2144.22 2689.07 2167C2681.91 2189.14 2678.33 2211.92 2678.33 2235.36C2678.33 2258.8 2681.58 2281.91 2688.1 2304.7C2695.26 2327.48 2707.3 2347.67 2724.23 2365.24C2741.16 2382.17 2761.99 2391.29 2786.73 2392.59H3108.99C3150.01 2396.49 3172.47 2418.95 3176.38 2459.97C3175.73 2478.2 3168.89 2493.5 3155.87 2505.87C3142.85 2517.59 3127.22 2523.45 3108.99 2523.45H2797.47H2752.55C2706.98 2520.84 2669.54 2503.59 2640.24 2471.69C2610.95 2439.14 2589.79 2402.35 2576.77 2361.34C2564.4 2320.32 2558.21 2278.33 2558.21 2235.36C2558.21 2203.46 2561.79 2171.88 2568.95 2140.63C2576.12 2109.38 2587.18 2079.76 2602.16 2051.77C2617.78 2023.12 2638.29 1998.71 2663.68 1978.53C2689.72 1958.34 2719.35 1947.93 2752.55 1947.28H2771.1H3108.99C3150.01 1951.18 3172.47 1973.64 3176.38 2014.66C3176.38 2032.89 3169.54 2048.19 3155.87 2060.56C3142.85 2072.28 3127.22 2078.13 3108.99 2078.13H2786.73Z" fill="url(#paint14_linear_2_158)"/>
<path d="M1427.45 2533.91C1393.59 2533.91 1360.06 2530 1326.86 2522.19C1294.31 2514.38 1263.06 2502.98 1233.11 2488.01C1203.16 2472.38 1176.8 2451.88 1154.01 2426.49C1131.22 2401.1 1118.85 2370.82 1116.9 2335.67V2294.65V1983.13C1116.9 1964.9 1123.41 1949.92 1136.43 1938.2C1150.1 1925.83 1166.05 1919.65 1184.28 1919.65C1223.35 1922.91 1244.5 1944.06 1247.76 1983.13V2305.39C1249.06 2325.57 1256.55 2342.5 1270.22 2356.17C1284.54 2369.19 1300.17 2379.61 1317.1 2387.42C1334.67 2395.24 1352.58 2401.1 1370.81 2405C1389.69 2408.91 1408.57 2410.86 1427.45 2410.86C1446.33 2410.86 1464.88 2408.91 1483.11 2405C1501.99 2401.1 1519.89 2395.24 1536.82 2387.42C1554.4 2379.61 1570.02 2369.19 1583.7 2356.17C1598.02 2342.5 1605.83 2325.57 1607.13 2305.39V1983.13C1607.13 1964.9 1613.64 1949.92 1626.67 1938.2C1640.34 1925.83 1656.29 1919.65 1674.52 1919.65C1713.58 1922.91 1735.06 1944.06 1738.97 1983.13V2294.65V2335.67C1737.02 2370.82 1724.32 2401.1 1700.88 2426.49C1678.1 2451.88 1651.73 2472.38 1621.78 2488.01C1591.83 2502.98 1560.26 2514.38 1527.06 2522.19C1494.5 2530 1461.3 2533.91 1427.45 2533.91ZM1934.28 1919.65C1952.51 1919.65 1968.14 1925.83 1981.16 1938.2C1994.18 1949.92 2001.01 1964.9 2001.67 1983.13V2218.48C2001.01 2245.17 2002.64 2269.91 2006.55 2292.7C2011.11 2314.83 2021.52 2334.69 2037.8 2352.27C2054.07 2369.85 2074.58 2379.29 2099.32 2380.59H2411.82C2430.05 2381.24 2445.02 2388.07 2456.74 2401.1C2469.11 2414.12 2475.3 2429.74 2475.3 2447.97C2474.65 2465.55 2468.14 2480.52 2455.77 2492.89C2444.05 2504.61 2429.4 2510.8 2411.82 2511.45H2066.12C2020.55 2508.84 1982.79 2493.54 1952.84 2465.55C1923.54 2436.9 1902.38 2402.07 1889.36 2361.06C1876.99 2320.04 1870.48 2276.42 1869.83 2230.2V1983.13C1870.48 1965.55 1876.99 1950.9 1889.36 1939.18C1901.73 1926.81 1916.7 1920.3 1934.28 1919.65ZM2790.73 2066.13C2765.99 2067.44 2745.16 2076.88 2728.23 2094.45C2711.95 2112.03 2700.23 2132.22 2693.07 2155C2685.91 2177.14 2682.33 2199.92 2682.33 2223.36C2682.33 2246.8 2685.58 2269.91 2692.1 2292.7C2699.26 2315.48 2711.3 2335.67 2728.23 2353.24C2745.16 2370.17 2765.99 2379.29 2790.73 2380.59H3112.99C3154.01 2384.49 3176.47 2406.95 3180.38 2447.97C3179.73 2466.2 3172.89 2481.5 3159.87 2493.87C3146.85 2505.59 3131.22 2511.45 3112.99 2511.45H2801.47H2756.55C2710.98 2508.84 2673.54 2491.59 2644.24 2459.69C2614.95 2427.14 2593.79 2390.35 2580.77 2349.34C2568.4 2308.32 2562.21 2266.33 2562.21 2223.36C2562.21 2191.46 2565.79 2159.88 2572.95 2128.63C2580.12 2097.38 2591.18 2067.76 2606.16 2039.77C2621.78 2011.12 2642.29 1986.71 2667.68 1966.53C2693.72 1946.34 2723.35 1935.93 2756.55 1935.28H2775.1H3112.99C3154.01 1939.18 3176.47 1961.64 3180.38 2002.66C3180.38 2020.89 3173.54 2036.19 3159.87 2048.56C3146.85 2060.28 3131.22 2066.13 3112.99 2066.13H2790.73Z" fill="url(#paint15_linear_2_158)"/>
<path d="M1423.45 2537.91C1389.59 2537.91 1356.06 2534 1322.86 2526.19C1290.31 2518.38 1259.06 2506.98 1229.11 2492.01C1199.16 2476.38 1172.8 2455.88 1150.01 2430.49C1127.22 2405.1 1114.85 2374.82 1112.9 2339.67V2298.65V1987.13C1112.9 1968.9 1119.41 1953.92 1132.43 1942.2C1146.1 1929.83 1162.05 1923.65 1180.28 1923.65C1219.35 1926.91 1240.5 1948.06 1243.76 1987.13V2309.39C1245.06 2329.57 1252.55 2346.5 1266.22 2360.17C1280.54 2373.19 1296.17 2383.61 1313.1 2391.42C1330.67 2399.24 1348.58 2405.1 1366.81 2409C1385.69 2412.91 1404.57 2414.86 1423.45 2414.86C1442.33 2414.86 1460.88 2412.91 1479.11 2409C1497.99 2405.1 1515.89 2399.24 1532.82 2391.42C1550.4 2383.61 1566.02 2373.19 1579.7 2360.17C1594.02 2346.5 1601.83 2329.57 1603.13 2309.39V1987.13C1603.13 1968.9 1609.64 1953.92 1622.67 1942.2C1636.34 1929.83 1652.29 1923.65 1670.52 1923.65C1709.58 1926.91 1731.06 1948.06 1734.97 1987.13V2298.65V2339.67C1733.02 2374.82 1720.32 2405.1 1696.88 2430.49C1674.1 2455.88 1647.73 2476.38 1617.78 2492.01C1587.83 2506.98 1556.26 2518.38 1523.06 2526.19C1490.5 2534 1457.3 2537.91 1423.45 2537.91ZM1930.28 1923.65C1948.51 1923.65 1964.14 1929.83 1977.16 1942.2C1990.18 1953.92 1997.01 1968.9 1997.67 1987.13V2222.48C1997.01 2249.17 1998.64 2273.91 2002.55 2296.7C2007.11 2318.83 2017.52 2338.69 2033.8 2356.27C2050.07 2373.85 2070.58 2383.29 2095.32 2384.59H2407.82C2426.05 2385.24 2441.02 2392.07 2452.74 2405.1C2465.11 2418.12 2471.3 2433.74 2471.3 2451.97C2470.65 2469.55 2464.14 2484.52 2451.77 2496.89C2440.05 2508.61 2425.4 2514.8 2407.82 2515.45H2062.12C2016.55 2512.84 1978.79 2497.54 1948.84 2469.55C1919.54 2440.9 1898.38 2406.07 1885.36 2365.06C1872.99 2324.04 1866.48 2280.42 1865.83 2234.2V1987.13C1866.48 1969.55 1872.99 1954.9 1885.36 1943.18C1897.73 1930.81 1912.7 1924.3 1930.28 1923.65ZM2786.73 2070.13C2761.99 2071.44 2741.16 2080.88 2724.23 2098.45C2707.95 2116.03 2696.23 2136.22 2689.07 2159C2681.91 2181.14 2678.33 2203.92 2678.33 2227.36C2678.33 2250.8 2681.58 2273.91 2688.1 2296.7C2695.26 2319.48 2707.3 2339.67 2724.23 2357.24C2741.16 2374.17 2761.99 2383.29 2786.73 2384.59H3108.99C3150.01 2388.49 3172.47 2410.95 3176.38 2451.97C3175.73 2470.2 3168.89 2485.5 3155.87 2497.87C3142.85 2509.59 3127.22 2515.45 3108.99 2515.45H2797.47H2752.55C2706.98 2512.84 2669.54 2495.59 2640.24 2463.69C2610.95 2431.14 2589.79 2394.35 2576.77 2353.34C2564.4 2312.32 2558.21 2270.33 2558.21 2227.36C2558.21 2195.46 2561.79 2163.88 2568.95 2132.63C2576.12 2101.38 2587.18 2071.76 2602.16 2043.77C2617.78 2015.12 2638.29 1990.71 2663.68 1970.53C2689.72 1950.34 2719.35 1939.93 2752.55 1939.28H2771.1H3108.99C3150.01 1943.18 3172.47 1965.64 3176.38 2006.66C3176.38 2024.89 3169.54 2040.19 3155.87 2052.56C3142.85 2064.28 3127.22 2070.13 3108.99 2070.13H2786.73Z" fill="url(#paint16_linear_2_158)"/>
<path d="M1423.45 2537.91C1389.59 2537.91 1356.06 2534 1322.86 2526.19C1290.31 2518.38 1259.06 2506.98 1229.11 2492.01C1199.16 2476.38 1172.8 2455.88 1150.01 2430.49C1127.22 2405.1 1114.85 2374.82 1112.9 2339.67V2298.65V1987.13C1112.9 1968.9 1119.41 1953.92 1132.43 1942.2C1146.1 1929.83 1162.05 1923.65 1180.28 1923.65C1219.35 1926.91 1240.5 1948.06 1243.76 1987.13V2309.39C1245.06 2329.57 1252.55 2346.5 1266.22 2360.17C1280.54 2373.19 1296.17 2383.61 1313.1 2391.42C1330.67 2399.24 1348.58 2405.1 1366.81 2409C1385.69 2412.91 1404.57 2414.86 1423.45 2414.86C1442.33 2414.86 1460.88 2412.91 1479.11 2409C1497.99 2405.1 1515.89 2399.24 1532.82 2391.42C1550.4 2383.61 1566.02 2373.19 1579.7 2360.17C1594.02 2346.5 1601.83 2329.57 1603.13 2309.39V1987.13C1603.13 1968.9 1609.64 1953.92 1622.67 1942.2C1636.34 1929.83 1652.29 1923.65 1670.52 1923.65C1709.58 1926.91 1731.06 1948.06 1734.97 1987.13V2298.65V2339.67C1733.02 2374.82 1720.32 2405.1 1696.88 2430.49C1674.1 2455.88 1647.73 2476.38 1617.78 2492.01C1587.83 2506.98 1556.26 2518.38 1523.06 2526.19C1490.5 2534 1457.3 2537.91 1423.45 2537.91ZM1930.28 1923.65C1948.51 1923.65 1964.14 1929.83 1977.16 1942.2C1990.18 1953.92 1997.01 1968.9 1997.67 1987.13V2222.48C1997.01 2249.17 1998.64 2273.91 2002.55 2296.7C2007.11 2318.83 2017.52 2338.69 2033.8 2356.27C2050.07 2373.85 2070.58 2383.29 2095.32 2384.59H2407.82C2426.05 2385.24 2441.02 2392.07 2452.74 2405.1C2465.11 2418.12 2471.3 2433.74 2471.3 2451.97C2470.65 2469.55 2464.14 2484.52 2451.77 2496.89C2440.05 2508.61 2425.4 2514.8 2407.82 2515.45H2062.12C2016.55 2512.84 1978.79 2497.54 1948.84 2469.55C1919.54 2440.9 1898.38 2406.07 1885.36 2365.06C1872.99 2324.04 1866.48 2280.42 1865.83 2234.2V1987.13C1866.48 1969.55 1872.99 1954.9 1885.36 1943.18C1897.73 1930.81 1912.7 1924.3 1930.28 1923.65ZM2786.73 2070.13C2761.99 2071.44 2741.16 2080.88 2724.23 2098.45C2707.95 2116.03 2696.23 2136.22 2689.07 2159C2681.91 2181.14 2678.33 2203.92 2678.33 2227.36C2678.33 2250.8 2681.58 2273.91 2688.1 2296.7C2695.26 2319.48 2707.3 2339.67 2724.23 2357.24C2741.16 2374.17 2761.99 2383.29 2786.73 2384.59H3108.99C3150.01 2388.49 3172.47 2410.95 3176.38 2451.97C3175.73 2470.2 3168.89 2485.5 3155.87 2497.87C3142.85 2509.59 3127.22 2515.45 3108.99 2515.45H2797.47H2752.55C2706.98 2512.84 2669.54 2495.59 2640.24 2463.69C2610.95 2431.14 2589.79 2394.35 2576.77 2353.34C2564.4 2312.32 2558.21 2270.33 2558.21 2227.36C2558.21 2195.46 2561.79 2163.88 2568.95 2132.63C2576.12 2101.38 2587.18 2071.76 2602.16 2043.77C2617.78 2015.12 2638.29 1990.71 2663.68 1970.53C2689.72 1950.34 2719.35 1939.93 2752.55 1939.28H2771.1H3108.99C3150.01 1943.18 3172.47 1965.64 3176.38 2006.66C3176.38 2024.89 3169.54 2040.19 3155.87 2052.56C3142.85 2064.28 3127.22 2070.13 3108.99 2070.13H2786.73Z" fill="url(#paint17_linear_2_158)"/>
<path d="M1423.45 2541.91C1389.59 2541.91 1356.06 2538 1322.86 2530.19C1290.31 2522.38 1259.06 2510.98 1229.11 2496.01C1199.16 2480.38 1172.8 2459.88 1150.01 2434.49C1127.22 2409.1 1114.85 2378.82 1112.9 2343.67V2302.65V1991.13C1112.9 1972.9 1119.41 1957.92 1132.43 1946.2C1146.1 1933.83 1162.05 1927.65 1180.28 1927.65C1219.35 1930.91 1240.5 1952.06 1243.76 1991.13V2313.39C1245.06 2333.57 1252.55 2350.5 1266.22 2364.17C1280.54 2377.19 1296.17 2387.61 1313.1 2395.42C1330.67 2403.24 1348.58 2409.1 1366.81 2413C1385.69 2416.91 1404.57 2418.86 1423.45 2418.86C1442.33 2418.86 1460.88 2416.91 1479.11 2413C1497.99 2409.1 1515.89 2403.24 1532.82 2395.42C1550.4 2387.61 1566.02 2377.19 1579.7 2364.17C1594.02 2350.5 1601.83 2333.57 1603.13 2313.39V1991.13C1603.13 1972.9 1609.64 1957.92 1622.67 1946.2C1636.34 1933.83 1652.29 1927.65 1670.52 1927.65C1709.58 1930.91 1731.06 1952.06 1734.97 1991.13V2302.65V2343.67C1733.02 2378.82 1720.32 2409.1 1696.88 2434.49C1674.1 2459.88 1647.73 2480.38 1617.78 2496.01C1587.83 2510.98 1556.26 2522.38 1523.06 2530.19C1490.5 2538 1457.3 2541.91 1423.45 2541.91ZM1930.28 1927.65C1948.51 1927.65 1964.14 1933.83 1977.16 1946.2C1990.18 1957.92 1997.01 1972.9 1997.67 1991.13V2226.48C1997.01 2253.17 1998.64 2277.91 2002.55 2300.7C2007.11 2322.83 2017.52 2342.69 2033.8 2360.27C2050.07 2377.85 2070.58 2387.29 2095.32 2388.59H2407.82C2426.05 2389.24 2441.02 2396.07 2452.74 2409.1C2465.11 2422.12 2471.3 2437.74 2471.3 2455.97C2470.65 2473.55 2464.14 2488.52 2451.77 2500.89C2440.05 2512.61 2425.4 2518.8 2407.82 2519.45H2062.12C2016.55 2516.84 1978.79 2501.54 1948.84 2473.55C1919.54 2444.9 1898.38 2410.07 1885.36 2369.06C1872.99 2328.04 1866.48 2284.42 1865.83 2238.2V1991.13C1866.48 1973.55 1872.99 1958.9 1885.36 1947.18C1897.73 1934.81 1912.7 1928.3 1930.28 1927.65ZM2786.73 2074.13C2761.99 2075.44 2741.16 2084.88 2724.23 2102.45C2707.95 2120.03 2696.23 2140.22 2689.07 2163C2681.91 2185.14 2678.33 2207.92 2678.33 2231.36C2678.33 2254.8 2681.58 2277.91 2688.1 2300.7C2695.26 2323.48 2707.3 2343.67 2724.23 2361.24C2741.16 2378.17 2761.99 2387.29 2786.73 2388.59H3108.99C3150.01 2392.49 3172.47 2414.95 3176.38 2455.97C3175.73 2474.2 3168.89 2489.5 3155.87 2501.87C3142.85 2513.59 3127.22 2519.45 3108.99 2519.45H2797.47H2752.55C2706.98 2516.84 2669.54 2499.59 2640.24 2467.69C2610.95 2435.14 2589.79 2398.35 2576.77 2357.34C2564.4 2316.32 2558.21 2274.33 2558.21 2231.36C2558.21 2199.46 2561.79 2167.88 2568.95 2136.63C2576.12 2105.38 2587.18 2075.76 2602.16 2047.77C2617.78 2019.12 2638.29 1994.71 2663.68 1974.53C2689.72 1954.34 2719.35 1943.93 2752.55 1943.28H2771.1H3108.99C3150.01 1947.18 3172.47 1969.64 3176.38 2010.66C3176.38 2028.89 3169.54 2044.19 3155.87 2056.56C3142.85 2068.28 3127.22 2074.13 3108.99 2074.13H2786.73Z" fill="url(#paint18_linear_2_158)"/>
<path d="M1427.45 2529.91C1393.59 2529.91 1360.06 2526 1326.86 2518.19C1294.31 2510.38 1263.06 2498.98 1233.11 2484.01C1203.16 2468.38 1176.8 2447.88 1154.01 2422.49C1131.22 2397.1 1118.85 2366.82 1116.9 2331.67V2290.65V1979.13C1116.9 1960.9 1123.41 1945.92 1136.43 1934.2C1150.1 1921.83 1166.05 1915.65 1184.28 1915.65C1223.35 1918.91 1244.5 1940.06 1247.76 1979.13V2301.39C1249.06 2321.57 1256.55 2338.5 1270.22 2352.17C1284.54 2365.19 1300.17 2375.61 1317.1 2383.42C1334.67 2391.24 1352.58 2397.1 1370.81 2401C1389.69 2404.91 1408.57 2406.86 1427.45 2406.86C1446.33 2406.86 1464.88 2404.91 1483.11 2401C1501.99 2397.1 1519.89 2391.24 1536.82 2383.42C1554.4 2375.61 1570.02 2365.19 1583.7 2352.17C1598.02 2338.5 1605.83 2321.57 1607.13 2301.39V1979.13C1607.13 1960.9 1613.64 1945.92 1626.67 1934.2C1640.34 1921.83 1656.29 1915.65 1674.52 1915.65C1713.58 1918.91 1735.06 1940.06 1738.97 1979.13V2290.65V2331.67C1737.02 2366.82 1724.32 2397.1 1700.88 2422.49C1678.1 2447.88 1651.73 2468.38 1621.78 2484.01C1591.83 2498.98 1560.26 2510.38 1527.06 2518.19C1494.5 2526 1461.3 2529.91 1427.45 2529.91ZM1934.28 1915.65C1952.51 1915.65 1968.14 1921.83 1981.16 1934.2C1994.18 1945.92 2001.01 1960.9 2001.67 1979.13V2214.48C2001.01 2241.17 2002.64 2265.91 2006.55 2288.7C2011.11 2310.83 2021.52 2330.69 2037.8 2348.27C2054.07 2365.85 2074.58 2375.29 2099.32 2376.59H2411.82C2430.05 2377.24 2445.02 2384.07 2456.74 2397.1C2469.11 2410.12 2475.3 2425.74 2475.3 2443.97C2474.65 2461.55 2468.14 2476.52 2455.77 2488.89C2444.05 2500.61 2429.4 2506.8 2411.82 2507.45H2066.12C2020.55 2504.84 1982.79 2489.54 1952.84 2461.55C1923.54 2432.9 1902.38 2398.07 1889.36 2357.06C1876.99 2316.04 1870.48 2272.42 1869.83 2226.2V1979.13C1870.48 1961.55 1876.99 1946.9 1889.36 1935.18C1901.73 1922.81 1916.7 1916.3 1934.28 1915.65ZM2790.73 2062.13C2765.99 2063.44 2745.16 2072.88 2728.23 2090.45C2711.95 2108.03 2700.23 2128.22 2693.07 2151C2685.91 2173.14 2682.33 2195.92 2682.33 2219.36C2682.33 2242.8 2685.58 2265.91 2692.1 2288.7C2699.26 2311.48 2711.3 2331.67 2728.23 2349.24C2745.16 2366.17 2765.99 2375.29 2790.73 2376.59H3112.99C3154.01 2380.49 3176.47 2402.95 3180.38 2443.97C3179.73 2462.2 3172.89 2477.5 3159.87 2489.87C3146.85 2501.59 3131.22 2507.45 3112.99 2507.45H2801.47H2756.55C2710.98 2504.84 2673.54 2487.59 2644.24 2455.69C2614.95 2423.14 2593.79 2386.35 2580.77 2345.34C2568.4 2304.32 2562.21 2262.33 2562.21 2219.36C2562.21 2187.46 2565.79 2155.88 2572.95 2124.63C2580.12 2093.38 2591.18 2063.76 2606.16 2035.77C2621.78 2007.12 2642.29 1982.71 2667.68 1962.53C2693.72 1942.34 2723.35 1931.93 2756.55 1931.28H2775.1H3112.99C3154.01 1935.18 3176.47 1957.64 3180.38 1998.66C3180.38 2016.89 3173.54 2032.19 3159.87 2044.56C3146.85 2056.28 3131.22 2062.13 3112.99 2062.13H2790.73Z" fill="url(#paint19_linear_2_158)"/>
<path d="M1423.45 2533.91C1389.59 2533.91 1356.06 2530 1322.86 2522.19C1290.31 2514.38 1259.06 2502.98 1229.11 2488.01C1199.16 2472.38 1172.8 2451.88 1150.01 2426.49C1127.22 2401.1 1114.85 2370.82 1112.9 2335.67V2294.65V1983.13C1112.9 1964.9 1119.41 1949.92 1132.43 1938.2C1146.1 1925.83 1162.05 1919.65 1180.28 1919.65C1219.35 1922.91 1240.5 1944.06 1243.76 1983.13V2305.39C1245.06 2325.57 1252.55 2342.5 1266.22 2356.17C1280.54 2369.19 1296.17 2379.61 1313.1 2387.42C1330.67 2395.24 1348.58 2401.1 1366.81 2405C1385.69 2408.91 1404.57 2410.86 1423.45 2410.86C1442.33 2410.86 1460.88 2408.91 1479.11 2405C1497.99 2401.1 1515.89 2395.24 1532.82 2387.42C1550.4 2379.61 1566.02 2369.19 1579.7 2356.17C1594.02 2342.5 1601.83 2325.57 1603.13 2305.39V1983.13C1603.13 1964.9 1609.64 1949.92 1622.67 1938.2C1636.34 1925.83 1652.29 1919.65 1670.52 1919.65C1709.58 1922.91 1731.06 1944.06 1734.97 1983.13V2294.65V2335.67C1733.02 2370.82 1720.32 2401.1 1696.88 2426.49C1674.1 2451.88 1647.73 2472.38 1617.78 2488.01C1587.83 2502.98 1556.26 2514.38 1523.06 2522.19C1490.5 2530 1457.3 2533.91 1423.45 2533.91ZM1930.28 1919.65C1948.51 1919.65 1964.14 1925.83 1977.16 1938.2C1990.18 1949.92 1997.01 1964.9 1997.67 1983.13V2218.48C1997.01 2245.17 1998.64 2269.91 2002.55 2292.7C2007.11 2314.83 2017.52 2334.69 2033.8 2352.27C2050.07 2369.85 2070.58 2379.29 2095.32 2380.59H2407.82C2426.05 2381.24 2441.02 2388.07 2452.74 2401.1C2465.11 2414.12 2471.3 2429.74 2471.3 2447.97C2470.65 2465.55 2464.14 2480.52 2451.77 2492.89C2440.05 2504.61 2425.4 2510.8 2407.82 2511.45H2062.12C2016.55 2508.84 1978.79 2493.54 1948.84 2465.55C1919.54 2436.9 1898.38 2402.07 1885.36 2361.06C1872.99 2320.04 1866.48 2276.42 1865.83 2230.2V1983.13C1866.48 1965.55 1872.99 1950.9 1885.36 1939.18C1897.73 1926.81 1912.7 1920.3 1930.28 1919.65ZM2786.73 2066.13C2761.99 2067.44 2741.16 2076.88 2724.23 2094.45C2707.95 2112.03 2696.23 2132.22 2689.07 2155C2681.91 2177.14 2678.33 2199.92 2678.33 2223.36C2678.33 2246.8 2681.58 2269.91 2688.1 2292.7C2695.26 2315.48 2707.3 2335.67 2724.23 2353.24C2741.16 2370.17 2761.99 2379.29 2786.73 2380.59H3108.99C3150.01 2384.49 3172.47 2406.95 3176.38 2447.97C3175.73 2466.2 3168.89 2481.5 3155.87 2493.87C3142.85 2505.59 3127.22 2511.45 3108.99 2511.45H2797.47H2752.55C2706.98 2508.84 2669.54 2491.59 2640.24 2459.69C2610.95 2427.14 2589.79 2390.35 2576.77 2349.34C2564.4 2308.32 2558.21 2266.33 2558.21 2223.36C2558.21 2191.46 2561.79 2159.88 2568.95 2128.63C2576.12 2097.38 2587.18 2067.76 2602.16 2039.77C2617.78 2011.12 2638.29 1986.71 2663.68 1966.53C2689.72 1946.34 2719.35 1935.93 2752.55 1935.28H2771.1H3108.99C3150.01 1939.18 3172.47 1961.64 3176.38 2002.66C3176.38 2020.89 3169.54 2036.19 3155.87 2048.56C3142.85 2060.28 3127.22 2066.13 3108.99 2066.13H2786.73Z" fill="url(#paint20_linear_2_158)"/>
<path d="M1423.45 2533.91C1389.59 2533.91 1356.06 2530 1322.86 2522.19C1290.31 2514.38 1259.06 2502.98 1229.11 2488.01C1199.16 2472.38 1172.8 2451.88 1150.01 2426.49C1127.22 2401.1 1114.85 2370.82 1112.9 2335.67V2294.65V1983.13C1112.9 1964.9 1119.41 1949.92 1132.43 1938.2C1146.1 1925.83 1162.05 1919.65 1180.28 1919.65C1219.35 1922.91 1240.5 1944.06 1243.76 1983.13V2305.39C1245.06 2325.57 1252.55 2342.5 1266.22 2356.17C1280.54 2369.19 1296.17 2379.61 1313.1 2387.42C1330.67 2395.24 1348.58 2401.1 1366.81 2405C1385.69 2408.91 1404.57 2410.86 1423.45 2410.86C1442.33 2410.86 1460.88 2408.91 1479.11 2405C1497.99 2401.1 1515.89 2395.24 1532.82 2387.42C1550.4 2379.61 1566.02 2369.19 1579.7 2356.17C1594.02 2342.5 1601.83 2325.57 1603.13 2305.39V1983.13C1603.13 1964.9 1609.64 1949.92 1622.67 1938.2C1636.34 1925.83 1652.29 1919.65 1670.52 1919.65C1709.58 1922.91 1731.06 1944.06 1734.97 1983.13V2294.65V2335.67C1733.02 2370.82 1720.32 2401.1 1696.88 2426.49C1674.1 2451.88 1647.73 2472.38 1617.78 2488.01C1587.83 2502.98 1556.26 2514.38 1523.06 2522.19C1490.5 2530 1457.3 2533.91 1423.45 2533.91ZM1930.28 1919.65C1948.51 1919.65 1964.14 1925.83 1977.16 1938.2C1990.18 1949.92 1997.01 1964.9 1997.67 1983.13V2218.48C1997.01 2245.17 1998.64 2269.91 2002.55 2292.7C2007.11 2314.83 2017.52 2334.69 2033.8 2352.27C2050.07 2369.85 2070.58 2379.29 2095.32 2380.59H2407.82C2426.05 2381.24 2441.02 2388.07 2452.74 2401.1C2465.11 2414.12 2471.3 2429.74 2471.3 2447.97C2470.65 2465.55 2464.14 2480.52 2451.77 2492.89C2440.05 2504.61 2425.4 2510.8 2407.82 2511.45H2062.12C2016.55 2508.84 1978.79 2493.54 1948.84 2465.55C1919.54 2436.9 1898.38 2402.07 1885.36 2361.06C1872.99 2320.04 1866.48 2276.42 1865.83 2230.2V1983.13C1866.48 1965.55 1872.99 1950.9 1885.36 1939.18C1897.73 1926.81 1912.7 1920.3 1930.28 1919.65ZM2786.73 2066.13C2761.99 2067.44 2741.16 2076.88 2724.23 2094.45C2707.95 2112.03 2696.23 2132.22 2689.07 2155C2681.91 2177.14 2678.33 2199.92 2678.33 2223.36C2678.33 2246.8 2681.58 2269.91 2688.1 2292.7C2695.26 2315.48 2707.3 2335.67 2724.23 2353.24C2741.16 2370.17 2761.99 2379.29 2786.73 2380.59H3108.99C3150.01 2384.49 3172.47 2406.95 3176.38 2447.97C3175.73 2466.2 3168.89 2481.5 3155.87 2493.87C3142.85 2505.59 3127.22 2511.45 3108.99 2511.45H2797.47H2752.55C2706.98 2508.84 2669.54 2491.59 2640.24 2459.69C2610.95 2427.14 2589.79 2390.35 2576.77 2349.34C2564.4 2308.32 2558.21 2266.33 2558.21 2223.36C2558.21 2191.46 2561.79 2159.88 2568.95 2128.63C2576.12 2097.38 2587.18 2067.76 2602.16 2039.77C2617.78 2011.12 2638.29 1986.71 2663.68 1966.53C2689.72 1946.34 2719.35 1935.93 2752.55 1935.28H2771.1H3108.99C3150.01 1939.18 3172.47 1961.64 3176.38 2002.66C3176.38 2020.89 3169.54 2036.19 3155.87 2048.56C3142.85 2060.28 3127.22 2066.13 3108.99 2066.13H2786.73Z" fill="url(#paint21_linear_2_158)"/>
<path d="M1423.45 2537.91C1389.59 2537.91 1356.06 2534 1322.86 2526.19C1290.31 2518.38 1259.06 2506.98 1229.11 2492.01C1199.16 2476.38 1172.8 2455.88 1150.01 2430.49C1127.22 2405.1 1114.85 2374.82 1112.9 2339.67V2298.65V1987.13C1112.9 1968.9 1119.41 1953.92 1132.43 1942.2C1146.1 1929.83 1162.05 1923.65 1180.28 1923.65C1219.35 1926.91 1240.5 1948.06 1243.76 1987.13V2309.39C1245.06 2329.57 1252.55 2346.5 1266.22 2360.17C1280.54 2373.19 1296.17 2383.61 1313.1 2391.42C1330.67 2399.24 1348.58 2405.1 1366.81 2409C1385.69 2412.91 1404.57 2414.86 1423.45 2414.86C1442.33 2414.86 1460.88 2412.91 1479.11 2409C1497.99 2405.1 1515.89 2399.24 1532.82 2391.42C1550.4 2383.61 1566.02 2373.19 1579.7 2360.17C1594.02 2346.5 1601.83 2329.57 1603.13 2309.39V1987.13C1603.13 1968.9 1609.64 1953.92 1622.67 1942.2C1636.34 1929.83 1652.29 1923.65 1670.52 1923.65C1709.58 1926.91 1731.06 1948.06 1734.97 1987.13V2298.65V2339.67C1733.02 2374.82 1720.32 2405.1 1696.88 2430.49C1674.1 2455.88 1647.73 2476.38 1617.78 2492.01C1587.83 2506.98 1556.26 2518.38 1523.06 2526.19C1490.5 2534 1457.3 2537.91 1423.45 2537.91ZM1930.28 1923.65C1948.51 1923.65 1964.14 1929.83 1977.16 1942.2C1990.18 1953.92 1997.01 1968.9 1997.67 1987.13V2222.48C1997.01 2249.17 1998.64 2273.91 2002.55 2296.7C2007.11 2318.83 2017.52 2338.69 2033.8 2356.27C2050.07 2373.85 2070.58 2383.29 2095.32 2384.59H2407.82C2426.05 2385.24 2441.02 2392.07 2452.74 2405.1C2465.11 2418.12 2471.3 2433.74 2471.3 2451.97C2470.65 2469.55 2464.14 2484.52 2451.77 2496.89C2440.05 2508.61 2425.4 2514.8 2407.82 2515.45H2062.12C2016.55 2512.84 1978.79 2497.54 1948.84 2469.55C1919.54 2440.9 1898.38 2406.07 1885.36 2365.06C1872.99 2324.04 1866.48 2280.42 1865.83 2234.2V1987.13C1866.48 1969.55 1872.99 1954.9 1885.36 1943.18C1897.73 1930.81 1912.7 1924.3 1930.28 1923.65ZM2786.73 2070.13C2761.99 2071.44 2741.16 2080.88 2724.23 2098.45C2707.95 2116.03 2696.23 2136.22 2689.07 2159C2681.91 2181.14 2678.33 2203.92 2678.33 2227.36C2678.33 2250.8 2681.58 2273.91 2688.1 2296.7C2695.26 2319.48 2707.3 2339.67 2724.23 2357.24C2741.16 2374.17 2761.99 2383.29 2786.73 2384.59H3108.99C3150.01 2388.49 3172.47 2410.95 3176.38 2451.97C3175.73 2470.2 3168.89 2485.5 3155.87 2497.87C3142.85 2509.59 3127.22 2515.45 3108.99 2515.45H2797.47H2752.55C2706.98 2512.84 2669.54 2495.59 2640.24 2463.69C2610.95 2431.14 2589.79 2394.35 2576.77 2353.34C2564.4 2312.32 2558.21 2270.33 2558.21 2227.36C2558.21 2195.46 2561.79 2163.88 2568.95 2132.63C2576.12 2101.38 2587.18 2071.76 2602.16 2043.77C2617.78 2015.12 2638.29 1990.71 2663.68 1970.53C2689.72 1950.34 2719.35 1939.93 2752.55 1939.28H2771.1H3108.99C3150.01 1943.18 3172.47 1965.64 3176.38 2006.66C3176.38 2024.89 3169.54 2040.19 3155.87 2052.56C3142.85 2064.28 3127.22 2070.13 3108.99 2070.13H2786.73Z" fill="url(#paint22_linear_2_158)"/>
<path d="M1427.45 2525.91C1393.59 2525.91 1360.06 2522 1326.86 2514.19C1294.31 2506.38 1263.06 2494.98 1233.11 2480.01C1203.16 2464.38 1176.8 2443.88 1154.01 2418.49C1131.22 2393.1 1118.85 2362.82 1116.9 2327.67V2286.65V1975.13C1116.9 1956.9 1123.41 1941.92 1136.43 1930.2C1150.1 1917.83 1166.05 1911.65 1184.28 1911.65C1223.35 1914.91 1244.5 1936.06 1247.76 1975.13V2297.39C1249.06 2317.57 1256.55 2334.5 1270.22 2348.17C1284.54 2361.19 1300.17 2371.61 1317.1 2379.42C1334.67 2387.24 1352.58 2393.1 1370.81 2397C1389.69 2400.91 1408.57 2402.86 1427.45 2402.86C1446.33 2402.86 1464.88 2400.91 1483.11 2397C1501.99 2393.1 1519.89 2387.24 1536.82 2379.42C1554.4 2371.61 1570.02 2361.19 1583.7 2348.17C1598.02 2334.5 1605.83 2317.57 1607.13 2297.39V1975.13C1607.13 1956.9 1613.64 1941.92 1626.67 1930.2C1640.34 1917.83 1656.29 1911.65 1674.52 1911.65C1713.58 1914.91 1735.06 1936.06 1738.97 1975.13V2286.65V2327.67C1737.02 2362.82 1724.32 2393.1 1700.88 2418.49C1678.1 2443.88 1651.73 2464.38 1621.78 2480.01C1591.83 2494.98 1560.26 2506.38 1527.06 2514.19C1494.5 2522 1461.3 2525.91 1427.45 2525.91ZM1934.28 1911.65C1952.51 1911.65 1968.14 1917.83 1981.16 1930.2C1994.18 1941.92 2001.01 1956.9 2001.67 1975.13V2210.48C2001.01 2237.17 2002.64 2261.91 2006.55 2284.7C2011.11 2306.83 2021.52 2326.69 2037.8 2344.27C2054.07 2361.85 2074.58 2371.29 2099.32 2372.59H2411.82C2430.05 2373.24 2445.02 2380.07 2456.74 2393.1C2469.11 2406.12 2475.3 2421.74 2475.3 2439.97C2474.65 2457.55 2468.14 2472.52 2455.77 2484.89C2444.05 2496.61 2429.4 2502.8 2411.82 2503.45H2066.12C2020.55 2500.84 1982.79 2485.54 1952.84 2457.55C1923.54 2428.9 1902.38 2394.07 1889.36 2353.06C1876.99 2312.04 1870.48 2268.42 1869.83 2222.2V1975.13C1870.48 1957.55 1876.99 1942.9 1889.36 1931.18C1901.73 1918.81 1916.7 1912.3 1934.28 1911.65ZM2790.73 2058.13C2765.99 2059.44 2745.16 2068.88 2728.23 2086.45C2711.95 2104.03 2700.23 2124.22 2693.07 2147C2685.91 2169.14 2682.33 2191.92 2682.33 2215.36C2682.33 2238.8 2685.58 2261.91 2692.1 2284.7C2699.26 2307.48 2711.3 2327.67 2728.23 2345.24C2745.16 2362.17 2765.99 2371.29 2790.73 2372.59H3112.99C3154.01 2376.49 3176.47 2398.95 3180.38 2439.97C3179.73 2458.2 3172.89 2473.5 3159.87 2485.87C3146.85 2497.59 3131.22 2503.45 3112.99 2503.45H2801.47H2756.55C2710.98 2500.84 2673.54 2483.59 2644.24 2451.69C2614.95 2419.14 2593.79 2382.35 2580.77 2341.34C2568.4 2300.32 2562.21 2258.33 2562.21 2215.36C2562.21 2183.46 2565.79 2151.88 2572.95 2120.63C2580.12 2089.38 2591.18 2059.76 2606.16 2031.77C2621.78 2003.12 2642.29 1978.71 2667.68 1958.53C2693.72 1938.34 2723.35 1927.93 2756.55 1927.28H2775.1H3112.99C3154.01 1931.18 3176.47 1953.64 3180.38 1994.66C3180.38 2012.89 3173.54 2028.19 3159.87 2040.56C3146.85 2052.28 3131.22 2058.13 3112.99 2058.13H2790.73Z" fill="url(#paint23_linear_2_158)"/>
<path d="M1423.45 2529.91C1389.59 2529.91 1356.06 2526 1322.86 2518.19C1290.31 2510.38 1259.06 2498.98 1229.11 2484.01C1199.16 2468.38 1172.8 2447.88 1150.01 2422.49C1127.22 2397.1 1114.85 2366.82 1112.9 2331.67V2290.65V1979.13C1112.9 1960.9 1119.41 1945.92 1132.43 1934.2C1146.1 1921.83 1162.05 1915.65 1180.28 1915.65C1219.35 1918.91 1240.5 1940.06 1243.76 1979.13V2301.39C1245.06 2321.57 1252.55 2338.5 1266.22 2352.17C1280.54 2365.19 1296.17 2375.61 1313.1 2383.42C1330.67 2391.24 1348.58 2397.1 1366.81 2401C1385.69 2404.91 1404.57 2406.86 1423.45 2406.86C1442.33 2406.86 1460.88 2404.91 1479.11 2401C1497.99 2397.1 1515.89 2391.24 1532.82 2383.42C1550.4 2375.61 1566.02 2365.19 1579.7 2352.17C1594.02 2338.5 1601.83 2321.57 1603.13 2301.39V1979.13C1603.13 1960.9 1609.64 1945.92 1622.67 1934.2C1636.34 1921.83 1652.29 1915.65 1670.52 1915.65C1709.58 1918.91 1731.06 1940.06 1734.97 1979.13V2290.65V2331.67C1733.02 2366.82 1720.32 2397.1 1696.88 2422.49C1674.1 2447.88 1647.73 2468.38 1617.78 2484.01C1587.83 2498.98 1556.26 2510.38 1523.06 2518.19C1490.5 2526 1457.3 2529.91 1423.45 2529.91ZM1930.28 1915.65C1948.51 1915.65 1964.14 1921.83 1977.16 1934.2C1990.18 1945.92 1997.01 1960.9 1997.67 1979.13V2214.48C1997.01 2241.17 1998.64 2265.91 2002.55 2288.7C2007.11 2310.83 2017.52 2330.69 2033.8 2348.27C2050.07 2365.85 2070.58 2375.29 2095.32 2376.59H2407.82C2426.05 2377.24 2441.02 2384.07 2452.74 2397.1C2465.11 2410.12 2471.3 2425.74 2471.3 2443.97C2470.65 2461.55 2464.14 2476.52 2451.77 2488.89C2440.05 2500.61 2425.4 2506.8 2407.82 2507.45H2062.12C2016.55 2504.84 1978.79 2489.54 1948.84 2461.55C1919.54 2432.9 1898.38 2398.07 1885.36 2357.06C1872.99 2316.04 1866.48 2272.42 1865.83 2226.2V1979.13C1866.48 1961.55 1872.99 1946.9 1885.36 1935.18C1897.73 1922.81 1912.7 1916.3 1930.28 1915.65ZM2786.73 2062.13C2761.99 2063.44 2741.16 2072.88 2724.23 2090.45C2707.95 2108.03 2696.23 2128.22 2689.07 2151C2681.91 2173.14 2678.33 2195.92 2678.33 2219.36C2678.33 2242.8 2681.58 2265.91 2688.1 2288.7C2695.26 2311.48 2707.3 2331.67 2724.23 2349.24C2741.16 2366.17 2761.99 2375.29 2786.73 2376.59H3108.99C3150.01 2380.49 3172.47 2402.95 3176.38 2443.97C3175.73 2462.2 3168.89 2477.5 3155.87 2489.87C3142.85 2501.59 3127.22 2507.45 3108.99 2507.45H2797.47H2752.55C2706.98 2504.84 2669.54 2487.59 2640.24 2455.69C2610.95 2423.14 2589.79 2386.35 2576.77 2345.34C2564.4 2304.32 2558.21 2262.33 2558.21 2219.36C2558.21 2187.46 2561.79 2155.88 2568.95 2124.63C2576.12 2093.38 2587.18 2063.76 2602.16 2035.77C2617.78 2007.12 2638.29 1982.71 2663.68 1962.53C2689.72 1942.34 2719.35 1931.93 2752.55 1931.28H2771.1H3108.99C3150.01 1935.18 3172.47 1957.64 3176.38 1998.66C3176.38 2016.89 3169.54 2032.19 3155.87 2044.56C3142.85 2056.28 3127.22 2062.13 3108.99 2062.13H2786.73Z" fill="url(#paint24_linear_2_158)"/>
<path d="M1423.45 2529.91C1389.59 2529.91 1356.06 2526 1322.86 2518.19C1290.31 2510.38 1259.06 2498.98 1229.11 2484.01C1199.16 2468.38 1172.8 2447.88 1150.01 2422.49C1127.22 2397.1 1114.85 2366.82 1112.9 2331.67V2290.65V1979.13C1112.9 1960.9 1119.41 1945.92 1132.43 1934.2C1146.1 1921.83 1162.05 1915.65 1180.28 1915.65C1219.35 1918.91 1240.5 1940.06 1243.76 1979.13V2301.39C1245.06 2321.57 1252.55 2338.5 1266.22 2352.17C1280.54 2365.19 1296.17 2375.61 1313.1 2383.42C1330.67 2391.24 1348.58 2397.1 1366.81 2401C1385.69 2404.91 1404.57 2406.86 1423.45 2406.86C1442.33 2406.86 1460.88 2404.91 1479.11 2401C1497.99 2397.1 1515.89 2391.24 1532.82 2383.42C1550.4 2375.61 1566.02 2365.19 1579.7 2352.17C1594.02 2338.5 1601.83 2321.57 1603.13 2301.39V1979.13C1603.13 1960.9 1609.64 1945.92 1622.67 1934.2C1636.34 1921.83 1652.29 1915.65 1670.52 1915.65C1709.58 1918.91 1731.06 1940.06 1734.97 1979.13V2290.65V2331.67C1733.02 2366.82 1720.32 2397.1 1696.88 2422.49C1674.1 2447.88 1647.73 2468.38 1617.78 2484.01C1587.83 2498.98 1556.26 2510.38 1523.06 2518.19C1490.5 2526 1457.3 2529.91 1423.45 2529.91ZM1930.28 1915.65C1948.51 1915.65 1964.14 1921.83 1977.16 1934.2C1990.18 1945.92 1997.01 1960.9 1997.67 1979.13V2214.48C1997.01 2241.17 1998.64 2265.91 2002.55 2288.7C2007.11 2310.83 2017.52 2330.69 2033.8 2348.27C2050.07 2365.85 2070.58 2375.29 2095.32 2376.59H2407.82C2426.05 2377.24 2441.02 2384.07 2452.74 2397.1C2465.11 2410.12 2471.3 2425.74 2471.3 2443.97C2470.65 2461.55 2464.14 2476.52 2451.77 2488.89C2440.05 2500.61 2425.4 2506.8 2407.82 2507.45H2062.12C2016.55 2504.84 1978.79 2489.54 1948.84 2461.55C1919.54 2432.9 1898.38 2398.07 1885.36 2357.06C1872.99 2316.04 1866.48 2272.42 1865.83 2226.2V1979.13C1866.48 1961.55 1872.99 1946.9 1885.36 1935.18C1897.73 1922.81 1912.7 1916.3 1930.28 1915.65ZM2786.73 2062.13C2761.99 2063.44 2741.16 2072.88 2724.23 2090.45C2707.95 2108.03 2696.23 2128.22 2689.07 2151C2681.91 2173.14 2678.33 2195.92 2678.33 2219.36C2678.33 2242.8 2681.58 2265.91 2688.1 2288.7C2695.26 2311.48 2707.3 2331.67 2724.23 2349.24C2741.16 2366.17 2761.99 2375.29 2786.73 2376.59H3108.99C3150.01 2380.49 3172.47 2402.95 3176.38 2443.97C3175.73 2462.2 3168.89 2477.5 3155.87 2489.87C3142.85 2501.59 3127.22 2507.45 3108.99 2507.45H2797.47H2752.55C2706.98 2504.84 2669.54 2487.59 2640.24 2455.69C2610.95 2423.14 2589.79 2386.35 2576.77 2345.34C2564.4 2304.32 2558.21 2262.33 2558.21 2219.36C2558.21 2187.46 2561.79 2155.88 2568.95 2124.63C2576.12 2093.38 2587.18 2063.76 2602.16 2035.77C2617.78 2007.12 2638.29 1982.71 2663.68 1962.53C2689.72 1942.34 2719.35 1931.93 2752.55 1931.28H2771.1H3108.99C3150.01 1935.18 3172.47 1957.64 3176.38 1998.66C3176.38 2016.89 3169.54 2032.19 3155.87 2044.56C3142.85 2056.28 3127.22 2062.13 3108.99 2062.13H2786.73Z" fill="url(#paint25_linear_2_158)"/>
<path d="M1423.45 2533.91C1389.59 2533.91 1356.06 2530 1322.86 2522.19C1290.31 2514.38 1259.06 2502.98 1229.11 2488.01C1199.16 2472.38 1172.8 2451.88 1150.01 2426.49C1127.22 2401.1 1114.85 2370.82 1112.9 2335.67V2294.65V1983.13C1112.9 1964.9 1119.41 1949.92 1132.43 1938.2C1146.1 1925.83 1162.05 1919.65 1180.28 1919.65C1219.35 1922.91 1240.5 1944.06 1243.76 1983.13V2305.39C1245.06 2325.57 1252.55 2342.5 1266.22 2356.17C1280.54 2369.19 1296.17 2379.61 1313.1 2387.42C1330.67 2395.24 1348.58 2401.1 1366.81 2405C1385.69 2408.91 1404.57 2410.86 1423.45 2410.86C1442.33 2410.86 1460.88 2408.91 1479.11 2405C1497.99 2401.1 1515.89 2395.24 1532.82 2387.42C1550.4 2379.61 1566.02 2369.19 1579.7 2356.17C1594.02 2342.5 1601.83 2325.57 1603.13 2305.39V1983.13C1603.13 1964.9 1609.64 1949.92 1622.67 1938.2C1636.34 1925.83 1652.29 1919.65 1670.52 1919.65C1709.58 1922.91 1731.06 1944.06 1734.97 1983.13V2294.65V2335.67C1733.02 2370.82 1720.32 2401.1 1696.88 2426.49C1674.1 2451.88 1647.73 2472.38 1617.78 2488.01C1587.83 2502.98 1556.26 2514.38 1523.06 2522.19C1490.5 2530 1457.3 2533.91 1423.45 2533.91ZM1930.28 1919.65C1948.51 1919.65 1964.14 1925.83 1977.16 1938.2C1990.18 1949.92 1997.01 1964.9 1997.67 1983.13V2218.48C1997.01 2245.17 1998.64 2269.91 2002.55 2292.7C2007.11 2314.83 2017.52 2334.69 2033.8 2352.27C2050.07 2369.85 2070.58 2379.29 2095.32 2380.59H2407.82C2426.05 2381.24 2441.02 2388.07 2452.74 2401.1C2465.11 2414.12 2471.3 2429.74 2471.3 2447.97C2470.65 2465.55 2464.14 2480.52 2451.77 2492.89C2440.05 2504.61 2425.4 2510.8 2407.82 2511.45H2062.12C2016.55 2508.84 1978.79 2493.54 1948.84 2465.55C1919.54 2436.9 1898.38 2402.07 1885.36 2361.06C1872.99 2320.04 1866.48 2276.42 1865.83 2230.2V1983.13C1866.48 1965.55 1872.99 1950.9 1885.36 1939.18C1897.73 1926.81 1912.7 1920.3 1930.28 1919.65ZM2786.73 2066.13C2761.99 2067.44 2741.16 2076.88 2724.23 2094.45C2707.95 2112.03 2696.23 2132.22 2689.07 2155C2681.91 2177.14 2678.33 2199.92 2678.33 2223.36C2678.33 2246.8 2681.58 2269.91 2688.1 2292.7C2695.26 2315.48 2707.3 2335.67 2724.23 2353.24C2741.16 2370.17 2761.99 2379.29 2786.73 2380.59H3108.99C3150.01 2384.49 3172.47 2406.95 3176.38 2447.97C3175.73 2466.2 3168.89 2481.5 3155.87 2493.87C3142.85 2505.59 3127.22 2511.45 3108.99 2511.45H2797.47H2752.55C2706.98 2508.84 2669.54 2491.59 2640.24 2459.69C2610.95 2427.14 2589.79 2390.35 2576.77 2349.34C2564.4 2308.32 2558.21 2266.33 2558.21 2223.36C2558.21 2191.46 2561.79 2159.88 2568.95 2128.63C2576.12 2097.38 2587.18 2067.76 2602.16 2039.77C2617.78 2011.12 2638.29 1986.71 2663.68 1966.53C2689.72 1946.34 2719.35 1935.93 2752.55 1935.28H2771.1H3108.99C3150.01 1939.18 3172.47 1961.64 3176.38 2002.66C3176.38 2020.89 3169.54 2036.19 3155.87 2048.56C3142.85 2060.28 3127.22 2066.13 3108.99 2066.13H2786.73Z" fill="url(#paint26_linear_2_158)"/>
<path d="M1427.45 2521.91C1393.59 2521.91 1360.06 2518 1326.86 2510.19C1294.31 2502.38 1263.06 2490.98 1233.11 2476.01C1203.16 2460.38 1176.8 2439.88 1154.01 2414.49C1131.22 2389.1 1118.85 2358.82 1116.9 2323.67V2282.65V1971.13C1116.9 1952.9 1123.41 1937.92 1136.43 1926.2C1150.1 1913.83 1166.05 1907.65 1184.28 1907.65C1223.35 1910.91 1244.5 1932.06 1247.76 1971.13V2293.39C1249.06 2313.57 1256.55 2330.5 1270.22 2344.17C1284.54 2357.19 1300.17 2367.61 1317.1 2375.42C1334.67 2383.24 1352.58 2389.1 1370.81 2393C1389.69 2396.91 1408.57 2398.86 1427.45 2398.86C1446.33 2398.86 1464.88 2396.91 1483.11 2393C1501.99 2389.1 1519.89 2383.24 1536.82 2375.42C1554.4 2367.61 1570.02 2357.19 1583.7 2344.17C1598.02 2330.5 1605.83 2313.57 1607.13 2293.39V1971.13C1607.13 1952.9 1613.64 1937.92 1626.67 1926.2C1640.34 1913.83 1656.29 1907.65 1674.52 1907.65C1713.58 1910.91 1735.06 1932.06 1738.97 1971.13V2282.65V2323.67C1737.02 2358.82 1724.32 2389.1 1700.88 2414.49C1678.1 2439.88 1651.73 2460.38 1621.78 2476.01C1591.83 2490.98 1560.26 2502.38 1527.06 2510.19C1494.5 2518 1461.3 2521.91 1427.45 2521.91ZM1934.28 1907.65C1952.51 1907.65 1968.14 1913.83 1981.16 1926.2C1994.18 1937.92 2001.01 1952.9 2001.67 1971.13V2206.48C2001.01 2233.17 2002.64 2257.91 2006.55 2280.7C2011.11 2302.83 2021.52 2322.69 2037.8 2340.27C2054.07 2357.85 2074.58 2367.29 2099.32 2368.59H2411.82C2430.05 2369.24 2445.02 2376.07 2456.74 2389.1C2469.11 2402.12 2475.3 2417.74 2475.3 2435.97C2474.65 2453.55 2468.14 2468.52 2455.77 2480.89C2444.05 2492.61 2429.4 2498.8 2411.82 2499.45H2066.12C2020.55 2496.84 1982.79 2481.54 1952.84 2453.55C1923.54 2424.9 1902.38 2390.07 1889.36 2349.06C1876.99 2308.04 1870.48 2264.42 1869.83 2218.2V1971.13C1870.48 1953.55 1876.99 1938.9 1889.36 1927.18C1901.73 1914.81 1916.7 1908.3 1934.28 1907.65ZM2790.73 2054.13C2765.99 2055.44 2745.16 2064.88 2728.23 2082.45C2711.95 2100.03 2700.23 2120.22 2693.07 2143C2685.91 2165.14 2682.33 2187.92 2682.33 2211.36C2682.33 2234.8 2685.58 2257.91 2692.1 2280.7C2699.26 2303.48 2711.3 2323.67 2728.23 2341.24C2745.16 2358.17 2765.99 2367.29 2790.73 2368.59H3112.99C3154.01 2372.49 3176.47 2394.95 3180.38 2435.97C3179.73 2454.2 3172.89 2469.5 3159.87 2481.87C3146.85 2493.59 3131.22 2499.45 3112.99 2499.45H2801.47H2756.55C2710.98 2496.84 2673.54 2479.59 2644.24 2447.69C2614.95 2415.14 2593.79 2378.35 2580.77 2337.34C2568.4 2296.32 2562.21 2254.33 2562.21 2211.36C2562.21 2179.46 2565.79 2147.88 2572.95 2116.63C2580.12 2085.38 2591.18 2055.76 2606.16 2027.77C2621.78 1999.12 2642.29 1974.71 2667.68 1954.53C2693.72 1934.34 2723.35 1923.93 2756.55 1923.28H2775.1H3112.99C3154.01 1927.18 3176.47 1949.64 3180.38 1990.66C3180.38 2008.89 3173.54 2024.19 3159.87 2036.56C3146.85 2048.28 3131.22 2054.13 3112.99 2054.13H2790.73Z" fill="url(#paint27_linear_2_158)"/>
<path d="M1423.45 2525.91C1389.59 2525.91 1356.06 2522 1322.86 2514.19C1290.31 2506.38 1259.06 2494.98 1229.11 2480.01C1199.16 2464.38 1172.8 2443.88 1150.01 2418.49C1127.22 2393.1 1114.85 2362.82 1112.9 2327.67V2286.65V1975.13C1112.9 1956.9 1119.41 1941.92 1132.43 1930.2C1146.1 1917.83 1162.05 1911.65 1180.28 1911.65C1219.35 1914.91 1240.5 1936.06 1243.76 1975.13V2297.39C1245.06 2317.57 1252.55 2334.5 1266.22 2348.17C1280.54 2361.19 1296.17 2371.61 1313.1 2379.42C1330.67 2387.24 1348.58 2393.1 1366.81 2397C1385.69 2400.91 1404.57 2402.86 1423.45 2402.86C1442.33 2402.86 1460.88 2400.91 1479.11 2397C1497.99 2393.1 1515.89 2387.24 1532.82 2379.42C1550.4 2371.61 1566.02 2361.19 1579.7 2348.17C1594.02 2334.5 1601.83 2317.57 1603.13 2297.39V1975.13C1603.13 1956.9 1609.64 1941.92 1622.67 1930.2C1636.34 1917.83 1652.29 1911.65 1670.52 1911.65C1709.58 1914.91 1731.06 1936.06 1734.97 1975.13V2286.65V2327.67C1733.02 2362.82 1720.32 2393.1 1696.88 2418.49C1674.1 2443.88 1647.73 2464.38 1617.78 2480.01C1587.83 2494.98 1556.26 2506.38 1523.06 2514.19C1490.5 2522 1457.3 2525.91 1423.45 2525.91ZM1930.28 1911.65C1948.51 1911.65 1964.14 1917.83 1977.16 1930.2C1990.18 1941.92 1997.01 1956.9 1997.67 1975.13V2210.48C1997.01 2237.17 1998.64 2261.91 2002.55 2284.7C2007.11 2306.83 2017.52 2326.69 2033.8 2344.27C2050.07 2361.85 2070.58 2371.29 2095.32 2372.59H2407.82C2426.05 2373.24 2441.02 2380.07 2452.74 2393.1C2465.11 2406.12 2471.3 2421.74 2471.3 2439.97C2470.65 2457.55 2464.14 2472.52 2451.77 2484.89C2440.05 2496.61 2425.4 2502.8 2407.82 2503.45H2062.12C2016.55 2500.84 1978.79 2485.54 1948.84 2457.55C1919.54 2428.9 1898.38 2394.07 1885.36 2353.06C1872.99 2312.04 1866.48 2268.42 1865.83 2222.2V1975.13C1866.48 1957.55 1872.99 1942.9 1885.36 1931.18C1897.73 1918.81 1912.7 1912.3 1930.28 1911.65ZM2786.73 2058.13C2761.99 2059.44 2741.16 2068.88 2724.23 2086.45C2707.95 2104.03 2696.23 2124.22 2689.07 2147C2681.91 2169.14 2678.33 2191.92 2678.33 2215.36C2678.33 2238.8 2681.58 2261.91 2688.1 2284.7C2695.26 2307.48 2707.3 2327.67 2724.23 2345.24C2741.16 2362.17 2761.99 2371.29 2786.73 2372.59H3108.99C3150.01 2376.49 3172.47 2398.95 3176.38 2439.97C3175.73 2458.2 3168.89 2473.5 3155.87 2485.87C3142.85 2497.59 3127.22 2503.45 3108.99 2503.45H2797.47H2752.55C2706.98 2500.84 2669.54 2483.59 2640.24 2451.69C2610.95 2419.14 2589.79 2382.35 2576.77 2341.34C2564.4 2300.32 2558.21 2258.33 2558.21 2215.36C2558.21 2183.46 2561.79 2151.88 2568.95 2120.63C2576.12 2089.38 2587.18 2059.76 2602.16 2031.77C2617.78 2003.12 2638.29 1978.71 2663.68 1958.53C2689.72 1938.34 2719.35 1927.93 2752.55 1927.28H2771.1H3108.99C3150.01 1931.18 3172.47 1953.64 3176.38 1994.66C3176.38 2012.89 3169.54 2028.19 3155.87 2040.56C3142.85 2052.28 3127.22 2058.13 3108.99 2058.13H2786.73Z" fill="url(#paint28_linear_2_158)"/>
<path d="M1423.45 2525.91C1389.59 2525.91 1356.06 2522 1322.86 2514.19C1290.31 2506.38 1259.06 2494.98 1229.11 2480.01C1199.16 2464.38 1172.8 2443.88 1150.01 2418.49C1127.22 2393.1 1114.85 2362.82 1112.9 2327.67V2286.65V1975.13C1112.9 1956.9 1119.41 1941.92 1132.43 1930.2C1146.1 1917.83 1162.05 1911.65 1180.28 1911.65C1219.35 1914.91 1240.5 1936.06 1243.76 1975.13V2297.39C1245.06 2317.57 1252.55 2334.5 1266.22 2348.17C1280.54 2361.19 1296.17 2371.61 1313.1 2379.42C1330.67 2387.24 1348.58 2393.1 1366.81 2397C1385.69 2400.91 1404.57 2402.86 1423.45 2402.86C1442.33 2402.86 1460.88 2400.91 1479.11 2397C1497.99 2393.1 1515.89 2387.24 1532.82 2379.42C1550.4 2371.61 1566.02 2361.19 1579.7 2348.17C1594.02 2334.5 1601.83 2317.57 1603.13 2297.39V1975.13C1603.13 1956.9 1609.64 1941.92 1622.67 1930.2C1636.34 1917.83 1652.29 1911.65 1670.52 1911.65C1709.58 1914.91 1731.06 1936.06 1734.97 1975.13V2286.65V2327.67C1733.02 2362.82 1720.32 2393.1 1696.88 2418.49C1674.1 2443.88 1647.73 2464.38 1617.78 2480.01C1587.83 2494.98 1556.26 2506.38 1523.06 2514.19C1490.5 2522 1457.3 2525.91 1423.45 2525.91ZM1930.28 1911.65C1948.51 1911.65 1964.14 1917.83 1977.16 1930.2C1990.18 1941.92 1997.01 1956.9 1997.67 1975.13V2210.48C1997.01 2237.17 1998.64 2261.91 2002.55 2284.7C2007.11 2306.83 2017.52 2326.69 2033.8 2344.27C2050.07 2361.85 2070.58 2371.29 2095.32 2372.59H2407.82C2426.05 2373.24 2441.02 2380.07 2452.74 2393.1C2465.11 2406.12 2471.3 2421.74 2471.3 2439.97C2470.65 2457.55 2464.14 2472.52 2451.77 2484.89C2440.05 2496.61 2425.4 2502.8 2407.82 2503.45H2062.12C2016.55 2500.84 1978.79 2485.54 1948.84 2457.55C1919.54 2428.9 1898.38 2394.07 1885.36 2353.06C1872.99 2312.04 1866.48 2268.42 1865.83 2222.2V1975.13C1866.48 1957.55 1872.99 1942.9 1885.36 1931.18C1897.73 1918.81 1912.7 1912.3 1930.28 1911.65ZM2786.73 2058.13C2761.99 2059.44 2741.16 2068.88 2724.23 2086.45C2707.95 2104.03 2696.23 2124.22 2689.07 2147C2681.91 2169.14 2678.33 2191.92 2678.33 2215.36C2678.33 2238.8 2681.58 2261.91 2688.1 2284.7C2695.26 2307.48 2707.3 2327.67 2724.23 2345.24C2741.16 2362.17 2761.99 2371.29 2786.73 2372.59H3108.99C3150.01 2376.49 3172.47 2398.95 3176.38 2439.97C3175.73 2458.2 3168.89 2473.5 3155.87 2485.87C3142.85 2497.59 3127.22 2503.45 3108.99 2503.45H2797.47H2752.55C2706.98 2500.84 2669.54 2483.59 2640.24 2451.69C2610.95 2419.14 2589.79 2382.35 2576.77 2341.34C2564.4 2300.32 2558.21 2258.33 2558.21 2215.36C2558.21 2183.46 2561.79 2151.88 2568.95 2120.63C2576.12 2089.38 2587.18 2059.76 2602.16 2031.77C2617.78 2003.12 2638.29 1978.71 2663.68 1958.53C2689.72 1938.34 2719.35 1927.93 2752.55 1927.28H2771.1H3108.99C3150.01 1931.18 3172.47 1953.64 3176.38 1994.66C3176.38 2012.89 3169.54 2028.19 3155.87 2040.56C3142.85 2052.28 3127.22 2058.13 3108.99 2058.13H2786.73Z" fill="url(#paint29_linear_2_158)"/>
<path d="M1423.45 2529.91C1389.59 2529.91 1356.06 2526 1322.86 2518.19C1290.31 2510.38 1259.06 2498.98 1229.11 2484.01C1199.16 2468.38 1172.8 2447.88 1150.01 2422.49C1127.22 2397.1 1114.85 2366.82 1112.9 2331.67V2290.65V1979.13C1112.9 1960.9 1119.41 1945.92 1132.43 1934.2C1146.1 1921.83 1162.05 1915.65 1180.28 1915.65C1219.35 1918.91 1240.5 1940.06 1243.76 1979.13V2301.39C1245.06 2321.57 1252.55 2338.5 1266.22 2352.17C1280.54 2365.19 1296.17 2375.61 1313.1 2383.42C1330.67 2391.24 1348.58 2397.1 1366.81 2401C1385.69 2404.91 1404.57 2406.86 1423.45 2406.86C1442.33 2406.86 1460.88 2404.91 1479.11 2401C1497.99 2397.1 1515.89 2391.24 1532.82 2383.42C1550.4 2375.61 1566.02 2365.19 1579.7 2352.17C1594.02 2338.5 1601.83 2321.57 1603.13 2301.39V1979.13C1603.13 1960.9 1609.64 1945.92 1622.67 1934.2C1636.34 1921.83 1652.29 1915.65 1670.52 1915.65C1709.58 1918.91 1731.06 1940.06 1734.97 1979.13V2290.65V2331.67C1733.02 2366.82 1720.32 2397.1 1696.88 2422.49C1674.1 2447.88 1647.73 2468.38 1617.78 2484.01C1587.83 2498.98 1556.26 2510.38 1523.06 2518.19C1490.5 2526 1457.3 2529.91 1423.45 2529.91ZM1930.28 1915.65C1948.51 1915.65 1964.14 1921.83 1977.16 1934.2C1990.18 1945.92 1997.01 1960.9 1997.67 1979.13V2214.48C1997.01 2241.17 1998.64 2265.91 2002.55 2288.7C2007.11 2310.83 2017.52 2330.69 2033.8 2348.27C2050.07 2365.85 2070.58 2375.29 2095.32 2376.59H2407.82C2426.05 2377.24 2441.02 2384.07 2452.74 2397.1C2465.11 2410.12 2471.3 2425.74 2471.3 2443.97C2470.65 2461.55 2464.14 2476.52 2451.77 2488.89C2440.05 2500.61 2425.4 2506.8 2407.82 2507.45H2062.12C2016.55 2504.84 1978.79 2489.54 1948.84 2461.55C1919.54 2432.9 1898.38 2398.07 1885.36 2357.06C1872.99 2316.04 1866.48 2272.42 1865.83 2226.2V1979.13C1866.48 1961.55 1872.99 1946.9 1885.36 1935.18C1897.73 1922.81 1912.7 1916.3 1930.28 1915.65ZM2786.73 2062.13C2761.99 2063.44 2741.16 2072.88 2724.23 2090.45C2707.95 2108.03 2696.23 2128.22 2689.07 2151C2681.91 2173.14 2678.33 2195.92 2678.33 2219.36C2678.33 2242.8 2681.58 2265.91 2688.1 2288.7C2695.26 2311.48 2707.3 2331.67 2724.23 2349.24C2741.16 2366.17 2761.99 2375.29 2786.73 2376.59H3108.99C3150.01 2380.49 3172.47 2402.95 3176.38 2443.97C3175.73 2462.2 3168.89 2477.5 3155.87 2489.87C3142.85 2501.59 3127.22 2507.45 3108.99 2507.45H2797.47H2752.55C2706.98 2504.84 2669.54 2487.59 2640.24 2455.69C2610.95 2423.14 2589.79 2386.35 2576.77 2345.34C2564.4 2304.32 2558.21 2262.33 2558.21 2219.36C2558.21 2187.46 2561.79 2155.88 2568.95 2124.63C2576.12 2093.38 2587.18 2063.76 2602.16 2035.77C2617.78 2007.12 2638.29 1982.71 2663.68 1962.53C2689.72 1942.34 2719.35 1931.93 2752.55 1931.28H2771.1H3108.99C3150.01 1935.18 3172.47 1957.64 3176.38 1998.66C3176.38 2016.89 3169.54 2032.19 3155.87 2044.56C3142.85 2056.28 3127.22 2062.13 3108.99 2062.13H2786.73Z" fill="url(#paint30_linear_2_158)"/>
<path d="M1423.45 2505.91C1389.59 2505.91 1356.06 2502 1322.86 2494.19C1290.31 2486.38 1259.06 2474.98 1229.11 2460.01C1199.16 2444.38 1172.8 2423.88 1150.01 2398.49C1127.22 2373.1 1114.85 2342.82 1112.9 2307.67V2266.65V1955.13C1112.9 1936.9 1119.41 1921.92 1132.43 1910.2C1146.1 1897.83 1162.05 1891.65 1180.28 1891.65C1219.35 1894.91 1240.5 1916.06 1243.76 1955.13V2277.39C1245.06 2297.57 1252.55 2314.5 1266.22 2328.17C1280.54 2341.19 1296.17 2351.61 1313.1 2359.42C1330.67 2367.24 1348.58 2373.1 1366.81 2377C1385.69 2380.91 1404.57 2382.86 1423.45 2382.86C1442.33 2382.86 1460.88 2380.91 1479.11 2377C1497.99 2373.1 1515.89 2367.24 1532.82 2359.42C1550.4 2351.61 1566.02 2341.19 1579.7 2328.17C1594.02 2314.5 1601.83 2297.57 1603.13 2277.39V1955.13C1603.13 1936.9 1609.64 1921.92 1622.67 1910.2C1636.34 1897.83 1652.29 1891.65 1670.52 1891.65C1709.58 1894.91 1731.06 1916.06 1734.97 1955.13V2266.65V2307.67C1733.02 2342.82 1720.32 2373.1 1696.88 2398.49C1674.1 2423.88 1647.73 2444.38 1617.78 2460.01C1587.83 2474.98 1556.26 2486.38 1523.06 2494.19C1490.5 2502 1457.3 2505.91 1423.45 2505.91ZM1930.28 1891.65C1948.51 1891.65 1964.14 1897.83 1977.16 1910.2C1990.18 1921.92 1997.01 1936.9 1997.67 1955.13V2190.48C1997.01 2217.17 1998.64 2241.91 2002.55 2264.7C2007.11 2286.83 2017.52 2306.69 2033.8 2324.27C2050.07 2341.85 2070.58 2351.29 2095.32 2352.59H2407.82C2426.05 2353.24 2441.02 2360.07 2452.74 2373.1C2465.11 2386.12 2471.3 2401.74 2471.3 2419.97C2470.65 2437.55 2464.14 2452.52 2451.77 2464.89C2440.05 2476.61 2425.4 2482.8 2407.82 2483.45H2062.12C2016.55 2480.84 1978.79 2465.54 1948.84 2437.55C1919.54 2408.9 1898.38 2374.07 1885.36 2333.06C1872.99 2292.04 1866.48 2248.42 1865.83 2202.2V1955.13C1866.48 1937.55 1872.99 1922.9 1885.36 1911.18C1897.73 1898.81 1912.7 1892.3 1930.28 1891.65ZM2786.73 2038.13C2761.99 2039.44 2741.16 2048.88 2724.23 2066.45C2707.95 2084.03 2696.23 2104.22 2689.07 2127C2681.91 2149.14 2678.33 2171.92 2678.33 2195.36C2678.33 2218.8 2681.58 2241.91 2688.1 2264.7C2695.26 2287.48 2707.3 2307.67 2724.23 2325.24C2741.16 2342.17 2761.99 2351.29 2786.73 2352.59H3108.99C3150.01 2356.49 3172.47 2378.95 3176.38 2419.97C3175.73 2438.2 3168.89 2453.5 3155.87 2465.87C3142.85 2477.59 3127.22 2483.45 3108.99 2483.45H2797.47H2752.55C2706.98 2480.84 2669.54 2463.59 2640.24 2431.69C2610.95 2399.14 2589.79 2362.35 2576.77 2321.34C2564.4 2280.32 2558.21 2238.33 2558.21 2195.36C2558.21 2163.46 2561.79 2131.88 2568.95 2100.63C2576.12 2069.38 2587.18 2039.76 2602.16 2011.77C2617.78 1983.12 2638.29 1958.71 2663.68 1938.53C2689.72 1918.34 2719.35 1907.93 2752.55 1907.28H2771.1H3108.99C3150.01 1911.18 3172.47 1933.64 3176.38 1974.66C3176.38 1992.89 3169.54 2008.19 3155.87 2020.56C3142.85 2032.28 3127.22 2038.13 3108.99 2038.13H2786.73Z" fill="#C8D9D9"/>
<defs>
<filter id="filter0_d_2_158" x="0" y="3.05176e-05" width="4260.8" height="4260.8" filterUnits="userSpaceOnUse" color-interpolation-filters="sRGB">
<feFlood flood-opacity="0" result="BackgroundImageFix"/>
<feColorMatrix in="SourceAlpha" type="matrix" values="0 0 0 0 0 0 0 0 0 0 0 0 0 0 0 0 0 0 127 0" result="hardAlpha"/>
<feMorphology radius="88" operator="dilate" in="SourceAlpha" result="effect1_dropShadow_2_158"/>
<feOffset/>
<feGaussianBlur stdDeviation="121.2"/>
<feComposite in2="hardAlpha" operator="out"/>
<feColorMatrix type="matrix" values="0 0 0 0 0 0 0 0 0 0 0 0 0 0 0 0 0 0 0.25 0"/>
<feBlend mode="normal" in2="BackgroundImageFix" result="effect1_dropShadow_2_158"/>
<feBlend mode="normal" in="SourceGraphic" in2="effect1_dropShadow_2_158" result="shape"/>
</filter>
<filter id="filter1_i_2_158" x="522.4" y="486.4" width="3216" height="3304" filterUnits="userSpaceOnUse" color-interpolation-filters="sRGB">
<feFlood flood-opacity="0" result="BackgroundImageFix"/>
<feBlend mode="normal" in="SourceGraphic" in2="BackgroundImageFix" result="shape"/>
<feColorMatrix in="SourceAlpha" type="matrix" values="0 0 0 0 0 0 0 0 0 0 0 0 0 0 0 0 0 0 127 0" result="hardAlpha"/>
<feMorphology radius="60" operator="erode" in="SourceAlpha" result="effect1_innerShadow_2_158"/>
<feOffset dy="16"/>
<feGaussianBlur stdDeviation="53.4"/>
<feComposite in2="hardAlpha" operator="arithmetic" k2="-1" k3="1"/>
<feColorMatrix type="matrix" values="0 0 0 0 0 0 0 0 0 0 0 0 0 0 0 0 0 0 0.25 0"/>
<feBlend mode="normal" in2="shape" result="effect1_innerShadow_2_158"/>
</filter>
<filter id="filter2_d_2_158" x="1040.9" y="1899.65" width="2215.48" height="830.258" filterUnits="userSpaceOnUse" color-interpolation-filters="sRGB">
<feFlood flood-opacity="0" result="BackgroundImageFix"/>
<feColorMatrix in="SourceAlpha" type="matrix" values="0 0 0 0 0 0 0 0 0 0 0 0 0 0 0 0 0 0 127 0" result="hardAlpha"/>
<feOffset dy="140"/>
<feGaussianBlur stdDeviation="38"/>
<feComposite in2="hardAlpha" operator="out"/>
<feColorMatrix type="matrix" values="0 0 0 0 0 0 0 0 0 0 0 0 0 0 0 0 0 0 0.25 0"/>
<feBlend mode="normal" in2="BackgroundImageFix" result="effect1_dropShadow_2_158"/>
<feBlend mode="normal" in="SourceGraphic" in2="effect1_dropShadow_2_158" result="shape"/>
</filter>
<linearGradient id="paint0_linear_2_158" x1="3752.4" y1="948.4" x2="582.4" y2="3346.4" gradientUnits="userSpaceOnUse">
<stop stop-color="#5EE1F5"/>
<stop offset="0.341346" stop-color="#43D7CA"/>
<stop offset="0.668269" stop-color="#1AB087"/>
<stop offset="1" stop-color="#126E55"/>
</linearGradient>
<linearGradient id="paint1_linear_2_158" x1="3259.8" y1="736.2" x2="406.8" y2="2894.4" gradientUnits="userSpaceOnUse">
<stop stop-color="#5EE1F5"/>
<stop offset="0.341346" stop-color="#43D7CA"/>
<stop offset="0.668269" stop-color="#1AB087"/>
<stop offset="1" stop-color="#126E55"/>
</linearGradient>
<linearGradient id="paint2_linear_2_158" x1="1062.4" y1="3348.4" x2="3176.4" y2="904.4" gradientUnits="userSpaceOnUse">
<stop stop-color="#504F4F"/>
<stop offset="1" stop-color="#818181"/>
</linearGradient>
<linearGradient id="paint3_linear_2_158" x1="2131.9" y1="1634.4" x2="2131.9" y2="2634.4" gradientUnits="userSpaceOnUse">
<stop stop-color="#58DFEB"/>
<stop offset="1" stop-color="#158A6B"/>
</linearGradient>
<linearGradient id="paint4_linear_2_158" x1="2127.9" y1="1642.4" x2="2127.9" y2="2642.4" gradientUnits="userSpaceOnUse">
<stop stop-color="#58DFEB"/>
<stop offset="1" stop-color="#158A6B"/>
</linearGradient>
<linearGradient id="paint5_linear_2_158" x1="2127.9" y1="1642.4" x2="2127.9" y2="2642.4" gradientUnits="userSpaceOnUse">
<stop stop-color="#58DFEB"/>
<stop offset="1" stop-color="#158A6B"/>
</linearGradient>
<linearGradient id="paint6_linear_2_158" x1="2127.9" y1="1646.4" x2="2127.9" y2="2646.4" gradientUnits="userSpaceOnUse">
<stop stop-color="#58DFEB"/>
<stop offset="1" stop-color="#158A6B"/>
</linearGradient>
<linearGradient id="paint7_linear_2_158" x1="2131.9" y1="1662.4" x2="2131.9" y2="2662.4" gradientUnits="userSpaceOnUse">
<stop stop-color="#58DFEB"/>
<stop offset="1" stop-color="#158A6B"/>
</linearGradient>
<linearGradient id="paint8_linear_2_158" x1="2127.9" y1="1666.4" x2="2127.9" y2="2666.4" gradientUnits="userSpaceOnUse">
<stop stop-color="#58DFEB"/>
<stop offset="1" stop-color="#158A6B"/>
</linearGradient>
<linearGradient id="paint9_linear_2_158" x1="2127.9" y1="1666.4" x2="2127.9" y2="2666.4" gradientUnits="userSpaceOnUse">
<stop stop-color="#58DFEB"/>
<stop offset="1" stop-color="#158A6B"/>
</linearGradient>
<linearGradient id="paint10_linear_2_158" x1="2127.9" y1="1670.4" x2="2127.9" y2="2670.4" gradientUnits="userSpaceOnUse">
<stop stop-color="#58DFEB"/>
<stop offset="1" stop-color="#158A6B"/>
</linearGradient>
<linearGradient id="paint11_linear_2_158" x1="2131.9" y1="1658.4" x2="2131.9" y2="2658.4" gradientUnits="userSpaceOnUse">
<stop stop-color="#58DFEB"/>
<stop offset="1" stop-color="#158A6B"/>
</linearGradient>
<linearGradient id="paint12_linear_2_158" x1="2127.9" y1="1662.4" x2="2127.9" y2="2662.4" gradientUnits="userSpaceOnUse">
<stop stop-color="#58DFEB"/>
<stop offset="1" stop-color="#158A6B"/>
</linearGradient>
<linearGradient id="paint13_linear_2_158" x1="2127.9" y1="1662.4" x2="2127.9" y2="2662.4" gradientUnits="userSpaceOnUse">
<stop stop-color="#58DFEB"/>
<stop offset="1" stop-color="#158A6B"/>
</linearGradient>
<linearGradient id="paint14_linear_2_158" x1="2127.9" y1="1666.4" x2="2127.9" y2="2666.4" gradientUnits="userSpaceOnUse">
<stop stop-color="#58DFEB"/>
<stop offset="1" stop-color="#158A6B"/>
</linearGradient>
<linearGradient id="paint15_linear_2_158" x1="2131.9" y1="1654.4" x2="2131.9" y2="2654.4" gradientUnits="userSpaceOnUse">
<stop stop-color="#58DFEB"/>
<stop offset="1" stop-color="#158A6B"/>
</linearGradient>
<linearGradient id="paint16_linear_2_158" x1="2127.9" y1="1658.4" x2="2127.9" y2="2658.4" gradientUnits="userSpaceOnUse">
<stop stop-color="#58DFEB"/>
<stop offset="1" stop-color="#158A6B"/>
</linearGradient>
<linearGradient id="paint17_linear_2_158" x1="2127.9" y1="1658.4" x2="2127.9" y2="2658.4" gradientUnits="userSpaceOnUse">
<stop stop-color="#58DFEB"/>
<stop offset="1" stop-color="#158A6B"/>
</linearGradient>
<linearGradient id="paint18_linear_2_158" x1="2127.9" y1="1662.4" x2="2127.9" y2="2662.4" gradientUnits="userSpaceOnUse">
<stop stop-color="#58DFEB"/>
<stop offset="1" stop-color="#158A6B"/>
</linearGradient>
<linearGradient id="paint19_linear_2_158" x1="2131.9" y1="1650.4" x2="2131.9" y2="2650.4" gradientUnits="userSpaceOnUse">
<stop stop-color="#58DFEB"/>
<stop offset="1" stop-color="#158A6B"/>
</linearGradient>
<linearGradient id="paint20_linear_2_158" x1="2127.9" y1="1654.4" x2="2127.9" y2="2654.4" gradientUnits="userSpaceOnUse">
<stop stop-color="#58DFEB"/>
<stop offset="1" stop-color="#158A6B"/>
</linearGradient>
<linearGradient id="paint21_linear_2_158" x1="2127.9" y1="1654.4" x2="2127.9" y2="2654.4" gradientUnits="userSpaceOnUse">
<stop stop-color="#58DFEB"/>
<stop offset="1" stop-color="#158A6B"/>
</linearGradient>
<linearGradient id="paint22_linear_2_158" x1="2127.9" y1="1658.4" x2="2127.9" y2="2658.4" gradientUnits="userSpaceOnUse">
<stop stop-color="#58DFEB"/>
<stop offset="1" stop-color="#158A6B"/>
</linearGradient>
<linearGradient id="paint23_linear_2_158" x1="2131.9" y1="1646.4" x2="2131.9" y2="2646.4" gradientUnits="userSpaceOnUse">
<stop stop-color="#58DFEB"/>
<stop offset="1" stop-color="#158A6B"/>
</linearGradient>
<linearGradient id="paint24_linear_2_158" x1="2127.9" y1="1650.4" x2="2127.9" y2="2650.4" gradientUnits="userSpaceOnUse">
<stop stop-color="#58DFEB"/>
<stop offset="1" stop-color="#158A6B"/>
</linearGradient>
<linearGradient id="paint25_linear_2_158" x1="2127.9" y1="1650.4" x2="2127.9" y2="2650.4" gradientUnits="userSpaceOnUse">
<stop stop-color="#58DFEB"/>
<stop offset="1" stop-color="#158A6B"/>
</linearGradient>
<linearGradient id="paint26_linear_2_158" x1="2127.9" y1="1654.4" x2="2127.9" y2="2654.4" gradientUnits="userSpaceOnUse">
<stop stop-color="#58DFEB"/>
<stop offset="1" stop-color="#158A6B"/>
</linearGradient>
<linearGradient id="paint27_linear_2_158" x1="2131.9" y1="1642.4" x2="2131.9" y2="2642.4" gradientUnits="userSpaceOnUse">
<stop stop-color="#58DFEB"/>
<stop offset="1" stop-color="#158A6B"/>
</linearGradient>
<linearGradient id="paint28_linear_2_158" x1="2127.9" y1="1646.4" x2="2127.9" y2="2646.4" gradientUnits="userSpaceOnUse">
<stop stop-color="#58DFEB"/>
<stop offset="1" stop-color="#158A6B"/>
</linearGradient>
<linearGradient id="paint29_linear_2_158" x1="2127.9" y1="1646.4" x2="2127.9" y2="2646.4" gradientUnits="userSpaceOnUse">
<stop stop-color="#58DFEB"/>
<stop offset="1" stop-color="#158A6B"/>
</linearGradient>
<linearGradient id="paint30_linear_2_158" x1="2127.9" y1="1650.4" x2="2127.9" y2="2650.4" gradientUnits="userSpaceOnUse">
<stop stop-color="#58DFEB"/>
<stop offset="1" stop-color="#158A6B"/>
</linearGradient>
</defs>
</svg>
