<svg width="1095" height="1086" viewBox="0 0 1095 1086" fill="none" xmlns="http://www.w3.org/2000/svg">
<g clip-path="url(#clip0_4_3)">
<path d="M1095.52 542.973C1095.52 242.787 850.281 -0.561562 547.763 -0.561562C245.244 -0.561562 0.00390625 242.787 0.00390625 542.973C0.00390625 843.158 245.244 1086.51 547.763 1086.51C850.281 1086.51 1095.52 843.158 1095.52 542.973Z" fill="white"/>
<path d="M547.763 1086.51C850.281 1086.51 1095.52 843.158 1095.52 542.973C1095.52 242.787 850.281 -0.561562 547.763 -0.561562C245.244 -0.561562 0.00390625 242.787 0.00390625 542.973C0.00390625 843.158 245.244 1086.51 547.763 1086.51Z" fill="url(#paint0_linear_4_3)"/>
<path d="M1040.75 542.973C1040.75 813.14 820.03 1032.15 547.763 1032.15C275.496 1032.15 54.7798 813.14 54.7798 542.973C54.7798 272.806 275.496 53.7919 547.763 53.7919C820.03 53.7919 1040.75 272.806 1040.75 542.973Z" fill="url(#paint1_linear_4_3)"/>
<path d="M547.763 989.758C790.988 989.758 988.161 789.725 988.161 542.973C988.161 296.22 790.988 96.1876 547.763 96.1876C304.538 96.1876 107.365 296.22 107.365 542.973C107.365 789.725 304.538 989.758 547.763 989.758Z" fill="url(#paint2_linear_4_3)"/>
<path d="M355.239 647.198C345.966 647.198 336.783 646.136 327.69 644.013C318.775 641.891 310.216 638.792 302.014 634.724C293.811 630.476 286.591 624.905 280.35 618.005C274.108 611.105 270.72 602.876 270.186 593.323V582.175V497.514C270.186 492.56 271.969 488.489 275.535 485.304C279.279 481.942 283.647 480.263 288.64 480.263C299.34 481.148 305.133 486.896 306.026 497.514V585.094C306.382 590.578 308.433 595.179 312.177 598.894C316.099 602.433 320.38 605.265 325.017 607.387C329.829 609.512 334.734 611.105 339.727 612.165C344.898 613.227 350.068 613.757 355.239 613.757C360.41 613.757 365.491 613.227 370.483 612.165C375.654 611.105 380.557 609.512 385.193 607.387C390.008 605.265 394.286 602.433 398.033 598.894C401.955 595.179 404.094 590.578 404.45 585.094V497.514C404.45 492.56 406.233 488.489 409.802 485.304C413.545 481.942 417.914 480.263 422.907 480.263C433.604 481.148 439.487 486.896 440.558 497.514V582.175V593.323C440.024 602.876 436.546 611.105 430.126 618.005C423.887 624.905 416.665 630.476 408.462 634.724C400.26 638.792 391.613 641.891 382.52 644.013C373.603 646.136 364.51 647.198 355.239 647.198ZM494.05 480.263C499.042 480.263 503.323 481.942 506.889 485.304C510.455 488.489 512.326 492.56 512.506 497.514V561.475C512.326 568.728 512.772 575.452 513.843 581.645C515.092 587.659 517.943 593.057 522.402 597.834C526.858 602.612 532.475 605.178 539.251 605.531H624.838C629.831 605.708 633.931 607.564 637.141 611.105C640.528 614.643 642.224 618.888 642.224 623.843C642.046 628.62 640.263 632.689 636.875 636.05C633.665 639.235 629.653 640.918 624.838 641.094H530.158C517.677 640.385 507.335 636.227 499.133 628.62C491.108 620.834 485.313 611.368 481.747 600.223C478.359 589.075 476.576 577.221 476.398 564.66V497.514C476.576 492.737 478.359 488.755 481.747 485.57C485.135 482.208 489.235 480.439 494.05 480.263ZM728.614 520.071C721.838 520.427 716.133 522.992 711.496 527.767C707.037 532.545 703.827 538.032 701.867 544.223C699.906 550.24 698.925 556.431 698.925 562.801C698.925 569.171 699.815 575.452 701.601 581.645C703.562 587.836 706.859 593.323 711.496 598.098C716.133 602.699 721.838 605.178 728.614 605.531H816.874C828.108 606.591 834.26 612.695 835.331 623.843C835.153 628.797 833.279 632.955 829.713 636.317C826.148 639.502 821.867 641.094 816.874 641.094H731.555H719.252C706.772 640.385 696.518 635.697 688.493 627.028C680.471 618.182 674.676 608.183 671.11 597.038C667.722 585.89 666.027 574.479 666.027 562.801C666.027 554.132 667.007 545.549 668.968 537.056C670.932 528.564 673.961 520.514 678.064 512.907C682.342 505.121 687.959 498.487 694.913 493.003C702.044 487.516 710.16 484.687 719.252 484.51H724.333H816.874C828.108 485.57 834.26 491.674 835.331 502.822C835.331 507.776 833.457 511.934 829.713 515.296C826.148 518.481 821.867 520.071 816.874 520.071H728.614Z" fill="url(#paint3_linear_4_3)"/>
<path d="M354.144 649.372C344.87 649.372 335.687 648.31 326.594 646.187C317.679 644.065 309.121 640.967 300.918 636.898C292.715 632.651 285.496 627.079 279.254 620.179C273.012 613.279 269.624 605.05 269.09 595.497V584.349V499.688C269.09 494.734 270.873 490.663 274.439 487.478C278.183 484.116 282.552 482.437 287.544 482.437C298.245 483.323 304.037 489.071 304.93 499.688V587.268C305.286 592.752 307.338 597.353 311.082 601.068C315.003 604.607 319.284 607.439 323.921 609.561C328.733 611.686 333.638 613.279 338.631 614.339C343.802 615.402 348.973 615.931 354.144 615.931C359.314 615.931 364.395 615.402 369.388 614.339C374.559 613.279 379.461 611.686 384.098 609.561C388.913 607.439 393.191 604.607 396.937 601.068C400.859 597.353 402.998 592.752 403.354 587.268V499.688C403.354 494.734 405.137 490.663 408.706 487.478C412.45 484.116 416.818 482.437 421.811 482.437C432.509 483.323 438.392 489.071 439.462 499.688V584.349V595.497C438.928 605.05 435.45 613.279 429.03 620.179C422.791 627.079 415.569 632.651 407.367 636.898C399.164 640.967 390.518 644.065 381.425 646.187C372.507 648.31 363.414 649.372 354.144 649.372ZM492.954 482.437C497.947 482.437 502.227 484.116 505.793 487.478C509.359 490.663 511.23 494.734 511.411 499.688V563.649C511.23 570.902 511.676 577.626 512.747 583.819C513.996 589.834 516.847 595.231 521.306 600.009C525.762 604.786 531.379 607.352 538.155 607.705H623.742C628.735 607.882 632.835 609.738 636.045 613.279C639.433 616.817 641.128 621.062 641.128 626.017C640.95 630.794 639.167 634.863 635.779 638.224C632.569 641.41 628.557 643.092 623.742 643.269H529.062C516.581 642.559 506.24 638.401 498.037 630.794C490.012 623.008 484.217 613.543 480.651 602.397C477.263 591.25 475.48 579.395 475.302 566.834V499.688C475.48 494.911 477.263 490.929 480.651 487.744C484.039 484.383 488.139 482.613 492.954 482.437ZM727.518 522.245C720.742 522.601 715.037 525.167 710.4 529.942C705.942 534.719 702.732 540.206 700.771 546.397C698.81 552.414 697.829 558.605 697.829 564.975C697.829 571.345 698.719 577.626 700.505 583.819C702.466 590.01 705.764 595.497 710.4 600.272C715.037 604.873 720.742 607.352 727.518 607.705H815.778C827.013 608.765 833.164 614.869 834.235 626.017C834.057 630.971 832.184 635.129 828.618 638.491C825.052 641.676 820.771 643.269 815.778 643.269H730.459H718.157C705.676 642.559 695.422 637.871 687.397 629.202C679.375 620.356 673.58 610.358 670.014 599.212C666.626 588.064 664.931 576.653 664.931 564.975C664.931 556.306 665.911 547.723 667.872 539.231C669.836 530.738 672.865 522.688 676.968 515.081C681.246 507.295 686.863 500.661 693.817 495.177C700.949 489.69 709.064 486.861 718.157 486.684H723.237H815.778C827.013 487.744 833.164 493.848 834.235 504.996C834.235 509.95 832.362 514.108 828.618 517.47C825.052 520.655 820.771 522.245 815.778 522.245H727.518Z" fill="url(#paint4_linear_4_3)"/>
<path d="M354.144 649.372C344.87 649.372 335.687 648.31 326.594 646.187C317.679 644.065 309.121 640.967 300.918 636.898C292.715 632.651 285.496 627.079 279.254 620.179C273.012 613.279 269.624 605.05 269.09 595.497V584.349V499.688C269.09 494.734 270.873 490.663 274.439 487.478C278.183 484.116 282.552 482.437 287.544 482.437C298.245 483.323 304.037 489.071 304.93 499.688V587.268C305.286 592.752 307.338 597.353 311.082 601.068C315.003 604.607 319.284 607.439 323.921 609.561C328.733 611.686 333.638 613.279 338.631 614.339C343.802 615.402 348.973 615.931 354.144 615.931C359.314 615.931 364.395 615.402 369.388 614.339C374.559 613.279 379.461 611.686 384.098 609.561C388.913 607.439 393.191 604.607 396.937 601.068C400.859 597.353 402.998 592.752 403.354 587.268V499.688C403.354 494.734 405.137 490.663 408.706 487.478C412.45 484.116 416.818 482.437 421.811 482.437C432.509 483.323 438.392 489.071 439.462 499.688V584.349V595.497C438.928 605.05 435.45 613.279 429.03 620.179C422.791 627.079 415.569 632.651 407.367 636.898C399.164 640.967 390.518 644.065 381.425 646.187C372.507 648.31 363.414 649.372 354.144 649.372ZM492.954 482.437C497.947 482.437 502.227 484.116 505.793 487.478C509.359 490.663 511.23 494.734 511.411 499.688V563.649C511.23 570.902 511.676 577.626 512.747 583.819C513.996 589.834 516.847 595.231 521.306 600.009C525.762 604.786 531.379 607.352 538.155 607.705H623.742C628.735 607.882 632.835 609.738 636.045 613.279C639.433 616.817 641.128 621.062 641.128 626.017C640.95 630.794 639.167 634.863 635.779 638.224C632.569 641.41 628.557 643.092 623.742 643.269H529.062C516.581 642.559 506.24 638.401 498.037 630.794C490.012 623.008 484.217 613.543 480.651 602.397C477.263 591.25 475.48 579.395 475.302 566.834V499.688C475.48 494.911 477.263 490.929 480.651 487.744C484.039 484.383 488.139 482.613 492.954 482.437ZM727.518 522.245C720.742 522.601 715.037 525.167 710.4 529.942C705.942 534.719 702.732 540.206 700.771 546.397C698.81 552.414 697.829 558.605 697.829 564.975C697.829 571.345 698.719 577.626 700.505 583.819C702.466 590.01 705.764 595.497 710.4 600.272C715.037 604.873 720.742 607.352 727.518 607.705H815.778C827.013 608.765 833.164 614.869 834.235 626.017C834.057 630.971 832.184 635.129 828.618 638.491C825.052 641.676 820.771 643.269 815.778 643.269H730.459H718.157C705.676 642.559 695.422 637.871 687.397 629.202C679.375 620.356 673.58 610.358 670.014 599.212C666.626 588.064 664.931 576.653 664.931 564.975C664.931 556.306 665.911 547.723 667.872 539.231C669.836 530.738 672.865 522.688 676.968 515.081C681.246 507.295 686.863 500.661 693.817 495.177C700.949 489.69 709.064 486.861 718.157 486.684H723.237H815.778C827.013 487.744 833.164 493.848 834.235 504.996C834.235 509.95 832.362 514.108 828.618 517.47C825.052 520.655 820.771 522.245 815.778 522.245H727.518Z" fill="url(#paint5_linear_4_3)"/>
<path d="M354.144 650.459C344.87 650.459 335.687 649.397 326.594 647.274C317.679 645.152 309.121 642.054 300.918 637.985C292.715 633.738 285.496 628.166 279.254 621.266C273.012 614.366 269.624 606.137 269.09 596.584V585.436V500.776C269.09 495.821 270.873 491.75 274.439 488.565C278.183 485.203 282.552 483.524 287.544 483.524C298.245 484.41 304.037 490.158 304.93 500.776V588.355C305.286 593.839 307.338 598.44 311.082 602.156C315.003 605.694 319.284 608.526 323.921 610.648C328.733 612.773 333.638 614.366 338.631 615.426C343.802 616.489 348.973 617.019 354.144 617.019C359.314 617.019 364.395 616.489 369.388 615.426C374.559 614.366 379.461 612.773 384.098 610.648C388.913 608.526 393.191 605.694 396.937 602.156C400.859 598.44 402.998 593.839 403.354 588.355V500.776C403.354 495.821 405.137 491.75 408.706 488.565C412.45 485.203 416.818 483.524 421.811 483.524C432.509 484.41 438.392 490.158 439.462 500.776V585.436V596.584C438.928 606.137 435.45 614.366 429.03 621.266C422.791 628.166 415.569 633.738 407.367 637.985C399.164 642.054 390.518 645.152 381.425 647.274C372.507 649.397 363.414 650.459 354.144 650.459ZM492.954 483.524C497.947 483.524 502.227 485.203 505.793 488.565C509.359 491.75 511.23 495.821 511.411 500.776V564.736C511.23 571.989 511.676 578.713 512.747 584.906C513.996 590.921 516.847 596.318 521.306 601.096C525.762 605.873 531.379 608.439 538.155 608.792H623.742C628.735 608.969 632.835 610.825 636.045 614.366C639.433 617.904 641.128 622.149 641.128 627.104C640.95 631.881 639.167 635.95 635.779 639.312C632.569 642.497 628.557 644.179 623.742 644.356H529.062C516.581 643.646 506.24 639.488 498.037 631.881C490.012 624.095 484.217 614.63 480.651 603.485C477.263 592.337 475.48 580.482 475.302 567.921V500.776C475.48 495.998 477.263 492.016 480.651 488.831C484.039 485.47 488.139 483.7 492.954 483.524ZM727.518 523.332C720.742 523.688 715.037 526.254 710.4 531.029C705.942 535.806 702.732 541.293 700.771 547.484C698.81 553.501 697.829 559.692 697.829 566.062C697.829 572.432 698.719 578.713 700.505 584.906C702.466 591.097 705.764 596.584 710.4 601.359C715.037 605.96 720.742 608.439 727.518 608.792H815.778C827.013 609.852 833.164 615.956 834.235 627.104C834.057 632.058 832.184 636.216 828.618 639.578C825.052 642.763 820.771 644.356 815.778 644.356H730.459H718.157C705.676 643.646 695.422 638.958 687.397 630.289C679.375 621.443 673.58 611.445 670.014 600.299C666.626 589.152 664.931 577.74 664.931 566.062C664.931 557.393 665.911 548.81 667.872 540.318C669.836 531.825 672.865 523.775 676.968 516.168C681.246 508.382 686.863 501.748 693.817 496.264C700.949 490.777 709.064 487.948 718.157 487.771H723.237H815.778C827.013 488.831 833.164 494.935 834.235 506.083C834.235 511.037 832.362 515.196 828.618 518.557C825.052 521.742 820.771 523.332 815.778 523.332H727.518Z" fill="url(#paint6_linear_4_3)"/>
<path d="M355.239 654.808C345.966 654.808 336.783 653.745 327.69 651.623C318.775 649.5 310.216 646.402 302.014 642.334C293.811 638.086 286.591 632.515 280.35 625.615C274.108 618.714 270.72 610.485 270.186 600.933V589.785V505.124C270.186 500.17 271.969 496.098 275.535 492.913C279.279 489.552 283.647 487.872 288.64 487.872C299.34 488.758 305.133 494.506 306.026 505.124V592.704C306.382 598.188 308.433 602.789 312.177 606.504C316.099 610.042 320.38 612.874 325.017 614.997C329.829 617.122 334.734 618.714 339.727 619.774C344.898 620.837 350.068 621.367 355.239 621.367C360.41 621.367 365.491 620.837 370.483 619.774C375.654 618.714 380.557 617.122 385.193 614.997C390.008 612.874 394.286 610.042 398.033 606.504C401.955 602.789 404.094 598.188 404.45 592.704V505.124C404.45 500.17 406.233 496.098 409.802 492.913C413.545 489.552 417.914 487.872 422.907 487.872C433.604 488.758 439.487 494.506 440.558 505.124V589.785V600.933C440.024 610.485 436.546 618.714 430.126 625.615C423.887 632.515 416.665 638.086 408.462 642.334C400.26 646.402 391.613 649.5 382.52 651.623C373.603 653.745 364.51 654.808 355.239 654.808ZM494.05 487.872C499.042 487.872 503.323 489.552 506.889 492.913C510.455 496.098 512.326 500.17 512.506 505.124V569.084C512.326 576.338 512.772 583.061 513.843 589.255C515.092 595.269 517.943 600.666 522.402 605.444C526.858 610.222 532.475 612.787 539.251 613.14H624.838C629.831 613.317 633.931 615.173 637.141 618.714C640.528 622.253 642.224 626.498 642.224 631.452C642.046 636.23 640.263 640.298 636.875 643.66C633.665 646.845 629.653 648.527 624.838 648.704H530.158C517.677 647.995 507.335 643.837 499.133 636.23C491.108 628.444 485.313 618.978 481.747 607.833C478.359 596.685 476.576 584.83 476.398 572.269V505.124C476.576 500.346 478.359 496.365 481.747 493.18C485.135 489.818 489.235 488.049 494.05 487.872ZM728.614 527.68C721.838 528.037 716.133 530.602 711.496 535.377C707.037 540.155 703.827 545.642 701.867 551.832C699.906 557.849 698.925 564.04 698.925 570.411C698.925 576.781 699.815 583.061 701.601 589.255C703.562 595.446 706.859 600.933 711.496 605.708C716.133 610.309 721.838 612.787 728.614 613.14H816.874C828.108 614.2 834.26 620.304 835.331 631.452C835.153 636.406 833.279 640.564 829.713 643.926C826.148 647.111 821.867 648.704 816.874 648.704H731.555H719.252C706.772 647.995 696.518 643.307 688.493 634.637C680.471 625.791 674.676 615.793 671.11 604.648C667.722 593.5 666.027 582.088 666.027 570.411C666.027 561.741 667.007 553.159 668.968 544.666C670.932 536.173 673.961 528.124 678.064 520.517C682.342 512.731 687.959 506.097 694.913 500.613C702.044 495.126 710.16 492.296 719.252 492.12H724.333H816.874C828.108 493.18 834.26 499.284 835.331 510.431C835.331 515.386 833.457 519.544 829.713 522.906C826.148 526.091 821.867 527.68 816.874 527.68H728.614Z" fill="url(#paint7_linear_4_3)"/>
<path d="M354.144 655.895C344.87 655.895 335.687 654.832 326.594 652.71C317.679 650.587 309.121 647.489 300.918 643.421C292.715 639.173 285.496 633.602 279.254 626.702C273.012 619.801 269.624 611.572 269.09 602.02V590.872V506.211C269.09 501.257 270.873 497.185 274.439 494C278.183 490.639 282.552 488.959 287.544 488.959C298.245 489.845 304.037 495.593 304.93 506.211V593.791C305.286 599.275 307.338 603.876 311.082 607.591C315.003 611.129 319.284 613.961 323.921 616.084C328.733 618.209 333.638 619.801 338.631 620.861C343.802 621.924 348.973 622.454 354.144 622.454C359.314 622.454 364.395 621.924 369.388 620.861C374.559 619.801 379.461 618.209 384.098 616.084C388.913 613.961 393.191 611.129 396.937 607.591C400.859 603.876 402.998 599.275 403.354 593.791V506.211C403.354 501.257 405.137 497.185 408.706 494C412.45 490.639 416.818 488.959 421.811 488.959C432.509 489.845 438.392 495.593 439.462 506.211V590.872V602.02C438.928 611.572 435.45 619.801 429.03 626.702C422.791 633.602 415.569 639.173 407.367 643.421C399.164 647.489 390.518 650.587 381.425 652.71C372.507 654.832 363.414 655.895 354.144 655.895ZM492.954 488.959C497.947 488.959 502.227 490.639 505.793 494C509.359 497.185 511.23 501.257 511.411 506.211V570.171C511.23 577.425 511.676 584.148 512.747 590.342C513.996 596.356 516.847 601.753 521.306 606.531C525.762 611.309 531.379 613.874 538.155 614.227H623.742C628.735 614.404 632.835 616.26 636.045 619.801C639.433 623.34 641.128 627.585 641.128 632.539C640.95 637.317 639.167 641.385 635.779 644.747C632.569 647.932 628.557 649.614 623.742 649.791H529.062C516.581 649.082 506.24 644.924 498.037 637.317C490.012 629.531 484.217 620.065 480.651 608.92C477.263 597.772 475.48 585.917 475.302 573.356V506.211C475.48 501.433 477.263 497.452 480.651 494.267C484.039 490.905 488.139 489.136 492.954 488.959ZM727.518 528.768C720.742 529.124 715.037 531.689 710.4 536.464C705.942 541.242 702.732 546.729 700.771 552.92C698.81 558.936 697.829 565.127 697.829 571.498C697.829 577.868 698.719 584.148 700.505 590.342C702.466 596.533 705.764 602.02 710.4 606.795C715.037 611.396 720.742 613.874 727.518 614.227H815.778C827.013 615.287 833.164 621.391 834.235 632.539C834.057 637.493 832.184 641.652 828.618 645.013C825.052 648.198 820.771 649.791 815.778 649.791H730.459H718.157C705.676 649.082 695.422 644.394 687.397 635.724C679.375 626.878 673.58 616.88 670.014 605.735C666.626 594.587 664.931 583.175 664.931 571.498C664.931 562.828 665.911 554.246 667.872 545.753C669.836 537.26 672.865 529.211 676.968 521.604C681.246 513.818 686.863 507.184 693.817 501.7C700.949 496.213 709.064 493.383 718.157 493.207H723.237H815.778C827.013 494.267 833.164 500.371 834.235 511.519C834.235 516.473 832.362 520.631 828.618 523.993C825.052 527.178 820.771 528.768 815.778 528.768H727.518Z" fill="url(#paint8_linear_4_3)"/>
<path d="M354.144 655.895C344.87 655.895 335.687 654.832 326.594 652.71C317.679 650.587 309.121 647.489 300.918 643.421C292.715 639.173 285.496 633.602 279.254 626.702C273.012 619.801 269.624 611.572 269.09 602.02V590.872V506.211C269.09 501.257 270.873 497.185 274.439 494C278.183 490.639 282.552 488.959 287.544 488.959C298.245 489.845 304.037 495.593 304.93 506.211V593.791C305.286 599.275 307.338 603.876 311.082 607.591C315.003 611.129 319.284 613.961 323.921 616.084C328.733 618.209 333.638 619.801 338.631 620.861C343.802 621.924 348.973 622.454 354.144 622.454C359.314 622.454 364.395 621.924 369.388 620.861C374.559 619.801 379.461 618.209 384.098 616.084C388.913 613.961 393.191 611.129 396.937 607.591C400.859 603.876 402.998 599.275 403.354 593.791V506.211C403.354 501.257 405.137 497.185 408.706 494C412.45 490.639 416.818 488.959 421.811 488.959C432.509 489.845 438.392 495.593 439.462 506.211V590.872V602.02C438.928 611.572 435.45 619.801 429.03 626.702C422.791 633.602 415.569 639.173 407.367 643.421C399.164 647.489 390.518 650.587 381.425 652.71C372.507 654.832 363.414 655.895 354.144 655.895ZM492.954 488.959C497.947 488.959 502.227 490.639 505.793 494C509.359 497.185 511.23 501.257 511.411 506.211V570.171C511.23 577.425 511.676 584.148 512.747 590.342C513.996 596.356 516.847 601.753 521.306 606.531C525.762 611.309 531.379 613.874 538.155 614.227H623.742C628.735 614.404 632.835 616.26 636.045 619.801C639.433 623.34 641.128 627.585 641.128 632.539C640.95 637.317 639.167 641.385 635.779 644.747C632.569 647.932 628.557 649.614 623.742 649.791H529.062C516.581 649.082 506.24 644.924 498.037 637.317C490.012 629.531 484.217 620.065 480.651 608.92C477.263 597.772 475.48 585.917 475.302 573.356V506.211C475.48 501.433 477.263 497.452 480.651 494.267C484.039 490.905 488.139 489.136 492.954 488.959ZM727.518 528.768C720.742 529.124 715.037 531.689 710.4 536.464C705.942 541.242 702.732 546.729 700.771 552.92C698.81 558.936 697.829 565.127 697.829 571.498C697.829 577.868 698.719 584.148 700.505 590.342C702.466 596.533 705.764 602.02 710.4 606.795C715.037 611.396 720.742 613.874 727.518 614.227H815.778C827.013 615.287 833.164 621.391 834.235 632.539C834.057 637.493 832.184 641.652 828.618 645.013C825.052 648.198 820.771 649.791 815.778 649.791H730.459H718.157C705.676 649.082 695.422 644.394 687.397 635.724C679.375 626.878 673.58 616.88 670.014 605.735C666.626 594.587 664.931 583.175 664.931 571.498C664.931 562.828 665.911 554.246 667.872 545.753C669.836 537.26 672.865 529.211 676.968 521.604C681.246 513.818 686.863 507.184 693.817 501.7C700.949 496.213 709.064 493.383 718.157 493.207H723.237H815.778C827.013 494.267 833.164 500.371 834.235 511.519C834.235 516.473 832.362 520.631 828.618 523.993C825.052 527.178 820.771 528.768 815.778 528.768H727.518Z" fill="url(#paint9_linear_4_3)"/>
<path d="M354.144 656.982C344.87 656.982 335.687 655.919 326.594 653.797C317.679 651.674 309.121 648.576 300.918 644.508C292.715 640.26 285.496 634.689 279.254 627.789C273.012 620.888 269.624 612.659 269.09 603.107V591.959V507.298C269.09 502.344 270.873 498.273 274.439 495.087C278.183 491.726 282.552 490.046 287.544 490.046C298.245 490.932 304.037 496.68 304.93 507.298V594.878C305.286 600.362 307.338 604.963 311.082 608.678C315.003 612.216 319.284 615.048 323.921 617.171C328.733 619.296 333.638 620.888 338.631 621.948C343.802 623.011 348.973 623.541 354.144 623.541C359.314 623.541 364.395 623.011 369.388 621.948C374.559 620.888 379.461 619.296 384.098 617.171C388.913 615.048 393.191 612.216 396.937 608.678C400.859 604.963 402.998 600.362 403.354 594.878V507.298C403.354 502.344 405.137 498.273 408.706 495.087C412.45 491.726 416.818 490.046 421.811 490.046C432.509 490.932 438.392 496.68 439.462 507.298V591.959V603.107C438.928 612.659 435.45 620.888 429.03 627.789C422.791 634.689 415.569 640.26 407.367 644.508C399.164 648.576 390.518 651.674 381.425 653.797C372.507 655.919 363.414 656.982 354.144 656.982ZM492.954 490.046C497.947 490.046 502.227 491.726 505.793 495.087C509.359 498.273 511.23 502.344 511.411 507.298V571.258C511.23 578.512 511.676 585.235 512.747 591.429C513.996 597.443 516.847 602.84 521.306 607.618C525.762 612.396 531.379 614.961 538.155 615.315H623.742C628.735 615.491 632.835 617.347 636.045 620.888C639.433 624.427 641.128 628.672 641.128 633.626C640.95 638.404 639.167 642.472 635.779 645.834C632.569 649.019 628.557 650.701 623.742 650.878H529.062C516.581 650.169 506.24 646.011 498.037 638.404C490.012 630.618 484.217 621.152 480.651 610.007C477.263 598.859 475.48 587.005 475.302 574.443V507.298C475.48 502.52 477.263 498.539 480.651 495.354C484.039 491.992 488.139 490.223 492.954 490.046ZM727.518 529.855C720.742 530.211 715.037 532.776 710.4 537.551C705.942 542.329 702.732 547.816 700.771 554.007C698.81 560.023 697.829 566.214 697.829 572.585C697.829 578.955 698.719 585.235 700.505 591.429C702.466 597.62 705.764 603.107 710.4 607.882C715.037 612.483 720.742 614.961 727.518 615.315H815.778C827.013 616.374 833.164 622.478 834.235 633.626C834.057 638.58 832.184 642.739 828.618 646.1C825.052 649.285 820.771 650.878 815.778 650.878H730.459H718.157C705.676 650.169 695.422 645.481 687.397 636.811C679.375 627.965 673.58 617.967 670.014 606.822C666.626 595.674 664.931 584.262 664.931 572.585C664.931 563.915 665.911 555.333 667.872 546.84C669.836 538.347 672.865 530.298 676.968 522.691C681.246 514.905 686.863 508.271 693.817 502.787C700.949 497.3 709.064 494.471 718.157 494.294H723.237H815.778C827.013 495.354 833.164 501.458 834.235 512.606C834.235 517.56 832.362 521.718 828.618 525.08C825.052 528.265 820.771 529.855 815.778 529.855H727.518Z" fill="url(#paint10_linear_4_3)"/>
<path d="M355.239 653.721C345.966 653.721 336.783 652.658 327.69 650.536C318.775 648.413 310.216 645.315 302.014 641.247C293.811 636.999 286.591 631.428 280.35 624.527C274.108 617.627 270.72 609.398 270.186 599.846V588.698V504.037C270.186 499.082 271.969 495.011 275.535 491.826C279.279 488.464 283.647 486.785 288.64 486.785C299.34 487.671 305.133 493.419 306.026 504.037V591.616C306.382 597.101 308.433 601.702 312.177 605.417C316.099 608.955 320.38 611.787 325.017 613.909C329.829 616.035 334.734 617.627 339.727 618.687C344.898 619.75 350.068 620.28 355.239 620.28C360.41 620.28 365.491 619.75 370.483 618.687C375.654 617.627 380.557 616.035 385.193 613.909C390.008 611.787 394.286 608.955 398.033 605.417C401.955 601.702 404.094 597.101 404.45 591.616V504.037C404.45 499.082 406.233 495.011 409.802 491.826C413.545 488.464 417.914 486.785 422.907 486.785C433.604 487.671 439.487 493.419 440.558 504.037V588.698V599.846C440.024 609.398 436.546 617.627 430.126 624.527C423.887 631.428 416.665 636.999 408.462 641.247C400.26 645.315 391.613 648.413 382.52 650.536C373.603 652.658 364.51 653.721 355.239 653.721ZM494.05 486.785C499.042 486.785 503.323 488.464 506.889 491.826C510.455 495.011 512.326 499.082 512.506 504.037V567.997C512.326 575.251 512.772 581.974 513.843 588.168C515.092 594.182 517.943 599.579 522.402 604.357C526.858 609.135 532.475 611.7 539.251 612.053H624.838C629.831 612.23 633.931 614.086 637.141 617.627C640.528 621.166 642.224 625.411 642.224 630.365C642.046 635.143 640.263 639.211 636.875 642.573C633.665 645.758 629.653 647.44 624.838 647.617H530.158C517.677 646.907 507.335 642.749 499.133 635.143C491.108 627.357 485.313 617.891 481.747 606.746C478.359 595.598 476.576 583.743 476.398 571.182V504.037C476.576 499.259 478.359 495.278 481.747 492.093C485.135 488.731 489.235 486.962 494.05 486.785ZM728.614 526.593C721.838 526.949 716.133 529.515 711.496 534.29C707.037 539.068 703.827 544.555 701.867 550.745C699.906 556.762 698.925 562.953 698.925 569.323C698.925 575.694 699.815 581.974 701.601 588.168C703.562 594.359 706.859 599.846 711.496 604.621C716.133 609.222 721.838 611.7 728.614 612.053H816.874C828.108 613.113 834.26 619.217 835.331 630.365C835.153 635.319 833.279 639.477 829.713 642.839C826.148 646.024 821.867 647.617 816.874 647.617H731.555H719.252C706.772 646.907 696.518 642.219 688.493 633.55C680.471 624.704 674.676 614.706 671.11 603.561C667.722 592.413 666.027 581.001 666.027 569.323C666.027 560.654 667.007 552.072 668.968 543.579C670.932 535.086 673.961 527.036 678.064 519.43C682.342 511.644 687.959 505.01 694.913 499.525C702.044 494.038 710.16 491.209 719.252 491.033H724.333H816.874C828.108 492.093 834.26 498.196 835.331 509.344C835.331 514.299 833.457 518.457 829.713 521.818C826.148 525.004 821.867 526.593 816.874 526.593H728.614Z" fill="url(#paint11_linear_4_3)"/>
<path d="M354.144 654.808C344.87 654.808 335.687 653.745 326.594 651.623C317.679 649.5 309.121 646.402 300.918 642.334C292.715 638.086 285.496 632.515 279.254 625.615C273.012 618.714 269.624 610.485 269.09 600.933V589.785V505.124C269.09 500.17 270.873 496.098 274.439 492.913C278.183 489.552 282.552 487.872 287.544 487.872C298.245 488.758 304.037 494.506 304.93 505.124V592.704C305.286 598.188 307.338 602.789 311.082 606.504C315.003 610.042 319.284 612.874 323.921 614.997C328.733 617.122 333.638 618.714 338.631 619.774C343.802 620.837 348.973 621.367 354.144 621.367C359.314 621.367 364.395 620.837 369.388 619.774C374.559 618.714 379.461 617.122 384.098 614.997C388.913 612.874 393.191 610.042 396.937 606.504C400.859 602.789 402.998 598.188 403.354 592.704V505.124C403.354 500.17 405.137 496.098 408.706 492.913C412.45 489.552 416.818 487.872 421.811 487.872C432.509 488.758 438.392 494.506 439.462 505.124V589.785V600.933C438.928 610.485 435.45 618.714 429.03 625.615C422.791 632.515 415.569 638.086 407.367 642.334C399.164 646.402 390.518 649.5 381.425 651.623C372.507 653.745 363.414 654.808 354.144 654.808ZM492.954 487.872C497.947 487.872 502.227 489.552 505.793 492.913C509.359 496.098 511.23 500.17 511.411 505.124V569.084C511.23 576.338 511.676 583.061 512.747 589.255C513.996 595.269 516.847 600.666 521.306 605.444C525.762 610.222 531.379 612.787 538.155 613.14H623.742C628.735 613.317 632.835 615.173 636.045 618.714C639.433 622.253 641.128 626.498 641.128 631.452C640.95 636.23 639.167 640.298 635.779 643.66C632.569 646.845 628.557 648.527 623.742 648.704H529.062C516.581 647.995 506.24 643.837 498.037 636.23C490.012 628.444 484.217 618.978 480.651 607.833C477.263 596.685 475.48 584.83 475.302 572.269V505.124C475.48 500.346 477.263 496.365 480.651 493.18C484.039 489.818 488.139 488.049 492.954 487.872ZM727.518 527.68C720.742 528.037 715.037 530.602 710.4 535.377C705.942 540.155 702.732 545.642 700.771 551.832C698.81 557.849 697.829 564.04 697.829 570.411C697.829 576.781 698.719 583.061 700.505 589.255C702.466 595.446 705.764 600.933 710.4 605.708C715.037 610.309 720.742 612.787 727.518 613.14H815.778C827.013 614.2 833.164 620.304 834.235 631.452C834.057 636.406 832.184 640.564 828.618 643.926C825.052 647.111 820.771 648.704 815.778 648.704H730.459H718.157C705.676 647.995 695.422 643.307 687.397 634.637C679.375 625.791 673.58 615.793 670.014 604.648C666.626 593.5 664.931 582.088 664.931 570.411C664.931 561.741 665.911 553.159 667.872 544.666C669.836 536.173 672.865 528.124 676.968 520.517C681.246 512.731 686.863 506.097 693.817 500.613C700.949 495.126 709.064 492.296 718.157 492.12H723.237H815.778C827.013 493.18 833.164 499.284 834.235 510.431C834.235 515.386 832.362 519.544 828.618 522.906C825.052 526.091 820.771 527.68 815.778 527.68H727.518Z" fill="url(#paint12_linear_4_3)"/>
<path d="M354.144 654.808C344.87 654.808 335.687 653.745 326.594 651.623C317.679 649.5 309.121 646.402 300.918 642.334C292.715 638.086 285.496 632.515 279.254 625.615C273.012 618.714 269.624 610.485 269.09 600.933V589.785V505.124C269.09 500.17 270.873 496.098 274.439 492.913C278.183 489.552 282.552 487.872 287.544 487.872C298.245 488.758 304.037 494.506 304.93 505.124V592.704C305.286 598.188 307.338 602.789 311.082 606.504C315.003 610.042 319.284 612.874 323.921 614.997C328.733 617.122 333.638 618.714 338.631 619.774C343.802 620.837 348.973 621.367 354.144 621.367C359.314 621.367 364.395 620.837 369.388 619.774C374.559 618.714 379.461 617.122 384.098 614.997C388.913 612.874 393.191 610.042 396.937 606.504C400.859 602.789 402.998 598.188 403.354 592.704V505.124C403.354 500.17 405.137 496.098 408.706 492.913C412.45 489.552 416.818 487.872 421.811 487.872C432.509 488.758 438.392 494.506 439.462 505.124V589.785V600.933C438.928 610.485 435.45 618.714 429.03 625.615C422.791 632.515 415.569 638.086 407.367 642.334C399.164 646.402 390.518 649.5 381.425 651.623C372.507 653.745 363.414 654.808 354.144 654.808ZM492.954 487.872C497.947 487.872 502.227 489.552 505.793 492.913C509.359 496.098 511.23 500.17 511.411 505.124V569.084C511.23 576.338 511.676 583.061 512.747 589.255C513.996 595.269 516.847 600.666 521.306 605.444C525.762 610.222 531.379 612.787 538.155 613.14H623.742C628.735 613.317 632.835 615.173 636.045 618.714C639.433 622.253 641.128 626.498 641.128 631.452C640.95 636.23 639.167 640.298 635.779 643.66C632.569 646.845 628.557 648.527 623.742 648.704H529.062C516.581 647.995 506.24 643.837 498.037 636.23C490.012 628.444 484.217 618.978 480.651 607.833C477.263 596.685 475.48 584.83 475.302 572.269V505.124C475.48 500.346 477.263 496.365 480.651 493.18C484.039 489.818 488.139 488.049 492.954 487.872ZM727.518 527.68C720.742 528.037 715.037 530.602 710.4 535.377C705.942 540.155 702.732 545.642 700.771 551.832C698.81 557.849 697.829 564.04 697.829 570.411C697.829 576.781 698.719 583.061 700.505 589.255C702.466 595.446 705.764 600.933 710.4 605.708C715.037 610.309 720.742 612.787 727.518 613.14H815.778C827.013 614.2 833.164 620.304 834.235 631.452C834.057 636.406 832.184 640.564 828.618 643.926C825.052 647.111 820.771 648.704 815.778 648.704H730.459H718.157C705.676 647.995 695.422 643.307 687.397 634.637C679.375 625.791 673.58 615.793 670.014 604.648C666.626 593.5 664.931 582.088 664.931 570.411C664.931 561.741 665.911 553.159 667.872 544.666C669.836 536.173 672.865 528.124 676.968 520.517C681.246 512.731 686.863 506.097 693.817 500.613C700.949 495.126 709.064 492.296 718.157 492.12H723.237H815.778C827.013 493.18 833.164 499.284 834.235 510.431C834.235 515.386 832.362 519.544 828.618 522.906C825.052 526.091 820.771 527.68 815.778 527.68H727.518Z" fill="url(#paint13_linear_4_3)"/>
<path d="M354.144 655.895C344.87 655.895 335.687 654.832 326.594 652.71C317.679 650.587 309.121 647.489 300.918 643.421C292.715 639.173 285.496 633.602 279.254 626.702C273.012 619.801 269.624 611.572 269.09 602.02V590.872V506.211C269.09 501.257 270.873 497.185 274.439 494C278.183 490.639 282.552 488.959 287.544 488.959C298.245 489.845 304.037 495.593 304.93 506.211V593.791C305.286 599.275 307.338 603.876 311.082 607.591C315.003 611.129 319.284 613.961 323.921 616.084C328.733 618.209 333.638 619.801 338.631 620.861C343.802 621.924 348.973 622.454 354.144 622.454C359.314 622.454 364.395 621.924 369.388 620.861C374.559 619.801 379.461 618.209 384.098 616.084C388.913 613.961 393.191 611.129 396.937 607.591C400.859 603.876 402.998 599.275 403.354 593.791V506.211C403.354 501.257 405.137 497.185 408.706 494C412.45 490.639 416.818 488.959 421.811 488.959C432.509 489.845 438.392 495.593 439.462 506.211V590.872V602.02C438.928 611.572 435.45 619.801 429.03 626.702C422.791 633.602 415.569 639.173 407.367 643.421C399.164 647.489 390.518 650.587 381.425 652.71C372.507 654.832 363.414 655.895 354.144 655.895ZM492.954 488.959C497.947 488.959 502.227 490.639 505.793 494C509.359 497.185 511.23 501.257 511.411 506.211V570.171C511.23 577.425 511.676 584.148 512.747 590.342C513.996 596.356 516.847 601.753 521.306 606.531C525.762 611.309 531.379 613.874 538.155 614.227H623.742C628.735 614.404 632.835 616.26 636.045 619.801C639.433 623.34 641.128 627.585 641.128 632.539C640.95 637.317 639.167 641.385 635.779 644.747C632.569 647.932 628.557 649.614 623.742 649.791H529.062C516.581 649.082 506.24 644.924 498.037 637.317C490.012 629.531 484.217 620.065 480.651 608.92C477.263 597.772 475.48 585.917 475.302 573.356V506.211C475.48 501.433 477.263 497.452 480.651 494.267C484.039 490.905 488.139 489.136 492.954 488.959ZM727.518 528.768C720.742 529.124 715.037 531.689 710.4 536.464C705.942 541.242 702.732 546.729 700.771 552.92C698.81 558.936 697.829 565.127 697.829 571.498C697.829 577.868 698.719 584.148 700.505 590.342C702.466 596.533 705.764 602.02 710.4 606.795C715.037 611.396 720.742 613.874 727.518 614.227H815.778C827.013 615.287 833.164 621.391 834.235 632.539C834.057 637.493 832.184 641.652 828.618 645.013C825.052 648.198 820.771 649.791 815.778 649.791H730.459H718.157C705.676 649.082 695.422 644.394 687.397 635.724C679.375 626.878 673.58 616.88 670.014 605.735C666.626 594.587 664.931 583.175 664.931 571.498C664.931 562.828 665.911 554.246 667.872 545.753C669.836 537.26 672.865 529.211 676.968 521.604C681.246 513.818 686.863 507.184 693.817 501.7C700.949 496.213 709.064 493.383 718.157 493.207H723.237H815.778C827.013 494.267 833.164 500.371 834.235 511.519C834.235 516.473 832.362 520.631 828.618 523.993C825.052 527.178 820.771 528.768 815.778 528.768H727.518Z" fill="url(#paint14_linear_4_3)"/>
<path d="M355.239 652.634C345.966 652.634 336.783 651.571 327.69 649.449C318.775 647.326 310.216 644.228 302.014 640.16C293.811 635.912 286.591 630.341 280.35 623.44C274.108 616.54 270.72 608.311 270.186 598.758V587.611V502.95C270.186 497.995 271.969 493.924 275.535 490.739C279.279 487.377 283.647 485.698 288.64 485.698C299.34 486.584 305.133 492.332 306.026 502.95V590.529C306.382 596.014 308.433 600.615 312.177 604.33C316.099 607.868 320.38 610.7 325.017 612.822C329.829 614.948 334.734 616.54 339.727 617.6C344.898 618.663 350.068 619.193 355.239 619.193C360.41 619.193 365.491 618.663 370.483 617.6C375.654 616.54 380.557 614.948 385.193 612.822C390.008 610.7 394.286 607.868 398.033 604.33C401.955 600.615 404.094 596.014 404.45 590.529V502.95C404.45 497.995 406.233 493.924 409.802 490.739C413.545 487.377 417.914 485.698 422.907 485.698C433.604 486.584 439.487 492.332 440.558 502.95V587.611V598.758C440.024 608.311 436.546 616.54 430.126 623.44C423.887 630.341 416.665 635.912 408.462 640.16C400.26 644.228 391.613 647.326 382.52 649.449C373.603 651.571 364.51 652.634 355.239 652.634ZM494.05 485.698C499.042 485.698 503.323 487.377 506.889 490.739C510.455 493.924 512.326 497.995 512.506 502.95V566.91C512.326 574.164 512.772 580.887 513.843 587.081C515.092 593.095 517.943 598.492 522.402 603.27C526.858 608.048 532.475 610.613 539.251 610.966H624.838C629.831 611.143 633.931 612.999 637.141 616.54C640.528 620.079 642.224 624.324 642.224 629.278C642.046 634.056 640.263 638.124 636.875 641.486C633.665 644.671 629.653 646.353 624.838 646.53H530.158C517.677 645.82 507.335 641.662 499.133 634.056C491.108 626.27 485.313 616.804 481.747 605.659C478.359 594.511 476.576 582.656 476.398 570.095V502.95C476.576 498.172 478.359 494.191 481.747 491.006C485.135 487.644 489.235 485.875 494.05 485.698ZM728.614 525.506C721.838 525.862 716.133 528.428 711.496 533.203C707.037 537.98 703.827 543.467 701.867 549.658C699.906 555.675 698.925 561.866 698.925 568.236C698.925 574.607 699.815 580.887 701.601 587.081C703.562 593.272 706.859 598.759 711.496 603.533C716.133 608.134 721.838 610.613 728.614 610.966H816.874C828.108 612.026 834.26 618.13 835.331 629.278C835.153 634.232 833.279 638.39 829.713 641.752C826.148 644.937 821.867 646.53 816.874 646.53H731.555H719.252C706.772 645.82 696.518 641.132 688.493 632.463C680.471 623.617 674.676 613.619 671.11 602.474C667.722 591.326 666.027 579.914 666.027 568.236C666.027 559.567 667.007 550.985 668.968 542.492C670.932 533.999 673.961 525.949 678.064 518.343C682.342 510.556 687.959 503.923 694.913 498.438C702.044 492.951 710.16 490.122 719.252 489.946H724.333H816.874C828.108 491.006 834.26 497.109 835.331 508.257C835.331 513.212 833.457 517.37 829.713 520.731C826.148 523.917 821.867 525.506 816.874 525.506H728.614Z" fill="url(#paint15_linear_4_3)"/>
<path d="M354.144 653.721C344.87 653.721 335.687 652.658 326.594 650.536C317.679 648.413 309.121 645.315 300.918 641.247C292.715 636.999 285.496 631.428 279.254 624.527C273.012 617.627 269.624 609.398 269.09 599.846V588.698V504.037C269.09 499.082 270.873 495.011 274.439 491.826C278.183 488.464 282.552 486.785 287.544 486.785C298.245 487.671 304.037 493.419 304.93 504.037V591.616C305.286 597.101 307.338 601.702 311.082 605.417C315.003 608.955 319.284 611.787 323.921 613.909C328.733 616.035 333.638 617.627 338.631 618.687C343.802 619.75 348.973 620.28 354.144 620.28C359.314 620.28 364.395 619.75 369.388 618.687C374.559 617.627 379.461 616.035 384.098 613.909C388.913 611.787 393.191 608.955 396.937 605.417C400.859 601.702 402.998 597.101 403.354 591.616V504.037C403.354 499.082 405.137 495.011 408.706 491.826C412.45 488.464 416.818 486.785 421.811 486.785C432.509 487.671 438.392 493.419 439.462 504.037V588.698V599.846C438.928 609.398 435.45 617.627 429.03 624.527C422.791 631.428 415.569 636.999 407.367 641.247C399.164 645.315 390.518 648.413 381.425 650.536C372.507 652.658 363.414 653.721 354.144 653.721ZM492.954 486.785C497.947 486.785 502.227 488.464 505.793 491.826C509.359 495.011 511.23 499.082 511.411 504.037V567.997C511.23 575.251 511.676 581.974 512.747 588.168C513.996 594.182 516.847 599.579 521.306 604.357C525.762 609.135 531.379 611.7 538.155 612.053H623.742C628.735 612.23 632.835 614.086 636.045 617.627C639.433 621.166 641.128 625.411 641.128 630.365C640.95 635.143 639.167 639.211 635.779 642.573C632.569 645.758 628.557 647.44 623.742 647.617H529.062C516.581 646.907 506.24 642.749 498.037 635.143C490.012 627.357 484.217 617.891 480.651 606.746C477.263 595.598 475.48 583.743 475.302 571.182V504.037C475.48 499.259 477.263 495.278 480.651 492.093C484.039 488.731 488.139 486.962 492.954 486.785ZM727.518 526.593C720.742 526.949 715.037 529.515 710.4 534.29C705.942 539.068 702.732 544.555 700.771 550.745C698.81 556.762 697.829 562.953 697.829 569.323C697.829 575.694 698.719 581.974 700.505 588.168C702.466 594.359 705.764 599.846 710.4 604.621C715.037 609.222 720.742 611.7 727.518 612.053H815.778C827.013 613.113 833.164 619.217 834.235 630.365C834.057 635.319 832.184 639.477 828.618 642.839C825.052 646.024 820.771 647.617 815.778 647.617H730.459H718.157C705.676 646.907 695.422 642.219 687.397 633.55C679.375 624.704 673.58 614.706 670.014 603.561C666.626 592.413 664.931 581.001 664.931 569.323C664.931 560.654 665.911 552.072 667.872 543.579C669.836 535.086 672.865 527.036 676.968 519.43C681.246 511.644 686.863 505.01 693.817 499.525C700.949 494.038 709.064 491.209 718.157 491.033H723.237H815.778C827.013 492.093 833.164 498.196 834.235 509.344C834.235 514.299 832.362 518.457 828.618 521.818C825.052 525.004 820.771 526.593 815.778 526.593H727.518Z" fill="url(#paint16_linear_4_3)"/>
<path d="M354.144 653.721C344.87 653.721 335.687 652.658 326.594 650.536C317.679 648.413 309.121 645.315 300.918 641.247C292.715 636.999 285.496 631.428 279.254 624.527C273.012 617.627 269.624 609.398 269.09 599.846V588.698V504.037C269.09 499.082 270.873 495.011 274.439 491.826C278.183 488.464 282.552 486.785 287.544 486.785C298.245 487.671 304.037 493.419 304.93 504.037V591.616C305.286 597.101 307.338 601.702 311.082 605.417C315.003 608.955 319.284 611.787 323.921 613.909C328.733 616.035 333.638 617.627 338.631 618.687C343.802 619.75 348.973 620.28 354.144 620.28C359.314 620.28 364.395 619.75 369.388 618.687C374.559 617.627 379.461 616.035 384.098 613.909C388.913 611.787 393.191 608.955 396.937 605.417C400.859 601.702 402.998 597.101 403.354 591.616V504.037C403.354 499.082 405.137 495.011 408.706 491.826C412.45 488.464 416.818 486.785 421.811 486.785C432.509 487.671 438.392 493.419 439.462 504.037V588.698V599.846C438.928 609.398 435.45 617.627 429.03 624.527C422.791 631.428 415.569 636.999 407.367 641.247C399.164 645.315 390.518 648.413 381.425 650.536C372.507 652.658 363.414 653.721 354.144 653.721ZM492.954 486.785C497.947 486.785 502.227 488.464 505.793 491.826C509.359 495.011 511.23 499.082 511.411 504.037V567.997C511.23 575.251 511.676 581.974 512.747 588.168C513.996 594.182 516.847 599.579 521.306 604.357C525.762 609.135 531.379 611.7 538.155 612.053H623.742C628.735 612.23 632.835 614.086 636.045 617.627C639.433 621.166 641.128 625.411 641.128 630.365C640.95 635.143 639.167 639.211 635.779 642.573C632.569 645.758 628.557 647.44 623.742 647.617H529.062C516.581 646.907 506.24 642.749 498.037 635.143C490.012 627.357 484.217 617.891 480.651 606.746C477.263 595.598 475.48 583.743 475.302 571.182V504.037C475.48 499.259 477.263 495.278 480.651 492.093C484.039 488.731 488.139 486.962 492.954 486.785ZM727.518 526.593C720.742 526.949 715.037 529.515 710.4 534.29C705.942 539.068 702.732 544.555 700.771 550.745C698.81 556.762 697.829 562.953 697.829 569.323C697.829 575.694 698.719 581.974 700.505 588.168C702.466 594.359 705.764 599.846 710.4 604.621C715.037 609.222 720.742 611.7 727.518 612.053H815.778C827.013 613.113 833.164 619.217 834.235 630.365C834.057 635.319 832.184 639.477 828.618 642.839C825.052 646.024 820.771 647.617 815.778 647.617H730.459H718.157C705.676 646.907 695.422 642.219 687.397 633.55C679.375 624.704 673.58 614.706 670.014 603.561C666.626 592.413 664.931 581.001 664.931 569.323C664.931 560.654 665.911 552.072 667.872 543.579C669.836 535.086 672.865 527.036 676.968 519.43C681.246 511.644 686.863 505.01 693.817 499.525C700.949 494.038 709.064 491.209 718.157 491.033H723.237H815.778C827.013 492.093 833.164 498.196 834.235 509.344C834.235 514.299 832.362 518.457 828.618 521.818C825.052 525.004 820.771 526.593 815.778 526.593H727.518Z" fill="url(#paint17_linear_4_3)"/>
<path d="M354.144 654.808C344.87 654.808 335.687 653.745 326.594 651.623C317.679 649.5 309.121 646.402 300.918 642.334C292.715 638.086 285.496 632.515 279.254 625.615C273.012 618.714 269.624 610.485 269.09 600.933V589.785V505.124C269.09 500.17 270.873 496.098 274.439 492.913C278.183 489.552 282.552 487.872 287.544 487.872C298.245 488.758 304.037 494.506 304.93 505.124V592.704C305.286 598.188 307.338 602.789 311.082 606.504C315.003 610.042 319.284 612.874 323.921 614.997C328.733 617.122 333.638 618.714 338.631 619.774C343.802 620.837 348.973 621.367 354.144 621.367C359.314 621.367 364.395 620.837 369.388 619.774C374.559 618.714 379.461 617.122 384.098 614.997C388.913 612.874 393.191 610.042 396.937 606.504C400.859 602.789 402.998 598.188 403.354 592.704V505.124C403.354 500.17 405.137 496.098 408.706 492.913C412.45 489.552 416.818 487.872 421.811 487.872C432.509 488.758 438.392 494.506 439.462 505.124V589.785V600.933C438.928 610.485 435.45 618.714 429.03 625.615C422.791 632.515 415.569 638.086 407.367 642.334C399.164 646.402 390.518 649.5 381.425 651.623C372.507 653.745 363.414 654.808 354.144 654.808ZM492.954 487.872C497.947 487.872 502.227 489.552 505.793 492.913C509.359 496.098 511.23 500.17 511.411 505.124V569.084C511.23 576.338 511.676 583.061 512.747 589.255C513.996 595.269 516.847 600.666 521.306 605.444C525.762 610.222 531.379 612.787 538.155 613.14H623.742C628.735 613.317 632.835 615.173 636.045 618.714C639.433 622.253 641.128 626.498 641.128 631.452C640.95 636.23 639.167 640.298 635.779 643.66C632.569 646.845 628.557 648.527 623.742 648.704H529.062C516.581 647.995 506.24 643.837 498.037 636.23C490.012 628.444 484.217 618.978 480.651 607.833C477.263 596.685 475.48 584.83 475.302 572.269V505.124C475.48 500.346 477.263 496.365 480.651 493.18C484.039 489.818 488.139 488.049 492.954 487.872ZM727.518 527.68C720.742 528.037 715.037 530.602 710.4 535.377C705.942 540.155 702.732 545.642 700.771 551.832C698.81 557.849 697.829 564.04 697.829 570.411C697.829 576.781 698.719 583.061 700.505 589.255C702.466 595.446 705.764 600.933 710.4 605.708C715.037 610.309 720.742 612.787 727.518 613.14H815.778C827.013 614.2 833.164 620.304 834.235 631.452C834.057 636.406 832.184 640.564 828.618 643.926C825.052 647.111 820.771 648.704 815.778 648.704H730.459H718.157C705.676 647.995 695.422 643.307 687.397 634.637C679.375 625.791 673.58 615.793 670.014 604.648C666.626 593.5 664.931 582.088 664.931 570.411C664.931 561.741 665.911 553.159 667.872 544.666C669.836 536.173 672.865 528.124 676.968 520.517C681.246 512.731 686.863 506.097 693.817 500.613C700.949 495.126 709.064 492.296 718.157 492.12H723.237H815.778C827.013 493.18 833.164 499.284 834.235 510.431C834.235 515.386 832.362 519.544 828.618 522.906C825.052 526.091 820.771 527.68 815.778 527.68H727.518Z" fill="url(#paint18_linear_4_3)"/>
<path d="M355.239 651.546C345.966 651.546 336.783 650.484 327.69 648.361C318.775 646.239 310.216 643.141 302.014 639.072C293.811 634.825 286.591 629.253 280.35 622.353C274.108 615.453 270.72 607.224 270.186 597.671V586.523V501.863C270.186 496.908 271.969 492.837 275.535 489.652C279.279 486.29 283.647 484.611 288.64 484.611C299.34 485.497 305.133 491.245 306.026 501.863V589.442C306.382 594.926 308.433 599.528 312.177 603.243C316.099 606.781 320.38 609.613 325.017 611.735C329.829 613.861 334.734 615.453 339.727 616.513C344.898 617.576 350.068 618.106 355.239 618.106C360.41 618.106 365.491 617.576 370.483 616.513C375.654 615.453 380.557 613.861 385.193 611.735C390.008 609.613 394.286 606.781 398.033 603.243C401.955 599.528 404.094 594.926 404.45 589.442V501.863C404.45 496.908 406.233 492.837 409.802 489.652C413.545 486.29 417.914 484.611 422.907 484.611C433.604 485.497 439.487 491.245 440.558 501.863V586.523V597.671C440.024 607.224 436.546 615.453 430.126 622.353C423.887 629.253 416.665 634.825 408.462 639.072C400.26 643.141 391.613 646.239 382.52 648.361C373.603 650.484 364.51 651.546 355.239 651.546ZM494.05 484.611C499.042 484.611 503.323 486.29 506.889 489.652C510.455 492.837 512.326 496.908 512.506 501.863V565.823C512.326 573.076 512.772 579.8 513.843 585.994C515.092 592.008 517.943 597.405 522.402 602.183C526.858 606.96 532.475 609.526 539.251 609.879H624.838C629.831 610.056 633.931 611.912 637.141 615.453C640.528 618.992 642.224 623.236 642.224 628.191C642.046 632.968 640.263 637.037 636.875 640.399C633.665 643.584 629.653 645.266 624.838 645.443H530.158C517.677 644.733 507.335 640.575 499.133 632.968C491.108 625.182 485.313 615.717 481.747 604.572C478.359 593.424 476.576 581.569 476.398 569.008V501.863C476.576 497.085 478.359 493.104 481.747 489.918C485.135 486.557 489.235 484.787 494.05 484.611ZM728.614 524.419C721.838 524.775 716.133 527.341 711.496 532.116C707.037 536.893 703.827 542.38 701.867 548.571C699.906 554.588 698.925 560.779 698.925 567.149C698.925 573.519 699.815 579.8 701.601 585.994C703.562 592.184 706.859 597.671 711.496 602.446C716.133 607.047 721.838 609.526 728.614 609.879H816.874C828.108 610.939 834.26 617.043 835.331 628.191C835.153 633.145 833.279 637.303 829.713 640.665C826.148 643.85 821.867 645.443 816.874 645.443H731.555H719.252C706.772 644.733 696.518 640.045 688.493 631.376C680.471 622.53 674.676 612.532 671.11 601.386C667.722 590.239 666.027 578.827 666.027 567.149C666.027 558.48 667.007 549.897 668.968 541.405C670.932 532.912 673.961 524.862 678.064 517.255C682.342 509.469 687.959 502.835 694.913 497.351C702.044 491.864 710.16 489.035 719.252 488.859H724.333H816.874C828.108 489.918 834.26 496.022 835.331 507.17C835.331 512.124 833.457 516.283 829.713 519.644C826.148 522.829 821.867 524.419 816.874 524.419H728.614Z" fill="url(#paint19_linear_4_3)"/>
<path d="M354.144 652.634C344.87 652.634 335.687 651.571 326.594 649.449C317.679 647.326 309.121 644.228 300.918 640.16C292.715 635.912 285.496 630.341 279.254 623.44C273.012 616.54 269.624 608.311 269.09 598.758V587.611V502.95C269.09 497.995 270.873 493.924 274.439 490.739C278.183 487.377 282.552 485.698 287.544 485.698C298.245 486.584 304.037 492.332 304.93 502.95V590.529C305.286 596.014 307.338 600.615 311.082 604.33C315.003 607.868 319.284 610.7 323.921 612.822C328.733 614.948 333.638 616.54 338.631 617.6C343.802 618.663 348.973 619.193 354.144 619.193C359.314 619.193 364.395 618.663 369.388 617.6C374.559 616.54 379.461 614.948 384.098 612.822C388.913 610.7 393.191 607.868 396.937 604.33C400.859 600.615 402.998 596.014 403.354 590.529V502.95C403.354 497.995 405.137 493.924 408.706 490.739C412.45 487.377 416.818 485.698 421.811 485.698C432.509 486.584 438.392 492.332 439.462 502.95V587.611V598.758C438.928 608.311 435.45 616.54 429.03 623.44C422.791 630.341 415.569 635.912 407.367 640.16C399.164 644.228 390.518 647.326 381.425 649.449C372.507 651.571 363.414 652.634 354.144 652.634ZM492.954 485.698C497.947 485.698 502.227 487.377 505.793 490.739C509.359 493.924 511.23 497.995 511.411 502.95V566.91C511.23 574.164 511.676 580.887 512.747 587.081C513.996 593.095 516.847 598.492 521.306 603.27C525.762 608.048 531.379 610.613 538.155 610.966H623.742C628.735 611.143 632.835 612.999 636.045 616.54C639.433 620.079 641.128 624.324 641.128 629.278C640.95 634.056 639.167 638.124 635.779 641.486C632.569 644.671 628.557 646.353 623.742 646.53H529.062C516.581 645.82 506.24 641.662 498.037 634.056C490.012 626.27 484.217 616.804 480.651 605.659C477.263 594.511 475.48 582.656 475.302 570.095V502.95C475.48 498.172 477.263 494.191 480.651 491.006C484.039 487.644 488.139 485.875 492.954 485.698ZM727.518 525.506C720.742 525.862 715.037 528.428 710.4 533.203C705.942 537.98 702.732 543.467 700.771 549.658C698.81 555.675 697.829 561.866 697.829 568.236C697.829 574.607 698.719 580.887 700.505 587.081C702.466 593.272 705.764 598.759 710.4 603.533C715.037 608.134 720.742 610.613 727.518 610.966H815.778C827.013 612.026 833.164 618.13 834.235 629.278C834.057 634.232 832.184 638.39 828.618 641.752C825.052 644.937 820.771 646.53 815.778 646.53H730.459H718.157C705.676 645.82 695.422 641.132 687.397 632.463C679.375 623.617 673.58 613.619 670.014 602.474C666.626 591.326 664.931 579.914 664.931 568.236C664.931 559.567 665.911 550.985 667.872 542.492C669.836 533.999 672.865 525.949 676.968 518.343C681.246 510.556 686.863 503.923 693.817 498.438C700.949 492.951 709.064 490.122 718.157 489.946H723.237H815.778C827.013 491.006 833.164 497.109 834.235 508.257C834.235 513.212 832.362 517.37 828.618 520.731C825.052 523.917 820.771 525.506 815.778 525.506H727.518Z" fill="url(#paint20_linear_4_3)"/>
<path d="M354.144 652.634C344.87 652.634 335.687 651.571 326.594 649.449C317.679 647.326 309.121 644.228 300.918 640.16C292.715 635.912 285.496 630.341 279.254 623.44C273.012 616.54 269.624 608.311 269.09 598.758V587.611V502.95C269.09 497.995 270.873 493.924 274.439 490.739C278.183 487.377 282.552 485.698 287.544 485.698C298.245 486.584 304.037 492.332 304.93 502.95V590.529C305.286 596.014 307.338 600.615 311.082 604.33C315.003 607.868 319.284 610.7 323.921 612.822C328.733 614.948 333.638 616.54 338.631 617.6C343.802 618.663 348.973 619.193 354.144 619.193C359.314 619.193 364.395 618.663 369.388 617.6C374.559 616.54 379.461 614.948 384.098 612.822C388.913 610.7 393.191 607.868 396.937 604.33C400.859 600.615 402.998 596.014 403.354 590.529V502.95C403.354 497.995 405.137 493.924 408.706 490.739C412.45 487.377 416.818 485.698 421.811 485.698C432.509 486.584 438.392 492.332 439.462 502.95V587.611V598.758C438.928 608.311 435.45 616.54 429.03 623.44C422.791 630.341 415.569 635.912 407.367 640.16C399.164 644.228 390.518 647.326 381.425 649.449C372.507 651.571 363.414 652.634 354.144 652.634ZM492.954 485.698C497.947 485.698 502.227 487.377 505.793 490.739C509.359 493.924 511.23 497.995 511.411 502.95V566.91C511.23 574.164 511.676 580.887 512.747 587.081C513.996 593.095 516.847 598.492 521.306 603.27C525.762 608.048 531.379 610.613 538.155 610.966H623.742C628.735 611.143 632.835 612.999 636.045 616.54C639.433 620.079 641.128 624.324 641.128 629.278C640.95 634.056 639.167 638.124 635.779 641.486C632.569 644.671 628.557 646.353 623.742 646.53H529.062C516.581 645.82 506.24 641.662 498.037 634.056C490.012 626.27 484.217 616.804 480.651 605.659C477.263 594.511 475.48 582.656 475.302 570.095V502.95C475.48 498.172 477.263 494.191 480.651 491.006C484.039 487.644 488.139 485.875 492.954 485.698ZM727.518 525.506C720.742 525.862 715.037 528.428 710.4 533.203C705.942 537.98 702.732 543.467 700.771 549.658C698.81 555.675 697.829 561.866 697.829 568.236C697.829 574.607 698.719 580.887 700.505 587.081C702.466 593.272 705.764 598.759 710.4 603.533C715.037 608.134 720.742 610.613 727.518 610.966H815.778C827.013 612.026 833.164 618.13 834.235 629.278C834.057 634.232 832.184 638.39 828.618 641.752C825.052 644.937 820.771 646.53 815.778 646.53H730.459H718.157C705.676 645.82 695.422 641.132 687.397 632.463C679.375 623.617 673.58 613.619 670.014 602.474C666.626 591.326 664.931 579.914 664.931 568.236C664.931 559.567 665.911 550.985 667.872 542.492C669.836 533.999 672.865 525.949 676.968 518.343C681.246 510.556 686.863 503.923 693.817 498.438C700.949 492.951 709.064 490.122 718.157 489.946H723.237H815.778C827.013 491.006 833.164 497.109 834.235 508.257C834.235 513.212 832.362 517.37 828.618 520.731C825.052 523.917 820.771 525.506 815.778 525.506H727.518Z" fill="url(#paint21_linear_4_3)"/>
<path d="M354.144 653.721C344.87 653.721 335.687 652.658 326.594 650.536C317.679 648.413 309.121 645.315 300.918 641.247C292.715 636.999 285.496 631.428 279.254 624.527C273.012 617.627 269.624 609.398 269.09 599.846V588.698V504.037C269.09 499.082 270.873 495.011 274.439 491.826C278.183 488.464 282.552 486.785 287.544 486.785C298.245 487.671 304.037 493.419 304.93 504.037V591.616C305.286 597.101 307.338 601.702 311.082 605.417C315.003 608.955 319.284 611.787 323.921 613.909C328.733 616.035 333.638 617.627 338.631 618.687C343.802 619.75 348.973 620.28 354.144 620.28C359.314 620.28 364.395 619.75 369.388 618.687C374.559 617.627 379.461 616.035 384.098 613.909C388.913 611.787 393.191 608.955 396.937 605.417C400.859 601.702 402.998 597.101 403.354 591.616V504.037C403.354 499.082 405.137 495.011 408.706 491.826C412.45 488.464 416.818 486.785 421.811 486.785C432.509 487.671 438.392 493.419 439.462 504.037V588.698V599.846C438.928 609.398 435.45 617.627 429.03 624.527C422.791 631.428 415.569 636.999 407.367 641.247C399.164 645.315 390.518 648.413 381.425 650.536C372.507 652.658 363.414 653.721 354.144 653.721ZM492.954 486.785C497.947 486.785 502.227 488.464 505.793 491.826C509.359 495.011 511.23 499.082 511.411 504.037V567.997C511.23 575.251 511.676 581.974 512.747 588.168C513.996 594.182 516.847 599.579 521.306 604.357C525.762 609.135 531.379 611.7 538.155 612.053H623.742C628.735 612.23 632.835 614.086 636.045 617.627C639.433 621.166 641.128 625.411 641.128 630.365C640.95 635.143 639.167 639.211 635.779 642.573C632.569 645.758 628.557 647.44 623.742 647.617H529.062C516.581 646.907 506.24 642.749 498.037 635.143C490.012 627.357 484.217 617.891 480.651 606.746C477.263 595.598 475.48 583.743 475.302 571.182V504.037C475.48 499.259 477.263 495.278 480.651 492.093C484.039 488.731 488.139 486.962 492.954 486.785ZM727.518 526.593C720.742 526.949 715.037 529.515 710.4 534.29C705.942 539.068 702.732 544.555 700.771 550.745C698.81 556.762 697.829 562.953 697.829 569.323C697.829 575.694 698.719 581.974 700.505 588.168C702.466 594.359 705.764 599.846 710.4 604.621C715.037 609.222 720.742 611.7 727.518 612.053H815.778C827.013 613.113 833.164 619.217 834.235 630.365C834.057 635.319 832.184 639.477 828.618 642.839C825.052 646.024 820.771 647.617 815.778 647.617H730.459H718.157C705.676 646.907 695.422 642.219 687.397 633.55C679.375 624.704 673.58 614.706 670.014 603.561C666.626 592.413 664.931 581.001 664.931 569.323C664.931 560.654 665.911 552.072 667.872 543.579C669.836 535.086 672.865 527.036 676.968 519.43C681.246 511.644 686.863 505.01 693.817 499.525C700.949 494.038 709.064 491.209 718.157 491.033H723.237H815.778C827.013 492.093 833.164 498.196 834.235 509.344C834.235 514.299 832.362 518.457 828.618 521.818C825.052 525.004 820.771 526.593 815.778 526.593H727.518Z" fill="url(#paint22_linear_4_3)"/>
<path d="M355.239 650.459C345.966 650.459 336.783 649.397 327.69 647.274C318.775 645.152 310.216 642.054 302.014 637.985C293.811 633.738 286.591 628.166 280.35 621.266C274.108 614.366 270.72 606.137 270.186 596.584V585.436V500.776C270.186 495.821 271.969 491.75 275.535 488.565C279.279 485.203 283.647 483.524 288.64 483.524C299.34 484.41 305.133 490.158 306.026 500.776V588.355C306.382 593.839 308.433 598.44 312.177 602.156C316.099 605.694 320.38 608.526 325.017 610.648C329.829 612.773 334.734 614.366 339.727 615.426C344.898 616.489 350.068 617.019 355.239 617.019C360.41 617.019 365.491 616.489 370.483 615.426C375.654 614.366 380.557 612.773 385.193 610.648C390.008 608.526 394.286 605.694 398.033 602.156C401.955 598.44 404.094 593.839 404.45 588.355V500.776C404.45 495.821 406.233 491.75 409.802 488.565C413.545 485.203 417.914 483.524 422.907 483.524C433.604 484.41 439.487 490.158 440.558 500.776V585.436V596.584C440.024 606.137 436.546 614.366 430.126 621.266C423.887 628.166 416.665 633.738 408.462 637.985C400.26 642.054 391.613 645.152 382.52 647.274C373.603 649.397 364.51 650.459 355.239 650.459ZM494.05 483.524C499.042 483.524 503.323 485.203 506.889 488.565C510.455 491.75 512.326 495.821 512.506 500.776V564.736C512.326 571.989 512.772 578.713 513.843 584.906C515.092 590.921 517.943 596.318 522.402 601.096C526.858 605.873 532.475 608.439 539.251 608.792H624.838C629.831 608.969 633.931 610.825 637.141 614.366C640.528 617.904 642.224 622.149 642.224 627.104C642.046 631.881 640.263 635.95 636.875 639.312C633.665 642.497 629.653 644.179 624.838 644.356H530.158C517.677 643.646 507.335 639.488 499.133 631.881C491.108 624.095 485.313 614.63 481.747 603.485C478.359 592.337 476.576 580.482 476.398 567.921V500.776C476.576 495.998 478.359 492.016 481.747 488.831C485.135 485.47 489.235 483.7 494.05 483.524ZM728.614 523.332C721.838 523.688 716.133 526.254 711.496 531.029C707.037 535.806 703.827 541.293 701.867 547.484C699.906 553.501 698.925 559.692 698.925 566.062C698.925 572.432 699.815 578.713 701.601 584.906C703.562 591.097 706.859 596.584 711.496 601.359C716.133 605.96 721.838 608.439 728.614 608.792H816.874C828.108 609.852 834.26 615.956 835.331 627.104C835.153 632.058 833.279 636.216 829.713 639.578C826.148 642.763 821.867 644.356 816.874 644.356H731.555H719.252C706.772 643.646 696.518 638.958 688.493 630.289C680.471 621.443 674.676 611.445 671.11 600.299C667.722 589.152 666.027 577.74 666.027 566.062C666.027 557.393 667.007 548.81 668.968 540.318C670.932 531.825 673.961 523.775 678.064 516.168C682.342 508.382 687.959 501.748 694.913 496.264C702.044 490.777 710.16 487.948 719.252 487.771H724.333H816.874C828.108 488.831 834.26 494.935 835.331 506.083C835.331 511.037 833.457 515.196 829.713 518.557C826.148 521.742 821.867 523.332 816.874 523.332H728.614Z" fill="url(#paint23_linear_4_3)"/>
<path d="M354.144 651.546C344.87 651.546 335.687 650.484 326.594 648.361C317.679 646.239 309.121 643.141 300.918 639.072C292.715 634.825 285.496 629.253 279.254 622.353C273.012 615.453 269.624 607.224 269.09 597.671V586.523V501.863C269.09 496.908 270.873 492.837 274.439 489.652C278.183 486.29 282.552 484.611 287.544 484.611C298.245 485.497 304.037 491.245 304.93 501.863V589.442C305.286 594.926 307.338 599.528 311.082 603.243C315.003 606.781 319.284 609.613 323.921 611.735C328.733 613.861 333.638 615.453 338.631 616.513C343.802 617.576 348.973 618.106 354.144 618.106C359.314 618.106 364.395 617.576 369.388 616.513C374.559 615.453 379.461 613.861 384.098 611.735C388.913 609.613 393.191 606.781 396.937 603.243C400.859 599.528 402.998 594.926 403.354 589.442V501.863C403.354 496.908 405.137 492.837 408.706 489.652C412.45 486.29 416.818 484.611 421.811 484.611C432.509 485.497 438.392 491.245 439.462 501.863V586.523V597.671C438.928 607.224 435.45 615.453 429.03 622.353C422.791 629.253 415.569 634.825 407.367 639.072C399.164 643.141 390.518 646.239 381.425 648.361C372.507 650.484 363.414 651.546 354.144 651.546ZM492.954 484.611C497.947 484.611 502.227 486.29 505.793 489.652C509.359 492.837 511.23 496.908 511.411 501.863V565.823C511.23 573.076 511.676 579.8 512.747 585.994C513.996 592.008 516.847 597.405 521.306 602.183C525.762 606.96 531.379 609.526 538.155 609.879H623.742C628.735 610.056 632.835 611.912 636.045 615.453C639.433 618.992 641.128 623.236 641.128 628.191C640.95 632.968 639.167 637.037 635.779 640.399C632.569 643.584 628.557 645.266 623.742 645.443H529.062C516.581 644.733 506.24 640.575 498.037 632.968C490.012 625.182 484.217 615.717 480.651 604.572C477.263 593.424 475.48 581.569 475.302 569.008V501.863C475.48 497.085 477.263 493.104 480.651 489.918C484.039 486.557 488.139 484.787 492.954 484.611ZM727.518 524.419C720.742 524.775 715.037 527.341 710.4 532.116C705.942 536.893 702.732 542.38 700.771 548.571C698.81 554.588 697.829 560.779 697.829 567.149C697.829 573.519 698.719 579.8 700.505 585.994C702.466 592.184 705.764 597.671 710.4 602.446C715.037 607.047 720.742 609.526 727.518 609.879H815.778C827.013 610.939 833.164 617.043 834.235 628.191C834.057 633.145 832.184 637.303 828.618 640.665C825.052 643.85 820.771 645.443 815.778 645.443H730.459H718.157C705.676 644.733 695.422 640.045 687.397 631.376C679.375 622.53 673.58 612.532 670.014 601.386C666.626 590.239 664.931 578.827 664.931 567.149C664.931 558.48 665.911 549.897 667.872 541.405C669.836 532.912 672.865 524.862 676.968 517.255C681.246 509.469 686.863 502.835 693.817 497.351C700.949 491.864 709.064 489.035 718.157 488.859H723.237H815.778C827.013 489.918 833.164 496.022 834.235 507.17C834.235 512.124 832.362 516.283 828.618 519.644C825.052 522.829 820.771 524.419 815.778 524.419H727.518Z" fill="url(#paint24_linear_4_3)"/>
<path d="M354.144 651.546C344.87 651.546 335.687 650.484 326.594 648.361C317.679 646.239 309.121 643.141 300.918 639.072C292.715 634.825 285.496 629.253 279.254 622.353C273.012 615.453 269.624 607.224 269.09 597.671V586.523V501.863C269.09 496.908 270.873 492.837 274.439 489.652C278.183 486.29 282.552 484.611 287.544 484.611C298.245 485.497 304.037 491.245 304.93 501.863V589.442C305.286 594.926 307.338 599.528 311.082 603.243C315.003 606.781 319.284 609.613 323.921 611.735C328.733 613.861 333.638 615.453 338.631 616.513C343.802 617.576 348.973 618.106 354.144 618.106C359.314 618.106 364.395 617.576 369.388 616.513C374.559 615.453 379.461 613.861 384.098 611.735C388.913 609.613 393.191 606.781 396.937 603.243C400.859 599.528 402.998 594.926 403.354 589.442V501.863C403.354 496.908 405.137 492.837 408.706 489.652C412.45 486.29 416.818 484.611 421.811 484.611C432.509 485.497 438.392 491.245 439.462 501.863V586.523V597.671C438.928 607.224 435.45 615.453 429.03 622.353C422.791 629.253 415.569 634.825 407.367 639.072C399.164 643.141 390.518 646.239 381.425 648.361C372.507 650.484 363.414 651.546 354.144 651.546ZM492.954 484.611C497.947 484.611 502.227 486.29 505.793 489.652C509.359 492.837 511.23 496.908 511.411 501.863V565.823C511.23 573.076 511.676 579.8 512.747 585.994C513.996 592.008 516.847 597.405 521.306 602.183C525.762 606.96 531.379 609.526 538.155 609.879H623.742C628.735 610.056 632.835 611.912 636.045 615.453C639.433 618.992 641.128 623.236 641.128 628.191C640.95 632.968 639.167 637.037 635.779 640.399C632.569 643.584 628.557 645.266 623.742 645.443H529.062C516.581 644.733 506.24 640.575 498.037 632.968C490.012 625.182 484.217 615.717 480.651 604.572C477.263 593.424 475.48 581.569 475.302 569.008V501.863C475.48 497.085 477.263 493.104 480.651 489.918C484.039 486.557 488.139 484.787 492.954 484.611ZM727.518 524.419C720.742 524.775 715.037 527.341 710.4 532.116C705.942 536.893 702.732 542.38 700.771 548.571C698.81 554.588 697.829 560.779 697.829 567.149C697.829 573.519 698.719 579.8 700.505 585.994C702.466 592.184 705.764 597.671 710.4 602.446C715.037 607.047 720.742 609.526 727.518 609.879H815.778C827.013 610.939 833.164 617.043 834.235 628.191C834.057 633.145 832.184 637.303 828.618 640.665C825.052 643.85 820.771 645.443 815.778 645.443H730.459H718.157C705.676 644.733 695.422 640.045 687.397 631.376C679.375 622.53 673.58 612.532 670.014 601.386C666.626 590.239 664.931 578.827 664.931 567.149C664.931 558.48 665.911 549.897 667.872 541.405C669.836 532.912 672.865 524.862 676.968 517.255C681.246 509.469 686.863 502.835 693.817 497.351C700.949 491.864 709.064 489.035 718.157 488.859H723.237H815.778C827.013 489.918 833.164 496.022 834.235 507.17C834.235 512.124 832.362 516.283 828.618 519.644C825.052 522.829 820.771 524.419 815.778 524.419H727.518Z" fill="url(#paint25_linear_4_3)"/>
<path d="M354.144 652.634C344.87 652.634 335.687 651.571 326.594 649.449C317.679 647.326 309.121 644.228 300.918 640.16C292.715 635.912 285.496 630.341 279.254 623.44C273.012 616.54 269.624 608.311 269.09 598.758V587.611V502.95C269.09 497.995 270.873 493.924 274.439 490.739C278.183 487.377 282.552 485.698 287.544 485.698C298.245 486.584 304.037 492.332 304.93 502.95V590.529C305.286 596.014 307.338 600.615 311.082 604.33C315.003 607.868 319.284 610.7 323.921 612.822C328.733 614.948 333.638 616.54 338.631 617.6C343.802 618.663 348.973 619.193 354.144 619.193C359.314 619.193 364.395 618.663 369.388 617.6C374.559 616.54 379.461 614.948 384.098 612.822C388.913 610.7 393.191 607.868 396.937 604.33C400.859 600.615 402.998 596.014 403.354 590.529V502.95C403.354 497.995 405.137 493.924 408.706 490.739C412.45 487.377 416.818 485.698 421.811 485.698C432.509 486.584 438.392 492.332 439.462 502.95V587.611V598.758C438.928 608.311 435.45 616.54 429.03 623.44C422.791 630.341 415.569 635.912 407.367 640.16C399.164 644.228 390.518 647.326 381.425 649.449C372.507 651.571 363.414 652.634 354.144 652.634ZM492.954 485.698C497.947 485.698 502.227 487.377 505.793 490.739C509.359 493.924 511.23 497.995 511.411 502.95V566.91C511.23 574.164 511.676 580.887 512.747 587.081C513.996 593.095 516.847 598.492 521.306 603.27C525.762 608.048 531.379 610.613 538.155 610.966H623.742C628.735 611.143 632.835 612.999 636.045 616.54C639.433 620.079 641.128 624.324 641.128 629.278C640.95 634.056 639.167 638.124 635.779 641.486C632.569 644.671 628.557 646.353 623.742 646.53H529.062C516.581 645.82 506.24 641.662 498.037 634.056C490.012 626.27 484.217 616.804 480.651 605.659C477.263 594.511 475.48 582.656 475.302 570.095V502.95C475.48 498.172 477.263 494.191 480.651 491.006C484.039 487.644 488.139 485.875 492.954 485.698ZM727.518 525.506C720.742 525.862 715.037 528.428 710.4 533.203C705.942 537.98 702.732 543.467 700.771 549.658C698.81 555.675 697.829 561.866 697.829 568.236C697.829 574.607 698.719 580.887 700.505 587.081C702.466 593.272 705.764 598.759 710.4 603.533C715.037 608.134 720.742 610.613 727.518 610.966H815.778C827.013 612.026 833.164 618.13 834.235 629.278C834.057 634.232 832.184 638.39 828.618 641.752C825.052 644.937 820.771 646.53 815.778 646.53H730.459H718.157C705.676 645.82 695.422 641.132 687.397 632.463C679.375 623.617 673.58 613.619 670.014 602.474C666.626 591.326 664.931 579.914 664.931 568.236C664.931 559.567 665.911 550.985 667.872 542.492C669.836 533.999 672.865 525.949 676.968 518.343C681.246 510.556 686.863 503.923 693.817 498.438C700.949 492.951 709.064 490.122 718.157 489.946H723.237H815.778C827.013 491.006 833.164 497.109 834.235 508.257C834.235 513.212 832.362 517.37 828.618 520.731C825.052 523.917 820.771 525.506 815.778 525.506H727.518Z" fill="url(#paint26_linear_4_3)"/>
<path d="M355.239 649.372C345.966 649.372 336.783 648.31 327.69 646.187C318.775 644.065 310.216 640.967 302.014 636.898C293.811 632.651 286.591 627.079 280.35 620.179C274.108 613.279 270.72 605.05 270.186 595.497V584.349V499.688C270.186 494.734 271.969 490.663 275.535 487.478C279.279 484.116 283.647 482.437 288.64 482.437C299.34 483.323 305.133 489.071 306.026 499.688V587.268C306.382 592.752 308.433 597.353 312.177 601.068C316.099 604.607 320.38 607.439 325.017 609.561C329.829 611.686 334.734 613.279 339.727 614.339C344.898 615.402 350.068 615.931 355.239 615.931C360.41 615.931 365.491 615.402 370.483 614.339C375.654 613.279 380.557 611.686 385.193 609.561C390.008 607.439 394.286 604.607 398.033 601.068C401.955 597.353 404.094 592.752 404.45 587.268V499.688C404.45 494.734 406.233 490.663 409.802 487.478C413.545 484.116 417.914 482.437 422.907 482.437C433.604 483.323 439.487 489.071 440.558 499.688V584.349V595.497C440.024 605.05 436.546 613.279 430.126 620.179C423.887 627.079 416.665 632.651 408.462 636.898C400.26 640.967 391.613 644.065 382.52 646.187C373.603 648.31 364.51 649.372 355.239 649.372ZM494.05 482.437C499.042 482.437 503.323 484.116 506.889 487.478C510.455 490.663 512.326 494.734 512.506 499.688V563.649C512.326 570.902 512.772 577.626 513.843 583.819C515.092 589.834 517.943 595.231 522.402 600.009C526.858 604.786 532.475 607.352 539.251 607.705H624.838C629.831 607.882 633.931 609.738 637.141 613.279C640.528 616.817 642.224 621.062 642.224 626.017C642.046 630.794 640.263 634.863 636.875 638.224C633.665 641.41 629.653 643.092 624.838 643.269H530.158C517.677 642.559 507.335 638.401 499.133 630.794C491.108 623.008 485.313 613.543 481.747 602.397C478.359 591.25 476.576 579.395 476.398 566.834V499.688C476.576 494.911 478.359 490.929 481.747 487.744C485.135 484.383 489.235 482.613 494.05 482.437ZM728.614 522.245C721.838 522.601 716.133 525.167 711.496 529.942C707.037 534.719 703.827 540.206 701.867 546.397C699.906 552.414 698.925 558.605 698.925 564.975C698.925 571.345 699.815 577.626 701.601 583.819C703.562 590.01 706.859 595.497 711.496 600.272C716.133 604.873 721.838 607.352 728.614 607.705H816.874C828.108 608.765 834.26 614.869 835.331 626.017C835.153 630.971 833.279 635.129 829.713 638.491C826.148 641.676 821.867 643.269 816.874 643.269H731.555H719.252C706.772 642.559 696.518 637.871 688.493 629.202C680.471 620.356 674.676 610.358 671.11 599.212C667.722 588.064 666.027 576.653 666.027 564.975C666.027 556.306 667.007 547.723 668.968 539.231C670.932 530.738 673.961 522.688 678.064 515.081C682.342 507.295 687.959 500.661 694.913 495.177C702.044 489.69 710.16 486.861 719.252 486.684H724.333H816.874C828.108 487.744 834.26 493.848 835.331 504.996C835.331 509.95 833.457 514.108 829.713 517.47C826.148 520.655 821.867 522.245 816.874 522.245H728.614Z" fill="url(#paint27_linear_4_3)"/>
<path d="M354.144 650.459C344.87 650.459 335.687 649.397 326.594 647.274C317.679 645.152 309.121 642.054 300.918 637.985C292.715 633.738 285.496 628.166 279.254 621.266C273.012 614.366 269.624 606.137 269.09 596.584V585.436V500.776C269.09 495.821 270.873 491.75 274.439 488.565C278.183 485.203 282.552 483.524 287.544 483.524C298.245 484.41 304.037 490.158 304.93 500.776V588.355C305.286 593.839 307.338 598.44 311.082 602.156C315.003 605.694 319.284 608.526 323.921 610.648C328.733 612.773 333.638 614.366 338.631 615.426C343.802 616.489 348.973 617.019 354.144 617.019C359.314 617.019 364.395 616.489 369.388 615.426C374.559 614.366 379.461 612.773 384.098 610.648C388.913 608.526 393.191 605.694 396.937 602.156C400.859 598.44 402.998 593.839 403.354 588.355V500.776C403.354 495.821 405.137 491.75 408.706 488.565C412.45 485.203 416.818 483.524 421.811 483.524C432.509 484.41 438.392 490.158 439.462 500.776V585.436V596.584C438.928 606.137 435.45 614.366 429.03 621.266C422.791 628.166 415.569 633.738 407.367 637.985C399.164 642.054 390.518 645.152 381.425 647.274C372.507 649.397 363.414 650.459 354.144 650.459ZM492.954 483.524C497.947 483.524 502.227 485.203 505.793 488.565C509.359 491.75 511.23 495.821 511.411 500.776V564.736C511.23 571.989 511.676 578.713 512.747 584.906C513.996 590.921 516.847 596.318 521.306 601.096C525.762 605.873 531.379 608.439 538.155 608.792H623.742C628.735 608.969 632.835 610.825 636.045 614.366C639.433 617.904 641.128 622.149 641.128 627.104C640.95 631.881 639.167 635.95 635.779 639.312C632.569 642.497 628.557 644.179 623.742 644.356H529.062C516.581 643.646 506.24 639.488 498.037 631.881C490.012 624.095 484.217 614.63 480.651 603.485C477.263 592.337 475.48 580.482 475.302 567.921V500.776C475.48 495.998 477.263 492.016 480.651 488.831C484.039 485.47 488.139 483.7 492.954 483.524ZM727.518 523.332C720.742 523.688 715.037 526.254 710.4 531.029C705.942 535.806 702.732 541.293 700.771 547.484C698.81 553.501 697.829 559.692 697.829 566.062C697.829 572.432 698.719 578.713 700.505 584.906C702.466 591.097 705.764 596.584 710.4 601.359C715.037 605.96 720.742 608.439 727.518 608.792H815.778C827.013 609.852 833.164 615.956 834.235 627.104C834.057 632.058 832.184 636.216 828.618 639.578C825.052 642.763 820.771 644.356 815.778 644.356H730.459H718.157C705.676 643.646 695.422 638.958 687.397 630.289C679.375 621.443 673.58 611.445 670.014 600.299C666.626 589.152 664.931 577.74 664.931 566.062C664.931 557.393 665.911 548.81 667.872 540.318C669.836 531.825 672.865 523.775 676.968 516.168C681.246 508.382 686.863 501.748 693.817 496.264C700.949 490.777 709.064 487.948 718.157 487.771H723.237H815.778C827.013 488.831 833.164 494.935 834.235 506.083C834.235 511.037 832.362 515.196 828.618 518.557C825.052 521.742 820.771 523.332 815.778 523.332H727.518Z" fill="url(#paint28_linear_4_3)"/>
<path d="M354.144 650.459C344.87 650.459 335.687 649.397 326.594 647.274C317.679 645.152 309.121 642.054 300.918 637.985C292.715 633.738 285.496 628.166 279.254 621.266C273.012 614.366 269.624 606.137 269.09 596.584V585.436V500.776C269.09 495.821 270.873 491.75 274.439 488.565C278.183 485.203 282.552 483.524 287.544 483.524C298.245 484.41 304.037 490.158 304.93 500.776V588.355C305.286 593.839 307.338 598.44 311.082 602.156C315.003 605.694 319.284 608.526 323.921 610.648C328.733 612.773 333.638 614.366 338.631 615.426C343.802 616.489 348.973 617.019 354.144 617.019C359.314 617.019 364.395 616.489 369.388 615.426C374.559 614.366 379.461 612.773 384.098 610.648C388.913 608.526 393.191 605.694 396.937 602.156C400.859 598.44 402.998 593.839 403.354 588.355V500.776C403.354 495.821 405.137 491.75 408.706 488.565C412.45 485.203 416.818 483.524 421.811 483.524C432.509 484.41 438.392 490.158 439.462 500.776V585.436V596.584C438.928 606.137 435.45 614.366 429.03 621.266C422.791 628.166 415.569 633.738 407.367 637.985C399.164 642.054 390.518 645.152 381.425 647.274C372.507 649.397 363.414 650.459 354.144 650.459ZM492.954 483.524C497.947 483.524 502.227 485.203 505.793 488.565C509.359 491.75 511.23 495.821 511.411 500.776V564.736C511.23 571.989 511.676 578.713 512.747 584.906C513.996 590.921 516.847 596.318 521.306 601.096C525.762 605.873 531.379 608.439 538.155 608.792H623.742C628.735 608.969 632.835 610.825 636.045 614.366C639.433 617.904 641.128 622.149 641.128 627.104C640.95 631.881 639.167 635.95 635.779 639.312C632.569 642.497 628.557 644.179 623.742 644.356H529.062C516.581 643.646 506.24 639.488 498.037 631.881C490.012 624.095 484.217 614.63 480.651 603.485C477.263 592.337 475.48 580.482 475.302 567.921V500.776C475.48 495.998 477.263 492.016 480.651 488.831C484.039 485.47 488.139 483.7 492.954 483.524ZM727.518 523.332C720.742 523.688 715.037 526.254 710.4 531.029C705.942 535.806 702.732 541.293 700.771 547.484C698.81 553.501 697.829 559.692 697.829 566.062C697.829 572.432 698.719 578.713 700.505 584.906C702.466 591.097 705.764 596.584 710.4 601.359C715.037 605.96 720.742 608.439 727.518 608.792H815.778C827.013 609.852 833.164 615.956 834.235 627.104C834.057 632.058 832.184 636.216 828.618 639.578C825.052 642.763 820.771 644.356 815.778 644.356H730.459H718.157C705.676 643.646 695.422 638.958 687.397 630.289C679.375 621.443 673.58 611.445 670.014 600.299C666.626 589.152 664.931 577.74 664.931 566.062C664.931 557.393 665.911 548.81 667.872 540.318C669.836 531.825 672.865 523.775 676.968 516.168C681.246 508.382 686.863 501.748 693.817 496.264C700.949 490.777 709.064 487.948 718.157 487.771H723.237H815.778C827.013 488.831 833.164 494.935 834.235 506.083C834.235 511.037 832.362 515.196 828.618 518.557C825.052 521.742 820.771 523.332 815.778 523.332H727.518Z" fill="url(#paint29_linear_4_3)"/>
<path d="M354.144 651.546C344.87 651.546 335.687 650.484 326.594 648.361C317.679 646.239 309.121 643.141 300.918 639.072C292.715 634.825 285.496 629.253 279.254 622.353C273.012 615.453 269.624 607.224 269.09 597.671V586.523V501.863C269.09 496.908 270.873 492.837 274.439 489.652C278.183 486.29 282.552 484.611 287.544 484.611C298.245 485.497 304.037 491.245 304.93 501.863V589.442C305.286 594.926 307.338 599.528 311.082 603.243C315.003 606.781 319.284 609.613 323.921 611.735C328.733 613.861 333.638 615.453 338.631 616.513C343.802 617.576 348.973 618.106 354.144 618.106C359.314 618.106 364.395 617.576 369.388 616.513C374.559 615.453 379.461 613.861 384.098 611.735C388.913 609.613 393.191 606.781 396.937 603.243C400.859 599.528 402.998 594.926 403.354 589.442V501.863C403.354 496.908 405.137 492.837 408.706 489.652C412.45 486.29 416.818 484.611 421.811 484.611C432.509 485.497 438.392 491.245 439.462 501.863V586.523V597.671C438.928 607.224 435.45 615.453 429.03 622.353C422.791 629.253 415.569 634.825 407.367 639.072C399.164 643.141 390.518 646.239 381.425 648.361C372.507 650.484 363.414 651.546 354.144 651.546ZM492.954 484.611C497.947 484.611 502.227 486.29 505.793 489.652C509.359 492.837 511.23 496.908 511.411 501.863V565.823C511.23 573.076 511.676 579.8 512.747 585.994C513.996 592.008 516.847 597.405 521.306 602.183C525.762 606.96 531.379 609.526 538.155 609.879H623.742C628.735 610.056 632.835 611.912 636.045 615.453C639.433 618.992 641.128 623.236 641.128 628.191C640.95 632.968 639.167 637.037 635.779 640.399C632.569 643.584 628.557 645.266 623.742 645.443H529.062C516.581 644.733 506.24 640.575 498.037 632.968C490.012 625.182 484.217 615.717 480.651 604.572C477.263 593.424 475.48 581.569 475.302 569.008V501.863C475.48 497.085 477.263 493.104 480.651 489.918C484.039 486.557 488.139 484.787 492.954 484.611ZM727.518 524.419C720.742 524.775 715.037 527.341 710.4 532.116C705.942 536.893 702.732 542.38 700.771 548.571C698.81 554.588 697.829 560.779 697.829 567.149C697.829 573.519 698.719 579.8 700.505 585.994C702.466 592.184 705.764 597.671 710.4 602.446C715.037 607.047 720.742 609.526 727.518 609.879H815.778C827.013 610.939 833.164 617.043 834.235 628.191C834.057 633.145 832.184 637.303 828.618 640.665C825.052 643.85 820.771 645.443 815.778 645.443H730.459H718.157C705.676 644.733 695.422 640.045 687.397 631.376C679.375 622.53 673.58 612.532 670.014 601.386C666.626 590.239 664.931 578.827 664.931 567.149C664.931 558.48 665.911 549.897 667.872 541.405C669.836 532.912 672.865 524.862 676.968 517.255C681.246 509.469 686.863 502.835 693.817 497.351C700.949 491.864 709.064 489.035 718.157 488.859H723.237H815.778C827.013 489.918 833.164 496.022 834.235 507.17C834.235 512.124 832.362 516.283 828.618 519.644C825.052 522.829 820.771 524.419 815.778 524.419H727.518Z" fill="url(#paint30_linear_4_3)"/>
<path d="M354.144 645.024C344.87 645.024 335.687 643.962 326.594 641.839C317.679 639.717 309.121 636.618 300.918 632.55C292.715 628.302 285.496 622.731 279.254 615.831C273.012 608.931 269.624 600.702 269.09 591.149V580.001V495.34C269.09 490.386 270.873 486.315 274.439 483.13C278.183 479.768 282.552 478.088 287.544 478.088C298.245 478.974 304.037 484.722 304.93 495.34V582.92C305.286 588.404 307.338 593.005 311.082 596.72C315.003 600.259 319.284 603.09 323.921 605.213C328.733 607.338 333.638 608.931 338.631 609.991C343.802 611.053 348.973 611.583 354.144 611.583C359.314 611.583 364.395 611.053 369.388 609.991C374.559 608.931 379.461 607.338 384.098 605.213C388.913 603.09 393.191 600.259 396.937 596.72C400.859 593.005 402.998 588.404 403.354 582.92V495.34C403.354 490.386 405.137 486.315 408.706 483.13C412.45 479.768 416.818 478.088 421.811 478.088C432.509 478.974 438.392 484.722 439.462 495.34V580.001V591.149C438.928 600.702 435.45 608.931 429.03 615.831C422.791 622.731 415.569 628.302 407.367 632.55C399.164 636.618 390.518 639.717 381.425 641.839C372.507 643.962 363.414 645.024 354.144 645.024ZM492.954 478.088C497.947 478.088 502.227 479.768 505.793 483.13C509.359 486.315 511.23 490.386 511.411 495.34V559.301C511.23 566.554 511.676 573.278 512.747 579.471C513.996 585.485 516.847 590.883 521.306 595.66C525.762 600.438 531.379 603.004 538.155 603.357H623.742C628.735 603.533 632.835 605.39 636.045 608.931C639.433 612.469 641.128 616.714 641.128 621.668C640.95 626.446 639.167 630.514 635.779 633.876C632.569 637.061 628.557 638.744 623.742 638.92H529.062C516.581 638.211 506.24 634.053 498.037 626.446C490.012 618.66 484.217 609.194 480.651 598.049C477.263 586.901 475.48 575.047 475.302 562.486V495.34C475.48 490.563 477.263 486.581 480.651 483.396C484.039 480.034 488.139 478.265 492.954 478.088ZM727.518 517.897C720.742 518.253 715.037 520.818 710.4 525.593C705.942 530.371 702.732 535.858 700.771 542.049C698.81 548.066 697.829 554.257 697.829 560.627C697.829 566.997 698.719 573.278 700.505 579.471C702.466 585.662 705.764 591.149 710.4 595.924C715.037 600.525 720.742 603.004 727.518 603.357H815.778C827.013 604.417 833.164 610.521 834.235 621.668C834.057 626.623 832.184 630.781 828.618 634.143C825.052 637.328 820.771 638.92 815.778 638.92H730.459H718.157C705.676 638.211 695.422 633.523 687.397 624.854C679.375 616.008 673.58 606.009 670.014 594.864C666.626 583.716 664.931 572.305 664.931 560.627C664.931 551.958 665.911 543.375 667.872 534.882C669.836 526.39 672.865 518.34 676.968 510.733C681.246 502.947 686.863 496.313 693.817 490.829C700.949 485.342 709.064 482.513 718.157 482.336H723.237H815.778C827.013 483.396 833.164 489.5 834.235 500.648C834.235 505.602 832.362 509.76 828.618 513.122C825.052 516.307 820.771 517.897 815.778 517.897H727.518Z" fill="#C8D9D9"/>
</g>
<defs>
<linearGradient id="paint0_linear_4_3" x1="991.995" y1="221.744" x2="128.7" y2="879.873" gradientUnits="userSpaceOnUse">
<stop stop-color="#5EE1F5"/>
<stop offset="0.341346" stop-color="#43D7CA"/>
<stop offset="0.668269" stop-color="#1AB087"/>
<stop offset="1" stop-color="#126E55"/>
</linearGradient>
<linearGradient id="paint1_linear_4_3" x1="256.41" y1="939.699" x2="841.687" y2="159.986" gradientUnits="userSpaceOnUse">
<stop stop-color="#5EE1F5"/>
<stop offset="0.341346" stop-color="#43D7CA"/>
<stop offset="0.668269" stop-color="#1AB087"/>
<stop offset="1" stop-color="#126E55"/>
</linearGradient>
<linearGradient id="paint2_linear_4_3" x1="255.26" y1="873.985" x2="829.118" y2="205.39" gradientUnits="userSpaceOnUse">
<stop stop-color="#504F4F"/>
<stop offset="1" stop-color="#818181"/>
</linearGradient>
<linearGradient id="paint3_linear_4_3" x1="548.174" y1="408.176" x2="548.174" y2="679.943" gradientUnits="userSpaceOnUse">
<stop stop-color="#58DFEB"/>
<stop offset="1" stop-color="#158A6B"/>
</linearGradient>
<linearGradient id="paint4_linear_4_3" x1="547.078" y1="410.35" x2="547.078" y2="682.118" gradientUnits="userSpaceOnUse">
<stop stop-color="#58DFEB"/>
<stop offset="1" stop-color="#158A6B"/>
</linearGradient>
<linearGradient id="paint5_linear_4_3" x1="547.078" y1="410.35" x2="547.078" y2="682.118" gradientUnits="userSpaceOnUse">
<stop stop-color="#58DFEB"/>
<stop offset="1" stop-color="#158A6B"/>
</linearGradient>
<linearGradient id="paint6_linear_4_3" x1="547.078" y1="411.438" x2="547.078" y2="683.205" gradientUnits="userSpaceOnUse">
<stop stop-color="#58DFEB"/>
<stop offset="1" stop-color="#158A6B"/>
</linearGradient>
<linearGradient id="paint7_linear_4_3" x1="548.174" y1="415.786" x2="548.174" y2="687.553" gradientUnits="userSpaceOnUse">
<stop stop-color="#58DFEB"/>
<stop offset="1" stop-color="#158A6B"/>
</linearGradient>
<linearGradient id="paint8_linear_4_3" x1="547.078" y1="416.873" x2="547.078" y2="688.64" gradientUnits="userSpaceOnUse">
<stop stop-color="#58DFEB"/>
<stop offset="1" stop-color="#158A6B"/>
</linearGradient>
<linearGradient id="paint9_linear_4_3" x1="547.078" y1="416.873" x2="547.078" y2="688.64" gradientUnits="userSpaceOnUse">
<stop stop-color="#58DFEB"/>
<stop offset="1" stop-color="#158A6B"/>
</linearGradient>
<linearGradient id="paint10_linear_4_3" x1="547.078" y1="417.96" x2="547.078" y2="689.727" gradientUnits="userSpaceOnUse">
<stop stop-color="#58DFEB"/>
<stop offset="1" stop-color="#158A6B"/>
</linearGradient>
<linearGradient id="paint11_linear_4_3" x1="548.174" y1="414.699" x2="548.174" y2="686.466" gradientUnits="userSpaceOnUse">
<stop stop-color="#58DFEB"/>
<stop offset="1" stop-color="#158A6B"/>
</linearGradient>
<linearGradient id="paint12_linear_4_3" x1="547.078" y1="415.786" x2="547.078" y2="687.553" gradientUnits="userSpaceOnUse">
<stop stop-color="#58DFEB"/>
<stop offset="1" stop-color="#158A6B"/>
</linearGradient>
<linearGradient id="paint13_linear_4_3" x1="547.078" y1="415.786" x2="547.078" y2="687.553" gradientUnits="userSpaceOnUse">
<stop stop-color="#58DFEB"/>
<stop offset="1" stop-color="#158A6B"/>
</linearGradient>
<linearGradient id="paint14_linear_4_3" x1="547.078" y1="416.873" x2="547.078" y2="688.64" gradientUnits="userSpaceOnUse">
<stop stop-color="#58DFEB"/>
<stop offset="1" stop-color="#158A6B"/>
</linearGradient>
<linearGradient id="paint15_linear_4_3" x1="548.174" y1="413.612" x2="548.174" y2="685.379" gradientUnits="userSpaceOnUse">
<stop stop-color="#58DFEB"/>
<stop offset="1" stop-color="#158A6B"/>
</linearGradient>
<linearGradient id="paint16_linear_4_3" x1="547.078" y1="414.699" x2="547.078" y2="686.466" gradientUnits="userSpaceOnUse">
<stop stop-color="#58DFEB"/>
<stop offset="1" stop-color="#158A6B"/>
</linearGradient>
<linearGradient id="paint17_linear_4_3" x1="547.078" y1="414.699" x2="547.078" y2="686.466" gradientUnits="userSpaceOnUse">
<stop stop-color="#58DFEB"/>
<stop offset="1" stop-color="#158A6B"/>
</linearGradient>
<linearGradient id="paint18_linear_4_3" x1="547.078" y1="415.786" x2="547.078" y2="687.553" gradientUnits="userSpaceOnUse">
<stop stop-color="#58DFEB"/>
<stop offset="1" stop-color="#158A6B"/>
</linearGradient>
<linearGradient id="paint19_linear_4_3" x1="548.174" y1="412.525" x2="548.174" y2="684.292" gradientUnits="userSpaceOnUse">
<stop stop-color="#58DFEB"/>
<stop offset="1" stop-color="#158A6B"/>
</linearGradient>
<linearGradient id="paint20_linear_4_3" x1="547.078" y1="413.612" x2="547.078" y2="685.379" gradientUnits="userSpaceOnUse">
<stop stop-color="#58DFEB"/>
<stop offset="1" stop-color="#158A6B"/>
</linearGradient>
<linearGradient id="paint21_linear_4_3" x1="547.078" y1="413.612" x2="547.078" y2="685.379" gradientUnits="userSpaceOnUse">
<stop stop-color="#58DFEB"/>
<stop offset="1" stop-color="#158A6B"/>
</linearGradient>
<linearGradient id="paint22_linear_4_3" x1="547.078" y1="414.699" x2="547.078" y2="686.466" gradientUnits="userSpaceOnUse">
<stop stop-color="#58DFEB"/>
<stop offset="1" stop-color="#158A6B"/>
</linearGradient>
<linearGradient id="paint23_linear_4_3" x1="548.174" y1="411.438" x2="548.174" y2="683.205" gradientUnits="userSpaceOnUse">
<stop stop-color="#58DFEB"/>
<stop offset="1" stop-color="#158A6B"/>
</linearGradient>
<linearGradient id="paint24_linear_4_3" x1="547.078" y1="412.525" x2="547.078" y2="684.292" gradientUnits="userSpaceOnUse">
<stop stop-color="#58DFEB"/>
<stop offset="1" stop-color="#158A6B"/>
</linearGradient>
<linearGradient id="paint25_linear_4_3" x1="547.078" y1="412.525" x2="547.078" y2="684.292" gradientUnits="userSpaceOnUse">
<stop stop-color="#58DFEB"/>
<stop offset="1" stop-color="#158A6B"/>
</linearGradient>
<linearGradient id="paint26_linear_4_3" x1="547.078" y1="413.612" x2="547.078" y2="685.379" gradientUnits="userSpaceOnUse">
<stop stop-color="#58DFEB"/>
<stop offset="1" stop-color="#158A6B"/>
</linearGradient>
<linearGradient id="paint27_linear_4_3" x1="548.174" y1="410.35" x2="548.174" y2="682.118" gradientUnits="userSpaceOnUse">
<stop stop-color="#58DFEB"/>
<stop offset="1" stop-color="#158A6B"/>
</linearGradient>
<linearGradient id="paint28_linear_4_3" x1="547.078" y1="411.438" x2="547.078" y2="683.205" gradientUnits="userSpaceOnUse">
<stop stop-color="#58DFEB"/>
<stop offset="1" stop-color="#158A6B"/>
</linearGradient>
<linearGradient id="paint29_linear_4_3" x1="547.078" y1="411.438" x2="547.078" y2="683.205" gradientUnits="userSpaceOnUse">
<stop stop-color="#58DFEB"/>
<stop offset="1" stop-color="#158A6B"/>
</linearGradient>
<linearGradient id="paint30_linear_4_3" x1="547.078" y1="412.525" x2="547.078" y2="684.292" gradientUnits="userSpaceOnUse">
<stop stop-color="#58DFEB"/>
<stop offset="1" stop-color="#158A6B"/>
</linearGradient>
<clipPath id="clip0_4_3">
<rect width="1095" height="1086" fill="white"/>
</clipPath>
</defs>
</svg>
