<svg width="1096" height="1088" viewBox="0 0 1096 1088" fill="none" xmlns="http://www.w3.org/2000/svg">
<path d="M1095.52 543.534C1095.52 243.349 850.281 0 547.763 0C245.244 0 0.00390625 243.349 0.00390625 543.534C0.00390625 843.72 245.244 1087.07 547.763 1087.07C850.281 1087.07 1095.52 843.72 1095.52 543.534Z" fill="white"/>
<path d="M547.763 1087.07C850.281 1087.07 1095.52 843.72 1095.52 543.534C1095.52 243.349 850.281 0 547.763 0C245.244 0 0.00390625 243.349 0.00390625 543.534C0.00390625 843.72 245.244 1087.07 547.763 1087.07Z" fill="url(#paint0_linear_4_3)"/>
<path d="M1040.75 543.534C1040.75 813.702 820.03 1032.72 547.763 1032.72C275.496 1032.72 54.7798 813.702 54.7798 543.534C54.7798 273.367 275.496 54.3534 547.763 54.3534C820.03 54.3534 1040.75 273.367 1040.75 543.534Z" fill="url(#paint1_linear_4_3)"/>
<path d="M547.763 990.32C790.988 990.32 988.161 790.287 988.161 543.534C988.161 296.782 790.988 96.7491 547.763 96.7491C304.538 96.7491 107.365 296.782 107.365 543.534C107.365 790.287 304.538 990.32 547.763 990.32Z" fill="url(#paint2_linear_4_3)"/>
<path d="M355.239 647.76C345.966 647.76 336.783 646.697 327.69 644.575C318.775 642.452 310.216 639.354 302.014 635.286C293.811 631.038 286.591 625.467 280.35 618.567C274.108 611.666 270.72 603.437 270.186 593.885V582.737V498.076C270.186 493.122 271.969 489.05 275.535 485.865C279.279 482.504 283.647 480.824 288.64 480.824C299.34 481.71 305.133 487.458 306.026 498.076V585.656C306.382 591.14 308.433 595.741 312.177 599.456C316.099 602.994 320.38 605.826 325.017 607.949C329.829 610.074 334.734 611.666 339.727 612.726C344.898 613.789 350.068 614.319 355.239 614.319C360.41 614.319 365.491 613.789 370.483 612.726C375.654 611.666 380.557 610.074 385.193 607.949C390.008 605.826 394.286 602.994 398.033 599.456C401.955 595.741 404.094 591.14 404.45 585.656V498.076C404.45 493.122 406.233 489.05 409.802 485.865C413.545 482.504 417.914 480.824 422.907 480.824C433.604 481.71 439.487 487.458 440.558 498.076V582.737V593.885C440.024 603.437 436.546 611.666 430.126 618.567C423.887 625.467 416.665 631.038 408.462 635.286C400.26 639.354 391.613 642.452 382.52 644.575C373.603 646.697 364.51 647.76 355.239 647.76ZM494.05 480.824C499.042 480.824 503.323 482.504 506.889 485.865C510.455 489.05 512.326 493.122 512.506 498.076V562.036C512.326 569.29 512.772 576.013 513.843 582.207C515.092 588.221 517.943 593.618 522.402 598.396C526.858 603.174 532.475 605.739 539.251 606.092H624.838C629.831 606.269 633.931 608.125 637.141 611.666C640.528 615.205 642.224 619.45 642.224 624.404C642.046 629.182 640.263 633.25 636.875 636.612C633.665 639.797 629.653 641.479 624.838 641.656H530.158C517.677 640.947 507.335 636.789 499.133 629.182C491.108 621.396 485.313 611.93 481.747 600.785C478.359 589.637 476.576 577.782 476.398 565.221V498.076C476.576 493.298 478.359 489.317 481.747 486.132C485.135 482.77 489.235 481.001 494.05 480.824ZM728.614 520.633C721.838 520.989 716.133 523.554 711.496 528.329C707.037 533.107 703.827 538.594 701.867 544.784C699.906 550.801 698.925 556.992 698.925 563.363C698.925 569.733 699.815 576.013 701.601 582.207C703.562 588.398 706.859 593.885 711.496 598.66C716.133 603.261 721.838 605.739 728.614 606.092H816.874C828.108 607.152 834.26 613.256 835.331 624.404C835.153 629.358 833.279 633.516 829.713 636.878C826.148 640.063 821.867 641.656 816.874 641.656H731.555H719.252C706.772 640.947 696.518 636.259 688.493 627.589C680.471 618.743 674.676 608.745 671.11 597.6C667.722 586.452 666.027 575.04 666.027 563.363C666.027 554.693 667.007 546.111 668.968 537.618C670.932 529.125 673.961 521.076 678.064 513.469C682.342 505.683 687.959 499.049 694.913 493.565C702.044 488.078 710.16 485.248 719.252 485.072H724.333H816.874C828.108 486.132 834.26 492.236 835.331 503.383C835.331 508.338 833.457 512.496 829.713 515.858C826.148 519.043 821.867 520.633 816.874 520.633H728.614Z" fill="url(#paint3_linear_4_3)"/>
<path d="M354.144 649.934C344.87 649.934 335.687 648.871 326.594 646.749C317.679 644.626 309.121 641.528 300.918 637.46C292.715 633.212 285.496 627.641 279.254 620.741C273.012 613.841 269.624 605.611 269.09 596.059V584.911V500.25C269.09 495.296 270.873 491.225 274.439 488.04C278.183 484.678 282.552 482.998 287.544 482.998C298.245 483.884 304.037 489.632 304.93 500.25V587.83C305.286 593.314 307.338 597.915 311.082 601.63C315.003 605.168 319.284 608 323.921 610.123C328.733 612.248 333.638 613.841 338.631 614.9C343.802 615.963 348.973 616.493 354.144 616.493C359.314 616.493 364.395 615.963 369.388 614.9C374.559 613.841 379.461 612.248 384.098 610.123C388.913 608 393.191 605.168 396.937 601.63C400.859 597.915 402.998 593.314 403.354 587.83V500.25C403.354 495.296 405.137 491.225 408.706 488.04C412.45 484.678 416.818 482.998 421.811 482.998C432.509 483.884 438.392 489.632 439.462 500.25V584.911V596.059C438.928 605.611 435.45 613.841 429.03 620.741C422.791 627.641 415.569 633.212 407.367 637.46C399.164 641.528 390.518 644.626 381.425 646.749C372.507 648.871 363.414 649.934 354.144 649.934ZM492.954 482.998C497.947 482.998 502.227 484.678 505.793 488.04C509.359 491.225 511.23 495.296 511.411 500.25V564.21C511.23 571.464 511.676 578.187 512.747 584.381C513.996 590.395 516.847 595.793 521.306 600.57C525.762 605.348 531.379 607.913 538.155 608.267H623.742C628.735 608.443 632.835 610.299 636.045 613.841C639.433 617.379 641.128 621.624 641.128 626.578C640.95 631.356 639.167 635.424 635.779 638.786C632.569 641.971 628.557 643.653 623.742 643.83H529.062C516.581 643.121 506.24 638.963 498.037 631.356C490.012 623.57 484.217 614.104 480.651 602.959C477.263 591.811 475.48 579.957 475.302 567.396V500.25C475.48 495.472 477.263 491.491 480.651 488.306C484.039 484.944 488.139 483.175 492.954 482.998ZM727.518 522.807C720.742 523.163 715.037 525.728 710.4 530.503C705.942 535.281 702.732 540.768 700.771 546.959C698.81 552.976 697.829 559.166 697.829 565.537C697.829 571.907 698.719 578.187 700.505 584.381C702.466 590.572 705.764 596.059 710.4 600.834C715.037 605.435 720.742 607.913 727.518 608.267H815.778C827.013 609.327 833.164 615.43 834.235 626.578C834.057 631.533 832.184 635.691 828.618 639.052C825.052 642.238 820.771 643.83 815.778 643.83H730.459H718.157C705.676 643.121 695.422 638.433 687.397 629.763C679.375 620.917 673.58 610.919 670.014 599.774C666.626 588.626 664.931 577.215 664.931 565.537C664.931 556.867 665.911 548.285 667.872 539.792C669.836 531.299 672.865 523.25 676.968 515.643C681.246 507.857 686.863 501.223 693.817 495.739C700.949 490.252 709.064 487.423 718.157 487.246H723.237H815.778C827.013 488.306 833.164 494.41 834.235 505.558C834.235 510.512 832.362 514.67 828.618 518.032C825.052 521.217 820.771 522.807 815.778 522.807H727.518Z" fill="url(#paint4_linear_4_3)"/>
<path d="M354.144 649.934C344.87 649.934 335.687 648.871 326.594 646.749C317.679 644.626 309.121 641.528 300.918 637.46C292.715 633.212 285.496 627.641 279.254 620.741C273.012 613.841 269.624 605.611 269.09 596.059V584.911V500.25C269.09 495.296 270.873 491.225 274.439 488.04C278.183 484.678 282.552 482.998 287.544 482.998C298.245 483.884 304.037 489.632 304.93 500.25V587.83C305.286 593.314 307.338 597.915 311.082 601.63C315.003 605.168 319.284 608 323.921 610.123C328.733 612.248 333.638 613.841 338.631 614.9C343.802 615.963 348.973 616.493 354.144 616.493C359.314 616.493 364.395 615.963 369.388 614.9C374.559 613.841 379.461 612.248 384.098 610.123C388.913 608 393.191 605.168 396.937 601.63C400.859 597.915 402.998 593.314 403.354 587.83V500.25C403.354 495.296 405.137 491.225 408.706 488.04C412.45 484.678 416.818 482.998 421.811 482.998C432.509 483.884 438.392 489.632 439.462 500.25V584.911V596.059C438.928 605.611 435.45 613.841 429.03 620.741C422.791 627.641 415.569 633.212 407.367 637.46C399.164 641.528 390.518 644.626 381.425 646.749C372.507 648.871 363.414 649.934 354.144 649.934ZM492.954 482.998C497.947 482.998 502.227 484.678 505.793 488.04C509.359 491.225 511.23 495.296 511.411 500.25V564.21C511.23 571.464 511.676 578.187 512.747 584.381C513.996 590.395 516.847 595.793 521.306 600.57C525.762 605.348 531.379 607.913 538.155 608.267H623.742C628.735 608.443 632.835 610.299 636.045 613.841C639.433 617.379 641.128 621.624 641.128 626.578C640.95 631.356 639.167 635.424 635.779 638.786C632.569 641.971 628.557 643.653 623.742 643.83H529.062C516.581 643.121 506.24 638.963 498.037 631.356C490.012 623.57 484.217 614.104 480.651 602.959C477.263 591.811 475.48 579.957 475.302 567.396V500.25C475.48 495.472 477.263 491.491 480.651 488.306C484.039 484.944 488.139 483.175 492.954 482.998ZM727.518 522.807C720.742 523.163 715.037 525.728 710.4 530.503C705.942 535.281 702.732 540.768 700.771 546.959C698.81 552.976 697.829 559.166 697.829 565.537C697.829 571.907 698.719 578.187 700.505 584.381C702.466 590.572 705.764 596.059 710.4 600.834C715.037 605.435 720.742 607.913 727.518 608.267H815.778C827.013 609.327 833.164 615.43 834.235 626.578C834.057 631.533 832.184 635.691 828.618 639.052C825.052 642.238 820.771 643.83 815.778 643.83H730.459H718.157C705.676 643.121 695.422 638.433 687.397 629.763C679.375 620.917 673.58 610.919 670.014 599.774C666.626 588.626 664.931 577.215 664.931 565.537C664.931 556.867 665.911 548.285 667.872 539.792C669.836 531.299 672.865 523.25 676.968 515.643C681.246 507.857 686.863 501.223 693.817 495.739C700.949 490.252 709.064 487.423 718.157 487.246H723.237H815.778C827.013 488.306 833.164 494.41 834.235 505.558C834.235 510.512 832.362 514.67 828.618 518.032C825.052 521.217 820.771 522.807 815.778 522.807H727.518Z" fill="url(#paint5_linear_4_3)"/>
<path d="M354.144 651.021C344.87 651.021 335.687 649.958 326.594 647.836C317.679 645.713 309.121 642.615 300.918 638.547C292.715 634.299 285.496 628.728 279.254 621.828C273.012 614.928 269.624 606.698 269.09 597.146V585.998V501.337C269.09 496.383 270.873 492.312 274.439 489.127C278.183 485.765 282.552 484.085 287.544 484.085C298.245 484.971 304.037 490.719 304.93 501.337V588.917C305.286 594.401 307.338 599.002 311.082 602.717C315.003 606.256 319.284 609.087 323.921 611.21C328.733 613.335 333.638 614.928 338.631 615.988C343.802 617.05 348.973 617.58 354.144 617.58C359.314 617.58 364.395 617.05 369.388 615.988C374.559 614.928 379.461 613.335 384.098 611.21C388.913 609.087 393.191 606.256 396.937 602.717C400.859 599.002 402.998 594.401 403.354 588.917V501.337C403.354 496.383 405.137 492.312 408.706 489.127C412.45 485.765 416.818 484.085 421.811 484.085C432.509 484.971 438.392 490.719 439.462 501.337V585.998V597.146C438.928 606.698 435.45 614.928 429.03 621.828C422.791 628.728 415.569 634.299 407.367 638.547C399.164 642.615 390.518 645.713 381.425 647.836C372.507 649.958 363.414 651.021 354.144 651.021ZM492.954 484.085C497.947 484.085 502.227 485.765 505.793 489.127C509.359 492.312 511.23 496.383 511.411 501.337V565.297C511.23 572.551 511.676 579.274 512.747 585.468C513.996 591.482 516.847 596.88 521.306 601.657C525.762 606.435 531.379 609 538.155 609.354H623.742C628.735 609.53 632.835 611.387 636.045 614.928C639.433 618.466 641.128 622.711 641.128 627.665C640.95 632.443 639.167 636.511 635.779 639.873C632.569 643.058 628.557 644.74 623.742 644.917H529.062C516.581 644.208 506.24 640.05 498.037 632.443C490.012 624.657 484.217 615.191 480.651 604.046C477.263 592.898 475.48 581.044 475.302 568.483V501.337C475.48 496.559 477.263 492.578 480.651 489.393C484.039 486.031 488.139 484.262 492.954 484.085ZM727.518 523.894C720.742 524.25 715.037 526.815 710.4 531.59C705.942 536.368 702.732 541.855 700.771 548.046C698.81 554.063 697.829 560.254 697.829 566.624C697.829 572.994 698.719 579.274 700.505 585.468C702.466 591.659 705.764 597.146 710.4 601.921C715.037 606.522 720.742 609 727.518 609.354H815.778C827.013 610.414 833.164 616.517 834.235 627.665C834.057 632.62 832.184 636.778 828.618 640.139C825.052 643.325 820.771 644.917 815.778 644.917H730.459H718.157C705.676 644.208 695.422 639.52 687.397 630.85C679.375 622.004 673.58 612.006 670.014 600.861C666.626 589.713 664.931 578.302 664.931 566.624C664.931 557.954 665.911 549.372 667.872 540.879C669.836 532.386 672.865 524.337 676.968 516.73C681.246 508.944 686.863 502.31 693.817 496.826C700.949 491.339 709.064 488.51 718.157 488.333H723.237H815.778C827.013 489.393 833.164 495.497 834.235 506.645C834.235 511.599 832.362 515.757 828.618 519.119C825.052 522.304 820.771 523.894 815.778 523.894H727.518Z" fill="url(#paint6_linear_4_3)"/>
<path d="M355.239 655.369C345.966 655.369 336.783 654.307 327.69 652.184C318.775 650.062 310.216 646.964 302.014 642.895C293.811 638.648 286.591 633.076 280.35 626.176C274.108 619.276 270.72 611.047 270.186 601.494V590.346V505.685C270.186 500.731 271.969 496.66 275.535 493.475C279.279 490.113 283.647 488.434 288.64 488.434C299.34 489.32 305.133 495.067 306.026 505.685V593.265C306.382 598.749 308.433 603.35 312.177 607.065C316.099 610.604 320.38 613.436 325.017 615.558C329.829 617.683 334.734 619.276 339.727 620.336C344.898 621.398 350.068 621.928 355.239 621.928C360.41 621.928 365.491 621.398 370.483 620.336C375.654 619.276 380.557 617.683 385.193 615.558C390.008 613.436 394.286 610.604 398.033 607.065C401.955 603.35 404.094 598.749 404.45 593.265V505.685C404.45 500.731 406.233 496.66 409.802 493.475C413.545 490.113 417.914 488.434 422.907 488.434C433.604 489.32 439.487 495.067 440.558 505.685V590.346V601.494C440.024 611.047 436.546 619.276 430.126 626.176C423.887 633.076 416.665 638.648 408.462 642.895C400.26 646.964 391.613 650.062 382.52 652.184C373.603 654.307 364.51 655.369 355.239 655.369ZM494.05 488.434C499.042 488.434 503.323 490.113 506.889 493.475C510.455 496.66 512.326 500.731 512.506 505.685V569.646C512.326 576.899 512.772 583.623 513.843 589.816C515.092 595.831 517.943 601.228 522.402 606.006C526.858 610.783 532.475 613.349 539.251 613.702H624.838C629.831 613.879 633.931 615.735 637.141 619.276C640.528 622.814 642.224 627.059 642.224 632.014C642.046 636.791 640.263 640.86 636.875 644.221C633.665 647.407 629.653 649.089 624.838 649.265H530.158C517.677 648.556 507.335 644.398 499.133 636.791C491.108 629.005 485.313 619.54 481.747 608.394C478.359 597.247 476.576 585.392 476.398 572.831V505.685C476.576 500.908 478.359 496.926 481.747 493.741C485.135 490.379 489.235 488.61 494.05 488.434ZM728.614 528.242C721.838 528.598 716.133 531.164 711.496 535.939C707.037 540.716 703.827 546.203 701.867 552.394C699.906 558.411 698.925 564.602 698.925 570.972C698.925 577.342 699.815 583.623 701.601 589.816C703.562 596.007 706.859 601.494 711.496 606.269C716.133 610.87 721.838 613.349 728.614 613.702H816.874C828.108 614.762 834.26 620.866 835.331 632.014C835.153 636.968 833.279 641.126 829.713 644.488C826.148 647.673 821.867 649.265 816.874 649.265H731.555H719.252C706.772 648.556 696.518 643.868 688.493 635.199C680.471 626.353 674.676 616.354 671.11 605.209C667.722 594.061 666.027 582.65 666.027 570.972C666.027 562.303 667.007 553.72 668.968 545.228C670.932 536.735 673.961 528.685 678.064 521.078C682.342 513.292 687.959 506.658 694.913 501.174C702.044 495.687 710.16 492.858 719.252 492.681H724.333H816.874C828.108 493.741 834.26 499.845 835.331 510.993C835.331 515.947 833.457 520.105 829.713 523.467C826.148 526.652 821.867 528.242 816.874 528.242H728.614Z" fill="url(#paint7_linear_4_3)"/>
<path d="M354.144 656.456C344.87 656.456 335.687 655.394 326.594 653.271C317.679 651.149 309.121 648.051 300.918 643.982C292.715 639.735 285.496 634.163 279.254 627.263C273.012 620.363 269.624 612.134 269.09 602.581V591.433V506.772C269.09 501.818 270.873 497.747 274.439 494.562C278.183 491.2 282.552 489.521 287.544 489.521C298.245 490.407 304.037 496.155 304.93 506.772V594.352C305.286 599.836 307.338 604.437 311.082 608.152C315.003 611.691 319.284 614.523 323.921 616.645C328.733 618.77 333.638 620.363 338.631 621.423C343.802 622.485 348.973 623.015 354.144 623.015C359.314 623.015 364.395 622.485 369.388 621.423C374.559 620.363 379.461 618.77 384.098 616.645C388.913 614.523 393.191 611.691 396.937 608.152C400.859 604.437 402.998 599.836 403.354 594.352V506.772C403.354 501.818 405.137 497.747 408.706 494.562C412.45 491.2 416.818 489.521 421.811 489.521C432.509 490.407 438.392 496.155 439.462 506.772V591.433V602.581C438.928 612.134 435.45 620.363 429.03 627.263C422.791 634.163 415.569 639.735 407.367 643.982C399.164 648.051 390.518 651.149 381.425 653.271C372.507 655.394 363.414 656.456 354.144 656.456ZM492.954 489.521C497.947 489.521 502.227 491.2 505.793 494.562C509.359 497.747 511.23 501.818 511.411 506.772V570.733C511.23 577.986 511.676 584.71 512.747 590.903C513.996 596.918 516.847 602.315 521.306 607.093C525.762 611.87 531.379 614.436 538.155 614.789H623.742C628.735 614.966 632.835 616.822 636.045 620.363C639.433 623.901 641.128 628.146 641.128 633.101C640.95 637.878 639.167 641.947 635.779 645.308C632.569 648.494 628.557 650.176 623.742 650.352H529.062C516.581 649.643 506.24 645.485 498.037 637.878C490.012 630.092 484.217 620.627 480.651 609.481C477.263 598.334 475.48 586.479 475.302 573.918V506.772C475.48 501.995 477.263 498.013 480.651 494.828C484.039 491.467 488.139 489.697 492.954 489.521ZM727.518 529.329C720.742 529.685 715.037 532.251 710.4 537.026C705.942 541.803 702.732 547.29 700.771 553.481C698.81 559.498 697.829 565.689 697.829 572.059C697.829 578.429 698.719 584.71 700.505 590.903C702.466 597.094 705.764 602.581 710.4 607.356C715.037 611.957 720.742 614.436 727.518 614.789H815.778C827.013 615.849 833.164 621.953 834.235 633.101C834.057 638.055 832.184 642.213 828.618 645.575C825.052 648.76 820.771 650.352 815.778 650.352H730.459H718.157C705.676 649.643 695.422 644.955 687.397 636.286C679.375 627.44 673.58 617.442 670.014 606.296C666.626 595.148 664.931 583.737 664.931 572.059C664.931 563.39 665.911 554.807 667.872 546.315C669.836 537.822 672.865 529.772 676.968 522.165C681.246 514.379 686.863 507.745 693.817 502.261C700.949 496.774 709.064 493.945 718.157 493.768H723.237H815.778C827.013 494.828 833.164 500.932 834.235 512.08C834.235 517.034 832.362 521.192 828.618 524.554C825.052 527.739 820.771 529.329 815.778 529.329H727.518Z" fill="url(#paint8_linear_4_3)"/>
<path d="M354.144 656.456C344.87 656.456 335.687 655.394 326.594 653.271C317.679 651.149 309.121 648.051 300.918 643.982C292.715 639.735 285.496 634.163 279.254 627.263C273.012 620.363 269.624 612.134 269.09 602.581V591.433V506.772C269.09 501.818 270.873 497.747 274.439 494.562C278.183 491.2 282.552 489.521 287.544 489.521C298.245 490.407 304.037 496.155 304.93 506.772V594.352C305.286 599.836 307.338 604.437 311.082 608.152C315.003 611.691 319.284 614.523 323.921 616.645C328.733 618.77 333.638 620.363 338.631 621.423C343.802 622.485 348.973 623.015 354.144 623.015C359.314 623.015 364.395 622.485 369.388 621.423C374.559 620.363 379.461 618.77 384.098 616.645C388.913 614.523 393.191 611.691 396.937 608.152C400.859 604.437 402.998 599.836 403.354 594.352V506.772C403.354 501.818 405.137 497.747 408.706 494.562C412.45 491.2 416.818 489.521 421.811 489.521C432.509 490.407 438.392 496.155 439.462 506.772V591.433V602.581C438.928 612.134 435.45 620.363 429.03 627.263C422.791 634.163 415.569 639.735 407.367 643.982C399.164 648.051 390.518 651.149 381.425 653.271C372.507 655.394 363.414 656.456 354.144 656.456ZM492.954 489.521C497.947 489.521 502.227 491.2 505.793 494.562C509.359 497.747 511.23 501.818 511.411 506.772V570.733C511.23 577.986 511.676 584.71 512.747 590.903C513.996 596.918 516.847 602.315 521.306 607.093C525.762 611.87 531.379 614.436 538.155 614.789H623.742C628.735 614.966 632.835 616.822 636.045 620.363C639.433 623.901 641.128 628.146 641.128 633.101C640.95 637.878 639.167 641.947 635.779 645.308C632.569 648.494 628.557 650.176 623.742 650.352H529.062C516.581 649.643 506.24 645.485 498.037 637.878C490.012 630.092 484.217 620.627 480.651 609.481C477.263 598.334 475.48 586.479 475.302 573.918V506.772C475.48 501.995 477.263 498.013 480.651 494.828C484.039 491.467 488.139 489.697 492.954 489.521ZM727.518 529.329C720.742 529.685 715.037 532.251 710.4 537.026C705.942 541.803 702.732 547.29 700.771 553.481C698.81 559.498 697.829 565.689 697.829 572.059C697.829 578.429 698.719 584.71 700.505 590.903C702.466 597.094 705.764 602.581 710.4 607.356C715.037 611.957 720.742 614.436 727.518 614.789H815.778C827.013 615.849 833.164 621.953 834.235 633.101C834.057 638.055 832.184 642.213 828.618 645.575C825.052 648.76 820.771 650.352 815.778 650.352H730.459H718.157C705.676 649.643 695.422 644.955 687.397 636.286C679.375 627.44 673.58 617.442 670.014 606.296C666.626 595.148 664.931 583.737 664.931 572.059C664.931 563.39 665.911 554.807 667.872 546.315C669.836 537.822 672.865 529.772 676.968 522.165C681.246 514.379 686.863 507.745 693.817 502.261C700.949 496.774 709.064 493.945 718.157 493.768H723.237H815.778C827.013 494.828 833.164 500.932 834.235 512.08C834.235 517.034 832.362 521.192 828.618 524.554C825.052 527.739 820.771 529.329 815.778 529.329H727.518Z" fill="url(#paint9_linear_4_3)"/>
<path d="M354.144 657.543C344.87 657.543 335.687 656.481 326.594 654.358C317.679 652.236 309.121 649.138 300.918 645.069C292.715 640.822 285.496 635.25 279.254 628.35C273.012 621.45 269.624 613.221 269.09 603.668V592.52V507.859C269.09 502.905 270.873 498.834 274.439 495.649C278.183 492.287 282.552 490.608 287.544 490.608C298.245 491.494 304.037 497.242 304.93 507.859V595.439C305.286 600.923 307.338 605.524 311.082 609.239C315.003 612.778 319.284 615.61 323.921 617.732C328.733 619.857 333.638 621.45 338.631 622.51C343.802 623.573 348.973 624.102 354.144 624.102C359.314 624.102 364.395 623.573 369.388 622.51C374.559 621.45 379.461 619.857 384.098 617.732C388.913 615.61 393.191 612.778 396.937 609.239C400.859 605.524 402.998 600.923 403.354 595.439V507.859C403.354 502.905 405.137 498.834 408.706 495.649C412.45 492.287 416.818 490.608 421.811 490.608C432.509 491.494 438.392 497.242 439.462 507.859V592.52V603.668C438.928 613.221 435.45 621.45 429.03 628.35C422.791 635.25 415.569 640.822 407.367 645.069C399.164 649.138 390.518 652.236 381.425 654.358C372.507 656.481 363.414 657.543 354.144 657.543ZM492.954 490.608C497.947 490.608 502.227 492.287 505.793 495.649C509.359 498.834 511.23 502.905 511.411 507.859V571.82C511.23 579.073 511.676 585.797 512.747 591.99C513.996 598.005 516.847 603.402 521.306 608.18C525.762 612.957 531.379 615.523 538.155 615.876H623.742C628.735 616.053 632.835 617.909 636.045 621.45C639.433 624.988 641.128 629.233 641.128 634.188C640.95 638.965 639.167 643.034 635.779 646.395C632.569 649.581 628.557 651.263 623.742 651.44H529.062C516.581 650.73 506.24 646.572 498.037 638.965C490.012 631.179 484.217 621.714 480.651 610.568C477.263 599.421 475.48 587.566 475.302 575.005V507.859C475.48 503.082 477.263 499.1 480.651 495.915C484.039 492.554 488.139 490.784 492.954 490.608ZM727.518 530.416C720.742 530.772 715.037 533.338 710.4 538.113C705.942 542.89 702.732 548.377 700.771 554.568C698.81 560.585 697.829 566.776 697.829 573.146C697.829 579.516 698.719 585.797 700.505 591.99C702.466 598.181 705.764 603.668 710.4 608.443C715.037 613.044 720.742 615.523 727.518 615.876H815.778C827.013 616.936 833.164 623.04 834.235 634.188C834.057 639.142 832.184 643.3 828.618 646.662C825.052 649.847 820.771 651.44 815.778 651.44H730.459H718.157C705.676 650.73 695.422 646.042 687.397 637.373C679.375 628.527 673.58 618.529 670.014 607.383C666.626 596.235 664.931 584.824 664.931 573.146C664.931 564.477 665.911 555.894 667.872 547.402C669.836 538.909 672.865 530.859 676.968 523.252C681.246 515.466 686.863 508.832 693.817 503.348C700.949 497.861 709.064 495.032 718.157 494.855H723.237H815.778C827.013 495.915 833.164 502.019 834.235 513.167C834.235 518.121 832.362 522.279 828.618 525.641C825.052 528.826 820.771 530.416 815.778 530.416H727.518Z" fill="url(#paint10_linear_4_3)"/>
<path d="M355.239 654.282C345.966 654.282 336.783 653.22 327.69 651.097C318.775 648.975 310.216 645.876 302.014 641.808C293.811 637.56 286.591 631.989 280.35 625.089C274.108 618.189 270.72 609.96 270.186 600.407V589.259V504.598C270.186 499.644 271.969 495.573 275.535 492.388C279.279 489.026 283.647 487.347 288.64 487.347C299.34 488.232 305.133 493.98 306.026 504.598V592.178C306.382 597.662 308.433 602.263 312.177 605.978C316.099 609.517 320.38 612.349 325.017 614.471C329.829 616.596 334.734 618.189 339.727 619.249C344.898 620.311 350.068 620.841 355.239 620.841C360.41 620.841 365.491 620.311 370.483 619.249C375.654 618.189 380.557 616.596 385.193 614.471C390.008 612.349 394.286 609.517 398.033 605.978C401.955 602.263 404.094 597.662 404.45 592.178V504.598C404.45 499.644 406.233 495.573 409.802 492.388C413.545 489.026 417.914 487.347 422.907 487.347C433.604 488.232 439.487 493.98 440.558 504.598V589.259V600.407C440.024 609.96 436.546 618.189 430.126 625.089C423.887 631.989 416.665 637.56 408.462 641.808C400.26 645.876 391.613 648.975 382.52 651.097C373.603 653.22 364.51 654.282 355.239 654.282ZM494.05 487.347C499.042 487.347 503.323 489.026 506.889 492.388C510.455 495.573 512.326 499.644 512.506 504.598V568.559C512.326 575.812 512.772 582.536 513.843 588.729C515.092 594.743 517.943 600.141 522.402 604.918C526.858 609.696 532.475 612.262 539.251 612.615H624.838C629.831 612.792 633.931 614.648 637.141 618.189C640.528 621.727 642.224 625.972 642.224 630.927C642.046 635.704 640.263 639.773 636.875 643.134C633.665 646.319 629.653 648.002 624.838 648.178H530.158C517.677 647.469 507.335 643.311 499.133 635.704C491.108 627.918 485.313 618.452 481.747 607.307C478.359 596.159 476.576 584.305 476.398 571.744V504.598C476.576 499.821 478.359 495.839 481.747 492.654C485.135 489.292 489.235 487.523 494.05 487.347ZM728.614 527.155C721.838 527.511 716.133 530.076 711.496 534.851C707.037 539.629 703.827 545.116 701.867 551.307C699.906 557.324 698.925 563.515 698.925 569.885C698.925 576.255 699.815 582.536 701.601 588.729C703.562 594.92 706.859 600.407 711.496 605.182C716.133 609.783 721.838 612.262 728.614 612.615H816.874C828.108 613.675 834.26 619.779 835.331 630.927C835.153 635.881 833.279 640.039 829.713 643.401C826.148 646.586 821.867 648.178 816.874 648.178H731.555H719.252C706.772 647.469 696.518 642.781 688.493 634.112C680.471 625.266 674.676 615.267 671.11 604.122C667.722 592.974 666.027 581.563 666.027 569.885C666.027 561.216 667.007 552.633 668.968 544.14C670.932 535.648 673.961 527.598 678.064 519.991C682.342 512.205 687.959 505.571 694.913 500.087C702.044 494.6 710.16 491.771 719.252 491.594H724.333H816.874C828.108 492.654 834.26 498.758 835.331 509.906C835.331 514.86 833.457 519.018 829.713 522.38C826.148 525.565 821.867 527.155 816.874 527.155H728.614Z" fill="url(#paint11_linear_4_3)"/>
<path d="M354.144 655.369C344.87 655.369 335.687 654.307 326.594 652.184C317.679 650.062 309.121 646.964 300.918 642.895C292.715 638.648 285.496 633.076 279.254 626.176C273.012 619.276 269.624 611.047 269.09 601.494V590.346V505.685C269.09 500.731 270.873 496.66 274.439 493.475C278.183 490.113 282.552 488.434 287.544 488.434C298.245 489.32 304.037 495.067 304.93 505.685V593.265C305.286 598.749 307.338 603.35 311.082 607.065C315.003 610.604 319.284 613.436 323.921 615.558C328.733 617.683 333.638 619.276 338.631 620.336C343.802 621.398 348.973 621.928 354.144 621.928C359.314 621.928 364.395 621.398 369.388 620.336C374.559 619.276 379.461 617.683 384.098 615.558C388.913 613.436 393.191 610.604 396.937 607.065C400.859 603.35 402.998 598.749 403.354 593.265V505.685C403.354 500.731 405.137 496.66 408.706 493.475C412.45 490.113 416.818 488.434 421.811 488.434C432.509 489.32 438.392 495.067 439.462 505.685V590.346V601.494C438.928 611.047 435.45 619.276 429.03 626.176C422.791 633.076 415.569 638.648 407.367 642.895C399.164 646.964 390.518 650.062 381.425 652.184C372.507 654.307 363.414 655.369 354.144 655.369ZM492.954 488.434C497.947 488.434 502.227 490.113 505.793 493.475C509.359 496.66 511.23 500.731 511.411 505.685V569.646C511.23 576.899 511.676 583.623 512.747 589.816C513.996 595.831 516.847 601.228 521.306 606.006C525.762 610.783 531.379 613.349 538.155 613.702H623.742C628.735 613.879 632.835 615.735 636.045 619.276C639.433 622.814 641.128 627.059 641.128 632.014C640.95 636.791 639.167 640.86 635.779 644.221C632.569 647.407 628.557 649.089 623.742 649.265H529.062C516.581 648.556 506.24 644.398 498.037 636.791C490.012 629.005 484.217 619.54 480.651 608.394C477.263 597.247 475.48 585.392 475.302 572.831V505.685C475.48 500.908 477.263 496.926 480.651 493.741C484.039 490.379 488.139 488.61 492.954 488.434ZM727.518 528.242C720.742 528.598 715.037 531.164 710.4 535.939C705.942 540.716 702.732 546.203 700.771 552.394C698.81 558.411 697.829 564.602 697.829 570.972C697.829 577.342 698.719 583.623 700.505 589.816C702.466 596.007 705.764 601.494 710.4 606.269C715.037 610.87 720.742 613.349 727.518 613.702H815.778C827.013 614.762 833.164 620.866 834.235 632.014C834.057 636.968 832.184 641.126 828.618 644.488C825.052 647.673 820.771 649.265 815.778 649.265H730.459H718.157C705.676 648.556 695.422 643.868 687.397 635.199C679.375 626.353 673.58 616.354 670.014 605.209C666.626 594.061 664.931 582.65 664.931 570.972C664.931 562.303 665.911 553.72 667.872 545.228C669.836 536.735 672.865 528.685 676.968 521.078C681.246 513.292 686.863 506.658 693.817 501.174C700.949 495.687 709.064 492.858 718.157 492.681H723.237H815.778C827.013 493.741 833.164 499.845 834.235 510.993C834.235 515.947 832.362 520.105 828.618 523.467C825.052 526.652 820.771 528.242 815.778 528.242H727.518Z" fill="url(#paint12_linear_4_3)"/>
<path d="M354.144 655.369C344.87 655.369 335.687 654.307 326.594 652.184C317.679 650.062 309.121 646.964 300.918 642.895C292.715 638.648 285.496 633.076 279.254 626.176C273.012 619.276 269.624 611.047 269.09 601.494V590.346V505.685C269.09 500.731 270.873 496.66 274.439 493.475C278.183 490.113 282.552 488.434 287.544 488.434C298.245 489.32 304.037 495.067 304.93 505.685V593.265C305.286 598.749 307.338 603.35 311.082 607.065C315.003 610.604 319.284 613.436 323.921 615.558C328.733 617.683 333.638 619.276 338.631 620.336C343.802 621.398 348.973 621.928 354.144 621.928C359.314 621.928 364.395 621.398 369.388 620.336C374.559 619.276 379.461 617.683 384.098 615.558C388.913 613.436 393.191 610.604 396.937 607.065C400.859 603.35 402.998 598.749 403.354 593.265V505.685C403.354 500.731 405.137 496.66 408.706 493.475C412.45 490.113 416.818 488.434 421.811 488.434C432.509 489.32 438.392 495.067 439.462 505.685V590.346V601.494C438.928 611.047 435.45 619.276 429.03 626.176C422.791 633.076 415.569 638.648 407.367 642.895C399.164 646.964 390.518 650.062 381.425 652.184C372.507 654.307 363.414 655.369 354.144 655.369ZM492.954 488.434C497.947 488.434 502.227 490.113 505.793 493.475C509.359 496.66 511.23 500.731 511.411 505.685V569.646C511.23 576.899 511.676 583.623 512.747 589.816C513.996 595.831 516.847 601.228 521.306 606.006C525.762 610.783 531.379 613.349 538.155 613.702H623.742C628.735 613.879 632.835 615.735 636.045 619.276C639.433 622.814 641.128 627.059 641.128 632.014C640.95 636.791 639.167 640.86 635.779 644.221C632.569 647.407 628.557 649.089 623.742 649.265H529.062C516.581 648.556 506.24 644.398 498.037 636.791C490.012 629.005 484.217 619.54 480.651 608.394C477.263 597.247 475.48 585.392 475.302 572.831V505.685C475.48 500.908 477.263 496.926 480.651 493.741C484.039 490.379 488.139 488.61 492.954 488.434ZM727.518 528.242C720.742 528.598 715.037 531.164 710.4 535.939C705.942 540.716 702.732 546.203 700.771 552.394C698.81 558.411 697.829 564.602 697.829 570.972C697.829 577.342 698.719 583.623 700.505 589.816C702.466 596.007 705.764 601.494 710.4 606.269C715.037 610.87 720.742 613.349 727.518 613.702H815.778C827.013 614.762 833.164 620.866 834.235 632.014C834.057 636.968 832.184 641.126 828.618 644.488C825.052 647.673 820.771 649.265 815.778 649.265H730.459H718.157C705.676 648.556 695.422 643.868 687.397 635.199C679.375 626.353 673.58 616.354 670.014 605.209C666.626 594.061 664.931 582.65 664.931 570.972C664.931 562.303 665.911 553.72 667.872 545.228C669.836 536.735 672.865 528.685 676.968 521.078C681.246 513.292 686.863 506.658 693.817 501.174C700.949 495.687 709.064 492.858 718.157 492.681H723.237H815.778C827.013 493.741 833.164 499.845 834.235 510.993C834.235 515.947 832.362 520.105 828.618 523.467C825.052 526.652 820.771 528.242 815.778 528.242H727.518Z" fill="url(#paint13_linear_4_3)"/>
<path d="M354.144 656.456C344.87 656.456 335.687 655.394 326.594 653.271C317.679 651.149 309.121 648.051 300.918 643.982C292.715 639.735 285.496 634.163 279.254 627.263C273.012 620.363 269.624 612.134 269.09 602.581V591.433V506.772C269.09 501.818 270.873 497.747 274.439 494.562C278.183 491.2 282.552 489.521 287.544 489.521C298.245 490.407 304.037 496.155 304.93 506.772V594.352C305.286 599.836 307.338 604.437 311.082 608.152C315.003 611.691 319.284 614.523 323.921 616.645C328.733 618.77 333.638 620.363 338.631 621.423C343.802 622.485 348.973 623.015 354.144 623.015C359.314 623.015 364.395 622.485 369.388 621.423C374.559 620.363 379.461 618.77 384.098 616.645C388.913 614.523 393.191 611.691 396.937 608.152C400.859 604.437 402.998 599.836 403.354 594.352V506.772C403.354 501.818 405.137 497.747 408.706 494.562C412.45 491.2 416.818 489.521 421.811 489.521C432.509 490.407 438.392 496.155 439.462 506.772V591.433V602.581C438.928 612.134 435.45 620.363 429.03 627.263C422.791 634.163 415.569 639.735 407.367 643.982C399.164 648.051 390.518 651.149 381.425 653.271C372.507 655.394 363.414 656.456 354.144 656.456ZM492.954 489.521C497.947 489.521 502.227 491.2 505.793 494.562C509.359 497.747 511.23 501.818 511.411 506.772V570.733C511.23 577.986 511.676 584.71 512.747 590.903C513.996 596.918 516.847 602.315 521.306 607.093C525.762 611.87 531.379 614.436 538.155 614.789H623.742C628.735 614.966 632.835 616.822 636.045 620.363C639.433 623.901 641.128 628.146 641.128 633.101C640.95 637.878 639.167 641.947 635.779 645.308C632.569 648.494 628.557 650.176 623.742 650.352H529.062C516.581 649.643 506.24 645.485 498.037 637.878C490.012 630.092 484.217 620.627 480.651 609.481C477.263 598.334 475.48 586.479 475.302 573.918V506.772C475.48 501.995 477.263 498.013 480.651 494.828C484.039 491.467 488.139 489.697 492.954 489.521ZM727.518 529.329C720.742 529.685 715.037 532.251 710.4 537.026C705.942 541.803 702.732 547.29 700.771 553.481C698.81 559.498 697.829 565.689 697.829 572.059C697.829 578.429 698.719 584.71 700.505 590.903C702.466 597.094 705.764 602.581 710.4 607.356C715.037 611.957 720.742 614.436 727.518 614.789H815.778C827.013 615.849 833.164 621.953 834.235 633.101C834.057 638.055 832.184 642.213 828.618 645.575C825.052 648.76 820.771 650.352 815.778 650.352H730.459H718.157C705.676 649.643 695.422 644.955 687.397 636.286C679.375 627.44 673.58 617.442 670.014 606.296C666.626 595.148 664.931 583.737 664.931 572.059C664.931 563.39 665.911 554.807 667.872 546.315C669.836 537.822 672.865 529.772 676.968 522.165C681.246 514.379 686.863 507.745 693.817 502.261C700.949 496.774 709.064 493.945 718.157 493.768H723.237H815.778C827.013 494.828 833.164 500.932 834.235 512.08C834.235 517.034 832.362 521.192 828.618 524.554C825.052 527.739 820.771 529.329 815.778 529.329H727.518Z" fill="url(#paint14_linear_4_3)"/>
<path d="M355.239 653.195C345.966 653.195 336.783 652.133 327.69 650.01C318.775 647.888 310.216 644.789 302.014 640.721C293.811 636.473 286.591 630.902 280.35 624.002C274.108 617.102 270.72 608.873 270.186 599.32V588.172V503.511C270.186 498.557 271.969 494.486 275.535 491.301C279.279 487.939 283.647 486.259 288.64 486.259C299.34 487.145 305.133 492.893 306.026 503.511V591.091C306.382 596.575 308.433 601.176 312.177 604.891C316.099 608.43 320.38 611.262 325.017 613.384C329.829 615.509 334.734 617.102 339.727 618.162C344.898 619.224 350.068 619.754 355.239 619.754C360.41 619.754 365.491 619.224 370.483 618.162C375.654 617.102 380.557 615.509 385.193 613.384C390.008 611.262 394.286 608.43 398.033 604.891C401.955 601.176 404.094 596.575 404.45 591.091V503.511C404.45 498.557 406.233 494.486 409.802 491.301C413.545 487.939 417.914 486.259 422.907 486.259C433.604 487.145 439.487 492.893 440.558 503.511V588.172V599.32C440.024 608.873 436.546 617.102 430.126 624.002C423.887 630.902 416.665 636.473 408.462 640.721C400.26 644.789 391.613 647.888 382.52 650.01C373.603 652.133 364.51 653.195 355.239 653.195ZM494.05 486.259C499.042 486.259 503.323 487.939 506.889 491.301C510.455 494.486 512.326 498.557 512.506 503.511V567.472C512.326 574.725 512.772 581.449 513.843 587.642C515.092 593.656 517.943 599.054 522.402 603.831C526.858 608.609 532.475 611.175 539.251 611.528H624.838C629.831 611.705 633.931 613.561 637.141 617.102C640.528 620.64 642.224 624.885 642.224 629.84C642.046 634.617 640.263 638.686 636.875 642.047C633.665 645.232 629.653 646.915 624.838 647.091H530.158C517.677 646.382 507.335 642.224 499.133 634.617C491.108 626.831 485.313 617.365 481.747 606.22C478.359 595.072 476.576 583.218 476.398 570.657V503.511C476.576 498.734 478.359 494.752 481.747 491.567C485.135 488.205 489.235 486.436 494.05 486.259ZM728.614 526.068C721.838 526.424 716.133 528.989 711.496 533.764C707.037 538.542 703.827 544.029 701.867 550.22C699.906 556.237 698.925 562.428 698.925 568.798C698.925 575.168 699.815 581.449 701.601 587.642C703.562 593.833 706.859 599.32 711.496 604.095C716.133 608.696 721.838 611.175 728.614 611.528H816.874C828.108 612.588 834.26 618.692 835.331 629.84C835.153 634.794 833.279 638.952 829.713 642.314C826.148 645.499 821.867 647.091 816.874 647.091H731.555H719.252C706.772 646.382 696.518 641.694 688.493 633.025C680.471 624.179 674.676 614.18 671.11 603.035C667.722 591.887 666.027 580.476 666.027 568.798C666.027 560.129 667.007 551.546 668.968 543.053C670.932 534.561 673.961 526.511 678.064 518.904C682.342 511.118 687.959 504.484 694.913 499C702.044 493.513 710.16 490.684 719.252 490.507H724.333H816.874C828.108 491.567 834.26 497.671 835.331 508.819C835.331 513.773 833.457 517.931 829.713 521.293C826.148 524.478 821.867 526.068 816.874 526.068H728.614Z" fill="url(#paint15_linear_4_3)"/>
<path d="M354.144 654.282C344.87 654.282 335.687 653.22 326.594 651.097C317.679 648.975 309.121 645.876 300.918 641.808C292.715 637.56 285.496 631.989 279.254 625.089C273.012 618.189 269.624 609.96 269.09 600.407V589.259V504.598C269.09 499.644 270.873 495.573 274.439 492.388C278.183 489.026 282.552 487.347 287.544 487.347C298.245 488.232 304.037 493.98 304.93 504.598V592.178C305.286 597.662 307.338 602.263 311.082 605.978C315.003 609.517 319.284 612.349 323.921 614.471C328.733 616.596 333.638 618.189 338.631 619.249C343.802 620.311 348.973 620.841 354.144 620.841C359.314 620.841 364.395 620.311 369.388 619.249C374.559 618.189 379.461 616.596 384.098 614.471C388.913 612.349 393.191 609.517 396.937 605.978C400.859 602.263 402.998 597.662 403.354 592.178V504.598C403.354 499.644 405.137 495.573 408.706 492.388C412.45 489.026 416.818 487.347 421.811 487.347C432.509 488.232 438.392 493.98 439.462 504.598V589.259V600.407C438.928 609.96 435.45 618.189 429.03 625.089C422.791 631.989 415.569 637.56 407.367 641.808C399.164 645.876 390.518 648.975 381.425 651.097C372.507 653.22 363.414 654.282 354.144 654.282ZM492.954 487.347C497.947 487.347 502.227 489.026 505.793 492.388C509.359 495.573 511.23 499.644 511.411 504.598V568.559C511.23 575.812 511.676 582.536 512.747 588.729C513.996 594.743 516.847 600.141 521.306 604.918C525.762 609.696 531.379 612.262 538.155 612.615H623.742C628.735 612.792 632.835 614.648 636.045 618.189C639.433 621.727 641.128 625.972 641.128 630.927C640.95 635.704 639.167 639.773 635.779 643.134C632.569 646.319 628.557 648.002 623.742 648.178H529.062C516.581 647.469 506.24 643.311 498.037 635.704C490.012 627.918 484.217 618.452 480.651 607.307C477.263 596.159 475.48 584.305 475.302 571.744V504.598C475.48 499.821 477.263 495.839 480.651 492.654C484.039 489.292 488.139 487.523 492.954 487.347ZM727.518 527.155C720.742 527.511 715.037 530.076 710.4 534.851C705.942 539.629 702.732 545.116 700.771 551.307C698.81 557.324 697.829 563.515 697.829 569.885C697.829 576.255 698.719 582.536 700.505 588.729C702.466 594.92 705.764 600.407 710.4 605.182C715.037 609.783 720.742 612.262 727.518 612.615H815.778C827.013 613.675 833.164 619.779 834.235 630.927C834.057 635.881 832.184 640.039 828.618 643.401C825.052 646.586 820.771 648.178 815.778 648.178H730.459H718.157C705.676 647.469 695.422 642.781 687.397 634.112C679.375 625.266 673.58 615.267 670.014 604.122C666.626 592.974 664.931 581.563 664.931 569.885C664.931 561.216 665.911 552.633 667.872 544.14C669.836 535.648 672.865 527.598 676.968 519.991C681.246 512.205 686.863 505.571 693.817 500.087C700.949 494.6 709.064 491.771 718.157 491.594H723.237H815.778C827.013 492.654 833.164 498.758 834.235 509.906C834.235 514.86 832.362 519.018 828.618 522.38C825.052 525.565 820.771 527.155 815.778 527.155H727.518Z" fill="url(#paint16_linear_4_3)"/>
<path d="M354.144 654.282C344.87 654.282 335.687 653.22 326.594 651.097C317.679 648.975 309.121 645.876 300.918 641.808C292.715 637.56 285.496 631.989 279.254 625.089C273.012 618.189 269.624 609.96 269.09 600.407V589.259V504.598C269.09 499.644 270.873 495.573 274.439 492.388C278.183 489.026 282.552 487.347 287.544 487.347C298.245 488.232 304.037 493.98 304.93 504.598V592.178C305.286 597.662 307.338 602.263 311.082 605.978C315.003 609.517 319.284 612.349 323.921 614.471C328.733 616.596 333.638 618.189 338.631 619.249C343.802 620.311 348.973 620.841 354.144 620.841C359.314 620.841 364.395 620.311 369.388 619.249C374.559 618.189 379.461 616.596 384.098 614.471C388.913 612.349 393.191 609.517 396.937 605.978C400.859 602.263 402.998 597.662 403.354 592.178V504.598C403.354 499.644 405.137 495.573 408.706 492.388C412.45 489.026 416.818 487.347 421.811 487.347C432.509 488.232 438.392 493.98 439.462 504.598V589.259V600.407C438.928 609.96 435.45 618.189 429.03 625.089C422.791 631.989 415.569 637.56 407.367 641.808C399.164 645.876 390.518 648.975 381.425 651.097C372.507 653.22 363.414 654.282 354.144 654.282ZM492.954 487.347C497.947 487.347 502.227 489.026 505.793 492.388C509.359 495.573 511.23 499.644 511.411 504.598V568.559C511.23 575.812 511.676 582.536 512.747 588.729C513.996 594.743 516.847 600.141 521.306 604.918C525.762 609.696 531.379 612.262 538.155 612.615H623.742C628.735 612.792 632.835 614.648 636.045 618.189C639.433 621.727 641.128 625.972 641.128 630.927C640.95 635.704 639.167 639.773 635.779 643.134C632.569 646.319 628.557 648.002 623.742 648.178H529.062C516.581 647.469 506.24 643.311 498.037 635.704C490.012 627.918 484.217 618.452 480.651 607.307C477.263 596.159 475.48 584.305 475.302 571.744V504.598C475.48 499.821 477.263 495.839 480.651 492.654C484.039 489.292 488.139 487.523 492.954 487.347ZM727.518 527.155C720.742 527.511 715.037 530.076 710.4 534.851C705.942 539.629 702.732 545.116 700.771 551.307C698.81 557.324 697.829 563.515 697.829 569.885C697.829 576.255 698.719 582.536 700.505 588.729C702.466 594.92 705.764 600.407 710.4 605.182C715.037 609.783 720.742 612.262 727.518 612.615H815.778C827.013 613.675 833.164 619.779 834.235 630.927C834.057 635.881 832.184 640.039 828.618 643.401C825.052 646.586 820.771 648.178 815.778 648.178H730.459H718.157C705.676 647.469 695.422 642.781 687.397 634.112C679.375 625.266 673.58 615.267 670.014 604.122C666.626 592.974 664.931 581.563 664.931 569.885C664.931 561.216 665.911 552.633 667.872 544.14C669.836 535.648 672.865 527.598 676.968 519.991C681.246 512.205 686.863 505.571 693.817 500.087C700.949 494.6 709.064 491.771 718.157 491.594H723.237H815.778C827.013 492.654 833.164 498.758 834.235 509.906C834.235 514.86 832.362 519.018 828.618 522.38C825.052 525.565 820.771 527.155 815.778 527.155H727.518Z" fill="url(#paint17_linear_4_3)"/>
<path d="M354.144 655.369C344.87 655.369 335.687 654.307 326.594 652.184C317.679 650.062 309.121 646.964 300.918 642.895C292.715 638.648 285.496 633.076 279.254 626.176C273.012 619.276 269.624 611.047 269.09 601.494V590.346V505.685C269.09 500.731 270.873 496.66 274.439 493.475C278.183 490.113 282.552 488.434 287.544 488.434C298.245 489.32 304.037 495.067 304.93 505.685V593.265C305.286 598.749 307.338 603.35 311.082 607.065C315.003 610.604 319.284 613.436 323.921 615.558C328.733 617.683 333.638 619.276 338.631 620.336C343.802 621.398 348.973 621.928 354.144 621.928C359.314 621.928 364.395 621.398 369.388 620.336C374.559 619.276 379.461 617.683 384.098 615.558C388.913 613.436 393.191 610.604 396.937 607.065C400.859 603.35 402.998 598.749 403.354 593.265V505.685C403.354 500.731 405.137 496.66 408.706 493.475C412.45 490.113 416.818 488.434 421.811 488.434C432.509 489.32 438.392 495.067 439.462 505.685V590.346V601.494C438.928 611.047 435.45 619.276 429.03 626.176C422.791 633.076 415.569 638.648 407.367 642.895C399.164 646.964 390.518 650.062 381.425 652.184C372.507 654.307 363.414 655.369 354.144 655.369ZM492.954 488.434C497.947 488.434 502.227 490.113 505.793 493.475C509.359 496.66 511.23 500.731 511.411 505.685V569.646C511.23 576.899 511.676 583.623 512.747 589.816C513.996 595.831 516.847 601.228 521.306 606.006C525.762 610.783 531.379 613.349 538.155 613.702H623.742C628.735 613.879 632.835 615.735 636.045 619.276C639.433 622.814 641.128 627.059 641.128 632.014C640.95 636.791 639.167 640.86 635.779 644.221C632.569 647.407 628.557 649.089 623.742 649.265H529.062C516.581 648.556 506.24 644.398 498.037 636.791C490.012 629.005 484.217 619.54 480.651 608.394C477.263 597.247 475.48 585.392 475.302 572.831V505.685C475.48 500.908 477.263 496.926 480.651 493.741C484.039 490.379 488.139 488.61 492.954 488.434ZM727.518 528.242C720.742 528.598 715.037 531.164 710.4 535.939C705.942 540.716 702.732 546.203 700.771 552.394C698.81 558.411 697.829 564.602 697.829 570.972C697.829 577.342 698.719 583.623 700.505 589.816C702.466 596.007 705.764 601.494 710.4 606.269C715.037 610.87 720.742 613.349 727.518 613.702H815.778C827.013 614.762 833.164 620.866 834.235 632.014C834.057 636.968 832.184 641.126 828.618 644.488C825.052 647.673 820.771 649.265 815.778 649.265H730.459H718.157C705.676 648.556 695.422 643.868 687.397 635.199C679.375 626.353 673.58 616.354 670.014 605.209C666.626 594.061 664.931 582.65 664.931 570.972C664.931 562.303 665.911 553.72 667.872 545.228C669.836 536.735 672.865 528.685 676.968 521.078C681.246 513.292 686.863 506.658 693.817 501.174C700.949 495.687 709.064 492.858 718.157 492.681H723.237H815.778C827.013 493.741 833.164 499.845 834.235 510.993C834.235 515.947 832.362 520.105 828.618 523.467C825.052 526.652 820.771 528.242 815.778 528.242H727.518Z" fill="url(#paint18_linear_4_3)"/>
<path d="M355.239 652.108C345.966 652.108 336.783 651.045 327.69 648.923C318.775 646.8 310.216 643.702 302.014 639.634C293.811 635.386 286.591 629.815 280.35 622.915C274.108 616.015 270.72 607.786 270.186 598.233V587.085V502.424C270.186 497.47 271.969 493.399 275.535 490.214C279.279 486.852 283.647 485.172 288.64 485.172C299.34 486.058 305.133 491.806 306.026 502.424V590.004C306.382 595.488 308.433 600.089 312.177 603.804C316.099 607.343 320.38 610.174 325.017 612.297C329.829 614.422 334.734 616.015 339.727 617.075C344.898 618.137 350.068 618.667 355.239 618.667C360.41 618.667 365.491 618.137 370.483 617.075C375.654 616.015 380.557 614.422 385.193 612.297C390.008 610.174 394.286 607.343 398.033 603.804C401.955 600.089 404.094 595.488 404.45 590.004V502.424C404.45 497.47 406.233 493.399 409.802 490.214C413.545 486.852 417.914 485.172 422.907 485.172C433.604 486.058 439.487 491.806 440.558 502.424V587.085V598.233C440.024 607.786 436.546 616.015 430.126 622.915C423.887 629.815 416.665 635.386 408.462 639.634C400.26 643.702 391.613 646.8 382.52 648.923C373.603 651.045 364.51 652.108 355.239 652.108ZM494.05 485.172C499.042 485.172 503.323 486.852 506.889 490.214C510.455 493.399 512.326 497.47 512.506 502.424V566.385C512.326 573.638 512.772 580.361 513.843 586.555C515.092 592.569 517.943 597.967 522.402 602.744C526.858 607.522 532.475 610.087 539.251 610.441H624.838C629.831 610.617 633.931 612.474 637.141 616.015C640.528 619.553 642.224 623.798 642.224 628.752C642.046 633.53 640.263 637.598 636.875 640.96C633.665 644.145 629.653 645.828 624.838 646.004H530.158C517.677 645.295 507.335 641.137 499.133 633.53C491.108 625.744 485.313 616.278 481.747 605.133C478.359 593.985 476.576 582.131 476.398 569.57V502.424C476.576 497.646 478.359 493.665 481.747 490.48C485.135 487.118 489.235 485.349 494.05 485.172ZM728.614 524.981C721.838 525.337 716.133 527.902 711.496 532.677C707.037 537.455 703.827 542.942 701.867 549.133C699.906 555.15 698.925 561.341 698.925 567.711C698.925 574.081 699.815 580.361 701.601 586.555C703.562 592.746 706.859 598.233 711.496 603.008C716.133 607.609 721.838 610.087 728.614 610.441H816.874C828.108 611.501 834.26 617.604 835.331 628.752C835.153 633.707 833.279 637.865 829.713 641.227C826.148 644.412 821.867 646.004 816.874 646.004H731.555H719.252C706.772 645.295 696.518 640.607 688.493 631.937C680.471 623.091 674.676 613.093 671.11 601.948C667.722 590.8 666.027 579.389 666.027 567.711C666.027 559.041 667.007 550.459 668.968 541.966C670.932 533.473 673.961 525.424 678.064 517.817C682.342 510.031 687.959 503.397 694.913 497.913C702.044 492.426 710.16 489.597 719.252 489.42H724.333H816.874C828.108 490.48 834.26 496.584 835.331 507.732C835.331 512.686 833.457 516.844 829.713 520.206C826.148 523.391 821.867 524.981 816.874 524.981H728.614Z" fill="url(#paint19_linear_4_3)"/>
<path d="M354.144 653.195C344.87 653.195 335.687 652.133 326.594 650.01C317.679 647.888 309.121 644.789 300.918 640.721C292.715 636.473 285.496 630.902 279.254 624.002C273.012 617.102 269.624 608.873 269.09 599.32V588.172V503.511C269.09 498.557 270.873 494.486 274.439 491.301C278.183 487.939 282.552 486.259 287.544 486.259C298.245 487.145 304.037 492.893 304.93 503.511V591.091C305.286 596.575 307.338 601.176 311.082 604.891C315.003 608.43 319.284 611.262 323.921 613.384C328.733 615.509 333.638 617.102 338.631 618.162C343.802 619.224 348.973 619.754 354.144 619.754C359.314 619.754 364.395 619.224 369.388 618.162C374.559 617.102 379.461 615.509 384.098 613.384C388.913 611.262 393.191 608.43 396.937 604.891C400.859 601.176 402.998 596.575 403.354 591.091V503.511C403.354 498.557 405.137 494.486 408.706 491.301C412.45 487.939 416.818 486.259 421.811 486.259C432.509 487.145 438.392 492.893 439.462 503.511V588.172V599.32C438.928 608.873 435.45 617.102 429.03 624.002C422.791 630.902 415.569 636.473 407.367 640.721C399.164 644.789 390.518 647.888 381.425 650.01C372.507 652.133 363.414 653.195 354.144 653.195ZM492.954 486.259C497.947 486.259 502.227 487.939 505.793 491.301C509.359 494.486 511.23 498.557 511.411 503.511V567.472C511.23 574.725 511.676 581.449 512.747 587.642C513.996 593.656 516.847 599.054 521.306 603.831C525.762 608.609 531.379 611.175 538.155 611.528H623.742C628.735 611.705 632.835 613.561 636.045 617.102C639.433 620.64 641.128 624.885 641.128 629.84C640.95 634.617 639.167 638.686 635.779 642.047C632.569 645.232 628.557 646.915 623.742 647.091H529.062C516.581 646.382 506.24 642.224 498.037 634.617C490.012 626.831 484.217 617.365 480.651 606.22C477.263 595.072 475.48 583.218 475.302 570.657V503.511C475.48 498.734 477.263 494.752 480.651 491.567C484.039 488.205 488.139 486.436 492.954 486.259ZM727.518 526.068C720.742 526.424 715.037 528.989 710.4 533.764C705.942 538.542 702.732 544.029 700.771 550.22C698.81 556.237 697.829 562.428 697.829 568.798C697.829 575.168 698.719 581.449 700.505 587.642C702.466 593.833 705.764 599.32 710.4 604.095C715.037 608.696 720.742 611.175 727.518 611.528H815.778C827.013 612.588 833.164 618.692 834.235 629.84C834.057 634.794 832.184 638.952 828.618 642.314C825.052 645.499 820.771 647.091 815.778 647.091H730.459H718.157C705.676 646.382 695.422 641.694 687.397 633.025C679.375 624.179 673.58 614.18 670.014 603.035C666.626 591.887 664.931 580.476 664.931 568.798C664.931 560.129 665.911 551.546 667.872 543.053C669.836 534.561 672.865 526.511 676.968 518.904C681.246 511.118 686.863 504.484 693.817 499C700.949 493.513 709.064 490.684 718.157 490.507H723.237H815.778C827.013 491.567 833.164 497.671 834.235 508.819C834.235 513.773 832.362 517.931 828.618 521.293C825.052 524.478 820.771 526.068 815.778 526.068H727.518Z" fill="url(#paint20_linear_4_3)"/>
<path d="M354.144 653.195C344.87 653.195 335.687 652.133 326.594 650.01C317.679 647.888 309.121 644.789 300.918 640.721C292.715 636.473 285.496 630.902 279.254 624.002C273.012 617.102 269.624 608.873 269.09 599.32V588.172V503.511C269.09 498.557 270.873 494.486 274.439 491.301C278.183 487.939 282.552 486.259 287.544 486.259C298.245 487.145 304.037 492.893 304.93 503.511V591.091C305.286 596.575 307.338 601.176 311.082 604.891C315.003 608.43 319.284 611.262 323.921 613.384C328.733 615.509 333.638 617.102 338.631 618.162C343.802 619.224 348.973 619.754 354.144 619.754C359.314 619.754 364.395 619.224 369.388 618.162C374.559 617.102 379.461 615.509 384.098 613.384C388.913 611.262 393.191 608.43 396.937 604.891C400.859 601.176 402.998 596.575 403.354 591.091V503.511C403.354 498.557 405.137 494.486 408.706 491.301C412.45 487.939 416.818 486.259 421.811 486.259C432.509 487.145 438.392 492.893 439.462 503.511V588.172V599.32C438.928 608.873 435.45 617.102 429.03 624.002C422.791 630.902 415.569 636.473 407.367 640.721C399.164 644.789 390.518 647.888 381.425 650.01C372.507 652.133 363.414 653.195 354.144 653.195ZM492.954 486.259C497.947 486.259 502.227 487.939 505.793 491.301C509.359 494.486 511.23 498.557 511.411 503.511V567.472C511.23 574.725 511.676 581.449 512.747 587.642C513.996 593.656 516.847 599.054 521.306 603.831C525.762 608.609 531.379 611.175 538.155 611.528H623.742C628.735 611.705 632.835 613.561 636.045 617.102C639.433 620.64 641.128 624.885 641.128 629.84C640.95 634.617 639.167 638.686 635.779 642.047C632.569 645.232 628.557 646.915 623.742 647.091H529.062C516.581 646.382 506.24 642.224 498.037 634.617C490.012 626.831 484.217 617.365 480.651 606.22C477.263 595.072 475.48 583.218 475.302 570.657V503.511C475.48 498.734 477.263 494.752 480.651 491.567C484.039 488.205 488.139 486.436 492.954 486.259ZM727.518 526.068C720.742 526.424 715.037 528.989 710.4 533.764C705.942 538.542 702.732 544.029 700.771 550.22C698.81 556.237 697.829 562.428 697.829 568.798C697.829 575.168 698.719 581.449 700.505 587.642C702.466 593.833 705.764 599.32 710.4 604.095C715.037 608.696 720.742 611.175 727.518 611.528H815.778C827.013 612.588 833.164 618.692 834.235 629.84C834.057 634.794 832.184 638.952 828.618 642.314C825.052 645.499 820.771 647.091 815.778 647.091H730.459H718.157C705.676 646.382 695.422 641.694 687.397 633.025C679.375 624.179 673.58 614.18 670.014 603.035C666.626 591.887 664.931 580.476 664.931 568.798C664.931 560.129 665.911 551.546 667.872 543.053C669.836 534.561 672.865 526.511 676.968 518.904C681.246 511.118 686.863 504.484 693.817 499C700.949 493.513 709.064 490.684 718.157 490.507H723.237H815.778C827.013 491.567 833.164 497.671 834.235 508.819C834.235 513.773 832.362 517.931 828.618 521.293C825.052 524.478 820.771 526.068 815.778 526.068H727.518Z" fill="url(#paint21_linear_4_3)"/>
<path d="M354.144 654.282C344.87 654.282 335.687 653.22 326.594 651.097C317.679 648.975 309.121 645.876 300.918 641.808C292.715 637.56 285.496 631.989 279.254 625.089C273.012 618.189 269.624 609.96 269.09 600.407V589.259V504.598C269.09 499.644 270.873 495.573 274.439 492.388C278.183 489.026 282.552 487.347 287.544 487.347C298.245 488.232 304.037 493.98 304.93 504.598V592.178C305.286 597.662 307.338 602.263 311.082 605.978C315.003 609.517 319.284 612.349 323.921 614.471C328.733 616.596 333.638 618.189 338.631 619.249C343.802 620.311 348.973 620.841 354.144 620.841C359.314 620.841 364.395 620.311 369.388 619.249C374.559 618.189 379.461 616.596 384.098 614.471C388.913 612.349 393.191 609.517 396.937 605.978C400.859 602.263 402.998 597.662 403.354 592.178V504.598C403.354 499.644 405.137 495.573 408.706 492.388C412.45 489.026 416.818 487.347 421.811 487.347C432.509 488.232 438.392 493.98 439.462 504.598V589.259V600.407C438.928 609.96 435.45 618.189 429.03 625.089C422.791 631.989 415.569 637.56 407.367 641.808C399.164 645.876 390.518 648.975 381.425 651.097C372.507 653.22 363.414 654.282 354.144 654.282ZM492.954 487.347C497.947 487.347 502.227 489.026 505.793 492.388C509.359 495.573 511.23 499.644 511.411 504.598V568.559C511.23 575.812 511.676 582.536 512.747 588.729C513.996 594.743 516.847 600.141 521.306 604.918C525.762 609.696 531.379 612.262 538.155 612.615H623.742C628.735 612.792 632.835 614.648 636.045 618.189C639.433 621.727 641.128 625.972 641.128 630.927C640.95 635.704 639.167 639.773 635.779 643.134C632.569 646.319 628.557 648.002 623.742 648.178H529.062C516.581 647.469 506.24 643.311 498.037 635.704C490.012 627.918 484.217 618.452 480.651 607.307C477.263 596.159 475.48 584.305 475.302 571.744V504.598C475.48 499.821 477.263 495.839 480.651 492.654C484.039 489.292 488.139 487.523 492.954 487.347ZM727.518 527.155C720.742 527.511 715.037 530.076 710.4 534.851C705.942 539.629 702.732 545.116 700.771 551.307C698.81 557.324 697.829 563.515 697.829 569.885C697.829 576.255 698.719 582.536 700.505 588.729C702.466 594.92 705.764 600.407 710.4 605.182C715.037 609.783 720.742 612.262 727.518 612.615H815.778C827.013 613.675 833.164 619.779 834.235 630.927C834.057 635.881 832.184 640.039 828.618 643.401C825.052 646.586 820.771 648.178 815.778 648.178H730.459H718.157C705.676 647.469 695.422 642.781 687.397 634.112C679.375 625.266 673.58 615.267 670.014 604.122C666.626 592.974 664.931 581.563 664.931 569.885C664.931 561.216 665.911 552.633 667.872 544.14C669.836 535.648 672.865 527.598 676.968 519.991C681.246 512.205 686.863 505.571 693.817 500.087C700.949 494.6 709.064 491.771 718.157 491.594H723.237H815.778C827.013 492.654 833.164 498.758 834.235 509.906C834.235 514.86 832.362 519.018 828.618 522.38C825.052 525.565 820.771 527.155 815.778 527.155H727.518Z" fill="url(#paint22_linear_4_3)"/>
<path d="M355.239 651.021C345.966 651.021 336.783 649.958 327.69 647.836C318.775 645.713 310.216 642.615 302.014 638.547C293.811 634.299 286.591 628.728 280.35 621.828C274.108 614.928 270.72 606.698 270.186 597.146V585.998V501.337C270.186 496.383 271.969 492.312 275.535 489.127C279.279 485.765 283.647 484.085 288.64 484.085C299.34 484.971 305.133 490.719 306.026 501.337V588.917C306.382 594.401 308.433 599.002 312.177 602.717C316.099 606.256 320.38 609.087 325.017 611.21C329.829 613.335 334.734 614.928 339.727 615.988C344.898 617.05 350.068 617.58 355.239 617.58C360.41 617.58 365.491 617.05 370.483 615.988C375.654 614.928 380.557 613.335 385.193 611.21C390.008 609.087 394.286 606.256 398.033 602.717C401.955 599.002 404.094 594.401 404.45 588.917V501.337C404.45 496.383 406.233 492.312 409.802 489.127C413.545 485.765 417.914 484.085 422.907 484.085C433.604 484.971 439.487 490.719 440.558 501.337V585.998V597.146C440.024 606.698 436.546 614.928 430.126 621.828C423.887 628.728 416.665 634.299 408.462 638.547C400.26 642.615 391.613 645.713 382.52 647.836C373.603 649.958 364.51 651.021 355.239 651.021ZM494.05 484.085C499.042 484.085 503.323 485.765 506.889 489.127C510.455 492.312 512.326 496.383 512.506 501.337V565.297C512.326 572.551 512.772 579.274 513.843 585.468C515.092 591.482 517.943 596.88 522.402 601.657C526.858 606.435 532.475 609 539.251 609.354H624.838C629.831 609.53 633.931 611.387 637.141 614.928C640.528 618.466 642.224 622.711 642.224 627.665C642.046 632.443 640.263 636.511 636.875 639.873C633.665 643.058 629.653 644.74 624.838 644.917H530.158C517.677 644.208 507.335 640.05 499.133 632.443C491.108 624.657 485.313 615.191 481.747 604.046C478.359 592.898 476.576 581.044 476.398 568.483V501.337C476.576 496.559 478.359 492.578 481.747 489.393C485.135 486.031 489.235 484.262 494.05 484.085ZM728.614 523.894C721.838 524.25 716.133 526.815 711.496 531.59C707.037 536.368 703.827 541.855 701.867 548.046C699.906 554.063 698.925 560.254 698.925 566.624C698.925 572.994 699.815 579.274 701.601 585.468C703.562 591.659 706.859 597.146 711.496 601.921C716.133 606.522 721.838 609 728.614 609.354H816.874C828.108 610.414 834.26 616.517 835.331 627.665C835.153 632.62 833.279 636.778 829.713 640.139C826.148 643.325 821.867 644.917 816.874 644.917H731.555H719.252C706.772 644.208 696.518 639.52 688.493 630.85C680.471 622.004 674.676 612.006 671.11 600.861C667.722 589.713 666.027 578.302 666.027 566.624C666.027 557.954 667.007 549.372 668.968 540.879C670.932 532.386 673.961 524.337 678.064 516.73C682.342 508.944 687.959 502.31 694.913 496.826C702.044 491.339 710.16 488.51 719.252 488.333H724.333H816.874C828.108 489.393 834.26 495.497 835.331 506.645C835.331 511.599 833.457 515.757 829.713 519.119C826.148 522.304 821.867 523.894 816.874 523.894H728.614Z" fill="url(#paint23_linear_4_3)"/>
<path d="M354.144 652.108C344.87 652.108 335.687 651.045 326.594 648.923C317.679 646.8 309.121 643.702 300.918 639.634C292.715 635.386 285.496 629.815 279.254 622.915C273.012 616.015 269.624 607.786 269.09 598.233V587.085V502.424C269.09 497.47 270.873 493.399 274.439 490.214C278.183 486.852 282.552 485.172 287.544 485.172C298.245 486.058 304.037 491.806 304.93 502.424V590.004C305.286 595.488 307.338 600.089 311.082 603.804C315.003 607.343 319.284 610.174 323.921 612.297C328.733 614.422 333.638 616.015 338.631 617.075C343.802 618.137 348.973 618.667 354.144 618.667C359.314 618.667 364.395 618.137 369.388 617.075C374.559 616.015 379.461 614.422 384.098 612.297C388.913 610.174 393.191 607.343 396.937 603.804C400.859 600.089 402.998 595.488 403.354 590.004V502.424C403.354 497.47 405.137 493.399 408.706 490.214C412.45 486.852 416.818 485.172 421.811 485.172C432.509 486.058 438.392 491.806 439.462 502.424V587.085V598.233C438.928 607.786 435.45 616.015 429.03 622.915C422.791 629.815 415.569 635.386 407.367 639.634C399.164 643.702 390.518 646.8 381.425 648.923C372.507 651.045 363.414 652.108 354.144 652.108ZM492.954 485.172C497.947 485.172 502.227 486.852 505.793 490.214C509.359 493.399 511.23 497.47 511.411 502.424V566.385C511.23 573.638 511.676 580.361 512.747 586.555C513.996 592.569 516.847 597.967 521.306 602.744C525.762 607.522 531.379 610.087 538.155 610.441H623.742C628.735 610.617 632.835 612.474 636.045 616.015C639.433 619.553 641.128 623.798 641.128 628.752C640.95 633.53 639.167 637.598 635.779 640.96C632.569 644.145 628.557 645.828 623.742 646.004H529.062C516.581 645.295 506.24 641.137 498.037 633.53C490.012 625.744 484.217 616.278 480.651 605.133C477.263 593.985 475.48 582.131 475.302 569.57V502.424C475.48 497.646 477.263 493.665 480.651 490.48C484.039 487.118 488.139 485.349 492.954 485.172ZM727.518 524.981C720.742 525.337 715.037 527.902 710.4 532.677C705.942 537.455 702.732 542.942 700.771 549.133C698.81 555.15 697.829 561.341 697.829 567.711C697.829 574.081 698.719 580.361 700.505 586.555C702.466 592.746 705.764 598.233 710.4 603.008C715.037 607.609 720.742 610.087 727.518 610.441H815.778C827.013 611.501 833.164 617.604 834.235 628.752C834.057 633.707 832.184 637.865 828.618 641.227C825.052 644.412 820.771 646.004 815.778 646.004H730.459H718.157C705.676 645.295 695.422 640.607 687.397 631.937C679.375 623.091 673.58 613.093 670.014 601.948C666.626 590.8 664.931 579.389 664.931 567.711C664.931 559.041 665.911 550.459 667.872 541.966C669.836 533.473 672.865 525.424 676.968 517.817C681.246 510.031 686.863 503.397 693.817 497.913C700.949 492.426 709.064 489.597 718.157 489.42H723.237H815.778C827.013 490.48 833.164 496.584 834.235 507.732C834.235 512.686 832.362 516.844 828.618 520.206C825.052 523.391 820.771 524.981 815.778 524.981H727.518Z" fill="url(#paint24_linear_4_3)"/>
<path d="M354.144 652.108C344.87 652.108 335.687 651.045 326.594 648.923C317.679 646.8 309.121 643.702 300.918 639.634C292.715 635.386 285.496 629.815 279.254 622.915C273.012 616.015 269.624 607.786 269.09 598.233V587.085V502.424C269.09 497.47 270.873 493.399 274.439 490.214C278.183 486.852 282.552 485.172 287.544 485.172C298.245 486.058 304.037 491.806 304.93 502.424V590.004C305.286 595.488 307.338 600.089 311.082 603.804C315.003 607.343 319.284 610.174 323.921 612.297C328.733 614.422 333.638 616.015 338.631 617.075C343.802 618.137 348.973 618.667 354.144 618.667C359.314 618.667 364.395 618.137 369.388 617.075C374.559 616.015 379.461 614.422 384.098 612.297C388.913 610.174 393.191 607.343 396.937 603.804C400.859 600.089 402.998 595.488 403.354 590.004V502.424C403.354 497.47 405.137 493.399 408.706 490.214C412.45 486.852 416.818 485.172 421.811 485.172C432.509 486.058 438.392 491.806 439.462 502.424V587.085V598.233C438.928 607.786 435.45 616.015 429.03 622.915C422.791 629.815 415.569 635.386 407.367 639.634C399.164 643.702 390.518 646.8 381.425 648.923C372.507 651.045 363.414 652.108 354.144 652.108ZM492.954 485.172C497.947 485.172 502.227 486.852 505.793 490.214C509.359 493.399 511.23 497.47 511.411 502.424V566.385C511.23 573.638 511.676 580.361 512.747 586.555C513.996 592.569 516.847 597.967 521.306 602.744C525.762 607.522 531.379 610.087 538.155 610.441H623.742C628.735 610.617 632.835 612.474 636.045 616.015C639.433 619.553 641.128 623.798 641.128 628.752C640.95 633.53 639.167 637.598 635.779 640.96C632.569 644.145 628.557 645.828 623.742 646.004H529.062C516.581 645.295 506.24 641.137 498.037 633.53C490.012 625.744 484.217 616.278 480.651 605.133C477.263 593.985 475.48 582.131 475.302 569.57V502.424C475.48 497.646 477.263 493.665 480.651 490.48C484.039 487.118 488.139 485.349 492.954 485.172ZM727.518 524.981C720.742 525.337 715.037 527.902 710.4 532.677C705.942 537.455 702.732 542.942 700.771 549.133C698.81 555.15 697.829 561.341 697.829 567.711C697.829 574.081 698.719 580.361 700.505 586.555C702.466 592.746 705.764 598.233 710.4 603.008C715.037 607.609 720.742 610.087 727.518 610.441H815.778C827.013 611.501 833.164 617.604 834.235 628.752C834.057 633.707 832.184 637.865 828.618 641.227C825.052 644.412 820.771 646.004 815.778 646.004H730.459H718.157C705.676 645.295 695.422 640.607 687.397 631.937C679.375 623.091 673.58 613.093 670.014 601.948C666.626 590.8 664.931 579.389 664.931 567.711C664.931 559.041 665.911 550.459 667.872 541.966C669.836 533.473 672.865 525.424 676.968 517.817C681.246 510.031 686.863 503.397 693.817 497.913C700.949 492.426 709.064 489.597 718.157 489.42H723.237H815.778C827.013 490.48 833.164 496.584 834.235 507.732C834.235 512.686 832.362 516.844 828.618 520.206C825.052 523.391 820.771 524.981 815.778 524.981H727.518Z" fill="url(#paint25_linear_4_3)"/>
<path d="M354.144 653.195C344.87 653.195 335.687 652.133 326.594 650.01C317.679 647.888 309.121 644.789 300.918 640.721C292.715 636.473 285.496 630.902 279.254 624.002C273.012 617.102 269.624 608.873 269.09 599.32V588.172V503.511C269.09 498.557 270.873 494.486 274.439 491.301C278.183 487.939 282.552 486.259 287.544 486.259C298.245 487.145 304.037 492.893 304.93 503.511V591.091C305.286 596.575 307.338 601.176 311.082 604.891C315.003 608.43 319.284 611.262 323.921 613.384C328.733 615.509 333.638 617.102 338.631 618.162C343.802 619.224 348.973 619.754 354.144 619.754C359.314 619.754 364.395 619.224 369.388 618.162C374.559 617.102 379.461 615.509 384.098 613.384C388.913 611.262 393.191 608.43 396.937 604.891C400.859 601.176 402.998 596.575 403.354 591.091V503.511C403.354 498.557 405.137 494.486 408.706 491.301C412.45 487.939 416.818 486.259 421.811 486.259C432.509 487.145 438.392 492.893 439.462 503.511V588.172V599.32C438.928 608.873 435.45 617.102 429.03 624.002C422.791 630.902 415.569 636.473 407.367 640.721C399.164 644.789 390.518 647.888 381.425 650.01C372.507 652.133 363.414 653.195 354.144 653.195ZM492.954 486.259C497.947 486.259 502.227 487.939 505.793 491.301C509.359 494.486 511.23 498.557 511.411 503.511V567.472C511.23 574.725 511.676 581.449 512.747 587.642C513.996 593.656 516.847 599.054 521.306 603.831C525.762 608.609 531.379 611.175 538.155 611.528H623.742C628.735 611.705 632.835 613.561 636.045 617.102C639.433 620.64 641.128 624.885 641.128 629.84C640.95 634.617 639.167 638.686 635.779 642.047C632.569 645.232 628.557 646.915 623.742 647.091H529.062C516.581 646.382 506.24 642.224 498.037 634.617C490.012 626.831 484.217 617.365 480.651 606.22C477.263 595.072 475.48 583.218 475.302 570.657V503.511C475.48 498.734 477.263 494.752 480.651 491.567C484.039 488.205 488.139 486.436 492.954 486.259ZM727.518 526.068C720.742 526.424 715.037 528.989 710.4 533.764C705.942 538.542 702.732 544.029 700.771 550.22C698.81 556.237 697.829 562.428 697.829 568.798C697.829 575.168 698.719 581.449 700.505 587.642C702.466 593.833 705.764 599.32 710.4 604.095C715.037 608.696 720.742 611.175 727.518 611.528H815.778C827.013 612.588 833.164 618.692 834.235 629.84C834.057 634.794 832.184 638.952 828.618 642.314C825.052 645.499 820.771 647.091 815.778 647.091H730.459H718.157C705.676 646.382 695.422 641.694 687.397 633.025C679.375 624.179 673.58 614.18 670.014 603.035C666.626 591.887 664.931 580.476 664.931 568.798C664.931 560.129 665.911 551.546 667.872 543.053C669.836 534.561 672.865 526.511 676.968 518.904C681.246 511.118 686.863 504.484 693.817 499C700.949 493.513 709.064 490.684 718.157 490.507H723.237H815.778C827.013 491.567 833.164 497.671 834.235 508.819C834.235 513.773 832.362 517.931 828.618 521.293C825.052 524.478 820.771 526.068 815.778 526.068H727.518Z" fill="url(#paint26_linear_4_3)"/>
<path d="M355.239 649.934C345.966 649.934 336.783 648.871 327.69 646.749C318.775 644.626 310.216 641.528 302.014 637.46C293.811 633.212 286.591 627.641 280.35 620.741C274.108 613.841 270.72 605.611 270.186 596.059V584.911V500.25C270.186 495.296 271.969 491.225 275.535 488.04C279.279 484.678 283.647 482.998 288.64 482.998C299.34 483.884 305.133 489.632 306.026 500.25V587.83C306.382 593.314 308.433 597.915 312.177 601.63C316.099 605.168 320.38 608 325.017 610.123C329.829 612.248 334.734 613.841 339.727 614.9C344.898 615.963 350.068 616.493 355.239 616.493C360.41 616.493 365.491 615.963 370.483 614.9C375.654 613.841 380.557 612.248 385.193 610.123C390.008 608 394.286 605.168 398.033 601.63C401.955 597.915 404.094 593.314 404.45 587.83V500.25C404.45 495.296 406.233 491.225 409.802 488.04C413.545 484.678 417.914 482.998 422.907 482.998C433.604 483.884 439.487 489.632 440.558 500.25V584.911V596.059C440.024 605.611 436.546 613.841 430.126 620.741C423.887 627.641 416.665 633.212 408.462 637.46C400.26 641.528 391.613 644.626 382.52 646.749C373.603 648.871 364.51 649.934 355.239 649.934ZM494.05 482.998C499.042 482.998 503.323 484.678 506.889 488.04C510.455 491.225 512.326 495.296 512.506 500.25V564.21C512.326 571.464 512.772 578.187 513.843 584.381C515.092 590.395 517.943 595.793 522.402 600.57C526.858 605.348 532.475 607.913 539.251 608.267H624.838C629.831 608.443 633.931 610.299 637.141 613.841C640.528 617.379 642.224 621.624 642.224 626.578C642.046 631.356 640.263 635.424 636.875 638.786C633.665 641.971 629.653 643.653 624.838 643.83H530.158C517.677 643.121 507.335 638.963 499.133 631.356C491.108 623.57 485.313 614.104 481.747 602.959C478.359 591.811 476.576 579.957 476.398 567.396V500.25C476.576 495.472 478.359 491.491 481.747 488.306C485.135 484.944 489.235 483.175 494.05 482.998ZM728.614 522.807C721.838 523.163 716.133 525.728 711.496 530.503C707.037 535.281 703.827 540.768 701.867 546.959C699.906 552.976 698.925 559.166 698.925 565.537C698.925 571.907 699.815 578.187 701.601 584.381C703.562 590.572 706.859 596.059 711.496 600.834C716.133 605.435 721.838 607.913 728.614 608.267H816.874C828.108 609.327 834.26 615.43 835.331 626.578C835.153 631.533 833.279 635.691 829.713 639.052C826.148 642.238 821.867 643.83 816.874 643.83H731.555H719.252C706.772 643.121 696.518 638.433 688.493 629.763C680.471 620.917 674.676 610.919 671.11 599.774C667.722 588.626 666.027 577.215 666.027 565.537C666.027 556.867 667.007 548.285 668.968 539.792C670.932 531.299 673.961 523.25 678.064 515.643C682.342 507.857 687.959 501.223 694.913 495.739C702.044 490.252 710.16 487.423 719.252 487.246H724.333H816.874C828.108 488.306 834.26 494.41 835.331 505.558C835.331 510.512 833.457 514.67 829.713 518.032C826.148 521.217 821.867 522.807 816.874 522.807H728.614Z" fill="url(#paint27_linear_4_3)"/>
<path d="M354.144 651.021C344.87 651.021 335.687 649.958 326.594 647.836C317.679 645.713 309.121 642.615 300.918 638.547C292.715 634.299 285.496 628.728 279.254 621.828C273.012 614.928 269.624 606.698 269.09 597.146V585.998V501.337C269.09 496.383 270.873 492.312 274.439 489.127C278.183 485.765 282.552 484.085 287.544 484.085C298.245 484.971 304.037 490.719 304.93 501.337V588.917C305.286 594.401 307.338 599.002 311.082 602.717C315.003 606.256 319.284 609.087 323.921 611.21C328.733 613.335 333.638 614.928 338.631 615.988C343.802 617.05 348.973 617.58 354.144 617.58C359.314 617.58 364.395 617.05 369.388 615.988C374.559 614.928 379.461 613.335 384.098 611.21C388.913 609.087 393.191 606.256 396.937 602.717C400.859 599.002 402.998 594.401 403.354 588.917V501.337C403.354 496.383 405.137 492.312 408.706 489.127C412.45 485.765 416.818 484.085 421.811 484.085C432.509 484.971 438.392 490.719 439.462 501.337V585.998V597.146C438.928 606.698 435.45 614.928 429.03 621.828C422.791 628.728 415.569 634.299 407.367 638.547C399.164 642.615 390.518 645.713 381.425 647.836C372.507 649.958 363.414 651.021 354.144 651.021ZM492.954 484.085C497.947 484.085 502.227 485.765 505.793 489.127C509.359 492.312 511.23 496.383 511.411 501.337V565.297C511.23 572.551 511.676 579.274 512.747 585.468C513.996 591.482 516.847 596.88 521.306 601.657C525.762 606.435 531.379 609 538.155 609.354H623.742C628.735 609.53 632.835 611.387 636.045 614.928C639.433 618.466 641.128 622.711 641.128 627.665C640.95 632.443 639.167 636.511 635.779 639.873C632.569 643.058 628.557 644.74 623.742 644.917H529.062C516.581 644.208 506.24 640.05 498.037 632.443C490.012 624.657 484.217 615.191 480.651 604.046C477.263 592.898 475.48 581.044 475.302 568.483V501.337C475.48 496.559 477.263 492.578 480.651 489.393C484.039 486.031 488.139 484.262 492.954 484.085ZM727.518 523.894C720.742 524.25 715.037 526.815 710.4 531.59C705.942 536.368 702.732 541.855 700.771 548.046C698.81 554.063 697.829 560.254 697.829 566.624C697.829 572.994 698.719 579.274 700.505 585.468C702.466 591.659 705.764 597.146 710.4 601.921C715.037 606.522 720.742 609 727.518 609.354H815.778C827.013 610.414 833.164 616.517 834.235 627.665C834.057 632.62 832.184 636.778 828.618 640.139C825.052 643.325 820.771 644.917 815.778 644.917H730.459H718.157C705.676 644.208 695.422 639.52 687.397 630.85C679.375 622.004 673.58 612.006 670.014 600.861C666.626 589.713 664.931 578.302 664.931 566.624C664.931 557.954 665.911 549.372 667.872 540.879C669.836 532.386 672.865 524.337 676.968 516.73C681.246 508.944 686.863 502.31 693.817 496.826C700.949 491.339 709.064 488.51 718.157 488.333H723.237H815.778C827.013 489.393 833.164 495.497 834.235 506.645C834.235 511.599 832.362 515.757 828.618 519.119C825.052 522.304 820.771 523.894 815.778 523.894H727.518Z" fill="url(#paint28_linear_4_3)"/>
<path d="M354.144 651.021C344.87 651.021 335.687 649.958 326.594 647.836C317.679 645.713 309.121 642.615 300.918 638.547C292.715 634.299 285.496 628.728 279.254 621.828C273.012 614.928 269.624 606.698 269.09 597.146V585.998V501.337C269.09 496.383 270.873 492.312 274.439 489.127C278.183 485.765 282.552 484.085 287.544 484.085C298.245 484.971 304.037 490.719 304.93 501.337V588.917C305.286 594.401 307.338 599.002 311.082 602.717C315.003 606.256 319.284 609.087 323.921 611.21C328.733 613.335 333.638 614.928 338.631 615.988C343.802 617.05 348.973 617.58 354.144 617.58C359.314 617.58 364.395 617.05 369.388 615.988C374.559 614.928 379.461 613.335 384.098 611.21C388.913 609.087 393.191 606.256 396.937 602.717C400.859 599.002 402.998 594.401 403.354 588.917V501.337C403.354 496.383 405.137 492.312 408.706 489.127C412.45 485.765 416.818 484.085 421.811 484.085C432.509 484.971 438.392 490.719 439.462 501.337V585.998V597.146C438.928 606.698 435.45 614.928 429.03 621.828C422.791 628.728 415.569 634.299 407.367 638.547C399.164 642.615 390.518 645.713 381.425 647.836C372.507 649.958 363.414 651.021 354.144 651.021ZM492.954 484.085C497.947 484.085 502.227 485.765 505.793 489.127C509.359 492.312 511.23 496.383 511.411 501.337V565.297C511.23 572.551 511.676 579.274 512.747 585.468C513.996 591.482 516.847 596.88 521.306 601.657C525.762 606.435 531.379 609 538.155 609.354H623.742C628.735 609.53 632.835 611.387 636.045 614.928C639.433 618.466 641.128 622.711 641.128 627.665C640.95 632.443 639.167 636.511 635.779 639.873C632.569 643.058 628.557 644.74 623.742 644.917H529.062C516.581 644.208 506.24 640.05 498.037 632.443C490.012 624.657 484.217 615.191 480.651 604.046C477.263 592.898 475.48 581.044 475.302 568.483V501.337C475.48 496.559 477.263 492.578 480.651 489.393C484.039 486.031 488.139 484.262 492.954 484.085ZM727.518 523.894C720.742 524.25 715.037 526.815 710.4 531.59C705.942 536.368 702.732 541.855 700.771 548.046C698.81 554.063 697.829 560.254 697.829 566.624C697.829 572.994 698.719 579.274 700.505 585.468C702.466 591.659 705.764 597.146 710.4 601.921C715.037 606.522 720.742 609 727.518 609.354H815.778C827.013 610.414 833.164 616.517 834.235 627.665C834.057 632.62 832.184 636.778 828.618 640.139C825.052 643.325 820.771 644.917 815.778 644.917H730.459H718.157C705.676 644.208 695.422 639.52 687.397 630.85C679.375 622.004 673.58 612.006 670.014 600.861C666.626 589.713 664.931 578.302 664.931 566.624C664.931 557.954 665.911 549.372 667.872 540.879C669.836 532.386 672.865 524.337 676.968 516.73C681.246 508.944 686.863 502.31 693.817 496.826C700.949 491.339 709.064 488.51 718.157 488.333H723.237H815.778C827.013 489.393 833.164 495.497 834.235 506.645C834.235 511.599 832.362 515.757 828.618 519.119C825.052 522.304 820.771 523.894 815.778 523.894H727.518Z" fill="url(#paint29_linear_4_3)"/>
<path d="M354.144 652.108C344.87 652.108 335.687 651.045 326.594 648.923C317.679 646.8 309.121 643.702 300.918 639.634C292.715 635.386 285.496 629.815 279.254 622.915C273.012 616.015 269.624 607.786 269.09 598.233V587.085V502.424C269.09 497.47 270.873 493.399 274.439 490.214C278.183 486.852 282.552 485.172 287.544 485.172C298.245 486.058 304.037 491.806 304.93 502.424V590.004C305.286 595.488 307.338 600.089 311.082 603.804C315.003 607.343 319.284 610.174 323.921 612.297C328.733 614.422 333.638 616.015 338.631 617.075C343.802 618.137 348.973 618.667 354.144 618.667C359.314 618.667 364.395 618.137 369.388 617.075C374.559 616.015 379.461 614.422 384.098 612.297C388.913 610.174 393.191 607.343 396.937 603.804C400.859 600.089 402.998 595.488 403.354 590.004V502.424C403.354 497.47 405.137 493.399 408.706 490.214C412.45 486.852 416.818 485.172 421.811 485.172C432.509 486.058 438.392 491.806 439.462 502.424V587.085V598.233C438.928 607.786 435.45 616.015 429.03 622.915C422.791 629.815 415.569 635.386 407.367 639.634C399.164 643.702 390.518 646.8 381.425 648.923C372.507 651.045 363.414 652.108 354.144 652.108ZM492.954 485.172C497.947 485.172 502.227 486.852 505.793 490.214C509.359 493.399 511.23 497.47 511.411 502.424V566.385C511.23 573.638 511.676 580.361 512.747 586.555C513.996 592.569 516.847 597.967 521.306 602.744C525.762 607.522 531.379 610.087 538.155 610.441H623.742C628.735 610.617 632.835 612.474 636.045 616.015C639.433 619.553 641.128 623.798 641.128 628.752C640.95 633.53 639.167 637.598 635.779 640.96C632.569 644.145 628.557 645.828 623.742 646.004H529.062C516.581 645.295 506.24 641.137 498.037 633.53C490.012 625.744 484.217 616.278 480.651 605.133C477.263 593.985 475.48 582.131 475.302 569.57V502.424C475.48 497.646 477.263 493.665 480.651 490.48C484.039 487.118 488.139 485.349 492.954 485.172ZM727.518 524.981C720.742 525.337 715.037 527.902 710.4 532.677C705.942 537.455 702.732 542.942 700.771 549.133C698.81 555.15 697.829 561.341 697.829 567.711C697.829 574.081 698.719 580.361 700.505 586.555C702.466 592.746 705.764 598.233 710.4 603.008C715.037 607.609 720.742 610.087 727.518 610.441H815.778C827.013 611.501 833.164 617.604 834.235 628.752C834.057 633.707 832.184 637.865 828.618 641.227C825.052 644.412 820.771 646.004 815.778 646.004H730.459H718.157C705.676 645.295 695.422 640.607 687.397 631.937C679.375 623.091 673.58 613.093 670.014 601.948C666.626 590.8 664.931 579.389 664.931 567.711C664.931 559.041 665.911 550.459 667.872 541.966C669.836 533.473 672.865 525.424 676.968 517.817C681.246 510.031 686.863 503.397 693.817 497.913C700.949 492.426 709.064 489.597 718.157 489.42H723.237H815.778C827.013 490.48 833.164 496.584 834.235 507.732C834.235 512.686 832.362 516.844 828.618 520.206C825.052 523.391 820.771 524.981 815.778 524.981H727.518Z" fill="url(#paint30_linear_4_3)"/>
<path d="M354.144 645.586C344.87 645.586 335.687 644.523 326.594 642.401C317.679 640.278 309.121 637.18 300.918 633.112C292.715 628.864 285.496 623.293 279.254 616.392C273.012 609.492 269.624 601.263 269.09 591.711V580.563V495.902C269.09 490.947 270.873 486.876 274.439 483.691C278.183 480.33 282.552 478.65 287.544 478.65C298.245 479.536 304.037 485.284 304.93 495.902V583.481C305.286 588.966 307.338 593.567 311.082 597.282C315.003 600.82 319.284 603.652 323.921 605.775C328.733 607.9 333.638 609.492 338.631 610.552C343.802 611.615 348.973 612.145 354.144 612.145C359.314 612.145 364.395 611.615 369.388 610.552C374.559 609.492 379.461 607.9 384.098 605.775C388.913 603.652 393.191 600.82 396.937 597.282C400.859 593.567 402.998 588.966 403.354 583.481V495.902C403.354 490.947 405.137 486.876 408.706 483.691C412.45 480.33 416.818 478.65 421.811 478.65C432.509 479.536 438.392 485.284 439.462 495.902V580.563V591.711C438.928 601.263 435.45 609.492 429.03 616.392C422.791 623.293 415.569 628.864 407.367 633.112C399.164 637.18 390.518 640.278 381.425 642.401C372.507 644.523 363.414 645.586 354.144 645.586ZM492.954 478.65C497.947 478.65 502.227 480.33 505.793 483.691C509.359 486.876 511.23 490.947 511.411 495.902V559.862C511.23 567.116 511.676 573.839 512.747 580.033C513.996 586.047 516.847 591.444 521.306 596.222C525.762 601 531.379 603.565 538.155 603.918H623.742C628.735 604.095 632.835 605.951 636.045 609.492C639.433 613.031 641.128 617.276 641.128 622.23C640.95 627.008 639.167 631.076 635.779 634.438C632.569 637.623 628.557 639.305 623.742 639.482H529.062C516.581 638.772 506.24 634.614 498.037 627.008C490.012 619.222 484.217 609.756 480.651 598.611C477.263 587.463 475.48 575.608 475.302 563.047V495.902C475.48 491.124 477.263 487.143 480.651 483.958C484.039 480.596 488.139 478.827 492.954 478.65ZM727.518 518.458C720.742 518.814 715.037 521.38 710.4 526.155C705.942 530.933 702.732 536.42 700.771 542.61C698.81 548.627 697.829 554.818 697.829 561.188C697.829 567.559 698.719 573.839 700.505 580.033C702.466 586.224 705.764 591.711 710.4 596.486C715.037 601.087 720.742 603.565 727.518 603.918H815.778C827.013 604.978 833.164 611.082 834.235 622.23C834.057 627.184 832.184 631.342 828.618 634.704C825.052 637.889 820.771 639.482 815.778 639.482H730.459H718.157C705.676 638.772 695.422 634.085 687.397 625.415C679.375 616.569 673.58 606.571 670.014 595.426C666.626 584.278 664.931 572.866 664.931 561.188C664.931 552.519 665.911 543.937 667.872 535.444C669.836 526.951 672.865 518.901 676.968 511.295C681.246 503.509 686.863 496.875 693.817 491.39C700.949 485.903 709.064 483.074 718.157 482.898H723.237H815.778C827.013 483.958 833.164 490.062 834.235 501.209C834.235 506.164 832.362 510.322 828.618 513.684C825.052 516.869 820.771 518.458 815.778 518.458H727.518Z" fill="#C8D9D9"/>
<defs>
<linearGradient id="paint0_linear_4_3" x1="991.995" y1="222.306" x2="128.7" y2="880.435" gradientUnits="userSpaceOnUse">
<stop stop-color="#5EE1F5"/>
<stop offset="0.341346" stop-color="#43D7CA"/>
<stop offset="0.668269" stop-color="#1AB087"/>
<stop offset="1" stop-color="#126E55"/>
</linearGradient>
<linearGradient id="paint1_linear_4_3" x1="256.41" y1="940.26" x2="841.687" y2="160.548" gradientUnits="userSpaceOnUse">
<stop stop-color="#5EE1F5"/>
<stop offset="0.341346" stop-color="#43D7CA"/>
<stop offset="0.668269" stop-color="#1AB087"/>
<stop offset="1" stop-color="#126E55"/>
</linearGradient>
<linearGradient id="paint2_linear_4_3" x1="255.26" y1="874.547" x2="829.118" y2="205.951" gradientUnits="userSpaceOnUse">
<stop stop-color="#504F4F"/>
<stop offset="1" stop-color="#818181"/>
</linearGradient>
<linearGradient id="paint3_linear_4_3" x1="548.174" y1="408.738" x2="548.174" y2="680.505" gradientUnits="userSpaceOnUse">
<stop stop-color="#58DFEB"/>
<stop offset="1" stop-color="#158A6B"/>
</linearGradient>
<linearGradient id="paint4_linear_4_3" x1="547.078" y1="410.912" x2="547.078" y2="682.679" gradientUnits="userSpaceOnUse">
<stop stop-color="#58DFEB"/>
<stop offset="1" stop-color="#158A6B"/>
</linearGradient>
<linearGradient id="paint5_linear_4_3" x1="547.078" y1="410.912" x2="547.078" y2="682.679" gradientUnits="userSpaceOnUse">
<stop stop-color="#58DFEB"/>
<stop offset="1" stop-color="#158A6B"/>
</linearGradient>
<linearGradient id="paint6_linear_4_3" x1="547.078" y1="411.999" x2="547.078" y2="683.766" gradientUnits="userSpaceOnUse">
<stop stop-color="#58DFEB"/>
<stop offset="1" stop-color="#158A6B"/>
</linearGradient>
<linearGradient id="paint7_linear_4_3" x1="548.174" y1="416.347" x2="548.174" y2="688.115" gradientUnits="userSpaceOnUse">
<stop stop-color="#58DFEB"/>
<stop offset="1" stop-color="#158A6B"/>
</linearGradient>
<linearGradient id="paint8_linear_4_3" x1="547.078" y1="417.434" x2="547.078" y2="689.202" gradientUnits="userSpaceOnUse">
<stop stop-color="#58DFEB"/>
<stop offset="1" stop-color="#158A6B"/>
</linearGradient>
<linearGradient id="paint9_linear_4_3" x1="547.078" y1="417.434" x2="547.078" y2="689.202" gradientUnits="userSpaceOnUse">
<stop stop-color="#58DFEB"/>
<stop offset="1" stop-color="#158A6B"/>
</linearGradient>
<linearGradient id="paint10_linear_4_3" x1="547.078" y1="418.521" x2="547.078" y2="690.289" gradientUnits="userSpaceOnUse">
<stop stop-color="#58DFEB"/>
<stop offset="1" stop-color="#158A6B"/>
</linearGradient>
<linearGradient id="paint11_linear_4_3" x1="548.174" y1="415.26" x2="548.174" y2="687.027" gradientUnits="userSpaceOnUse">
<stop stop-color="#58DFEB"/>
<stop offset="1" stop-color="#158A6B"/>
</linearGradient>
<linearGradient id="paint12_linear_4_3" x1="547.078" y1="416.347" x2="547.078" y2="688.115" gradientUnits="userSpaceOnUse">
<stop stop-color="#58DFEB"/>
<stop offset="1" stop-color="#158A6B"/>
</linearGradient>
<linearGradient id="paint13_linear_4_3" x1="547.078" y1="416.347" x2="547.078" y2="688.115" gradientUnits="userSpaceOnUse">
<stop stop-color="#58DFEB"/>
<stop offset="1" stop-color="#158A6B"/>
</linearGradient>
<linearGradient id="paint14_linear_4_3" x1="547.078" y1="417.434" x2="547.078" y2="689.202" gradientUnits="userSpaceOnUse">
<stop stop-color="#58DFEB"/>
<stop offset="1" stop-color="#158A6B"/>
</linearGradient>
<linearGradient id="paint15_linear_4_3" x1="548.174" y1="414.173" x2="548.174" y2="685.94" gradientUnits="userSpaceOnUse">
<stop stop-color="#58DFEB"/>
<stop offset="1" stop-color="#158A6B"/>
</linearGradient>
<linearGradient id="paint16_linear_4_3" x1="547.078" y1="415.26" x2="547.078" y2="687.027" gradientUnits="userSpaceOnUse">
<stop stop-color="#58DFEB"/>
<stop offset="1" stop-color="#158A6B"/>
</linearGradient>
<linearGradient id="paint17_linear_4_3" x1="547.078" y1="415.26" x2="547.078" y2="687.027" gradientUnits="userSpaceOnUse">
<stop stop-color="#58DFEB"/>
<stop offset="1" stop-color="#158A6B"/>
</linearGradient>
<linearGradient id="paint18_linear_4_3" x1="547.078" y1="416.347" x2="547.078" y2="688.115" gradientUnits="userSpaceOnUse">
<stop stop-color="#58DFEB"/>
<stop offset="1" stop-color="#158A6B"/>
</linearGradient>
<linearGradient id="paint19_linear_4_3" x1="548.174" y1="413.086" x2="548.174" y2="684.853" gradientUnits="userSpaceOnUse">
<stop stop-color="#58DFEB"/>
<stop offset="1" stop-color="#158A6B"/>
</linearGradient>
<linearGradient id="paint20_linear_4_3" x1="547.078" y1="414.173" x2="547.078" y2="685.94" gradientUnits="userSpaceOnUse">
<stop stop-color="#58DFEB"/>
<stop offset="1" stop-color="#158A6B"/>
</linearGradient>
<linearGradient id="paint21_linear_4_3" x1="547.078" y1="414.173" x2="547.078" y2="685.94" gradientUnits="userSpaceOnUse">
<stop stop-color="#58DFEB"/>
<stop offset="1" stop-color="#158A6B"/>
</linearGradient>
<linearGradient id="paint22_linear_4_3" x1="547.078" y1="415.26" x2="547.078" y2="687.027" gradientUnits="userSpaceOnUse">
<stop stop-color="#58DFEB"/>
<stop offset="1" stop-color="#158A6B"/>
</linearGradient>
<linearGradient id="paint23_linear_4_3" x1="548.174" y1="411.999" x2="548.174" y2="683.766" gradientUnits="userSpaceOnUse">
<stop stop-color="#58DFEB"/>
<stop offset="1" stop-color="#158A6B"/>
</linearGradient>
<linearGradient id="paint24_linear_4_3" x1="547.078" y1="413.086" x2="547.078" y2="684.853" gradientUnits="userSpaceOnUse">
<stop stop-color="#58DFEB"/>
<stop offset="1" stop-color="#158A6B"/>
</linearGradient>
<linearGradient id="paint25_linear_4_3" x1="547.078" y1="413.086" x2="547.078" y2="684.853" gradientUnits="userSpaceOnUse">
<stop stop-color="#58DFEB"/>
<stop offset="1" stop-color="#158A6B"/>
</linearGradient>
<linearGradient id="paint26_linear_4_3" x1="547.078" y1="414.173" x2="547.078" y2="685.94" gradientUnits="userSpaceOnUse">
<stop stop-color="#58DFEB"/>
<stop offset="1" stop-color="#158A6B"/>
</linearGradient>
<linearGradient id="paint27_linear_4_3" x1="548.174" y1="410.912" x2="548.174" y2="682.679" gradientUnits="userSpaceOnUse">
<stop stop-color="#58DFEB"/>
<stop offset="1" stop-color="#158A6B"/>
</linearGradient>
<linearGradient id="paint28_linear_4_3" x1="547.078" y1="411.999" x2="547.078" y2="683.766" gradientUnits="userSpaceOnUse">
<stop stop-color="#58DFEB"/>
<stop offset="1" stop-color="#158A6B"/>
</linearGradient>
<linearGradient id="paint29_linear_4_3" x1="547.078" y1="411.999" x2="547.078" y2="683.766" gradientUnits="userSpaceOnUse">
<stop stop-color="#58DFEB"/>
<stop offset="1" stop-color="#158A6B"/>
</linearGradient>
<linearGradient id="paint30_linear_4_3" x1="547.078" y1="413.086" x2="547.078" y2="684.853" gradientUnits="userSpaceOnUse">
<stop stop-color="#58DFEB"/>
<stop offset="1" stop-color="#158A6B"/>
</linearGradient>
</defs>
</svg>
