<svg width="1046" height="1046" viewBox="0 0 1046 1046" fill="none" xmlns="http://www.w3.org/2000/svg">
<g clip-path="url(#clip0_1_2)">
<path d="M1013.94 522.975C1013.94 251.823 794.128 32.0109 522.976 32.0109C251.823 32.0109 32.011 251.823 32.011 522.975C32.011 794.128 251.823 1013.94 522.976 1013.94C794.128 1013.94 1013.94 794.128 1013.94 522.975Z" fill="white"/>
<path d="M522.976 1013.94C794.128 1013.94 1013.94 794.128 1013.94 522.975C1013.94 251.823 794.128 32.0109 522.976 32.0109C251.823 32.0109 32.011 251.823 32.011 522.975C32.011 794.128 251.823 1013.94 522.976 1013.94Z" fill="url(#paint0_linear_1_2)"/>
<g filter="url(#filter0_d_1_2)">
<path d="M964.844 522.975C964.844 767.012 767.013 964.844 522.976 964.844C278.939 964.844 81.1074 767.012 81.1074 522.975C81.1074 278.938 278.939 81.1073 522.976 81.1073C767.013 81.1073 964.844 278.938 964.844 522.975Z" fill="url(#paint1_linear_1_2)"/>
</g>
<g filter="url(#filter1_d_1_2)">
<path d="M522.975 926.548C740.982 926.548 917.711 745.863 917.711 522.975C917.711 300.088 740.982 119.403 522.975 119.403C304.969 119.403 128.24 300.088 128.24 522.975C128.24 745.863 304.969 926.548 522.975 926.548Z" fill="url(#paint2_linear_1_2)"/>
</g>
<g filter="url(#filter2_d_1_2)">
<path d="M350.414 617.12C342.102 617.12 333.871 616.161 325.721 614.243C317.73 612.326 310.059 609.528 302.707 605.853C295.354 602.016 288.884 596.983 283.289 590.751C277.695 584.518 274.658 577.085 274.179 568.456V558.386V481.914C274.179 477.438 275.777 473.761 278.973 470.884C282.329 467.847 286.245 466.33 290.72 466.33C300.311 467.131 305.503 472.323 306.303 481.914V561.023C306.622 565.977 308.461 570.133 311.817 573.488C315.332 576.684 319.169 579.242 323.325 581.16C327.638 583.079 332.034 584.518 336.51 585.475C341.144 586.435 345.779 586.914 350.414 586.914C355.048 586.914 359.602 586.435 364.077 585.475C368.712 584.518 373.106 583.079 377.262 581.16C381.578 579.242 385.412 576.684 388.77 573.488C392.286 570.133 394.203 565.977 394.522 561.023V481.914C394.522 477.438 396.12 473.761 399.319 470.884C402.674 467.847 406.59 466.33 411.065 466.33C420.654 467.131 425.927 472.323 426.886 481.914V558.386V568.456C426.408 577.085 423.29 584.518 417.536 590.751C411.944 596.983 405.47 602.016 398.118 605.853C390.766 609.528 383.016 612.326 374.866 614.243C366.873 616.161 358.723 617.12 350.414 617.12ZM474.832 466.33C479.307 466.33 483.144 467.847 486.34 470.884C489.536 473.761 491.213 477.438 491.375 481.914V539.688C491.213 546.24 491.613 552.313 492.573 557.908C493.692 563.34 496.247 568.215 500.244 572.531C504.238 576.847 509.273 579.164 515.346 579.483H592.059C596.534 579.643 600.209 581.319 603.086 584.518C606.123 587.714 607.642 591.548 607.642 596.024C607.483 600.339 605.885 604.014 602.848 607.051C599.971 609.928 596.375 611.447 592.059 611.607H507.196C496.009 610.966 486.74 607.21 479.388 600.339C472.195 593.306 467.001 584.756 463.804 574.689C460.768 564.619 459.17 553.911 459.01 542.565V481.914C459.17 477.598 460.768 474.002 463.804 471.125C466.841 468.088 470.516 466.49 474.832 466.33ZM685.075 502.289C679.002 502.61 673.888 504.928 669.732 509.241C665.736 513.556 662.859 518.513 661.101 524.105C659.343 529.54 658.465 535.132 658.465 540.886C658.465 546.64 659.262 552.313 660.863 557.908C662.621 563.5 665.576 568.456 669.732 572.769C673.888 576.925 679.002 579.164 685.075 579.483H764.184C774.254 580.44 779.767 585.954 780.727 596.024C780.567 600.499 778.888 604.255 775.692 607.291C772.496 610.168 768.659 611.607 764.184 611.607H687.711H676.684C665.498 610.966 656.307 606.732 649.114 598.901C641.924 590.91 636.73 581.879 633.533 571.812C630.497 561.742 628.977 551.434 628.977 540.886C628.977 533.055 629.856 525.303 631.614 517.631C633.374 509.96 636.089 502.689 639.766 495.818C643.601 488.785 648.635 482.792 654.868 477.839C661.261 472.882 668.534 470.327 676.684 470.167H681.238H764.184C774.254 471.125 779.767 476.638 780.727 486.708C780.727 491.183 779.048 494.939 775.692 497.976C772.496 500.853 768.659 502.289 764.184 502.289H685.075Z" fill="url(#paint3_linear_1_2)"/>
</g>
<path d="M349.432 619.084C341.12 619.084 332.889 618.124 324.739 616.207C316.748 614.29 309.077 611.491 301.725 607.817C294.373 603.98 287.902 598.947 282.307 592.715C276.713 586.482 273.676 579.048 273.197 570.42V560.35V483.877C273.197 479.402 274.795 475.725 277.992 472.848C281.347 469.811 285.263 468.294 289.738 468.294C299.329 469.095 304.521 474.286 305.321 483.877V562.987C305.64 567.94 307.479 572.096 310.835 575.452C314.35 578.648 318.187 581.206 322.343 583.124C326.656 585.043 331.053 586.482 335.528 587.439C340.162 588.399 344.797 588.878 349.432 588.878C354.066 588.878 358.62 588.399 363.095 587.439C367.73 586.482 372.124 585.043 376.28 583.124C380.596 581.206 384.43 578.648 387.788 575.452C391.304 572.096 393.221 567.94 393.54 562.987V483.877C393.54 479.402 395.138 475.725 398.337 472.848C401.693 469.811 405.608 468.294 410.083 468.294C419.672 469.095 424.945 474.286 425.904 483.877V560.35V570.42C425.426 579.048 422.308 586.482 416.554 592.715C410.962 598.947 404.489 603.98 397.136 607.817C389.784 611.491 382.034 614.29 373.884 616.207C365.891 618.124 357.741 619.084 349.432 619.084ZM473.85 468.294C478.325 468.294 482.162 469.811 485.358 472.848C488.554 475.725 490.231 479.402 490.393 483.877V541.652C490.231 548.204 490.631 554.277 491.591 559.871C492.71 565.304 495.265 570.179 499.262 574.495C503.256 578.81 508.291 581.128 514.364 581.447H591.077C595.552 581.606 599.227 583.283 602.104 586.482C605.141 589.678 606.66 593.512 606.66 597.987C606.501 602.303 604.903 605.978 601.866 609.015C598.989 611.892 595.393 613.411 591.077 613.571H506.214C495.027 612.93 485.758 609.174 478.406 602.303C471.213 595.27 466.019 586.72 462.822 576.653C459.786 566.583 458.188 555.875 458.028 544.529V483.877C458.188 479.562 459.786 475.966 462.822 473.089C465.859 470.052 469.534 468.454 473.85 468.294ZM684.093 504.252C678.02 504.574 672.906 506.891 668.75 511.205C664.754 515.52 661.877 520.476 660.119 526.069C658.361 531.504 657.483 537.096 657.483 542.85C657.483 548.604 658.28 554.277 659.881 559.871C661.639 565.464 664.594 570.42 668.75 574.733C672.906 578.889 678.02 581.128 684.093 581.447H763.202C773.272 582.404 778.785 587.918 779.745 597.987C779.585 602.463 777.906 606.219 774.71 609.255C771.514 612.132 767.677 613.571 763.202 613.571H686.729H675.702C664.516 612.93 655.325 608.695 648.132 600.865C640.942 592.874 635.748 583.843 632.551 573.776C629.515 563.706 627.995 553.398 627.995 542.85C627.995 535.019 628.874 527.266 630.632 519.595C632.392 511.924 635.107 504.653 638.784 497.782C642.619 490.749 647.653 484.756 653.886 479.802C660.279 474.846 667.552 472.291 675.702 472.131H680.256H763.202C773.272 473.089 778.785 478.602 779.745 488.672C779.745 493.147 778.066 496.903 774.71 499.939C771.514 502.816 767.677 504.252 763.202 504.252H684.093Z" fill="url(#paint4_linear_1_2)"/>
<path d="M349.432 619.084C341.12 619.084 332.889 618.124 324.739 616.207C316.748 614.29 309.077 611.491 301.725 607.817C294.373 603.98 287.902 598.947 282.307 592.715C276.713 586.482 273.676 579.048 273.197 570.42V560.35V483.877C273.197 479.402 274.795 475.725 277.992 472.848C281.347 469.811 285.263 468.294 289.738 468.294C299.329 469.095 304.521 474.286 305.321 483.877V562.987C305.64 567.94 307.479 572.096 310.835 575.452C314.35 578.648 318.187 581.206 322.343 583.124C326.656 585.043 331.053 586.482 335.528 587.439C340.162 588.399 344.797 588.878 349.432 588.878C354.066 588.878 358.62 588.399 363.095 587.439C367.73 586.482 372.124 585.043 376.28 583.124C380.596 581.206 384.43 578.648 387.788 575.452C391.304 572.096 393.221 567.94 393.54 562.987V483.877C393.54 479.402 395.138 475.725 398.337 472.848C401.693 469.811 405.608 468.294 410.083 468.294C419.672 469.095 424.945 474.286 425.904 483.877V560.35V570.42C425.426 579.048 422.308 586.482 416.554 592.715C410.962 598.947 404.489 603.98 397.136 607.817C389.784 611.491 382.034 614.29 373.884 616.207C365.891 618.124 357.741 619.084 349.432 619.084ZM473.85 468.294C478.325 468.294 482.162 469.811 485.358 472.848C488.554 475.725 490.231 479.402 490.393 483.877V541.652C490.231 548.204 490.631 554.277 491.591 559.871C492.71 565.304 495.265 570.179 499.262 574.495C503.256 578.81 508.291 581.128 514.364 581.447H591.077C595.552 581.606 599.227 583.283 602.104 586.482C605.141 589.678 606.66 593.512 606.66 597.987C606.501 602.303 604.903 605.978 601.866 609.015C598.989 611.892 595.393 613.411 591.077 613.571H506.214C495.027 612.93 485.758 609.174 478.406 602.303C471.213 595.27 466.019 586.72 462.822 576.653C459.786 566.583 458.188 555.875 458.028 544.529V483.877C458.188 479.562 459.786 475.966 462.822 473.089C465.859 470.052 469.534 468.454 473.85 468.294ZM684.093 504.252C678.02 504.574 672.906 506.891 668.75 511.205C664.754 515.52 661.877 520.476 660.119 526.069C658.361 531.504 657.483 537.096 657.483 542.85C657.483 548.604 658.28 554.277 659.881 559.871C661.639 565.464 664.594 570.42 668.75 574.733C672.906 578.889 678.02 581.128 684.093 581.447H763.202C773.272 582.404 778.785 587.918 779.745 597.987C779.585 602.463 777.906 606.219 774.71 609.255C771.514 612.132 767.677 613.571 763.202 613.571H686.729H675.702C664.516 612.93 655.325 608.695 648.132 600.865C640.942 592.874 635.748 583.843 632.551 573.776C629.515 563.706 627.995 553.398 627.995 542.85C627.995 535.019 628.874 527.266 630.632 519.595C632.392 511.924 635.107 504.653 638.784 497.782C642.619 490.749 647.653 484.756 653.886 479.802C660.279 474.846 667.552 472.291 675.702 472.131H680.256H763.202C773.272 473.089 778.785 478.602 779.745 488.672C779.745 493.147 778.066 496.903 774.71 499.939C771.514 502.816 767.677 504.252 763.202 504.252H684.093Z" fill="url(#paint5_linear_1_2)"/>
<path d="M349.432 620.066C341.12 620.066 332.889 619.106 324.739 617.189C316.748 615.272 309.077 612.473 301.725 608.799C294.373 604.962 287.902 599.929 282.307 593.696C276.713 587.464 273.676 580.03 273.197 571.402V561.332V484.859C273.197 480.384 274.795 476.707 277.992 473.83C281.347 470.793 285.263 469.276 289.738 469.276C299.329 470.076 304.521 475.268 305.321 484.859V563.969C305.64 568.922 307.479 573.078 310.835 576.434C314.35 579.63 318.187 582.188 322.343 584.105C326.656 586.025 331.053 587.464 335.528 588.421C340.162 589.381 344.797 589.86 349.432 589.86C354.066 589.86 358.62 589.381 363.095 588.421C367.73 587.464 372.124 586.025 376.28 584.105C380.596 582.188 384.43 579.63 387.788 576.434C391.304 573.078 393.221 568.922 393.54 563.969V484.859C393.54 480.384 395.138 476.707 398.337 473.83C401.693 470.793 405.608 469.276 410.083 469.276C419.672 470.076 424.945 475.268 425.904 484.859V561.332V571.402C425.426 580.03 422.308 587.464 416.554 593.696C410.962 599.929 404.489 604.962 397.136 608.799C389.784 612.473 382.034 615.272 373.884 617.189C365.891 619.106 357.741 620.066 349.432 620.066ZM473.85 469.276C478.325 469.276 482.162 470.793 485.358 473.83C488.554 476.707 490.231 480.384 490.393 484.859V542.634C490.231 549.186 490.631 555.259 491.591 560.853C492.71 566.286 495.265 571.161 499.262 575.477C503.256 579.792 508.291 582.11 514.364 582.429H591.077C595.552 582.588 599.227 584.265 602.104 587.464C605.141 590.66 606.66 594.494 606.66 598.969C606.501 603.285 604.903 606.96 601.866 609.996C598.989 612.873 595.393 614.393 591.077 614.553H506.214C495.027 613.912 485.758 610.156 478.406 603.285C471.213 596.252 466.019 587.702 462.822 577.635C459.786 567.565 458.188 556.857 458.028 545.511V484.859C458.188 480.544 459.786 476.948 462.822 474.07C465.859 471.034 469.534 469.436 473.85 469.276ZM684.093 505.234C678.02 505.556 672.906 507.873 668.75 512.186C664.754 516.502 661.877 521.458 660.119 527.05C658.361 532.485 657.483 538.078 657.483 543.832C657.483 549.586 658.28 555.259 659.881 560.853C661.639 566.445 664.594 571.402 668.75 575.715C672.906 579.871 678.02 582.11 684.093 582.429H763.202C773.272 583.386 778.785 588.9 779.745 598.969C779.585 603.445 777.906 607.2 774.71 610.237C771.514 613.114 767.677 614.553 763.202 614.553H686.729H675.702C664.516 613.912 655.325 609.677 648.132 601.846C640.942 593.856 635.748 584.825 632.551 574.758C629.515 564.688 627.995 554.38 627.995 543.832C627.995 536.001 628.874 528.248 630.632 520.577C632.392 512.906 635.107 505.635 638.784 498.764C642.619 491.73 647.653 485.738 653.886 480.784C660.279 475.828 667.552 473.273 675.702 473.113H680.256H763.202C773.272 474.07 778.785 479.584 779.745 489.654C779.745 494.129 778.066 497.885 774.71 500.921C771.514 503.798 767.677 505.234 763.202 505.234H684.093Z" fill="url(#paint6_linear_1_2)"/>
<path d="M350.414 623.994C342.102 623.994 333.871 623.034 325.721 621.117C317.73 619.2 310.059 616.401 302.707 612.726C295.354 608.889 288.884 603.857 283.289 597.624C277.695 591.391 274.658 583.958 274.179 575.329V565.26V488.787C274.179 484.312 275.777 480.635 278.973 477.758C282.329 474.721 286.245 473.204 290.72 473.204C300.311 474.004 305.503 479.196 306.303 488.787V567.896C306.622 572.85 308.461 577.006 311.817 580.362C315.332 583.558 319.169 586.116 323.325 588.033C327.638 589.953 332.034 591.391 336.51 592.349C341.144 593.309 345.779 593.787 350.414 593.787C355.048 593.787 359.602 593.309 364.077 592.349C368.712 591.391 373.106 589.953 377.262 588.033C381.578 586.116 385.412 583.558 388.77 580.362C392.286 577.006 394.203 572.85 394.522 567.896V488.787C394.522 484.312 396.12 480.635 399.319 477.758C402.674 474.721 406.59 473.204 411.065 473.204C420.654 474.004 425.927 479.196 426.886 488.787V565.26V575.329C426.408 583.958 423.29 591.391 417.536 597.624C411.944 603.857 405.47 608.889 398.118 612.726C390.766 616.401 383.016 619.2 374.866 621.117C366.873 623.034 358.723 623.994 350.414 623.994ZM474.832 473.204C479.307 473.204 483.144 474.721 486.34 477.758C489.536 480.635 491.213 484.312 491.375 488.787V546.561C491.213 553.113 491.613 559.187 492.573 564.781C493.692 570.214 496.247 575.089 500.244 579.404C504.238 583.72 509.273 586.037 515.346 586.357H592.059C596.534 586.516 600.209 588.193 603.086 591.391C606.123 594.588 607.642 598.422 607.642 602.897C607.483 607.213 605.885 610.888 602.848 613.924C599.971 616.801 596.375 618.321 592.059 618.48H507.196C496.009 617.84 486.74 614.084 479.388 607.213C472.195 600.18 467.001 591.63 463.804 581.562C460.768 571.493 459.17 560.785 459.01 549.438V488.787C459.17 484.472 460.768 480.875 463.804 477.998C466.841 474.962 470.516 473.364 474.832 473.204ZM685.075 509.162C679.002 509.484 673.888 511.801 669.732 516.114C665.736 520.43 662.859 525.386 661.101 530.978C659.343 536.413 658.465 542.005 658.465 547.759C658.465 553.513 659.262 559.187 660.863 564.781C662.621 570.373 665.576 575.329 669.732 579.643C673.888 583.799 679.002 586.037 685.075 586.357H764.184C774.254 587.314 779.767 592.827 780.727 602.897C780.567 607.372 778.888 611.128 775.692 614.165C772.496 617.042 768.659 618.48 764.184 618.48H687.711H676.684C665.498 617.84 656.307 613.605 649.114 605.774C641.924 597.784 636.73 588.752 633.533 578.685C630.497 568.616 628.977 558.308 628.977 547.759C628.977 539.929 629.856 532.176 631.614 524.505C633.374 516.833 636.089 509.562 639.766 502.691C643.601 495.658 648.635 489.666 654.868 484.712C661.261 479.756 668.534 477.2 676.684 477.041H681.238H764.184C774.254 477.998 779.767 483.512 780.727 493.581C780.727 498.057 779.048 501.812 775.692 504.849C772.496 507.726 768.659 509.162 764.184 509.162H685.075Z" fill="url(#paint7_linear_1_2)"/>
<path d="M349.432 624.976C341.12 624.976 332.889 624.016 324.739 622.099C316.748 620.182 309.077 617.383 301.725 613.708C294.373 609.871 287.902 604.839 282.307 598.606C276.713 592.373 273.676 584.94 273.197 576.311V566.242V489.769C273.197 485.294 274.795 481.617 277.992 478.74C281.347 475.703 285.263 474.186 289.738 474.186C299.329 474.986 304.521 480.178 305.321 489.769V568.878C305.64 573.832 307.479 577.988 310.835 581.344C314.35 584.54 318.187 587.098 322.343 589.015C326.656 590.935 331.053 592.373 335.528 593.331C340.162 594.291 344.797 594.769 349.432 594.769C354.066 594.769 358.62 594.291 363.095 593.331C367.73 592.373 372.124 590.935 376.28 589.015C380.596 587.098 384.43 584.54 387.788 581.344C391.304 577.988 393.221 573.832 393.54 568.878V489.769C393.54 485.294 395.138 481.617 398.337 478.74C401.693 475.703 405.608 474.186 410.083 474.186C419.672 474.986 424.945 480.178 425.904 489.769V566.242V576.311C425.426 584.94 422.308 592.373 416.554 598.606C410.962 604.839 404.489 609.871 397.136 613.708C389.784 617.383 382.034 620.182 373.884 622.099C365.891 624.016 357.741 624.976 349.432 624.976ZM473.85 474.186C478.325 474.186 482.162 475.703 485.358 478.74C488.554 481.617 490.231 485.294 490.393 489.769V547.543C490.231 554.095 490.631 560.168 491.591 565.763C492.71 571.196 495.265 576.071 499.262 580.386C503.256 584.702 508.291 587.019 514.364 587.338H591.077C595.552 587.498 599.227 589.175 602.104 592.373C605.141 595.569 606.66 599.404 606.66 603.879C606.501 608.195 604.903 611.869 601.866 614.906C598.989 617.783 595.393 619.303 591.077 619.462H506.214C495.027 618.822 485.758 615.066 478.406 608.195C471.213 601.162 466.019 592.611 462.822 582.544C459.786 572.475 458.188 561.767 458.028 550.42V489.769C458.188 485.453 459.786 481.857 462.822 478.98C465.859 475.944 469.534 474.345 473.85 474.186ZM684.093 510.144C678.02 510.466 672.906 512.783 668.75 517.096C664.754 521.412 661.877 526.368 660.119 531.96C658.361 537.395 657.483 542.987 657.483 548.741C657.483 554.495 658.28 560.168 659.881 565.763C661.639 571.355 664.594 576.311 668.75 580.625C672.906 584.781 678.02 587.019 684.093 587.338H763.202C773.272 588.296 778.785 593.809 779.745 603.879C779.585 608.354 777.906 612.11 774.71 615.147C771.514 618.024 767.677 619.462 763.202 619.462H686.729H675.702C664.516 618.822 655.325 614.587 648.132 606.756C640.942 598.766 635.748 589.734 632.551 579.667C629.515 569.597 627.995 559.29 627.995 548.741C627.995 540.91 628.874 533.158 630.632 525.487C632.392 517.815 635.107 510.544 638.784 503.673C642.619 496.64 647.653 490.648 653.886 485.694C660.279 480.738 667.552 478.182 675.702 478.023H680.256H763.202C773.272 478.98 778.785 484.494 779.745 494.563C779.745 499.038 778.066 502.794 774.71 505.831C771.514 508.708 767.677 510.144 763.202 510.144H684.093Z" fill="url(#paint8_linear_1_2)"/>
<path d="M349.432 624.976C341.12 624.976 332.889 624.016 324.739 622.099C316.748 620.182 309.077 617.383 301.725 613.708C294.373 609.871 287.902 604.839 282.307 598.606C276.713 592.373 273.676 584.94 273.197 576.311V566.242V489.769C273.197 485.294 274.795 481.617 277.992 478.74C281.347 475.703 285.263 474.186 289.738 474.186C299.329 474.986 304.521 480.178 305.321 489.769V568.878C305.64 573.832 307.479 577.988 310.835 581.344C314.35 584.54 318.187 587.098 322.343 589.015C326.656 590.935 331.053 592.373 335.528 593.331C340.162 594.291 344.797 594.769 349.432 594.769C354.066 594.769 358.62 594.291 363.095 593.331C367.73 592.373 372.124 590.935 376.28 589.015C380.596 587.098 384.43 584.54 387.788 581.344C391.304 577.988 393.221 573.832 393.54 568.878V489.769C393.54 485.294 395.138 481.617 398.337 478.74C401.693 475.703 405.608 474.186 410.083 474.186C419.672 474.986 424.945 480.178 425.904 489.769V566.242V576.311C425.426 584.94 422.308 592.373 416.554 598.606C410.962 604.839 404.489 609.871 397.136 613.708C389.784 617.383 382.034 620.182 373.884 622.099C365.891 624.016 357.741 624.976 349.432 624.976ZM473.85 474.186C478.325 474.186 482.162 475.703 485.358 478.74C488.554 481.617 490.231 485.294 490.393 489.769V547.543C490.231 554.095 490.631 560.168 491.591 565.763C492.71 571.196 495.265 576.071 499.262 580.386C503.256 584.702 508.291 587.019 514.364 587.338H591.077C595.552 587.498 599.227 589.175 602.104 592.373C605.141 595.569 606.66 599.404 606.66 603.879C606.501 608.195 604.903 611.869 601.866 614.906C598.989 617.783 595.393 619.303 591.077 619.462H506.214C495.027 618.822 485.758 615.066 478.406 608.195C471.213 601.162 466.019 592.611 462.822 582.544C459.786 572.475 458.188 561.767 458.028 550.42V489.769C458.188 485.453 459.786 481.857 462.822 478.98C465.859 475.944 469.534 474.345 473.85 474.186ZM684.093 510.144C678.02 510.466 672.906 512.783 668.75 517.096C664.754 521.412 661.877 526.368 660.119 531.96C658.361 537.395 657.483 542.987 657.483 548.741C657.483 554.495 658.28 560.168 659.881 565.763C661.639 571.355 664.594 576.311 668.75 580.625C672.906 584.781 678.02 587.019 684.093 587.338H763.202C773.272 588.296 778.785 593.809 779.745 603.879C779.585 608.354 777.906 612.11 774.71 615.147C771.514 618.024 767.677 619.462 763.202 619.462H686.729H675.702C664.516 618.822 655.325 614.587 648.132 606.756C640.942 598.766 635.748 589.734 632.551 579.667C629.515 569.597 627.995 559.29 627.995 548.741C627.995 540.91 628.874 533.158 630.632 525.487C632.392 517.815 635.107 510.544 638.784 503.673C642.619 496.64 647.653 490.648 653.886 485.694C660.279 480.738 667.552 478.182 675.702 478.023H680.256H763.202C773.272 478.98 778.785 484.494 779.745 494.563C779.745 499.038 778.066 502.794 774.71 505.831C771.514 508.708 767.677 510.144 763.202 510.144H684.093Z" fill="url(#paint9_linear_1_2)"/>
<path d="M349.432 625.958C341.12 625.958 332.889 624.998 324.739 623.081C316.748 621.163 309.077 618.365 301.725 614.69C294.373 610.853 287.902 605.821 282.307 599.588C276.713 593.355 273.676 585.922 273.197 577.293V567.224V490.751C273.197 486.276 274.795 482.599 277.992 479.721C281.347 476.685 285.263 475.168 289.738 475.168C299.329 475.968 304.521 481.16 305.321 490.751V569.86C305.64 574.814 307.479 578.97 310.835 582.326C314.35 585.522 318.187 588.08 322.343 589.997C326.656 591.917 331.053 593.355 335.528 594.313C340.162 595.272 344.797 595.751 349.432 595.751C354.066 595.751 358.62 595.272 363.095 594.313C367.73 593.355 372.124 591.917 376.28 589.997C380.596 588.08 384.43 585.522 387.788 582.326C391.304 578.97 393.221 574.814 393.54 569.86V490.751C393.54 486.276 395.138 482.599 398.337 479.721C401.693 476.685 405.608 475.168 410.083 475.168C419.672 475.968 424.945 481.16 425.904 490.751V567.224V577.293C425.426 585.922 422.308 593.355 416.554 599.588C410.962 605.821 404.489 610.853 397.136 614.69C389.784 618.365 382.034 621.163 373.884 623.081C365.891 624.998 357.741 625.958 349.432 625.958ZM473.85 475.168C478.325 475.168 482.162 476.685 485.358 479.721C488.554 482.599 490.231 486.276 490.393 490.751V548.525C490.231 555.077 490.631 561.15 491.591 566.745C492.71 572.177 495.265 577.053 499.262 581.368C503.256 585.684 508.291 588.001 514.364 588.32H591.077C595.552 588.48 599.227 590.157 602.104 593.355C605.141 596.551 606.66 600.386 606.66 604.861C606.501 609.177 604.903 612.851 601.866 615.888C598.989 618.765 595.393 620.285 591.077 620.444H506.214C495.027 619.803 485.758 616.048 478.406 609.177C471.213 602.144 466.019 593.593 462.822 583.526C459.786 573.456 458.188 562.748 458.028 551.402V490.751C458.188 486.435 459.786 482.839 462.822 479.962C465.859 476.925 469.534 475.327 473.85 475.168ZM684.093 511.126C678.02 511.448 672.906 513.765 668.75 518.078C664.754 522.394 661.877 527.35 660.119 532.942C658.361 538.377 657.483 543.969 657.483 549.723C657.483 555.477 658.28 561.15 659.881 566.745C661.639 572.337 664.594 577.293 668.75 581.606C672.906 585.762 678.02 588.001 684.093 588.32H763.202C773.272 589.278 778.785 594.791 779.745 604.861C779.585 609.336 777.906 613.092 774.71 616.129C771.514 619.006 767.677 620.444 763.202 620.444H686.729H675.702C664.516 619.803 655.325 615.569 648.132 607.738C640.942 599.748 635.748 590.716 632.551 580.649C629.515 570.579 627.995 560.272 627.995 549.723C627.995 541.892 628.874 534.14 630.632 526.469C632.392 518.797 635.107 511.526 638.784 504.655C642.619 497.622 647.653 491.63 653.886 486.676C660.279 481.72 667.552 479.164 675.702 479.005H680.256H763.202C773.272 479.962 778.785 485.476 779.745 495.545C779.745 500.02 778.066 503.776 774.71 506.813C771.514 509.69 767.677 511.126 763.202 511.126H684.093Z" fill="url(#paint10_linear_1_2)"/>
<path d="M350.414 623.012C342.102 623.012 333.871 622.052 325.721 620.135C317.73 618.218 310.059 615.419 302.707 611.744C295.354 607.907 288.884 602.875 283.289 596.642C277.695 590.409 274.658 582.976 274.179 574.347V564.278V487.805C274.179 483.33 275.777 479.653 278.973 476.776C282.329 473.739 286.245 472.222 290.72 472.222C300.311 473.022 305.503 478.214 306.303 487.805V566.914C306.622 571.868 308.461 576.024 311.817 579.38C315.332 582.576 319.169 585.134 323.325 587.051C327.638 588.971 332.034 590.409 336.51 591.367C341.144 592.327 345.779 592.805 350.414 592.805C355.048 592.805 359.602 592.327 364.077 591.367C368.712 590.409 373.106 588.971 377.262 587.051C381.578 585.134 385.412 582.576 388.77 579.38C392.286 576.024 394.203 571.868 394.522 566.914V487.805C394.522 483.33 396.12 479.653 399.319 476.776C402.674 473.739 406.59 472.222 411.065 472.222C420.654 473.022 425.927 478.214 426.886 487.805V564.278V574.347C426.408 582.976 423.29 590.409 417.536 596.642C411.944 602.875 405.47 607.907 398.118 611.744C390.766 615.419 383.016 618.218 374.866 620.135C366.873 622.052 358.723 623.012 350.414 623.012ZM474.832 472.222C479.307 472.222 483.144 473.739 486.34 476.776C489.536 479.653 491.213 483.33 491.375 487.805V545.579C491.213 552.131 491.613 558.205 492.573 563.799C493.692 569.232 496.247 574.107 500.244 578.423C504.238 582.738 509.273 585.055 515.346 585.375H592.059C596.534 585.534 600.209 587.211 603.086 590.409C606.123 593.606 607.642 597.44 607.642 601.915C607.483 606.231 605.885 609.906 602.848 612.942C599.971 615.819 596.375 617.339 592.059 617.498H507.196C496.009 616.858 486.74 613.102 479.388 606.231C472.195 599.198 467.001 590.648 463.804 580.58C460.768 570.511 459.17 559.803 459.01 548.456V487.805C459.17 483.49 460.768 479.893 463.804 477.016C466.841 473.98 470.516 472.382 474.832 472.222ZM685.075 508.18C679.002 508.502 673.888 510.819 669.732 515.132C665.736 519.448 662.859 524.404 661.101 529.996C659.343 535.431 658.465 541.023 658.465 546.777C658.465 552.532 659.262 558.205 660.863 563.799C662.621 569.391 665.576 574.348 669.732 578.661C673.888 582.817 679.002 585.055 685.075 585.375H764.184C774.254 586.332 779.767 591.845 780.727 601.915C780.567 606.39 778.888 610.146 775.692 613.183C772.496 616.06 768.659 617.498 764.184 617.498H687.711H676.684C665.498 616.858 656.307 612.623 649.114 604.792C641.924 596.802 636.73 587.771 633.533 577.703C630.497 567.634 628.977 557.326 628.977 546.777C628.977 538.947 629.856 531.194 631.614 523.523C633.374 515.852 636.089 508.58 639.766 501.709C643.601 494.676 648.635 488.684 654.868 483.73C661.261 478.774 668.534 476.218 676.684 476.059H681.238H764.184C774.254 477.016 779.767 482.53 780.727 492.599C780.727 497.075 779.048 500.83 775.692 503.867C772.496 506.744 768.659 508.18 764.184 508.18H685.075Z" fill="url(#paint11_linear_1_2)"/>
<path d="M349.432 623.994C341.12 623.994 332.889 623.034 324.739 621.117C316.748 619.2 309.077 616.401 301.725 612.726C294.373 608.889 287.902 603.857 282.307 597.624C276.713 591.391 273.676 583.958 273.197 575.329V565.26V488.787C273.197 484.312 274.795 480.635 277.992 477.758C281.347 474.721 285.263 473.204 289.738 473.204C299.329 474.004 304.521 479.196 305.321 488.787V567.896C305.64 572.85 307.479 577.006 310.835 580.362C314.35 583.558 318.187 586.116 322.343 588.033C326.656 589.953 331.053 591.391 335.528 592.349C340.162 593.309 344.797 593.787 349.432 593.787C354.066 593.787 358.62 593.309 363.095 592.349C367.73 591.391 372.124 589.953 376.28 588.033C380.596 586.116 384.43 583.558 387.788 580.362C391.304 577.006 393.221 572.85 393.54 567.896V488.787C393.54 484.312 395.138 480.635 398.337 477.758C401.693 474.721 405.608 473.204 410.083 473.204C419.672 474.004 424.945 479.196 425.904 488.787V565.26V575.329C425.426 583.958 422.308 591.391 416.554 597.624C410.962 603.857 404.489 608.889 397.136 612.726C389.784 616.401 382.034 619.2 373.884 621.117C365.891 623.034 357.741 623.994 349.432 623.994ZM473.85 473.204C478.325 473.204 482.162 474.721 485.358 477.758C488.554 480.635 490.231 484.312 490.393 488.787V546.561C490.231 553.113 490.631 559.187 491.591 564.781C492.71 570.214 495.265 575.089 499.262 579.404C503.256 583.72 508.291 586.037 514.364 586.357H591.077C595.552 586.516 599.227 588.193 602.104 591.391C605.141 594.588 606.66 598.422 606.66 602.897C606.501 607.213 604.903 610.888 601.866 613.924C598.989 616.801 595.393 618.321 591.077 618.48H506.214C495.027 617.84 485.758 614.084 478.406 607.213C471.213 600.18 466.019 591.63 462.822 581.562C459.786 571.493 458.188 560.785 458.028 549.438V488.787C458.188 484.472 459.786 480.875 462.822 477.998C465.859 474.962 469.534 473.364 473.85 473.204ZM684.093 509.162C678.02 509.484 672.906 511.801 668.75 516.114C664.754 520.43 661.877 525.386 660.119 530.978C658.361 536.413 657.483 542.005 657.483 547.759C657.483 553.513 658.28 559.187 659.881 564.781C661.639 570.373 664.594 575.329 668.75 579.643C672.906 583.799 678.02 586.037 684.093 586.357H763.202C773.272 587.314 778.785 592.827 779.745 602.897C779.585 607.372 777.906 611.128 774.71 614.165C771.514 617.042 767.677 618.48 763.202 618.48H686.729H675.702C664.516 617.84 655.325 613.605 648.132 605.774C640.942 597.784 635.748 588.752 632.551 578.685C629.515 568.616 627.995 558.308 627.995 547.759C627.995 539.929 628.874 532.176 630.632 524.505C632.392 516.833 635.107 509.562 638.784 502.691C642.619 495.658 647.653 489.666 653.886 484.712C660.279 479.756 667.552 477.2 675.702 477.041H680.256H763.202C773.272 477.998 778.785 483.512 779.745 493.581C779.745 498.057 778.066 501.812 774.71 504.849C771.514 507.726 767.677 509.162 763.202 509.162H684.093Z" fill="url(#paint12_linear_1_2)"/>
<path d="M349.432 623.994C341.12 623.994 332.889 623.034 324.739 621.117C316.748 619.2 309.077 616.401 301.725 612.726C294.373 608.889 287.902 603.857 282.307 597.624C276.713 591.391 273.676 583.958 273.197 575.329V565.26V488.787C273.197 484.312 274.795 480.635 277.992 477.758C281.347 474.721 285.263 473.204 289.738 473.204C299.329 474.004 304.521 479.196 305.321 488.787V567.896C305.64 572.85 307.479 577.006 310.835 580.362C314.35 583.558 318.187 586.116 322.343 588.033C326.656 589.953 331.053 591.391 335.528 592.349C340.162 593.309 344.797 593.787 349.432 593.787C354.066 593.787 358.62 593.309 363.095 592.349C367.73 591.391 372.124 589.953 376.28 588.033C380.596 586.116 384.43 583.558 387.788 580.362C391.304 577.006 393.221 572.85 393.54 567.896V488.787C393.54 484.312 395.138 480.635 398.337 477.758C401.693 474.721 405.608 473.204 410.083 473.204C419.672 474.004 424.945 479.196 425.904 488.787V565.26V575.329C425.426 583.958 422.308 591.391 416.554 597.624C410.962 603.857 404.489 608.889 397.136 612.726C389.784 616.401 382.034 619.2 373.884 621.117C365.891 623.034 357.741 623.994 349.432 623.994ZM473.85 473.204C478.325 473.204 482.162 474.721 485.358 477.758C488.554 480.635 490.231 484.312 490.393 488.787V546.561C490.231 553.113 490.631 559.187 491.591 564.781C492.71 570.214 495.265 575.089 499.262 579.404C503.256 583.72 508.291 586.037 514.364 586.357H591.077C595.552 586.516 599.227 588.193 602.104 591.391C605.141 594.588 606.66 598.422 606.66 602.897C606.501 607.213 604.903 610.888 601.866 613.924C598.989 616.801 595.393 618.321 591.077 618.48H506.214C495.027 617.84 485.758 614.084 478.406 607.213C471.213 600.18 466.019 591.63 462.822 581.562C459.786 571.493 458.188 560.785 458.028 549.438V488.787C458.188 484.472 459.786 480.875 462.822 477.998C465.859 474.962 469.534 473.364 473.85 473.204ZM684.093 509.162C678.02 509.484 672.906 511.801 668.75 516.114C664.754 520.43 661.877 525.386 660.119 530.978C658.361 536.413 657.483 542.005 657.483 547.759C657.483 553.513 658.28 559.187 659.881 564.781C661.639 570.373 664.594 575.329 668.75 579.643C672.906 583.799 678.02 586.037 684.093 586.357H763.202C773.272 587.314 778.785 592.827 779.745 602.897C779.585 607.372 777.906 611.128 774.71 614.165C771.514 617.042 767.677 618.48 763.202 618.48H686.729H675.702C664.516 617.84 655.325 613.605 648.132 605.774C640.942 597.784 635.748 588.752 632.551 578.685C629.515 568.616 627.995 558.308 627.995 547.759C627.995 539.929 628.874 532.176 630.632 524.505C632.392 516.833 635.107 509.562 638.784 502.691C642.619 495.658 647.653 489.666 653.886 484.712C660.279 479.756 667.552 477.2 675.702 477.041H680.256H763.202C773.272 477.998 778.785 483.512 779.745 493.581C779.745 498.057 778.066 501.812 774.71 504.849C771.514 507.726 767.677 509.162 763.202 509.162H684.093Z" fill="url(#paint13_linear_1_2)"/>
<path d="M349.432 624.976C341.12 624.976 332.889 624.016 324.739 622.099C316.748 620.182 309.077 617.383 301.725 613.708C294.373 609.871 287.902 604.839 282.307 598.606C276.713 592.373 273.676 584.94 273.197 576.311V566.242V489.769C273.197 485.294 274.795 481.617 277.992 478.74C281.347 475.703 285.263 474.186 289.738 474.186C299.329 474.986 304.521 480.178 305.321 489.769V568.878C305.64 573.832 307.479 577.988 310.835 581.344C314.35 584.54 318.187 587.098 322.343 589.015C326.656 590.935 331.053 592.373 335.528 593.331C340.162 594.291 344.797 594.769 349.432 594.769C354.066 594.769 358.62 594.291 363.095 593.331C367.73 592.373 372.124 590.935 376.28 589.015C380.596 587.098 384.43 584.54 387.788 581.344C391.304 577.988 393.221 573.832 393.54 568.878V489.769C393.54 485.294 395.138 481.617 398.337 478.74C401.693 475.703 405.608 474.186 410.083 474.186C419.672 474.986 424.945 480.178 425.904 489.769V566.242V576.311C425.426 584.94 422.308 592.373 416.554 598.606C410.962 604.839 404.489 609.871 397.136 613.708C389.784 617.383 382.034 620.182 373.884 622.099C365.891 624.016 357.741 624.976 349.432 624.976ZM473.85 474.186C478.325 474.186 482.162 475.703 485.358 478.74C488.554 481.617 490.231 485.294 490.393 489.769V547.543C490.231 554.095 490.631 560.168 491.591 565.763C492.71 571.196 495.265 576.071 499.262 580.386C503.256 584.702 508.291 587.019 514.364 587.338H591.077C595.552 587.498 599.227 589.175 602.104 592.373C605.141 595.569 606.66 599.404 606.66 603.879C606.501 608.195 604.903 611.869 601.866 614.906C598.989 617.783 595.393 619.303 591.077 619.462H506.214C495.027 618.822 485.758 615.066 478.406 608.195C471.213 601.162 466.019 592.611 462.822 582.544C459.786 572.475 458.188 561.767 458.028 550.42V489.769C458.188 485.453 459.786 481.857 462.822 478.98C465.859 475.944 469.534 474.345 473.85 474.186ZM684.093 510.144C678.02 510.466 672.906 512.783 668.75 517.096C664.754 521.412 661.877 526.368 660.119 531.96C658.361 537.395 657.483 542.987 657.483 548.741C657.483 554.495 658.28 560.168 659.881 565.763C661.639 571.355 664.594 576.311 668.75 580.625C672.906 584.781 678.02 587.019 684.093 587.338H763.202C773.272 588.296 778.785 593.809 779.745 603.879C779.585 608.354 777.906 612.11 774.71 615.147C771.514 618.024 767.677 619.462 763.202 619.462H686.729H675.702C664.516 618.822 655.325 614.587 648.132 606.756C640.942 598.766 635.748 589.734 632.551 579.667C629.515 569.597 627.995 559.29 627.995 548.741C627.995 540.91 628.874 533.158 630.632 525.487C632.392 517.815 635.107 510.544 638.784 503.673C642.619 496.64 647.653 490.648 653.886 485.694C660.279 480.738 667.552 478.182 675.702 478.023H680.256H763.202C773.272 478.98 778.785 484.494 779.745 494.563C779.745 499.038 778.066 502.794 774.71 505.831C771.514 508.708 767.677 510.144 763.202 510.144H684.093Z" fill="url(#paint14_linear_1_2)"/>
<path d="M350.414 622.03C342.102 622.03 333.871 621.07 325.721 619.153C317.73 617.236 310.059 614.437 302.707 610.762C295.354 606.925 288.884 601.893 283.289 595.66C277.695 589.428 274.658 581.994 274.179 573.366V563.296V486.823C274.179 482.348 275.777 478.671 278.973 475.794C282.329 472.757 286.245 471.24 290.72 471.24C300.311 472.04 305.503 477.232 306.303 486.823V565.932C306.622 570.886 308.461 575.042 311.817 578.398C315.332 581.594 319.169 584.152 323.325 586.069C327.638 587.989 332.034 589.428 336.51 590.385C341.144 591.345 345.779 591.823 350.414 591.823C355.048 591.823 359.602 591.345 364.077 590.385C368.712 589.428 373.106 587.989 377.262 586.069C381.578 584.152 385.412 581.594 388.77 578.398C392.286 575.042 394.203 570.886 394.522 565.932V486.823C394.522 482.348 396.12 478.671 399.319 475.794C402.674 472.757 406.59 471.24 411.065 471.24C420.654 472.04 425.927 477.232 426.886 486.823V563.296V573.366C426.408 581.994 423.29 589.428 417.536 595.66C411.944 601.893 405.47 606.925 398.118 610.762C390.766 614.437 383.016 617.236 374.866 619.153C366.873 621.07 358.723 622.03 350.414 622.03ZM474.832 471.24C479.307 471.24 483.144 472.757 486.34 475.794C489.536 478.671 491.213 482.348 491.375 486.823V544.598C491.213 551.149 491.613 557.223 492.573 562.817C493.692 568.25 496.247 573.125 500.244 577.441C504.238 581.756 509.273 584.074 515.346 584.393H592.059C596.534 584.552 600.209 586.229 603.086 589.428C606.123 592.624 607.642 596.458 607.642 600.933C607.483 605.249 605.885 608.924 602.848 611.96C599.971 614.837 596.375 616.357 592.059 616.516H507.196C496.009 615.876 486.74 612.12 479.388 605.249C472.195 598.216 467.001 589.666 463.804 579.598C460.768 569.529 459.17 558.821 459.01 547.475V486.823C459.17 482.508 460.768 478.911 463.804 476.034C466.841 472.998 470.516 471.4 474.832 471.24ZM685.075 507.198C679.002 507.52 673.888 509.837 669.732 514.15C665.736 518.466 662.859 523.422 661.101 529.014C659.343 534.449 658.465 540.041 658.465 545.796C658.465 551.55 659.262 557.223 660.863 562.817C662.621 568.409 665.576 573.366 669.732 577.679C673.888 581.835 679.002 584.074 685.075 584.393H764.184C774.254 585.35 779.767 590.864 780.727 600.933C780.567 605.408 778.888 609.164 775.692 612.201C772.496 615.078 768.659 616.516 764.184 616.516H687.711H676.684C665.498 615.876 656.307 611.641 649.114 603.81C641.924 595.82 636.73 586.789 633.533 576.721C630.497 566.652 628.977 556.344 628.977 545.796C628.977 537.965 629.856 530.212 631.614 522.541C633.374 514.87 636.089 507.598 639.766 500.727C643.601 493.694 648.635 487.702 654.868 482.748C661.261 477.792 668.534 475.237 676.684 475.077H681.238H764.184C774.254 476.034 779.767 481.548 780.727 491.618C780.727 496.093 779.048 499.849 775.692 502.885C772.496 505.762 768.659 507.198 764.184 507.198H685.075Z" fill="url(#paint15_linear_1_2)"/>
<path d="M349.432 623.012C341.12 623.012 332.889 622.052 324.739 620.135C316.748 618.218 309.077 615.419 301.725 611.744C294.373 607.907 287.902 602.875 282.307 596.642C276.713 590.409 273.676 582.976 273.197 574.347V564.278V487.805C273.197 483.33 274.795 479.653 277.992 476.776C281.347 473.739 285.263 472.222 289.738 472.222C299.329 473.022 304.521 478.214 305.321 487.805V566.914C305.64 571.868 307.479 576.024 310.835 579.38C314.35 582.576 318.187 585.134 322.343 587.051C326.656 588.971 331.053 590.409 335.528 591.367C340.162 592.327 344.797 592.805 349.432 592.805C354.066 592.805 358.62 592.327 363.095 591.367C367.73 590.409 372.124 588.971 376.28 587.051C380.596 585.134 384.43 582.576 387.788 579.38C391.304 576.024 393.221 571.868 393.54 566.914V487.805C393.54 483.33 395.138 479.653 398.337 476.776C401.693 473.739 405.608 472.222 410.083 472.222C419.672 473.022 424.945 478.214 425.904 487.805V564.278V574.347C425.426 582.976 422.308 590.409 416.554 596.642C410.962 602.875 404.489 607.907 397.136 611.744C389.784 615.419 382.034 618.218 373.884 620.135C365.891 622.052 357.741 623.012 349.432 623.012ZM473.85 472.222C478.325 472.222 482.162 473.739 485.358 476.776C488.554 479.653 490.231 483.33 490.393 487.805V545.579C490.231 552.131 490.631 558.205 491.591 563.799C492.71 569.232 495.265 574.107 499.262 578.423C503.256 582.738 508.291 585.055 514.364 585.375H591.077C595.552 585.534 599.227 587.211 602.104 590.409C605.141 593.606 606.66 597.44 606.66 601.915C606.501 606.231 604.903 609.906 601.866 612.942C598.989 615.819 595.393 617.339 591.077 617.498H506.214C495.027 616.858 485.758 613.102 478.406 606.231C471.213 599.198 466.019 590.648 462.822 580.58C459.786 570.511 458.188 559.803 458.028 548.456V487.805C458.188 483.49 459.786 479.893 462.822 477.016C465.859 473.98 469.534 472.382 473.85 472.222ZM684.093 508.18C678.02 508.502 672.906 510.819 668.75 515.132C664.754 519.448 661.877 524.404 660.119 529.996C658.361 535.431 657.483 541.023 657.483 546.777C657.483 552.532 658.28 558.205 659.881 563.799C661.639 569.391 664.594 574.348 668.75 578.661C672.906 582.817 678.02 585.055 684.093 585.375H763.202C773.272 586.332 778.785 591.845 779.745 601.915C779.585 606.39 777.906 610.146 774.71 613.183C771.514 616.06 767.677 617.498 763.202 617.498H686.729H675.702C664.516 616.858 655.325 612.623 648.132 604.792C640.942 596.802 635.748 587.771 632.551 577.703C629.515 567.634 627.995 557.326 627.995 546.777C627.995 538.947 628.874 531.194 630.632 523.523C632.392 515.852 635.107 508.58 638.784 501.709C642.619 494.676 647.653 488.684 653.886 483.73C660.279 478.774 667.552 476.218 675.702 476.059H680.256H763.202C773.272 477.016 778.785 482.53 779.745 492.599C779.745 497.075 778.066 500.83 774.71 503.867C771.514 506.744 767.677 508.18 763.202 508.18H684.093Z" fill="url(#paint16_linear_1_2)"/>
<path d="M349.432 623.012C341.12 623.012 332.889 622.052 324.739 620.135C316.748 618.218 309.077 615.419 301.725 611.744C294.373 607.907 287.902 602.875 282.307 596.642C276.713 590.409 273.676 582.976 273.197 574.347V564.278V487.805C273.197 483.33 274.795 479.653 277.992 476.776C281.347 473.739 285.263 472.222 289.738 472.222C299.329 473.022 304.521 478.214 305.321 487.805V566.914C305.64 571.868 307.479 576.024 310.835 579.38C314.35 582.576 318.187 585.134 322.343 587.051C326.656 588.971 331.053 590.409 335.528 591.367C340.162 592.327 344.797 592.805 349.432 592.805C354.066 592.805 358.62 592.327 363.095 591.367C367.73 590.409 372.124 588.971 376.28 587.051C380.596 585.134 384.43 582.576 387.788 579.38C391.304 576.024 393.221 571.868 393.54 566.914V487.805C393.54 483.33 395.138 479.653 398.337 476.776C401.693 473.739 405.608 472.222 410.083 472.222C419.672 473.022 424.945 478.214 425.904 487.805V564.278V574.347C425.426 582.976 422.308 590.409 416.554 596.642C410.962 602.875 404.489 607.907 397.136 611.744C389.784 615.419 382.034 618.218 373.884 620.135C365.891 622.052 357.741 623.012 349.432 623.012ZM473.85 472.222C478.325 472.222 482.162 473.739 485.358 476.776C488.554 479.653 490.231 483.33 490.393 487.805V545.579C490.231 552.131 490.631 558.205 491.591 563.799C492.71 569.232 495.265 574.107 499.262 578.423C503.256 582.738 508.291 585.055 514.364 585.375H591.077C595.552 585.534 599.227 587.211 602.104 590.409C605.141 593.606 606.66 597.44 606.66 601.915C606.501 606.231 604.903 609.906 601.866 612.942C598.989 615.819 595.393 617.339 591.077 617.498H506.214C495.027 616.858 485.758 613.102 478.406 606.231C471.213 599.198 466.019 590.648 462.822 580.58C459.786 570.511 458.188 559.803 458.028 548.456V487.805C458.188 483.49 459.786 479.893 462.822 477.016C465.859 473.98 469.534 472.382 473.85 472.222ZM684.093 508.18C678.02 508.502 672.906 510.819 668.75 515.132C664.754 519.448 661.877 524.404 660.119 529.996C658.361 535.431 657.483 541.023 657.483 546.777C657.483 552.532 658.28 558.205 659.881 563.799C661.639 569.391 664.594 574.348 668.75 578.661C672.906 582.817 678.02 585.055 684.093 585.375H763.202C773.272 586.332 778.785 591.845 779.745 601.915C779.585 606.39 777.906 610.146 774.71 613.183C771.514 616.06 767.677 617.498 763.202 617.498H686.729H675.702C664.516 616.858 655.325 612.623 648.132 604.792C640.942 596.802 635.748 587.771 632.551 577.703C629.515 567.634 627.995 557.326 627.995 546.777C627.995 538.947 628.874 531.194 630.632 523.523C632.392 515.852 635.107 508.58 638.784 501.709C642.619 494.676 647.653 488.684 653.886 483.73C660.279 478.774 667.552 476.218 675.702 476.059H680.256H763.202C773.272 477.016 778.785 482.53 779.745 492.599C779.745 497.075 778.066 500.83 774.71 503.867C771.514 506.744 767.677 508.18 763.202 508.18H684.093Z" fill="url(#paint17_linear_1_2)"/>
<path d="M349.432 623.994C341.12 623.994 332.889 623.034 324.739 621.117C316.748 619.2 309.077 616.401 301.725 612.726C294.373 608.889 287.902 603.857 282.307 597.624C276.713 591.391 273.676 583.958 273.197 575.329V565.26V488.787C273.197 484.312 274.795 480.635 277.992 477.758C281.347 474.721 285.263 473.204 289.738 473.204C299.329 474.004 304.521 479.196 305.321 488.787V567.896C305.64 572.85 307.479 577.006 310.835 580.362C314.35 583.558 318.187 586.116 322.343 588.033C326.656 589.953 331.053 591.391 335.528 592.349C340.162 593.309 344.797 593.787 349.432 593.787C354.066 593.787 358.62 593.309 363.095 592.349C367.73 591.391 372.124 589.953 376.28 588.033C380.596 586.116 384.43 583.558 387.788 580.362C391.304 577.006 393.221 572.85 393.54 567.896V488.787C393.54 484.312 395.138 480.635 398.337 477.758C401.693 474.721 405.608 473.204 410.083 473.204C419.672 474.004 424.945 479.196 425.904 488.787V565.26V575.329C425.426 583.958 422.308 591.391 416.554 597.624C410.962 603.857 404.489 608.889 397.136 612.726C389.784 616.401 382.034 619.2 373.884 621.117C365.891 623.034 357.741 623.994 349.432 623.994ZM473.85 473.204C478.325 473.204 482.162 474.721 485.358 477.758C488.554 480.635 490.231 484.312 490.393 488.787V546.561C490.231 553.113 490.631 559.187 491.591 564.781C492.71 570.214 495.265 575.089 499.262 579.404C503.256 583.72 508.291 586.037 514.364 586.357H591.077C595.552 586.516 599.227 588.193 602.104 591.391C605.141 594.588 606.66 598.422 606.66 602.897C606.501 607.213 604.903 610.888 601.866 613.924C598.989 616.801 595.393 618.321 591.077 618.48H506.214C495.027 617.84 485.758 614.084 478.406 607.213C471.213 600.18 466.019 591.63 462.822 581.562C459.786 571.493 458.188 560.785 458.028 549.438V488.787C458.188 484.472 459.786 480.875 462.822 477.998C465.859 474.962 469.534 473.364 473.85 473.204ZM684.093 509.162C678.02 509.484 672.906 511.801 668.75 516.114C664.754 520.43 661.877 525.386 660.119 530.978C658.361 536.413 657.483 542.005 657.483 547.759C657.483 553.513 658.28 559.187 659.881 564.781C661.639 570.373 664.594 575.329 668.75 579.643C672.906 583.799 678.02 586.037 684.093 586.357H763.202C773.272 587.314 778.785 592.827 779.745 602.897C779.585 607.372 777.906 611.128 774.71 614.165C771.514 617.042 767.677 618.48 763.202 618.48H686.729H675.702C664.516 617.84 655.325 613.605 648.132 605.774C640.942 597.784 635.748 588.752 632.551 578.685C629.515 568.616 627.995 558.308 627.995 547.759C627.995 539.929 628.874 532.176 630.632 524.505C632.392 516.833 635.107 509.562 638.784 502.691C642.619 495.658 647.653 489.666 653.886 484.712C660.279 479.756 667.552 477.2 675.702 477.041H680.256H763.202C773.272 477.998 778.785 483.512 779.745 493.581C779.745 498.057 778.066 501.812 774.71 504.849C771.514 507.726 767.677 509.162 763.202 509.162H684.093Z" fill="url(#paint18_linear_1_2)"/>
<path d="M350.414 621.048C342.102 621.048 333.871 620.088 325.721 618.171C317.73 616.254 310.059 613.455 302.707 609.78C295.354 605.944 288.884 600.911 283.289 594.678C277.695 588.446 274.658 581.012 274.179 572.384V562.314V485.841C274.179 481.366 275.777 477.689 278.973 474.812C282.329 471.775 286.245 470.258 290.72 470.258C300.311 471.058 305.503 476.25 306.303 485.841V564.95C306.622 569.904 308.461 574.06 311.817 577.416C315.332 580.612 319.169 583.17 323.325 585.087C327.638 587.007 332.034 588.446 336.51 589.403C341.144 590.363 345.779 590.841 350.414 590.841C355.048 590.841 359.602 590.363 364.077 589.403C368.712 588.446 373.106 587.007 377.262 585.087C381.578 583.17 385.412 580.612 388.77 577.416C392.286 574.06 394.203 569.904 394.522 564.95V485.841C394.522 481.366 396.12 477.689 399.319 474.812C402.674 471.775 406.59 470.258 411.065 470.258C420.654 471.058 425.927 476.25 426.886 485.841V562.314V572.384C426.408 581.012 423.29 588.446 417.536 594.678C411.944 600.911 405.47 605.944 398.118 609.78C390.766 613.455 383.016 616.254 374.866 618.171C366.873 620.088 358.723 621.048 350.414 621.048ZM474.832 470.258C479.307 470.258 483.144 471.775 486.34 474.812C489.536 477.689 491.213 481.366 491.375 485.841V543.616C491.213 550.167 491.613 556.241 492.573 561.835C493.692 567.268 496.247 572.143 500.244 576.459C504.238 580.774 509.273 583.092 515.346 583.411H592.059C596.534 583.57 600.209 585.247 603.086 588.446C606.123 591.642 607.642 595.476 607.642 599.951C607.483 604.267 605.885 607.942 602.848 610.978C599.971 613.855 596.375 615.375 592.059 615.535H507.196C496.009 614.894 486.74 611.138 479.388 604.267C472.195 597.234 467.001 588.684 463.804 578.616C460.768 568.547 459.17 557.839 459.01 546.493V485.841C459.17 481.526 460.768 477.929 463.804 475.052C466.841 472.016 470.516 470.418 474.832 470.258ZM685.075 506.216C679.002 506.538 673.888 508.855 669.732 513.168C665.736 517.484 662.859 522.44 661.101 528.032C659.343 533.467 658.465 539.059 658.465 544.814C658.465 550.568 659.262 556.241 660.863 561.835C662.621 567.427 665.576 572.384 669.732 576.697C673.888 580.853 679.002 583.092 685.075 583.411H764.184C774.254 584.368 779.767 589.882 780.727 599.951C780.567 604.426 778.888 608.182 775.692 611.219C772.496 614.096 768.659 615.535 764.184 615.535H687.711H676.684C665.498 614.894 656.307 610.659 649.114 602.828C641.924 594.838 636.73 585.807 633.533 575.739C630.497 565.67 628.977 555.362 628.977 544.814C628.977 536.983 629.856 529.23 631.614 521.559C633.374 513.888 636.089 506.616 639.766 499.745C643.601 492.712 648.635 486.72 654.868 481.766C661.261 476.81 668.534 474.255 676.684 474.095H681.238H764.184C774.254 475.052 779.767 480.566 780.727 490.636C780.727 495.111 779.048 498.867 775.692 501.903C772.496 504.78 768.659 506.216 764.184 506.216H685.075Z" fill="url(#paint19_linear_1_2)"/>
<path d="M349.432 622.03C341.12 622.03 332.889 621.07 324.739 619.153C316.748 617.236 309.077 614.437 301.725 610.762C294.373 606.925 287.902 601.893 282.307 595.66C276.713 589.428 273.676 581.994 273.197 573.366V563.296V486.823C273.197 482.348 274.795 478.671 277.992 475.794C281.347 472.757 285.263 471.24 289.738 471.24C299.329 472.04 304.521 477.232 305.321 486.823V565.932C305.64 570.886 307.479 575.042 310.835 578.398C314.35 581.594 318.187 584.152 322.343 586.069C326.656 587.989 331.053 589.428 335.528 590.385C340.162 591.345 344.797 591.823 349.432 591.823C354.066 591.823 358.62 591.345 363.095 590.385C367.73 589.428 372.124 587.989 376.28 586.069C380.596 584.152 384.43 581.594 387.788 578.398C391.304 575.042 393.221 570.886 393.54 565.932V486.823C393.54 482.348 395.138 478.671 398.337 475.794C401.693 472.757 405.608 471.24 410.083 471.24C419.672 472.04 424.945 477.232 425.904 486.823V563.296V573.366C425.426 581.994 422.308 589.428 416.554 595.66C410.962 601.893 404.489 606.925 397.136 610.762C389.784 614.437 382.034 617.236 373.884 619.153C365.891 621.07 357.741 622.03 349.432 622.03ZM473.85 471.24C478.325 471.24 482.162 472.757 485.358 475.794C488.554 478.671 490.231 482.348 490.393 486.823V544.598C490.231 551.149 490.631 557.223 491.591 562.817C492.71 568.25 495.265 573.125 499.262 577.441C503.256 581.756 508.291 584.074 514.364 584.393H591.077C595.552 584.552 599.227 586.229 602.104 589.428C605.141 592.624 606.66 596.458 606.66 600.933C606.501 605.249 604.903 608.924 601.866 611.96C598.989 614.837 595.393 616.357 591.077 616.516H506.214C495.027 615.876 485.758 612.12 478.406 605.249C471.213 598.216 466.019 589.666 462.822 579.598C459.786 569.529 458.188 558.821 458.028 547.475V486.823C458.188 482.508 459.786 478.911 462.822 476.034C465.859 472.998 469.534 471.4 473.85 471.24ZM684.093 507.198C678.02 507.52 672.906 509.837 668.75 514.15C664.754 518.466 661.877 523.422 660.119 529.014C658.361 534.449 657.483 540.041 657.483 545.796C657.483 551.55 658.28 557.223 659.881 562.817C661.639 568.409 664.594 573.366 668.75 577.679C672.906 581.835 678.02 584.074 684.093 584.393H763.202C773.272 585.35 778.785 590.864 779.745 600.933C779.585 605.408 777.906 609.164 774.71 612.201C771.514 615.078 767.677 616.516 763.202 616.516H686.729H675.702C664.516 615.876 655.325 611.641 648.132 603.81C640.942 595.82 635.748 586.789 632.551 576.721C629.515 566.652 627.995 556.344 627.995 545.796C627.995 537.965 628.874 530.212 630.632 522.541C632.392 514.87 635.107 507.598 638.784 500.727C642.619 493.694 647.653 487.702 653.886 482.748C660.279 477.792 667.552 475.237 675.702 475.077H680.256H763.202C773.272 476.034 778.785 481.548 779.745 491.618C779.745 496.093 778.066 499.849 774.71 502.885C771.514 505.762 767.677 507.198 763.202 507.198H684.093Z" fill="url(#paint20_linear_1_2)"/>
<path d="M349.432 622.03C341.12 622.03 332.889 621.07 324.739 619.153C316.748 617.236 309.077 614.437 301.725 610.762C294.373 606.925 287.902 601.893 282.307 595.66C276.713 589.428 273.676 581.994 273.197 573.366V563.296V486.823C273.197 482.348 274.795 478.671 277.992 475.794C281.347 472.757 285.263 471.24 289.738 471.24C299.329 472.04 304.521 477.232 305.321 486.823V565.932C305.64 570.886 307.479 575.042 310.835 578.398C314.35 581.594 318.187 584.152 322.343 586.069C326.656 587.989 331.053 589.428 335.528 590.385C340.162 591.345 344.797 591.823 349.432 591.823C354.066 591.823 358.62 591.345 363.095 590.385C367.73 589.428 372.124 587.989 376.28 586.069C380.596 584.152 384.43 581.594 387.788 578.398C391.304 575.042 393.221 570.886 393.54 565.932V486.823C393.54 482.348 395.138 478.671 398.337 475.794C401.693 472.757 405.608 471.24 410.083 471.24C419.672 472.04 424.945 477.232 425.904 486.823V563.296V573.366C425.426 581.994 422.308 589.428 416.554 595.66C410.962 601.893 404.489 606.925 397.136 610.762C389.784 614.437 382.034 617.236 373.884 619.153C365.891 621.07 357.741 622.03 349.432 622.03ZM473.85 471.24C478.325 471.24 482.162 472.757 485.358 475.794C488.554 478.671 490.231 482.348 490.393 486.823V544.598C490.231 551.149 490.631 557.223 491.591 562.817C492.71 568.25 495.265 573.125 499.262 577.441C503.256 581.756 508.291 584.074 514.364 584.393H591.077C595.552 584.552 599.227 586.229 602.104 589.428C605.141 592.624 606.66 596.458 606.66 600.933C606.501 605.249 604.903 608.924 601.866 611.96C598.989 614.837 595.393 616.357 591.077 616.516H506.214C495.027 615.876 485.758 612.12 478.406 605.249C471.213 598.216 466.019 589.666 462.822 579.598C459.786 569.529 458.188 558.821 458.028 547.475V486.823C458.188 482.508 459.786 478.911 462.822 476.034C465.859 472.998 469.534 471.4 473.85 471.24ZM684.093 507.198C678.02 507.52 672.906 509.837 668.75 514.15C664.754 518.466 661.877 523.422 660.119 529.014C658.361 534.449 657.483 540.041 657.483 545.796C657.483 551.55 658.28 557.223 659.881 562.817C661.639 568.409 664.594 573.366 668.75 577.679C672.906 581.835 678.02 584.074 684.093 584.393H763.202C773.272 585.35 778.785 590.864 779.745 600.933C779.585 605.408 777.906 609.164 774.71 612.201C771.514 615.078 767.677 616.516 763.202 616.516H686.729H675.702C664.516 615.876 655.325 611.641 648.132 603.81C640.942 595.82 635.748 586.789 632.551 576.721C629.515 566.652 627.995 556.344 627.995 545.796C627.995 537.965 628.874 530.212 630.632 522.541C632.392 514.87 635.107 507.598 638.784 500.727C642.619 493.694 647.653 487.702 653.886 482.748C660.279 477.792 667.552 475.237 675.702 475.077H680.256H763.202C773.272 476.034 778.785 481.548 779.745 491.618C779.745 496.093 778.066 499.849 774.71 502.885C771.514 505.762 767.677 507.198 763.202 507.198H684.093Z" fill="url(#paint21_linear_1_2)"/>
<path d="M349.432 623.012C341.12 623.012 332.889 622.052 324.739 620.135C316.748 618.218 309.077 615.419 301.725 611.744C294.373 607.907 287.902 602.875 282.307 596.642C276.713 590.409 273.676 582.976 273.197 574.347V564.278V487.805C273.197 483.33 274.795 479.653 277.992 476.776C281.347 473.739 285.263 472.222 289.738 472.222C299.329 473.022 304.521 478.214 305.321 487.805V566.914C305.64 571.868 307.479 576.024 310.835 579.38C314.35 582.576 318.187 585.134 322.343 587.051C326.656 588.971 331.053 590.409 335.528 591.367C340.162 592.327 344.797 592.805 349.432 592.805C354.066 592.805 358.62 592.327 363.095 591.367C367.73 590.409 372.124 588.971 376.28 587.051C380.596 585.134 384.43 582.576 387.788 579.38C391.304 576.024 393.221 571.868 393.54 566.914V487.805C393.54 483.33 395.138 479.653 398.337 476.776C401.693 473.739 405.608 472.222 410.083 472.222C419.672 473.022 424.945 478.214 425.904 487.805V564.278V574.347C425.426 582.976 422.308 590.409 416.554 596.642C410.962 602.875 404.489 607.907 397.136 611.744C389.784 615.419 382.034 618.218 373.884 620.135C365.891 622.052 357.741 623.012 349.432 623.012ZM473.85 472.222C478.325 472.222 482.162 473.739 485.358 476.776C488.554 479.653 490.231 483.33 490.393 487.805V545.579C490.231 552.131 490.631 558.205 491.591 563.799C492.71 569.232 495.265 574.107 499.262 578.423C503.256 582.738 508.291 585.055 514.364 585.375H591.077C595.552 585.534 599.227 587.211 602.104 590.409C605.141 593.606 606.66 597.44 606.66 601.915C606.501 606.231 604.903 609.906 601.866 612.942C598.989 615.819 595.393 617.339 591.077 617.498H506.214C495.027 616.858 485.758 613.102 478.406 606.231C471.213 599.198 466.019 590.648 462.822 580.58C459.786 570.511 458.188 559.803 458.028 548.456V487.805C458.188 483.49 459.786 479.893 462.822 477.016C465.859 473.98 469.534 472.382 473.85 472.222ZM684.093 508.18C678.02 508.502 672.906 510.819 668.75 515.132C664.754 519.448 661.877 524.404 660.119 529.996C658.361 535.431 657.483 541.023 657.483 546.777C657.483 552.532 658.28 558.205 659.881 563.799C661.639 569.391 664.594 574.348 668.75 578.661C672.906 582.817 678.02 585.055 684.093 585.375H763.202C773.272 586.332 778.785 591.845 779.745 601.915C779.585 606.39 777.906 610.146 774.71 613.183C771.514 616.06 767.677 617.498 763.202 617.498H686.729H675.702C664.516 616.858 655.325 612.623 648.132 604.792C640.942 596.802 635.748 587.771 632.551 577.703C629.515 567.634 627.995 557.326 627.995 546.777C627.995 538.947 628.874 531.194 630.632 523.523C632.392 515.852 635.107 508.58 638.784 501.709C642.619 494.676 647.653 488.684 653.886 483.73C660.279 478.774 667.552 476.218 675.702 476.059H680.256H763.202C773.272 477.016 778.785 482.53 779.745 492.599C779.745 497.075 778.066 500.83 774.71 503.867C771.514 506.744 767.677 508.18 763.202 508.18H684.093Z" fill="url(#paint22_linear_1_2)"/>
<path d="M350.414 620.066C342.102 620.066 333.871 619.106 325.721 617.189C317.73 615.272 310.059 612.473 302.707 608.799C295.354 604.962 288.884 599.929 283.289 593.696C277.695 587.464 274.658 580.03 274.179 571.402V561.332V484.859C274.179 480.384 275.777 476.707 278.973 473.83C282.329 470.793 286.245 469.276 290.72 469.276C300.311 470.076 305.503 475.268 306.303 484.859V563.969C306.622 568.922 308.461 573.078 311.817 576.434C315.332 579.63 319.169 582.188 323.325 584.105C327.638 586.025 332.034 587.464 336.51 588.421C341.144 589.381 345.779 589.86 350.414 589.86C355.048 589.86 359.602 589.381 364.077 588.421C368.712 587.464 373.106 586.025 377.262 584.105C381.578 582.188 385.412 579.63 388.77 576.434C392.286 573.078 394.203 568.922 394.522 563.969V484.859C394.522 480.384 396.12 476.707 399.319 473.83C402.674 470.793 406.59 469.276 411.065 469.276C420.654 470.076 425.927 475.268 426.886 484.859V561.332V571.402C426.408 580.03 423.29 587.464 417.536 593.696C411.944 599.929 405.47 604.962 398.118 608.799C390.766 612.473 383.016 615.272 374.866 617.189C366.873 619.106 358.723 620.066 350.414 620.066ZM474.832 469.276C479.307 469.276 483.144 470.793 486.34 473.83C489.536 476.707 491.213 480.384 491.375 484.859V542.634C491.213 549.186 491.613 555.259 492.573 560.853C493.692 566.286 496.247 571.161 500.244 575.477C504.238 579.792 509.273 582.11 515.346 582.429H592.059C596.534 582.588 600.209 584.265 603.086 587.464C606.123 590.66 607.642 594.494 607.642 598.969C607.483 603.285 605.885 606.96 602.848 609.996C599.971 612.873 596.375 614.393 592.059 614.553H507.196C496.009 613.912 486.74 610.156 479.388 603.285C472.195 596.252 467.001 587.702 463.804 577.635C460.768 567.565 459.17 556.857 459.01 545.511V484.859C459.17 480.544 460.768 476.948 463.804 474.07C466.841 471.034 470.516 469.436 474.832 469.276ZM685.075 505.234C679.002 505.556 673.888 507.873 669.732 512.186C665.736 516.502 662.859 521.458 661.101 527.05C659.343 532.485 658.465 538.078 658.465 543.832C658.465 549.586 659.262 555.259 660.863 560.853C662.621 566.445 665.576 571.402 669.732 575.715C673.888 579.871 679.002 582.11 685.075 582.429H764.184C774.254 583.386 779.767 588.9 780.727 598.969C780.567 603.445 778.888 607.2 775.692 610.237C772.496 613.114 768.659 614.553 764.184 614.553H687.711H676.684C665.498 613.912 656.307 609.677 649.114 601.846C641.924 593.856 636.73 584.825 633.533 574.758C630.497 564.688 628.977 554.38 628.977 543.832C628.977 536.001 629.856 528.248 631.614 520.577C633.374 512.906 636.089 505.635 639.766 498.764C643.601 491.73 648.635 485.738 654.868 480.784C661.261 475.828 668.534 473.273 676.684 473.113H681.238H764.184C774.254 474.07 779.767 479.584 780.727 489.654C780.727 494.129 779.048 497.885 775.692 500.921C772.496 503.798 768.659 505.234 764.184 505.234H685.075Z" fill="url(#paint23_linear_1_2)"/>
<path d="M349.432 621.048C341.12 621.048 332.889 620.088 324.739 618.171C316.748 616.254 309.077 613.455 301.725 609.78C294.373 605.944 287.902 600.911 282.307 594.678C276.713 588.446 273.676 581.012 273.197 572.384V562.314V485.841C273.197 481.366 274.795 477.689 277.992 474.812C281.347 471.775 285.263 470.258 289.738 470.258C299.329 471.058 304.521 476.25 305.321 485.841V564.95C305.64 569.904 307.479 574.06 310.835 577.416C314.35 580.612 318.187 583.17 322.343 585.087C326.656 587.007 331.053 588.446 335.528 589.403C340.162 590.363 344.797 590.841 349.432 590.841C354.066 590.841 358.62 590.363 363.095 589.403C367.73 588.446 372.124 587.007 376.28 585.087C380.596 583.17 384.43 580.612 387.788 577.416C391.304 574.06 393.221 569.904 393.54 564.95V485.841C393.54 481.366 395.138 477.689 398.337 474.812C401.693 471.775 405.608 470.258 410.083 470.258C419.672 471.058 424.945 476.25 425.904 485.841V562.314V572.384C425.426 581.012 422.308 588.446 416.554 594.678C410.962 600.911 404.489 605.944 397.136 609.78C389.784 613.455 382.034 616.254 373.884 618.171C365.891 620.088 357.741 621.048 349.432 621.048ZM473.85 470.258C478.325 470.258 482.162 471.775 485.358 474.812C488.554 477.689 490.231 481.366 490.393 485.841V543.616C490.231 550.167 490.631 556.241 491.591 561.835C492.71 567.268 495.265 572.143 499.262 576.459C503.256 580.774 508.291 583.092 514.364 583.411H591.077C595.552 583.57 599.227 585.247 602.104 588.446C605.141 591.642 606.66 595.476 606.66 599.951C606.501 604.267 604.903 607.942 601.866 610.978C598.989 613.855 595.393 615.375 591.077 615.535H506.214C495.027 614.894 485.758 611.138 478.406 604.267C471.213 597.234 466.019 588.684 462.822 578.616C459.786 568.547 458.188 557.839 458.028 546.493V485.841C458.188 481.526 459.786 477.929 462.822 475.052C465.859 472.016 469.534 470.418 473.85 470.258ZM684.093 506.216C678.02 506.538 672.906 508.855 668.75 513.168C664.754 517.484 661.877 522.44 660.119 528.032C658.361 533.467 657.483 539.059 657.483 544.814C657.483 550.568 658.28 556.241 659.881 561.835C661.639 567.427 664.594 572.384 668.75 576.697C672.906 580.853 678.02 583.092 684.093 583.411H763.202C773.272 584.368 778.785 589.882 779.745 599.951C779.585 604.426 777.906 608.182 774.71 611.219C771.514 614.096 767.677 615.535 763.202 615.535H686.729H675.702C664.516 614.894 655.325 610.659 648.132 602.828C640.942 594.838 635.748 585.807 632.551 575.739C629.515 565.67 627.995 555.362 627.995 544.814C627.995 536.983 628.874 529.23 630.632 521.559C632.392 513.888 635.107 506.616 638.784 499.745C642.619 492.712 647.653 486.72 653.886 481.766C660.279 476.81 667.552 474.255 675.702 474.095H680.256H763.202C773.272 475.052 778.785 480.566 779.745 490.636C779.745 495.111 778.066 498.867 774.71 501.903C771.514 504.78 767.677 506.216 763.202 506.216H684.093Z" fill="url(#paint24_linear_1_2)"/>
<path d="M349.432 621.048C341.12 621.048 332.889 620.088 324.739 618.171C316.748 616.254 309.077 613.455 301.725 609.78C294.373 605.944 287.902 600.911 282.307 594.678C276.713 588.446 273.676 581.012 273.197 572.384V562.314V485.841C273.197 481.366 274.795 477.689 277.992 474.812C281.347 471.775 285.263 470.258 289.738 470.258C299.329 471.058 304.521 476.25 305.321 485.841V564.95C305.64 569.904 307.479 574.06 310.835 577.416C314.35 580.612 318.187 583.17 322.343 585.087C326.656 587.007 331.053 588.446 335.528 589.403C340.162 590.363 344.797 590.841 349.432 590.841C354.066 590.841 358.62 590.363 363.095 589.403C367.73 588.446 372.124 587.007 376.28 585.087C380.596 583.17 384.43 580.612 387.788 577.416C391.304 574.06 393.221 569.904 393.54 564.95V485.841C393.54 481.366 395.138 477.689 398.337 474.812C401.693 471.775 405.608 470.258 410.083 470.258C419.672 471.058 424.945 476.25 425.904 485.841V562.314V572.384C425.426 581.012 422.308 588.446 416.554 594.678C410.962 600.911 404.489 605.944 397.136 609.78C389.784 613.455 382.034 616.254 373.884 618.171C365.891 620.088 357.741 621.048 349.432 621.048ZM473.85 470.258C478.325 470.258 482.162 471.775 485.358 474.812C488.554 477.689 490.231 481.366 490.393 485.841V543.616C490.231 550.167 490.631 556.241 491.591 561.835C492.71 567.268 495.265 572.143 499.262 576.459C503.256 580.774 508.291 583.092 514.364 583.411H591.077C595.552 583.57 599.227 585.247 602.104 588.446C605.141 591.642 606.66 595.476 606.66 599.951C606.501 604.267 604.903 607.942 601.866 610.978C598.989 613.855 595.393 615.375 591.077 615.535H506.214C495.027 614.894 485.758 611.138 478.406 604.267C471.213 597.234 466.019 588.684 462.822 578.616C459.786 568.547 458.188 557.839 458.028 546.493V485.841C458.188 481.526 459.786 477.929 462.822 475.052C465.859 472.016 469.534 470.418 473.85 470.258ZM684.093 506.216C678.02 506.538 672.906 508.855 668.75 513.168C664.754 517.484 661.877 522.44 660.119 528.032C658.361 533.467 657.483 539.059 657.483 544.814C657.483 550.568 658.28 556.241 659.881 561.835C661.639 567.427 664.594 572.384 668.75 576.697C672.906 580.853 678.02 583.092 684.093 583.411H763.202C773.272 584.368 778.785 589.882 779.745 599.951C779.585 604.426 777.906 608.182 774.71 611.219C771.514 614.096 767.677 615.535 763.202 615.535H686.729H675.702C664.516 614.894 655.325 610.659 648.132 602.828C640.942 594.838 635.748 585.807 632.551 575.739C629.515 565.67 627.995 555.362 627.995 544.814C627.995 536.983 628.874 529.23 630.632 521.559C632.392 513.888 635.107 506.616 638.784 499.745C642.619 492.712 647.653 486.72 653.886 481.766C660.279 476.81 667.552 474.255 675.702 474.095H680.256H763.202C773.272 475.052 778.785 480.566 779.745 490.636C779.745 495.111 778.066 498.867 774.71 501.903C771.514 504.78 767.677 506.216 763.202 506.216H684.093Z" fill="url(#paint25_linear_1_2)"/>
<path d="M349.432 622.03C341.12 622.03 332.889 621.07 324.739 619.153C316.748 617.236 309.077 614.437 301.725 610.762C294.373 606.925 287.902 601.893 282.307 595.66C276.713 589.428 273.676 581.994 273.197 573.366V563.296V486.823C273.197 482.348 274.795 478.671 277.992 475.794C281.347 472.757 285.263 471.24 289.738 471.24C299.329 472.04 304.521 477.232 305.321 486.823V565.932C305.64 570.886 307.479 575.042 310.835 578.398C314.35 581.594 318.187 584.152 322.343 586.069C326.656 587.989 331.053 589.428 335.528 590.385C340.162 591.345 344.797 591.823 349.432 591.823C354.066 591.823 358.62 591.345 363.095 590.385C367.73 589.428 372.124 587.989 376.28 586.069C380.596 584.152 384.43 581.594 387.788 578.398C391.304 575.042 393.221 570.886 393.54 565.932V486.823C393.54 482.348 395.138 478.671 398.337 475.794C401.693 472.757 405.608 471.24 410.083 471.24C419.672 472.04 424.945 477.232 425.904 486.823V563.296V573.366C425.426 581.994 422.308 589.428 416.554 595.66C410.962 601.893 404.489 606.925 397.136 610.762C389.784 614.437 382.034 617.236 373.884 619.153C365.891 621.07 357.741 622.03 349.432 622.03ZM473.85 471.24C478.325 471.24 482.162 472.757 485.358 475.794C488.554 478.671 490.231 482.348 490.393 486.823V544.598C490.231 551.149 490.631 557.223 491.591 562.817C492.71 568.25 495.265 573.125 499.262 577.441C503.256 581.756 508.291 584.074 514.364 584.393H591.077C595.552 584.552 599.227 586.229 602.104 589.428C605.141 592.624 606.66 596.458 606.66 600.933C606.501 605.249 604.903 608.924 601.866 611.96C598.989 614.837 595.393 616.357 591.077 616.516H506.214C495.027 615.876 485.758 612.12 478.406 605.249C471.213 598.216 466.019 589.666 462.822 579.598C459.786 569.529 458.188 558.821 458.028 547.475V486.823C458.188 482.508 459.786 478.911 462.822 476.034C465.859 472.998 469.534 471.4 473.85 471.24ZM684.093 507.198C678.02 507.52 672.906 509.837 668.75 514.15C664.754 518.466 661.877 523.422 660.119 529.014C658.361 534.449 657.483 540.041 657.483 545.796C657.483 551.55 658.28 557.223 659.881 562.817C661.639 568.409 664.594 573.366 668.75 577.679C672.906 581.835 678.02 584.074 684.093 584.393H763.202C773.272 585.35 778.785 590.864 779.745 600.933C779.585 605.408 777.906 609.164 774.71 612.201C771.514 615.078 767.677 616.516 763.202 616.516H686.729H675.702C664.516 615.876 655.325 611.641 648.132 603.81C640.942 595.82 635.748 586.789 632.551 576.721C629.515 566.652 627.995 556.344 627.995 545.796C627.995 537.965 628.874 530.212 630.632 522.541C632.392 514.87 635.107 507.598 638.784 500.727C642.619 493.694 647.653 487.702 653.886 482.748C660.279 477.792 667.552 475.237 675.702 475.077H680.256H763.202C773.272 476.034 778.785 481.548 779.745 491.618C779.745 496.093 778.066 499.849 774.71 502.885C771.514 505.762 767.677 507.198 763.202 507.198H684.093Z" fill="url(#paint26_linear_1_2)"/>
<path d="M350.414 619.084C342.102 619.084 333.871 618.124 325.721 616.207C317.73 614.29 310.059 611.491 302.707 607.817C295.354 603.98 288.884 598.947 283.289 592.715C277.695 586.482 274.658 579.048 274.179 570.42V560.35V483.877C274.179 479.402 275.777 475.725 278.973 472.848C282.329 469.811 286.245 468.294 290.72 468.294C300.311 469.095 305.503 474.286 306.303 483.877V562.987C306.622 567.94 308.461 572.096 311.817 575.452C315.332 578.648 319.169 581.206 323.325 583.124C327.638 585.043 332.034 586.482 336.51 587.439C341.144 588.399 345.779 588.878 350.414 588.878C355.048 588.878 359.602 588.399 364.077 587.439C368.712 586.482 373.106 585.043 377.262 583.124C381.578 581.206 385.412 578.648 388.77 575.452C392.286 572.096 394.203 567.94 394.522 562.987V483.877C394.522 479.402 396.12 475.725 399.319 472.848C402.674 469.811 406.59 468.294 411.065 468.294C420.654 469.095 425.927 474.286 426.886 483.877V560.35V570.42C426.408 579.048 423.29 586.482 417.536 592.715C411.944 598.947 405.47 603.98 398.118 607.817C390.766 611.491 383.016 614.29 374.866 616.207C366.873 618.124 358.723 619.084 350.414 619.084ZM474.832 468.294C479.307 468.294 483.144 469.811 486.34 472.848C489.536 475.725 491.213 479.402 491.375 483.877V541.652C491.213 548.204 491.613 554.277 492.573 559.871C493.692 565.304 496.247 570.179 500.244 574.495C504.238 578.81 509.273 581.128 515.346 581.447H592.059C596.534 581.606 600.209 583.283 603.086 586.482C606.123 589.678 607.642 593.512 607.642 597.987C607.483 602.303 605.885 605.978 602.848 609.015C599.971 611.892 596.375 613.411 592.059 613.571H507.196C496.009 612.93 486.74 609.174 479.388 602.303C472.195 595.27 467.001 586.72 463.804 576.653C460.768 566.583 459.17 555.875 459.01 544.529V483.877C459.17 479.562 460.768 475.966 463.804 473.089C466.841 470.052 470.516 468.454 474.832 468.294ZM685.075 504.252C679.002 504.574 673.888 506.891 669.732 511.205C665.736 515.52 662.859 520.476 661.101 526.069C659.343 531.504 658.465 537.096 658.465 542.85C658.465 548.604 659.262 554.277 660.863 559.871C662.621 565.464 665.576 570.42 669.732 574.733C673.888 578.889 679.002 581.128 685.075 581.447H764.184C774.254 582.404 779.767 587.918 780.727 597.987C780.567 602.463 778.888 606.219 775.692 609.255C772.496 612.132 768.659 613.571 764.184 613.571H687.711H676.684C665.498 612.93 656.307 608.695 649.114 600.865C641.924 592.874 636.73 583.843 633.533 573.776C630.497 563.706 628.977 553.398 628.977 542.85C628.977 535.019 629.856 527.266 631.614 519.595C633.374 511.924 636.089 504.653 639.766 497.782C643.601 490.749 648.635 484.756 654.868 479.802C661.261 474.846 668.534 472.291 676.684 472.131H681.238H764.184C774.254 473.089 779.767 478.602 780.727 488.672C780.727 493.147 779.048 496.903 775.692 499.939C772.496 502.816 768.659 504.252 764.184 504.252H685.075Z" fill="url(#paint27_linear_1_2)"/>
<path d="M349.432 620.066C341.12 620.066 332.889 619.106 324.739 617.189C316.748 615.272 309.077 612.473 301.725 608.799C294.373 604.962 287.902 599.929 282.307 593.696C276.713 587.464 273.676 580.03 273.197 571.402V561.332V484.859C273.197 480.384 274.795 476.707 277.992 473.83C281.347 470.793 285.263 469.276 289.738 469.276C299.329 470.076 304.521 475.268 305.321 484.859V563.969C305.64 568.922 307.479 573.078 310.835 576.434C314.35 579.63 318.187 582.188 322.343 584.105C326.656 586.025 331.053 587.464 335.528 588.421C340.162 589.381 344.797 589.86 349.432 589.86C354.066 589.86 358.62 589.381 363.095 588.421C367.73 587.464 372.124 586.025 376.28 584.105C380.596 582.188 384.43 579.63 387.788 576.434C391.304 573.078 393.221 568.922 393.54 563.969V484.859C393.54 480.384 395.138 476.707 398.337 473.83C401.693 470.793 405.608 469.276 410.083 469.276C419.672 470.076 424.945 475.268 425.904 484.859V561.332V571.402C425.426 580.03 422.308 587.464 416.554 593.696C410.962 599.929 404.489 604.962 397.136 608.799C389.784 612.473 382.034 615.272 373.884 617.189C365.891 619.106 357.741 620.066 349.432 620.066ZM473.85 469.276C478.325 469.276 482.162 470.793 485.358 473.83C488.554 476.707 490.231 480.384 490.393 484.859V542.634C490.231 549.186 490.631 555.259 491.591 560.853C492.71 566.286 495.265 571.161 499.262 575.477C503.256 579.792 508.291 582.11 514.364 582.429H591.077C595.552 582.588 599.227 584.265 602.104 587.464C605.141 590.66 606.66 594.494 606.66 598.969C606.501 603.285 604.903 606.96 601.866 609.996C598.989 612.873 595.393 614.393 591.077 614.553H506.214C495.027 613.912 485.758 610.156 478.406 603.285C471.213 596.252 466.019 587.702 462.822 577.635C459.786 567.565 458.188 556.857 458.028 545.511V484.859C458.188 480.544 459.786 476.948 462.822 474.07C465.859 471.034 469.534 469.436 473.85 469.276ZM684.093 505.234C678.02 505.556 672.906 507.873 668.75 512.186C664.754 516.502 661.877 521.458 660.119 527.05C658.361 532.485 657.483 538.078 657.483 543.832C657.483 549.586 658.28 555.259 659.881 560.853C661.639 566.445 664.594 571.402 668.75 575.715C672.906 579.871 678.02 582.11 684.093 582.429H763.202C773.272 583.386 778.785 588.9 779.745 598.969C779.585 603.445 777.906 607.2 774.71 610.237C771.514 613.114 767.677 614.553 763.202 614.553H686.729H675.702C664.516 613.912 655.325 609.677 648.132 601.846C640.942 593.856 635.748 584.825 632.551 574.758C629.515 564.688 627.995 554.38 627.995 543.832C627.995 536.001 628.874 528.248 630.632 520.577C632.392 512.906 635.107 505.635 638.784 498.764C642.619 491.73 647.653 485.738 653.886 480.784C660.279 475.828 667.552 473.273 675.702 473.113H680.256H763.202C773.272 474.07 778.785 479.584 779.745 489.654C779.745 494.129 778.066 497.885 774.71 500.921C771.514 503.798 767.677 505.234 763.202 505.234H684.093Z" fill="url(#paint28_linear_1_2)"/>
<path d="M349.432 620.066C341.12 620.066 332.889 619.106 324.739 617.189C316.748 615.272 309.077 612.473 301.725 608.799C294.373 604.962 287.902 599.929 282.307 593.696C276.713 587.464 273.676 580.03 273.197 571.402V561.332V484.859C273.197 480.384 274.795 476.707 277.992 473.83C281.347 470.793 285.263 469.276 289.738 469.276C299.329 470.076 304.521 475.268 305.321 484.859V563.969C305.64 568.922 307.479 573.078 310.835 576.434C314.35 579.63 318.187 582.188 322.343 584.105C326.656 586.025 331.053 587.464 335.528 588.421C340.162 589.381 344.797 589.86 349.432 589.86C354.066 589.86 358.62 589.381 363.095 588.421C367.73 587.464 372.124 586.025 376.28 584.105C380.596 582.188 384.43 579.63 387.788 576.434C391.304 573.078 393.221 568.922 393.54 563.969V484.859C393.54 480.384 395.138 476.707 398.337 473.83C401.693 470.793 405.608 469.276 410.083 469.276C419.672 470.076 424.945 475.268 425.904 484.859V561.332V571.402C425.426 580.03 422.308 587.464 416.554 593.696C410.962 599.929 404.489 604.962 397.136 608.799C389.784 612.473 382.034 615.272 373.884 617.189C365.891 619.106 357.741 620.066 349.432 620.066ZM473.85 469.276C478.325 469.276 482.162 470.793 485.358 473.83C488.554 476.707 490.231 480.384 490.393 484.859V542.634C490.231 549.186 490.631 555.259 491.591 560.853C492.71 566.286 495.265 571.161 499.262 575.477C503.256 579.792 508.291 582.11 514.364 582.429H591.077C595.552 582.588 599.227 584.265 602.104 587.464C605.141 590.66 606.66 594.494 606.66 598.969C606.501 603.285 604.903 606.96 601.866 609.996C598.989 612.873 595.393 614.393 591.077 614.553H506.214C495.027 613.912 485.758 610.156 478.406 603.285C471.213 596.252 466.019 587.702 462.822 577.635C459.786 567.565 458.188 556.857 458.028 545.511V484.859C458.188 480.544 459.786 476.948 462.822 474.07C465.859 471.034 469.534 469.436 473.85 469.276ZM684.093 505.234C678.02 505.556 672.906 507.873 668.75 512.186C664.754 516.502 661.877 521.458 660.119 527.05C658.361 532.485 657.483 538.078 657.483 543.832C657.483 549.586 658.28 555.259 659.881 560.853C661.639 566.445 664.594 571.402 668.75 575.715C672.906 579.871 678.02 582.11 684.093 582.429H763.202C773.272 583.386 778.785 588.9 779.745 598.969C779.585 603.445 777.906 607.2 774.71 610.237C771.514 613.114 767.677 614.553 763.202 614.553H686.729H675.702C664.516 613.912 655.325 609.677 648.132 601.846C640.942 593.856 635.748 584.825 632.551 574.758C629.515 564.688 627.995 554.38 627.995 543.832C627.995 536.001 628.874 528.248 630.632 520.577C632.392 512.906 635.107 505.635 638.784 498.764C642.619 491.73 647.653 485.738 653.886 480.784C660.279 475.828 667.552 473.273 675.702 473.113H680.256H763.202C773.272 474.07 778.785 479.584 779.745 489.654C779.745 494.129 778.066 497.885 774.71 500.921C771.514 503.798 767.677 505.234 763.202 505.234H684.093Z" fill="url(#paint29_linear_1_2)"/>
<path d="M349.432 621.048C341.12 621.048 332.889 620.088 324.739 618.171C316.748 616.254 309.077 613.455 301.725 609.78C294.373 605.944 287.902 600.911 282.307 594.678C276.713 588.446 273.676 581.012 273.197 572.384V562.314V485.841C273.197 481.366 274.795 477.689 277.992 474.812C281.347 471.775 285.263 470.258 289.738 470.258C299.329 471.058 304.521 476.25 305.321 485.841V564.95C305.64 569.904 307.479 574.06 310.835 577.416C314.35 580.612 318.187 583.17 322.343 585.087C326.656 587.007 331.053 588.446 335.528 589.403C340.162 590.363 344.797 590.841 349.432 590.841C354.066 590.841 358.62 590.363 363.095 589.403C367.73 588.446 372.124 587.007 376.28 585.087C380.596 583.17 384.43 580.612 387.788 577.416C391.304 574.06 393.221 569.904 393.54 564.95V485.841C393.54 481.366 395.138 477.689 398.337 474.812C401.693 471.775 405.608 470.258 410.083 470.258C419.672 471.058 424.945 476.25 425.904 485.841V562.314V572.384C425.426 581.012 422.308 588.446 416.554 594.678C410.962 600.911 404.489 605.944 397.136 609.78C389.784 613.455 382.034 616.254 373.884 618.171C365.891 620.088 357.741 621.048 349.432 621.048ZM473.85 470.258C478.325 470.258 482.162 471.775 485.358 474.812C488.554 477.689 490.231 481.366 490.393 485.841V543.616C490.231 550.167 490.631 556.241 491.591 561.835C492.71 567.268 495.265 572.143 499.262 576.459C503.256 580.774 508.291 583.092 514.364 583.411H591.077C595.552 583.57 599.227 585.247 602.104 588.446C605.141 591.642 606.66 595.476 606.66 599.951C606.501 604.267 604.903 607.942 601.866 610.978C598.989 613.855 595.393 615.375 591.077 615.535H506.214C495.027 614.894 485.758 611.138 478.406 604.267C471.213 597.234 466.019 588.684 462.822 578.616C459.786 568.547 458.188 557.839 458.028 546.493V485.841C458.188 481.526 459.786 477.929 462.822 475.052C465.859 472.016 469.534 470.418 473.85 470.258ZM684.093 506.216C678.02 506.538 672.906 508.855 668.75 513.168C664.754 517.484 661.877 522.44 660.119 528.032C658.361 533.467 657.483 539.059 657.483 544.814C657.483 550.568 658.28 556.241 659.881 561.835C661.639 567.427 664.594 572.384 668.75 576.697C672.906 580.853 678.02 583.092 684.093 583.411H763.202C773.272 584.368 778.785 589.882 779.745 599.951C779.585 604.426 777.906 608.182 774.71 611.219C771.514 614.096 767.677 615.535 763.202 615.535H686.729H675.702C664.516 614.894 655.325 610.659 648.132 602.828C640.942 594.838 635.748 585.807 632.551 575.739C629.515 565.67 627.995 555.362 627.995 544.814C627.995 536.983 628.874 529.23 630.632 521.559C632.392 513.888 635.107 506.616 638.784 499.745C642.619 492.712 647.653 486.72 653.886 481.766C660.279 476.81 667.552 474.255 675.702 474.095H680.256H763.202C773.272 475.052 778.785 480.566 779.745 490.636C779.745 495.111 778.066 498.867 774.71 501.903C771.514 504.78 767.677 506.216 763.202 506.216H684.093Z" fill="url(#paint30_linear_1_2)"/>
<path d="M349.432 615.156C341.12 615.156 332.889 614.197 324.739 612.279C316.748 610.362 309.077 607.564 301.725 603.889C294.373 600.052 287.902 595.02 282.307 588.787C276.713 582.554 273.676 575.121 273.197 566.492V556.422V479.95C273.197 475.475 274.795 471.797 277.992 468.92C281.347 465.884 285.263 464.367 289.738 464.367C299.329 465.167 304.521 470.359 305.321 479.95V559.059C305.64 564.013 307.479 568.169 310.835 571.524C314.35 574.721 318.187 577.279 322.343 579.196C326.656 581.115 331.053 582.554 335.528 583.511C340.162 584.471 344.797 584.95 349.432 584.95C354.066 584.95 358.62 584.471 363.095 583.511C367.73 582.554 372.124 581.115 376.28 579.196C380.596 577.279 384.43 574.721 387.788 571.524C391.304 568.169 393.221 564.013 393.54 559.059V479.95C393.54 475.475 395.138 471.797 398.337 468.92C401.693 465.884 405.608 464.367 410.083 464.367C419.672 465.167 424.945 470.359 425.904 479.95V556.422V566.492C425.426 575.121 422.308 582.554 416.554 588.787C410.962 595.02 404.489 600.052 397.136 603.889C389.784 607.564 382.034 610.362 373.884 612.279C365.891 614.197 357.741 615.156 349.432 615.156ZM473.85 464.367C478.325 464.367 482.162 465.884 485.358 468.92C488.554 471.797 490.231 475.475 490.393 479.95V537.724C490.231 544.276 490.631 550.349 491.591 555.944C492.71 561.376 495.265 566.252 499.262 570.567C503.256 574.883 508.291 577.2 514.364 577.519H591.077C595.552 577.679 599.227 579.355 602.104 582.554C605.141 585.75 606.66 589.585 606.66 594.06C606.501 598.375 604.903 602.05 601.866 605.087C598.989 607.964 595.393 609.483 591.077 609.643H506.214C495.027 609.002 485.758 605.246 478.406 598.375C471.213 591.342 466.019 582.792 462.822 572.725C459.786 562.655 458.188 551.947 458.028 540.601V479.95C458.188 475.634 459.786 472.038 462.822 469.161C465.859 466.124 469.534 464.526 473.85 464.367ZM684.093 500.325C678.02 500.646 672.906 502.964 668.75 507.277C664.754 511.592 661.877 516.549 660.119 522.141C658.361 527.576 657.483 533.168 657.483 538.922C657.483 544.676 658.28 550.349 659.881 555.944C661.639 561.536 664.594 566.492 668.75 570.805C672.906 574.961 678.02 577.2 684.093 577.519H763.202C773.272 578.477 778.785 583.99 779.745 594.06C779.585 598.535 777.906 602.291 774.71 605.327C771.514 608.204 767.677 609.643 763.202 609.643H686.729H675.702C664.516 609.002 655.325 604.768 648.132 596.937C640.942 588.946 635.748 579.915 632.551 569.848C629.515 559.778 627.995 549.47 627.995 538.922C627.995 531.091 628.874 523.339 630.632 515.667C632.392 507.996 635.107 500.725 638.784 493.854C642.619 486.821 647.653 480.829 653.886 475.875C660.279 470.919 667.552 468.363 675.702 468.203H680.256H763.202C773.272 469.161 778.785 474.674 779.745 484.744C779.745 489.219 778.066 492.975 774.71 496.012C771.514 498.889 767.677 500.325 763.202 500.325H684.093Z" fill="#C8D9D9"/>
</g>
<defs>
<filter id="filter0_d_1_2" x="-161.293" y="-161.293" width="1368.54" height="1368.54" filterUnits="userSpaceOnUse" color-interpolation-filters="sRGB">
<feFlood flood-opacity="0" result="BackgroundImageFix"/>
<feColorMatrix in="SourceAlpha" type="matrix" values="0 0 0 0 0 0 0 0 0 0 0 0 0 0 0 0 0 0 127 0" result="hardAlpha"/>
<feOffset/>
<feGaussianBlur stdDeviation="121.2"/>
<feComposite in2="hardAlpha" operator="out"/>
<feColorMatrix type="matrix" values="0 0 0 0 0 0 0 0 0 0 0 0 0 0 0 0 0 0 0.25 0"/>
<feBlend mode="normal" in2="BackgroundImageFix" result="effect1_dropShadow_1_2"/>
<feBlend mode="normal" in="SourceGraphic" in2="effect1_dropShadow_1_2" result="shape"/>
</filter>
<filter id="filter1_d_1_2" x="21.44" y="28.6026" width="1003.07" height="1020.75" filterUnits="userSpaceOnUse" color-interpolation-filters="sRGB">
<feFlood flood-opacity="0" result="BackgroundImageFix"/>
<feColorMatrix in="SourceAlpha" type="matrix" values="0 0 0 0 0 0 0 0 0 0 0 0 0 0 0 0 0 0 127 0" result="hardAlpha"/>
<feOffset dy="16"/>
<feGaussianBlur stdDeviation="53.4"/>
<feComposite in2="hardAlpha" operator="out"/>
<feColorMatrix type="matrix" values="0 0 0 0 0 0 0 0 0 0 0 0 0 0 0 0 0 0 0.25 0"/>
<feBlend mode="normal" in2="BackgroundImageFix" result="effect1_dropShadow_1_2"/>
<feBlend mode="normal" in="SourceGraphic" in2="effect1_dropShadow_1_2" result="shape"/>
</filter>
<filter id="filter2_d_1_2" x="259.879" y="466.33" width="535.148" height="195.09" filterUnits="userSpaceOnUse" color-interpolation-filters="sRGB">
<feFlood flood-opacity="0" result="BackgroundImageFix"/>
<feColorMatrix in="SourceAlpha" type="matrix" values="0 0 0 0 0 0 0 0 0 0 0 0 0 0 0 0 0 0 127 0" result="hardAlpha"/>
<feOffset dy="30"/>
<feGaussianBlur stdDeviation="7.15"/>
<feComposite in2="hardAlpha" operator="out"/>
<feColorMatrix type="matrix" values="0 0 0 0 0 0 0 0 0 0 0 0 0 0 0 0 0 0 0.25 0"/>
<feBlend mode="normal" in2="BackgroundImageFix" result="effect1_dropShadow_1_2"/>
<feBlend mode="normal" in="SourceGraphic" in2="effect1_dropShadow_1_2" result="shape"/>
</filter>
<linearGradient id="paint0_linear_1_2" x1="921.148" y1="232.815" x2="142.969" y2="821.482" gradientUnits="userSpaceOnUse">
<stop stop-color="#5EE1F5"/>
<stop offset="0.341346" stop-color="#43D7CA"/>
<stop offset="0.668269" stop-color="#1AB087"/>
<stop offset="1" stop-color="#126E55"/>
</linearGradient>
<linearGradient id="paint1_linear_1_2" x1="261.831" y1="881.33" x2="791.631" y2="180.97" gradientUnits="userSpaceOnUse">
<stop stop-color="#5EE1F5"/>
<stop offset="0.341346" stop-color="#43D7CA"/>
<stop offset="0.668269" stop-color="#1AB087"/>
<stop offset="1" stop-color="#126E55"/>
</linearGradient>
<linearGradient id="paint2_linear_1_2" x1="260.8" y1="821.973" x2="779.75" y2="222.014" gradientUnits="userSpaceOnUse">
<stop stop-color="#504F4F"/>
<stop offset="1" stop-color="#818181"/>
</linearGradient>
<linearGradient id="paint3_linear_1_2" x1="523.344" y1="401.216" x2="523.344" y2="646.698" gradientUnits="userSpaceOnUse">
<stop stop-color="#58DFEB"/>
<stop offset="1" stop-color="#158A6B"/>
</linearGradient>
<linearGradient id="paint4_linear_1_2" x1="522.362" y1="403.18" x2="522.362" y2="648.662" gradientUnits="userSpaceOnUse">
<stop stop-color="#58DFEB"/>
<stop offset="1" stop-color="#158A6B"/>
</linearGradient>
<linearGradient id="paint5_linear_1_2" x1="522.362" y1="403.18" x2="522.362" y2="648.662" gradientUnits="userSpaceOnUse">
<stop stop-color="#58DFEB"/>
<stop offset="1" stop-color="#158A6B"/>
</linearGradient>
<linearGradient id="paint6_linear_1_2" x1="522.362" y1="404.162" x2="522.362" y2="649.644" gradientUnits="userSpaceOnUse">
<stop stop-color="#58DFEB"/>
<stop offset="1" stop-color="#158A6B"/>
</linearGradient>
<linearGradient id="paint7_linear_1_2" x1="523.344" y1="408.09" x2="523.344" y2="653.572" gradientUnits="userSpaceOnUse">
<stop stop-color="#58DFEB"/>
<stop offset="1" stop-color="#158A6B"/>
</linearGradient>
<linearGradient id="paint8_linear_1_2" x1="522.362" y1="409.072" x2="522.362" y2="654.554" gradientUnits="userSpaceOnUse">
<stop stop-color="#58DFEB"/>
<stop offset="1" stop-color="#158A6B"/>
</linearGradient>
<linearGradient id="paint9_linear_1_2" x1="522.362" y1="409.072" x2="522.362" y2="654.554" gradientUnits="userSpaceOnUse">
<stop stop-color="#58DFEB"/>
<stop offset="1" stop-color="#158A6B"/>
</linearGradient>
<linearGradient id="paint10_linear_1_2" x1="522.362" y1="410.054" x2="522.362" y2="655.536" gradientUnits="userSpaceOnUse">
<stop stop-color="#58DFEB"/>
<stop offset="1" stop-color="#158A6B"/>
</linearGradient>
<linearGradient id="paint11_linear_1_2" x1="523.344" y1="407.108" x2="523.344" y2="652.59" gradientUnits="userSpaceOnUse">
<stop stop-color="#58DFEB"/>
<stop offset="1" stop-color="#158A6B"/>
</linearGradient>
<linearGradient id="paint12_linear_1_2" x1="522.362" y1="408.09" x2="522.362" y2="653.572" gradientUnits="userSpaceOnUse">
<stop stop-color="#58DFEB"/>
<stop offset="1" stop-color="#158A6B"/>
</linearGradient>
<linearGradient id="paint13_linear_1_2" x1="522.362" y1="408.09" x2="522.362" y2="653.572" gradientUnits="userSpaceOnUse">
<stop stop-color="#58DFEB"/>
<stop offset="1" stop-color="#158A6B"/>
</linearGradient>
<linearGradient id="paint14_linear_1_2" x1="522.362" y1="409.072" x2="522.362" y2="654.554" gradientUnits="userSpaceOnUse">
<stop stop-color="#58DFEB"/>
<stop offset="1" stop-color="#158A6B"/>
</linearGradient>
<linearGradient id="paint15_linear_1_2" x1="523.344" y1="406.126" x2="523.344" y2="651.608" gradientUnits="userSpaceOnUse">
<stop stop-color="#58DFEB"/>
<stop offset="1" stop-color="#158A6B"/>
</linearGradient>
<linearGradient id="paint16_linear_1_2" x1="522.362" y1="407.108" x2="522.362" y2="652.59" gradientUnits="userSpaceOnUse">
<stop stop-color="#58DFEB"/>
<stop offset="1" stop-color="#158A6B"/>
</linearGradient>
<linearGradient id="paint17_linear_1_2" x1="522.362" y1="407.108" x2="522.362" y2="652.59" gradientUnits="userSpaceOnUse">
<stop stop-color="#58DFEB"/>
<stop offset="1" stop-color="#158A6B"/>
</linearGradient>
<linearGradient id="paint18_linear_1_2" x1="522.362" y1="408.09" x2="522.362" y2="653.572" gradientUnits="userSpaceOnUse">
<stop stop-color="#58DFEB"/>
<stop offset="1" stop-color="#158A6B"/>
</linearGradient>
<linearGradient id="paint19_linear_1_2" x1="523.344" y1="405.144" x2="523.344" y2="650.626" gradientUnits="userSpaceOnUse">
<stop stop-color="#58DFEB"/>
<stop offset="1" stop-color="#158A6B"/>
</linearGradient>
<linearGradient id="paint20_linear_1_2" x1="522.362" y1="406.126" x2="522.362" y2="651.608" gradientUnits="userSpaceOnUse">
<stop stop-color="#58DFEB"/>
<stop offset="1" stop-color="#158A6B"/>
</linearGradient>
<linearGradient id="paint21_linear_1_2" x1="522.362" y1="406.126" x2="522.362" y2="651.608" gradientUnits="userSpaceOnUse">
<stop stop-color="#58DFEB"/>
<stop offset="1" stop-color="#158A6B"/>
</linearGradient>
<linearGradient id="paint22_linear_1_2" x1="522.362" y1="407.108" x2="522.362" y2="652.59" gradientUnits="userSpaceOnUse">
<stop stop-color="#58DFEB"/>
<stop offset="1" stop-color="#158A6B"/>
</linearGradient>
<linearGradient id="paint23_linear_1_2" x1="523.344" y1="404.162" x2="523.344" y2="649.644" gradientUnits="userSpaceOnUse">
<stop stop-color="#58DFEB"/>
<stop offset="1" stop-color="#158A6B"/>
</linearGradient>
<linearGradient id="paint24_linear_1_2" x1="522.362" y1="405.144" x2="522.362" y2="650.626" gradientUnits="userSpaceOnUse">
<stop stop-color="#58DFEB"/>
<stop offset="1" stop-color="#158A6B"/>
</linearGradient>
<linearGradient id="paint25_linear_1_2" x1="522.362" y1="405.144" x2="522.362" y2="650.626" gradientUnits="userSpaceOnUse">
<stop stop-color="#58DFEB"/>
<stop offset="1" stop-color="#158A6B"/>
</linearGradient>
<linearGradient id="paint26_linear_1_2" x1="522.362" y1="406.126" x2="522.362" y2="651.608" gradientUnits="userSpaceOnUse">
<stop stop-color="#58DFEB"/>
<stop offset="1" stop-color="#158A6B"/>
</linearGradient>
<linearGradient id="paint27_linear_1_2" x1="523.344" y1="403.18" x2="523.344" y2="648.662" gradientUnits="userSpaceOnUse">
<stop stop-color="#58DFEB"/>
<stop offset="1" stop-color="#158A6B"/>
</linearGradient>
<linearGradient id="paint28_linear_1_2" x1="522.362" y1="404.162" x2="522.362" y2="649.644" gradientUnits="userSpaceOnUse">
<stop stop-color="#58DFEB"/>
<stop offset="1" stop-color="#158A6B"/>
</linearGradient>
<linearGradient id="paint29_linear_1_2" x1="522.362" y1="404.162" x2="522.362" y2="649.644" gradientUnits="userSpaceOnUse">
<stop stop-color="#58DFEB"/>
<stop offset="1" stop-color="#158A6B"/>
</linearGradient>
<linearGradient id="paint30_linear_1_2" x1="522.362" y1="405.144" x2="522.362" y2="650.626" gradientUnits="userSpaceOnUse">
<stop stop-color="#58DFEB"/>
<stop offset="1" stop-color="#158A6B"/>
</linearGradient>
<clipPath id="clip0_1_2">
<rect width="1046" height="1046" fill="white"/>
</clipPath>
</defs>
</svg>
