<svg width="1096" height="1089" viewBox="0 0 1096 1089" fill="none" xmlns="http://www.w3.org/2000/svg">
<path d="M1091 544.5C1091 246.542 847.891 5 548 5C248.109 5 5 246.542 5 544.5C5 842.458 248.109 1084 548 1084C847.891 1084 1091 842.458 1091 544.5Z" fill="white"/>
<path d="M548 1084C847.891 1084 1091 842.458 1091 544.5C1091 246.542 847.891 5 548 5C248.109 5 5 246.542 5 544.5C5 842.458 248.109 1084 548 1084Z" fill="url(#paint0_linear_7_7)"/>
<path d="M1036.42 544.834C1036.42 812.728 817.557 1029.9 547.58 1029.9C277.604 1029.9 58.7454 812.728 58.7454 544.834C58.7454 276.94 277.604 59.7691 547.58 59.7691C817.557 59.7691 1036.42 276.94 1036.42 544.834Z" fill="url(#paint1_linear_7_7)"/>
<path d="M547.58 987.86C788.759 987.86 984.273 789.511 984.273 544.834C984.273 300.158 788.759 101.808 547.58 101.808C306.402 101.808 110.888 300.158 110.888 544.834C110.888 789.511 306.402 987.86 547.58 987.86Z" fill="url(#paint2_linear_7_7)"/>
<path d="M356.677 648.183C347.481 648.183 338.376 647.129 329.359 645.024C320.519 642.92 312.033 639.848 303.899 635.814C295.765 631.602 288.607 626.077 282.418 619.235C276.228 612.393 272.869 604.233 272.339 594.761V583.707V499.758C272.339 494.846 274.107 490.809 277.643 487.65C281.356 484.317 285.687 482.652 290.638 482.652C301.249 483.53 306.992 489.23 307.878 499.758V586.601C308.231 592.039 310.265 596.601 313.977 600.285C317.866 603.794 322.111 606.602 326.709 608.707C331.48 610.814 336.344 612.393 341.295 613.444C346.422 614.498 351.55 615.023 356.677 615.023C361.804 615.023 366.842 614.498 371.793 613.444C376.92 612.393 381.781 610.814 386.379 608.707C391.153 606.602 395.395 603.794 399.111 600.285C403 596.601 405.121 592.039 405.474 586.601V499.758C405.474 494.846 407.242 490.809 410.78 487.65C414.493 484.317 418.824 482.652 423.775 482.652C434.383 483.53 440.216 489.23 441.278 499.758V583.707V594.761C440.748 604.233 437.299 612.393 430.934 619.235C424.747 626.077 417.586 631.602 409.452 635.814C401.318 639.848 392.745 642.92 383.729 645.024C374.886 647.129 365.87 648.183 356.677 648.183ZM494.319 482.652C499.27 482.652 503.515 484.317 507.051 487.65C510.587 490.809 512.442 494.846 512.621 499.758V563.18C512.442 570.373 512.884 577.04 513.946 583.181C515.184 589.145 518.012 594.497 522.433 599.234C526.851 603.972 532.421 606.516 539.14 606.866H624.007C628.958 607.041 633.024 608.882 636.206 612.393C639.566 615.902 641.247 620.111 641.247 625.024C641.07 629.761 639.302 633.795 635.943 637.129C632.76 640.287 628.782 641.955 624.007 642.13H530.124C517.748 641.427 507.493 637.304 499.36 629.761C491.403 622.04 485.656 612.654 482.12 601.603C478.761 590.549 476.993 578.794 476.816 566.339V499.758C476.993 495.021 478.761 491.073 482.12 487.915C485.48 484.581 489.545 482.827 494.319 482.652ZM726.91 522.125C720.191 522.478 714.534 525.022 709.936 529.757C705.515 534.494 702.332 539.935 700.388 546.074C698.443 552.04 697.471 558.179 697.471 564.496C697.471 570.812 698.354 577.04 700.124 583.181C702.069 589.32 705.339 594.761 709.936 599.496C714.534 604.058 720.191 606.516 726.91 606.866H814.428C825.568 607.917 831.667 613.969 832.729 625.024C832.552 629.936 830.695 634.059 827.159 637.393C823.623 640.551 819.378 642.13 814.428 642.13H729.826H717.627C705.252 641.427 695.084 636.778 687.127 628.182C679.172 619.41 673.426 609.496 669.89 598.445C666.531 587.391 664.849 576.075 664.849 564.496C664.849 555.899 665.822 547.389 667.766 538.968C669.713 530.546 672.717 522.564 676.785 515.022C681.027 507.301 686.597 500.723 693.492 495.285C700.564 489.844 708.611 487.039 717.627 486.864H722.665H814.428C825.568 487.915 831.667 493.967 832.729 505.021C832.729 509.934 830.871 514.057 827.159 517.39C823.623 520.549 819.378 522.125 814.428 522.125H726.91Z" fill="url(#paint3_linear_7_7)"/>
<path d="M355.279 651C346.09 651 336.99 649.943 327.98 647.833C319.147 645.722 310.666 642.641 302.538 638.596C294.41 634.372 287.256 628.832 281.071 621.97C274.886 615.109 271.529 606.926 271 597.427V586.341V502.155C271 497.229 272.767 493.18 276.3 490.013C280.01 486.67 284.339 485 289.286 485C299.889 485.881 305.629 491.597 306.514 502.155V589.244C306.866 594.697 308.899 599.273 312.609 602.967C316.495 606.485 320.737 609.301 325.332 611.412C330.1 613.525 334.96 615.109 339.908 616.163C345.031 617.22 350.155 617.747 355.279 617.747C360.403 617.747 365.437 617.22 370.384 616.163C375.508 615.109 380.366 613.525 384.96 611.412C389.731 609.301 393.97 606.485 397.683 602.967C401.569 599.273 403.689 594.697 404.042 589.244V502.155C404.042 497.229 405.808 493.18 409.345 490.013C413.054 486.67 417.383 485 422.33 485C432.931 485.881 438.76 491.597 439.821 502.155V586.341V597.427C439.292 606.926 435.845 615.109 429.484 621.97C423.302 628.832 416.145 634.372 408.017 638.596C399.889 642.641 391.322 645.722 382.312 647.833C373.475 649.943 364.465 651 355.279 651ZM492.826 485C497.773 485 502.015 486.67 505.548 490.013C509.082 493.18 510.935 497.229 511.114 502.155V565.757C510.935 572.97 511.378 579.656 512.439 585.814C513.676 591.795 516.501 597.162 520.92 601.913C525.335 606.664 530.901 609.215 537.615 609.566H622.423C627.371 609.742 631.433 611.588 634.614 615.109C637.971 618.628 639.651 622.849 639.651 627.775C639.475 632.526 637.708 636.572 634.351 639.915C631.17 643.082 627.194 644.755 622.423 644.93H528.605C516.238 644.225 505.991 640.09 497.863 632.526C489.911 624.784 484.168 615.371 480.635 604.288C477.278 593.203 475.511 581.415 475.335 568.924V502.155C475.511 497.404 477.278 493.445 480.635 490.278C483.992 486.935 488.055 485.176 492.826 485ZM725.254 524.585C718.54 524.939 712.887 527.49 708.293 532.239C703.875 536.99 700.694 542.446 698.751 548.602C696.808 554.585 695.836 560.741 695.836 567.076C695.836 573.41 696.718 579.656 698.488 585.814C700.431 591.971 703.698 597.427 708.293 602.175C712.887 606.75 718.54 609.215 725.254 609.566H812.711C823.844 610.62 829.939 616.69 831 627.775C830.824 632.702 828.967 636.837 825.434 640.179C821.9 643.347 817.659 644.93 812.711 644.93H728.169H715.978C703.611 644.225 693.451 639.563 685.499 630.943C677.55 622.146 671.808 612.204 668.274 601.121C664.917 590.036 663.237 578.688 663.237 567.076C663.237 558.455 664.209 549.921 666.152 541.476C668.098 533.03 671.099 525.026 675.165 517.462C679.404 509.719 684.97 503.123 691.86 497.669C698.927 492.213 706.968 489.4 715.978 489.224H721.013H812.711C823.844 490.278 829.939 496.348 831 507.433C831 512.359 829.144 516.494 825.434 519.837C821.9 523.004 817.659 524.585 812.711 524.585H725.254Z" fill="url(#paint4_linear_7_7)"/>
<path d="M355.279 651C346.09 651 336.99 649.943 327.98 647.833C319.147 645.722 310.666 642.641 302.538 638.596C294.41 634.372 287.256 628.832 281.071 621.97C274.886 615.109 271.529 606.926 271 597.427V586.341V502.155C271 497.229 272.767 493.18 276.3 490.013C280.01 486.67 284.339 485 289.286 485C299.889 485.881 305.629 491.597 306.514 502.155V589.244C306.866 594.697 308.899 599.273 312.609 602.967C316.495 606.485 320.737 609.301 325.332 611.412C330.1 613.525 334.96 615.109 339.908 616.163C345.031 617.22 350.155 617.747 355.279 617.747C360.403 617.747 365.437 617.22 370.384 616.163C375.508 615.109 380.366 613.525 384.96 611.412C389.731 609.301 393.97 606.485 397.683 602.967C401.569 599.273 403.689 594.697 404.042 589.244V502.155C404.042 497.229 405.808 493.18 409.345 490.013C413.054 486.67 417.383 485 422.33 485C432.931 485.881 438.76 491.597 439.821 502.155V586.341V597.427C439.292 606.926 435.845 615.109 429.484 621.97C423.302 628.832 416.145 634.372 408.017 638.596C399.889 642.641 391.322 645.722 382.312 647.833C373.475 649.943 364.465 651 355.279 651ZM492.826 485C497.773 485 502.015 486.67 505.548 490.013C509.082 493.18 510.935 497.229 511.114 502.155V565.757C510.935 572.97 511.378 579.656 512.439 585.814C513.676 591.795 516.501 597.162 520.92 601.913C525.335 606.664 530.901 609.215 537.615 609.566H622.423C627.371 609.742 631.433 611.588 634.614 615.109C637.971 618.628 639.651 622.849 639.651 627.775C639.475 632.526 637.708 636.572 634.351 639.915C631.17 643.082 627.194 644.755 622.423 644.93H528.605C516.238 644.225 505.991 640.09 497.863 632.526C489.911 624.784 484.168 615.371 480.635 604.288C477.278 593.203 475.511 581.415 475.335 568.924V502.155C475.511 497.404 477.278 493.445 480.635 490.278C483.992 486.935 488.055 485.176 492.826 485ZM725.254 524.585C718.54 524.939 712.887 527.49 708.293 532.239C703.875 536.99 700.694 542.446 698.751 548.602C696.808 554.585 695.836 560.741 695.836 567.076C695.836 573.41 696.718 579.656 698.488 585.814C700.431 591.971 703.698 597.427 708.293 602.175C712.887 606.75 718.54 609.215 725.254 609.566H812.711C823.844 610.62 829.939 616.69 831 627.775C830.824 632.702 828.967 636.837 825.434 640.179C821.9 643.347 817.659 644.93 812.711 644.93H728.169H715.978C703.611 644.225 693.451 639.563 685.499 630.943C677.55 622.146 671.808 612.204 668.274 601.121C664.917 590.036 663.237 578.688 663.237 567.076C663.237 558.455 664.209 549.921 666.152 541.476C668.098 533.03 671.099 525.026 675.165 517.462C679.404 509.719 684.97 503.123 691.86 497.669C698.927 492.213 706.968 489.4 715.978 489.224H721.013H812.711C823.844 490.278 829.939 496.348 831 507.433C831 512.359 829.144 516.494 825.434 519.837C821.9 523.004 817.659 524.585 812.711 524.585H725.254Z" fill="url(#paint5_linear_7_7)"/>
<path d="M355.279 652C346.09 652 336.99 650.943 327.98 648.833C319.147 646.722 310.666 643.641 302.538 639.596C294.41 635.372 287.256 629.832 281.071 622.97C274.886 616.109 271.529 607.926 271 598.427V587.341V503.155C271 498.229 272.767 494.18 276.3 491.013C280.01 487.67 284.339 486 289.286 486C299.889 486.881 305.629 492.597 306.514 503.155V590.244C306.866 595.697 308.899 600.273 312.609 603.967C316.495 607.485 320.737 610.301 325.332 612.412C330.1 614.525 334.96 616.109 339.908 617.163C345.031 618.22 350.155 618.747 355.279 618.747C360.403 618.747 365.437 618.22 370.384 617.163C375.508 616.109 380.366 614.525 384.96 612.412C389.731 610.301 393.97 607.485 397.683 603.967C401.569 600.273 403.689 595.697 404.042 590.244V503.155C404.042 498.229 405.808 494.18 409.345 491.013C413.054 487.67 417.383 486 422.33 486C432.931 486.881 438.76 492.597 439.821 503.155V587.341V598.427C439.292 607.926 435.845 616.109 429.484 622.97C423.302 629.832 416.145 635.372 408.017 639.596C399.889 643.641 391.322 646.722 382.312 648.833C373.475 650.943 364.465 652 355.279 652ZM492.826 486C497.773 486 502.015 487.67 505.548 491.013C509.082 494.18 510.935 498.229 511.114 503.155V566.757C510.935 573.97 511.378 580.656 512.439 586.814C513.676 592.795 516.501 598.162 520.92 602.913C525.335 607.664 530.901 610.215 537.615 610.566H622.423C627.371 610.742 631.433 612.588 634.614 616.109C637.971 619.628 639.651 623.849 639.651 628.775C639.475 633.526 637.708 637.572 634.351 640.915C631.17 644.082 627.194 645.755 622.423 645.93H528.605C516.238 645.225 505.991 641.09 497.863 633.526C489.911 625.784 484.168 616.371 480.635 605.288C477.278 594.203 475.511 582.415 475.335 569.924V503.155C475.511 498.404 477.278 494.445 480.635 491.278C483.992 487.935 488.055 486.176 492.826 486ZM725.254 525.585C718.54 525.939 712.887 528.49 708.293 533.239C703.875 537.99 700.694 543.446 698.751 549.602C696.808 555.585 695.836 561.741 695.836 568.076C695.836 574.41 696.718 580.656 698.488 586.814C700.431 592.971 703.698 598.427 708.293 603.175C712.887 607.75 718.54 610.215 725.254 610.566H812.711C823.844 611.62 829.939 617.69 831 628.775C830.824 633.702 828.967 637.837 825.434 641.179C821.9 644.347 817.659 645.93 812.711 645.93H728.169H715.978C703.611 645.225 693.451 640.563 685.499 631.943C677.55 623.146 671.808 613.204 668.274 602.121C664.917 591.036 663.237 579.688 663.237 568.076C663.237 559.455 664.209 550.921 666.152 542.476C668.098 534.03 671.099 526.026 675.165 518.462C679.404 510.719 684.97 504.123 691.86 498.669C698.927 493.213 706.968 490.4 715.978 490.224H721.013H812.711C823.844 491.278 829.939 497.348 831 508.433C831 513.359 829.144 517.494 825.434 520.837C821.9 524.004 817.659 525.585 812.711 525.585H725.254Z" fill="url(#paint6_linear_7_7)"/>
<path d="M356.279 656C347.09 656 337.99 654.943 328.98 652.833C320.147 650.722 311.666 647.641 303.538 643.596C295.41 639.372 288.256 633.832 282.071 626.97C275.886 620.109 272.529 611.926 272 602.427V591.341V507.155C272 502.229 273.767 498.18 277.3 495.013C281.01 491.67 285.339 490 290.286 490C300.889 490.881 306.629 496.597 307.514 507.155V594.244C307.866 599.697 309.899 604.273 313.609 607.967C317.495 611.485 321.737 614.301 326.332 616.412C331.1 618.525 335.96 620.109 340.908 621.163C346.031 622.22 351.155 622.747 356.279 622.747C361.403 622.747 366.437 622.22 371.384 621.163C376.508 620.109 381.366 618.525 385.96 616.412C390.731 614.301 394.97 611.485 398.683 607.967C402.569 604.273 404.689 599.697 405.042 594.244V507.155C405.042 502.229 406.808 498.18 410.345 495.013C414.054 491.67 418.383 490 423.33 490C433.931 490.881 439.76 496.597 440.821 507.155V591.341V602.427C440.292 611.926 436.845 620.109 430.484 626.97C424.302 633.832 417.145 639.372 409.017 643.596C400.889 647.641 392.322 650.722 383.312 652.833C374.475 654.943 365.465 656 356.279 656ZM493.826 490C498.773 490 503.015 491.67 506.548 495.013C510.082 498.18 511.935 502.229 512.114 507.155V570.757C511.935 577.97 512.378 584.656 513.439 590.814C514.676 596.795 517.501 602.162 521.92 606.913C526.335 611.664 531.901 614.215 538.615 614.566H623.423C628.371 614.742 632.433 616.588 635.614 620.109C638.971 623.628 640.651 627.849 640.651 632.775C640.475 637.526 638.708 641.572 635.351 644.915C632.17 648.082 628.194 649.755 623.423 649.93H529.605C517.238 649.225 506.991 645.09 498.863 637.526C490.911 629.784 485.168 620.371 481.635 609.288C478.278 598.203 476.511 586.415 476.335 573.924V507.155C476.511 502.404 478.278 498.445 481.635 495.278C484.992 491.935 489.055 490.176 493.826 490ZM726.254 529.585C719.54 529.939 713.887 532.49 709.293 537.239C704.875 541.99 701.694 547.446 699.751 553.602C697.808 559.585 696.836 565.741 696.836 572.076C696.836 578.41 697.718 584.656 699.488 590.814C701.431 596.971 704.698 602.427 709.293 607.175C713.887 611.75 719.54 614.215 726.254 614.566H813.711C824.844 615.62 830.939 621.69 832 632.775C831.824 637.702 829.967 641.837 826.434 645.179C822.9 648.347 818.659 649.93 813.711 649.93H729.169H716.978C704.611 649.225 694.451 644.563 686.499 635.943C678.55 627.146 672.808 617.204 669.274 606.121C665.917 595.036 664.237 583.688 664.237 572.076C664.237 563.455 665.209 554.921 667.152 546.476C669.098 538.03 672.099 530.026 676.165 522.462C680.404 514.719 685.97 508.123 692.86 502.669C699.927 497.213 707.968 494.4 716.978 494.224H722.013H813.711C824.844 495.278 830.939 501.348 832 512.433C832 517.359 830.144 521.494 826.434 524.837C822.9 528.004 818.659 529.585 813.711 529.585H726.254Z" fill="url(#paint7_linear_7_7)"/>
<path d="M355.279 657C346.09 657 336.99 655.943 327.98 653.833C319.147 651.722 310.666 648.641 302.538 644.596C294.41 640.372 287.256 634.832 281.071 627.97C274.886 621.109 271.529 612.926 271 603.427V592.341V508.155C271 503.229 272.767 499.18 276.3 496.013C280.01 492.67 284.339 491 289.286 491C299.889 491.881 305.629 497.597 306.514 508.155V595.244C306.866 600.697 308.899 605.273 312.609 608.967C316.495 612.485 320.737 615.301 325.332 617.412C330.1 619.525 334.96 621.109 339.908 622.163C345.031 623.22 350.155 623.747 355.279 623.747C360.403 623.747 365.437 623.22 370.384 622.163C375.508 621.109 380.366 619.525 384.96 617.412C389.731 615.301 393.97 612.485 397.683 608.967C401.569 605.273 403.689 600.697 404.042 595.244V508.155C404.042 503.229 405.808 499.18 409.345 496.013C413.054 492.67 417.383 491 422.33 491C432.931 491.881 438.76 497.597 439.821 508.155V592.341V603.427C439.292 612.926 435.845 621.109 429.484 627.97C423.302 634.832 416.145 640.372 408.017 644.596C399.889 648.641 391.322 651.722 382.312 653.833C373.475 655.943 364.465 657 355.279 657ZM492.826 491C497.773 491 502.015 492.67 505.548 496.013C509.082 499.18 510.935 503.229 511.114 508.155V571.757C510.935 578.97 511.378 585.656 512.439 591.814C513.676 597.795 516.501 603.162 520.92 607.913C525.335 612.664 530.901 615.215 537.615 615.566H622.423C627.371 615.742 631.433 617.588 634.614 621.109C637.971 624.628 639.651 628.849 639.651 633.775C639.475 638.526 637.708 642.572 634.351 645.915C631.17 649.082 627.194 650.755 622.423 650.93H528.605C516.238 650.225 505.991 646.09 497.863 638.526C489.911 630.784 484.168 621.371 480.635 610.288C477.278 599.203 475.511 587.415 475.335 574.924V508.155C475.511 503.404 477.278 499.445 480.635 496.278C483.992 492.935 488.055 491.176 492.826 491ZM725.254 530.585C718.54 530.939 712.887 533.49 708.293 538.239C703.875 542.99 700.694 548.446 698.751 554.602C696.808 560.585 695.836 566.741 695.836 573.076C695.836 579.41 696.718 585.656 698.488 591.814C700.431 597.971 703.698 603.427 708.293 608.175C712.887 612.75 718.54 615.215 725.254 615.566H812.711C823.844 616.62 829.939 622.69 831 633.775C830.824 638.702 828.967 642.837 825.434 646.179C821.9 649.347 817.659 650.93 812.711 650.93H728.169H715.978C703.611 650.225 693.451 645.563 685.499 636.943C677.55 628.146 671.808 618.204 668.274 607.121C664.917 596.036 663.237 584.688 663.237 573.076C663.237 564.455 664.209 555.921 666.152 547.476C668.098 539.03 671.099 531.026 675.165 523.462C679.404 515.719 684.97 509.123 691.86 503.669C698.927 498.213 706.968 495.4 715.978 495.224H721.013H812.711C823.844 496.278 829.939 502.348 831 513.433C831 518.359 829.144 522.494 825.434 525.837C821.9 529.004 817.659 530.585 812.711 530.585H725.254Z" fill="url(#paint8_linear_7_7)"/>
<path d="M355.279 657C346.09 657 336.99 655.943 327.98 653.833C319.147 651.722 310.666 648.641 302.538 644.596C294.41 640.372 287.256 634.832 281.071 627.97C274.886 621.109 271.529 612.926 271 603.427V592.341V508.155C271 503.229 272.767 499.18 276.3 496.013C280.01 492.67 284.339 491 289.286 491C299.889 491.881 305.629 497.597 306.514 508.155V595.244C306.866 600.697 308.899 605.273 312.609 608.967C316.495 612.485 320.737 615.301 325.332 617.412C330.1 619.525 334.96 621.109 339.908 622.163C345.031 623.22 350.155 623.747 355.279 623.747C360.403 623.747 365.437 623.22 370.384 622.163C375.508 621.109 380.366 619.525 384.96 617.412C389.731 615.301 393.97 612.485 397.683 608.967C401.569 605.273 403.689 600.697 404.042 595.244V508.155C404.042 503.229 405.808 499.18 409.345 496.013C413.054 492.67 417.383 491 422.33 491C432.931 491.881 438.76 497.597 439.821 508.155V592.341V603.427C439.292 612.926 435.845 621.109 429.484 627.97C423.302 634.832 416.145 640.372 408.017 644.596C399.889 648.641 391.322 651.722 382.312 653.833C373.475 655.943 364.465 657 355.279 657ZM492.826 491C497.773 491 502.015 492.67 505.548 496.013C509.082 499.18 510.935 503.229 511.114 508.155V571.757C510.935 578.97 511.378 585.656 512.439 591.814C513.676 597.795 516.501 603.162 520.92 607.913C525.335 612.664 530.901 615.215 537.615 615.566H622.423C627.371 615.742 631.433 617.588 634.614 621.109C637.971 624.628 639.651 628.849 639.651 633.775C639.475 638.526 637.708 642.572 634.351 645.915C631.17 649.082 627.194 650.755 622.423 650.93H528.605C516.238 650.225 505.991 646.09 497.863 638.526C489.911 630.784 484.168 621.371 480.635 610.288C477.278 599.203 475.511 587.415 475.335 574.924V508.155C475.511 503.404 477.278 499.445 480.635 496.278C483.992 492.935 488.055 491.176 492.826 491ZM725.254 530.585C718.54 530.939 712.887 533.49 708.293 538.239C703.875 542.99 700.694 548.446 698.751 554.602C696.808 560.585 695.836 566.741 695.836 573.076C695.836 579.41 696.718 585.656 698.488 591.814C700.431 597.971 703.698 603.427 708.293 608.175C712.887 612.75 718.54 615.215 725.254 615.566H812.711C823.844 616.62 829.939 622.69 831 633.775C830.824 638.702 828.967 642.837 825.434 646.179C821.9 649.347 817.659 650.93 812.711 650.93H728.169H715.978C703.611 650.225 693.451 645.563 685.499 636.943C677.55 628.146 671.808 618.204 668.274 607.121C664.917 596.036 663.237 584.688 663.237 573.076C663.237 564.455 664.209 555.921 666.152 547.476C668.098 539.03 671.099 531.026 675.165 523.462C679.404 515.719 684.97 509.123 691.86 503.669C698.927 498.213 706.968 495.4 715.978 495.224H721.013H812.711C823.844 496.278 829.939 502.348 831 513.433C831 518.359 829.144 522.494 825.434 525.837C821.9 529.004 817.659 530.585 812.711 530.585H725.254Z" fill="url(#paint9_linear_7_7)"/>
<path d="M355.279 658C346.09 658 336.99 656.943 327.98 654.833C319.147 652.722 310.666 649.641 302.538 645.596C294.41 641.372 287.256 635.832 281.071 628.97C274.886 622.109 271.529 613.926 271 604.427V593.341V509.155C271 504.229 272.767 500.18 276.3 497.013C280.01 493.67 284.339 492 289.286 492C299.889 492.881 305.629 498.597 306.514 509.155V596.244C306.866 601.697 308.899 606.273 312.609 609.967C316.495 613.485 320.737 616.301 325.332 618.412C330.1 620.525 334.96 622.109 339.908 623.163C345.031 624.22 350.155 624.747 355.279 624.747C360.403 624.747 365.437 624.22 370.384 623.163C375.508 622.109 380.366 620.525 384.96 618.412C389.731 616.301 393.97 613.485 397.683 609.967C401.569 606.273 403.689 601.697 404.042 596.244V509.155C404.042 504.229 405.808 500.18 409.345 497.013C413.054 493.67 417.383 492 422.33 492C432.931 492.881 438.76 498.597 439.821 509.155V593.341V604.427C439.292 613.926 435.845 622.109 429.484 628.97C423.302 635.832 416.145 641.372 408.017 645.596C399.889 649.641 391.322 652.722 382.312 654.833C373.475 656.943 364.465 658 355.279 658ZM492.826 492C497.773 492 502.015 493.67 505.548 497.013C509.082 500.18 510.935 504.229 511.114 509.155V572.757C510.935 579.97 511.378 586.656 512.439 592.814C513.676 598.795 516.501 604.162 520.92 608.913C525.335 613.664 530.901 616.215 537.615 616.566H622.423C627.371 616.742 631.433 618.588 634.614 622.109C637.971 625.628 639.651 629.849 639.651 634.775C639.475 639.526 637.708 643.572 634.351 646.915C631.17 650.082 627.194 651.755 622.423 651.93H528.605C516.238 651.225 505.991 647.09 497.863 639.526C489.911 631.784 484.168 622.371 480.635 611.288C477.278 600.203 475.511 588.415 475.335 575.924V509.155C475.511 504.404 477.278 500.445 480.635 497.278C483.992 493.935 488.055 492.176 492.826 492ZM725.254 531.585C718.54 531.939 712.887 534.49 708.293 539.239C703.875 543.99 700.694 549.446 698.751 555.602C696.808 561.585 695.836 567.741 695.836 574.076C695.836 580.41 696.718 586.656 698.488 592.814C700.431 598.971 703.698 604.427 708.293 609.175C712.887 613.75 718.54 616.215 725.254 616.566H812.711C823.844 617.62 829.939 623.69 831 634.775C830.824 639.702 828.967 643.837 825.434 647.179C821.9 650.347 817.659 651.93 812.711 651.93H728.169H715.978C703.611 651.225 693.451 646.563 685.499 637.943C677.55 629.146 671.808 619.204 668.274 608.121C664.917 597.036 663.237 585.688 663.237 574.076C663.237 565.455 664.209 556.921 666.152 548.476C668.098 540.03 671.099 532.026 675.165 524.462C679.404 516.719 684.97 510.123 691.86 504.669C698.927 499.213 706.968 496.4 715.978 496.224H721.013H812.711C823.844 497.278 829.939 503.348 831 514.433C831 519.359 829.144 523.494 825.434 526.837C821.9 530.004 817.659 531.585 812.711 531.585H725.254Z" fill="url(#paint10_linear_7_7)"/>
<path d="M356.279 655C347.09 655 337.99 653.943 328.98 651.833C320.147 649.722 311.666 646.641 303.538 642.596C295.41 638.372 288.256 632.832 282.071 625.97C275.886 619.109 272.529 610.926 272 601.427V590.341V506.155C272 501.229 273.767 497.18 277.3 494.013C281.01 490.67 285.339 489 290.286 489C300.889 489.881 306.629 495.597 307.514 506.155V593.244C307.866 598.697 309.899 603.273 313.609 606.967C317.495 610.485 321.737 613.301 326.332 615.412C331.1 617.525 335.96 619.109 340.908 620.163C346.031 621.22 351.155 621.747 356.279 621.747C361.403 621.747 366.437 621.22 371.384 620.163C376.508 619.109 381.366 617.525 385.96 615.412C390.731 613.301 394.97 610.485 398.683 606.967C402.569 603.273 404.689 598.697 405.042 593.244V506.155C405.042 501.229 406.808 497.18 410.345 494.013C414.054 490.67 418.383 489 423.33 489C433.931 489.881 439.76 495.597 440.821 506.155V590.341V601.427C440.292 610.926 436.845 619.109 430.484 625.97C424.302 632.832 417.145 638.372 409.017 642.596C400.889 646.641 392.322 649.722 383.312 651.833C374.475 653.943 365.465 655 356.279 655ZM493.826 489C498.773 489 503.015 490.67 506.548 494.013C510.082 497.18 511.935 501.229 512.114 506.155V569.757C511.935 576.97 512.378 583.656 513.439 589.814C514.676 595.795 517.501 601.162 521.92 605.913C526.335 610.664 531.901 613.215 538.615 613.566H623.423C628.371 613.742 632.433 615.588 635.614 619.109C638.971 622.628 640.651 626.849 640.651 631.775C640.475 636.526 638.708 640.572 635.351 643.915C632.17 647.082 628.194 648.755 623.423 648.93H529.605C517.238 648.225 506.991 644.09 498.863 636.526C490.911 628.784 485.168 619.371 481.635 608.288C478.278 597.203 476.511 585.415 476.335 572.924V506.155C476.511 501.404 478.278 497.445 481.635 494.278C484.992 490.935 489.055 489.176 493.826 489ZM726.254 528.585C719.54 528.939 713.887 531.49 709.293 536.239C704.875 540.99 701.694 546.446 699.751 552.602C697.808 558.585 696.836 564.741 696.836 571.076C696.836 577.41 697.718 583.656 699.488 589.814C701.431 595.971 704.698 601.427 709.293 606.175C713.887 610.75 719.54 613.215 726.254 613.566H813.711C824.844 614.62 830.939 620.69 832 631.775C831.824 636.702 829.967 640.837 826.434 644.179C822.9 647.347 818.659 648.93 813.711 648.93H729.169H716.978C704.611 648.225 694.451 643.563 686.499 634.943C678.55 626.146 672.808 616.204 669.274 605.121C665.917 594.036 664.237 582.688 664.237 571.076C664.237 562.455 665.209 553.921 667.152 545.476C669.098 537.03 672.099 529.026 676.165 521.462C680.404 513.719 685.97 507.123 692.86 501.669C699.927 496.213 707.968 493.4 716.978 493.224H722.013H813.711C824.844 494.278 830.939 500.348 832 511.433C832 516.359 830.144 520.494 826.434 523.837C822.9 527.004 818.659 528.585 813.711 528.585H726.254Z" fill="url(#paint11_linear_7_7)"/>
<path d="M355.279 656C346.09 656 336.99 654.943 327.98 652.833C319.147 650.722 310.666 647.641 302.538 643.596C294.41 639.372 287.256 633.832 281.071 626.97C274.886 620.109 271.529 611.926 271 602.427V591.341V507.155C271 502.229 272.767 498.18 276.3 495.013C280.01 491.67 284.339 490 289.286 490C299.889 490.881 305.629 496.597 306.514 507.155V594.244C306.866 599.697 308.899 604.273 312.609 607.967C316.495 611.485 320.737 614.301 325.332 616.412C330.1 618.525 334.96 620.109 339.908 621.163C345.031 622.22 350.155 622.747 355.279 622.747C360.403 622.747 365.437 622.22 370.384 621.163C375.508 620.109 380.366 618.525 384.96 616.412C389.731 614.301 393.97 611.485 397.683 607.967C401.569 604.273 403.689 599.697 404.042 594.244V507.155C404.042 502.229 405.808 498.18 409.345 495.013C413.054 491.67 417.383 490 422.33 490C432.931 490.881 438.76 496.597 439.821 507.155V591.341V602.427C439.292 611.926 435.845 620.109 429.484 626.97C423.302 633.832 416.145 639.372 408.017 643.596C399.889 647.641 391.322 650.722 382.312 652.833C373.475 654.943 364.465 656 355.279 656ZM492.826 490C497.773 490 502.015 491.67 505.548 495.013C509.082 498.18 510.935 502.229 511.114 507.155V570.757C510.935 577.97 511.378 584.656 512.439 590.814C513.676 596.795 516.501 602.162 520.92 606.913C525.335 611.664 530.901 614.215 537.615 614.566H622.423C627.371 614.742 631.433 616.588 634.614 620.109C637.971 623.628 639.651 627.849 639.651 632.775C639.475 637.526 637.708 641.572 634.351 644.915C631.17 648.082 627.194 649.755 622.423 649.93H528.605C516.238 649.225 505.991 645.09 497.863 637.526C489.911 629.784 484.168 620.371 480.635 609.288C477.278 598.203 475.511 586.415 475.335 573.924V507.155C475.511 502.404 477.278 498.445 480.635 495.278C483.992 491.935 488.055 490.176 492.826 490ZM725.254 529.585C718.54 529.939 712.887 532.49 708.293 537.239C703.875 541.99 700.694 547.446 698.751 553.602C696.808 559.585 695.836 565.741 695.836 572.076C695.836 578.41 696.718 584.656 698.488 590.814C700.431 596.971 703.698 602.427 708.293 607.175C712.887 611.75 718.54 614.215 725.254 614.566H812.711C823.844 615.62 829.939 621.69 831 632.775C830.824 637.702 828.967 641.837 825.434 645.179C821.9 648.347 817.659 649.93 812.711 649.93H728.169H715.978C703.611 649.225 693.451 644.563 685.499 635.943C677.55 627.146 671.808 617.204 668.274 606.121C664.917 595.036 663.237 583.688 663.237 572.076C663.237 563.455 664.209 554.921 666.152 546.476C668.098 538.03 671.099 530.026 675.165 522.462C679.404 514.719 684.97 508.123 691.86 502.669C698.927 497.213 706.968 494.4 715.978 494.224H721.013H812.711C823.844 495.278 829.939 501.348 831 512.433C831 517.359 829.144 521.494 825.434 524.837C821.9 528.004 817.659 529.585 812.711 529.585H725.254Z" fill="url(#paint12_linear_7_7)"/>
<path d="M355.279 656C346.09 656 336.99 654.943 327.98 652.833C319.147 650.722 310.666 647.641 302.538 643.596C294.41 639.372 287.256 633.832 281.071 626.97C274.886 620.109 271.529 611.926 271 602.427V591.341V507.155C271 502.229 272.767 498.18 276.3 495.013C280.01 491.67 284.339 490 289.286 490C299.889 490.881 305.629 496.597 306.514 507.155V594.244C306.866 599.697 308.899 604.273 312.609 607.967C316.495 611.485 320.737 614.301 325.332 616.412C330.1 618.525 334.96 620.109 339.908 621.163C345.031 622.22 350.155 622.747 355.279 622.747C360.403 622.747 365.437 622.22 370.384 621.163C375.508 620.109 380.366 618.525 384.96 616.412C389.731 614.301 393.97 611.485 397.683 607.967C401.569 604.273 403.689 599.697 404.042 594.244V507.155C404.042 502.229 405.808 498.18 409.345 495.013C413.054 491.67 417.383 490 422.33 490C432.931 490.881 438.76 496.597 439.821 507.155V591.341V602.427C439.292 611.926 435.845 620.109 429.484 626.97C423.302 633.832 416.145 639.372 408.017 643.596C399.889 647.641 391.322 650.722 382.312 652.833C373.475 654.943 364.465 656 355.279 656ZM492.826 490C497.773 490 502.015 491.67 505.548 495.013C509.082 498.18 510.935 502.229 511.114 507.155V570.757C510.935 577.97 511.378 584.656 512.439 590.814C513.676 596.795 516.501 602.162 520.92 606.913C525.335 611.664 530.901 614.215 537.615 614.566H622.423C627.371 614.742 631.433 616.588 634.614 620.109C637.971 623.628 639.651 627.849 639.651 632.775C639.475 637.526 637.708 641.572 634.351 644.915C631.17 648.082 627.194 649.755 622.423 649.93H528.605C516.238 649.225 505.991 645.09 497.863 637.526C489.911 629.784 484.168 620.371 480.635 609.288C477.278 598.203 475.511 586.415 475.335 573.924V507.155C475.511 502.404 477.278 498.445 480.635 495.278C483.992 491.935 488.055 490.176 492.826 490ZM725.254 529.585C718.54 529.939 712.887 532.49 708.293 537.239C703.875 541.99 700.694 547.446 698.751 553.602C696.808 559.585 695.836 565.741 695.836 572.076C695.836 578.41 696.718 584.656 698.488 590.814C700.431 596.971 703.698 602.427 708.293 607.175C712.887 611.75 718.54 614.215 725.254 614.566H812.711C823.844 615.62 829.939 621.69 831 632.775C830.824 637.702 828.967 641.837 825.434 645.179C821.9 648.347 817.659 649.93 812.711 649.93H728.169H715.978C703.611 649.225 693.451 644.563 685.499 635.943C677.55 627.146 671.808 617.204 668.274 606.121C664.917 595.036 663.237 583.688 663.237 572.076C663.237 563.455 664.209 554.921 666.152 546.476C668.098 538.03 671.099 530.026 675.165 522.462C679.404 514.719 684.97 508.123 691.86 502.669C698.927 497.213 706.968 494.4 715.978 494.224H721.013H812.711C823.844 495.278 829.939 501.348 831 512.433C831 517.359 829.144 521.494 825.434 524.837C821.9 528.004 817.659 529.585 812.711 529.585H725.254Z" fill="url(#paint13_linear_7_7)"/>
<path d="M355.279 657C346.09 657 336.99 655.943 327.98 653.833C319.147 651.722 310.666 648.641 302.538 644.596C294.41 640.372 287.256 634.832 281.071 627.97C274.886 621.109 271.529 612.926 271 603.427V592.341V508.155C271 503.229 272.767 499.18 276.3 496.013C280.01 492.67 284.339 491 289.286 491C299.889 491.881 305.629 497.597 306.514 508.155V595.244C306.866 600.697 308.899 605.273 312.609 608.967C316.495 612.485 320.737 615.301 325.332 617.412C330.1 619.525 334.96 621.109 339.908 622.163C345.031 623.22 350.155 623.747 355.279 623.747C360.403 623.747 365.437 623.22 370.384 622.163C375.508 621.109 380.366 619.525 384.96 617.412C389.731 615.301 393.97 612.485 397.683 608.967C401.569 605.273 403.689 600.697 404.042 595.244V508.155C404.042 503.229 405.808 499.18 409.345 496.013C413.054 492.67 417.383 491 422.33 491C432.931 491.881 438.76 497.597 439.821 508.155V592.341V603.427C439.292 612.926 435.845 621.109 429.484 627.97C423.302 634.832 416.145 640.372 408.017 644.596C399.889 648.641 391.322 651.722 382.312 653.833C373.475 655.943 364.465 657 355.279 657ZM492.826 491C497.773 491 502.015 492.67 505.548 496.013C509.082 499.18 510.935 503.229 511.114 508.155V571.757C510.935 578.97 511.378 585.656 512.439 591.814C513.676 597.795 516.501 603.162 520.92 607.913C525.335 612.664 530.901 615.215 537.615 615.566H622.423C627.371 615.742 631.433 617.588 634.614 621.109C637.971 624.628 639.651 628.849 639.651 633.775C639.475 638.526 637.708 642.572 634.351 645.915C631.17 649.082 627.194 650.755 622.423 650.93H528.605C516.238 650.225 505.991 646.09 497.863 638.526C489.911 630.784 484.168 621.371 480.635 610.288C477.278 599.203 475.511 587.415 475.335 574.924V508.155C475.511 503.404 477.278 499.445 480.635 496.278C483.992 492.935 488.055 491.176 492.826 491ZM725.254 530.585C718.54 530.939 712.887 533.49 708.293 538.239C703.875 542.99 700.694 548.446 698.751 554.602C696.808 560.585 695.836 566.741 695.836 573.076C695.836 579.41 696.718 585.656 698.488 591.814C700.431 597.971 703.698 603.427 708.293 608.175C712.887 612.75 718.54 615.215 725.254 615.566H812.711C823.844 616.62 829.939 622.69 831 633.775C830.824 638.702 828.967 642.837 825.434 646.179C821.9 649.347 817.659 650.93 812.711 650.93H728.169H715.978C703.611 650.225 693.451 645.563 685.499 636.943C677.55 628.146 671.808 618.204 668.274 607.121C664.917 596.036 663.237 584.688 663.237 573.076C663.237 564.455 664.209 555.921 666.152 547.476C668.098 539.03 671.099 531.026 675.165 523.462C679.404 515.719 684.97 509.123 691.86 503.669C698.927 498.213 706.968 495.4 715.978 495.224H721.013H812.711C823.844 496.278 829.939 502.348 831 513.433C831 518.359 829.144 522.494 825.434 525.837C821.9 529.004 817.659 530.585 812.711 530.585H725.254Z" fill="url(#paint14_linear_7_7)"/>
<path d="M356.279 654C347.09 654 337.99 652.943 328.98 650.833C320.147 648.722 311.666 645.641 303.538 641.596C295.41 637.372 288.256 631.832 282.071 624.97C275.886 618.109 272.529 609.926 272 600.427V589.341V505.155C272 500.229 273.767 496.18 277.3 493.013C281.01 489.67 285.339 488 290.286 488C300.889 488.881 306.629 494.597 307.514 505.155V592.244C307.866 597.697 309.899 602.273 313.609 605.967C317.495 609.485 321.737 612.301 326.332 614.412C331.1 616.525 335.96 618.109 340.908 619.163C346.031 620.22 351.155 620.747 356.279 620.747C361.403 620.747 366.437 620.22 371.384 619.163C376.508 618.109 381.366 616.525 385.96 614.412C390.731 612.301 394.97 609.485 398.683 605.967C402.569 602.273 404.689 597.697 405.042 592.244V505.155C405.042 500.229 406.808 496.18 410.345 493.013C414.054 489.67 418.383 488 423.33 488C433.931 488.881 439.76 494.597 440.821 505.155V589.341V600.427C440.292 609.926 436.845 618.109 430.484 624.97C424.302 631.832 417.145 637.372 409.017 641.596C400.889 645.641 392.322 648.722 383.312 650.833C374.475 652.943 365.465 654 356.279 654ZM493.826 488C498.773 488 503.015 489.67 506.548 493.013C510.082 496.18 511.935 500.229 512.114 505.155V568.757C511.935 575.97 512.378 582.656 513.439 588.814C514.676 594.795 517.501 600.162 521.92 604.913C526.335 609.664 531.901 612.215 538.615 612.566H623.423C628.371 612.742 632.433 614.588 635.614 618.109C638.971 621.628 640.651 625.849 640.651 630.775C640.475 635.526 638.708 639.572 635.351 642.915C632.17 646.082 628.194 647.755 623.423 647.93H529.605C517.238 647.225 506.991 643.09 498.863 635.526C490.911 627.784 485.168 618.371 481.635 607.288C478.278 596.203 476.511 584.415 476.335 571.924V505.155C476.511 500.404 478.278 496.445 481.635 493.278C484.992 489.935 489.055 488.176 493.826 488ZM726.254 527.585C719.54 527.939 713.887 530.49 709.293 535.239C704.875 539.99 701.694 545.446 699.751 551.602C697.808 557.585 696.836 563.741 696.836 570.076C696.836 576.41 697.718 582.656 699.488 588.814C701.431 594.971 704.698 600.427 709.293 605.175C713.887 609.75 719.54 612.215 726.254 612.566H813.711C824.844 613.62 830.939 619.69 832 630.775C831.824 635.702 829.967 639.837 826.434 643.179C822.9 646.347 818.659 647.93 813.711 647.93H729.169H716.978C704.611 647.225 694.451 642.563 686.499 633.943C678.55 625.146 672.808 615.204 669.274 604.121C665.917 593.036 664.237 581.688 664.237 570.076C664.237 561.455 665.209 552.921 667.152 544.476C669.098 536.03 672.099 528.026 676.165 520.462C680.404 512.719 685.97 506.123 692.86 500.669C699.927 495.213 707.968 492.4 716.978 492.224H722.013H813.711C824.844 493.278 830.939 499.348 832 510.433C832 515.359 830.144 519.494 826.434 522.837C822.9 526.004 818.659 527.585 813.711 527.585H726.254Z" fill="url(#paint15_linear_7_7)"/>
<path d="M355.279 655C346.09 655 336.99 653.943 327.98 651.833C319.147 649.722 310.666 646.641 302.538 642.596C294.41 638.372 287.256 632.832 281.071 625.97C274.886 619.109 271.529 610.926 271 601.427V590.341V506.155C271 501.229 272.767 497.18 276.3 494.013C280.01 490.67 284.339 489 289.286 489C299.889 489.881 305.629 495.597 306.514 506.155V593.244C306.866 598.697 308.899 603.273 312.609 606.967C316.495 610.485 320.737 613.301 325.332 615.412C330.1 617.525 334.96 619.109 339.908 620.163C345.031 621.22 350.155 621.747 355.279 621.747C360.403 621.747 365.437 621.22 370.384 620.163C375.508 619.109 380.366 617.525 384.96 615.412C389.731 613.301 393.97 610.485 397.683 606.967C401.569 603.273 403.689 598.697 404.042 593.244V506.155C404.042 501.229 405.808 497.18 409.345 494.013C413.054 490.67 417.383 489 422.33 489C432.931 489.881 438.76 495.597 439.821 506.155V590.341V601.427C439.292 610.926 435.845 619.109 429.484 625.97C423.302 632.832 416.145 638.372 408.017 642.596C399.889 646.641 391.322 649.722 382.312 651.833C373.475 653.943 364.465 655 355.279 655ZM492.826 489C497.773 489 502.015 490.67 505.548 494.013C509.082 497.18 510.935 501.229 511.114 506.155V569.757C510.935 576.97 511.378 583.656 512.439 589.814C513.676 595.795 516.501 601.162 520.92 605.913C525.335 610.664 530.901 613.215 537.615 613.566H622.423C627.371 613.742 631.433 615.588 634.614 619.109C637.971 622.628 639.651 626.849 639.651 631.775C639.475 636.526 637.708 640.572 634.351 643.915C631.17 647.082 627.194 648.755 622.423 648.93H528.605C516.238 648.225 505.991 644.09 497.863 636.526C489.911 628.784 484.168 619.371 480.635 608.288C477.278 597.203 475.511 585.415 475.335 572.924V506.155C475.511 501.404 477.278 497.445 480.635 494.278C483.992 490.935 488.055 489.176 492.826 489ZM725.254 528.585C718.54 528.939 712.887 531.49 708.293 536.239C703.875 540.99 700.694 546.446 698.751 552.602C696.808 558.585 695.836 564.741 695.836 571.076C695.836 577.41 696.718 583.656 698.488 589.814C700.431 595.971 703.698 601.427 708.293 606.175C712.887 610.75 718.54 613.215 725.254 613.566H812.711C823.844 614.62 829.939 620.69 831 631.775C830.824 636.702 828.967 640.837 825.434 644.179C821.9 647.347 817.659 648.93 812.711 648.93H728.169H715.978C703.611 648.225 693.451 643.563 685.499 634.943C677.55 626.146 671.808 616.204 668.274 605.121C664.917 594.036 663.237 582.688 663.237 571.076C663.237 562.455 664.209 553.921 666.152 545.476C668.098 537.03 671.099 529.026 675.165 521.462C679.404 513.719 684.97 507.123 691.86 501.669C698.927 496.213 706.968 493.4 715.978 493.224H721.013H812.711C823.844 494.278 829.939 500.348 831 511.433C831 516.359 829.144 520.494 825.434 523.837C821.9 527.004 817.659 528.585 812.711 528.585H725.254Z" fill="url(#paint16_linear_7_7)"/>
<path d="M355.279 655C346.09 655 336.99 653.943 327.98 651.833C319.147 649.722 310.666 646.641 302.538 642.596C294.41 638.372 287.256 632.832 281.071 625.97C274.886 619.109 271.529 610.926 271 601.427V590.341V506.155C271 501.229 272.767 497.18 276.3 494.013C280.01 490.67 284.339 489 289.286 489C299.889 489.881 305.629 495.597 306.514 506.155V593.244C306.866 598.697 308.899 603.273 312.609 606.967C316.495 610.485 320.737 613.301 325.332 615.412C330.1 617.525 334.96 619.109 339.908 620.163C345.031 621.22 350.155 621.747 355.279 621.747C360.403 621.747 365.437 621.22 370.384 620.163C375.508 619.109 380.366 617.525 384.96 615.412C389.731 613.301 393.97 610.485 397.683 606.967C401.569 603.273 403.689 598.697 404.042 593.244V506.155C404.042 501.229 405.808 497.18 409.345 494.013C413.054 490.67 417.383 489 422.33 489C432.931 489.881 438.76 495.597 439.821 506.155V590.341V601.427C439.292 610.926 435.845 619.109 429.484 625.97C423.302 632.832 416.145 638.372 408.017 642.596C399.889 646.641 391.322 649.722 382.312 651.833C373.475 653.943 364.465 655 355.279 655ZM492.826 489C497.773 489 502.015 490.67 505.548 494.013C509.082 497.18 510.935 501.229 511.114 506.155V569.757C510.935 576.97 511.378 583.656 512.439 589.814C513.676 595.795 516.501 601.162 520.92 605.913C525.335 610.664 530.901 613.215 537.615 613.566H622.423C627.371 613.742 631.433 615.588 634.614 619.109C637.971 622.628 639.651 626.849 639.651 631.775C639.475 636.526 637.708 640.572 634.351 643.915C631.17 647.082 627.194 648.755 622.423 648.93H528.605C516.238 648.225 505.991 644.09 497.863 636.526C489.911 628.784 484.168 619.371 480.635 608.288C477.278 597.203 475.511 585.415 475.335 572.924V506.155C475.511 501.404 477.278 497.445 480.635 494.278C483.992 490.935 488.055 489.176 492.826 489ZM725.254 528.585C718.54 528.939 712.887 531.49 708.293 536.239C703.875 540.99 700.694 546.446 698.751 552.602C696.808 558.585 695.836 564.741 695.836 571.076C695.836 577.41 696.718 583.656 698.488 589.814C700.431 595.971 703.698 601.427 708.293 606.175C712.887 610.75 718.54 613.215 725.254 613.566H812.711C823.844 614.62 829.939 620.69 831 631.775C830.824 636.702 828.967 640.837 825.434 644.179C821.9 647.347 817.659 648.93 812.711 648.93H728.169H715.978C703.611 648.225 693.451 643.563 685.499 634.943C677.55 626.146 671.808 616.204 668.274 605.121C664.917 594.036 663.237 582.688 663.237 571.076C663.237 562.455 664.209 553.921 666.152 545.476C668.098 537.03 671.099 529.026 675.165 521.462C679.404 513.719 684.97 507.123 691.86 501.669C698.927 496.213 706.968 493.4 715.978 493.224H721.013H812.711C823.844 494.278 829.939 500.348 831 511.433C831 516.359 829.144 520.494 825.434 523.837C821.9 527.004 817.659 528.585 812.711 528.585H725.254Z" fill="url(#paint17_linear_7_7)"/>
<path d="M355.279 656C346.09 656 336.99 654.943 327.98 652.833C319.147 650.722 310.666 647.641 302.538 643.596C294.41 639.372 287.256 633.832 281.071 626.97C274.886 620.109 271.529 611.926 271 602.427V591.341V507.155C271 502.229 272.767 498.18 276.3 495.013C280.01 491.67 284.339 490 289.286 490C299.889 490.881 305.629 496.597 306.514 507.155V594.244C306.866 599.697 308.899 604.273 312.609 607.967C316.495 611.485 320.737 614.301 325.332 616.412C330.1 618.525 334.96 620.109 339.908 621.163C345.031 622.22 350.155 622.747 355.279 622.747C360.403 622.747 365.437 622.22 370.384 621.163C375.508 620.109 380.366 618.525 384.96 616.412C389.731 614.301 393.97 611.485 397.683 607.967C401.569 604.273 403.689 599.697 404.042 594.244V507.155C404.042 502.229 405.808 498.18 409.345 495.013C413.054 491.67 417.383 490 422.33 490C432.931 490.881 438.76 496.597 439.821 507.155V591.341V602.427C439.292 611.926 435.845 620.109 429.484 626.97C423.302 633.832 416.145 639.372 408.017 643.596C399.889 647.641 391.322 650.722 382.312 652.833C373.475 654.943 364.465 656 355.279 656ZM492.826 490C497.773 490 502.015 491.67 505.548 495.013C509.082 498.18 510.935 502.229 511.114 507.155V570.757C510.935 577.97 511.378 584.656 512.439 590.814C513.676 596.795 516.501 602.162 520.92 606.913C525.335 611.664 530.901 614.215 537.615 614.566H622.423C627.371 614.742 631.433 616.588 634.614 620.109C637.971 623.628 639.651 627.849 639.651 632.775C639.475 637.526 637.708 641.572 634.351 644.915C631.17 648.082 627.194 649.755 622.423 649.93H528.605C516.238 649.225 505.991 645.09 497.863 637.526C489.911 629.784 484.168 620.371 480.635 609.288C477.278 598.203 475.511 586.415 475.335 573.924V507.155C475.511 502.404 477.278 498.445 480.635 495.278C483.992 491.935 488.055 490.176 492.826 490ZM725.254 529.585C718.54 529.939 712.887 532.49 708.293 537.239C703.875 541.99 700.694 547.446 698.751 553.602C696.808 559.585 695.836 565.741 695.836 572.076C695.836 578.41 696.718 584.656 698.488 590.814C700.431 596.971 703.698 602.427 708.293 607.175C712.887 611.75 718.54 614.215 725.254 614.566H812.711C823.844 615.62 829.939 621.69 831 632.775C830.824 637.702 828.967 641.837 825.434 645.179C821.9 648.347 817.659 649.93 812.711 649.93H728.169H715.978C703.611 649.225 693.451 644.563 685.499 635.943C677.55 627.146 671.808 617.204 668.274 606.121C664.917 595.036 663.237 583.688 663.237 572.076C663.237 563.455 664.209 554.921 666.152 546.476C668.098 538.03 671.099 530.026 675.165 522.462C679.404 514.719 684.97 508.123 691.86 502.669C698.927 497.213 706.968 494.4 715.978 494.224H721.013H812.711C823.844 495.278 829.939 501.348 831 512.433C831 517.359 829.144 521.494 825.434 524.837C821.9 528.004 817.659 529.585 812.711 529.585H725.254Z" fill="url(#paint18_linear_7_7)"/>
<path d="M356.279 653C347.09 653 337.99 651.943 328.98 649.833C320.147 647.722 311.666 644.641 303.538 640.596C295.41 636.372 288.256 630.832 282.071 623.97C275.886 617.109 272.529 608.926 272 599.427V588.341V504.155C272 499.229 273.767 495.18 277.3 492.013C281.01 488.67 285.339 487 290.286 487C300.889 487.881 306.629 493.597 307.514 504.155V591.244C307.866 596.697 309.899 601.273 313.609 604.967C317.495 608.485 321.737 611.301 326.332 613.412C331.1 615.525 335.96 617.109 340.908 618.163C346.031 619.22 351.155 619.747 356.279 619.747C361.403 619.747 366.437 619.22 371.384 618.163C376.508 617.109 381.366 615.525 385.96 613.412C390.731 611.301 394.97 608.485 398.683 604.967C402.569 601.273 404.689 596.697 405.042 591.244V504.155C405.042 499.229 406.808 495.18 410.345 492.013C414.054 488.67 418.383 487 423.33 487C433.931 487.881 439.76 493.597 440.821 504.155V588.341V599.427C440.292 608.926 436.845 617.109 430.484 623.97C424.302 630.832 417.145 636.372 409.017 640.596C400.889 644.641 392.322 647.722 383.312 649.833C374.475 651.943 365.465 653 356.279 653ZM493.826 487C498.773 487 503.015 488.67 506.548 492.013C510.082 495.18 511.935 499.229 512.114 504.155V567.757C511.935 574.97 512.378 581.656 513.439 587.814C514.676 593.795 517.501 599.162 521.92 603.913C526.335 608.664 531.901 611.215 538.615 611.566H623.423C628.371 611.742 632.433 613.588 635.614 617.109C638.971 620.628 640.651 624.849 640.651 629.775C640.475 634.526 638.708 638.572 635.351 641.915C632.17 645.082 628.194 646.755 623.423 646.93H529.605C517.238 646.225 506.991 642.09 498.863 634.526C490.911 626.784 485.168 617.371 481.635 606.288C478.278 595.203 476.511 583.415 476.335 570.924V504.155C476.511 499.404 478.278 495.445 481.635 492.278C484.992 488.935 489.055 487.176 493.826 487ZM726.254 526.585C719.54 526.939 713.887 529.49 709.293 534.239C704.875 538.99 701.694 544.446 699.751 550.602C697.808 556.585 696.836 562.741 696.836 569.076C696.836 575.41 697.718 581.656 699.488 587.814C701.431 593.971 704.698 599.427 709.293 604.175C713.887 608.75 719.54 611.215 726.254 611.566H813.711C824.844 612.62 830.939 618.69 832 629.775C831.824 634.702 829.967 638.837 826.434 642.179C822.9 645.347 818.659 646.93 813.711 646.93H729.169H716.978C704.611 646.225 694.451 641.563 686.499 632.943C678.55 624.146 672.808 614.204 669.274 603.121C665.917 592.036 664.237 580.688 664.237 569.076C664.237 560.455 665.209 551.921 667.152 543.476C669.098 535.03 672.099 527.026 676.165 519.462C680.404 511.719 685.97 505.123 692.86 499.669C699.927 494.213 707.968 491.4 716.978 491.224H722.013H813.711C824.844 492.278 830.939 498.348 832 509.433C832 514.359 830.144 518.494 826.434 521.837C822.9 525.004 818.659 526.585 813.711 526.585H726.254Z" fill="url(#paint19_linear_7_7)"/>
<path d="M355.279 654C346.09 654 336.99 652.943 327.98 650.833C319.147 648.722 310.666 645.641 302.538 641.596C294.41 637.372 287.256 631.832 281.071 624.97C274.886 618.109 271.529 609.926 271 600.427V589.341V505.155C271 500.229 272.767 496.18 276.3 493.013C280.01 489.67 284.339 488 289.286 488C299.889 488.881 305.629 494.597 306.514 505.155V592.244C306.866 597.697 308.899 602.273 312.609 605.967C316.495 609.485 320.737 612.301 325.332 614.412C330.1 616.525 334.96 618.109 339.908 619.163C345.031 620.22 350.155 620.747 355.279 620.747C360.403 620.747 365.437 620.22 370.384 619.163C375.508 618.109 380.366 616.525 384.96 614.412C389.731 612.301 393.97 609.485 397.683 605.967C401.569 602.273 403.689 597.697 404.042 592.244V505.155C404.042 500.229 405.808 496.18 409.345 493.013C413.054 489.67 417.383 488 422.33 488C432.931 488.881 438.76 494.597 439.821 505.155V589.341V600.427C439.292 609.926 435.845 618.109 429.484 624.97C423.302 631.832 416.145 637.372 408.017 641.596C399.889 645.641 391.322 648.722 382.312 650.833C373.475 652.943 364.465 654 355.279 654ZM492.826 488C497.773 488 502.015 489.67 505.548 493.013C509.082 496.18 510.935 500.229 511.114 505.155V568.757C510.935 575.97 511.378 582.656 512.439 588.814C513.676 594.795 516.501 600.162 520.92 604.913C525.335 609.664 530.901 612.215 537.615 612.566H622.423C627.371 612.742 631.433 614.588 634.614 618.109C637.971 621.628 639.651 625.849 639.651 630.775C639.475 635.526 637.708 639.572 634.351 642.915C631.17 646.082 627.194 647.755 622.423 647.93H528.605C516.238 647.225 505.991 643.09 497.863 635.526C489.911 627.784 484.168 618.371 480.635 607.288C477.278 596.203 475.511 584.415 475.335 571.924V505.155C475.511 500.404 477.278 496.445 480.635 493.278C483.992 489.935 488.055 488.176 492.826 488ZM725.254 527.585C718.54 527.939 712.887 530.49 708.293 535.239C703.875 539.99 700.694 545.446 698.751 551.602C696.808 557.585 695.836 563.741 695.836 570.076C695.836 576.41 696.718 582.656 698.488 588.814C700.431 594.971 703.698 600.427 708.293 605.175C712.887 609.75 718.54 612.215 725.254 612.566H812.711C823.844 613.62 829.939 619.69 831 630.775C830.824 635.702 828.967 639.837 825.434 643.179C821.9 646.347 817.659 647.93 812.711 647.93H728.169H715.978C703.611 647.225 693.451 642.563 685.499 633.943C677.55 625.146 671.808 615.204 668.274 604.121C664.917 593.036 663.237 581.688 663.237 570.076C663.237 561.455 664.209 552.921 666.152 544.476C668.098 536.03 671.099 528.026 675.165 520.462C679.404 512.719 684.97 506.123 691.86 500.669C698.927 495.213 706.968 492.4 715.978 492.224H721.013H812.711C823.844 493.278 829.939 499.348 831 510.433C831 515.359 829.144 519.494 825.434 522.837C821.9 526.004 817.659 527.585 812.711 527.585H725.254Z" fill="url(#paint20_linear_7_7)"/>
<path d="M355.279 654C346.09 654 336.99 652.943 327.98 650.833C319.147 648.722 310.666 645.641 302.538 641.596C294.41 637.372 287.256 631.832 281.071 624.97C274.886 618.109 271.529 609.926 271 600.427V589.341V505.155C271 500.229 272.767 496.18 276.3 493.013C280.01 489.67 284.339 488 289.286 488C299.889 488.881 305.629 494.597 306.514 505.155V592.244C306.866 597.697 308.899 602.273 312.609 605.967C316.495 609.485 320.737 612.301 325.332 614.412C330.1 616.525 334.96 618.109 339.908 619.163C345.031 620.22 350.155 620.747 355.279 620.747C360.403 620.747 365.437 620.22 370.384 619.163C375.508 618.109 380.366 616.525 384.96 614.412C389.731 612.301 393.97 609.485 397.683 605.967C401.569 602.273 403.689 597.697 404.042 592.244V505.155C404.042 500.229 405.808 496.18 409.345 493.013C413.054 489.67 417.383 488 422.33 488C432.931 488.881 438.76 494.597 439.821 505.155V589.341V600.427C439.292 609.926 435.845 618.109 429.484 624.97C423.302 631.832 416.145 637.372 408.017 641.596C399.889 645.641 391.322 648.722 382.312 650.833C373.475 652.943 364.465 654 355.279 654ZM492.826 488C497.773 488 502.015 489.67 505.548 493.013C509.082 496.18 510.935 500.229 511.114 505.155V568.757C510.935 575.97 511.378 582.656 512.439 588.814C513.676 594.795 516.501 600.162 520.92 604.913C525.335 609.664 530.901 612.215 537.615 612.566H622.423C627.371 612.742 631.433 614.588 634.614 618.109C637.971 621.628 639.651 625.849 639.651 630.775C639.475 635.526 637.708 639.572 634.351 642.915C631.17 646.082 627.194 647.755 622.423 647.93H528.605C516.238 647.225 505.991 643.09 497.863 635.526C489.911 627.784 484.168 618.371 480.635 607.288C477.278 596.203 475.511 584.415 475.335 571.924V505.155C475.511 500.404 477.278 496.445 480.635 493.278C483.992 489.935 488.055 488.176 492.826 488ZM725.254 527.585C718.54 527.939 712.887 530.49 708.293 535.239C703.875 539.99 700.694 545.446 698.751 551.602C696.808 557.585 695.836 563.741 695.836 570.076C695.836 576.41 696.718 582.656 698.488 588.814C700.431 594.971 703.698 600.427 708.293 605.175C712.887 609.75 718.54 612.215 725.254 612.566H812.711C823.844 613.62 829.939 619.69 831 630.775C830.824 635.702 828.967 639.837 825.434 643.179C821.9 646.347 817.659 647.93 812.711 647.93H728.169H715.978C703.611 647.225 693.451 642.563 685.499 633.943C677.55 625.146 671.808 615.204 668.274 604.121C664.917 593.036 663.237 581.688 663.237 570.076C663.237 561.455 664.209 552.921 666.152 544.476C668.098 536.03 671.099 528.026 675.165 520.462C679.404 512.719 684.97 506.123 691.86 500.669C698.927 495.213 706.968 492.4 715.978 492.224H721.013H812.711C823.844 493.278 829.939 499.348 831 510.433C831 515.359 829.144 519.494 825.434 522.837C821.9 526.004 817.659 527.585 812.711 527.585H725.254Z" fill="url(#paint21_linear_7_7)"/>
<path d="M355.279 655C346.09 655 336.99 653.943 327.98 651.833C319.147 649.722 310.666 646.641 302.538 642.596C294.41 638.372 287.256 632.832 281.071 625.97C274.886 619.109 271.529 610.926 271 601.427V590.341V506.155C271 501.229 272.767 497.18 276.3 494.013C280.01 490.67 284.339 489 289.286 489C299.889 489.881 305.629 495.597 306.514 506.155V593.244C306.866 598.697 308.899 603.273 312.609 606.967C316.495 610.485 320.737 613.301 325.332 615.412C330.1 617.525 334.96 619.109 339.908 620.163C345.031 621.22 350.155 621.747 355.279 621.747C360.403 621.747 365.437 621.22 370.384 620.163C375.508 619.109 380.366 617.525 384.96 615.412C389.731 613.301 393.97 610.485 397.683 606.967C401.569 603.273 403.689 598.697 404.042 593.244V506.155C404.042 501.229 405.808 497.18 409.345 494.013C413.054 490.67 417.383 489 422.33 489C432.931 489.881 438.76 495.597 439.821 506.155V590.341V601.427C439.292 610.926 435.845 619.109 429.484 625.97C423.302 632.832 416.145 638.372 408.017 642.596C399.889 646.641 391.322 649.722 382.312 651.833C373.475 653.943 364.465 655 355.279 655ZM492.826 489C497.773 489 502.015 490.67 505.548 494.013C509.082 497.18 510.935 501.229 511.114 506.155V569.757C510.935 576.97 511.378 583.656 512.439 589.814C513.676 595.795 516.501 601.162 520.92 605.913C525.335 610.664 530.901 613.215 537.615 613.566H622.423C627.371 613.742 631.433 615.588 634.614 619.109C637.971 622.628 639.651 626.849 639.651 631.775C639.475 636.526 637.708 640.572 634.351 643.915C631.17 647.082 627.194 648.755 622.423 648.93H528.605C516.238 648.225 505.991 644.09 497.863 636.526C489.911 628.784 484.168 619.371 480.635 608.288C477.278 597.203 475.511 585.415 475.335 572.924V506.155C475.511 501.404 477.278 497.445 480.635 494.278C483.992 490.935 488.055 489.176 492.826 489ZM725.254 528.585C718.54 528.939 712.887 531.49 708.293 536.239C703.875 540.99 700.694 546.446 698.751 552.602C696.808 558.585 695.836 564.741 695.836 571.076C695.836 577.41 696.718 583.656 698.488 589.814C700.431 595.971 703.698 601.427 708.293 606.175C712.887 610.75 718.54 613.215 725.254 613.566H812.711C823.844 614.62 829.939 620.69 831 631.775C830.824 636.702 828.967 640.837 825.434 644.179C821.9 647.347 817.659 648.93 812.711 648.93H728.169H715.978C703.611 648.225 693.451 643.563 685.499 634.943C677.55 626.146 671.808 616.204 668.274 605.121C664.917 594.036 663.237 582.688 663.237 571.076C663.237 562.455 664.209 553.921 666.152 545.476C668.098 537.03 671.099 529.026 675.165 521.462C679.404 513.719 684.97 507.123 691.86 501.669C698.927 496.213 706.968 493.4 715.978 493.224H721.013H812.711C823.844 494.278 829.939 500.348 831 511.433C831 516.359 829.144 520.494 825.434 523.837C821.9 527.004 817.659 528.585 812.711 528.585H725.254Z" fill="url(#paint22_linear_7_7)"/>
<path d="M356.279 652C347.09 652 337.99 650.943 328.98 648.833C320.147 646.722 311.666 643.641 303.538 639.596C295.41 635.372 288.256 629.832 282.071 622.97C275.886 616.109 272.529 607.926 272 598.427V587.341V503.155C272 498.229 273.767 494.18 277.3 491.013C281.01 487.67 285.339 486 290.286 486C300.889 486.881 306.629 492.597 307.514 503.155V590.244C307.866 595.697 309.899 600.273 313.609 603.967C317.495 607.485 321.737 610.301 326.332 612.412C331.1 614.525 335.96 616.109 340.908 617.163C346.031 618.22 351.155 618.747 356.279 618.747C361.403 618.747 366.437 618.22 371.384 617.163C376.508 616.109 381.366 614.525 385.96 612.412C390.731 610.301 394.97 607.485 398.683 603.967C402.569 600.273 404.689 595.697 405.042 590.244V503.155C405.042 498.229 406.808 494.18 410.345 491.013C414.054 487.67 418.383 486 423.33 486C433.931 486.881 439.76 492.597 440.821 503.155V587.341V598.427C440.292 607.926 436.845 616.109 430.484 622.97C424.302 629.832 417.145 635.372 409.017 639.596C400.889 643.641 392.322 646.722 383.312 648.833C374.475 650.943 365.465 652 356.279 652ZM493.826 486C498.773 486 503.015 487.67 506.548 491.013C510.082 494.18 511.935 498.229 512.114 503.155V566.757C511.935 573.97 512.378 580.656 513.439 586.814C514.676 592.795 517.501 598.162 521.92 602.913C526.335 607.664 531.901 610.215 538.615 610.566H623.423C628.371 610.742 632.433 612.588 635.614 616.109C638.971 619.628 640.651 623.849 640.651 628.775C640.475 633.526 638.708 637.572 635.351 640.915C632.17 644.082 628.194 645.755 623.423 645.93H529.605C517.238 645.225 506.991 641.09 498.863 633.526C490.911 625.784 485.168 616.371 481.635 605.288C478.278 594.203 476.511 582.415 476.335 569.924V503.155C476.511 498.404 478.278 494.445 481.635 491.278C484.992 487.935 489.055 486.176 493.826 486ZM726.254 525.585C719.54 525.939 713.887 528.49 709.293 533.239C704.875 537.99 701.694 543.446 699.751 549.602C697.808 555.585 696.836 561.741 696.836 568.076C696.836 574.41 697.718 580.656 699.488 586.814C701.431 592.971 704.698 598.427 709.293 603.175C713.887 607.75 719.54 610.215 726.254 610.566H813.711C824.844 611.62 830.939 617.69 832 628.775C831.824 633.702 829.967 637.837 826.434 641.179C822.9 644.347 818.659 645.93 813.711 645.93H729.169H716.978C704.611 645.225 694.451 640.563 686.499 631.943C678.55 623.146 672.808 613.204 669.274 602.121C665.917 591.036 664.237 579.688 664.237 568.076C664.237 559.455 665.209 550.921 667.152 542.476C669.098 534.03 672.099 526.026 676.165 518.462C680.404 510.719 685.97 504.123 692.86 498.669C699.927 493.213 707.968 490.4 716.978 490.224H722.013H813.711C824.844 491.278 830.939 497.348 832 508.433C832 513.359 830.144 517.494 826.434 520.837C822.9 524.004 818.659 525.585 813.711 525.585H726.254Z" fill="url(#paint23_linear_7_7)"/>
<path d="M355.279 653C346.09 653 336.99 651.943 327.98 649.833C319.147 647.722 310.666 644.641 302.538 640.596C294.41 636.372 287.256 630.832 281.071 623.97C274.886 617.109 271.529 608.926 271 599.427V588.341V504.155C271 499.229 272.767 495.18 276.3 492.013C280.01 488.67 284.339 487 289.286 487C299.889 487.881 305.629 493.597 306.514 504.155V591.244C306.866 596.697 308.899 601.273 312.609 604.967C316.495 608.485 320.737 611.301 325.332 613.412C330.1 615.525 334.96 617.109 339.908 618.163C345.031 619.22 350.155 619.747 355.279 619.747C360.403 619.747 365.437 619.22 370.384 618.163C375.508 617.109 380.366 615.525 384.96 613.412C389.731 611.301 393.97 608.485 397.683 604.967C401.569 601.273 403.689 596.697 404.042 591.244V504.155C404.042 499.229 405.808 495.18 409.345 492.013C413.054 488.67 417.383 487 422.33 487C432.931 487.881 438.76 493.597 439.821 504.155V588.341V599.427C439.292 608.926 435.845 617.109 429.484 623.97C423.302 630.832 416.145 636.372 408.017 640.596C399.889 644.641 391.322 647.722 382.312 649.833C373.475 651.943 364.465 653 355.279 653ZM492.826 487C497.773 487 502.015 488.67 505.548 492.013C509.082 495.18 510.935 499.229 511.114 504.155V567.757C510.935 574.97 511.378 581.656 512.439 587.814C513.676 593.795 516.501 599.162 520.92 603.913C525.335 608.664 530.901 611.215 537.615 611.566H622.423C627.371 611.742 631.433 613.588 634.614 617.109C637.971 620.628 639.651 624.849 639.651 629.775C639.475 634.526 637.708 638.572 634.351 641.915C631.17 645.082 627.194 646.755 622.423 646.93H528.605C516.238 646.225 505.991 642.09 497.863 634.526C489.911 626.784 484.168 617.371 480.635 606.288C477.278 595.203 475.511 583.415 475.335 570.924V504.155C475.511 499.404 477.278 495.445 480.635 492.278C483.992 488.935 488.055 487.176 492.826 487ZM725.254 526.585C718.54 526.939 712.887 529.49 708.293 534.239C703.875 538.99 700.694 544.446 698.751 550.602C696.808 556.585 695.836 562.741 695.836 569.076C695.836 575.41 696.718 581.656 698.488 587.814C700.431 593.971 703.698 599.427 708.293 604.175C712.887 608.75 718.54 611.215 725.254 611.566H812.711C823.844 612.62 829.939 618.69 831 629.775C830.824 634.702 828.967 638.837 825.434 642.179C821.9 645.347 817.659 646.93 812.711 646.93H728.169H715.978C703.611 646.225 693.451 641.563 685.499 632.943C677.55 624.146 671.808 614.204 668.274 603.121C664.917 592.036 663.237 580.688 663.237 569.076C663.237 560.455 664.209 551.921 666.152 543.476C668.098 535.03 671.099 527.026 675.165 519.462C679.404 511.719 684.97 505.123 691.86 499.669C698.927 494.213 706.968 491.4 715.978 491.224H721.013H812.711C823.844 492.278 829.939 498.348 831 509.433C831 514.359 829.144 518.494 825.434 521.837C821.9 525.004 817.659 526.585 812.711 526.585H725.254Z" fill="url(#paint24_linear_7_7)"/>
<path d="M355.279 653C346.09 653 336.99 651.943 327.98 649.833C319.147 647.722 310.666 644.641 302.538 640.596C294.41 636.372 287.256 630.832 281.071 623.97C274.886 617.109 271.529 608.926 271 599.427V588.341V504.155C271 499.229 272.767 495.18 276.3 492.013C280.01 488.67 284.339 487 289.286 487C299.889 487.881 305.629 493.597 306.514 504.155V591.244C306.866 596.697 308.899 601.273 312.609 604.967C316.495 608.485 320.737 611.301 325.332 613.412C330.1 615.525 334.96 617.109 339.908 618.163C345.031 619.22 350.155 619.747 355.279 619.747C360.403 619.747 365.437 619.22 370.384 618.163C375.508 617.109 380.366 615.525 384.96 613.412C389.731 611.301 393.97 608.485 397.683 604.967C401.569 601.273 403.689 596.697 404.042 591.244V504.155C404.042 499.229 405.808 495.18 409.345 492.013C413.054 488.67 417.383 487 422.33 487C432.931 487.881 438.76 493.597 439.821 504.155V588.341V599.427C439.292 608.926 435.845 617.109 429.484 623.97C423.302 630.832 416.145 636.372 408.017 640.596C399.889 644.641 391.322 647.722 382.312 649.833C373.475 651.943 364.465 653 355.279 653ZM492.826 487C497.773 487 502.015 488.67 505.548 492.013C509.082 495.18 510.935 499.229 511.114 504.155V567.757C510.935 574.97 511.378 581.656 512.439 587.814C513.676 593.795 516.501 599.162 520.92 603.913C525.335 608.664 530.901 611.215 537.615 611.566H622.423C627.371 611.742 631.433 613.588 634.614 617.109C637.971 620.628 639.651 624.849 639.651 629.775C639.475 634.526 637.708 638.572 634.351 641.915C631.17 645.082 627.194 646.755 622.423 646.93H528.605C516.238 646.225 505.991 642.09 497.863 634.526C489.911 626.784 484.168 617.371 480.635 606.288C477.278 595.203 475.511 583.415 475.335 570.924V504.155C475.511 499.404 477.278 495.445 480.635 492.278C483.992 488.935 488.055 487.176 492.826 487ZM725.254 526.585C718.54 526.939 712.887 529.49 708.293 534.239C703.875 538.99 700.694 544.446 698.751 550.602C696.808 556.585 695.836 562.741 695.836 569.076C695.836 575.41 696.718 581.656 698.488 587.814C700.431 593.971 703.698 599.427 708.293 604.175C712.887 608.75 718.54 611.215 725.254 611.566H812.711C823.844 612.62 829.939 618.69 831 629.775C830.824 634.702 828.967 638.837 825.434 642.179C821.9 645.347 817.659 646.93 812.711 646.93H728.169H715.978C703.611 646.225 693.451 641.563 685.499 632.943C677.55 624.146 671.808 614.204 668.274 603.121C664.917 592.036 663.237 580.688 663.237 569.076C663.237 560.455 664.209 551.921 666.152 543.476C668.098 535.03 671.099 527.026 675.165 519.462C679.404 511.719 684.97 505.123 691.86 499.669C698.927 494.213 706.968 491.4 715.978 491.224H721.013H812.711C823.844 492.278 829.939 498.348 831 509.433C831 514.359 829.144 518.494 825.434 521.837C821.9 525.004 817.659 526.585 812.711 526.585H725.254Z" fill="url(#paint25_linear_7_7)"/>
<path d="M355.279 654C346.09 654 336.99 652.943 327.98 650.833C319.147 648.722 310.666 645.641 302.538 641.596C294.41 637.372 287.256 631.832 281.071 624.97C274.886 618.109 271.529 609.926 271 600.427V589.341V505.155C271 500.229 272.767 496.18 276.3 493.013C280.01 489.67 284.339 488 289.286 488C299.889 488.881 305.629 494.597 306.514 505.155V592.244C306.866 597.697 308.899 602.273 312.609 605.967C316.495 609.485 320.737 612.301 325.332 614.412C330.1 616.525 334.96 618.109 339.908 619.163C345.031 620.22 350.155 620.747 355.279 620.747C360.403 620.747 365.437 620.22 370.384 619.163C375.508 618.109 380.366 616.525 384.96 614.412C389.731 612.301 393.97 609.485 397.683 605.967C401.569 602.273 403.689 597.697 404.042 592.244V505.155C404.042 500.229 405.808 496.18 409.345 493.013C413.054 489.67 417.383 488 422.33 488C432.931 488.881 438.76 494.597 439.821 505.155V589.341V600.427C439.292 609.926 435.845 618.109 429.484 624.97C423.302 631.832 416.145 637.372 408.017 641.596C399.889 645.641 391.322 648.722 382.312 650.833C373.475 652.943 364.465 654 355.279 654ZM492.826 488C497.773 488 502.015 489.67 505.548 493.013C509.082 496.18 510.935 500.229 511.114 505.155V568.757C510.935 575.97 511.378 582.656 512.439 588.814C513.676 594.795 516.501 600.162 520.92 604.913C525.335 609.664 530.901 612.215 537.615 612.566H622.423C627.371 612.742 631.433 614.588 634.614 618.109C637.971 621.628 639.651 625.849 639.651 630.775C639.475 635.526 637.708 639.572 634.351 642.915C631.17 646.082 627.194 647.755 622.423 647.93H528.605C516.238 647.225 505.991 643.09 497.863 635.526C489.911 627.784 484.168 618.371 480.635 607.288C477.278 596.203 475.511 584.415 475.335 571.924V505.155C475.511 500.404 477.278 496.445 480.635 493.278C483.992 489.935 488.055 488.176 492.826 488ZM725.254 527.585C718.54 527.939 712.887 530.49 708.293 535.239C703.875 539.99 700.694 545.446 698.751 551.602C696.808 557.585 695.836 563.741 695.836 570.076C695.836 576.41 696.718 582.656 698.488 588.814C700.431 594.971 703.698 600.427 708.293 605.175C712.887 609.75 718.54 612.215 725.254 612.566H812.711C823.844 613.62 829.939 619.69 831 630.775C830.824 635.702 828.967 639.837 825.434 643.179C821.9 646.347 817.659 647.93 812.711 647.93H728.169H715.978C703.611 647.225 693.451 642.563 685.499 633.943C677.55 625.146 671.808 615.204 668.274 604.121C664.917 593.036 663.237 581.688 663.237 570.076C663.237 561.455 664.209 552.921 666.152 544.476C668.098 536.03 671.099 528.026 675.165 520.462C679.404 512.719 684.97 506.123 691.86 500.669C698.927 495.213 706.968 492.4 715.978 492.224H721.013H812.711C823.844 493.278 829.939 499.348 831 510.433C831 515.359 829.144 519.494 825.434 522.837C821.9 526.004 817.659 527.585 812.711 527.585H725.254Z" fill="url(#paint26_linear_7_7)"/>
<path d="M356.279 651C347.09 651 337.99 649.943 328.98 647.833C320.147 645.722 311.666 642.641 303.538 638.596C295.41 634.372 288.256 628.832 282.071 621.97C275.886 615.109 272.529 606.926 272 597.427V586.341V502.155C272 497.229 273.767 493.18 277.3 490.013C281.01 486.67 285.339 485 290.286 485C300.889 485.881 306.629 491.597 307.514 502.155V589.244C307.866 594.697 309.899 599.273 313.609 602.967C317.495 606.485 321.737 609.301 326.332 611.412C331.1 613.525 335.96 615.109 340.908 616.163C346.031 617.22 351.155 617.747 356.279 617.747C361.403 617.747 366.437 617.22 371.384 616.163C376.508 615.109 381.366 613.525 385.96 611.412C390.731 609.301 394.97 606.485 398.683 602.967C402.569 599.273 404.689 594.697 405.042 589.244V502.155C405.042 497.229 406.808 493.18 410.345 490.013C414.054 486.67 418.383 485 423.33 485C433.931 485.881 439.76 491.597 440.821 502.155V586.341V597.427C440.292 606.926 436.845 615.109 430.484 621.97C424.302 628.832 417.145 634.372 409.017 638.596C400.889 642.641 392.322 645.722 383.312 647.833C374.475 649.943 365.465 651 356.279 651ZM493.826 485C498.773 485 503.015 486.67 506.548 490.013C510.082 493.18 511.935 497.229 512.114 502.155V565.757C511.935 572.97 512.378 579.656 513.439 585.814C514.676 591.795 517.501 597.162 521.92 601.913C526.335 606.664 531.901 609.215 538.615 609.566H623.423C628.371 609.742 632.433 611.588 635.614 615.109C638.971 618.628 640.651 622.849 640.651 627.775C640.475 632.526 638.708 636.572 635.351 639.915C632.17 643.082 628.194 644.755 623.423 644.93H529.605C517.238 644.225 506.991 640.09 498.863 632.526C490.911 624.784 485.168 615.371 481.635 604.288C478.278 593.203 476.511 581.415 476.335 568.924V502.155C476.511 497.404 478.278 493.445 481.635 490.278C484.992 486.935 489.055 485.176 493.826 485ZM726.254 524.585C719.54 524.939 713.887 527.49 709.293 532.239C704.875 536.99 701.694 542.446 699.751 548.602C697.808 554.585 696.836 560.741 696.836 567.076C696.836 573.41 697.718 579.656 699.488 585.814C701.431 591.971 704.698 597.427 709.293 602.175C713.887 606.75 719.54 609.215 726.254 609.566H813.711C824.844 610.62 830.939 616.69 832 627.775C831.824 632.702 829.967 636.837 826.434 640.179C822.9 643.347 818.659 644.93 813.711 644.93H729.169H716.978C704.611 644.225 694.451 639.563 686.499 630.943C678.55 622.146 672.808 612.204 669.274 601.121C665.917 590.036 664.237 578.688 664.237 567.076C664.237 558.455 665.209 549.921 667.152 541.476C669.098 533.03 672.099 525.026 676.165 517.462C680.404 509.719 685.97 503.123 692.86 497.669C699.927 492.213 707.968 489.4 716.978 489.224H722.013H813.711C824.844 490.278 830.939 496.348 832 507.433C832 512.359 830.144 516.494 826.434 519.837C822.9 523.004 818.659 524.585 813.711 524.585H726.254Z" fill="url(#paint27_linear_7_7)"/>
<path d="M355.279 652C346.09 652 336.99 650.943 327.98 648.833C319.147 646.722 310.666 643.641 302.538 639.596C294.41 635.372 287.256 629.832 281.071 622.97C274.886 616.109 271.529 607.926 271 598.427V587.341V503.155C271 498.229 272.767 494.18 276.3 491.013C280.01 487.67 284.339 486 289.286 486C299.889 486.881 305.629 492.597 306.514 503.155V590.244C306.866 595.697 308.899 600.273 312.609 603.967C316.495 607.485 320.737 610.301 325.332 612.412C330.1 614.525 334.96 616.109 339.908 617.163C345.031 618.22 350.155 618.747 355.279 618.747C360.403 618.747 365.437 618.22 370.384 617.163C375.508 616.109 380.366 614.525 384.96 612.412C389.731 610.301 393.97 607.485 397.683 603.967C401.569 600.273 403.689 595.697 404.042 590.244V503.155C404.042 498.229 405.808 494.18 409.345 491.013C413.054 487.67 417.383 486 422.33 486C432.931 486.881 438.76 492.597 439.821 503.155V587.341V598.427C439.292 607.926 435.845 616.109 429.484 622.97C423.302 629.832 416.145 635.372 408.017 639.596C399.889 643.641 391.322 646.722 382.312 648.833C373.475 650.943 364.465 652 355.279 652ZM492.826 486C497.773 486 502.015 487.67 505.548 491.013C509.082 494.18 510.935 498.229 511.114 503.155V566.757C510.935 573.97 511.378 580.656 512.439 586.814C513.676 592.795 516.501 598.162 520.92 602.913C525.335 607.664 530.901 610.215 537.615 610.566H622.423C627.371 610.742 631.433 612.588 634.614 616.109C637.971 619.628 639.651 623.849 639.651 628.775C639.475 633.526 637.708 637.572 634.351 640.915C631.17 644.082 627.194 645.755 622.423 645.93H528.605C516.238 645.225 505.991 641.09 497.863 633.526C489.911 625.784 484.168 616.371 480.635 605.288C477.278 594.203 475.511 582.415 475.335 569.924V503.155C475.511 498.404 477.278 494.445 480.635 491.278C483.992 487.935 488.055 486.176 492.826 486ZM725.254 525.585C718.54 525.939 712.887 528.49 708.293 533.239C703.875 537.99 700.694 543.446 698.751 549.602C696.808 555.585 695.836 561.741 695.836 568.076C695.836 574.41 696.718 580.656 698.488 586.814C700.431 592.971 703.698 598.427 708.293 603.175C712.887 607.75 718.54 610.215 725.254 610.566H812.711C823.844 611.62 829.939 617.69 831 628.775C830.824 633.702 828.967 637.837 825.434 641.179C821.9 644.347 817.659 645.93 812.711 645.93H728.169H715.978C703.611 645.225 693.451 640.563 685.499 631.943C677.55 623.146 671.808 613.204 668.274 602.121C664.917 591.036 663.237 579.688 663.237 568.076C663.237 559.455 664.209 550.921 666.152 542.476C668.098 534.03 671.099 526.026 675.165 518.462C679.404 510.719 684.97 504.123 691.86 498.669C698.927 493.213 706.968 490.4 715.978 490.224H721.013H812.711C823.844 491.278 829.939 497.348 831 508.433C831 513.359 829.144 517.494 825.434 520.837C821.9 524.004 817.659 525.585 812.711 525.585H725.254Z" fill="url(#paint28_linear_7_7)"/>
<path d="M355.279 652C346.09 652 336.99 650.943 327.98 648.833C319.147 646.722 310.666 643.641 302.538 639.596C294.41 635.372 287.256 629.832 281.071 622.97C274.886 616.109 271.529 607.926 271 598.427V587.341V503.155C271 498.229 272.767 494.18 276.3 491.013C280.01 487.67 284.339 486 289.286 486C299.889 486.881 305.629 492.597 306.514 503.155V590.244C306.866 595.697 308.899 600.273 312.609 603.967C316.495 607.485 320.737 610.301 325.332 612.412C330.1 614.525 334.96 616.109 339.908 617.163C345.031 618.22 350.155 618.747 355.279 618.747C360.403 618.747 365.437 618.22 370.384 617.163C375.508 616.109 380.366 614.525 384.96 612.412C389.731 610.301 393.97 607.485 397.683 603.967C401.569 600.273 403.689 595.697 404.042 590.244V503.155C404.042 498.229 405.808 494.18 409.345 491.013C413.054 487.67 417.383 486 422.33 486C432.931 486.881 438.76 492.597 439.821 503.155V587.341V598.427C439.292 607.926 435.845 616.109 429.484 622.97C423.302 629.832 416.145 635.372 408.017 639.596C399.889 643.641 391.322 646.722 382.312 648.833C373.475 650.943 364.465 652 355.279 652ZM492.826 486C497.773 486 502.015 487.67 505.548 491.013C509.082 494.18 510.935 498.229 511.114 503.155V566.757C510.935 573.97 511.378 580.656 512.439 586.814C513.676 592.795 516.501 598.162 520.92 602.913C525.335 607.664 530.901 610.215 537.615 610.566H622.423C627.371 610.742 631.433 612.588 634.614 616.109C637.971 619.628 639.651 623.849 639.651 628.775C639.475 633.526 637.708 637.572 634.351 640.915C631.17 644.082 627.194 645.755 622.423 645.93H528.605C516.238 645.225 505.991 641.09 497.863 633.526C489.911 625.784 484.168 616.371 480.635 605.288C477.278 594.203 475.511 582.415 475.335 569.924V503.155C475.511 498.404 477.278 494.445 480.635 491.278C483.992 487.935 488.055 486.176 492.826 486ZM725.254 525.585C718.54 525.939 712.887 528.49 708.293 533.239C703.875 537.99 700.694 543.446 698.751 549.602C696.808 555.585 695.836 561.741 695.836 568.076C695.836 574.41 696.718 580.656 698.488 586.814C700.431 592.971 703.698 598.427 708.293 603.175C712.887 607.75 718.54 610.215 725.254 610.566H812.711C823.844 611.62 829.939 617.69 831 628.775C830.824 633.702 828.967 637.837 825.434 641.179C821.9 644.347 817.659 645.93 812.711 645.93H728.169H715.978C703.611 645.225 693.451 640.563 685.499 631.943C677.55 623.146 671.808 613.204 668.274 602.121C664.917 591.036 663.237 579.688 663.237 568.076C663.237 559.455 664.209 550.921 666.152 542.476C668.098 534.03 671.099 526.026 675.165 518.462C679.404 510.719 684.97 504.123 691.86 498.669C698.927 493.213 706.968 490.4 715.978 490.224H721.013H812.711C823.844 491.278 829.939 497.348 831 508.433C831 513.359 829.144 517.494 825.434 520.837C821.9 524.004 817.659 525.585 812.711 525.585H725.254Z" fill="url(#paint29_linear_7_7)"/>
<path d="M355.279 653C346.09 653 336.99 651.943 327.98 649.833C319.147 647.722 310.666 644.641 302.538 640.596C294.41 636.372 287.256 630.832 281.071 623.97C274.886 617.109 271.529 608.926 271 599.427V588.341V504.155C271 499.229 272.767 495.18 276.3 492.013C280.01 488.67 284.339 487 289.286 487C299.889 487.881 305.629 493.597 306.514 504.155V591.244C306.866 596.697 308.899 601.273 312.609 604.967C316.495 608.485 320.737 611.301 325.332 613.412C330.1 615.525 334.96 617.109 339.908 618.163C345.031 619.22 350.155 619.747 355.279 619.747C360.403 619.747 365.437 619.22 370.384 618.163C375.508 617.109 380.366 615.525 384.96 613.412C389.731 611.301 393.97 608.485 397.683 604.967C401.569 601.273 403.689 596.697 404.042 591.244V504.155C404.042 499.229 405.808 495.18 409.345 492.013C413.054 488.67 417.383 487 422.33 487C432.931 487.881 438.76 493.597 439.821 504.155V588.341V599.427C439.292 608.926 435.845 617.109 429.484 623.97C423.302 630.832 416.145 636.372 408.017 640.596C399.889 644.641 391.322 647.722 382.312 649.833C373.475 651.943 364.465 653 355.279 653ZM492.826 487C497.773 487 502.015 488.67 505.548 492.013C509.082 495.18 510.935 499.229 511.114 504.155V567.757C510.935 574.97 511.378 581.656 512.439 587.814C513.676 593.795 516.501 599.162 520.92 603.913C525.335 608.664 530.901 611.215 537.615 611.566H622.423C627.371 611.742 631.433 613.588 634.614 617.109C637.971 620.628 639.651 624.849 639.651 629.775C639.475 634.526 637.708 638.572 634.351 641.915C631.17 645.082 627.194 646.755 622.423 646.93H528.605C516.238 646.225 505.991 642.09 497.863 634.526C489.911 626.784 484.168 617.371 480.635 606.288C477.278 595.203 475.511 583.415 475.335 570.924V504.155C475.511 499.404 477.278 495.445 480.635 492.278C483.992 488.935 488.055 487.176 492.826 487ZM725.254 526.585C718.54 526.939 712.887 529.49 708.293 534.239C703.875 538.99 700.694 544.446 698.751 550.602C696.808 556.585 695.836 562.741 695.836 569.076C695.836 575.41 696.718 581.656 698.488 587.814C700.431 593.971 703.698 599.427 708.293 604.175C712.887 608.75 718.54 611.215 725.254 611.566H812.711C823.844 612.62 829.939 618.69 831 629.775C830.824 634.702 828.967 638.837 825.434 642.179C821.9 645.347 817.659 646.93 812.711 646.93H728.169H715.978C703.611 646.225 693.451 641.563 685.499 632.943C677.55 624.146 671.808 614.204 668.274 603.121C664.917 592.036 663.237 580.688 663.237 569.076C663.237 560.455 664.209 551.921 666.152 543.476C668.098 535.03 671.099 527.026 675.165 519.462C679.404 511.719 684.97 505.123 691.86 499.669C698.927 494.213 706.968 491.4 715.978 491.224H721.013H812.711C823.844 492.278 829.939 498.348 831 509.433C831 514.359 829.144 518.494 825.434 521.837C821.9 525.004 817.659 526.585 812.711 526.585H725.254Z" fill="url(#paint30_linear_7_7)"/>
<path d="M355.279 646C346.09 646 336.99 644.943 327.98 642.833C319.147 640.722 310.666 637.641 302.538 633.596C294.41 629.372 287.256 623.832 281.071 616.97C274.886 610.109 271.529 601.926 271 592.427V581.341V497.155C271 492.229 272.767 488.18 276.3 485.013C280.01 481.67 284.339 480 289.286 480C299.889 480.881 305.629 486.597 306.514 497.155V584.244C306.866 589.697 308.899 594.273 312.609 597.967C316.495 601.485 320.737 604.301 325.332 606.412C330.1 608.525 334.96 610.109 339.908 611.163C345.031 612.22 350.155 612.747 355.279 612.747C360.403 612.747 365.437 612.22 370.384 611.163C375.508 610.109 380.366 608.525 384.96 606.412C389.731 604.301 393.97 601.485 397.683 597.967C401.569 594.273 403.689 589.697 404.042 584.244V497.155C404.042 492.229 405.808 488.18 409.345 485.013C413.054 481.67 417.383 480 422.33 480C432.931 480.881 438.76 486.597 439.821 497.155V581.341V592.427C439.292 601.926 435.845 610.109 429.484 616.97C423.302 623.832 416.145 629.372 408.017 633.596C399.889 637.641 391.322 640.722 382.312 642.833C373.475 644.943 364.465 646 355.279 646ZM492.826 480C497.773 480 502.015 481.67 505.548 485.013C509.082 488.18 510.935 492.229 511.114 497.155V560.757C510.935 567.97 511.378 574.656 512.439 580.814C513.676 586.795 516.501 592.162 520.92 596.913C525.335 601.664 530.901 604.215 537.615 604.566H622.423C627.371 604.742 631.433 606.588 634.614 610.109C637.971 613.628 639.651 617.849 639.651 622.775C639.475 627.526 637.708 631.572 634.351 634.915C631.17 638.082 627.194 639.755 622.423 639.93H528.605C516.238 639.225 505.991 635.09 497.863 627.526C489.911 619.784 484.168 610.371 480.635 599.288C477.278 588.203 475.511 576.415 475.335 563.924V497.155C475.511 492.404 477.278 488.445 480.635 485.278C483.992 481.935 488.055 480.176 492.826 480ZM725.254 519.585C718.54 519.939 712.887 522.49 708.293 527.239C703.875 531.99 700.694 537.446 698.751 543.602C696.808 549.585 695.836 555.741 695.836 562.076C695.836 568.41 696.718 574.656 698.488 580.814C700.431 586.971 703.698 592.427 708.293 597.175C712.887 601.75 718.54 604.215 725.254 604.566H812.711C823.844 605.62 829.939 611.69 831 622.775C830.824 627.702 828.967 631.837 825.434 635.179C821.9 638.347 817.659 639.93 812.711 639.93H728.169H715.978C703.611 639.225 693.451 634.563 685.499 625.943C677.55 617.146 671.808 607.204 668.274 596.121C664.917 585.036 663.237 573.688 663.237 562.076C663.237 553.455 664.209 544.921 666.152 536.476C668.098 528.03 671.099 520.026 675.165 512.462C679.404 504.719 684.97 498.123 691.86 492.669C698.927 487.213 706.968 484.4 715.978 484.224H721.013H812.711C823.844 485.278 829.939 491.348 831 502.433C831 507.359 829.144 511.494 825.434 514.837C821.9 518.004 817.659 519.585 812.711 519.585H725.254Z" fill="#C8D9D9"/>
<defs>
<linearGradient id="paint0_linear_7_7" x1="988.373" y1="225.656" x2="131.776" y2="877.846" gradientUnits="userSpaceOnUse">
<stop stop-color="#5EE1F5"/>
<stop offset="0.341346" stop-color="#43D7CA"/>
<stop offset="0.668269" stop-color="#1AB087"/>
<stop offset="1" stop-color="#126E55"/>
</linearGradient>
<linearGradient id="paint1_linear_7_7" x1="258.679" y1="938.222" x2="839.032" y2="165.07" gradientUnits="userSpaceOnUse">
<stop stop-color="#5EE1F5"/>
<stop offset="0.341346" stop-color="#43D7CA"/>
<stop offset="0.668269" stop-color="#1AB087"/>
<stop offset="1" stop-color="#126E55"/>
</linearGradient>
<linearGradient id="paint2_linear_7_7" x1="257.538" y1="873.062" x2="826.569" y2="210.092" gradientUnits="userSpaceOnUse">
<stop stop-color="#504F4F"/>
<stop offset="1" stop-color="#818181"/>
</linearGradient>
<linearGradient id="paint3_linear_7_7" x1="547.988" y1="411.172" x2="547.988" y2="680.652" gradientUnits="userSpaceOnUse">
<stop stop-color="#58DFEB"/>
<stop offset="1" stop-color="#158A6B"/>
</linearGradient>
<linearGradient id="paint4_linear_7_7" x1="546.457" y1="413.318" x2="546.457" y2="683.562" gradientUnits="userSpaceOnUse">
<stop stop-color="#58DFEB"/>
<stop offset="1" stop-color="#158A6B"/>
</linearGradient>
<linearGradient id="paint5_linear_7_7" x1="546.457" y1="413.318" x2="546.457" y2="683.562" gradientUnits="userSpaceOnUse">
<stop stop-color="#58DFEB"/>
<stop offset="1" stop-color="#158A6B"/>
</linearGradient>
<linearGradient id="paint6_linear_7_7" x1="546.457" y1="414.318" x2="546.457" y2="684.562" gradientUnits="userSpaceOnUse">
<stop stop-color="#58DFEB"/>
<stop offset="1" stop-color="#158A6B"/>
</linearGradient>
<linearGradient id="paint7_linear_7_7" x1="547.457" y1="418.318" x2="547.457" y2="688.562" gradientUnits="userSpaceOnUse">
<stop stop-color="#58DFEB"/>
<stop offset="1" stop-color="#158A6B"/>
</linearGradient>
<linearGradient id="paint8_linear_7_7" x1="546.457" y1="419.318" x2="546.457" y2="689.562" gradientUnits="userSpaceOnUse">
<stop stop-color="#58DFEB"/>
<stop offset="1" stop-color="#158A6B"/>
</linearGradient>
<linearGradient id="paint9_linear_7_7" x1="546.457" y1="419.318" x2="546.457" y2="689.562" gradientUnits="userSpaceOnUse">
<stop stop-color="#58DFEB"/>
<stop offset="1" stop-color="#158A6B"/>
</linearGradient>
<linearGradient id="paint10_linear_7_7" x1="546.457" y1="420.318" x2="546.457" y2="690.562" gradientUnits="userSpaceOnUse">
<stop stop-color="#58DFEB"/>
<stop offset="1" stop-color="#158A6B"/>
</linearGradient>
<linearGradient id="paint11_linear_7_7" x1="547.457" y1="417.318" x2="547.457" y2="687.562" gradientUnits="userSpaceOnUse">
<stop stop-color="#58DFEB"/>
<stop offset="1" stop-color="#158A6B"/>
</linearGradient>
<linearGradient id="paint12_linear_7_7" x1="546.457" y1="418.318" x2="546.457" y2="688.562" gradientUnits="userSpaceOnUse">
<stop stop-color="#58DFEB"/>
<stop offset="1" stop-color="#158A6B"/>
</linearGradient>
<linearGradient id="paint13_linear_7_7" x1="546.457" y1="418.318" x2="546.457" y2="688.562" gradientUnits="userSpaceOnUse">
<stop stop-color="#58DFEB"/>
<stop offset="1" stop-color="#158A6B"/>
</linearGradient>
<linearGradient id="paint14_linear_7_7" x1="546.457" y1="419.318" x2="546.457" y2="689.562" gradientUnits="userSpaceOnUse">
<stop stop-color="#58DFEB"/>
<stop offset="1" stop-color="#158A6B"/>
</linearGradient>
<linearGradient id="paint15_linear_7_7" x1="547.457" y1="416.318" x2="547.457" y2="686.562" gradientUnits="userSpaceOnUse">
<stop stop-color="#58DFEB"/>
<stop offset="1" stop-color="#158A6B"/>
</linearGradient>
<linearGradient id="paint16_linear_7_7" x1="546.457" y1="417.318" x2="546.457" y2="687.562" gradientUnits="userSpaceOnUse">
<stop stop-color="#58DFEB"/>
<stop offset="1" stop-color="#158A6B"/>
</linearGradient>
<linearGradient id="paint17_linear_7_7" x1="546.457" y1="417.318" x2="546.457" y2="687.562" gradientUnits="userSpaceOnUse">
<stop stop-color="#58DFEB"/>
<stop offset="1" stop-color="#158A6B"/>
</linearGradient>
<linearGradient id="paint18_linear_7_7" x1="546.457" y1="418.318" x2="546.457" y2="688.562" gradientUnits="userSpaceOnUse">
<stop stop-color="#58DFEB"/>
<stop offset="1" stop-color="#158A6B"/>
</linearGradient>
<linearGradient id="paint19_linear_7_7" x1="547.457" y1="415.318" x2="547.457" y2="685.562" gradientUnits="userSpaceOnUse">
<stop stop-color="#58DFEB"/>
<stop offset="1" stop-color="#158A6B"/>
</linearGradient>
<linearGradient id="paint20_linear_7_7" x1="546.457" y1="416.318" x2="546.457" y2="686.562" gradientUnits="userSpaceOnUse">
<stop stop-color="#58DFEB"/>
<stop offset="1" stop-color="#158A6B"/>
</linearGradient>
<linearGradient id="paint21_linear_7_7" x1="546.457" y1="416.318" x2="546.457" y2="686.562" gradientUnits="userSpaceOnUse">
<stop stop-color="#58DFEB"/>
<stop offset="1" stop-color="#158A6B"/>
</linearGradient>
<linearGradient id="paint22_linear_7_7" x1="546.457" y1="417.318" x2="546.457" y2="687.562" gradientUnits="userSpaceOnUse">
<stop stop-color="#58DFEB"/>
<stop offset="1" stop-color="#158A6B"/>
</linearGradient>
<linearGradient id="paint23_linear_7_7" x1="547.457" y1="414.318" x2="547.457" y2="684.562" gradientUnits="userSpaceOnUse">
<stop stop-color="#58DFEB"/>
<stop offset="1" stop-color="#158A6B"/>
</linearGradient>
<linearGradient id="paint24_linear_7_7" x1="546.457" y1="415.318" x2="546.457" y2="685.562" gradientUnits="userSpaceOnUse">
<stop stop-color="#58DFEB"/>
<stop offset="1" stop-color="#158A6B"/>
</linearGradient>
<linearGradient id="paint25_linear_7_7" x1="546.457" y1="415.318" x2="546.457" y2="685.562" gradientUnits="userSpaceOnUse">
<stop stop-color="#58DFEB"/>
<stop offset="1" stop-color="#158A6B"/>
</linearGradient>
<linearGradient id="paint26_linear_7_7" x1="546.457" y1="416.318" x2="546.457" y2="686.562" gradientUnits="userSpaceOnUse">
<stop stop-color="#58DFEB"/>
<stop offset="1" stop-color="#158A6B"/>
</linearGradient>
<linearGradient id="paint27_linear_7_7" x1="547.457" y1="413.318" x2="547.457" y2="683.562" gradientUnits="userSpaceOnUse">
<stop stop-color="#58DFEB"/>
<stop offset="1" stop-color="#158A6B"/>
</linearGradient>
<linearGradient id="paint28_linear_7_7" x1="546.457" y1="414.318" x2="546.457" y2="684.562" gradientUnits="userSpaceOnUse">
<stop stop-color="#58DFEB"/>
<stop offset="1" stop-color="#158A6B"/>
</linearGradient>
<linearGradient id="paint29_linear_7_7" x1="546.457" y1="414.318" x2="546.457" y2="684.562" gradientUnits="userSpaceOnUse">
<stop stop-color="#58DFEB"/>
<stop offset="1" stop-color="#158A6B"/>
</linearGradient>
<linearGradient id="paint30_linear_7_7" x1="546.457" y1="415.318" x2="546.457" y2="685.562" gradientUnits="userSpaceOnUse">
<stop stop-color="#58DFEB"/>
<stop offset="1" stop-color="#158A6B"/>
</linearGradient>
</defs>
</svg>
