<svg width="1000" height="1000" viewBox="0 0 1000 1000" fill="none" xmlns="http://www.w3.org/2000/svg">
<g clip-path="url(#clip0_2_158)">
<rect width="1000" height="1000" rx="500" fill="white"/>
<circle cx="500" cy="500" r="500" fill="url(#paint0_linear_2_158)"/>
<g filter="url(#filter0_d_2_158)">
<circle cx="450" cy="450" r="450" transform="matrix(0 1 1 0 50 50)" fill="url(#paint1_linear_2_158)"/>
</g>
<g filter="url(#filter1_i_2_158)">
<ellipse cx="500" cy="500" rx="402" ry="411" fill="url(#paint2_linear_2_158)"/>
</g>
<g filter="url(#filter2_d_2_158)">
<path d="M324.262 596.127C315.798 596.127 307.416 595.15 299.115 593.197C290.977 591.244 283.165 588.396 275.678 584.652C268.191 580.746 261.599 575.619 255.902 569.271C250.206 562.924 247.113 555.355 246.625 546.566V536.312V458.432C246.625 453.874 248.253 450.131 251.508 447.201C254.926 444.109 258.913 442.562 263.471 442.562C273.236 443.376 278.526 448.666 279.34 458.432V538.998C279.665 544.044 281.537 548.275 284.955 551.693C288.536 554.949 292.442 557.553 296.674 559.506C301.068 561.459 305.544 562.924 310.102 563.9C314.822 564.877 319.542 565.365 324.262 565.365C328.982 565.365 333.62 564.877 338.178 563.9C342.898 562.924 347.374 561.459 351.605 559.506C356 557.553 359.906 554.949 363.324 551.693C366.905 548.275 368.858 544.044 369.184 538.998V458.432C369.184 453.874 370.811 450.131 374.066 447.201C377.484 444.109 381.472 442.562 386.029 442.562C395.795 443.376 401.166 448.666 402.143 458.432V536.312V546.566C401.654 555.355 398.48 562.924 392.621 569.271C386.924 575.619 380.333 580.746 372.846 584.652C365.359 588.396 357.465 591.244 349.164 593.197C341.026 595.15 332.725 596.127 324.262 596.127ZM450.971 442.562C455.528 442.562 459.434 444.109 462.689 447.201C465.945 450.131 467.654 453.874 467.816 458.432V517.27C467.654 523.943 468.061 530.128 469.037 535.824C470.176 541.358 472.781 546.322 476.85 550.717C480.919 555.111 486.046 557.471 492.23 557.797H570.355C574.913 557.96 578.656 559.669 581.586 562.924C584.678 566.179 586.225 570.085 586.225 574.643C586.062 579.037 584.434 582.781 581.342 585.873C578.412 588.803 574.75 590.349 570.355 590.512H483.93C472.536 589.861 463.096 586.036 455.609 579.037C448.285 571.876 442.995 563.168 439.74 552.914C436.648 542.66 435.02 531.755 434.857 520.199V458.432C435.02 454.037 436.648 450.375 439.74 447.445C442.833 444.353 446.576 442.725 450.971 442.562ZM665.082 479.184C658.897 479.509 653.689 481.869 649.457 486.264C645.388 490.658 642.458 495.704 640.668 501.4C638.878 506.934 637.982 512.631 637.982 518.49C637.982 524.35 638.796 530.128 640.424 535.824C642.214 541.521 645.225 546.566 649.457 550.961C653.689 555.193 658.897 557.471 665.082 557.797H745.648C755.902 558.773 761.518 564.389 762.494 574.643C762.331 579.2 760.622 583.025 757.367 586.117C754.112 589.047 750.206 590.512 745.648 590.512H667.768H656.537C645.144 589.861 635.785 585.548 628.461 577.572C621.137 569.434 615.847 560.238 612.592 549.984C609.499 539.73 607.953 529.232 607.953 518.49C607.953 510.515 608.848 502.621 610.639 494.809C612.429 486.996 615.196 479.59 618.939 472.592C622.846 465.43 627.973 459.327 634.32 454.281C640.831 449.236 648.236 446.632 656.537 446.469H661.176H745.648C755.902 447.445 761.518 453.061 762.494 463.314C762.494 467.872 760.785 471.697 757.367 474.789C754.112 477.719 750.206 479.184 745.648 479.184H665.082Z" fill="url(#paint3_linear_2_158)"/>
</g>
<path d="M323.262 598.127C314.798 598.127 306.416 597.15 298.115 595.197C289.977 593.244 282.165 590.396 274.678 586.652C267.191 582.746 260.599 577.619 254.902 571.271C249.206 564.924 246.113 557.355 245.625 548.566V538.312V460.432C245.625 455.874 247.253 452.131 250.508 449.201C253.926 446.109 257.913 444.562 262.471 444.562C272.236 445.376 277.526 450.666 278.34 460.432V540.998C278.665 546.044 280.537 550.275 283.955 553.693C287.536 556.949 291.442 559.553 295.674 561.506C300.068 563.459 304.544 564.924 309.102 565.9C313.822 566.877 318.542 567.365 323.262 567.365C327.982 567.365 332.62 566.877 337.178 565.9C341.898 564.924 346.374 563.459 350.605 561.506C355 559.553 358.906 556.949 362.324 553.693C365.905 550.275 367.858 546.044 368.184 540.998V460.432C368.184 455.874 369.811 452.131 373.066 449.201C376.484 446.109 380.472 444.562 385.029 444.562C394.795 445.376 400.166 450.666 401.143 460.432V538.312V548.566C400.654 557.355 397.48 564.924 391.621 571.271C385.924 577.619 379.333 582.746 371.846 586.652C364.359 590.396 356.465 593.244 348.164 595.197C340.026 597.15 331.725 598.127 323.262 598.127ZM449.971 444.562C454.528 444.562 458.434 446.109 461.689 449.201C464.945 452.131 466.654 455.874 466.816 460.432V519.27C466.654 525.943 467.061 532.128 468.037 537.824C469.176 543.358 471.781 548.322 475.85 552.717C479.919 557.111 485.046 559.471 491.23 559.797H569.355C573.913 559.96 577.656 561.669 580.586 564.924C583.678 568.179 585.225 572.085 585.225 576.643C585.062 581.037 583.434 584.781 580.342 587.873C577.412 590.803 573.75 592.349 569.355 592.512H482.93C471.536 591.861 462.096 588.036 454.609 581.037C447.285 573.876 441.995 565.168 438.74 554.914C435.648 544.66 434.02 533.755 433.857 522.199V460.432C434.02 456.037 435.648 452.375 438.74 449.445C441.833 446.353 445.576 444.725 449.971 444.562ZM664.082 481.184C657.897 481.509 652.689 483.869 648.457 488.264C644.388 492.658 641.458 497.704 639.668 503.4C637.878 508.934 636.982 514.631 636.982 520.49C636.982 526.35 637.796 532.128 639.424 537.824C641.214 543.521 644.225 548.566 648.457 552.961C652.689 557.193 657.897 559.471 664.082 559.797H744.648C754.902 560.773 760.518 566.389 761.494 576.643C761.331 581.2 759.622 585.025 756.367 588.117C753.112 591.047 749.206 592.512 744.648 592.512H666.768H655.537C644.144 591.861 634.785 587.548 627.461 579.572C620.137 571.434 614.847 562.238 611.592 551.984C608.499 541.73 606.953 531.232 606.953 520.49C606.953 512.515 607.848 504.621 609.639 496.809C611.429 488.996 614.196 481.59 617.939 474.592C621.846 467.43 626.973 461.327 633.32 456.281C639.831 451.236 647.236 448.632 655.537 448.469H660.176H744.648C754.902 449.445 760.518 455.061 761.494 465.314C761.494 469.872 759.785 473.697 756.367 476.789C753.112 479.719 749.206 481.184 744.648 481.184H664.082Z" fill="url(#paint4_linear_2_158)"/>
<path d="M323.262 598.127C314.798 598.127 306.416 597.15 298.115 595.197C289.977 593.244 282.165 590.396 274.678 586.652C267.191 582.746 260.599 577.619 254.902 571.271C249.206 564.924 246.113 557.355 245.625 548.566V538.312V460.432C245.625 455.874 247.253 452.131 250.508 449.201C253.926 446.109 257.913 444.562 262.471 444.562C272.236 445.376 277.526 450.666 278.34 460.432V540.998C278.665 546.044 280.537 550.275 283.955 553.693C287.536 556.949 291.442 559.553 295.674 561.506C300.068 563.459 304.544 564.924 309.102 565.9C313.822 566.877 318.542 567.365 323.262 567.365C327.982 567.365 332.62 566.877 337.178 565.9C341.898 564.924 346.374 563.459 350.605 561.506C355 559.553 358.906 556.949 362.324 553.693C365.905 550.275 367.858 546.044 368.184 540.998V460.432C368.184 455.874 369.811 452.131 373.066 449.201C376.484 446.109 380.472 444.562 385.029 444.562C394.795 445.376 400.166 450.666 401.143 460.432V538.312V548.566C400.654 557.355 397.48 564.924 391.621 571.271C385.924 577.619 379.333 582.746 371.846 586.652C364.359 590.396 356.465 593.244 348.164 595.197C340.026 597.15 331.725 598.127 323.262 598.127ZM449.971 444.562C454.528 444.562 458.434 446.109 461.689 449.201C464.945 452.131 466.654 455.874 466.816 460.432V519.27C466.654 525.943 467.061 532.128 468.037 537.824C469.176 543.358 471.781 548.322 475.85 552.717C479.919 557.111 485.046 559.471 491.23 559.797H569.355C573.913 559.96 577.656 561.669 580.586 564.924C583.678 568.179 585.225 572.085 585.225 576.643C585.062 581.037 583.434 584.781 580.342 587.873C577.412 590.803 573.75 592.349 569.355 592.512H482.93C471.536 591.861 462.096 588.036 454.609 581.037C447.285 573.876 441.995 565.168 438.74 554.914C435.648 544.66 434.02 533.755 433.857 522.199V460.432C434.02 456.037 435.648 452.375 438.74 449.445C441.833 446.353 445.576 444.725 449.971 444.562ZM664.082 481.184C657.897 481.509 652.689 483.869 648.457 488.264C644.388 492.658 641.458 497.704 639.668 503.4C637.878 508.934 636.982 514.631 636.982 520.49C636.982 526.35 637.796 532.128 639.424 537.824C641.214 543.521 644.225 548.566 648.457 552.961C652.689 557.193 657.897 559.471 664.082 559.797H744.648C754.902 560.773 760.518 566.389 761.494 576.643C761.331 581.2 759.622 585.025 756.367 588.117C753.112 591.047 749.206 592.512 744.648 592.512H666.768H655.537C644.144 591.861 634.785 587.548 627.461 579.572C620.137 571.434 614.847 562.238 611.592 551.984C608.499 541.73 606.953 531.232 606.953 520.49C606.953 512.515 607.848 504.621 609.639 496.809C611.429 488.996 614.196 481.59 617.939 474.592C621.846 467.43 626.973 461.327 633.32 456.281C639.831 451.236 647.236 448.632 655.537 448.469H660.176H744.648C754.902 449.445 760.518 455.061 761.494 465.314C761.494 469.872 759.785 473.697 756.367 476.789C753.112 479.719 749.206 481.184 744.648 481.184H664.082Z" fill="url(#paint5_linear_2_158)"/>
<path d="M323.262 599.127C314.798 599.127 306.416 598.15 298.115 596.197C289.977 594.244 282.165 591.396 274.678 587.652C267.191 583.746 260.599 578.619 254.902 572.271C249.206 565.924 246.113 558.355 245.625 549.566V539.312V461.432C245.625 456.874 247.253 453.131 250.508 450.201C253.926 447.109 257.913 445.562 262.471 445.562C272.236 446.376 277.526 451.666 278.34 461.432V541.998C278.665 547.044 280.537 551.275 283.955 554.693C287.536 557.949 291.442 560.553 295.674 562.506C300.068 564.459 304.544 565.924 309.102 566.9C313.822 567.877 318.542 568.365 323.262 568.365C327.982 568.365 332.62 567.877 337.178 566.9C341.898 565.924 346.374 564.459 350.605 562.506C355 560.553 358.906 557.949 362.324 554.693C365.905 551.275 367.858 547.044 368.184 541.998V461.432C368.184 456.874 369.811 453.131 373.066 450.201C376.484 447.109 380.472 445.562 385.029 445.562C394.795 446.376 400.166 451.666 401.143 461.432V539.312V549.566C400.654 558.355 397.48 565.924 391.621 572.271C385.924 578.619 379.333 583.746 371.846 587.652C364.359 591.396 356.465 594.244 348.164 596.197C340.026 598.15 331.725 599.127 323.262 599.127ZM449.971 445.562C454.528 445.562 458.434 447.109 461.689 450.201C464.945 453.131 466.654 456.874 466.816 461.432V520.27C466.654 526.943 467.061 533.128 468.037 538.824C469.176 544.358 471.781 549.322 475.85 553.717C479.919 558.111 485.046 560.471 491.23 560.797H569.355C573.913 560.96 577.656 562.669 580.586 565.924C583.678 569.179 585.225 573.085 585.225 577.643C585.062 582.037 583.434 585.781 580.342 588.873C577.412 591.803 573.75 593.349 569.355 593.512H482.93C471.536 592.861 462.096 589.036 454.609 582.037C447.285 574.876 441.995 566.168 438.74 555.914C435.648 545.66 434.02 534.755 433.857 523.199V461.432C434.02 457.037 435.648 453.375 438.74 450.445C441.833 447.353 445.576 445.725 449.971 445.562ZM664.082 482.184C657.897 482.509 652.689 484.869 648.457 489.264C644.388 493.658 641.458 498.704 639.668 504.4C637.878 509.934 636.982 515.631 636.982 521.49C636.982 527.35 637.796 533.128 639.424 538.824C641.214 544.521 644.225 549.566 648.457 553.961C652.689 558.193 657.897 560.471 664.082 560.797H744.648C754.902 561.773 760.518 567.389 761.494 577.643C761.331 582.2 759.622 586.025 756.367 589.117C753.112 592.047 749.206 593.512 744.648 593.512H666.768H655.537C644.144 592.861 634.785 588.548 627.461 580.572C620.137 572.434 614.847 563.238 611.592 552.984C608.499 542.73 606.953 532.232 606.953 521.49C606.953 513.515 607.848 505.621 609.639 497.809C611.429 489.996 614.196 482.59 617.939 475.592C621.846 468.43 626.973 462.327 633.32 457.281C639.831 452.236 647.236 449.632 655.537 449.469H660.176H744.648C754.902 450.445 760.518 456.061 761.494 466.314C761.494 470.872 759.785 474.697 756.367 477.789C753.112 480.719 749.206 482.184 744.648 482.184H664.082Z" fill="url(#paint6_linear_2_158)"/>
<path d="M324.262 603.127C315.798 603.127 307.416 602.15 299.115 600.197C290.977 598.244 283.165 595.396 275.678 591.652C268.191 587.746 261.599 582.619 255.902 576.271C250.206 569.924 247.113 562.355 246.625 553.566V543.312V465.432C246.625 460.874 248.253 457.131 251.508 454.201C254.926 451.109 258.913 449.562 263.471 449.562C273.236 450.376 278.526 455.666 279.34 465.432V545.998C279.665 551.044 281.537 555.275 284.955 558.693C288.536 561.949 292.442 564.553 296.674 566.506C301.068 568.459 305.544 569.924 310.102 570.9C314.822 571.877 319.542 572.365 324.262 572.365C328.982 572.365 333.62 571.877 338.178 570.9C342.898 569.924 347.374 568.459 351.605 566.506C356 564.553 359.906 561.949 363.324 558.693C366.905 555.275 368.858 551.044 369.184 545.998V465.432C369.184 460.874 370.811 457.131 374.066 454.201C377.484 451.109 381.472 449.562 386.029 449.562C395.795 450.376 401.166 455.666 402.143 465.432V543.312V553.566C401.654 562.355 398.48 569.924 392.621 576.271C386.924 582.619 380.333 587.746 372.846 591.652C365.359 595.396 357.465 598.244 349.164 600.197C341.026 602.15 332.725 603.127 324.262 603.127ZM450.971 449.562C455.528 449.562 459.434 451.109 462.689 454.201C465.945 457.131 467.654 460.874 467.816 465.432V524.27C467.654 530.943 468.061 537.128 469.037 542.824C470.176 548.358 472.781 553.322 476.85 557.717C480.919 562.111 486.046 564.471 492.23 564.797H570.355C574.913 564.96 578.656 566.669 581.586 569.924C584.678 573.179 586.225 577.085 586.225 581.643C586.062 586.037 584.434 589.781 581.342 592.873C578.412 595.803 574.75 597.349 570.355 597.512H483.93C472.536 596.861 463.096 593.036 455.609 586.037C448.285 578.876 442.995 570.168 439.74 559.914C436.648 549.66 435.02 538.755 434.857 527.199V465.432C435.02 461.037 436.648 457.375 439.74 454.445C442.833 451.353 446.576 449.725 450.971 449.562ZM665.082 486.184C658.897 486.509 653.689 488.869 649.457 493.264C645.388 497.658 642.458 502.704 640.668 508.4C638.878 513.934 637.982 519.631 637.982 525.49C637.982 531.35 638.796 537.128 640.424 542.824C642.214 548.521 645.225 553.566 649.457 557.961C653.689 562.193 658.897 564.471 665.082 564.797H745.648C755.902 565.773 761.518 571.389 762.494 581.643C762.331 586.2 760.622 590.025 757.367 593.117C754.112 596.047 750.206 597.512 745.648 597.512H667.768H656.537C645.144 596.861 635.785 592.548 628.461 584.572C621.137 576.434 615.847 567.238 612.592 556.984C609.499 546.73 607.953 536.232 607.953 525.49C607.953 517.515 608.848 509.621 610.639 501.809C612.429 493.996 615.196 486.59 618.939 479.592C622.846 472.43 627.973 466.327 634.32 461.281C640.831 456.236 648.236 453.632 656.537 453.469H661.176H745.648C755.902 454.445 761.518 460.061 762.494 470.314C762.494 474.872 760.785 478.697 757.367 481.789C754.112 484.719 750.206 486.184 745.648 486.184H665.082Z" fill="url(#paint7_linear_2_158)"/>
<path d="M323.262 604.127C314.798 604.127 306.416 603.15 298.115 601.197C289.977 599.244 282.165 596.396 274.678 592.652C267.191 588.746 260.599 583.619 254.902 577.271C249.206 570.924 246.113 563.355 245.625 554.566V544.312V466.432C245.625 461.874 247.253 458.131 250.508 455.201C253.926 452.109 257.913 450.562 262.471 450.562C272.236 451.376 277.526 456.666 278.34 466.432V546.998C278.665 552.044 280.537 556.275 283.955 559.693C287.536 562.949 291.442 565.553 295.674 567.506C300.068 569.459 304.544 570.924 309.102 571.9C313.822 572.877 318.542 573.365 323.262 573.365C327.982 573.365 332.62 572.877 337.178 571.9C341.898 570.924 346.374 569.459 350.605 567.506C355 565.553 358.906 562.949 362.324 559.693C365.905 556.275 367.858 552.044 368.184 546.998V466.432C368.184 461.874 369.811 458.131 373.066 455.201C376.484 452.109 380.472 450.562 385.029 450.562C394.795 451.376 400.166 456.666 401.143 466.432V544.312V554.566C400.654 563.355 397.48 570.924 391.621 577.271C385.924 583.619 379.333 588.746 371.846 592.652C364.359 596.396 356.465 599.244 348.164 601.197C340.026 603.15 331.725 604.127 323.262 604.127ZM449.971 450.562C454.528 450.562 458.434 452.109 461.689 455.201C464.945 458.131 466.654 461.874 466.816 466.432V525.27C466.654 531.943 467.061 538.128 468.037 543.824C469.176 549.358 471.781 554.322 475.85 558.717C479.919 563.111 485.046 565.471 491.23 565.797H569.355C573.913 565.96 577.656 567.669 580.586 570.924C583.678 574.179 585.225 578.085 585.225 582.643C585.062 587.037 583.434 590.781 580.342 593.873C577.412 596.803 573.75 598.349 569.355 598.512H482.93C471.536 597.861 462.096 594.036 454.609 587.037C447.285 579.876 441.995 571.168 438.74 560.914C435.648 550.66 434.02 539.755 433.857 528.199V466.432C434.02 462.037 435.648 458.375 438.74 455.445C441.833 452.353 445.576 450.725 449.971 450.562ZM664.082 487.184C657.897 487.509 652.689 489.869 648.457 494.264C644.388 498.658 641.458 503.704 639.668 509.4C637.878 514.934 636.982 520.631 636.982 526.49C636.982 532.35 637.796 538.128 639.424 543.824C641.214 549.521 644.225 554.566 648.457 558.961C652.689 563.193 657.897 565.471 664.082 565.797H744.648C754.902 566.773 760.518 572.389 761.494 582.643C761.331 587.2 759.622 591.025 756.367 594.117C753.112 597.047 749.206 598.512 744.648 598.512H666.768H655.537C644.144 597.861 634.785 593.548 627.461 585.572C620.137 577.434 614.847 568.238 611.592 557.984C608.499 547.73 606.953 537.232 606.953 526.49C606.953 518.515 607.848 510.621 609.639 502.809C611.429 494.996 614.196 487.59 617.939 480.592C621.846 473.43 626.973 467.327 633.32 462.281C639.831 457.236 647.236 454.632 655.537 454.469H660.176H744.648C754.902 455.445 760.518 461.061 761.494 471.314C761.494 475.872 759.785 479.697 756.367 482.789C753.112 485.719 749.206 487.184 744.648 487.184H664.082Z" fill="url(#paint8_linear_2_158)"/>
<path d="M323.262 604.127C314.798 604.127 306.416 603.15 298.115 601.197C289.977 599.244 282.165 596.396 274.678 592.652C267.191 588.746 260.599 583.619 254.902 577.271C249.206 570.924 246.113 563.355 245.625 554.566V544.312V466.432C245.625 461.874 247.253 458.131 250.508 455.201C253.926 452.109 257.913 450.562 262.471 450.562C272.236 451.376 277.526 456.666 278.34 466.432V546.998C278.665 552.044 280.537 556.275 283.955 559.693C287.536 562.949 291.442 565.553 295.674 567.506C300.068 569.459 304.544 570.924 309.102 571.9C313.822 572.877 318.542 573.365 323.262 573.365C327.982 573.365 332.62 572.877 337.178 571.9C341.898 570.924 346.374 569.459 350.605 567.506C355 565.553 358.906 562.949 362.324 559.693C365.905 556.275 367.858 552.044 368.184 546.998V466.432C368.184 461.874 369.811 458.131 373.066 455.201C376.484 452.109 380.472 450.562 385.029 450.562C394.795 451.376 400.166 456.666 401.143 466.432V544.312V554.566C400.654 563.355 397.48 570.924 391.621 577.271C385.924 583.619 379.333 588.746 371.846 592.652C364.359 596.396 356.465 599.244 348.164 601.197C340.026 603.15 331.725 604.127 323.262 604.127ZM449.971 450.562C454.528 450.562 458.434 452.109 461.689 455.201C464.945 458.131 466.654 461.874 466.816 466.432V525.27C466.654 531.943 467.061 538.128 468.037 543.824C469.176 549.358 471.781 554.322 475.85 558.717C479.919 563.111 485.046 565.471 491.23 565.797H569.355C573.913 565.96 577.656 567.669 580.586 570.924C583.678 574.179 585.225 578.085 585.225 582.643C585.062 587.037 583.434 590.781 580.342 593.873C577.412 596.803 573.75 598.349 569.355 598.512H482.93C471.536 597.861 462.096 594.036 454.609 587.037C447.285 579.876 441.995 571.168 438.74 560.914C435.648 550.66 434.02 539.755 433.857 528.199V466.432C434.02 462.037 435.648 458.375 438.74 455.445C441.833 452.353 445.576 450.725 449.971 450.562ZM664.082 487.184C657.897 487.509 652.689 489.869 648.457 494.264C644.388 498.658 641.458 503.704 639.668 509.4C637.878 514.934 636.982 520.631 636.982 526.49C636.982 532.35 637.796 538.128 639.424 543.824C641.214 549.521 644.225 554.566 648.457 558.961C652.689 563.193 657.897 565.471 664.082 565.797H744.648C754.902 566.773 760.518 572.389 761.494 582.643C761.331 587.2 759.622 591.025 756.367 594.117C753.112 597.047 749.206 598.512 744.648 598.512H666.768H655.537C644.144 597.861 634.785 593.548 627.461 585.572C620.137 577.434 614.847 568.238 611.592 557.984C608.499 547.73 606.953 537.232 606.953 526.49C606.953 518.515 607.848 510.621 609.639 502.809C611.429 494.996 614.196 487.59 617.939 480.592C621.846 473.43 626.973 467.327 633.32 462.281C639.831 457.236 647.236 454.632 655.537 454.469H660.176H744.648C754.902 455.445 760.518 461.061 761.494 471.314C761.494 475.872 759.785 479.697 756.367 482.789C753.112 485.719 749.206 487.184 744.648 487.184H664.082Z" fill="url(#paint9_linear_2_158)"/>
<path d="M323.262 605.127C314.798 605.127 306.416 604.15 298.115 602.197C289.977 600.244 282.165 597.396 274.678 593.652C267.191 589.746 260.599 584.619 254.902 578.271C249.206 571.924 246.113 564.355 245.625 555.566V545.312V467.432C245.625 462.874 247.253 459.131 250.508 456.201C253.926 453.109 257.913 451.562 262.471 451.562C272.236 452.376 277.526 457.666 278.34 467.432V547.998C278.665 553.044 280.537 557.275 283.955 560.693C287.536 563.949 291.442 566.553 295.674 568.506C300.068 570.459 304.544 571.924 309.102 572.9C313.822 573.877 318.542 574.365 323.262 574.365C327.982 574.365 332.62 573.877 337.178 572.9C341.898 571.924 346.374 570.459 350.605 568.506C355 566.553 358.906 563.949 362.324 560.693C365.905 557.275 367.858 553.044 368.184 547.998V467.432C368.184 462.874 369.811 459.131 373.066 456.201C376.484 453.109 380.472 451.562 385.029 451.562C394.795 452.376 400.166 457.666 401.143 467.432V545.312V555.566C400.654 564.355 397.48 571.924 391.621 578.271C385.924 584.619 379.333 589.746 371.846 593.652C364.359 597.396 356.465 600.244 348.164 602.197C340.026 604.15 331.725 605.127 323.262 605.127ZM449.971 451.562C454.528 451.562 458.434 453.109 461.689 456.201C464.945 459.131 466.654 462.874 466.816 467.432V526.27C466.654 532.943 467.061 539.128 468.037 544.824C469.176 550.358 471.781 555.322 475.85 559.717C479.919 564.111 485.046 566.471 491.23 566.797H569.355C573.913 566.96 577.656 568.669 580.586 571.924C583.678 575.179 585.225 579.085 585.225 583.643C585.062 588.037 583.434 591.781 580.342 594.873C577.412 597.803 573.75 599.349 569.355 599.512H482.93C471.536 598.861 462.096 595.036 454.609 588.037C447.285 580.876 441.995 572.168 438.74 561.914C435.648 551.66 434.02 540.755 433.857 529.199V467.432C434.02 463.037 435.648 459.375 438.74 456.445C441.833 453.353 445.576 451.725 449.971 451.562ZM664.082 488.184C657.897 488.509 652.689 490.869 648.457 495.264C644.388 499.658 641.458 504.704 639.668 510.4C637.878 515.934 636.982 521.631 636.982 527.49C636.982 533.35 637.796 539.128 639.424 544.824C641.214 550.521 644.225 555.566 648.457 559.961C652.689 564.193 657.897 566.471 664.082 566.797H744.648C754.902 567.773 760.518 573.389 761.494 583.643C761.331 588.2 759.622 592.025 756.367 595.117C753.112 598.047 749.206 599.512 744.648 599.512H666.768H655.537C644.144 598.861 634.785 594.548 627.461 586.572C620.137 578.434 614.847 569.238 611.592 558.984C608.499 548.73 606.953 538.232 606.953 527.49C606.953 519.515 607.848 511.621 609.639 503.809C611.429 495.996 614.196 488.59 617.939 481.592C621.846 474.43 626.973 468.327 633.32 463.281C639.831 458.236 647.236 455.632 655.537 455.469H660.176H744.648C754.902 456.445 760.518 462.061 761.494 472.314C761.494 476.872 759.785 480.697 756.367 483.789C753.112 486.719 749.206 488.184 744.648 488.184H664.082Z" fill="url(#paint10_linear_2_158)"/>
<path d="M324.262 602.127C315.798 602.127 307.416 601.15 299.115 599.197C290.977 597.244 283.165 594.396 275.678 590.652C268.191 586.746 261.599 581.619 255.902 575.271C250.206 568.924 247.113 561.355 246.625 552.566V542.312V464.432C246.625 459.874 248.253 456.131 251.508 453.201C254.926 450.109 258.913 448.562 263.471 448.562C273.236 449.376 278.526 454.666 279.34 464.432V544.998C279.665 550.044 281.537 554.275 284.955 557.693C288.536 560.949 292.442 563.553 296.674 565.506C301.068 567.459 305.544 568.924 310.102 569.9C314.822 570.877 319.542 571.365 324.262 571.365C328.982 571.365 333.62 570.877 338.178 569.9C342.898 568.924 347.374 567.459 351.605 565.506C356 563.553 359.906 560.949 363.324 557.693C366.905 554.275 368.858 550.044 369.184 544.998V464.432C369.184 459.874 370.811 456.131 374.066 453.201C377.484 450.109 381.472 448.562 386.029 448.562C395.795 449.376 401.166 454.666 402.143 464.432V542.312V552.566C401.654 561.355 398.48 568.924 392.621 575.271C386.924 581.619 380.333 586.746 372.846 590.652C365.359 594.396 357.465 597.244 349.164 599.197C341.026 601.15 332.725 602.127 324.262 602.127ZM450.971 448.562C455.528 448.562 459.434 450.109 462.689 453.201C465.945 456.131 467.654 459.874 467.816 464.432V523.27C467.654 529.943 468.061 536.128 469.037 541.824C470.176 547.358 472.781 552.322 476.85 556.717C480.919 561.111 486.046 563.471 492.23 563.797H570.355C574.913 563.96 578.656 565.669 581.586 568.924C584.678 572.179 586.225 576.085 586.225 580.643C586.062 585.037 584.434 588.781 581.342 591.873C578.412 594.803 574.75 596.349 570.355 596.512H483.93C472.536 595.861 463.096 592.036 455.609 585.037C448.285 577.876 442.995 569.168 439.74 558.914C436.648 548.66 435.02 537.755 434.857 526.199V464.432C435.02 460.037 436.648 456.375 439.74 453.445C442.833 450.353 446.576 448.725 450.971 448.562ZM665.082 485.184C658.897 485.509 653.689 487.869 649.457 492.264C645.388 496.658 642.458 501.704 640.668 507.4C638.878 512.934 637.982 518.631 637.982 524.49C637.982 530.35 638.796 536.128 640.424 541.824C642.214 547.521 645.225 552.566 649.457 556.961C653.689 561.193 658.897 563.471 665.082 563.797H745.648C755.902 564.773 761.518 570.389 762.494 580.643C762.331 585.2 760.622 589.025 757.367 592.117C754.112 595.047 750.206 596.512 745.648 596.512H667.768H656.537C645.144 595.861 635.785 591.548 628.461 583.572C621.137 575.434 615.847 566.238 612.592 555.984C609.499 545.73 607.953 535.232 607.953 524.49C607.953 516.515 608.848 508.621 610.639 500.809C612.429 492.996 615.196 485.59 618.939 478.592C622.846 471.43 627.973 465.327 634.32 460.281C640.831 455.236 648.236 452.632 656.537 452.469H661.176H745.648C755.902 453.445 761.518 459.061 762.494 469.314C762.494 473.872 760.785 477.697 757.367 480.789C754.112 483.719 750.206 485.184 745.648 485.184H665.082Z" fill="url(#paint11_linear_2_158)"/>
<path d="M323.262 603.127C314.798 603.127 306.416 602.15 298.115 600.197C289.977 598.244 282.165 595.396 274.678 591.652C267.191 587.746 260.599 582.619 254.902 576.271C249.206 569.924 246.113 562.355 245.625 553.566V543.312V465.432C245.625 460.874 247.253 457.131 250.508 454.201C253.926 451.109 257.913 449.562 262.471 449.562C272.236 450.376 277.526 455.666 278.34 465.432V545.998C278.665 551.044 280.537 555.275 283.955 558.693C287.536 561.949 291.442 564.553 295.674 566.506C300.068 568.459 304.544 569.924 309.102 570.9C313.822 571.877 318.542 572.365 323.262 572.365C327.982 572.365 332.62 571.877 337.178 570.9C341.898 569.924 346.374 568.459 350.605 566.506C355 564.553 358.906 561.949 362.324 558.693C365.905 555.275 367.858 551.044 368.184 545.998V465.432C368.184 460.874 369.811 457.131 373.066 454.201C376.484 451.109 380.472 449.562 385.029 449.562C394.795 450.376 400.166 455.666 401.143 465.432V543.312V553.566C400.654 562.355 397.48 569.924 391.621 576.271C385.924 582.619 379.333 587.746 371.846 591.652C364.359 595.396 356.465 598.244 348.164 600.197C340.026 602.15 331.725 603.127 323.262 603.127ZM449.971 449.562C454.528 449.562 458.434 451.109 461.689 454.201C464.945 457.131 466.654 460.874 466.816 465.432V524.27C466.654 530.943 467.061 537.128 468.037 542.824C469.176 548.358 471.781 553.322 475.85 557.717C479.919 562.111 485.046 564.471 491.23 564.797H569.355C573.913 564.96 577.656 566.669 580.586 569.924C583.678 573.179 585.225 577.085 585.225 581.643C585.062 586.037 583.434 589.781 580.342 592.873C577.412 595.803 573.75 597.349 569.355 597.512H482.93C471.536 596.861 462.096 593.036 454.609 586.037C447.285 578.876 441.995 570.168 438.74 559.914C435.648 549.66 434.02 538.755 433.857 527.199V465.432C434.02 461.037 435.648 457.375 438.74 454.445C441.833 451.353 445.576 449.725 449.971 449.562ZM664.082 486.184C657.897 486.509 652.689 488.869 648.457 493.264C644.388 497.658 641.458 502.704 639.668 508.4C637.878 513.934 636.982 519.631 636.982 525.49C636.982 531.35 637.796 537.128 639.424 542.824C641.214 548.521 644.225 553.566 648.457 557.961C652.689 562.193 657.897 564.471 664.082 564.797H744.648C754.902 565.773 760.518 571.389 761.494 581.643C761.331 586.2 759.622 590.025 756.367 593.117C753.112 596.047 749.206 597.512 744.648 597.512H666.768H655.537C644.144 596.861 634.785 592.548 627.461 584.572C620.137 576.434 614.847 567.238 611.592 556.984C608.499 546.73 606.953 536.232 606.953 525.49C606.953 517.515 607.848 509.621 609.639 501.809C611.429 493.996 614.196 486.59 617.939 479.592C621.846 472.43 626.973 466.327 633.32 461.281C639.831 456.236 647.236 453.632 655.537 453.469H660.176H744.648C754.902 454.445 760.518 460.061 761.494 470.314C761.494 474.872 759.785 478.697 756.367 481.789C753.112 484.719 749.206 486.184 744.648 486.184H664.082Z" fill="url(#paint12_linear_2_158)"/>
<path d="M323.262 603.127C314.798 603.127 306.416 602.15 298.115 600.197C289.977 598.244 282.165 595.396 274.678 591.652C267.191 587.746 260.599 582.619 254.902 576.271C249.206 569.924 246.113 562.355 245.625 553.566V543.312V465.432C245.625 460.874 247.253 457.131 250.508 454.201C253.926 451.109 257.913 449.562 262.471 449.562C272.236 450.376 277.526 455.666 278.34 465.432V545.998C278.665 551.044 280.537 555.275 283.955 558.693C287.536 561.949 291.442 564.553 295.674 566.506C300.068 568.459 304.544 569.924 309.102 570.9C313.822 571.877 318.542 572.365 323.262 572.365C327.982 572.365 332.62 571.877 337.178 570.9C341.898 569.924 346.374 568.459 350.605 566.506C355 564.553 358.906 561.949 362.324 558.693C365.905 555.275 367.858 551.044 368.184 545.998V465.432C368.184 460.874 369.811 457.131 373.066 454.201C376.484 451.109 380.472 449.562 385.029 449.562C394.795 450.376 400.166 455.666 401.143 465.432V543.312V553.566C400.654 562.355 397.48 569.924 391.621 576.271C385.924 582.619 379.333 587.746 371.846 591.652C364.359 595.396 356.465 598.244 348.164 600.197C340.026 602.15 331.725 603.127 323.262 603.127ZM449.971 449.562C454.528 449.562 458.434 451.109 461.689 454.201C464.945 457.131 466.654 460.874 466.816 465.432V524.27C466.654 530.943 467.061 537.128 468.037 542.824C469.176 548.358 471.781 553.322 475.85 557.717C479.919 562.111 485.046 564.471 491.23 564.797H569.355C573.913 564.96 577.656 566.669 580.586 569.924C583.678 573.179 585.225 577.085 585.225 581.643C585.062 586.037 583.434 589.781 580.342 592.873C577.412 595.803 573.75 597.349 569.355 597.512H482.93C471.536 596.861 462.096 593.036 454.609 586.037C447.285 578.876 441.995 570.168 438.74 559.914C435.648 549.66 434.02 538.755 433.857 527.199V465.432C434.02 461.037 435.648 457.375 438.74 454.445C441.833 451.353 445.576 449.725 449.971 449.562ZM664.082 486.184C657.897 486.509 652.689 488.869 648.457 493.264C644.388 497.658 641.458 502.704 639.668 508.4C637.878 513.934 636.982 519.631 636.982 525.49C636.982 531.35 637.796 537.128 639.424 542.824C641.214 548.521 644.225 553.566 648.457 557.961C652.689 562.193 657.897 564.471 664.082 564.797H744.648C754.902 565.773 760.518 571.389 761.494 581.643C761.331 586.2 759.622 590.025 756.367 593.117C753.112 596.047 749.206 597.512 744.648 597.512H666.768H655.537C644.144 596.861 634.785 592.548 627.461 584.572C620.137 576.434 614.847 567.238 611.592 556.984C608.499 546.73 606.953 536.232 606.953 525.49C606.953 517.515 607.848 509.621 609.639 501.809C611.429 493.996 614.196 486.59 617.939 479.592C621.846 472.43 626.973 466.327 633.32 461.281C639.831 456.236 647.236 453.632 655.537 453.469H660.176H744.648C754.902 454.445 760.518 460.061 761.494 470.314C761.494 474.872 759.785 478.697 756.367 481.789C753.112 484.719 749.206 486.184 744.648 486.184H664.082Z" fill="url(#paint13_linear_2_158)"/>
<path d="M323.262 604.127C314.798 604.127 306.416 603.15 298.115 601.197C289.977 599.244 282.165 596.396 274.678 592.652C267.191 588.746 260.599 583.619 254.902 577.271C249.206 570.924 246.113 563.355 245.625 554.566V544.312V466.432C245.625 461.874 247.253 458.131 250.508 455.201C253.926 452.109 257.913 450.562 262.471 450.562C272.236 451.376 277.526 456.666 278.34 466.432V546.998C278.665 552.044 280.537 556.275 283.955 559.693C287.536 562.949 291.442 565.553 295.674 567.506C300.068 569.459 304.544 570.924 309.102 571.9C313.822 572.877 318.542 573.365 323.262 573.365C327.982 573.365 332.62 572.877 337.178 571.9C341.898 570.924 346.374 569.459 350.605 567.506C355 565.553 358.906 562.949 362.324 559.693C365.905 556.275 367.858 552.044 368.184 546.998V466.432C368.184 461.874 369.811 458.131 373.066 455.201C376.484 452.109 380.472 450.562 385.029 450.562C394.795 451.376 400.166 456.666 401.143 466.432V544.312V554.566C400.654 563.355 397.48 570.924 391.621 577.271C385.924 583.619 379.333 588.746 371.846 592.652C364.359 596.396 356.465 599.244 348.164 601.197C340.026 603.15 331.725 604.127 323.262 604.127ZM449.971 450.562C454.528 450.562 458.434 452.109 461.689 455.201C464.945 458.131 466.654 461.874 466.816 466.432V525.27C466.654 531.943 467.061 538.128 468.037 543.824C469.176 549.358 471.781 554.322 475.85 558.717C479.919 563.111 485.046 565.471 491.23 565.797H569.355C573.913 565.96 577.656 567.669 580.586 570.924C583.678 574.179 585.225 578.085 585.225 582.643C585.062 587.037 583.434 590.781 580.342 593.873C577.412 596.803 573.75 598.349 569.355 598.512H482.93C471.536 597.861 462.096 594.036 454.609 587.037C447.285 579.876 441.995 571.168 438.74 560.914C435.648 550.66 434.02 539.755 433.857 528.199V466.432C434.02 462.037 435.648 458.375 438.74 455.445C441.833 452.353 445.576 450.725 449.971 450.562ZM664.082 487.184C657.897 487.509 652.689 489.869 648.457 494.264C644.388 498.658 641.458 503.704 639.668 509.4C637.878 514.934 636.982 520.631 636.982 526.49C636.982 532.35 637.796 538.128 639.424 543.824C641.214 549.521 644.225 554.566 648.457 558.961C652.689 563.193 657.897 565.471 664.082 565.797H744.648C754.902 566.773 760.518 572.389 761.494 582.643C761.331 587.2 759.622 591.025 756.367 594.117C753.112 597.047 749.206 598.512 744.648 598.512H666.768H655.537C644.144 597.861 634.785 593.548 627.461 585.572C620.137 577.434 614.847 568.238 611.592 557.984C608.499 547.73 606.953 537.232 606.953 526.49C606.953 518.515 607.848 510.621 609.639 502.809C611.429 494.996 614.196 487.59 617.939 480.592C621.846 473.43 626.973 467.327 633.32 462.281C639.831 457.236 647.236 454.632 655.537 454.469H660.176H744.648C754.902 455.445 760.518 461.061 761.494 471.314C761.494 475.872 759.785 479.697 756.367 482.789C753.112 485.719 749.206 487.184 744.648 487.184H664.082Z" fill="url(#paint14_linear_2_158)"/>
<path d="M324.262 601.127C315.798 601.127 307.416 600.15 299.115 598.197C290.977 596.244 283.165 593.396 275.678 589.652C268.191 585.746 261.599 580.619 255.902 574.271C250.206 567.924 247.113 560.355 246.625 551.566V541.312V463.432C246.625 458.874 248.253 455.131 251.508 452.201C254.926 449.109 258.913 447.562 263.471 447.562C273.236 448.376 278.526 453.666 279.34 463.432V543.998C279.665 549.044 281.537 553.275 284.955 556.693C288.536 559.949 292.442 562.553 296.674 564.506C301.068 566.459 305.544 567.924 310.102 568.9C314.822 569.877 319.542 570.365 324.262 570.365C328.982 570.365 333.62 569.877 338.178 568.9C342.898 567.924 347.374 566.459 351.605 564.506C356 562.553 359.906 559.949 363.324 556.693C366.905 553.275 368.858 549.044 369.184 543.998V463.432C369.184 458.874 370.811 455.131 374.066 452.201C377.484 449.109 381.472 447.562 386.029 447.562C395.795 448.376 401.166 453.666 402.143 463.432V541.312V551.566C401.654 560.355 398.48 567.924 392.621 574.271C386.924 580.619 380.333 585.746 372.846 589.652C365.359 593.396 357.465 596.244 349.164 598.197C341.026 600.15 332.725 601.127 324.262 601.127ZM450.971 447.562C455.528 447.562 459.434 449.109 462.689 452.201C465.945 455.131 467.654 458.874 467.816 463.432V522.27C467.654 528.943 468.061 535.128 469.037 540.824C470.176 546.358 472.781 551.322 476.85 555.717C480.919 560.111 486.046 562.471 492.23 562.797H570.355C574.913 562.96 578.656 564.669 581.586 567.924C584.678 571.179 586.225 575.085 586.225 579.643C586.062 584.037 584.434 587.781 581.342 590.873C578.412 593.803 574.75 595.349 570.355 595.512H483.93C472.536 594.861 463.096 591.036 455.609 584.037C448.285 576.876 442.995 568.168 439.74 557.914C436.648 547.66 435.02 536.755 434.857 525.199V463.432C435.02 459.037 436.648 455.375 439.74 452.445C442.833 449.353 446.576 447.725 450.971 447.562ZM665.082 484.184C658.897 484.509 653.689 486.869 649.457 491.264C645.388 495.658 642.458 500.704 640.668 506.4C638.878 511.934 637.982 517.631 637.982 523.49C637.982 529.35 638.796 535.128 640.424 540.824C642.214 546.521 645.225 551.566 649.457 555.961C653.689 560.193 658.897 562.471 665.082 562.797H745.648C755.902 563.773 761.518 569.389 762.494 579.643C762.331 584.2 760.622 588.025 757.367 591.117C754.112 594.047 750.206 595.512 745.648 595.512H667.768H656.537C645.144 594.861 635.785 590.548 628.461 582.572C621.137 574.434 615.847 565.238 612.592 554.984C609.499 544.73 607.953 534.232 607.953 523.49C607.953 515.515 608.848 507.621 610.639 499.809C612.429 491.996 615.196 484.59 618.939 477.592C622.846 470.43 627.973 464.327 634.32 459.281C640.831 454.236 648.236 451.632 656.537 451.469H661.176H745.648C755.902 452.445 761.518 458.061 762.494 468.314C762.494 472.872 760.785 476.697 757.367 479.789C754.112 482.719 750.206 484.184 745.648 484.184H665.082Z" fill="url(#paint15_linear_2_158)"/>
<path d="M323.262 602.127C314.798 602.127 306.416 601.15 298.115 599.197C289.977 597.244 282.165 594.396 274.678 590.652C267.191 586.746 260.599 581.619 254.902 575.271C249.206 568.924 246.113 561.355 245.625 552.566V542.312V464.432C245.625 459.874 247.253 456.131 250.508 453.201C253.926 450.109 257.913 448.562 262.471 448.562C272.236 449.376 277.526 454.666 278.34 464.432V544.998C278.665 550.044 280.537 554.275 283.955 557.693C287.536 560.949 291.442 563.553 295.674 565.506C300.068 567.459 304.544 568.924 309.102 569.9C313.822 570.877 318.542 571.365 323.262 571.365C327.982 571.365 332.62 570.877 337.178 569.9C341.898 568.924 346.374 567.459 350.605 565.506C355 563.553 358.906 560.949 362.324 557.693C365.905 554.275 367.858 550.044 368.184 544.998V464.432C368.184 459.874 369.811 456.131 373.066 453.201C376.484 450.109 380.472 448.562 385.029 448.562C394.795 449.376 400.166 454.666 401.143 464.432V542.312V552.566C400.654 561.355 397.48 568.924 391.621 575.271C385.924 581.619 379.333 586.746 371.846 590.652C364.359 594.396 356.465 597.244 348.164 599.197C340.026 601.15 331.725 602.127 323.262 602.127ZM449.971 448.562C454.528 448.562 458.434 450.109 461.689 453.201C464.945 456.131 466.654 459.874 466.816 464.432V523.27C466.654 529.943 467.061 536.128 468.037 541.824C469.176 547.358 471.781 552.322 475.85 556.717C479.919 561.111 485.046 563.471 491.23 563.797H569.355C573.913 563.96 577.656 565.669 580.586 568.924C583.678 572.179 585.225 576.085 585.225 580.643C585.062 585.037 583.434 588.781 580.342 591.873C577.412 594.803 573.75 596.349 569.355 596.512H482.93C471.536 595.861 462.096 592.036 454.609 585.037C447.285 577.876 441.995 569.168 438.74 558.914C435.648 548.66 434.02 537.755 433.857 526.199V464.432C434.02 460.037 435.648 456.375 438.74 453.445C441.833 450.353 445.576 448.725 449.971 448.562ZM664.082 485.184C657.897 485.509 652.689 487.869 648.457 492.264C644.388 496.658 641.458 501.704 639.668 507.4C637.878 512.934 636.982 518.631 636.982 524.49C636.982 530.35 637.796 536.128 639.424 541.824C641.214 547.521 644.225 552.566 648.457 556.961C652.689 561.193 657.897 563.471 664.082 563.797H744.648C754.902 564.773 760.518 570.389 761.494 580.643C761.331 585.2 759.622 589.025 756.367 592.117C753.112 595.047 749.206 596.512 744.648 596.512H666.768H655.537C644.144 595.861 634.785 591.548 627.461 583.572C620.137 575.434 614.847 566.238 611.592 555.984C608.499 545.73 606.953 535.232 606.953 524.49C606.953 516.515 607.848 508.621 609.639 500.809C611.429 492.996 614.196 485.59 617.939 478.592C621.846 471.43 626.973 465.327 633.32 460.281C639.831 455.236 647.236 452.632 655.537 452.469H660.176H744.648C754.902 453.445 760.518 459.061 761.494 469.314C761.494 473.872 759.785 477.697 756.367 480.789C753.112 483.719 749.206 485.184 744.648 485.184H664.082Z" fill="url(#paint16_linear_2_158)"/>
<path d="M323.262 602.127C314.798 602.127 306.416 601.15 298.115 599.197C289.977 597.244 282.165 594.396 274.678 590.652C267.191 586.746 260.599 581.619 254.902 575.271C249.206 568.924 246.113 561.355 245.625 552.566V542.312V464.432C245.625 459.874 247.253 456.131 250.508 453.201C253.926 450.109 257.913 448.562 262.471 448.562C272.236 449.376 277.526 454.666 278.34 464.432V544.998C278.665 550.044 280.537 554.275 283.955 557.693C287.536 560.949 291.442 563.553 295.674 565.506C300.068 567.459 304.544 568.924 309.102 569.9C313.822 570.877 318.542 571.365 323.262 571.365C327.982 571.365 332.62 570.877 337.178 569.9C341.898 568.924 346.374 567.459 350.605 565.506C355 563.553 358.906 560.949 362.324 557.693C365.905 554.275 367.858 550.044 368.184 544.998V464.432C368.184 459.874 369.811 456.131 373.066 453.201C376.484 450.109 380.472 448.562 385.029 448.562C394.795 449.376 400.166 454.666 401.143 464.432V542.312V552.566C400.654 561.355 397.48 568.924 391.621 575.271C385.924 581.619 379.333 586.746 371.846 590.652C364.359 594.396 356.465 597.244 348.164 599.197C340.026 601.15 331.725 602.127 323.262 602.127ZM449.971 448.562C454.528 448.562 458.434 450.109 461.689 453.201C464.945 456.131 466.654 459.874 466.816 464.432V523.27C466.654 529.943 467.061 536.128 468.037 541.824C469.176 547.358 471.781 552.322 475.85 556.717C479.919 561.111 485.046 563.471 491.23 563.797H569.355C573.913 563.96 577.656 565.669 580.586 568.924C583.678 572.179 585.225 576.085 585.225 580.643C585.062 585.037 583.434 588.781 580.342 591.873C577.412 594.803 573.75 596.349 569.355 596.512H482.93C471.536 595.861 462.096 592.036 454.609 585.037C447.285 577.876 441.995 569.168 438.74 558.914C435.648 548.66 434.02 537.755 433.857 526.199V464.432C434.02 460.037 435.648 456.375 438.74 453.445C441.833 450.353 445.576 448.725 449.971 448.562ZM664.082 485.184C657.897 485.509 652.689 487.869 648.457 492.264C644.388 496.658 641.458 501.704 639.668 507.4C637.878 512.934 636.982 518.631 636.982 524.49C636.982 530.35 637.796 536.128 639.424 541.824C641.214 547.521 644.225 552.566 648.457 556.961C652.689 561.193 657.897 563.471 664.082 563.797H744.648C754.902 564.773 760.518 570.389 761.494 580.643C761.331 585.2 759.622 589.025 756.367 592.117C753.112 595.047 749.206 596.512 744.648 596.512H666.768H655.537C644.144 595.861 634.785 591.548 627.461 583.572C620.137 575.434 614.847 566.238 611.592 555.984C608.499 545.73 606.953 535.232 606.953 524.49C606.953 516.515 607.848 508.621 609.639 500.809C611.429 492.996 614.196 485.59 617.939 478.592C621.846 471.43 626.973 465.327 633.32 460.281C639.831 455.236 647.236 452.632 655.537 452.469H660.176H744.648C754.902 453.445 760.518 459.061 761.494 469.314C761.494 473.872 759.785 477.697 756.367 480.789C753.112 483.719 749.206 485.184 744.648 485.184H664.082Z" fill="url(#paint17_linear_2_158)"/>
<path d="M323.262 603.127C314.798 603.127 306.416 602.15 298.115 600.197C289.977 598.244 282.165 595.396 274.678 591.652C267.191 587.746 260.599 582.619 254.902 576.271C249.206 569.924 246.113 562.355 245.625 553.566V543.312V465.432C245.625 460.874 247.253 457.131 250.508 454.201C253.926 451.109 257.913 449.562 262.471 449.562C272.236 450.376 277.526 455.666 278.34 465.432V545.998C278.665 551.044 280.537 555.275 283.955 558.693C287.536 561.949 291.442 564.553 295.674 566.506C300.068 568.459 304.544 569.924 309.102 570.9C313.822 571.877 318.542 572.365 323.262 572.365C327.982 572.365 332.62 571.877 337.178 570.9C341.898 569.924 346.374 568.459 350.605 566.506C355 564.553 358.906 561.949 362.324 558.693C365.905 555.275 367.858 551.044 368.184 545.998V465.432C368.184 460.874 369.811 457.131 373.066 454.201C376.484 451.109 380.472 449.562 385.029 449.562C394.795 450.376 400.166 455.666 401.143 465.432V543.312V553.566C400.654 562.355 397.48 569.924 391.621 576.271C385.924 582.619 379.333 587.746 371.846 591.652C364.359 595.396 356.465 598.244 348.164 600.197C340.026 602.15 331.725 603.127 323.262 603.127ZM449.971 449.562C454.528 449.562 458.434 451.109 461.689 454.201C464.945 457.131 466.654 460.874 466.816 465.432V524.27C466.654 530.943 467.061 537.128 468.037 542.824C469.176 548.358 471.781 553.322 475.85 557.717C479.919 562.111 485.046 564.471 491.23 564.797H569.355C573.913 564.96 577.656 566.669 580.586 569.924C583.678 573.179 585.225 577.085 585.225 581.643C585.062 586.037 583.434 589.781 580.342 592.873C577.412 595.803 573.75 597.349 569.355 597.512H482.93C471.536 596.861 462.096 593.036 454.609 586.037C447.285 578.876 441.995 570.168 438.74 559.914C435.648 549.66 434.02 538.755 433.857 527.199V465.432C434.02 461.037 435.648 457.375 438.74 454.445C441.833 451.353 445.576 449.725 449.971 449.562ZM664.082 486.184C657.897 486.509 652.689 488.869 648.457 493.264C644.388 497.658 641.458 502.704 639.668 508.4C637.878 513.934 636.982 519.631 636.982 525.49C636.982 531.35 637.796 537.128 639.424 542.824C641.214 548.521 644.225 553.566 648.457 557.961C652.689 562.193 657.897 564.471 664.082 564.797H744.648C754.902 565.773 760.518 571.389 761.494 581.643C761.331 586.2 759.622 590.025 756.367 593.117C753.112 596.047 749.206 597.512 744.648 597.512H666.768H655.537C644.144 596.861 634.785 592.548 627.461 584.572C620.137 576.434 614.847 567.238 611.592 556.984C608.499 546.73 606.953 536.232 606.953 525.49C606.953 517.515 607.848 509.621 609.639 501.809C611.429 493.996 614.196 486.59 617.939 479.592C621.846 472.43 626.973 466.327 633.32 461.281C639.831 456.236 647.236 453.632 655.537 453.469H660.176H744.648C754.902 454.445 760.518 460.061 761.494 470.314C761.494 474.872 759.785 478.697 756.367 481.789C753.112 484.719 749.206 486.184 744.648 486.184H664.082Z" fill="url(#paint18_linear_2_158)"/>
<path d="M324.262 600.127C315.798 600.127 307.416 599.15 299.115 597.197C290.977 595.244 283.165 592.396 275.678 588.652C268.191 584.746 261.599 579.619 255.902 573.271C250.206 566.924 247.113 559.355 246.625 550.566V540.312V462.432C246.625 457.874 248.253 454.131 251.508 451.201C254.926 448.109 258.913 446.562 263.471 446.562C273.236 447.376 278.526 452.666 279.34 462.432V542.998C279.665 548.044 281.537 552.275 284.955 555.693C288.536 558.949 292.442 561.553 296.674 563.506C301.068 565.459 305.544 566.924 310.102 567.9C314.822 568.877 319.542 569.365 324.262 569.365C328.982 569.365 333.62 568.877 338.178 567.9C342.898 566.924 347.374 565.459 351.605 563.506C356 561.553 359.906 558.949 363.324 555.693C366.905 552.275 368.858 548.044 369.184 542.998V462.432C369.184 457.874 370.811 454.131 374.066 451.201C377.484 448.109 381.472 446.562 386.029 446.562C395.795 447.376 401.166 452.666 402.143 462.432V540.312V550.566C401.654 559.355 398.48 566.924 392.621 573.271C386.924 579.619 380.333 584.746 372.846 588.652C365.359 592.396 357.465 595.244 349.164 597.197C341.026 599.15 332.725 600.127 324.262 600.127ZM450.971 446.562C455.528 446.562 459.434 448.109 462.689 451.201C465.945 454.131 467.654 457.874 467.816 462.432V521.27C467.654 527.943 468.061 534.128 469.037 539.824C470.176 545.358 472.781 550.322 476.85 554.717C480.919 559.111 486.046 561.471 492.23 561.797H570.355C574.913 561.96 578.656 563.669 581.586 566.924C584.678 570.179 586.225 574.085 586.225 578.643C586.062 583.037 584.434 586.781 581.342 589.873C578.412 592.803 574.75 594.349 570.355 594.512H483.93C472.536 593.861 463.096 590.036 455.609 583.037C448.285 575.876 442.995 567.168 439.74 556.914C436.648 546.66 435.02 535.755 434.857 524.199V462.432C435.02 458.037 436.648 454.375 439.74 451.445C442.833 448.353 446.576 446.725 450.971 446.562ZM665.082 483.184C658.897 483.509 653.689 485.869 649.457 490.264C645.388 494.658 642.458 499.704 640.668 505.4C638.878 510.934 637.982 516.631 637.982 522.49C637.982 528.35 638.796 534.128 640.424 539.824C642.214 545.521 645.225 550.566 649.457 554.961C653.689 559.193 658.897 561.471 665.082 561.797H745.648C755.902 562.773 761.518 568.389 762.494 578.643C762.331 583.2 760.622 587.025 757.367 590.117C754.112 593.047 750.206 594.512 745.648 594.512H667.768H656.537C645.144 593.861 635.785 589.548 628.461 581.572C621.137 573.434 615.847 564.238 612.592 553.984C609.499 543.73 607.953 533.232 607.953 522.49C607.953 514.515 608.848 506.621 610.639 498.809C612.429 490.996 615.196 483.59 618.939 476.592C622.846 469.43 627.973 463.327 634.32 458.281C640.831 453.236 648.236 450.632 656.537 450.469H661.176H745.648C755.902 451.445 761.518 457.061 762.494 467.314C762.494 471.872 760.785 475.697 757.367 478.789C754.112 481.719 750.206 483.184 745.648 483.184H665.082Z" fill="url(#paint19_linear_2_158)"/>
<path d="M323.262 601.127C314.798 601.127 306.416 600.15 298.115 598.197C289.977 596.244 282.165 593.396 274.678 589.652C267.191 585.746 260.599 580.619 254.902 574.271C249.206 567.924 246.113 560.355 245.625 551.566V541.312V463.432C245.625 458.874 247.253 455.131 250.508 452.201C253.926 449.109 257.913 447.562 262.471 447.562C272.236 448.376 277.526 453.666 278.34 463.432V543.998C278.665 549.044 280.537 553.275 283.955 556.693C287.536 559.949 291.442 562.553 295.674 564.506C300.068 566.459 304.544 567.924 309.102 568.9C313.822 569.877 318.542 570.365 323.262 570.365C327.982 570.365 332.62 569.877 337.178 568.9C341.898 567.924 346.374 566.459 350.605 564.506C355 562.553 358.906 559.949 362.324 556.693C365.905 553.275 367.858 549.044 368.184 543.998V463.432C368.184 458.874 369.811 455.131 373.066 452.201C376.484 449.109 380.472 447.562 385.029 447.562C394.795 448.376 400.166 453.666 401.143 463.432V541.312V551.566C400.654 560.355 397.48 567.924 391.621 574.271C385.924 580.619 379.333 585.746 371.846 589.652C364.359 593.396 356.465 596.244 348.164 598.197C340.026 600.15 331.725 601.127 323.262 601.127ZM449.971 447.562C454.528 447.562 458.434 449.109 461.689 452.201C464.945 455.131 466.654 458.874 466.816 463.432V522.27C466.654 528.943 467.061 535.128 468.037 540.824C469.176 546.358 471.781 551.322 475.85 555.717C479.919 560.111 485.046 562.471 491.23 562.797H569.355C573.913 562.96 577.656 564.669 580.586 567.924C583.678 571.179 585.225 575.085 585.225 579.643C585.062 584.037 583.434 587.781 580.342 590.873C577.412 593.803 573.75 595.349 569.355 595.512H482.93C471.536 594.861 462.096 591.036 454.609 584.037C447.285 576.876 441.995 568.168 438.74 557.914C435.648 547.66 434.02 536.755 433.857 525.199V463.432C434.02 459.037 435.648 455.375 438.74 452.445C441.833 449.353 445.576 447.725 449.971 447.562ZM664.082 484.184C657.897 484.509 652.689 486.869 648.457 491.264C644.388 495.658 641.458 500.704 639.668 506.4C637.878 511.934 636.982 517.631 636.982 523.49C636.982 529.35 637.796 535.128 639.424 540.824C641.214 546.521 644.225 551.566 648.457 555.961C652.689 560.193 657.897 562.471 664.082 562.797H744.648C754.902 563.773 760.518 569.389 761.494 579.643C761.331 584.2 759.622 588.025 756.367 591.117C753.112 594.047 749.206 595.512 744.648 595.512H666.768H655.537C644.144 594.861 634.785 590.548 627.461 582.572C620.137 574.434 614.847 565.238 611.592 554.984C608.499 544.73 606.953 534.232 606.953 523.49C606.953 515.515 607.848 507.621 609.639 499.809C611.429 491.996 614.196 484.59 617.939 477.592C621.846 470.43 626.973 464.327 633.32 459.281C639.831 454.236 647.236 451.632 655.537 451.469H660.176H744.648C754.902 452.445 760.518 458.061 761.494 468.314C761.494 472.872 759.785 476.697 756.367 479.789C753.112 482.719 749.206 484.184 744.648 484.184H664.082Z" fill="url(#paint20_linear_2_158)"/>
<path d="M323.262 601.127C314.798 601.127 306.416 600.15 298.115 598.197C289.977 596.244 282.165 593.396 274.678 589.652C267.191 585.746 260.599 580.619 254.902 574.271C249.206 567.924 246.113 560.355 245.625 551.566V541.312V463.432C245.625 458.874 247.253 455.131 250.508 452.201C253.926 449.109 257.913 447.562 262.471 447.562C272.236 448.376 277.526 453.666 278.34 463.432V543.998C278.665 549.044 280.537 553.275 283.955 556.693C287.536 559.949 291.442 562.553 295.674 564.506C300.068 566.459 304.544 567.924 309.102 568.9C313.822 569.877 318.542 570.365 323.262 570.365C327.982 570.365 332.62 569.877 337.178 568.9C341.898 567.924 346.374 566.459 350.605 564.506C355 562.553 358.906 559.949 362.324 556.693C365.905 553.275 367.858 549.044 368.184 543.998V463.432C368.184 458.874 369.811 455.131 373.066 452.201C376.484 449.109 380.472 447.562 385.029 447.562C394.795 448.376 400.166 453.666 401.143 463.432V541.312V551.566C400.654 560.355 397.48 567.924 391.621 574.271C385.924 580.619 379.333 585.746 371.846 589.652C364.359 593.396 356.465 596.244 348.164 598.197C340.026 600.15 331.725 601.127 323.262 601.127ZM449.971 447.562C454.528 447.562 458.434 449.109 461.689 452.201C464.945 455.131 466.654 458.874 466.816 463.432V522.27C466.654 528.943 467.061 535.128 468.037 540.824C469.176 546.358 471.781 551.322 475.85 555.717C479.919 560.111 485.046 562.471 491.23 562.797H569.355C573.913 562.96 577.656 564.669 580.586 567.924C583.678 571.179 585.225 575.085 585.225 579.643C585.062 584.037 583.434 587.781 580.342 590.873C577.412 593.803 573.75 595.349 569.355 595.512H482.93C471.536 594.861 462.096 591.036 454.609 584.037C447.285 576.876 441.995 568.168 438.74 557.914C435.648 547.66 434.02 536.755 433.857 525.199V463.432C434.02 459.037 435.648 455.375 438.74 452.445C441.833 449.353 445.576 447.725 449.971 447.562ZM664.082 484.184C657.897 484.509 652.689 486.869 648.457 491.264C644.388 495.658 641.458 500.704 639.668 506.4C637.878 511.934 636.982 517.631 636.982 523.49C636.982 529.35 637.796 535.128 639.424 540.824C641.214 546.521 644.225 551.566 648.457 555.961C652.689 560.193 657.897 562.471 664.082 562.797H744.648C754.902 563.773 760.518 569.389 761.494 579.643C761.331 584.2 759.622 588.025 756.367 591.117C753.112 594.047 749.206 595.512 744.648 595.512H666.768H655.537C644.144 594.861 634.785 590.548 627.461 582.572C620.137 574.434 614.847 565.238 611.592 554.984C608.499 544.73 606.953 534.232 606.953 523.49C606.953 515.515 607.848 507.621 609.639 499.809C611.429 491.996 614.196 484.59 617.939 477.592C621.846 470.43 626.973 464.327 633.32 459.281C639.831 454.236 647.236 451.632 655.537 451.469H660.176H744.648C754.902 452.445 760.518 458.061 761.494 468.314C761.494 472.872 759.785 476.697 756.367 479.789C753.112 482.719 749.206 484.184 744.648 484.184H664.082Z" fill="url(#paint21_linear_2_158)"/>
<path d="M323.262 602.127C314.798 602.127 306.416 601.15 298.115 599.197C289.977 597.244 282.165 594.396 274.678 590.652C267.191 586.746 260.599 581.619 254.902 575.271C249.206 568.924 246.113 561.355 245.625 552.566V542.312V464.432C245.625 459.874 247.253 456.131 250.508 453.201C253.926 450.109 257.913 448.562 262.471 448.562C272.236 449.376 277.526 454.666 278.34 464.432V544.998C278.665 550.044 280.537 554.275 283.955 557.693C287.536 560.949 291.442 563.553 295.674 565.506C300.068 567.459 304.544 568.924 309.102 569.9C313.822 570.877 318.542 571.365 323.262 571.365C327.982 571.365 332.62 570.877 337.178 569.9C341.898 568.924 346.374 567.459 350.605 565.506C355 563.553 358.906 560.949 362.324 557.693C365.905 554.275 367.858 550.044 368.184 544.998V464.432C368.184 459.874 369.811 456.131 373.066 453.201C376.484 450.109 380.472 448.562 385.029 448.562C394.795 449.376 400.166 454.666 401.143 464.432V542.312V552.566C400.654 561.355 397.48 568.924 391.621 575.271C385.924 581.619 379.333 586.746 371.846 590.652C364.359 594.396 356.465 597.244 348.164 599.197C340.026 601.15 331.725 602.127 323.262 602.127ZM449.971 448.562C454.528 448.562 458.434 450.109 461.689 453.201C464.945 456.131 466.654 459.874 466.816 464.432V523.27C466.654 529.943 467.061 536.128 468.037 541.824C469.176 547.358 471.781 552.322 475.85 556.717C479.919 561.111 485.046 563.471 491.23 563.797H569.355C573.913 563.96 577.656 565.669 580.586 568.924C583.678 572.179 585.225 576.085 585.225 580.643C585.062 585.037 583.434 588.781 580.342 591.873C577.412 594.803 573.75 596.349 569.355 596.512H482.93C471.536 595.861 462.096 592.036 454.609 585.037C447.285 577.876 441.995 569.168 438.74 558.914C435.648 548.66 434.02 537.755 433.857 526.199V464.432C434.02 460.037 435.648 456.375 438.74 453.445C441.833 450.353 445.576 448.725 449.971 448.562ZM664.082 485.184C657.897 485.509 652.689 487.869 648.457 492.264C644.388 496.658 641.458 501.704 639.668 507.4C637.878 512.934 636.982 518.631 636.982 524.49C636.982 530.35 637.796 536.128 639.424 541.824C641.214 547.521 644.225 552.566 648.457 556.961C652.689 561.193 657.897 563.471 664.082 563.797H744.648C754.902 564.773 760.518 570.389 761.494 580.643C761.331 585.2 759.622 589.025 756.367 592.117C753.112 595.047 749.206 596.512 744.648 596.512H666.768H655.537C644.144 595.861 634.785 591.548 627.461 583.572C620.137 575.434 614.847 566.238 611.592 555.984C608.499 545.73 606.953 535.232 606.953 524.49C606.953 516.515 607.848 508.621 609.639 500.809C611.429 492.996 614.196 485.59 617.939 478.592C621.846 471.43 626.973 465.327 633.32 460.281C639.831 455.236 647.236 452.632 655.537 452.469H660.176H744.648C754.902 453.445 760.518 459.061 761.494 469.314C761.494 473.872 759.785 477.697 756.367 480.789C753.112 483.719 749.206 485.184 744.648 485.184H664.082Z" fill="url(#paint22_linear_2_158)"/>
<path d="M324.262 599.127C315.798 599.127 307.416 598.15 299.115 596.197C290.977 594.244 283.165 591.396 275.678 587.652C268.191 583.746 261.599 578.619 255.902 572.271C250.206 565.924 247.113 558.355 246.625 549.566V539.312V461.432C246.625 456.874 248.253 453.131 251.508 450.201C254.926 447.109 258.913 445.562 263.471 445.562C273.236 446.376 278.526 451.666 279.34 461.432V541.998C279.665 547.044 281.537 551.275 284.955 554.693C288.536 557.949 292.442 560.553 296.674 562.506C301.068 564.459 305.544 565.924 310.102 566.9C314.822 567.877 319.542 568.365 324.262 568.365C328.982 568.365 333.62 567.877 338.178 566.9C342.898 565.924 347.374 564.459 351.605 562.506C356 560.553 359.906 557.949 363.324 554.693C366.905 551.275 368.858 547.044 369.184 541.998V461.432C369.184 456.874 370.811 453.131 374.066 450.201C377.484 447.109 381.472 445.562 386.029 445.562C395.795 446.376 401.166 451.666 402.143 461.432V539.312V549.566C401.654 558.355 398.48 565.924 392.621 572.271C386.924 578.619 380.333 583.746 372.846 587.652C365.359 591.396 357.465 594.244 349.164 596.197C341.026 598.15 332.725 599.127 324.262 599.127ZM450.971 445.562C455.528 445.562 459.434 447.109 462.689 450.201C465.945 453.131 467.654 456.874 467.816 461.432V520.27C467.654 526.943 468.061 533.128 469.037 538.824C470.176 544.358 472.781 549.322 476.85 553.717C480.919 558.111 486.046 560.471 492.23 560.797H570.355C574.913 560.96 578.656 562.669 581.586 565.924C584.678 569.179 586.225 573.085 586.225 577.643C586.062 582.037 584.434 585.781 581.342 588.873C578.412 591.803 574.75 593.349 570.355 593.512H483.93C472.536 592.861 463.096 589.036 455.609 582.037C448.285 574.876 442.995 566.168 439.74 555.914C436.648 545.66 435.02 534.755 434.857 523.199V461.432C435.02 457.037 436.648 453.375 439.74 450.445C442.833 447.353 446.576 445.725 450.971 445.562ZM665.082 482.184C658.897 482.509 653.689 484.869 649.457 489.264C645.388 493.658 642.458 498.704 640.668 504.4C638.878 509.934 637.982 515.631 637.982 521.49C637.982 527.35 638.796 533.128 640.424 538.824C642.214 544.521 645.225 549.566 649.457 553.961C653.689 558.193 658.897 560.471 665.082 560.797H745.648C755.902 561.773 761.518 567.389 762.494 577.643C762.331 582.2 760.622 586.025 757.367 589.117C754.112 592.047 750.206 593.512 745.648 593.512H667.768H656.537C645.144 592.861 635.785 588.548 628.461 580.572C621.137 572.434 615.847 563.238 612.592 552.984C609.499 542.73 607.953 532.232 607.953 521.49C607.953 513.515 608.848 505.621 610.639 497.809C612.429 489.996 615.196 482.59 618.939 475.592C622.846 468.43 627.973 462.327 634.32 457.281C640.831 452.236 648.236 449.632 656.537 449.469H661.176H745.648C755.902 450.445 761.518 456.061 762.494 466.314C762.494 470.872 760.785 474.697 757.367 477.789C754.112 480.719 750.206 482.184 745.648 482.184H665.082Z" fill="url(#paint23_linear_2_158)"/>
<path d="M323.262 600.127C314.798 600.127 306.416 599.15 298.115 597.197C289.977 595.244 282.165 592.396 274.678 588.652C267.191 584.746 260.599 579.619 254.902 573.271C249.206 566.924 246.113 559.355 245.625 550.566V540.312V462.432C245.625 457.874 247.253 454.131 250.508 451.201C253.926 448.109 257.913 446.562 262.471 446.562C272.236 447.376 277.526 452.666 278.34 462.432V542.998C278.665 548.044 280.537 552.275 283.955 555.693C287.536 558.949 291.442 561.553 295.674 563.506C300.068 565.459 304.544 566.924 309.102 567.9C313.822 568.877 318.542 569.365 323.262 569.365C327.982 569.365 332.62 568.877 337.178 567.9C341.898 566.924 346.374 565.459 350.605 563.506C355 561.553 358.906 558.949 362.324 555.693C365.905 552.275 367.858 548.044 368.184 542.998V462.432C368.184 457.874 369.811 454.131 373.066 451.201C376.484 448.109 380.472 446.562 385.029 446.562C394.795 447.376 400.166 452.666 401.143 462.432V540.312V550.566C400.654 559.355 397.48 566.924 391.621 573.271C385.924 579.619 379.333 584.746 371.846 588.652C364.359 592.396 356.465 595.244 348.164 597.197C340.026 599.15 331.725 600.127 323.262 600.127ZM449.971 446.562C454.528 446.562 458.434 448.109 461.689 451.201C464.945 454.131 466.654 457.874 466.816 462.432V521.27C466.654 527.943 467.061 534.128 468.037 539.824C469.176 545.358 471.781 550.322 475.85 554.717C479.919 559.111 485.046 561.471 491.23 561.797H569.355C573.913 561.96 577.656 563.669 580.586 566.924C583.678 570.179 585.225 574.085 585.225 578.643C585.062 583.037 583.434 586.781 580.342 589.873C577.412 592.803 573.75 594.349 569.355 594.512H482.93C471.536 593.861 462.096 590.036 454.609 583.037C447.285 575.876 441.995 567.168 438.74 556.914C435.648 546.66 434.02 535.755 433.857 524.199V462.432C434.02 458.037 435.648 454.375 438.74 451.445C441.833 448.353 445.576 446.725 449.971 446.562ZM664.082 483.184C657.897 483.509 652.689 485.869 648.457 490.264C644.388 494.658 641.458 499.704 639.668 505.4C637.878 510.934 636.982 516.631 636.982 522.49C636.982 528.35 637.796 534.128 639.424 539.824C641.214 545.521 644.225 550.566 648.457 554.961C652.689 559.193 657.897 561.471 664.082 561.797H744.648C754.902 562.773 760.518 568.389 761.494 578.643C761.331 583.2 759.622 587.025 756.367 590.117C753.112 593.047 749.206 594.512 744.648 594.512H666.768H655.537C644.144 593.861 634.785 589.548 627.461 581.572C620.137 573.434 614.847 564.238 611.592 553.984C608.499 543.73 606.953 533.232 606.953 522.49C606.953 514.515 607.848 506.621 609.639 498.809C611.429 490.996 614.196 483.59 617.939 476.592C621.846 469.43 626.973 463.327 633.32 458.281C639.831 453.236 647.236 450.632 655.537 450.469H660.176H744.648C754.902 451.445 760.518 457.061 761.494 467.314C761.494 471.872 759.785 475.697 756.367 478.789C753.112 481.719 749.206 483.184 744.648 483.184H664.082Z" fill="url(#paint24_linear_2_158)"/>
<path d="M323.262 600.127C314.798 600.127 306.416 599.15 298.115 597.197C289.977 595.244 282.165 592.396 274.678 588.652C267.191 584.746 260.599 579.619 254.902 573.271C249.206 566.924 246.113 559.355 245.625 550.566V540.312V462.432C245.625 457.874 247.253 454.131 250.508 451.201C253.926 448.109 257.913 446.562 262.471 446.562C272.236 447.376 277.526 452.666 278.34 462.432V542.998C278.665 548.044 280.537 552.275 283.955 555.693C287.536 558.949 291.442 561.553 295.674 563.506C300.068 565.459 304.544 566.924 309.102 567.9C313.822 568.877 318.542 569.365 323.262 569.365C327.982 569.365 332.62 568.877 337.178 567.9C341.898 566.924 346.374 565.459 350.605 563.506C355 561.553 358.906 558.949 362.324 555.693C365.905 552.275 367.858 548.044 368.184 542.998V462.432C368.184 457.874 369.811 454.131 373.066 451.201C376.484 448.109 380.472 446.562 385.029 446.562C394.795 447.376 400.166 452.666 401.143 462.432V540.312V550.566C400.654 559.355 397.48 566.924 391.621 573.271C385.924 579.619 379.333 584.746 371.846 588.652C364.359 592.396 356.465 595.244 348.164 597.197C340.026 599.15 331.725 600.127 323.262 600.127ZM449.971 446.562C454.528 446.562 458.434 448.109 461.689 451.201C464.945 454.131 466.654 457.874 466.816 462.432V521.27C466.654 527.943 467.061 534.128 468.037 539.824C469.176 545.358 471.781 550.322 475.85 554.717C479.919 559.111 485.046 561.471 491.23 561.797H569.355C573.913 561.96 577.656 563.669 580.586 566.924C583.678 570.179 585.225 574.085 585.225 578.643C585.062 583.037 583.434 586.781 580.342 589.873C577.412 592.803 573.75 594.349 569.355 594.512H482.93C471.536 593.861 462.096 590.036 454.609 583.037C447.285 575.876 441.995 567.168 438.74 556.914C435.648 546.66 434.02 535.755 433.857 524.199V462.432C434.02 458.037 435.648 454.375 438.74 451.445C441.833 448.353 445.576 446.725 449.971 446.562ZM664.082 483.184C657.897 483.509 652.689 485.869 648.457 490.264C644.388 494.658 641.458 499.704 639.668 505.4C637.878 510.934 636.982 516.631 636.982 522.49C636.982 528.35 637.796 534.128 639.424 539.824C641.214 545.521 644.225 550.566 648.457 554.961C652.689 559.193 657.897 561.471 664.082 561.797H744.648C754.902 562.773 760.518 568.389 761.494 578.643C761.331 583.2 759.622 587.025 756.367 590.117C753.112 593.047 749.206 594.512 744.648 594.512H666.768H655.537C644.144 593.861 634.785 589.548 627.461 581.572C620.137 573.434 614.847 564.238 611.592 553.984C608.499 543.73 606.953 533.232 606.953 522.49C606.953 514.515 607.848 506.621 609.639 498.809C611.429 490.996 614.196 483.59 617.939 476.592C621.846 469.43 626.973 463.327 633.32 458.281C639.831 453.236 647.236 450.632 655.537 450.469H660.176H744.648C754.902 451.445 760.518 457.061 761.494 467.314C761.494 471.872 759.785 475.697 756.367 478.789C753.112 481.719 749.206 483.184 744.648 483.184H664.082Z" fill="url(#paint25_linear_2_158)"/>
<path d="M323.262 601.127C314.798 601.127 306.416 600.15 298.115 598.197C289.977 596.244 282.165 593.396 274.678 589.652C267.191 585.746 260.599 580.619 254.902 574.271C249.206 567.924 246.113 560.355 245.625 551.566V541.312V463.432C245.625 458.874 247.253 455.131 250.508 452.201C253.926 449.109 257.913 447.562 262.471 447.562C272.236 448.376 277.526 453.666 278.34 463.432V543.998C278.665 549.044 280.537 553.275 283.955 556.693C287.536 559.949 291.442 562.553 295.674 564.506C300.068 566.459 304.544 567.924 309.102 568.9C313.822 569.877 318.542 570.365 323.262 570.365C327.982 570.365 332.62 569.877 337.178 568.9C341.898 567.924 346.374 566.459 350.605 564.506C355 562.553 358.906 559.949 362.324 556.693C365.905 553.275 367.858 549.044 368.184 543.998V463.432C368.184 458.874 369.811 455.131 373.066 452.201C376.484 449.109 380.472 447.562 385.029 447.562C394.795 448.376 400.166 453.666 401.143 463.432V541.312V551.566C400.654 560.355 397.48 567.924 391.621 574.271C385.924 580.619 379.333 585.746 371.846 589.652C364.359 593.396 356.465 596.244 348.164 598.197C340.026 600.15 331.725 601.127 323.262 601.127ZM449.971 447.562C454.528 447.562 458.434 449.109 461.689 452.201C464.945 455.131 466.654 458.874 466.816 463.432V522.27C466.654 528.943 467.061 535.128 468.037 540.824C469.176 546.358 471.781 551.322 475.85 555.717C479.919 560.111 485.046 562.471 491.23 562.797H569.355C573.913 562.96 577.656 564.669 580.586 567.924C583.678 571.179 585.225 575.085 585.225 579.643C585.062 584.037 583.434 587.781 580.342 590.873C577.412 593.803 573.75 595.349 569.355 595.512H482.93C471.536 594.861 462.096 591.036 454.609 584.037C447.285 576.876 441.995 568.168 438.74 557.914C435.648 547.66 434.02 536.755 433.857 525.199V463.432C434.02 459.037 435.648 455.375 438.74 452.445C441.833 449.353 445.576 447.725 449.971 447.562ZM664.082 484.184C657.897 484.509 652.689 486.869 648.457 491.264C644.388 495.658 641.458 500.704 639.668 506.4C637.878 511.934 636.982 517.631 636.982 523.49C636.982 529.35 637.796 535.128 639.424 540.824C641.214 546.521 644.225 551.566 648.457 555.961C652.689 560.193 657.897 562.471 664.082 562.797H744.648C754.902 563.773 760.518 569.389 761.494 579.643C761.331 584.2 759.622 588.025 756.367 591.117C753.112 594.047 749.206 595.512 744.648 595.512H666.768H655.537C644.144 594.861 634.785 590.548 627.461 582.572C620.137 574.434 614.847 565.238 611.592 554.984C608.499 544.73 606.953 534.232 606.953 523.49C606.953 515.515 607.848 507.621 609.639 499.809C611.429 491.996 614.196 484.59 617.939 477.592C621.846 470.43 626.973 464.327 633.32 459.281C639.831 454.236 647.236 451.632 655.537 451.469H660.176H744.648C754.902 452.445 760.518 458.061 761.494 468.314C761.494 472.872 759.785 476.697 756.367 479.789C753.112 482.719 749.206 484.184 744.648 484.184H664.082Z" fill="url(#paint26_linear_2_158)"/>
<path d="M324.262 598.127C315.798 598.127 307.416 597.15 299.115 595.197C290.977 593.244 283.165 590.396 275.678 586.652C268.191 582.746 261.599 577.619 255.902 571.271C250.206 564.924 247.113 557.355 246.625 548.566V538.312V460.432C246.625 455.874 248.253 452.131 251.508 449.201C254.926 446.109 258.913 444.562 263.471 444.562C273.236 445.376 278.526 450.666 279.34 460.432V540.998C279.665 546.044 281.537 550.275 284.955 553.693C288.536 556.949 292.442 559.553 296.674 561.506C301.068 563.459 305.544 564.924 310.102 565.9C314.822 566.877 319.542 567.365 324.262 567.365C328.982 567.365 333.62 566.877 338.178 565.9C342.898 564.924 347.374 563.459 351.605 561.506C356 559.553 359.906 556.949 363.324 553.693C366.905 550.275 368.858 546.044 369.184 540.998V460.432C369.184 455.874 370.811 452.131 374.066 449.201C377.484 446.109 381.472 444.562 386.029 444.562C395.795 445.376 401.166 450.666 402.143 460.432V538.312V548.566C401.654 557.355 398.48 564.924 392.621 571.271C386.924 577.619 380.333 582.746 372.846 586.652C365.359 590.396 357.465 593.244 349.164 595.197C341.026 597.15 332.725 598.127 324.262 598.127ZM450.971 444.562C455.528 444.562 459.434 446.109 462.689 449.201C465.945 452.131 467.654 455.874 467.816 460.432V519.27C467.654 525.943 468.061 532.128 469.037 537.824C470.176 543.358 472.781 548.322 476.85 552.717C480.919 557.111 486.046 559.471 492.23 559.797H570.355C574.913 559.96 578.656 561.669 581.586 564.924C584.678 568.179 586.225 572.085 586.225 576.643C586.062 581.037 584.434 584.781 581.342 587.873C578.412 590.803 574.75 592.349 570.355 592.512H483.93C472.536 591.861 463.096 588.036 455.609 581.037C448.285 573.876 442.995 565.168 439.74 554.914C436.648 544.66 435.02 533.755 434.857 522.199V460.432C435.02 456.037 436.648 452.375 439.74 449.445C442.833 446.353 446.576 444.725 450.971 444.562ZM665.082 481.184C658.897 481.509 653.689 483.869 649.457 488.264C645.388 492.658 642.458 497.704 640.668 503.4C638.878 508.934 637.982 514.631 637.982 520.49C637.982 526.35 638.796 532.128 640.424 537.824C642.214 543.521 645.225 548.566 649.457 552.961C653.689 557.193 658.897 559.471 665.082 559.797H745.648C755.902 560.773 761.518 566.389 762.494 576.643C762.331 581.2 760.622 585.025 757.367 588.117C754.112 591.047 750.206 592.512 745.648 592.512H667.768H656.537C645.144 591.861 635.785 587.548 628.461 579.572C621.137 571.434 615.847 562.238 612.592 551.984C609.499 541.73 607.953 531.232 607.953 520.49C607.953 512.515 608.848 504.621 610.639 496.809C612.429 488.996 615.196 481.59 618.939 474.592C622.846 467.43 627.973 461.327 634.32 456.281C640.831 451.236 648.236 448.632 656.537 448.469H661.176H745.648C755.902 449.445 761.518 455.061 762.494 465.314C762.494 469.872 760.785 473.697 757.367 476.789C754.112 479.719 750.206 481.184 745.648 481.184H665.082Z" fill="url(#paint27_linear_2_158)"/>
<path d="M323.262 599.127C314.798 599.127 306.416 598.15 298.115 596.197C289.977 594.244 282.165 591.396 274.678 587.652C267.191 583.746 260.599 578.619 254.902 572.271C249.206 565.924 246.113 558.355 245.625 549.566V539.312V461.432C245.625 456.874 247.253 453.131 250.508 450.201C253.926 447.109 257.913 445.562 262.471 445.562C272.236 446.376 277.526 451.666 278.34 461.432V541.998C278.665 547.044 280.537 551.275 283.955 554.693C287.536 557.949 291.442 560.553 295.674 562.506C300.068 564.459 304.544 565.924 309.102 566.9C313.822 567.877 318.542 568.365 323.262 568.365C327.982 568.365 332.62 567.877 337.178 566.9C341.898 565.924 346.374 564.459 350.605 562.506C355 560.553 358.906 557.949 362.324 554.693C365.905 551.275 367.858 547.044 368.184 541.998V461.432C368.184 456.874 369.811 453.131 373.066 450.201C376.484 447.109 380.472 445.562 385.029 445.562C394.795 446.376 400.166 451.666 401.143 461.432V539.312V549.566C400.654 558.355 397.48 565.924 391.621 572.271C385.924 578.619 379.333 583.746 371.846 587.652C364.359 591.396 356.465 594.244 348.164 596.197C340.026 598.15 331.725 599.127 323.262 599.127ZM449.971 445.562C454.528 445.562 458.434 447.109 461.689 450.201C464.945 453.131 466.654 456.874 466.816 461.432V520.27C466.654 526.943 467.061 533.128 468.037 538.824C469.176 544.358 471.781 549.322 475.85 553.717C479.919 558.111 485.046 560.471 491.23 560.797H569.355C573.913 560.96 577.656 562.669 580.586 565.924C583.678 569.179 585.225 573.085 585.225 577.643C585.062 582.037 583.434 585.781 580.342 588.873C577.412 591.803 573.75 593.349 569.355 593.512H482.93C471.536 592.861 462.096 589.036 454.609 582.037C447.285 574.876 441.995 566.168 438.74 555.914C435.648 545.66 434.02 534.755 433.857 523.199V461.432C434.02 457.037 435.648 453.375 438.74 450.445C441.833 447.353 445.576 445.725 449.971 445.562ZM664.082 482.184C657.897 482.509 652.689 484.869 648.457 489.264C644.388 493.658 641.458 498.704 639.668 504.4C637.878 509.934 636.982 515.631 636.982 521.49C636.982 527.35 637.796 533.128 639.424 538.824C641.214 544.521 644.225 549.566 648.457 553.961C652.689 558.193 657.897 560.471 664.082 560.797H744.648C754.902 561.773 760.518 567.389 761.494 577.643C761.331 582.2 759.622 586.025 756.367 589.117C753.112 592.047 749.206 593.512 744.648 593.512H666.768H655.537C644.144 592.861 634.785 588.548 627.461 580.572C620.137 572.434 614.847 563.238 611.592 552.984C608.499 542.73 606.953 532.232 606.953 521.49C606.953 513.515 607.848 505.621 609.639 497.809C611.429 489.996 614.196 482.59 617.939 475.592C621.846 468.43 626.973 462.327 633.32 457.281C639.831 452.236 647.236 449.632 655.537 449.469H660.176H744.648C754.902 450.445 760.518 456.061 761.494 466.314C761.494 470.872 759.785 474.697 756.367 477.789C753.112 480.719 749.206 482.184 744.648 482.184H664.082Z" fill="url(#paint28_linear_2_158)"/>
<path d="M323.262 599.127C314.798 599.127 306.416 598.15 298.115 596.197C289.977 594.244 282.165 591.396 274.678 587.652C267.191 583.746 260.599 578.619 254.902 572.271C249.206 565.924 246.113 558.355 245.625 549.566V539.312V461.432C245.625 456.874 247.253 453.131 250.508 450.201C253.926 447.109 257.913 445.562 262.471 445.562C272.236 446.376 277.526 451.666 278.34 461.432V541.998C278.665 547.044 280.537 551.275 283.955 554.693C287.536 557.949 291.442 560.553 295.674 562.506C300.068 564.459 304.544 565.924 309.102 566.9C313.822 567.877 318.542 568.365 323.262 568.365C327.982 568.365 332.62 567.877 337.178 566.9C341.898 565.924 346.374 564.459 350.605 562.506C355 560.553 358.906 557.949 362.324 554.693C365.905 551.275 367.858 547.044 368.184 541.998V461.432C368.184 456.874 369.811 453.131 373.066 450.201C376.484 447.109 380.472 445.562 385.029 445.562C394.795 446.376 400.166 451.666 401.143 461.432V539.312V549.566C400.654 558.355 397.48 565.924 391.621 572.271C385.924 578.619 379.333 583.746 371.846 587.652C364.359 591.396 356.465 594.244 348.164 596.197C340.026 598.15 331.725 599.127 323.262 599.127ZM449.971 445.562C454.528 445.562 458.434 447.109 461.689 450.201C464.945 453.131 466.654 456.874 466.816 461.432V520.27C466.654 526.943 467.061 533.128 468.037 538.824C469.176 544.358 471.781 549.322 475.85 553.717C479.919 558.111 485.046 560.471 491.23 560.797H569.355C573.913 560.96 577.656 562.669 580.586 565.924C583.678 569.179 585.225 573.085 585.225 577.643C585.062 582.037 583.434 585.781 580.342 588.873C577.412 591.803 573.75 593.349 569.355 593.512H482.93C471.536 592.861 462.096 589.036 454.609 582.037C447.285 574.876 441.995 566.168 438.74 555.914C435.648 545.66 434.02 534.755 433.857 523.199V461.432C434.02 457.037 435.648 453.375 438.74 450.445C441.833 447.353 445.576 445.725 449.971 445.562ZM664.082 482.184C657.897 482.509 652.689 484.869 648.457 489.264C644.388 493.658 641.458 498.704 639.668 504.4C637.878 509.934 636.982 515.631 636.982 521.49C636.982 527.35 637.796 533.128 639.424 538.824C641.214 544.521 644.225 549.566 648.457 553.961C652.689 558.193 657.897 560.471 664.082 560.797H744.648C754.902 561.773 760.518 567.389 761.494 577.643C761.331 582.2 759.622 586.025 756.367 589.117C753.112 592.047 749.206 593.512 744.648 593.512H666.768H655.537C644.144 592.861 634.785 588.548 627.461 580.572C620.137 572.434 614.847 563.238 611.592 552.984C608.499 542.73 606.953 532.232 606.953 521.49C606.953 513.515 607.848 505.621 609.639 497.809C611.429 489.996 614.196 482.59 617.939 475.592C621.846 468.43 626.973 462.327 633.32 457.281C639.831 452.236 647.236 449.632 655.537 449.469H660.176H744.648C754.902 450.445 760.518 456.061 761.494 466.314C761.494 470.872 759.785 474.697 756.367 477.789C753.112 480.719 749.206 482.184 744.648 482.184H664.082Z" fill="url(#paint29_linear_2_158)"/>
<path d="M323.262 600.127C314.798 600.127 306.416 599.15 298.115 597.197C289.977 595.244 282.165 592.396 274.678 588.652C267.191 584.746 260.599 579.619 254.902 573.271C249.206 566.924 246.113 559.355 245.625 550.566V540.312V462.432C245.625 457.874 247.253 454.131 250.508 451.201C253.926 448.109 257.913 446.562 262.471 446.562C272.236 447.376 277.526 452.666 278.34 462.432V542.998C278.665 548.044 280.537 552.275 283.955 555.693C287.536 558.949 291.442 561.553 295.674 563.506C300.068 565.459 304.544 566.924 309.102 567.9C313.822 568.877 318.542 569.365 323.262 569.365C327.982 569.365 332.62 568.877 337.178 567.9C341.898 566.924 346.374 565.459 350.605 563.506C355 561.553 358.906 558.949 362.324 555.693C365.905 552.275 367.858 548.044 368.184 542.998V462.432C368.184 457.874 369.811 454.131 373.066 451.201C376.484 448.109 380.472 446.562 385.029 446.562C394.795 447.376 400.166 452.666 401.143 462.432V540.312V550.566C400.654 559.355 397.48 566.924 391.621 573.271C385.924 579.619 379.333 584.746 371.846 588.652C364.359 592.396 356.465 595.244 348.164 597.197C340.026 599.15 331.725 600.127 323.262 600.127ZM449.971 446.562C454.528 446.562 458.434 448.109 461.689 451.201C464.945 454.131 466.654 457.874 466.816 462.432V521.27C466.654 527.943 467.061 534.128 468.037 539.824C469.176 545.358 471.781 550.322 475.85 554.717C479.919 559.111 485.046 561.471 491.23 561.797H569.355C573.913 561.96 577.656 563.669 580.586 566.924C583.678 570.179 585.225 574.085 585.225 578.643C585.062 583.037 583.434 586.781 580.342 589.873C577.412 592.803 573.75 594.349 569.355 594.512H482.93C471.536 593.861 462.096 590.036 454.609 583.037C447.285 575.876 441.995 567.168 438.74 556.914C435.648 546.66 434.02 535.755 433.857 524.199V462.432C434.02 458.037 435.648 454.375 438.74 451.445C441.833 448.353 445.576 446.725 449.971 446.562ZM664.082 483.184C657.897 483.509 652.689 485.869 648.457 490.264C644.388 494.658 641.458 499.704 639.668 505.4C637.878 510.934 636.982 516.631 636.982 522.49C636.982 528.35 637.796 534.128 639.424 539.824C641.214 545.521 644.225 550.566 648.457 554.961C652.689 559.193 657.897 561.471 664.082 561.797H744.648C754.902 562.773 760.518 568.389 761.494 578.643C761.331 583.2 759.622 587.025 756.367 590.117C753.112 593.047 749.206 594.512 744.648 594.512H666.768H655.537C644.144 593.861 634.785 589.548 627.461 581.572C620.137 573.434 614.847 564.238 611.592 553.984C608.499 543.73 606.953 533.232 606.953 522.49C606.953 514.515 607.848 506.621 609.639 498.809C611.429 490.996 614.196 483.59 617.939 476.592C621.846 469.43 626.973 463.327 633.32 458.281C639.831 453.236 647.236 450.632 655.537 450.469H660.176H744.648C754.902 451.445 760.518 457.061 761.494 467.314C761.494 471.872 759.785 475.697 756.367 478.789C753.112 481.719 749.206 483.184 744.648 483.184H664.082Z" fill="url(#paint30_linear_2_158)"/>
<path d="M323.262 594.127C314.798 594.127 306.416 593.15 298.115 591.197C289.977 589.244 282.165 586.396 274.678 582.652C267.191 578.746 260.599 573.619 254.902 567.271C249.206 560.924 246.113 553.355 245.625 544.566V534.312V456.432C245.625 451.874 247.253 448.131 250.508 445.201C253.926 442.109 257.913 440.562 262.471 440.562C272.236 441.376 277.526 446.666 278.34 456.432V536.998C278.665 542.044 280.537 546.275 283.955 549.693C287.536 552.949 291.442 555.553 295.674 557.506C300.068 559.459 304.544 560.924 309.102 561.9C313.822 562.877 318.542 563.365 323.262 563.365C327.982 563.365 332.62 562.877 337.178 561.9C341.898 560.924 346.374 559.459 350.605 557.506C355 555.553 358.906 552.949 362.324 549.693C365.905 546.275 367.858 542.044 368.184 536.998V456.432C368.184 451.874 369.811 448.131 373.066 445.201C376.484 442.109 380.472 440.562 385.029 440.562C394.795 441.376 400.166 446.666 401.143 456.432V534.312V544.566C400.654 553.355 397.48 560.924 391.621 567.271C385.924 573.619 379.333 578.746 371.846 582.652C364.359 586.396 356.465 589.244 348.164 591.197C340.026 593.15 331.725 594.127 323.262 594.127ZM449.971 440.562C454.528 440.562 458.434 442.109 461.689 445.201C464.945 448.131 466.654 451.874 466.816 456.432V515.27C466.654 521.943 467.061 528.128 468.037 533.824C469.176 539.358 471.781 544.322 475.85 548.717C479.919 553.111 485.046 555.471 491.23 555.797H569.355C573.913 555.96 577.656 557.669 580.586 560.924C583.678 564.179 585.225 568.085 585.225 572.643C585.062 577.037 583.434 580.781 580.342 583.873C577.412 586.803 573.75 588.349 569.355 588.512H482.93C471.536 587.861 462.096 584.036 454.609 577.037C447.285 569.876 441.995 561.168 438.74 550.914C435.648 540.66 434.02 529.755 433.857 518.199V456.432C434.02 452.037 435.648 448.375 438.74 445.445C441.833 442.353 445.576 440.725 449.971 440.562ZM664.082 477.184C657.897 477.509 652.689 479.869 648.457 484.264C644.388 488.658 641.458 493.704 639.668 499.4C637.878 504.934 636.982 510.631 636.982 516.49C636.982 522.35 637.796 528.128 639.424 533.824C641.214 539.521 644.225 544.566 648.457 548.961C652.689 553.193 657.897 555.471 664.082 555.797H744.648C754.902 556.773 760.518 562.389 761.494 572.643C761.331 577.2 759.622 581.025 756.367 584.117C753.112 587.047 749.206 588.512 744.648 588.512H666.768H655.537C644.144 587.861 634.785 583.548 627.461 575.572C620.137 567.434 614.847 558.238 611.592 547.984C608.499 537.73 606.953 527.232 606.953 516.49C606.953 508.515 607.848 500.621 609.639 492.809C611.429 484.996 614.196 477.59 617.939 470.592C621.846 463.43 626.973 457.327 633.32 452.281C639.831 447.236 647.236 444.632 655.537 444.469H660.176H744.648C754.902 445.445 760.518 451.061 761.494 461.314C761.494 465.872 759.785 469.697 756.367 472.789C753.112 475.719 749.206 477.184 744.648 477.184H664.082Z" fill="#C8D9D9"/>
</g>
<defs>
<filter id="filter0_d_2_158" x="-32.6" y="-32.6" width="1065.2" height="1065.2" filterUnits="userSpaceOnUse" color-interpolation-filters="sRGB">
<feFlood flood-opacity="0" result="BackgroundImageFix"/>
<feColorMatrix in="SourceAlpha" type="matrix" values="0 0 0 0 0 0 0 0 0 0 0 0 0 0 0 0 0 0 127 0" result="hardAlpha"/>
<feMorphology radius="22" operator="dilate" in="SourceAlpha" result="effect1_dropShadow_2_158"/>
<feOffset/>
<feGaussianBlur stdDeviation="30.3"/>
<feComposite in2="hardAlpha" operator="out"/>
<feColorMatrix type="matrix" values="0 0 0 0 0 0 0 0 0 0 0 0 0 0 0 0 0 0 0.25 0"/>
<feBlend mode="normal" in2="BackgroundImageFix" result="effect1_dropShadow_2_158"/>
<feBlend mode="normal" in="SourceGraphic" in2="effect1_dropShadow_2_158" result="shape"/>
</filter>
<filter id="filter1_i_2_158" x="98" y="89" width="804" height="826" filterUnits="userSpaceOnUse" color-interpolation-filters="sRGB">
<feFlood flood-opacity="0" result="BackgroundImageFix"/>
<feBlend mode="normal" in="SourceGraphic" in2="BackgroundImageFix" result="shape"/>
<feColorMatrix in="SourceAlpha" type="matrix" values="0 0 0 0 0 0 0 0 0 0 0 0 0 0 0 0 0 0 127 0" result="hardAlpha"/>
<feMorphology radius="15" operator="erode" in="SourceAlpha" result="effect1_innerShadow_2_158"/>
<feOffset dy="4"/>
<feGaussianBlur stdDeviation="13.35"/>
<feComposite in2="hardAlpha" operator="arithmetic" k2="-1" k3="1"/>
<feColorMatrix type="matrix" values="0 0 0 0 0 0 0 0 0 0 0 0 0 0 0 0 0 0 0.25 0"/>
<feBlend mode="normal" in2="shape" result="effect1_innerShadow_2_158"/>
</filter>
<filter id="filter2_d_2_158" x="227.625" y="442.562" width="553.869" height="207.564" filterUnits="userSpaceOnUse" color-interpolation-filters="sRGB">
<feFlood flood-opacity="0" result="BackgroundImageFix"/>
<feColorMatrix in="SourceAlpha" type="matrix" values="0 0 0 0 0 0 0 0 0 0 0 0 0 0 0 0 0 0 127 0" result="hardAlpha"/>
<feOffset dy="35"/>
<feGaussianBlur stdDeviation="9.5"/>
<feComposite in2="hardAlpha" operator="out"/>
<feColorMatrix type="matrix" values="0 0 0 0 0 0 0 0 0 0 0 0 0 0 0 0 0 0 0.25 0"/>
<feBlend mode="normal" in2="BackgroundImageFix" result="effect1_dropShadow_2_158"/>
<feBlend mode="normal" in="SourceGraphic" in2="effect1_dropShadow_2_158" result="shape"/>
</filter>
<linearGradient id="paint0_linear_2_158" x1="905.5" y1="204.5" x2="113" y2="804" gradientUnits="userSpaceOnUse">
<stop stop-color="#5EE1F5"/>
<stop offset="0.341346" stop-color="#43D7CA"/>
<stop offset="0.668269" stop-color="#1AB087"/>
<stop offset="1" stop-color="#126E55"/>
</linearGradient>
<linearGradient id="paint1_linear_2_158" x1="814.95" y1="184.05" x2="101.7" y2="723.6" gradientUnits="userSpaceOnUse">
<stop stop-color="#5EE1F5"/>
<stop offset="0.341346" stop-color="#43D7CA"/>
<stop offset="0.668269" stop-color="#1AB087"/>
<stop offset="1" stop-color="#126E55"/>
</linearGradient>
<linearGradient id="paint2_linear_2_158" x1="233" y1="804.5" x2="761.5" y2="193.5" gradientUnits="userSpaceOnUse">
<stop stop-color="#504F4F"/>
<stop offset="1" stop-color="#818181"/>
</linearGradient>
<linearGradient id="paint3_linear_2_158" x1="500.5" y1="376" x2="500.5" y2="626" gradientUnits="userSpaceOnUse">
<stop stop-color="#58DFEB"/>
<stop offset="1" stop-color="#158A6B"/>
</linearGradient>
<linearGradient id="paint4_linear_2_158" x1="499.5" y1="378" x2="499.5" y2="628" gradientUnits="userSpaceOnUse">
<stop stop-color="#58DFEB"/>
<stop offset="1" stop-color="#158A6B"/>
</linearGradient>
<linearGradient id="paint5_linear_2_158" x1="499.5" y1="378" x2="499.5" y2="628" gradientUnits="userSpaceOnUse">
<stop stop-color="#58DFEB"/>
<stop offset="1" stop-color="#158A6B"/>
</linearGradient>
<linearGradient id="paint6_linear_2_158" x1="499.5" y1="379" x2="499.5" y2="629" gradientUnits="userSpaceOnUse">
<stop stop-color="#58DFEB"/>
<stop offset="1" stop-color="#158A6B"/>
</linearGradient>
<linearGradient id="paint7_linear_2_158" x1="500.5" y1="383" x2="500.5" y2="633" gradientUnits="userSpaceOnUse">
<stop stop-color="#58DFEB"/>
<stop offset="1" stop-color="#158A6B"/>
</linearGradient>
<linearGradient id="paint8_linear_2_158" x1="499.5" y1="384" x2="499.5" y2="634" gradientUnits="userSpaceOnUse">
<stop stop-color="#58DFEB"/>
<stop offset="1" stop-color="#158A6B"/>
</linearGradient>
<linearGradient id="paint9_linear_2_158" x1="499.5" y1="384" x2="499.5" y2="634" gradientUnits="userSpaceOnUse">
<stop stop-color="#58DFEB"/>
<stop offset="1" stop-color="#158A6B"/>
</linearGradient>
<linearGradient id="paint10_linear_2_158" x1="499.5" y1="385" x2="499.5" y2="635" gradientUnits="userSpaceOnUse">
<stop stop-color="#58DFEB"/>
<stop offset="1" stop-color="#158A6B"/>
</linearGradient>
<linearGradient id="paint11_linear_2_158" x1="500.5" y1="382" x2="500.5" y2="632" gradientUnits="userSpaceOnUse">
<stop stop-color="#58DFEB"/>
<stop offset="1" stop-color="#158A6B"/>
</linearGradient>
<linearGradient id="paint12_linear_2_158" x1="499.5" y1="383" x2="499.5" y2="633" gradientUnits="userSpaceOnUse">
<stop stop-color="#58DFEB"/>
<stop offset="1" stop-color="#158A6B"/>
</linearGradient>
<linearGradient id="paint13_linear_2_158" x1="499.5" y1="383" x2="499.5" y2="633" gradientUnits="userSpaceOnUse">
<stop stop-color="#58DFEB"/>
<stop offset="1" stop-color="#158A6B"/>
</linearGradient>
<linearGradient id="paint14_linear_2_158" x1="499.5" y1="384" x2="499.5" y2="634" gradientUnits="userSpaceOnUse">
<stop stop-color="#58DFEB"/>
<stop offset="1" stop-color="#158A6B"/>
</linearGradient>
<linearGradient id="paint15_linear_2_158" x1="500.5" y1="381" x2="500.5" y2="631" gradientUnits="userSpaceOnUse">
<stop stop-color="#58DFEB"/>
<stop offset="1" stop-color="#158A6B"/>
</linearGradient>
<linearGradient id="paint16_linear_2_158" x1="499.5" y1="382" x2="499.5" y2="632" gradientUnits="userSpaceOnUse">
<stop stop-color="#58DFEB"/>
<stop offset="1" stop-color="#158A6B"/>
</linearGradient>
<linearGradient id="paint17_linear_2_158" x1="499.5" y1="382" x2="499.5" y2="632" gradientUnits="userSpaceOnUse">
<stop stop-color="#58DFEB"/>
<stop offset="1" stop-color="#158A6B"/>
</linearGradient>
<linearGradient id="paint18_linear_2_158" x1="499.5" y1="383" x2="499.5" y2="633" gradientUnits="userSpaceOnUse">
<stop stop-color="#58DFEB"/>
<stop offset="1" stop-color="#158A6B"/>
</linearGradient>
<linearGradient id="paint19_linear_2_158" x1="500.5" y1="380" x2="500.5" y2="630" gradientUnits="userSpaceOnUse">
<stop stop-color="#58DFEB"/>
<stop offset="1" stop-color="#158A6B"/>
</linearGradient>
<linearGradient id="paint20_linear_2_158" x1="499.5" y1="381" x2="499.5" y2="631" gradientUnits="userSpaceOnUse">
<stop stop-color="#58DFEB"/>
<stop offset="1" stop-color="#158A6B"/>
</linearGradient>
<linearGradient id="paint21_linear_2_158" x1="499.5" y1="381" x2="499.5" y2="631" gradientUnits="userSpaceOnUse">
<stop stop-color="#58DFEB"/>
<stop offset="1" stop-color="#158A6B"/>
</linearGradient>
<linearGradient id="paint22_linear_2_158" x1="499.5" y1="382" x2="499.5" y2="632" gradientUnits="userSpaceOnUse">
<stop stop-color="#58DFEB"/>
<stop offset="1" stop-color="#158A6B"/>
</linearGradient>
<linearGradient id="paint23_linear_2_158" x1="500.5" y1="379" x2="500.5" y2="629" gradientUnits="userSpaceOnUse">
<stop stop-color="#58DFEB"/>
<stop offset="1" stop-color="#158A6B"/>
</linearGradient>
<linearGradient id="paint24_linear_2_158" x1="499.5" y1="380" x2="499.5" y2="630" gradientUnits="userSpaceOnUse">
<stop stop-color="#58DFEB"/>
<stop offset="1" stop-color="#158A6B"/>
</linearGradient>
<linearGradient id="paint25_linear_2_158" x1="499.5" y1="380" x2="499.5" y2="630" gradientUnits="userSpaceOnUse">
<stop stop-color="#58DFEB"/>
<stop offset="1" stop-color="#158A6B"/>
</linearGradient>
<linearGradient id="paint26_linear_2_158" x1="499.5" y1="381" x2="499.5" y2="631" gradientUnits="userSpaceOnUse">
<stop stop-color="#58DFEB"/>
<stop offset="1" stop-color="#158A6B"/>
</linearGradient>
<linearGradient id="paint27_linear_2_158" x1="500.5" y1="378" x2="500.5" y2="628" gradientUnits="userSpaceOnUse">
<stop stop-color="#58DFEB"/>
<stop offset="1" stop-color="#158A6B"/>
</linearGradient>
<linearGradient id="paint28_linear_2_158" x1="499.5" y1="379" x2="499.5" y2="629" gradientUnits="userSpaceOnUse">
<stop stop-color="#58DFEB"/>
<stop offset="1" stop-color="#158A6B"/>
</linearGradient>
<linearGradient id="paint29_linear_2_158" x1="499.5" y1="379" x2="499.5" y2="629" gradientUnits="userSpaceOnUse">
<stop stop-color="#58DFEB"/>
<stop offset="1" stop-color="#158A6B"/>
</linearGradient>
<linearGradient id="paint30_linear_2_158" x1="499.5" y1="380" x2="499.5" y2="630" gradientUnits="userSpaceOnUse">
<stop stop-color="#58DFEB"/>
<stop offset="1" stop-color="#158A6B"/>
</linearGradient>
<clipPath id="clip0_2_158">
<rect width="1000" height="1000" rx="500" fill="white"/>
</clipPath>
</defs>
</svg>
