<svg width="1095" height="1088" viewBox="0 0 1095 1088" fill="none" xmlns="http://www.w3.org/2000/svg">
<g clip-path="url(#clip0_4_3)">
<rect width="1095" height="1088" rx="544" fill="white"/>
<path d="M1095.52 543.973C1095.52 243.787 850.281 0.438438 547.763 0.438438C245.244 0.438438 0.00390625 243.787 0.00390625 543.973C0.00390625 844.158 245.244 1087.51 547.763 1087.51C850.281 1087.51 1095.52 844.158 1095.52 543.973Z" fill="white"/>
<path d="M547.763 1087.51C850.281 1087.51 1095.52 844.158 1095.52 543.973C1095.52 243.787 850.281 0.438438 547.763 0.438438C245.244 0.438438 0.00390625 243.787 0.00390625 543.973C0.00390625 844.158 245.244 1087.51 547.763 1087.51Z" fill="url(#paint0_linear_4_3)"/>
<path d="M1040.75 543.973C1040.75 814.14 820.03 1033.15 547.763 1033.15C275.496 1033.15 54.7798 814.14 54.7798 543.973C54.7798 273.806 275.496 54.7919 547.763 54.7919C820.03 54.7919 1040.75 273.806 1040.75 543.973Z" fill="url(#paint1_linear_4_3)"/>
<path d="M547.763 990.758C790.988 990.758 988.161 790.725 988.161 543.973C988.161 297.22 790.988 97.1876 547.763 97.1876C304.538 97.1876 107.365 297.22 107.365 543.973C107.365 790.725 304.538 990.758 547.763 990.758Z" fill="url(#paint2_linear_4_3)"/>
<path d="M355.239 648.198C345.966 648.198 336.783 647.136 327.69 645.013C318.775 642.891 310.216 639.792 302.014 635.724C293.811 631.476 286.591 625.905 280.35 619.005C274.108 612.105 270.72 603.876 270.186 594.323V583.175V498.514C270.186 493.56 271.969 489.489 275.535 486.304C279.279 482.942 283.647 481.263 288.64 481.263C299.34 482.148 305.133 487.896 306.026 498.514V586.094C306.382 591.578 308.433 596.179 312.177 599.894C316.099 603.433 320.38 606.265 325.017 608.387C329.829 610.512 334.734 612.105 339.727 613.165C344.898 614.227 350.068 614.757 355.239 614.757C360.41 614.757 365.491 614.227 370.483 613.165C375.654 612.105 380.557 610.512 385.193 608.387C390.008 606.265 394.286 603.433 398.033 599.894C401.955 596.179 404.094 591.578 404.45 586.094V498.514C404.45 493.56 406.233 489.489 409.802 486.304C413.545 482.942 417.914 481.263 422.907 481.263C433.604 482.148 439.487 487.896 440.558 498.514V583.175V594.323C440.024 603.876 436.546 612.105 430.126 619.005C423.887 625.905 416.665 631.476 408.462 635.724C400.26 639.792 391.613 642.891 382.52 645.013C373.603 647.136 364.51 648.198 355.239 648.198ZM494.05 481.263C499.042 481.263 503.323 482.942 506.889 486.304C510.455 489.489 512.326 493.56 512.506 498.514V562.475C512.326 569.728 512.772 576.452 513.843 582.645C515.092 588.659 517.943 594.057 522.402 598.834C526.858 603.612 532.475 606.178 539.251 606.531H624.838C629.831 606.708 633.931 608.564 637.141 612.105C640.528 615.643 642.224 619.888 642.224 624.843C642.046 629.62 640.263 633.689 636.875 637.05C633.665 640.235 629.653 641.918 624.838 642.094H530.158C517.677 641.385 507.335 637.227 499.133 629.62C491.108 621.834 485.313 612.368 481.747 601.223C478.359 590.075 476.576 578.221 476.398 565.66V498.514C476.576 493.737 478.359 489.755 481.747 486.57C485.135 483.208 489.235 481.439 494.05 481.263ZM728.614 521.071C721.838 521.427 716.133 523.992 711.496 528.767C707.037 533.545 703.827 539.032 701.867 545.223C699.906 551.24 698.925 557.431 698.925 563.801C698.925 570.171 699.815 576.452 701.601 582.645C703.562 588.836 706.859 594.323 711.496 599.098C716.133 603.699 721.838 606.178 728.614 606.531H816.874C828.108 607.591 834.26 613.695 835.331 624.843C835.153 629.797 833.279 633.955 829.713 637.317C826.148 640.502 821.867 642.094 816.874 642.094H731.555H719.252C706.772 641.385 696.518 636.697 688.493 628.028C680.471 619.182 674.676 609.183 671.11 598.038C667.722 586.89 666.027 575.479 666.027 563.801C666.027 555.132 667.007 546.549 668.968 538.056C670.932 529.564 673.961 521.514 678.064 513.907C682.342 506.121 687.959 499.487 694.913 494.003C702.044 488.516 710.16 485.687 719.252 485.51H724.333H816.874C828.108 486.57 834.26 492.674 835.331 503.822C835.331 508.776 833.457 512.934 829.713 516.296C826.148 519.481 821.867 521.071 816.874 521.071H728.614Z" fill="url(#paint3_linear_4_3)"/>
<path d="M354.144 650.372C344.87 650.372 335.687 649.31 326.594 647.187C317.679 645.065 309.121 641.967 300.918 637.898C292.715 633.651 285.496 628.079 279.254 621.179C273.012 614.279 269.624 606.05 269.09 596.497V585.349V500.688C269.09 495.734 270.873 491.663 274.439 488.478C278.183 485.116 282.552 483.437 287.544 483.437C298.245 484.323 304.037 490.071 304.93 500.688V588.268C305.286 593.752 307.338 598.353 311.082 602.068C315.003 605.607 319.284 608.439 323.921 610.561C328.733 612.686 333.638 614.279 338.631 615.339C343.802 616.402 348.973 616.931 354.144 616.931C359.314 616.931 364.395 616.402 369.388 615.339C374.559 614.279 379.461 612.686 384.098 610.561C388.913 608.439 393.191 605.607 396.937 602.068C400.859 598.353 402.998 593.752 403.354 588.268V500.688C403.354 495.734 405.137 491.663 408.706 488.478C412.45 485.116 416.818 483.437 421.811 483.437C432.509 484.323 438.392 490.071 439.462 500.688V585.349V596.497C438.928 606.05 435.45 614.279 429.03 621.179C422.791 628.079 415.569 633.651 407.367 637.898C399.164 641.967 390.518 645.065 381.425 647.187C372.507 649.31 363.414 650.372 354.144 650.372ZM492.954 483.437C497.947 483.437 502.227 485.116 505.793 488.478C509.359 491.663 511.23 495.734 511.411 500.688V564.649C511.23 571.902 511.676 578.626 512.747 584.819C513.996 590.834 516.847 596.231 521.306 601.009C525.762 605.786 531.379 608.352 538.155 608.705H623.742C628.735 608.882 632.835 610.738 636.045 614.279C639.433 617.817 641.128 622.062 641.128 627.017C640.95 631.794 639.167 635.863 635.779 639.224C632.569 642.41 628.557 644.092 623.742 644.269H529.062C516.581 643.559 506.24 639.401 498.037 631.794C490.012 624.008 484.217 614.543 480.651 603.397C477.263 592.25 475.48 580.395 475.302 567.834V500.688C475.48 495.911 477.263 491.929 480.651 488.744C484.039 485.383 488.139 483.613 492.954 483.437ZM727.518 523.245C720.742 523.601 715.037 526.167 710.4 530.942C705.942 535.719 702.732 541.206 700.771 547.397C698.81 553.414 697.829 559.605 697.829 565.975C697.829 572.345 698.719 578.626 700.505 584.819C702.466 591.01 705.764 596.497 710.4 601.272C715.037 605.873 720.742 608.352 727.518 608.705H815.778C827.013 609.765 833.164 615.869 834.235 627.017C834.057 631.971 832.184 636.129 828.618 639.491C825.052 642.676 820.771 644.269 815.778 644.269H730.459H718.157C705.676 643.559 695.422 638.871 687.397 630.202C679.375 621.356 673.58 611.358 670.014 600.212C666.626 589.064 664.931 577.653 664.931 565.975C664.931 557.306 665.911 548.723 667.872 540.231C669.836 531.738 672.865 523.688 676.968 516.081C681.246 508.295 686.863 501.661 693.817 496.177C700.949 490.69 709.064 487.861 718.157 487.684H723.237H815.778C827.013 488.744 833.164 494.848 834.235 505.996C834.235 510.95 832.362 515.108 828.618 518.47C825.052 521.655 820.771 523.245 815.778 523.245H727.518Z" fill="url(#paint4_linear_4_3)"/>
<path d="M354.144 650.372C344.87 650.372 335.687 649.31 326.594 647.187C317.679 645.065 309.121 641.967 300.918 637.898C292.715 633.651 285.496 628.079 279.254 621.179C273.012 614.279 269.624 606.05 269.09 596.497V585.349V500.688C269.09 495.734 270.873 491.663 274.439 488.478C278.183 485.116 282.552 483.437 287.544 483.437C298.245 484.323 304.037 490.071 304.93 500.688V588.268C305.286 593.752 307.338 598.353 311.082 602.068C315.003 605.607 319.284 608.439 323.921 610.561C328.733 612.686 333.638 614.279 338.631 615.339C343.802 616.402 348.973 616.931 354.144 616.931C359.314 616.931 364.395 616.402 369.388 615.339C374.559 614.279 379.461 612.686 384.098 610.561C388.913 608.439 393.191 605.607 396.937 602.068C400.859 598.353 402.998 593.752 403.354 588.268V500.688C403.354 495.734 405.137 491.663 408.706 488.478C412.45 485.116 416.818 483.437 421.811 483.437C432.509 484.323 438.392 490.071 439.462 500.688V585.349V596.497C438.928 606.05 435.45 614.279 429.03 621.179C422.791 628.079 415.569 633.651 407.367 637.898C399.164 641.967 390.518 645.065 381.425 647.187C372.507 649.31 363.414 650.372 354.144 650.372ZM492.954 483.437C497.947 483.437 502.227 485.116 505.793 488.478C509.359 491.663 511.23 495.734 511.411 500.688V564.649C511.23 571.902 511.676 578.626 512.747 584.819C513.996 590.834 516.847 596.231 521.306 601.009C525.762 605.786 531.379 608.352 538.155 608.705H623.742C628.735 608.882 632.835 610.738 636.045 614.279C639.433 617.817 641.128 622.062 641.128 627.017C640.95 631.794 639.167 635.863 635.779 639.224C632.569 642.41 628.557 644.092 623.742 644.269H529.062C516.581 643.559 506.24 639.401 498.037 631.794C490.012 624.008 484.217 614.543 480.651 603.397C477.263 592.25 475.48 580.395 475.302 567.834V500.688C475.48 495.911 477.263 491.929 480.651 488.744C484.039 485.383 488.139 483.613 492.954 483.437ZM727.518 523.245C720.742 523.601 715.037 526.167 710.4 530.942C705.942 535.719 702.732 541.206 700.771 547.397C698.81 553.414 697.829 559.605 697.829 565.975C697.829 572.345 698.719 578.626 700.505 584.819C702.466 591.01 705.764 596.497 710.4 601.272C715.037 605.873 720.742 608.352 727.518 608.705H815.778C827.013 609.765 833.164 615.869 834.235 627.017C834.057 631.971 832.184 636.129 828.618 639.491C825.052 642.676 820.771 644.269 815.778 644.269H730.459H718.157C705.676 643.559 695.422 638.871 687.397 630.202C679.375 621.356 673.58 611.358 670.014 600.212C666.626 589.064 664.931 577.653 664.931 565.975C664.931 557.306 665.911 548.723 667.872 540.231C669.836 531.738 672.865 523.688 676.968 516.081C681.246 508.295 686.863 501.661 693.817 496.177C700.949 490.69 709.064 487.861 718.157 487.684H723.237H815.778C827.013 488.744 833.164 494.848 834.235 505.996C834.235 510.95 832.362 515.108 828.618 518.47C825.052 521.655 820.771 523.245 815.778 523.245H727.518Z" fill="url(#paint5_linear_4_3)"/>
<path d="M354.144 651.459C344.87 651.459 335.687 650.397 326.594 648.274C317.679 646.152 309.121 643.054 300.918 638.985C292.715 634.738 285.496 629.166 279.254 622.266C273.012 615.366 269.624 607.137 269.09 597.584V586.436V501.776C269.09 496.821 270.873 492.75 274.439 489.565C278.183 486.203 282.552 484.524 287.544 484.524C298.245 485.41 304.037 491.158 304.93 501.776V589.355C305.286 594.839 307.338 599.44 311.082 603.156C315.003 606.694 319.284 609.526 323.921 611.648C328.733 613.773 333.638 615.366 338.631 616.426C343.802 617.489 348.973 618.019 354.144 618.019C359.314 618.019 364.395 617.489 369.388 616.426C374.559 615.366 379.461 613.773 384.098 611.648C388.913 609.526 393.191 606.694 396.937 603.156C400.859 599.44 402.998 594.839 403.354 589.355V501.776C403.354 496.821 405.137 492.75 408.706 489.565C412.45 486.203 416.818 484.524 421.811 484.524C432.509 485.41 438.392 491.158 439.462 501.776V586.436V597.584C438.928 607.137 435.45 615.366 429.03 622.266C422.791 629.166 415.569 634.738 407.367 638.985C399.164 643.054 390.518 646.152 381.425 648.274C372.507 650.397 363.414 651.459 354.144 651.459ZM492.954 484.524C497.947 484.524 502.227 486.203 505.793 489.565C509.359 492.75 511.23 496.821 511.411 501.776V565.736C511.23 572.989 511.676 579.713 512.747 585.906C513.996 591.921 516.847 597.318 521.306 602.096C525.762 606.873 531.379 609.439 538.155 609.792H623.742C628.735 609.969 632.835 611.825 636.045 615.366C639.433 618.904 641.128 623.149 641.128 628.104C640.95 632.881 639.167 636.95 635.779 640.312C632.569 643.497 628.557 645.179 623.742 645.356H529.062C516.581 644.646 506.24 640.488 498.037 632.881C490.012 625.095 484.217 615.63 480.651 604.485C477.263 593.337 475.48 581.482 475.302 568.921V501.776C475.48 496.998 477.263 493.016 480.651 489.831C484.039 486.47 488.139 484.7 492.954 484.524ZM727.518 524.332C720.742 524.688 715.037 527.254 710.4 532.029C705.942 536.806 702.732 542.293 700.771 548.484C698.81 554.501 697.829 560.692 697.829 567.062C697.829 573.432 698.719 579.713 700.505 585.906C702.466 592.097 705.764 597.584 710.4 602.359C715.037 606.96 720.742 609.439 727.518 609.792H815.778C827.013 610.852 833.164 616.956 834.235 628.104C834.057 633.058 832.184 637.216 828.618 640.578C825.052 643.763 820.771 645.356 815.778 645.356H730.459H718.157C705.676 644.646 695.422 639.958 687.397 631.289C679.375 622.443 673.58 612.445 670.014 601.299C666.626 590.152 664.931 578.74 664.931 567.062C664.931 558.393 665.911 549.81 667.872 541.318C669.836 532.825 672.865 524.775 676.968 517.168C681.246 509.382 686.863 502.748 693.817 497.264C700.949 491.777 709.064 488.948 718.157 488.771H723.237H815.778C827.013 489.831 833.164 495.935 834.235 507.083C834.235 512.037 832.362 516.196 828.618 519.557C825.052 522.742 820.771 524.332 815.778 524.332H727.518Z" fill="url(#paint6_linear_4_3)"/>
<path d="M355.239 655.808C345.966 655.808 336.783 654.745 327.69 652.623C318.775 650.5 310.216 647.402 302.014 643.334C293.811 639.086 286.591 633.515 280.35 626.615C274.108 619.714 270.72 611.485 270.186 601.933V590.785V506.124C270.186 501.17 271.969 497.098 275.535 493.913C279.279 490.552 283.647 488.872 288.64 488.872C299.34 489.758 305.133 495.506 306.026 506.124V593.704C306.382 599.188 308.433 603.789 312.177 607.504C316.099 611.042 320.38 613.874 325.017 615.997C329.829 618.122 334.734 619.714 339.727 620.774C344.898 621.837 350.068 622.367 355.239 622.367C360.41 622.367 365.491 621.837 370.483 620.774C375.654 619.714 380.557 618.122 385.193 615.997C390.008 613.874 394.286 611.042 398.033 607.504C401.955 603.789 404.094 599.188 404.45 593.704V506.124C404.45 501.17 406.233 497.098 409.802 493.913C413.545 490.552 417.914 488.872 422.907 488.872C433.604 489.758 439.487 495.506 440.558 506.124V590.785V601.933C440.024 611.485 436.546 619.714 430.126 626.615C423.887 633.515 416.665 639.086 408.462 643.334C400.26 647.402 391.613 650.5 382.52 652.623C373.603 654.745 364.51 655.808 355.239 655.808ZM494.05 488.872C499.042 488.872 503.323 490.552 506.889 493.913C510.455 497.098 512.326 501.17 512.506 506.124V570.084C512.326 577.338 512.772 584.061 513.843 590.255C515.092 596.269 517.943 601.666 522.402 606.444C526.858 611.222 532.475 613.787 539.251 614.14H624.838C629.831 614.317 633.931 616.173 637.141 619.714C640.528 623.253 642.224 627.498 642.224 632.452C642.046 637.23 640.263 641.298 636.875 644.66C633.665 647.845 629.653 649.527 624.838 649.704H530.158C517.677 648.995 507.335 644.837 499.133 637.23C491.108 629.444 485.313 619.978 481.747 608.833C478.359 597.685 476.576 585.83 476.398 573.269V506.124C476.576 501.346 478.359 497.365 481.747 494.18C485.135 490.818 489.235 489.049 494.05 488.872ZM728.614 528.68C721.838 529.037 716.133 531.602 711.496 536.377C707.037 541.155 703.827 546.642 701.867 552.832C699.906 558.849 698.925 565.04 698.925 571.411C698.925 577.781 699.815 584.061 701.601 590.255C703.562 596.446 706.859 601.933 711.496 606.708C716.133 611.309 721.838 613.787 728.614 614.14H816.874C828.108 615.2 834.26 621.304 835.331 632.452C835.153 637.406 833.279 641.564 829.713 644.926C826.148 648.111 821.867 649.704 816.874 649.704H731.555H719.252C706.772 648.995 696.518 644.307 688.493 635.637C680.471 626.791 674.676 616.793 671.11 605.648C667.722 594.5 666.027 583.088 666.027 571.411C666.027 562.741 667.007 554.159 668.968 545.666C670.932 537.173 673.961 529.124 678.064 521.517C682.342 513.731 687.959 507.097 694.913 501.613C702.044 496.126 710.16 493.296 719.252 493.12H724.333H816.874C828.108 494.18 834.26 500.284 835.331 511.431C835.331 516.386 833.457 520.544 829.713 523.906C826.148 527.091 821.867 528.68 816.874 528.68H728.614Z" fill="url(#paint7_linear_4_3)"/>
<path d="M354.144 656.895C344.87 656.895 335.687 655.832 326.594 653.71C317.679 651.587 309.121 648.489 300.918 644.421C292.715 640.173 285.496 634.602 279.254 627.702C273.012 620.801 269.624 612.572 269.09 603.02V591.872V507.211C269.09 502.257 270.873 498.185 274.439 495C278.183 491.639 282.552 489.959 287.544 489.959C298.245 490.845 304.037 496.593 304.93 507.211V594.791C305.286 600.275 307.338 604.876 311.082 608.591C315.003 612.129 319.284 614.961 323.921 617.084C328.733 619.209 333.638 620.801 338.631 621.861C343.802 622.924 348.973 623.454 354.144 623.454C359.314 623.454 364.395 622.924 369.388 621.861C374.559 620.801 379.461 619.209 384.098 617.084C388.913 614.961 393.191 612.129 396.937 608.591C400.859 604.876 402.998 600.275 403.354 594.791V507.211C403.354 502.257 405.137 498.185 408.706 495C412.45 491.639 416.818 489.959 421.811 489.959C432.509 490.845 438.392 496.593 439.462 507.211V591.872V603.02C438.928 612.572 435.45 620.801 429.03 627.702C422.791 634.602 415.569 640.173 407.367 644.421C399.164 648.489 390.518 651.587 381.425 653.71C372.507 655.832 363.414 656.895 354.144 656.895ZM492.954 489.959C497.947 489.959 502.227 491.639 505.793 495C509.359 498.185 511.23 502.257 511.411 507.211V571.171C511.23 578.425 511.676 585.148 512.747 591.342C513.996 597.356 516.847 602.753 521.306 607.531C525.762 612.309 531.379 614.874 538.155 615.227H623.742C628.735 615.404 632.835 617.26 636.045 620.801C639.433 624.34 641.128 628.585 641.128 633.539C640.95 638.317 639.167 642.385 635.779 645.747C632.569 648.932 628.557 650.614 623.742 650.791H529.062C516.581 650.082 506.24 645.924 498.037 638.317C490.012 630.531 484.217 621.065 480.651 609.92C477.263 598.772 475.48 586.917 475.302 574.356V507.211C475.48 502.433 477.263 498.452 480.651 495.267C484.039 491.905 488.139 490.136 492.954 489.959ZM727.518 529.768C720.742 530.124 715.037 532.689 710.4 537.464C705.942 542.242 702.732 547.729 700.771 553.92C698.81 559.936 697.829 566.127 697.829 572.498C697.829 578.868 698.719 585.148 700.505 591.342C702.466 597.533 705.764 603.02 710.4 607.795C715.037 612.396 720.742 614.874 727.518 615.227H815.778C827.013 616.287 833.164 622.391 834.235 633.539C834.057 638.493 832.184 642.652 828.618 646.013C825.052 649.198 820.771 650.791 815.778 650.791H730.459H718.157C705.676 650.082 695.422 645.394 687.397 636.724C679.375 627.878 673.58 617.88 670.014 606.735C666.626 595.587 664.931 584.175 664.931 572.498C664.931 563.828 665.911 555.246 667.872 546.753C669.836 538.26 672.865 530.211 676.968 522.604C681.246 514.818 686.863 508.184 693.817 502.7C700.949 497.213 709.064 494.383 718.157 494.207H723.237H815.778C827.013 495.267 833.164 501.371 834.235 512.519C834.235 517.473 832.362 521.631 828.618 524.993C825.052 528.178 820.771 529.768 815.778 529.768H727.518Z" fill="url(#paint8_linear_4_3)"/>
<path d="M354.144 656.895C344.87 656.895 335.687 655.832 326.594 653.71C317.679 651.587 309.121 648.489 300.918 644.421C292.715 640.173 285.496 634.602 279.254 627.702C273.012 620.801 269.624 612.572 269.09 603.02V591.872V507.211C269.09 502.257 270.873 498.185 274.439 495C278.183 491.639 282.552 489.959 287.544 489.959C298.245 490.845 304.037 496.593 304.93 507.211V594.791C305.286 600.275 307.338 604.876 311.082 608.591C315.003 612.129 319.284 614.961 323.921 617.084C328.733 619.209 333.638 620.801 338.631 621.861C343.802 622.924 348.973 623.454 354.144 623.454C359.314 623.454 364.395 622.924 369.388 621.861C374.559 620.801 379.461 619.209 384.098 617.084C388.913 614.961 393.191 612.129 396.937 608.591C400.859 604.876 402.998 600.275 403.354 594.791V507.211C403.354 502.257 405.137 498.185 408.706 495C412.45 491.639 416.818 489.959 421.811 489.959C432.509 490.845 438.392 496.593 439.462 507.211V591.872V603.02C438.928 612.572 435.45 620.801 429.03 627.702C422.791 634.602 415.569 640.173 407.367 644.421C399.164 648.489 390.518 651.587 381.425 653.71C372.507 655.832 363.414 656.895 354.144 656.895ZM492.954 489.959C497.947 489.959 502.227 491.639 505.793 495C509.359 498.185 511.23 502.257 511.411 507.211V571.171C511.23 578.425 511.676 585.148 512.747 591.342C513.996 597.356 516.847 602.753 521.306 607.531C525.762 612.309 531.379 614.874 538.155 615.227H623.742C628.735 615.404 632.835 617.26 636.045 620.801C639.433 624.34 641.128 628.585 641.128 633.539C640.95 638.317 639.167 642.385 635.779 645.747C632.569 648.932 628.557 650.614 623.742 650.791H529.062C516.581 650.082 506.24 645.924 498.037 638.317C490.012 630.531 484.217 621.065 480.651 609.92C477.263 598.772 475.48 586.917 475.302 574.356V507.211C475.48 502.433 477.263 498.452 480.651 495.267C484.039 491.905 488.139 490.136 492.954 489.959ZM727.518 529.768C720.742 530.124 715.037 532.689 710.4 537.464C705.942 542.242 702.732 547.729 700.771 553.92C698.81 559.936 697.829 566.127 697.829 572.498C697.829 578.868 698.719 585.148 700.505 591.342C702.466 597.533 705.764 603.02 710.4 607.795C715.037 612.396 720.742 614.874 727.518 615.227H815.778C827.013 616.287 833.164 622.391 834.235 633.539C834.057 638.493 832.184 642.652 828.618 646.013C825.052 649.198 820.771 650.791 815.778 650.791H730.459H718.157C705.676 650.082 695.422 645.394 687.397 636.724C679.375 627.878 673.58 617.88 670.014 606.735C666.626 595.587 664.931 584.175 664.931 572.498C664.931 563.828 665.911 555.246 667.872 546.753C669.836 538.26 672.865 530.211 676.968 522.604C681.246 514.818 686.863 508.184 693.817 502.7C700.949 497.213 709.064 494.383 718.157 494.207H723.237H815.778C827.013 495.267 833.164 501.371 834.235 512.519C834.235 517.473 832.362 521.631 828.618 524.993C825.052 528.178 820.771 529.768 815.778 529.768H727.518Z" fill="url(#paint9_linear_4_3)"/>
<path d="M354.144 657.982C344.87 657.982 335.687 656.919 326.594 654.797C317.679 652.674 309.121 649.576 300.918 645.508C292.715 641.26 285.496 635.689 279.254 628.789C273.012 621.888 269.624 613.659 269.09 604.107V592.959V508.298C269.09 503.344 270.873 499.273 274.439 496.087C278.183 492.726 282.552 491.046 287.544 491.046C298.245 491.932 304.037 497.68 304.93 508.298V595.878C305.286 601.362 307.338 605.963 311.082 609.678C315.003 613.216 319.284 616.048 323.921 618.171C328.733 620.296 333.638 621.888 338.631 622.948C343.802 624.011 348.973 624.541 354.144 624.541C359.314 624.541 364.395 624.011 369.388 622.948C374.559 621.888 379.461 620.296 384.098 618.171C388.913 616.048 393.191 613.216 396.937 609.678C400.859 605.963 402.998 601.362 403.354 595.878V508.298C403.354 503.344 405.137 499.273 408.706 496.087C412.45 492.726 416.818 491.046 421.811 491.046C432.509 491.932 438.392 497.68 439.462 508.298V592.959V604.107C438.928 613.659 435.45 621.888 429.03 628.789C422.791 635.689 415.569 641.26 407.367 645.508C399.164 649.576 390.518 652.674 381.425 654.797C372.507 656.919 363.414 657.982 354.144 657.982ZM492.954 491.046C497.947 491.046 502.227 492.726 505.793 496.087C509.359 499.273 511.23 503.344 511.411 508.298V572.258C511.23 579.512 511.676 586.235 512.747 592.429C513.996 598.443 516.847 603.84 521.306 608.618C525.762 613.396 531.379 615.961 538.155 616.315H623.742C628.735 616.491 632.835 618.347 636.045 621.888C639.433 625.427 641.128 629.672 641.128 634.626C640.95 639.404 639.167 643.472 635.779 646.834C632.569 650.019 628.557 651.701 623.742 651.878H529.062C516.581 651.169 506.24 647.011 498.037 639.404C490.012 631.618 484.217 622.152 480.651 611.007C477.263 599.859 475.48 588.005 475.302 575.443V508.298C475.48 503.52 477.263 499.539 480.651 496.354C484.039 492.992 488.139 491.223 492.954 491.046ZM727.518 530.855C720.742 531.211 715.037 533.776 710.4 538.551C705.942 543.329 702.732 548.816 700.771 555.007C698.81 561.023 697.829 567.214 697.829 573.585C697.829 579.955 698.719 586.235 700.505 592.429C702.466 598.62 705.764 604.107 710.4 608.882C715.037 613.483 720.742 615.961 727.518 616.315H815.778C827.013 617.374 833.164 623.478 834.235 634.626C834.057 639.58 832.184 643.739 828.618 647.1C825.052 650.285 820.771 651.878 815.778 651.878H730.459H718.157C705.676 651.169 695.422 646.481 687.397 637.811C679.375 628.965 673.58 618.967 670.014 607.822C666.626 596.674 664.931 585.262 664.931 573.585C664.931 564.915 665.911 556.333 667.872 547.84C669.836 539.347 672.865 531.298 676.968 523.691C681.246 515.905 686.863 509.271 693.817 503.787C700.949 498.3 709.064 495.471 718.157 495.294H723.237H815.778C827.013 496.354 833.164 502.458 834.235 513.606C834.235 518.56 832.362 522.718 828.618 526.08C825.052 529.265 820.771 530.855 815.778 530.855H727.518Z" fill="url(#paint10_linear_4_3)"/>
<path d="M355.239 654.721C345.966 654.721 336.783 653.658 327.69 651.536C318.775 649.413 310.216 646.315 302.014 642.247C293.811 637.999 286.591 632.428 280.35 625.527C274.108 618.627 270.72 610.398 270.186 600.846V589.698V505.037C270.186 500.082 271.969 496.011 275.535 492.826C279.279 489.464 283.647 487.785 288.64 487.785C299.34 488.671 305.133 494.419 306.026 505.037V592.616C306.382 598.101 308.433 602.702 312.177 606.417C316.099 609.955 320.38 612.787 325.017 614.909C329.829 617.035 334.734 618.627 339.727 619.687C344.898 620.75 350.068 621.28 355.239 621.28C360.41 621.28 365.491 620.75 370.483 619.687C375.654 618.627 380.557 617.035 385.193 614.909C390.008 612.787 394.286 609.955 398.033 606.417C401.955 602.702 404.094 598.101 404.45 592.616V505.037C404.45 500.082 406.233 496.011 409.802 492.826C413.545 489.464 417.914 487.785 422.907 487.785C433.604 488.671 439.487 494.419 440.558 505.037V589.698V600.846C440.024 610.398 436.546 618.627 430.126 625.527C423.887 632.428 416.665 637.999 408.462 642.247C400.26 646.315 391.613 649.413 382.52 651.536C373.603 653.658 364.51 654.721 355.239 654.721ZM494.05 487.785C499.042 487.785 503.323 489.464 506.889 492.826C510.455 496.011 512.326 500.082 512.506 505.037V568.997C512.326 576.251 512.772 582.974 513.843 589.168C515.092 595.182 517.943 600.579 522.402 605.357C526.858 610.135 532.475 612.7 539.251 613.053H624.838C629.831 613.23 633.931 615.086 637.141 618.627C640.528 622.166 642.224 626.411 642.224 631.365C642.046 636.143 640.263 640.211 636.875 643.573C633.665 646.758 629.653 648.44 624.838 648.617H530.158C517.677 647.907 507.335 643.749 499.133 636.143C491.108 628.357 485.313 618.891 481.747 607.746C478.359 596.598 476.576 584.743 476.398 572.182V505.037C476.576 500.259 478.359 496.278 481.747 493.093C485.135 489.731 489.235 487.962 494.05 487.785ZM728.614 527.593C721.838 527.949 716.133 530.515 711.496 535.29C707.037 540.068 703.827 545.555 701.867 551.745C699.906 557.762 698.925 563.953 698.925 570.323C698.925 576.694 699.815 582.974 701.601 589.168C703.562 595.359 706.859 600.846 711.496 605.621C716.133 610.222 721.838 612.7 728.614 613.053H816.874C828.108 614.113 834.26 620.217 835.331 631.365C835.153 636.319 833.279 640.477 829.713 643.839C826.148 647.024 821.867 648.617 816.874 648.617H731.555H719.252C706.772 647.907 696.518 643.219 688.493 634.55C680.471 625.704 674.676 615.706 671.11 604.561C667.722 593.413 666.027 582.001 666.027 570.323C666.027 561.654 667.007 553.072 668.968 544.579C670.932 536.086 673.961 528.036 678.064 520.43C682.342 512.644 687.959 506.01 694.913 500.525C702.044 495.038 710.16 492.209 719.252 492.033H724.333H816.874C828.108 493.093 834.26 499.196 835.331 510.344C835.331 515.299 833.457 519.457 829.713 522.818C826.148 526.004 821.867 527.593 816.874 527.593H728.614Z" fill="url(#paint11_linear_4_3)"/>
<path d="M354.144 655.808C344.87 655.808 335.687 654.745 326.594 652.623C317.679 650.5 309.121 647.402 300.918 643.334C292.715 639.086 285.496 633.515 279.254 626.615C273.012 619.714 269.624 611.485 269.09 601.933V590.785V506.124C269.09 501.17 270.873 497.098 274.439 493.913C278.183 490.552 282.552 488.872 287.544 488.872C298.245 489.758 304.037 495.506 304.93 506.124V593.704C305.286 599.188 307.338 603.789 311.082 607.504C315.003 611.042 319.284 613.874 323.921 615.997C328.733 618.122 333.638 619.714 338.631 620.774C343.802 621.837 348.973 622.367 354.144 622.367C359.314 622.367 364.395 621.837 369.388 620.774C374.559 619.714 379.461 618.122 384.098 615.997C388.913 613.874 393.191 611.042 396.937 607.504C400.859 603.789 402.998 599.188 403.354 593.704V506.124C403.354 501.17 405.137 497.098 408.706 493.913C412.45 490.552 416.818 488.872 421.811 488.872C432.509 489.758 438.392 495.506 439.462 506.124V590.785V601.933C438.928 611.485 435.45 619.714 429.03 626.615C422.791 633.515 415.569 639.086 407.367 643.334C399.164 647.402 390.518 650.5 381.425 652.623C372.507 654.745 363.414 655.808 354.144 655.808ZM492.954 488.872C497.947 488.872 502.227 490.552 505.793 493.913C509.359 497.098 511.23 501.17 511.411 506.124V570.084C511.23 577.338 511.676 584.061 512.747 590.255C513.996 596.269 516.847 601.666 521.306 606.444C525.762 611.222 531.379 613.787 538.155 614.14H623.742C628.735 614.317 632.835 616.173 636.045 619.714C639.433 623.253 641.128 627.498 641.128 632.452C640.95 637.23 639.167 641.298 635.779 644.66C632.569 647.845 628.557 649.527 623.742 649.704H529.062C516.581 648.995 506.24 644.837 498.037 637.23C490.012 629.444 484.217 619.978 480.651 608.833C477.263 597.685 475.48 585.83 475.302 573.269V506.124C475.48 501.346 477.263 497.365 480.651 494.18C484.039 490.818 488.139 489.049 492.954 488.872ZM727.518 528.68C720.742 529.037 715.037 531.602 710.4 536.377C705.942 541.155 702.732 546.642 700.771 552.832C698.81 558.849 697.829 565.04 697.829 571.411C697.829 577.781 698.719 584.061 700.505 590.255C702.466 596.446 705.764 601.933 710.4 606.708C715.037 611.309 720.742 613.787 727.518 614.14H815.778C827.013 615.2 833.164 621.304 834.235 632.452C834.057 637.406 832.184 641.564 828.618 644.926C825.052 648.111 820.771 649.704 815.778 649.704H730.459H718.157C705.676 648.995 695.422 644.307 687.397 635.637C679.375 626.791 673.58 616.793 670.014 605.648C666.626 594.5 664.931 583.088 664.931 571.411C664.931 562.741 665.911 554.159 667.872 545.666C669.836 537.173 672.865 529.124 676.968 521.517C681.246 513.731 686.863 507.097 693.817 501.613C700.949 496.126 709.064 493.296 718.157 493.12H723.237H815.778C827.013 494.18 833.164 500.284 834.235 511.431C834.235 516.386 832.362 520.544 828.618 523.906C825.052 527.091 820.771 528.68 815.778 528.68H727.518Z" fill="url(#paint12_linear_4_3)"/>
<path d="M354.144 655.808C344.87 655.808 335.687 654.745 326.594 652.623C317.679 650.5 309.121 647.402 300.918 643.334C292.715 639.086 285.496 633.515 279.254 626.615C273.012 619.714 269.624 611.485 269.09 601.933V590.785V506.124C269.09 501.17 270.873 497.098 274.439 493.913C278.183 490.552 282.552 488.872 287.544 488.872C298.245 489.758 304.037 495.506 304.93 506.124V593.704C305.286 599.188 307.338 603.789 311.082 607.504C315.003 611.042 319.284 613.874 323.921 615.997C328.733 618.122 333.638 619.714 338.631 620.774C343.802 621.837 348.973 622.367 354.144 622.367C359.314 622.367 364.395 621.837 369.388 620.774C374.559 619.714 379.461 618.122 384.098 615.997C388.913 613.874 393.191 611.042 396.937 607.504C400.859 603.789 402.998 599.188 403.354 593.704V506.124C403.354 501.17 405.137 497.098 408.706 493.913C412.45 490.552 416.818 488.872 421.811 488.872C432.509 489.758 438.392 495.506 439.462 506.124V590.785V601.933C438.928 611.485 435.45 619.714 429.03 626.615C422.791 633.515 415.569 639.086 407.367 643.334C399.164 647.402 390.518 650.5 381.425 652.623C372.507 654.745 363.414 655.808 354.144 655.808ZM492.954 488.872C497.947 488.872 502.227 490.552 505.793 493.913C509.359 497.098 511.23 501.17 511.411 506.124V570.084C511.23 577.338 511.676 584.061 512.747 590.255C513.996 596.269 516.847 601.666 521.306 606.444C525.762 611.222 531.379 613.787 538.155 614.14H623.742C628.735 614.317 632.835 616.173 636.045 619.714C639.433 623.253 641.128 627.498 641.128 632.452C640.95 637.23 639.167 641.298 635.779 644.66C632.569 647.845 628.557 649.527 623.742 649.704H529.062C516.581 648.995 506.24 644.837 498.037 637.23C490.012 629.444 484.217 619.978 480.651 608.833C477.263 597.685 475.48 585.83 475.302 573.269V506.124C475.48 501.346 477.263 497.365 480.651 494.18C484.039 490.818 488.139 489.049 492.954 488.872ZM727.518 528.68C720.742 529.037 715.037 531.602 710.4 536.377C705.942 541.155 702.732 546.642 700.771 552.832C698.81 558.849 697.829 565.04 697.829 571.411C697.829 577.781 698.719 584.061 700.505 590.255C702.466 596.446 705.764 601.933 710.4 606.708C715.037 611.309 720.742 613.787 727.518 614.14H815.778C827.013 615.2 833.164 621.304 834.235 632.452C834.057 637.406 832.184 641.564 828.618 644.926C825.052 648.111 820.771 649.704 815.778 649.704H730.459H718.157C705.676 648.995 695.422 644.307 687.397 635.637C679.375 626.791 673.58 616.793 670.014 605.648C666.626 594.5 664.931 583.088 664.931 571.411C664.931 562.741 665.911 554.159 667.872 545.666C669.836 537.173 672.865 529.124 676.968 521.517C681.246 513.731 686.863 507.097 693.817 501.613C700.949 496.126 709.064 493.296 718.157 493.12H723.237H815.778C827.013 494.18 833.164 500.284 834.235 511.431C834.235 516.386 832.362 520.544 828.618 523.906C825.052 527.091 820.771 528.68 815.778 528.68H727.518Z" fill="url(#paint13_linear_4_3)"/>
<path d="M354.144 656.895C344.87 656.895 335.687 655.832 326.594 653.71C317.679 651.587 309.121 648.489 300.918 644.421C292.715 640.173 285.496 634.602 279.254 627.702C273.012 620.801 269.624 612.572 269.09 603.02V591.872V507.211C269.09 502.257 270.873 498.185 274.439 495C278.183 491.639 282.552 489.959 287.544 489.959C298.245 490.845 304.037 496.593 304.93 507.211V594.791C305.286 600.275 307.338 604.876 311.082 608.591C315.003 612.129 319.284 614.961 323.921 617.084C328.733 619.209 333.638 620.801 338.631 621.861C343.802 622.924 348.973 623.454 354.144 623.454C359.314 623.454 364.395 622.924 369.388 621.861C374.559 620.801 379.461 619.209 384.098 617.084C388.913 614.961 393.191 612.129 396.937 608.591C400.859 604.876 402.998 600.275 403.354 594.791V507.211C403.354 502.257 405.137 498.185 408.706 495C412.45 491.639 416.818 489.959 421.811 489.959C432.509 490.845 438.392 496.593 439.462 507.211V591.872V603.02C438.928 612.572 435.45 620.801 429.03 627.702C422.791 634.602 415.569 640.173 407.367 644.421C399.164 648.489 390.518 651.587 381.425 653.71C372.507 655.832 363.414 656.895 354.144 656.895ZM492.954 489.959C497.947 489.959 502.227 491.639 505.793 495C509.359 498.185 511.23 502.257 511.411 507.211V571.171C511.23 578.425 511.676 585.148 512.747 591.342C513.996 597.356 516.847 602.753 521.306 607.531C525.762 612.309 531.379 614.874 538.155 615.227H623.742C628.735 615.404 632.835 617.26 636.045 620.801C639.433 624.34 641.128 628.585 641.128 633.539C640.95 638.317 639.167 642.385 635.779 645.747C632.569 648.932 628.557 650.614 623.742 650.791H529.062C516.581 650.082 506.24 645.924 498.037 638.317C490.012 630.531 484.217 621.065 480.651 609.92C477.263 598.772 475.48 586.917 475.302 574.356V507.211C475.48 502.433 477.263 498.452 480.651 495.267C484.039 491.905 488.139 490.136 492.954 489.959ZM727.518 529.768C720.742 530.124 715.037 532.689 710.4 537.464C705.942 542.242 702.732 547.729 700.771 553.92C698.81 559.936 697.829 566.127 697.829 572.498C697.829 578.868 698.719 585.148 700.505 591.342C702.466 597.533 705.764 603.02 710.4 607.795C715.037 612.396 720.742 614.874 727.518 615.227H815.778C827.013 616.287 833.164 622.391 834.235 633.539C834.057 638.493 832.184 642.652 828.618 646.013C825.052 649.198 820.771 650.791 815.778 650.791H730.459H718.157C705.676 650.082 695.422 645.394 687.397 636.724C679.375 627.878 673.58 617.88 670.014 606.735C666.626 595.587 664.931 584.175 664.931 572.498C664.931 563.828 665.911 555.246 667.872 546.753C669.836 538.26 672.865 530.211 676.968 522.604C681.246 514.818 686.863 508.184 693.817 502.7C700.949 497.213 709.064 494.383 718.157 494.207H723.237H815.778C827.013 495.267 833.164 501.371 834.235 512.519C834.235 517.473 832.362 521.631 828.618 524.993C825.052 528.178 820.771 529.768 815.778 529.768H727.518Z" fill="url(#paint14_linear_4_3)"/>
<path d="M355.239 653.634C345.966 653.634 336.783 652.571 327.69 650.449C318.775 648.326 310.216 645.228 302.014 641.16C293.811 636.912 286.591 631.341 280.35 624.44C274.108 617.54 270.72 609.311 270.186 599.758V588.611V503.95C270.186 498.995 271.969 494.924 275.535 491.739C279.279 488.377 283.647 486.698 288.64 486.698C299.34 487.584 305.133 493.332 306.026 503.95V591.529C306.382 597.014 308.433 601.615 312.177 605.33C316.099 608.868 320.38 611.7 325.017 613.822C329.829 615.948 334.734 617.54 339.727 618.6C344.898 619.663 350.068 620.193 355.239 620.193C360.41 620.193 365.491 619.663 370.483 618.6C375.654 617.54 380.557 615.948 385.193 613.822C390.008 611.7 394.286 608.868 398.033 605.33C401.955 601.615 404.094 597.014 404.45 591.529V503.95C404.45 498.995 406.233 494.924 409.802 491.739C413.545 488.377 417.914 486.698 422.907 486.698C433.604 487.584 439.487 493.332 440.558 503.95V588.611V599.758C440.024 609.311 436.546 617.54 430.126 624.44C423.887 631.341 416.665 636.912 408.462 641.16C400.26 645.228 391.613 648.326 382.52 650.449C373.603 652.571 364.51 653.634 355.239 653.634ZM494.05 486.698C499.042 486.698 503.323 488.377 506.889 491.739C510.455 494.924 512.326 498.995 512.506 503.95V567.91C512.326 575.164 512.772 581.887 513.843 588.081C515.092 594.095 517.943 599.492 522.402 604.27C526.858 609.048 532.475 611.613 539.251 611.966H624.838C629.831 612.143 633.931 613.999 637.141 617.54C640.528 621.079 642.224 625.324 642.224 630.278C642.046 635.056 640.263 639.124 636.875 642.486C633.665 645.671 629.653 647.353 624.838 647.53H530.158C517.677 646.82 507.335 642.662 499.133 635.056C491.108 627.27 485.313 617.804 481.747 606.659C478.359 595.511 476.576 583.656 476.398 571.095V503.95C476.576 499.172 478.359 495.191 481.747 492.006C485.135 488.644 489.235 486.875 494.05 486.698ZM728.614 526.506C721.838 526.862 716.133 529.428 711.496 534.203C707.037 538.98 703.827 544.467 701.867 550.658C699.906 556.675 698.925 562.866 698.925 569.236C698.925 575.607 699.815 581.887 701.601 588.081C703.562 594.272 706.859 599.759 711.496 604.533C716.133 609.134 721.838 611.613 728.614 611.966H816.874C828.108 613.026 834.26 619.13 835.331 630.278C835.153 635.232 833.279 639.39 829.713 642.752C826.148 645.937 821.867 647.53 816.874 647.53H731.555H719.252C706.772 646.82 696.518 642.132 688.493 633.463C680.471 624.617 674.676 614.619 671.11 603.474C667.722 592.326 666.027 580.914 666.027 569.236C666.027 560.567 667.007 551.985 668.968 543.492C670.932 534.999 673.961 526.949 678.064 519.343C682.342 511.556 687.959 504.923 694.913 499.438C702.044 493.951 710.16 491.122 719.252 490.946H724.333H816.874C828.108 492.006 834.26 498.109 835.331 509.257C835.331 514.212 833.457 518.37 829.713 521.731C826.148 524.917 821.867 526.506 816.874 526.506H728.614Z" fill="url(#paint15_linear_4_3)"/>
<path d="M354.144 654.721C344.87 654.721 335.687 653.658 326.594 651.536C317.679 649.413 309.121 646.315 300.918 642.247C292.715 637.999 285.496 632.428 279.254 625.527C273.012 618.627 269.624 610.398 269.09 600.846V589.698V505.037C269.09 500.082 270.873 496.011 274.439 492.826C278.183 489.464 282.552 487.785 287.544 487.785C298.245 488.671 304.037 494.419 304.93 505.037V592.616C305.286 598.101 307.338 602.702 311.082 606.417C315.003 609.955 319.284 612.787 323.921 614.909C328.733 617.035 333.638 618.627 338.631 619.687C343.802 620.75 348.973 621.28 354.144 621.28C359.314 621.28 364.395 620.75 369.388 619.687C374.559 618.627 379.461 617.035 384.098 614.909C388.913 612.787 393.191 609.955 396.937 606.417C400.859 602.702 402.998 598.101 403.354 592.616V505.037C403.354 500.082 405.137 496.011 408.706 492.826C412.45 489.464 416.818 487.785 421.811 487.785C432.509 488.671 438.392 494.419 439.462 505.037V589.698V600.846C438.928 610.398 435.45 618.627 429.03 625.527C422.791 632.428 415.569 637.999 407.367 642.247C399.164 646.315 390.518 649.413 381.425 651.536C372.507 653.658 363.414 654.721 354.144 654.721ZM492.954 487.785C497.947 487.785 502.227 489.464 505.793 492.826C509.359 496.011 511.23 500.082 511.411 505.037V568.997C511.23 576.251 511.676 582.974 512.747 589.168C513.996 595.182 516.847 600.579 521.306 605.357C525.762 610.135 531.379 612.7 538.155 613.053H623.742C628.735 613.23 632.835 615.086 636.045 618.627C639.433 622.166 641.128 626.411 641.128 631.365C640.95 636.143 639.167 640.211 635.779 643.573C632.569 646.758 628.557 648.44 623.742 648.617H529.062C516.581 647.907 506.24 643.749 498.037 636.143C490.012 628.357 484.217 618.891 480.651 607.746C477.263 596.598 475.48 584.743 475.302 572.182V505.037C475.48 500.259 477.263 496.278 480.651 493.093C484.039 489.731 488.139 487.962 492.954 487.785ZM727.518 527.593C720.742 527.949 715.037 530.515 710.4 535.29C705.942 540.068 702.732 545.555 700.771 551.745C698.81 557.762 697.829 563.953 697.829 570.323C697.829 576.694 698.719 582.974 700.505 589.168C702.466 595.359 705.764 600.846 710.4 605.621C715.037 610.222 720.742 612.7 727.518 613.053H815.778C827.013 614.113 833.164 620.217 834.235 631.365C834.057 636.319 832.184 640.477 828.618 643.839C825.052 647.024 820.771 648.617 815.778 648.617H730.459H718.157C705.676 647.907 695.422 643.219 687.397 634.55C679.375 625.704 673.58 615.706 670.014 604.561C666.626 593.413 664.931 582.001 664.931 570.323C664.931 561.654 665.911 553.072 667.872 544.579C669.836 536.086 672.865 528.036 676.968 520.43C681.246 512.644 686.863 506.01 693.817 500.525C700.949 495.038 709.064 492.209 718.157 492.033H723.237H815.778C827.013 493.093 833.164 499.196 834.235 510.344C834.235 515.299 832.362 519.457 828.618 522.818C825.052 526.004 820.771 527.593 815.778 527.593H727.518Z" fill="url(#paint16_linear_4_3)"/>
<path d="M354.144 654.721C344.87 654.721 335.687 653.658 326.594 651.536C317.679 649.413 309.121 646.315 300.918 642.247C292.715 637.999 285.496 632.428 279.254 625.527C273.012 618.627 269.624 610.398 269.09 600.846V589.698V505.037C269.09 500.082 270.873 496.011 274.439 492.826C278.183 489.464 282.552 487.785 287.544 487.785C298.245 488.671 304.037 494.419 304.93 505.037V592.616C305.286 598.101 307.338 602.702 311.082 606.417C315.003 609.955 319.284 612.787 323.921 614.909C328.733 617.035 333.638 618.627 338.631 619.687C343.802 620.75 348.973 621.28 354.144 621.28C359.314 621.28 364.395 620.75 369.388 619.687C374.559 618.627 379.461 617.035 384.098 614.909C388.913 612.787 393.191 609.955 396.937 606.417C400.859 602.702 402.998 598.101 403.354 592.616V505.037C403.354 500.082 405.137 496.011 408.706 492.826C412.45 489.464 416.818 487.785 421.811 487.785C432.509 488.671 438.392 494.419 439.462 505.037V589.698V600.846C438.928 610.398 435.45 618.627 429.03 625.527C422.791 632.428 415.569 637.999 407.367 642.247C399.164 646.315 390.518 649.413 381.425 651.536C372.507 653.658 363.414 654.721 354.144 654.721ZM492.954 487.785C497.947 487.785 502.227 489.464 505.793 492.826C509.359 496.011 511.23 500.082 511.411 505.037V568.997C511.23 576.251 511.676 582.974 512.747 589.168C513.996 595.182 516.847 600.579 521.306 605.357C525.762 610.135 531.379 612.7 538.155 613.053H623.742C628.735 613.23 632.835 615.086 636.045 618.627C639.433 622.166 641.128 626.411 641.128 631.365C640.95 636.143 639.167 640.211 635.779 643.573C632.569 646.758 628.557 648.44 623.742 648.617H529.062C516.581 647.907 506.24 643.749 498.037 636.143C490.012 628.357 484.217 618.891 480.651 607.746C477.263 596.598 475.48 584.743 475.302 572.182V505.037C475.48 500.259 477.263 496.278 480.651 493.093C484.039 489.731 488.139 487.962 492.954 487.785ZM727.518 527.593C720.742 527.949 715.037 530.515 710.4 535.29C705.942 540.068 702.732 545.555 700.771 551.745C698.81 557.762 697.829 563.953 697.829 570.323C697.829 576.694 698.719 582.974 700.505 589.168C702.466 595.359 705.764 600.846 710.4 605.621C715.037 610.222 720.742 612.7 727.518 613.053H815.778C827.013 614.113 833.164 620.217 834.235 631.365C834.057 636.319 832.184 640.477 828.618 643.839C825.052 647.024 820.771 648.617 815.778 648.617H730.459H718.157C705.676 647.907 695.422 643.219 687.397 634.55C679.375 625.704 673.58 615.706 670.014 604.561C666.626 593.413 664.931 582.001 664.931 570.323C664.931 561.654 665.911 553.072 667.872 544.579C669.836 536.086 672.865 528.036 676.968 520.43C681.246 512.644 686.863 506.01 693.817 500.525C700.949 495.038 709.064 492.209 718.157 492.033H723.237H815.778C827.013 493.093 833.164 499.196 834.235 510.344C834.235 515.299 832.362 519.457 828.618 522.818C825.052 526.004 820.771 527.593 815.778 527.593H727.518Z" fill="url(#paint17_linear_4_3)"/>
<path d="M354.144 655.808C344.87 655.808 335.687 654.745 326.594 652.623C317.679 650.5 309.121 647.402 300.918 643.334C292.715 639.086 285.496 633.515 279.254 626.615C273.012 619.714 269.624 611.485 269.09 601.933V590.785V506.124C269.09 501.17 270.873 497.098 274.439 493.913C278.183 490.552 282.552 488.872 287.544 488.872C298.245 489.758 304.037 495.506 304.93 506.124V593.704C305.286 599.188 307.338 603.789 311.082 607.504C315.003 611.042 319.284 613.874 323.921 615.997C328.733 618.122 333.638 619.714 338.631 620.774C343.802 621.837 348.973 622.367 354.144 622.367C359.314 622.367 364.395 621.837 369.388 620.774C374.559 619.714 379.461 618.122 384.098 615.997C388.913 613.874 393.191 611.042 396.937 607.504C400.859 603.789 402.998 599.188 403.354 593.704V506.124C403.354 501.17 405.137 497.098 408.706 493.913C412.45 490.552 416.818 488.872 421.811 488.872C432.509 489.758 438.392 495.506 439.462 506.124V590.785V601.933C438.928 611.485 435.45 619.714 429.03 626.615C422.791 633.515 415.569 639.086 407.367 643.334C399.164 647.402 390.518 650.5 381.425 652.623C372.507 654.745 363.414 655.808 354.144 655.808ZM492.954 488.872C497.947 488.872 502.227 490.552 505.793 493.913C509.359 497.098 511.23 501.17 511.411 506.124V570.084C511.23 577.338 511.676 584.061 512.747 590.255C513.996 596.269 516.847 601.666 521.306 606.444C525.762 611.222 531.379 613.787 538.155 614.14H623.742C628.735 614.317 632.835 616.173 636.045 619.714C639.433 623.253 641.128 627.498 641.128 632.452C640.95 637.23 639.167 641.298 635.779 644.66C632.569 647.845 628.557 649.527 623.742 649.704H529.062C516.581 648.995 506.24 644.837 498.037 637.23C490.012 629.444 484.217 619.978 480.651 608.833C477.263 597.685 475.48 585.83 475.302 573.269V506.124C475.48 501.346 477.263 497.365 480.651 494.18C484.039 490.818 488.139 489.049 492.954 488.872ZM727.518 528.68C720.742 529.037 715.037 531.602 710.4 536.377C705.942 541.155 702.732 546.642 700.771 552.832C698.81 558.849 697.829 565.04 697.829 571.411C697.829 577.781 698.719 584.061 700.505 590.255C702.466 596.446 705.764 601.933 710.4 606.708C715.037 611.309 720.742 613.787 727.518 614.14H815.778C827.013 615.2 833.164 621.304 834.235 632.452C834.057 637.406 832.184 641.564 828.618 644.926C825.052 648.111 820.771 649.704 815.778 649.704H730.459H718.157C705.676 648.995 695.422 644.307 687.397 635.637C679.375 626.791 673.58 616.793 670.014 605.648C666.626 594.5 664.931 583.088 664.931 571.411C664.931 562.741 665.911 554.159 667.872 545.666C669.836 537.173 672.865 529.124 676.968 521.517C681.246 513.731 686.863 507.097 693.817 501.613C700.949 496.126 709.064 493.296 718.157 493.12H723.237H815.778C827.013 494.18 833.164 500.284 834.235 511.431C834.235 516.386 832.362 520.544 828.618 523.906C825.052 527.091 820.771 528.68 815.778 528.68H727.518Z" fill="url(#paint18_linear_4_3)"/>
<path d="M355.239 652.546C345.966 652.546 336.783 651.484 327.69 649.361C318.775 647.239 310.216 644.141 302.014 640.072C293.811 635.825 286.591 630.253 280.35 623.353C274.108 616.453 270.72 608.224 270.186 598.671V587.523V502.863C270.186 497.908 271.969 493.837 275.535 490.652C279.279 487.29 283.647 485.611 288.64 485.611C299.34 486.497 305.133 492.245 306.026 502.863V590.442C306.382 595.926 308.433 600.528 312.177 604.243C316.099 607.781 320.38 610.613 325.017 612.735C329.829 614.861 334.734 616.453 339.727 617.513C344.898 618.576 350.068 619.106 355.239 619.106C360.41 619.106 365.491 618.576 370.483 617.513C375.654 616.453 380.557 614.861 385.193 612.735C390.008 610.613 394.286 607.781 398.033 604.243C401.955 600.528 404.094 595.926 404.45 590.442V502.863C404.45 497.908 406.233 493.837 409.802 490.652C413.545 487.29 417.914 485.611 422.907 485.611C433.604 486.497 439.487 492.245 440.558 502.863V587.523V598.671C440.024 608.224 436.546 616.453 430.126 623.353C423.887 630.253 416.665 635.825 408.462 640.072C400.26 644.141 391.613 647.239 382.52 649.361C373.603 651.484 364.51 652.546 355.239 652.546ZM494.05 485.611C499.042 485.611 503.323 487.29 506.889 490.652C510.455 493.837 512.326 497.908 512.506 502.863V566.823C512.326 574.076 512.772 580.8 513.843 586.994C515.092 593.008 517.943 598.405 522.402 603.183C526.858 607.96 532.475 610.526 539.251 610.879H624.838C629.831 611.056 633.931 612.912 637.141 616.453C640.528 619.992 642.224 624.236 642.224 629.191C642.046 633.968 640.263 638.037 636.875 641.399C633.665 644.584 629.653 646.266 624.838 646.443H530.158C517.677 645.733 507.335 641.575 499.133 633.968C491.108 626.182 485.313 616.717 481.747 605.572C478.359 594.424 476.576 582.569 476.398 570.008V502.863C476.576 498.085 478.359 494.104 481.747 490.918C485.135 487.557 489.235 485.787 494.05 485.611ZM728.614 525.419C721.838 525.775 716.133 528.341 711.496 533.116C707.037 537.893 703.827 543.38 701.867 549.571C699.906 555.588 698.925 561.779 698.925 568.149C698.925 574.519 699.815 580.8 701.601 586.994C703.562 593.184 706.859 598.671 711.496 603.446C716.133 608.047 721.838 610.526 728.614 610.879H816.874C828.108 611.939 834.26 618.043 835.331 629.191C835.153 634.145 833.279 638.303 829.713 641.665C826.148 644.85 821.867 646.443 816.874 646.443H731.555H719.252C706.772 645.733 696.518 641.045 688.493 632.376C680.471 623.53 674.676 613.532 671.11 602.386C667.722 591.239 666.027 579.827 666.027 568.149C666.027 559.48 667.007 550.897 668.968 542.405C670.932 533.912 673.961 525.862 678.064 518.255C682.342 510.469 687.959 503.835 694.913 498.351C702.044 492.864 710.16 490.035 719.252 489.859H724.333H816.874C828.108 490.918 834.26 497.022 835.331 508.17C835.331 513.124 833.457 517.283 829.713 520.644C826.148 523.829 821.867 525.419 816.874 525.419H728.614Z" fill="url(#paint19_linear_4_3)"/>
<path d="M354.144 653.634C344.87 653.634 335.687 652.571 326.594 650.449C317.679 648.326 309.121 645.228 300.918 641.16C292.715 636.912 285.496 631.341 279.254 624.44C273.012 617.54 269.624 609.311 269.09 599.758V588.611V503.95C269.09 498.995 270.873 494.924 274.439 491.739C278.183 488.377 282.552 486.698 287.544 486.698C298.245 487.584 304.037 493.332 304.93 503.95V591.529C305.286 597.014 307.338 601.615 311.082 605.33C315.003 608.868 319.284 611.7 323.921 613.822C328.733 615.948 333.638 617.54 338.631 618.6C343.802 619.663 348.973 620.193 354.144 620.193C359.314 620.193 364.395 619.663 369.388 618.6C374.559 617.54 379.461 615.948 384.098 613.822C388.913 611.7 393.191 608.868 396.937 605.33C400.859 601.615 402.998 597.014 403.354 591.529V503.95C403.354 498.995 405.137 494.924 408.706 491.739C412.45 488.377 416.818 486.698 421.811 486.698C432.509 487.584 438.392 493.332 439.462 503.95V588.611V599.758C438.928 609.311 435.45 617.54 429.03 624.44C422.791 631.341 415.569 636.912 407.367 641.16C399.164 645.228 390.518 648.326 381.425 650.449C372.507 652.571 363.414 653.634 354.144 653.634ZM492.954 486.698C497.947 486.698 502.227 488.377 505.793 491.739C509.359 494.924 511.23 498.995 511.411 503.95V567.91C511.23 575.164 511.676 581.887 512.747 588.081C513.996 594.095 516.847 599.492 521.306 604.27C525.762 609.048 531.379 611.613 538.155 611.966H623.742C628.735 612.143 632.835 613.999 636.045 617.54C639.433 621.079 641.128 625.324 641.128 630.278C640.95 635.056 639.167 639.124 635.779 642.486C632.569 645.671 628.557 647.353 623.742 647.53H529.062C516.581 646.82 506.24 642.662 498.037 635.056C490.012 627.27 484.217 617.804 480.651 606.659C477.263 595.511 475.48 583.656 475.302 571.095V503.95C475.48 499.172 477.263 495.191 480.651 492.006C484.039 488.644 488.139 486.875 492.954 486.698ZM727.518 526.506C720.742 526.862 715.037 529.428 710.4 534.203C705.942 538.98 702.732 544.467 700.771 550.658C698.81 556.675 697.829 562.866 697.829 569.236C697.829 575.607 698.719 581.887 700.505 588.081C702.466 594.272 705.764 599.759 710.4 604.533C715.037 609.134 720.742 611.613 727.518 611.966H815.778C827.013 613.026 833.164 619.13 834.235 630.278C834.057 635.232 832.184 639.39 828.618 642.752C825.052 645.937 820.771 647.53 815.778 647.53H730.459H718.157C705.676 646.82 695.422 642.132 687.397 633.463C679.375 624.617 673.58 614.619 670.014 603.474C666.626 592.326 664.931 580.914 664.931 569.236C664.931 560.567 665.911 551.985 667.872 543.492C669.836 534.999 672.865 526.949 676.968 519.343C681.246 511.556 686.863 504.923 693.817 499.438C700.949 493.951 709.064 491.122 718.157 490.946H723.237H815.778C827.013 492.006 833.164 498.109 834.235 509.257C834.235 514.212 832.362 518.37 828.618 521.731C825.052 524.917 820.771 526.506 815.778 526.506H727.518Z" fill="url(#paint20_linear_4_3)"/>
<path d="M354.144 653.634C344.87 653.634 335.687 652.571 326.594 650.449C317.679 648.326 309.121 645.228 300.918 641.16C292.715 636.912 285.496 631.341 279.254 624.44C273.012 617.54 269.624 609.311 269.09 599.758V588.611V503.95C269.09 498.995 270.873 494.924 274.439 491.739C278.183 488.377 282.552 486.698 287.544 486.698C298.245 487.584 304.037 493.332 304.93 503.95V591.529C305.286 597.014 307.338 601.615 311.082 605.33C315.003 608.868 319.284 611.7 323.921 613.822C328.733 615.948 333.638 617.54 338.631 618.6C343.802 619.663 348.973 620.193 354.144 620.193C359.314 620.193 364.395 619.663 369.388 618.6C374.559 617.54 379.461 615.948 384.098 613.822C388.913 611.7 393.191 608.868 396.937 605.33C400.859 601.615 402.998 597.014 403.354 591.529V503.95C403.354 498.995 405.137 494.924 408.706 491.739C412.45 488.377 416.818 486.698 421.811 486.698C432.509 487.584 438.392 493.332 439.462 503.95V588.611V599.758C438.928 609.311 435.45 617.54 429.03 624.44C422.791 631.341 415.569 636.912 407.367 641.16C399.164 645.228 390.518 648.326 381.425 650.449C372.507 652.571 363.414 653.634 354.144 653.634ZM492.954 486.698C497.947 486.698 502.227 488.377 505.793 491.739C509.359 494.924 511.23 498.995 511.411 503.95V567.91C511.23 575.164 511.676 581.887 512.747 588.081C513.996 594.095 516.847 599.492 521.306 604.27C525.762 609.048 531.379 611.613 538.155 611.966H623.742C628.735 612.143 632.835 613.999 636.045 617.54C639.433 621.079 641.128 625.324 641.128 630.278C640.95 635.056 639.167 639.124 635.779 642.486C632.569 645.671 628.557 647.353 623.742 647.53H529.062C516.581 646.82 506.24 642.662 498.037 635.056C490.012 627.27 484.217 617.804 480.651 606.659C477.263 595.511 475.48 583.656 475.302 571.095V503.95C475.48 499.172 477.263 495.191 480.651 492.006C484.039 488.644 488.139 486.875 492.954 486.698ZM727.518 526.506C720.742 526.862 715.037 529.428 710.4 534.203C705.942 538.98 702.732 544.467 700.771 550.658C698.81 556.675 697.829 562.866 697.829 569.236C697.829 575.607 698.719 581.887 700.505 588.081C702.466 594.272 705.764 599.759 710.4 604.533C715.037 609.134 720.742 611.613 727.518 611.966H815.778C827.013 613.026 833.164 619.13 834.235 630.278C834.057 635.232 832.184 639.39 828.618 642.752C825.052 645.937 820.771 647.53 815.778 647.53H730.459H718.157C705.676 646.82 695.422 642.132 687.397 633.463C679.375 624.617 673.58 614.619 670.014 603.474C666.626 592.326 664.931 580.914 664.931 569.236C664.931 560.567 665.911 551.985 667.872 543.492C669.836 534.999 672.865 526.949 676.968 519.343C681.246 511.556 686.863 504.923 693.817 499.438C700.949 493.951 709.064 491.122 718.157 490.946H723.237H815.778C827.013 492.006 833.164 498.109 834.235 509.257C834.235 514.212 832.362 518.37 828.618 521.731C825.052 524.917 820.771 526.506 815.778 526.506H727.518Z" fill="url(#paint21_linear_4_3)"/>
<path d="M354.144 654.721C344.87 654.721 335.687 653.658 326.594 651.536C317.679 649.413 309.121 646.315 300.918 642.247C292.715 637.999 285.496 632.428 279.254 625.527C273.012 618.627 269.624 610.398 269.09 600.846V589.698V505.037C269.09 500.082 270.873 496.011 274.439 492.826C278.183 489.464 282.552 487.785 287.544 487.785C298.245 488.671 304.037 494.419 304.93 505.037V592.616C305.286 598.101 307.338 602.702 311.082 606.417C315.003 609.955 319.284 612.787 323.921 614.909C328.733 617.035 333.638 618.627 338.631 619.687C343.802 620.75 348.973 621.28 354.144 621.28C359.314 621.28 364.395 620.75 369.388 619.687C374.559 618.627 379.461 617.035 384.098 614.909C388.913 612.787 393.191 609.955 396.937 606.417C400.859 602.702 402.998 598.101 403.354 592.616V505.037C403.354 500.082 405.137 496.011 408.706 492.826C412.45 489.464 416.818 487.785 421.811 487.785C432.509 488.671 438.392 494.419 439.462 505.037V589.698V600.846C438.928 610.398 435.45 618.627 429.03 625.527C422.791 632.428 415.569 637.999 407.367 642.247C399.164 646.315 390.518 649.413 381.425 651.536C372.507 653.658 363.414 654.721 354.144 654.721ZM492.954 487.785C497.947 487.785 502.227 489.464 505.793 492.826C509.359 496.011 511.23 500.082 511.411 505.037V568.997C511.23 576.251 511.676 582.974 512.747 589.168C513.996 595.182 516.847 600.579 521.306 605.357C525.762 610.135 531.379 612.7 538.155 613.053H623.742C628.735 613.23 632.835 615.086 636.045 618.627C639.433 622.166 641.128 626.411 641.128 631.365C640.95 636.143 639.167 640.211 635.779 643.573C632.569 646.758 628.557 648.44 623.742 648.617H529.062C516.581 647.907 506.24 643.749 498.037 636.143C490.012 628.357 484.217 618.891 480.651 607.746C477.263 596.598 475.48 584.743 475.302 572.182V505.037C475.48 500.259 477.263 496.278 480.651 493.093C484.039 489.731 488.139 487.962 492.954 487.785ZM727.518 527.593C720.742 527.949 715.037 530.515 710.4 535.29C705.942 540.068 702.732 545.555 700.771 551.745C698.81 557.762 697.829 563.953 697.829 570.323C697.829 576.694 698.719 582.974 700.505 589.168C702.466 595.359 705.764 600.846 710.4 605.621C715.037 610.222 720.742 612.7 727.518 613.053H815.778C827.013 614.113 833.164 620.217 834.235 631.365C834.057 636.319 832.184 640.477 828.618 643.839C825.052 647.024 820.771 648.617 815.778 648.617H730.459H718.157C705.676 647.907 695.422 643.219 687.397 634.55C679.375 625.704 673.58 615.706 670.014 604.561C666.626 593.413 664.931 582.001 664.931 570.323C664.931 561.654 665.911 553.072 667.872 544.579C669.836 536.086 672.865 528.036 676.968 520.43C681.246 512.644 686.863 506.01 693.817 500.525C700.949 495.038 709.064 492.209 718.157 492.033H723.237H815.778C827.013 493.093 833.164 499.196 834.235 510.344C834.235 515.299 832.362 519.457 828.618 522.818C825.052 526.004 820.771 527.593 815.778 527.593H727.518Z" fill="url(#paint22_linear_4_3)"/>
<path d="M355.239 651.459C345.966 651.459 336.783 650.397 327.69 648.274C318.775 646.152 310.216 643.054 302.014 638.985C293.811 634.738 286.591 629.166 280.35 622.266C274.108 615.366 270.72 607.137 270.186 597.584V586.436V501.776C270.186 496.821 271.969 492.75 275.535 489.565C279.279 486.203 283.647 484.524 288.64 484.524C299.34 485.41 305.133 491.158 306.026 501.776V589.355C306.382 594.839 308.433 599.44 312.177 603.156C316.099 606.694 320.38 609.526 325.017 611.648C329.829 613.773 334.734 615.366 339.727 616.426C344.898 617.489 350.068 618.019 355.239 618.019C360.41 618.019 365.491 617.489 370.483 616.426C375.654 615.366 380.557 613.773 385.193 611.648C390.008 609.526 394.286 606.694 398.033 603.156C401.955 599.44 404.094 594.839 404.45 589.355V501.776C404.45 496.821 406.233 492.75 409.802 489.565C413.545 486.203 417.914 484.524 422.907 484.524C433.604 485.41 439.487 491.158 440.558 501.776V586.436V597.584C440.024 607.137 436.546 615.366 430.126 622.266C423.887 629.166 416.665 634.738 408.462 638.985C400.26 643.054 391.613 646.152 382.52 648.274C373.603 650.397 364.51 651.459 355.239 651.459ZM494.05 484.524C499.042 484.524 503.323 486.203 506.889 489.565C510.455 492.75 512.326 496.821 512.506 501.776V565.736C512.326 572.989 512.772 579.713 513.843 585.906C515.092 591.921 517.943 597.318 522.402 602.096C526.858 606.873 532.475 609.439 539.251 609.792H624.838C629.831 609.969 633.931 611.825 637.141 615.366C640.528 618.904 642.224 623.149 642.224 628.104C642.046 632.881 640.263 636.95 636.875 640.312C633.665 643.497 629.653 645.179 624.838 645.356H530.158C517.677 644.646 507.335 640.488 499.133 632.881C491.108 625.095 485.313 615.63 481.747 604.485C478.359 593.337 476.576 581.482 476.398 568.921V501.776C476.576 496.998 478.359 493.016 481.747 489.831C485.135 486.47 489.235 484.7 494.05 484.524ZM728.614 524.332C721.838 524.688 716.133 527.254 711.496 532.029C707.037 536.806 703.827 542.293 701.867 548.484C699.906 554.501 698.925 560.692 698.925 567.062C698.925 573.432 699.815 579.713 701.601 585.906C703.562 592.097 706.859 597.584 711.496 602.359C716.133 606.96 721.838 609.439 728.614 609.792H816.874C828.108 610.852 834.26 616.956 835.331 628.104C835.153 633.058 833.279 637.216 829.713 640.578C826.148 643.763 821.867 645.356 816.874 645.356H731.555H719.252C706.772 644.646 696.518 639.958 688.493 631.289C680.471 622.443 674.676 612.445 671.11 601.299C667.722 590.152 666.027 578.74 666.027 567.062C666.027 558.393 667.007 549.81 668.968 541.318C670.932 532.825 673.961 524.775 678.064 517.168C682.342 509.382 687.959 502.748 694.913 497.264C702.044 491.777 710.16 488.948 719.252 488.771H724.333H816.874C828.108 489.831 834.26 495.935 835.331 507.083C835.331 512.037 833.457 516.196 829.713 519.557C826.148 522.742 821.867 524.332 816.874 524.332H728.614Z" fill="url(#paint23_linear_4_3)"/>
<path d="M354.144 652.546C344.87 652.546 335.687 651.484 326.594 649.361C317.679 647.239 309.121 644.141 300.918 640.072C292.715 635.825 285.496 630.253 279.254 623.353C273.012 616.453 269.624 608.224 269.09 598.671V587.523V502.863C269.09 497.908 270.873 493.837 274.439 490.652C278.183 487.29 282.552 485.611 287.544 485.611C298.245 486.497 304.037 492.245 304.93 502.863V590.442C305.286 595.926 307.338 600.528 311.082 604.243C315.003 607.781 319.284 610.613 323.921 612.735C328.733 614.861 333.638 616.453 338.631 617.513C343.802 618.576 348.973 619.106 354.144 619.106C359.314 619.106 364.395 618.576 369.388 617.513C374.559 616.453 379.461 614.861 384.098 612.735C388.913 610.613 393.191 607.781 396.937 604.243C400.859 600.528 402.998 595.926 403.354 590.442V502.863C403.354 497.908 405.137 493.837 408.706 490.652C412.45 487.29 416.818 485.611 421.811 485.611C432.509 486.497 438.392 492.245 439.462 502.863V587.523V598.671C438.928 608.224 435.45 616.453 429.03 623.353C422.791 630.253 415.569 635.825 407.367 640.072C399.164 644.141 390.518 647.239 381.425 649.361C372.507 651.484 363.414 652.546 354.144 652.546ZM492.954 485.611C497.947 485.611 502.227 487.29 505.793 490.652C509.359 493.837 511.23 497.908 511.411 502.863V566.823C511.23 574.076 511.676 580.8 512.747 586.994C513.996 593.008 516.847 598.405 521.306 603.183C525.762 607.96 531.379 610.526 538.155 610.879H623.742C628.735 611.056 632.835 612.912 636.045 616.453C639.433 619.992 641.128 624.236 641.128 629.191C640.95 633.968 639.167 638.037 635.779 641.399C632.569 644.584 628.557 646.266 623.742 646.443H529.062C516.581 645.733 506.24 641.575 498.037 633.968C490.012 626.182 484.217 616.717 480.651 605.572C477.263 594.424 475.48 582.569 475.302 570.008V502.863C475.48 498.085 477.263 494.104 480.651 490.918C484.039 487.557 488.139 485.787 492.954 485.611ZM727.518 525.419C720.742 525.775 715.037 528.341 710.4 533.116C705.942 537.893 702.732 543.38 700.771 549.571C698.81 555.588 697.829 561.779 697.829 568.149C697.829 574.519 698.719 580.8 700.505 586.994C702.466 593.184 705.764 598.671 710.4 603.446C715.037 608.047 720.742 610.526 727.518 610.879H815.778C827.013 611.939 833.164 618.043 834.235 629.191C834.057 634.145 832.184 638.303 828.618 641.665C825.052 644.85 820.771 646.443 815.778 646.443H730.459H718.157C705.676 645.733 695.422 641.045 687.397 632.376C679.375 623.53 673.58 613.532 670.014 602.386C666.626 591.239 664.931 579.827 664.931 568.149C664.931 559.48 665.911 550.897 667.872 542.405C669.836 533.912 672.865 525.862 676.968 518.255C681.246 510.469 686.863 503.835 693.817 498.351C700.949 492.864 709.064 490.035 718.157 489.859H723.237H815.778C827.013 490.918 833.164 497.022 834.235 508.17C834.235 513.124 832.362 517.283 828.618 520.644C825.052 523.829 820.771 525.419 815.778 525.419H727.518Z" fill="url(#paint24_linear_4_3)"/>
<path d="M354.144 652.546C344.87 652.546 335.687 651.484 326.594 649.361C317.679 647.239 309.121 644.141 300.918 640.072C292.715 635.825 285.496 630.253 279.254 623.353C273.012 616.453 269.624 608.224 269.09 598.671V587.523V502.863C269.09 497.908 270.873 493.837 274.439 490.652C278.183 487.29 282.552 485.611 287.544 485.611C298.245 486.497 304.037 492.245 304.93 502.863V590.442C305.286 595.926 307.338 600.528 311.082 604.243C315.003 607.781 319.284 610.613 323.921 612.735C328.733 614.861 333.638 616.453 338.631 617.513C343.802 618.576 348.973 619.106 354.144 619.106C359.314 619.106 364.395 618.576 369.388 617.513C374.559 616.453 379.461 614.861 384.098 612.735C388.913 610.613 393.191 607.781 396.937 604.243C400.859 600.528 402.998 595.926 403.354 590.442V502.863C403.354 497.908 405.137 493.837 408.706 490.652C412.45 487.29 416.818 485.611 421.811 485.611C432.509 486.497 438.392 492.245 439.462 502.863V587.523V598.671C438.928 608.224 435.45 616.453 429.03 623.353C422.791 630.253 415.569 635.825 407.367 640.072C399.164 644.141 390.518 647.239 381.425 649.361C372.507 651.484 363.414 652.546 354.144 652.546ZM492.954 485.611C497.947 485.611 502.227 487.29 505.793 490.652C509.359 493.837 511.23 497.908 511.411 502.863V566.823C511.23 574.076 511.676 580.8 512.747 586.994C513.996 593.008 516.847 598.405 521.306 603.183C525.762 607.96 531.379 610.526 538.155 610.879H623.742C628.735 611.056 632.835 612.912 636.045 616.453C639.433 619.992 641.128 624.236 641.128 629.191C640.95 633.968 639.167 638.037 635.779 641.399C632.569 644.584 628.557 646.266 623.742 646.443H529.062C516.581 645.733 506.24 641.575 498.037 633.968C490.012 626.182 484.217 616.717 480.651 605.572C477.263 594.424 475.48 582.569 475.302 570.008V502.863C475.48 498.085 477.263 494.104 480.651 490.918C484.039 487.557 488.139 485.787 492.954 485.611ZM727.518 525.419C720.742 525.775 715.037 528.341 710.4 533.116C705.942 537.893 702.732 543.38 700.771 549.571C698.81 555.588 697.829 561.779 697.829 568.149C697.829 574.519 698.719 580.8 700.505 586.994C702.466 593.184 705.764 598.671 710.4 603.446C715.037 608.047 720.742 610.526 727.518 610.879H815.778C827.013 611.939 833.164 618.043 834.235 629.191C834.057 634.145 832.184 638.303 828.618 641.665C825.052 644.85 820.771 646.443 815.778 646.443H730.459H718.157C705.676 645.733 695.422 641.045 687.397 632.376C679.375 623.53 673.58 613.532 670.014 602.386C666.626 591.239 664.931 579.827 664.931 568.149C664.931 559.48 665.911 550.897 667.872 542.405C669.836 533.912 672.865 525.862 676.968 518.255C681.246 510.469 686.863 503.835 693.817 498.351C700.949 492.864 709.064 490.035 718.157 489.859H723.237H815.778C827.013 490.918 833.164 497.022 834.235 508.17C834.235 513.124 832.362 517.283 828.618 520.644C825.052 523.829 820.771 525.419 815.778 525.419H727.518Z" fill="url(#paint25_linear_4_3)"/>
<path d="M354.144 653.634C344.87 653.634 335.687 652.571 326.594 650.449C317.679 648.326 309.121 645.228 300.918 641.16C292.715 636.912 285.496 631.341 279.254 624.44C273.012 617.54 269.624 609.311 269.09 599.758V588.611V503.95C269.09 498.995 270.873 494.924 274.439 491.739C278.183 488.377 282.552 486.698 287.544 486.698C298.245 487.584 304.037 493.332 304.93 503.95V591.529C305.286 597.014 307.338 601.615 311.082 605.33C315.003 608.868 319.284 611.7 323.921 613.822C328.733 615.948 333.638 617.54 338.631 618.6C343.802 619.663 348.973 620.193 354.144 620.193C359.314 620.193 364.395 619.663 369.388 618.6C374.559 617.54 379.461 615.948 384.098 613.822C388.913 611.7 393.191 608.868 396.937 605.33C400.859 601.615 402.998 597.014 403.354 591.529V503.95C403.354 498.995 405.137 494.924 408.706 491.739C412.45 488.377 416.818 486.698 421.811 486.698C432.509 487.584 438.392 493.332 439.462 503.95V588.611V599.758C438.928 609.311 435.45 617.54 429.03 624.44C422.791 631.341 415.569 636.912 407.367 641.16C399.164 645.228 390.518 648.326 381.425 650.449C372.507 652.571 363.414 653.634 354.144 653.634ZM492.954 486.698C497.947 486.698 502.227 488.377 505.793 491.739C509.359 494.924 511.23 498.995 511.411 503.95V567.91C511.23 575.164 511.676 581.887 512.747 588.081C513.996 594.095 516.847 599.492 521.306 604.27C525.762 609.048 531.379 611.613 538.155 611.966H623.742C628.735 612.143 632.835 613.999 636.045 617.54C639.433 621.079 641.128 625.324 641.128 630.278C640.95 635.056 639.167 639.124 635.779 642.486C632.569 645.671 628.557 647.353 623.742 647.53H529.062C516.581 646.82 506.24 642.662 498.037 635.056C490.012 627.27 484.217 617.804 480.651 606.659C477.263 595.511 475.48 583.656 475.302 571.095V503.95C475.48 499.172 477.263 495.191 480.651 492.006C484.039 488.644 488.139 486.875 492.954 486.698ZM727.518 526.506C720.742 526.862 715.037 529.428 710.4 534.203C705.942 538.98 702.732 544.467 700.771 550.658C698.81 556.675 697.829 562.866 697.829 569.236C697.829 575.607 698.719 581.887 700.505 588.081C702.466 594.272 705.764 599.759 710.4 604.533C715.037 609.134 720.742 611.613 727.518 611.966H815.778C827.013 613.026 833.164 619.13 834.235 630.278C834.057 635.232 832.184 639.39 828.618 642.752C825.052 645.937 820.771 647.53 815.778 647.53H730.459H718.157C705.676 646.82 695.422 642.132 687.397 633.463C679.375 624.617 673.58 614.619 670.014 603.474C666.626 592.326 664.931 580.914 664.931 569.236C664.931 560.567 665.911 551.985 667.872 543.492C669.836 534.999 672.865 526.949 676.968 519.343C681.246 511.556 686.863 504.923 693.817 499.438C700.949 493.951 709.064 491.122 718.157 490.946H723.237H815.778C827.013 492.006 833.164 498.109 834.235 509.257C834.235 514.212 832.362 518.37 828.618 521.731C825.052 524.917 820.771 526.506 815.778 526.506H727.518Z" fill="url(#paint26_linear_4_3)"/>
<path d="M355.239 650.372C345.966 650.372 336.783 649.31 327.69 647.187C318.775 645.065 310.216 641.967 302.014 637.898C293.811 633.651 286.591 628.079 280.35 621.179C274.108 614.279 270.72 606.05 270.186 596.497V585.349V500.688C270.186 495.734 271.969 491.663 275.535 488.478C279.279 485.116 283.647 483.437 288.64 483.437C299.34 484.323 305.133 490.071 306.026 500.688V588.268C306.382 593.752 308.433 598.353 312.177 602.068C316.099 605.607 320.38 608.439 325.017 610.561C329.829 612.686 334.734 614.279 339.727 615.339C344.898 616.402 350.068 616.931 355.239 616.931C360.41 616.931 365.491 616.402 370.483 615.339C375.654 614.279 380.557 612.686 385.193 610.561C390.008 608.439 394.286 605.607 398.033 602.068C401.955 598.353 404.094 593.752 404.45 588.268V500.688C404.45 495.734 406.233 491.663 409.802 488.478C413.545 485.116 417.914 483.437 422.907 483.437C433.604 484.323 439.487 490.071 440.558 500.688V585.349V596.497C440.024 606.05 436.546 614.279 430.126 621.179C423.887 628.079 416.665 633.651 408.462 637.898C400.26 641.967 391.613 645.065 382.52 647.187C373.603 649.31 364.51 650.372 355.239 650.372ZM494.05 483.437C499.042 483.437 503.323 485.116 506.889 488.478C510.455 491.663 512.326 495.734 512.506 500.688V564.649C512.326 571.902 512.772 578.626 513.843 584.819C515.092 590.834 517.943 596.231 522.402 601.009C526.858 605.786 532.475 608.352 539.251 608.705H624.838C629.831 608.882 633.931 610.738 637.141 614.279C640.528 617.817 642.224 622.062 642.224 627.017C642.046 631.794 640.263 635.863 636.875 639.224C633.665 642.41 629.653 644.092 624.838 644.269H530.158C517.677 643.559 507.335 639.401 499.133 631.794C491.108 624.008 485.313 614.543 481.747 603.397C478.359 592.25 476.576 580.395 476.398 567.834V500.688C476.576 495.911 478.359 491.929 481.747 488.744C485.135 485.383 489.235 483.613 494.05 483.437ZM728.614 523.245C721.838 523.601 716.133 526.167 711.496 530.942C707.037 535.719 703.827 541.206 701.867 547.397C699.906 553.414 698.925 559.605 698.925 565.975C698.925 572.345 699.815 578.626 701.601 584.819C703.562 591.01 706.859 596.497 711.496 601.272C716.133 605.873 721.838 608.352 728.614 608.705H816.874C828.108 609.765 834.26 615.869 835.331 627.017C835.153 631.971 833.279 636.129 829.713 639.491C826.148 642.676 821.867 644.269 816.874 644.269H731.555H719.252C706.772 643.559 696.518 638.871 688.493 630.202C680.471 621.356 674.676 611.358 671.11 600.212C667.722 589.064 666.027 577.653 666.027 565.975C666.027 557.306 667.007 548.723 668.968 540.231C670.932 531.738 673.961 523.688 678.064 516.081C682.342 508.295 687.959 501.661 694.913 496.177C702.044 490.69 710.16 487.861 719.252 487.684H724.333H816.874C828.108 488.744 834.26 494.848 835.331 505.996C835.331 510.95 833.457 515.108 829.713 518.47C826.148 521.655 821.867 523.245 816.874 523.245H728.614Z" fill="url(#paint27_linear_4_3)"/>
<path d="M354.144 651.459C344.87 651.459 335.687 650.397 326.594 648.274C317.679 646.152 309.121 643.054 300.918 638.985C292.715 634.738 285.496 629.166 279.254 622.266C273.012 615.366 269.624 607.137 269.09 597.584V586.436V501.776C269.09 496.821 270.873 492.75 274.439 489.565C278.183 486.203 282.552 484.524 287.544 484.524C298.245 485.41 304.037 491.158 304.93 501.776V589.355C305.286 594.839 307.338 599.44 311.082 603.156C315.003 606.694 319.284 609.526 323.921 611.648C328.733 613.773 333.638 615.366 338.631 616.426C343.802 617.489 348.973 618.019 354.144 618.019C359.314 618.019 364.395 617.489 369.388 616.426C374.559 615.366 379.461 613.773 384.098 611.648C388.913 609.526 393.191 606.694 396.937 603.156C400.859 599.44 402.998 594.839 403.354 589.355V501.776C403.354 496.821 405.137 492.75 408.706 489.565C412.45 486.203 416.818 484.524 421.811 484.524C432.509 485.41 438.392 491.158 439.462 501.776V586.436V597.584C438.928 607.137 435.45 615.366 429.03 622.266C422.791 629.166 415.569 634.738 407.367 638.985C399.164 643.054 390.518 646.152 381.425 648.274C372.507 650.397 363.414 651.459 354.144 651.459ZM492.954 484.524C497.947 484.524 502.227 486.203 505.793 489.565C509.359 492.75 511.23 496.821 511.411 501.776V565.736C511.23 572.989 511.676 579.713 512.747 585.906C513.996 591.921 516.847 597.318 521.306 602.096C525.762 606.873 531.379 609.439 538.155 609.792H623.742C628.735 609.969 632.835 611.825 636.045 615.366C639.433 618.904 641.128 623.149 641.128 628.104C640.95 632.881 639.167 636.95 635.779 640.312C632.569 643.497 628.557 645.179 623.742 645.356H529.062C516.581 644.646 506.24 640.488 498.037 632.881C490.012 625.095 484.217 615.63 480.651 604.485C477.263 593.337 475.48 581.482 475.302 568.921V501.776C475.48 496.998 477.263 493.016 480.651 489.831C484.039 486.47 488.139 484.7 492.954 484.524ZM727.518 524.332C720.742 524.688 715.037 527.254 710.4 532.029C705.942 536.806 702.732 542.293 700.771 548.484C698.81 554.501 697.829 560.692 697.829 567.062C697.829 573.432 698.719 579.713 700.505 585.906C702.466 592.097 705.764 597.584 710.4 602.359C715.037 606.96 720.742 609.439 727.518 609.792H815.778C827.013 610.852 833.164 616.956 834.235 628.104C834.057 633.058 832.184 637.216 828.618 640.578C825.052 643.763 820.771 645.356 815.778 645.356H730.459H718.157C705.676 644.646 695.422 639.958 687.397 631.289C679.375 622.443 673.58 612.445 670.014 601.299C666.626 590.152 664.931 578.74 664.931 567.062C664.931 558.393 665.911 549.81 667.872 541.318C669.836 532.825 672.865 524.775 676.968 517.168C681.246 509.382 686.863 502.748 693.817 497.264C700.949 491.777 709.064 488.948 718.157 488.771H723.237H815.778C827.013 489.831 833.164 495.935 834.235 507.083C834.235 512.037 832.362 516.196 828.618 519.557C825.052 522.742 820.771 524.332 815.778 524.332H727.518Z" fill="url(#paint28_linear_4_3)"/>
<path d="M354.144 651.459C344.87 651.459 335.687 650.397 326.594 648.274C317.679 646.152 309.121 643.054 300.918 638.985C292.715 634.738 285.496 629.166 279.254 622.266C273.012 615.366 269.624 607.137 269.09 597.584V586.436V501.776C269.09 496.821 270.873 492.75 274.439 489.565C278.183 486.203 282.552 484.524 287.544 484.524C298.245 485.41 304.037 491.158 304.93 501.776V589.355C305.286 594.839 307.338 599.44 311.082 603.156C315.003 606.694 319.284 609.526 323.921 611.648C328.733 613.773 333.638 615.366 338.631 616.426C343.802 617.489 348.973 618.019 354.144 618.019C359.314 618.019 364.395 617.489 369.388 616.426C374.559 615.366 379.461 613.773 384.098 611.648C388.913 609.526 393.191 606.694 396.937 603.156C400.859 599.44 402.998 594.839 403.354 589.355V501.776C403.354 496.821 405.137 492.75 408.706 489.565C412.45 486.203 416.818 484.524 421.811 484.524C432.509 485.41 438.392 491.158 439.462 501.776V586.436V597.584C438.928 607.137 435.45 615.366 429.03 622.266C422.791 629.166 415.569 634.738 407.367 638.985C399.164 643.054 390.518 646.152 381.425 648.274C372.507 650.397 363.414 651.459 354.144 651.459ZM492.954 484.524C497.947 484.524 502.227 486.203 505.793 489.565C509.359 492.75 511.23 496.821 511.411 501.776V565.736C511.23 572.989 511.676 579.713 512.747 585.906C513.996 591.921 516.847 597.318 521.306 602.096C525.762 606.873 531.379 609.439 538.155 609.792H623.742C628.735 609.969 632.835 611.825 636.045 615.366C639.433 618.904 641.128 623.149 641.128 628.104C640.95 632.881 639.167 636.95 635.779 640.312C632.569 643.497 628.557 645.179 623.742 645.356H529.062C516.581 644.646 506.24 640.488 498.037 632.881C490.012 625.095 484.217 615.63 480.651 604.485C477.263 593.337 475.48 581.482 475.302 568.921V501.776C475.48 496.998 477.263 493.016 480.651 489.831C484.039 486.47 488.139 484.7 492.954 484.524ZM727.518 524.332C720.742 524.688 715.037 527.254 710.4 532.029C705.942 536.806 702.732 542.293 700.771 548.484C698.81 554.501 697.829 560.692 697.829 567.062C697.829 573.432 698.719 579.713 700.505 585.906C702.466 592.097 705.764 597.584 710.4 602.359C715.037 606.96 720.742 609.439 727.518 609.792H815.778C827.013 610.852 833.164 616.956 834.235 628.104C834.057 633.058 832.184 637.216 828.618 640.578C825.052 643.763 820.771 645.356 815.778 645.356H730.459H718.157C705.676 644.646 695.422 639.958 687.397 631.289C679.375 622.443 673.58 612.445 670.014 601.299C666.626 590.152 664.931 578.74 664.931 567.062C664.931 558.393 665.911 549.81 667.872 541.318C669.836 532.825 672.865 524.775 676.968 517.168C681.246 509.382 686.863 502.748 693.817 497.264C700.949 491.777 709.064 488.948 718.157 488.771H723.237H815.778C827.013 489.831 833.164 495.935 834.235 507.083C834.235 512.037 832.362 516.196 828.618 519.557C825.052 522.742 820.771 524.332 815.778 524.332H727.518Z" fill="url(#paint29_linear_4_3)"/>
<path d="M354.144 652.546C344.87 652.546 335.687 651.484 326.594 649.361C317.679 647.239 309.121 644.141 300.918 640.072C292.715 635.825 285.496 630.253 279.254 623.353C273.012 616.453 269.624 608.224 269.09 598.671V587.523V502.863C269.09 497.908 270.873 493.837 274.439 490.652C278.183 487.29 282.552 485.611 287.544 485.611C298.245 486.497 304.037 492.245 304.93 502.863V590.442C305.286 595.926 307.338 600.528 311.082 604.243C315.003 607.781 319.284 610.613 323.921 612.735C328.733 614.861 333.638 616.453 338.631 617.513C343.802 618.576 348.973 619.106 354.144 619.106C359.314 619.106 364.395 618.576 369.388 617.513C374.559 616.453 379.461 614.861 384.098 612.735C388.913 610.613 393.191 607.781 396.937 604.243C400.859 600.528 402.998 595.926 403.354 590.442V502.863C403.354 497.908 405.137 493.837 408.706 490.652C412.45 487.29 416.818 485.611 421.811 485.611C432.509 486.497 438.392 492.245 439.462 502.863V587.523V598.671C438.928 608.224 435.45 616.453 429.03 623.353C422.791 630.253 415.569 635.825 407.367 640.072C399.164 644.141 390.518 647.239 381.425 649.361C372.507 651.484 363.414 652.546 354.144 652.546ZM492.954 485.611C497.947 485.611 502.227 487.29 505.793 490.652C509.359 493.837 511.23 497.908 511.411 502.863V566.823C511.23 574.076 511.676 580.8 512.747 586.994C513.996 593.008 516.847 598.405 521.306 603.183C525.762 607.96 531.379 610.526 538.155 610.879H623.742C628.735 611.056 632.835 612.912 636.045 616.453C639.433 619.992 641.128 624.236 641.128 629.191C640.95 633.968 639.167 638.037 635.779 641.399C632.569 644.584 628.557 646.266 623.742 646.443H529.062C516.581 645.733 506.24 641.575 498.037 633.968C490.012 626.182 484.217 616.717 480.651 605.572C477.263 594.424 475.48 582.569 475.302 570.008V502.863C475.48 498.085 477.263 494.104 480.651 490.918C484.039 487.557 488.139 485.787 492.954 485.611ZM727.518 525.419C720.742 525.775 715.037 528.341 710.4 533.116C705.942 537.893 702.732 543.38 700.771 549.571C698.81 555.588 697.829 561.779 697.829 568.149C697.829 574.519 698.719 580.8 700.505 586.994C702.466 593.184 705.764 598.671 710.4 603.446C715.037 608.047 720.742 610.526 727.518 610.879H815.778C827.013 611.939 833.164 618.043 834.235 629.191C834.057 634.145 832.184 638.303 828.618 641.665C825.052 644.85 820.771 646.443 815.778 646.443H730.459H718.157C705.676 645.733 695.422 641.045 687.397 632.376C679.375 623.53 673.58 613.532 670.014 602.386C666.626 591.239 664.931 579.827 664.931 568.149C664.931 559.48 665.911 550.897 667.872 542.405C669.836 533.912 672.865 525.862 676.968 518.255C681.246 510.469 686.863 503.835 693.817 498.351C700.949 492.864 709.064 490.035 718.157 489.859H723.237H815.778C827.013 490.918 833.164 497.022 834.235 508.17C834.235 513.124 832.362 517.283 828.618 520.644C825.052 523.829 820.771 525.419 815.778 525.419H727.518Z" fill="url(#paint30_linear_4_3)"/>
<path d="M354.144 646.024C344.87 646.024 335.687 644.962 326.594 642.839C317.679 640.717 309.121 637.618 300.918 633.55C292.715 629.302 285.496 623.731 279.254 616.831C273.012 609.931 269.624 601.702 269.09 592.149V581.001V496.34C269.09 491.386 270.873 487.315 274.439 484.13C278.183 480.768 282.552 479.088 287.544 479.088C298.245 479.974 304.037 485.722 304.93 496.34V583.92C305.286 589.404 307.338 594.005 311.082 597.72C315.003 601.259 319.284 604.09 323.921 606.213C328.733 608.338 333.638 609.931 338.631 610.991C343.802 612.053 348.973 612.583 354.144 612.583C359.314 612.583 364.395 612.053 369.388 610.991C374.559 609.931 379.461 608.338 384.098 606.213C388.913 604.09 393.191 601.259 396.937 597.72C400.859 594.005 402.998 589.404 403.354 583.92V496.34C403.354 491.386 405.137 487.315 408.706 484.13C412.45 480.768 416.818 479.088 421.811 479.088C432.509 479.974 438.392 485.722 439.462 496.34V581.001V592.149C438.928 601.702 435.45 609.931 429.03 616.831C422.791 623.731 415.569 629.302 407.367 633.55C399.164 637.618 390.518 640.717 381.425 642.839C372.507 644.962 363.414 646.024 354.144 646.024ZM492.954 479.088C497.947 479.088 502.227 480.768 505.793 484.13C509.359 487.315 511.23 491.386 511.411 496.34V560.301C511.23 567.554 511.676 574.278 512.747 580.471C513.996 586.485 516.847 591.883 521.306 596.66C525.762 601.438 531.379 604.004 538.155 604.357H623.742C628.735 604.533 632.835 606.39 636.045 609.931C639.433 613.469 641.128 617.714 641.128 622.668C640.95 627.446 639.167 631.514 635.779 634.876C632.569 638.061 628.557 639.744 623.742 639.92H529.062C516.581 639.211 506.24 635.053 498.037 627.446C490.012 619.66 484.217 610.194 480.651 599.049C477.263 587.901 475.48 576.047 475.302 563.486V496.34C475.48 491.563 477.263 487.581 480.651 484.396C484.039 481.034 488.139 479.265 492.954 479.088ZM727.518 518.897C720.742 519.253 715.037 521.818 710.4 526.593C705.942 531.371 702.732 536.858 700.771 543.049C698.81 549.066 697.829 555.257 697.829 561.627C697.829 567.997 698.719 574.278 700.505 580.471C702.466 586.662 705.764 592.149 710.4 596.924C715.037 601.525 720.742 604.004 727.518 604.357H815.778C827.013 605.417 833.164 611.521 834.235 622.668C834.057 627.623 832.184 631.781 828.618 635.143C825.052 638.328 820.771 639.92 815.778 639.92H730.459H718.157C705.676 639.211 695.422 634.523 687.397 625.854C679.375 617.008 673.58 607.009 670.014 595.864C666.626 584.716 664.931 573.305 664.931 561.627C664.931 552.958 665.911 544.375 667.872 535.882C669.836 527.39 672.865 519.34 676.968 511.733C681.246 503.947 686.863 497.313 693.817 491.829C700.949 486.342 709.064 483.513 718.157 483.336H723.237H815.778C827.013 484.396 833.164 490.5 834.235 501.648C834.235 506.602 832.362 510.76 828.618 514.122C825.052 517.307 820.771 518.897 815.778 518.897H727.518Z" fill="#C8D9D9"/>
</g>
<defs>
<linearGradient id="paint0_linear_4_3" x1="991.995" y1="222.744" x2="128.7" y2="880.873" gradientUnits="userSpaceOnUse">
<stop stop-color="#5EE1F5"/>
<stop offset="0.341346" stop-color="#43D7CA"/>
<stop offset="0.668269" stop-color="#1AB087"/>
<stop offset="1" stop-color="#126E55"/>
</linearGradient>
<linearGradient id="paint1_linear_4_3" x1="256.41" y1="940.699" x2="841.687" y2="160.986" gradientUnits="userSpaceOnUse">
<stop stop-color="#5EE1F5"/>
<stop offset="0.341346" stop-color="#43D7CA"/>
<stop offset="0.668269" stop-color="#1AB087"/>
<stop offset="1" stop-color="#126E55"/>
</linearGradient>
<linearGradient id="paint2_linear_4_3" x1="255.26" y1="874.985" x2="829.118" y2="206.39" gradientUnits="userSpaceOnUse">
<stop stop-color="#504F4F"/>
<stop offset="1" stop-color="#818181"/>
</linearGradient>
<linearGradient id="paint3_linear_4_3" x1="548.174" y1="409.176" x2="548.174" y2="680.943" gradientUnits="userSpaceOnUse">
<stop stop-color="#58DFEB"/>
<stop offset="1" stop-color="#158A6B"/>
</linearGradient>
<linearGradient id="paint4_linear_4_3" x1="547.078" y1="411.35" x2="547.078" y2="683.118" gradientUnits="userSpaceOnUse">
<stop stop-color="#58DFEB"/>
<stop offset="1" stop-color="#158A6B"/>
</linearGradient>
<linearGradient id="paint5_linear_4_3" x1="547.078" y1="411.35" x2="547.078" y2="683.118" gradientUnits="userSpaceOnUse">
<stop stop-color="#58DFEB"/>
<stop offset="1" stop-color="#158A6B"/>
</linearGradient>
<linearGradient id="paint6_linear_4_3" x1="547.078" y1="412.438" x2="547.078" y2="684.205" gradientUnits="userSpaceOnUse">
<stop stop-color="#58DFEB"/>
<stop offset="1" stop-color="#158A6B"/>
</linearGradient>
<linearGradient id="paint7_linear_4_3" x1="548.174" y1="416.786" x2="548.174" y2="688.553" gradientUnits="userSpaceOnUse">
<stop stop-color="#58DFEB"/>
<stop offset="1" stop-color="#158A6B"/>
</linearGradient>
<linearGradient id="paint8_linear_4_3" x1="547.078" y1="417.873" x2="547.078" y2="689.64" gradientUnits="userSpaceOnUse">
<stop stop-color="#58DFEB"/>
<stop offset="1" stop-color="#158A6B"/>
</linearGradient>
<linearGradient id="paint9_linear_4_3" x1="547.078" y1="417.873" x2="547.078" y2="689.64" gradientUnits="userSpaceOnUse">
<stop stop-color="#58DFEB"/>
<stop offset="1" stop-color="#158A6B"/>
</linearGradient>
<linearGradient id="paint10_linear_4_3" x1="547.078" y1="418.96" x2="547.078" y2="690.727" gradientUnits="userSpaceOnUse">
<stop stop-color="#58DFEB"/>
<stop offset="1" stop-color="#158A6B"/>
</linearGradient>
<linearGradient id="paint11_linear_4_3" x1="548.174" y1="415.699" x2="548.174" y2="687.466" gradientUnits="userSpaceOnUse">
<stop stop-color="#58DFEB"/>
<stop offset="1" stop-color="#158A6B"/>
</linearGradient>
<linearGradient id="paint12_linear_4_3" x1="547.078" y1="416.786" x2="547.078" y2="688.553" gradientUnits="userSpaceOnUse">
<stop stop-color="#58DFEB"/>
<stop offset="1" stop-color="#158A6B"/>
</linearGradient>
<linearGradient id="paint13_linear_4_3" x1="547.078" y1="416.786" x2="547.078" y2="688.553" gradientUnits="userSpaceOnUse">
<stop stop-color="#58DFEB"/>
<stop offset="1" stop-color="#158A6B"/>
</linearGradient>
<linearGradient id="paint14_linear_4_3" x1="547.078" y1="417.873" x2="547.078" y2="689.64" gradientUnits="userSpaceOnUse">
<stop stop-color="#58DFEB"/>
<stop offset="1" stop-color="#158A6B"/>
</linearGradient>
<linearGradient id="paint15_linear_4_3" x1="548.174" y1="414.612" x2="548.174" y2="686.379" gradientUnits="userSpaceOnUse">
<stop stop-color="#58DFEB"/>
<stop offset="1" stop-color="#158A6B"/>
</linearGradient>
<linearGradient id="paint16_linear_4_3" x1="547.078" y1="415.699" x2="547.078" y2="687.466" gradientUnits="userSpaceOnUse">
<stop stop-color="#58DFEB"/>
<stop offset="1" stop-color="#158A6B"/>
</linearGradient>
<linearGradient id="paint17_linear_4_3" x1="547.078" y1="415.699" x2="547.078" y2="687.466" gradientUnits="userSpaceOnUse">
<stop stop-color="#58DFEB"/>
<stop offset="1" stop-color="#158A6B"/>
</linearGradient>
<linearGradient id="paint18_linear_4_3" x1="547.078" y1="416.786" x2="547.078" y2="688.553" gradientUnits="userSpaceOnUse">
<stop stop-color="#58DFEB"/>
<stop offset="1" stop-color="#158A6B"/>
</linearGradient>
<linearGradient id="paint19_linear_4_3" x1="548.174" y1="413.525" x2="548.174" y2="685.292" gradientUnits="userSpaceOnUse">
<stop stop-color="#58DFEB"/>
<stop offset="1" stop-color="#158A6B"/>
</linearGradient>
<linearGradient id="paint20_linear_4_3" x1="547.078" y1="414.612" x2="547.078" y2="686.379" gradientUnits="userSpaceOnUse">
<stop stop-color="#58DFEB"/>
<stop offset="1" stop-color="#158A6B"/>
</linearGradient>
<linearGradient id="paint21_linear_4_3" x1="547.078" y1="414.612" x2="547.078" y2="686.379" gradientUnits="userSpaceOnUse">
<stop stop-color="#58DFEB"/>
<stop offset="1" stop-color="#158A6B"/>
</linearGradient>
<linearGradient id="paint22_linear_4_3" x1="547.078" y1="415.699" x2="547.078" y2="687.466" gradientUnits="userSpaceOnUse">
<stop stop-color="#58DFEB"/>
<stop offset="1" stop-color="#158A6B"/>
</linearGradient>
<linearGradient id="paint23_linear_4_3" x1="548.174" y1="412.438" x2="548.174" y2="684.205" gradientUnits="userSpaceOnUse">
<stop stop-color="#58DFEB"/>
<stop offset="1" stop-color="#158A6B"/>
</linearGradient>
<linearGradient id="paint24_linear_4_3" x1="547.078" y1="413.525" x2="547.078" y2="685.292" gradientUnits="userSpaceOnUse">
<stop stop-color="#58DFEB"/>
<stop offset="1" stop-color="#158A6B"/>
</linearGradient>
<linearGradient id="paint25_linear_4_3" x1="547.078" y1="413.525" x2="547.078" y2="685.292" gradientUnits="userSpaceOnUse">
<stop stop-color="#58DFEB"/>
<stop offset="1" stop-color="#158A6B"/>
</linearGradient>
<linearGradient id="paint26_linear_4_3" x1="547.078" y1="414.612" x2="547.078" y2="686.379" gradientUnits="userSpaceOnUse">
<stop stop-color="#58DFEB"/>
<stop offset="1" stop-color="#158A6B"/>
</linearGradient>
<linearGradient id="paint27_linear_4_3" x1="548.174" y1="411.35" x2="548.174" y2="683.118" gradientUnits="userSpaceOnUse">
<stop stop-color="#58DFEB"/>
<stop offset="1" stop-color="#158A6B"/>
</linearGradient>
<linearGradient id="paint28_linear_4_3" x1="547.078" y1="412.438" x2="547.078" y2="684.205" gradientUnits="userSpaceOnUse">
<stop stop-color="#58DFEB"/>
<stop offset="1" stop-color="#158A6B"/>
</linearGradient>
<linearGradient id="paint29_linear_4_3" x1="547.078" y1="412.438" x2="547.078" y2="684.205" gradientUnits="userSpaceOnUse">
<stop stop-color="#58DFEB"/>
<stop offset="1" stop-color="#158A6B"/>
</linearGradient>
<linearGradient id="paint30_linear_4_3" x1="547.078" y1="413.525" x2="547.078" y2="685.292" gradientUnits="userSpaceOnUse">
<stop stop-color="#58DFEB"/>
<stop offset="1" stop-color="#158A6B"/>
</linearGradient>
<clipPath id="clip0_4_3">
<rect width="1095" height="1088" rx="544" fill="white"/>
</clipPath>
</defs>
</svg>
